<svg width="32" height="32" viewBox="0 0 32 32" fill="none" xmlns="http://www.w3.org/2000/svg">
<g clip-path="url(#clip0_613_463)">
<path d="M16 32C24.8365 32 32 24.8365 32 16C32 7.16344 24.8365 0 16 0C7.16344 0 0 7.16344 0 16C0 24.8365 7.16344 32 16 32Z" fill="url(#paint0_linear_613_463)"/>
<path d="M16 5.70117L7 10.9239V21.3228L16 26.5457L24.9998 21.3228V10.9239L16 5.70117ZM22.3419 19.7841L16 23.4214L9.65802 19.7841V12.4628L16 8.77888L22.3419 12.4628V19.7841Z" fill="white"/>
<g style="mix-blend-mode:multiply">
<g style="mix-blend-mode:multiply">
<path d="M16 8.77888V5.70117L7 10.9239V21.3228L16 26.5457V23.4214L9.65802 19.7841V12.4628L16 8.77888Z" fill="white"/>
</g>
</g>
<g style="mix-blend-mode:multiply">
<g style="mix-blend-mode:multiply">
<path d="M16 23.4214V26.499L25 21.2762V10.9239L16 5.70117V8.77888L22.3419 12.4162V19.7374L16 23.4214Z" fill="white"/>
</g>
</g>
<path d="M20.2451 18.5246L16.0016 20.9494L11.8047 18.5246V13.6749L16.0016 11.25L20.2451 13.6749V18.5246Z" fill="white"/>
<path d="M27.1371 27.1371C25.6746 28.5996 23.9383 29.7598 22.0274 30.5513C20.1165 31.3428 18.0684 31.7502 16.0001 31.7502C13.9318 31.7502 11.8837 31.3428 9.9728 30.5513C8.06191 29.7598 6.32563 28.5996 4.8631 27.1371C3.40057 25.6746 2.24042 23.9383 1.4489 22.0274C0.657388 20.1165 0.25 18.0684 0.25 16.0001C0.25 13.9318 0.657388 11.8837 1.4489 9.9728C2.24042 8.06191 3.40057 6.32563 4.8631 4.8631C7.81681 1.90938 11.8229 0.25 16.0001 0.25C20.1773 0.25 24.1834 1.90938 27.1371 4.8631C30.0908 7.81681 31.7502 11.8229 31.7502 16.0001C31.7502 20.1773 30.0908 24.1834 27.1371 27.1371Z" stroke="white" stroke-width="0.5"/>
</g>
<defs>
<linearGradient id="paint0_linear_613_463" x1="16" y1="0" x2="16" y2="32" gradientUnits="userSpaceOnUse">
<stop stop-color="#003A9B"/>
<stop offset="1" stop-color="#032D74"/>
</linearGradient>
<clipPath id="clip0_613_463">
<rect width="32" height="32" fill="white"/>
</clipPath>
</defs>
</svg>
