<svg width="32" height="32" viewBox="0 0 32 32" fill="none" xmlns="http://www.w3.org/2000/svg">
<path d="M16 32C24.8366 32 32 24.8366 32 16C32 7.16344 24.8366 0 16 0C7.16344 0 0 7.16344 0 16C0 24.8366 7.16344 32 16 32Z" fill="url(#paint0_linear_1048_13904)"/>
<path d="M16 31.75C24.6985 31.75 31.75 24.6985 31.75 16C31.75 7.30152 24.6985 0.25 16 0.25C7.30152 0.25 0.25 7.30152 0.25 16C0.25 24.6985 7.30152 31.75 16 31.75Z" stroke="white" stroke-width="0.5"/>
<g clip-path="url(#clip0_1048_13904)">
<path d="M16.1004 11.9492C14.2004 11.9492 12.7004 13.1992 12.3004 14.9992H10.6504V16.2992H12.2004C12.4004 18.3492 14.0504 19.8492 16.1004 19.8492C17.6504 19.8492 18.9504 19.2492 19.5004 18.1992L18.1004 17.2992C17.7504 17.8992 16.9504 18.2492 16.1004 18.2492C14.9004 18.2492 14.0504 17.4992 13.8504 16.2992H20.8504L21.3004 14.9992H19.7004C19.4504 13.2492 17.9504 11.9492 16.1004 11.9492ZM13.9504 14.9992C14.2504 13.9992 14.9504 13.3992 16.0004 13.3992C17.0504 13.3992 17.8004 14.0492 17.9004 14.9992H13.9504Z" fill="white"/>
<path d="M13.5677 24.3521L13.0645 26.0803C7.49579 24.459 4.29702 18.6325 5.91835 13.0638L7.64658 13.567C6.30479 18.1756 8.95909 23.0103 13.5677 24.3521ZM18.9349 5.91759L18.4317 7.64583C23.0403 8.98762 25.6946 13.8223 24.3528 18.431L26.0811 18.9341C27.7024 13.3654 24.5036 7.53892 18.9349 5.91759Z" fill="white"/>
</g>
<defs>
<linearGradient id="paint0_linear_1048_13904" x1="16" y1="0" x2="16" y2="32" gradientUnits="userSpaceOnUse">
<stop stop-color="#04515B"/>
<stop offset="1" stop-color="#012C32"/>
</linearGradient>
<clipPath id="clip0_1048_13904">
<rect width="22" height="22" fill="white" transform="translate(5 5)"/>
</clipPath>
</defs>
</svg>
