<svg width="32" height="32" viewBox="0 0 32 32" fill="none" xmlns="http://www.w3.org/2000/svg">
<g clip-path="url(#clip0_613_411)">
<path d="M31.75 16C31.75 24.698 24.698 31.75 16 31.75C7.302 31.75 0.25 24.698 0.25 16C0.25 7.302 7.302 0.25 16 0.25C24.698 0.25 31.75 7.302 31.75 16Z" fill="url(#paint0_linear_613_411)" stroke="white" stroke-width="0.5"/>
<path d="M16.9667 14.7108L22.0457 9.72984L20.1187 7.83984L16.0027 11.8768L11.8877 7.83984L9.95969 9.72984L15.0397 14.7108C15.3057 14.9718 15.6547 15.1028 16.0027 15.1028C16.3527 15.1028 16.7007 14.9728 16.9667 14.7108ZM24.3197 20.0328L20.2037 15.9968L24.3187 11.9598L22.3927 10.0698L17.3127 15.0518C17.1871 15.1752 17.0872 15.3222 17.0189 15.4844C16.9506 15.6466 16.9151 15.8208 16.9147 15.9968C16.9145 16.1731 16.9497 16.3475 17.0182 16.5099C17.0868 16.6722 17.1873 16.8191 17.3137 16.9418L22.3927 21.9228L24.3197 20.0328V20.0328ZM15.9957 20.1228L20.1117 24.1598L22.0387 22.2698L16.9587 17.2878C16.7012 17.0363 16.3556 16.8955 15.9957 16.8955C15.6358 16.8955 15.2901 17.0363 15.0327 17.2878L9.95269 22.2698L11.8797 24.1598L15.9957 20.1228V20.1228ZM14.6857 16.9478C14.8112 16.8244 14.911 16.6774 14.9793 16.5152C15.0476 16.353 15.0831 16.1788 15.0837 16.0028C15.0838 15.8269 15.0486 15.6527 14.9802 15.4906C14.9119 15.3284 14.8117 15.1816 14.6857 15.0588L9.60669 10.0768L7.67969 11.9668L11.7957 16.0028L7.67969 20.0398L9.60669 21.9298L14.6867 16.9478H14.6857Z" fill="white"/>
</g>
<defs>
<linearGradient id="paint0_linear_613_411" x1="16" y1="0" x2="16" y2="32" gradientUnits="userSpaceOnUse">
<stop stop-color="#393939"/>
<stop offset="1" stop-color="#060606"/>
</linearGradient>
<clipPath id="clip0_613_411">
<rect width="32" height="32" fill="white"/>
</clipPath>
</defs>
</svg>
