<svg width="32" height="32" viewBox="0 0 32 32" fill="none" xmlns="http://www.w3.org/2000/svg">
<g clip-path="url(#clip0_613_442)">
<path d="M31.75 16C31.75 24.698 24.698 31.75 16 31.75C7.302 31.75 0.25 24.698 0.25 16C0.25 7.302 7.302 0.25 16 0.25C24.698 0.25 31.75 7.302 31.75 16Z" fill="url(#paint0_linear_613_442)" stroke="white" stroke-width="0.5"/>
<path fill-rule="evenodd" clip-rule="evenodd" d="M25.9999 16.2969C25.9979 16.3649 25.9059 16.3829 25.8799 16.3199C25.8684 16.2931 25.8567 16.2665 25.8449 16.2399C25.8342 16.2156 25.8301 16.1889 25.8331 16.1626C25.8361 16.1362 25.846 16.1112 25.8619 16.0899C25.8679 16.0799 25.8819 16.0629 25.8979 16.0419C25.9419 15.9849 26.0049 15.9929 26.0049 16.0569C26.0049 16.1399 26.0029 16.2119 25.9999 16.2969V16.2969ZM25.5159 14.9749C25.4987 15.0055 25.4739 15.031 25.4439 15.0492C25.4139 15.0673 25.3797 15.0774 25.3447 15.0784C25.3097 15.0794 25.275 15.0713 25.244 15.0549C25.213 15.0385 25.1868 15.0144 25.1679 14.9849L25.1279 14.9249C24.8186 14.4527 24.4761 14.0033 24.1029 13.5799C24.0823 13.5557 24.0691 13.5261 24.0648 13.4947C24.0605 13.4632 24.0652 13.4312 24.0784 13.4023C24.0916 13.3735 24.1128 13.349 24.1395 13.3317C24.1661 13.3144 24.1971 13.3051 24.2289 13.3049H24.2319C25.1289 13.3049 25.5989 13.5249 25.7419 13.7959C25.8619 14.0219 25.8249 14.4179 25.5159 14.9749V14.9749ZM25.3159 19.6629C25.2679 19.7852 25.2176 19.9066 25.1649 20.0269L25.1399 20.0769C24.8099 20.7119 24.2559 21.2119 23.5169 21.5599C23.4798 21.5777 23.4384 21.5845 23.3976 21.5794C23.3568 21.5743 23.3184 21.5576 23.2868 21.5312C23.2553 21.5048 23.232 21.4699 23.2198 21.4307C23.2076 21.3914 23.2069 21.3495 23.2179 21.3099C23.4639 20.4299 23.6499 19.4769 23.7699 18.4769C23.7929 18.2905 23.8845 18.1194 24.0269 17.9969C24.3309 17.7329 24.6149 17.4709 24.8769 17.2099L24.8799 17.2069C24.9092 17.1774 24.9456 17.1561 24.9857 17.1449C25.0257 17.1337 25.068 17.1332 25.1083 17.1433C25.1486 17.1533 25.1856 17.1737 25.2157 17.2024C25.2458 17.2311 25.2679 17.2671 25.2799 17.3069C25.5379 18.1669 25.5519 18.9659 25.3159 19.6629V19.6629ZM23.3049 22.8369C23.0982 23.0582 22.8813 23.2698 22.6549 23.4709C22.5649 23.5509 22.4299 23.4509 22.4809 23.3409C22.5581 23.1764 22.6305 23.0097 22.6979 22.8409C22.7044 22.8247 22.7148 22.8102 22.728 22.7988C22.7412 22.7873 22.7569 22.7791 22.7739 22.7749C22.9159 22.7389 23.0539 22.6999 23.1889 22.6559C23.2979 22.6209 23.3829 22.7529 23.3049 22.8369V22.8369ZM21.8279 22.0439C21.5159 22.0882 21.2018 22.1156 20.8869 22.1259C20.0849 22.1539 19.2369 22.0859 18.3669 21.9249C18.3436 21.9205 18.3224 21.909 18.306 21.8919C18.2897 21.8748 18.2791 21.8531 18.2758 21.8296C18.2725 21.8062 18.2766 21.7824 18.2876 21.7614C18.2985 21.7405 18.3158 21.7235 18.3369 21.7129C19.8147 20.9728 21.2306 20.115 22.5709 19.1479C22.6509 19.0889 22.7639 19.1589 22.7469 19.2579C22.5969 20.1659 22.3869 21.0199 22.1249 21.7949C22.1031 21.8596 22.0638 21.917 22.0114 21.9608C21.959 22.0046 21.8954 22.033 21.8279 22.0429V22.0439ZM21.5199 23.2519C20.8059 24.6569 19.9259 25.4459 19.0729 25.4299C18.1459 25.4129 17.2219 24.4479 16.5379 22.7819L16.5369 22.7799C16.5161 22.729 16.5162 22.6721 16.5369 22.6212C16.5576 22.5704 16.5975 22.5297 16.6479 22.5079L16.6699 22.4979C16.7147 22.4784 16.7648 22.4748 16.8119 22.4879C18.0919 22.8479 19.3539 23.0349 20.5359 23.0349C20.8095 23.0344 21.083 23.0237 21.3559 23.0029C21.4879 22.9929 21.5799 23.1329 21.5199 23.2519ZM17.2899 25.9239C16.8617 25.9787 16.4305 26.0061 15.9989 26.0059C14.0836 26.0108 12.2077 25.4621 10.5969 24.4259C10.4869 24.3559 10.5329 24.1859 10.6639 24.1789L10.7389 24.1749C11.1439 24.1489 11.5889 24.0889 12.0719 23.9959C13.0979 23.7989 14.2379 23.4609 15.4319 23.0049C15.4834 22.9854 15.5404 22.9869 15.5909 23.0089C15.6413 23.031 15.6812 23.0719 15.7019 23.1229V23.1249C16.1649 24.2509 16.7349 25.1029 17.3739 25.6449C17.397 25.6651 17.4138 25.6916 17.4223 25.7211C17.4308 25.7507 17.4306 25.782 17.4217 25.8114C17.4129 25.8409 17.3957 25.8671 17.3724 25.8871C17.349 25.907 17.3203 25.9198 17.2899 25.9239V25.9239ZM11.5029 18.9129C12.4677 18.137 13.4866 17.4309 14.5519 16.7999C14.5684 18.178 14.7238 19.551 15.0159 20.8979C13.7751 20.3682 12.5969 19.7024 11.5029 18.9129V18.9129ZM8.76088 22.7969C8.55088 22.3999 8.82288 21.4799 10.2039 20.0829C10.238 20.0486 10.2645 20.0074 10.2817 19.9622C10.2988 19.9169 10.3062 19.8685 10.3034 19.8202C10.3006 19.7718 10.2876 19.7247 10.2652 19.6817C10.2429 19.6387 10.2118 19.601 10.1739 19.5709L10.0089 19.4389C9.94252 19.3854 9.8587 19.3583 9.77358 19.3629C9.68845 19.3675 9.60805 19.4035 9.54788 19.4639C9.52976 19.4818 9.51176 19.4998 9.49388 19.5179C8.80388 20.2259 8.31988 20.8819 8.04988 21.4719C8.03224 21.5098 8.00482 21.5424 7.97044 21.5663C7.93606 21.5901 7.89595 21.6044 7.85423 21.6077C7.8125 21.611 7.77066 21.6031 7.733 21.5848C7.69533 21.5666 7.66319 21.5386 7.63988 21.5039C6.56081 19.8715 5.98785 17.9567 5.99288 15.9999C5.99288 15.2899 6.06588 14.5899 6.20988 13.9119C6.23188 13.8089 6.37688 13.8019 6.40688 13.9019C6.61488 14.5879 6.95188 15.2969 7.41888 16.0139C8.04788 16.9789 8.87688 17.9069 9.85888 18.7579C10.1939 19.0479 10.5489 19.3299 10.9179 19.6009C11.6659 20.1509 12.4799 20.6569 13.3449 21.1069C13.7289 21.3069 14.1019 21.4969 14.4849 21.6689C14.5902 21.7166 14.704 21.7428 14.8196 21.7459C14.9351 21.749 15.0502 21.7289 15.1579 21.6869C15.3379 21.6159 15.5199 21.5419 15.7029 21.4669C15.7993 21.4265 15.8781 21.3527 15.9247 21.2591C15.9713 21.1655 15.9827 21.0582 15.9569 20.9569C15.9517 20.9373 15.9467 20.9176 15.9419 20.8979C15.6399 19.6299 15.4729 18.2029 15.4529 16.7079V16.6539C15.4509 16.5719 15.4519 16.4899 15.4509 16.4089V16.2819C15.4526 15.9334 15.4626 15.5849 15.4809 15.2369C15.5739 13.4329 15.8799 11.7369 16.3659 10.3119C16.3766 10.2806 16.381 10.2474 16.3789 10.2144C16.3768 10.1814 16.3682 10.1491 16.3537 10.1194C16.3391 10.0896 16.3188 10.0631 16.294 10.0412C16.2691 10.0193 16.2402 10.0026 16.2089 9.99188C16.0811 9.94791 15.9527 9.90557 15.8239 9.86488C15.7614 9.8449 15.6936 9.85026 15.635 9.87982C15.5765 9.90937 15.5319 9.96075 15.5109 10.0229C14.9839 11.5719 14.6579 13.4089 14.5709 15.3529C14.5657 15.4744 14.5304 15.5927 14.4681 15.6971C14.4057 15.8015 14.3184 15.8887 14.2139 15.9509C13.1252 16.5902 12.0818 17.3036 11.0909 18.0859C10.9985 18.1594 10.8834 18.1983 10.7653 18.1957C10.6473 18.1932 10.5339 18.1494 10.4449 18.0719C9.52888 17.2779 8.75788 16.4159 8.17488 15.5219C7.03088 13.7639 6.75888 12.1069 7.40988 10.8589L7.41488 10.8499C7.49788 10.7129 7.58488 10.5769 7.67488 10.4429C8.42188 9.45288 9.81488 8.87788 11.6609 8.81288C11.7779 8.80988 11.8959 8.80688 12.0149 8.80688C13.1469 8.80688 14.3629 8.99388 15.5989 9.35088L15.6809 9.37488L15.7429 9.39288C16.0289 9.47788 16.3159 9.57288 16.6029 9.67588L16.6229 9.68288C16.7212 9.71866 16.8192 9.75533 16.9169 9.79288L16.9839 9.81888C17.5879 10.0529 18.1909 10.3239 18.7869 10.6339C19.9014 11.2089 20.9499 11.9036 21.9139 12.7059C20.1609 13.1079 18.1239 13.8819 16.0739 14.9259C16.0274 14.9498 15.9881 14.9855 15.9597 15.0294C15.9312 15.0732 15.9148 15.1237 15.9119 15.1759C15.9049 15.3029 15.8949 15.5579 15.8889 15.7609C15.8878 15.7899 15.8944 15.8188 15.908 15.8445C15.9216 15.8702 15.9417 15.8919 15.9663 15.9074C15.9909 15.9228 16.0192 15.9316 16.0482 15.9328C16.0773 15.9339 16.1061 15.9274 16.1319 15.9139L16.1329 15.9129C18.1619 14.8479 20.1859 14.0519 21.9239 13.6309C22.0806 13.5928 22.2175 13.4978 22.308 13.3643C22.3986 13.2309 22.4363 13.0686 22.4139 12.9089C22.3823 12.6805 22.3463 12.4528 22.3059 12.2259C22.2561 11.9453 22.1026 11.6936 21.8759 11.5209C20.46 10.4502 18.8999 9.58501 17.2419 8.95088C17.2085 8.93841 17.1783 8.91887 17.1532 8.89361C17.1281 8.86835 17.1087 8.83796 17.0965 8.80453C17.0842 8.77109 17.0794 8.73541 17.0822 8.69991C17.085 8.66442 17.0955 8.62995 17.1129 8.59888C17.7909 7.38588 18.5979 6.70588 19.3829 6.70588H19.4079C20.3349 6.72288 21.2589 7.68788 21.9429 9.35388C22.2899 10.1979 22.5579 11.1709 22.7419 12.2269L22.7389 12.2249C22.8169 12.6759 22.8799 13.1419 22.9269 13.6209L22.9149 13.6279L22.9319 13.6449C23.0593 15.0028 23.0626 16.3694 22.9419 17.7279C21.7019 18.7299 20.1689 19.7279 18.4829 20.6199C17.9299 20.9139 17.3759 21.1869 16.8269 21.4389L16.8019 21.4499L16.6759 21.5079C16.2315 21.709 15.782 21.8987 15.3279 22.0769L15.2539 22.1069L15.1599 22.1419L14.9379 22.2259L14.8779 22.2489C14.7879 22.2829 14.6979 22.3149 14.6099 22.3469L14.5769 22.3589C13.6269 22.6959 12.7239 22.9509 11.9009 23.1089C9.91088 23.4929 8.97488 23.1989 8.76088 22.7959V22.7969ZM10.1909 7.84988C11.8844 6.6375 13.9162 5.98822 15.9989 5.99388C16.5559 5.99388 17.1069 6.03888 17.6459 6.12788C17.6782 6.13316 17.7082 6.1477 17.7324 6.16974C17.7566 6.19177 17.7739 6.22035 17.7821 6.25201C17.7904 6.28367 17.7893 6.31705 17.7789 6.34809C17.7686 6.37913 17.7495 6.4065 17.7239 6.42688C17.2009 6.83688 16.7159 7.44288 16.2859 8.22888C16.2351 8.32192 16.1542 8.39495 16.0564 8.436C15.9587 8.47706 15.8499 8.48372 15.7479 8.45488C14.3249 8.05488 12.9239 7.86488 11.6299 7.91088C11.1519 7.92788 10.6999 7.97588 10.2749 8.05488C10.1559 8.07688 10.0919 7.92088 10.1899 7.84988H10.1909ZM23.9259 15.1429C23.9254 15.1182 23.9329 15.094 23.9472 15.0738C23.9614 15.0537 23.9817 15.0386 24.0052 15.0308C24.0286 15.023 24.0539 15.0228 24.0774 15.0304C24.1009 15.038 24.1214 15.0529 24.1359 15.0729C24.3209 15.3329 24.4934 15.6015 24.6529 15.8779C24.6791 15.9241 24.69 15.9774 24.6841 16.0302C24.6781 16.083 24.6557 16.1326 24.6199 16.1719C24.4476 16.361 24.2692 16.5445 24.0849 16.7219C24.0705 16.736 24.0523 16.7454 24.0325 16.749C24.0127 16.7526 23.9923 16.7501 23.974 16.7419C23.9556 16.7337 23.9401 16.7201 23.9296 16.703C23.9191 16.6859 23.9139 16.666 23.9149 16.6459C23.9341 16.1451 23.9374 15.6439 23.9249 15.1429H23.9259ZM22.8879 8.74288C23.9258 9.72507 24.7409 10.9186 25.2779 12.2429C25.2893 12.2708 25.2931 12.3013 25.2887 12.3312C25.2843 12.361 25.2719 12.3892 25.2529 12.4126C25.2338 12.436 25.2088 12.4539 25.1805 12.4643C25.1522 12.4748 25.1216 12.4774 25.0919 12.4719C24.7719 12.4177 24.4473 12.3946 24.1229 12.4029C24.003 12.4053 23.8861 12.365 23.7932 12.2891C23.7003 12.2133 23.6375 12.1069 23.6159 11.9889C23.4209 10.8989 23.1399 9.89088 22.7789 9.01088L22.7159 8.86288C22.6699 8.75488 22.8029 8.66288 22.8879 8.74288ZM26.6719 13.7309C26.2365 11.6664 25.2077 9.77393 23.7119 8.28588C22.7015 7.2698 21.4997 6.46416 20.1759 5.91557C18.8522 5.36699 17.4328 5.08634 15.9999 5.08988C14.5667 5.08595 13.147 5.3663 11.8229 5.91473C10.4987 6.46315 9.29656 7.26874 8.28588 8.28488C7.79012 8.78052 7.34276 9.3223 6.94988 9.90288C6.83388 10.0559 6.72988 10.2189 6.63788 10.3889C5.62026 12.0829 5.08498 14.0228 5.08988 15.9989C5.08988 18.9139 6.22488 21.6529 8.28488 23.7139C10.3449 25.7739 13.0849 26.9089 15.9989 26.9089C18.9129 26.9089 21.6519 25.7739 23.7129 23.7139C24.6709 22.7587 25.4427 21.6335 25.9889 20.3959C26.0549 20.2599 26.1119 20.1219 26.1619 19.9799C26.9306 17.9995 27.1102 15.839 26.6789 13.7589L26.6719 13.7309V13.7309Z" fill="white"/>
</g>
<defs>
<linearGradient id="paint0_linear_613_442" x1="16" y1="0" x2="16" y2="32" gradientUnits="userSpaceOnUse">
<stop stop-color="#7B2BF9"/>
<stop offset="1" stop-color="#7B2BF9"/>
</linearGradient>
<clipPath id="clip0_613_442">
<rect width="32" height="32" fill="white"/>
</clipPath>
</defs>
</svg>
