<svg width="64" height="64" viewBox="0 0 64 64" fill="none" xmlns="http://www.w3.org/2000/svg">
<circle cx="32" cy="32" r="32" fill="url(#paint0_linear_1741_21854)"/>
<path d="M46.4207 12.0009C44.9434 12.0047 43.5279 12.5938 42.4841 13.6391C41.4403 14.6845 40.8533 16.1008 40.8516 17.578V20.5109C39.2088 17.1649 36.3949 14.5383 32.9438 13.1292C29.4928 11.7202 25.6446 11.6266 22.1292 12.8664C19.1682 13.9161 16.6048 15.8568 14.7912 18.4219C12.9775 20.9871 12.0025 24.0508 12 27.1923V46.4208C12 47.9005 12.5878 49.3196 13.6342 50.3659C14.6805 51.4122 16.0996 52 17.5794 52C19.0591 52 20.4783 51.4122 21.5246 50.3659C22.5709 49.3196 23.1588 47.9005 23.1588 46.4208V43.4941C24.8013 46.8389 27.6143 49.4643 31.0644 50.8722C34.5144 52.2802 38.3612 52.3728 41.8749 51.1324C44.835 50.083 47.3976 48.1429 49.2105 45.5784C51.0235 43.0141 51.9979 39.9512 52 36.8107V17.578C51.9978 16.0992 51.4092 14.6816 50.3633 13.6361C49.3174 12.5906 47.8995 12.0025 46.4207 12.0009ZM36.8083 50.4557C33.8915 50.4679 31.0484 49.5405 28.6999 47.8108C26.3514 46.081 24.6224 43.6409 23.769 40.8519L23.7462 40.7709C23.3544 39.4875 23.1565 38.1526 23.1588 36.8107V27.1923C23.1599 26.1221 23.5856 25.0961 24.3426 24.3396C25.0995 23.5831 26.1257 23.1578 27.1959 23.1573C28.2651 23.1601 29.2896 23.5861 30.0454 24.3423C30.8012 25.0985 31.2267 26.1232 31.2289 27.1923V36.8065C31.2307 38.2861 31.8197 39.7045 32.8666 40.7502C33.6477 41.5279 34.6414 42.057 35.7226 42.2708C36.8039 42.4848 37.9242 42.3739 38.9425 41.9522C39.9608 41.5305 40.8316 40.8168 41.445 39.9012C42.0585 38.9855 42.3871 37.9087 42.3897 36.8065V17.578C42.3897 17.0484 42.494 16.524 42.6967 16.0347C42.8994 15.5454 43.1964 15.1008 43.571 14.7263C43.9455 14.3518 44.39 14.0548 44.8793 13.8521C45.3686 13.6494 45.8931 13.5451 46.4227 13.5451C46.9523 13.5451 47.4768 13.6494 47.9661 13.8521C48.4554 14.0548 48.9 14.3518 49.2745 14.7263C49.649 15.1008 49.9461 15.5454 50.1487 16.0347C50.3514 16.524 50.4557 17.0484 50.4557 17.578V36.8065C50.4571 38.5992 50.1051 40.3745 49.4197 42.031C48.7344 43.6875 47.7292 45.1927 46.4616 46.4603C45.1941 47.728 43.6891 48.7334 42.0327 49.4189C40.3763 50.1046 38.601 50.4569 36.8083 50.4557ZM40.8516 36.8065C40.8508 37.604 40.6139 38.3834 40.1708 39.0465C39.7277 39.7096 39.0982 40.2267 38.3617 40.5325C37.6252 40.8384 36.8146 40.9194 36.032 40.7653C35.2496 40.6113 34.5302 40.229 33.9646 39.6667C33.5505 39.2564 33.231 38.7606 33.0285 38.2138C32.9912 38.1162 32.9579 38.0062 32.9247 37.8962L32.9122 37.8402L32.8998 37.7883C32.8812 37.7156 32.8625 37.643 32.85 37.5662C32.85 37.5392 32.85 37.5101 32.8354 37.4811V37.4375C32.8354 37.3691 32.8147 37.3005 32.8085 37.23C32.8022 37.1594 32.8085 37.1448 32.8085 37.0888C32.8085 37.0327 32.8085 36.9498 32.8085 36.8812V27.1923C32.8071 26.4571 32.6607 25.7294 32.3779 25.0508C32.095 24.3722 31.681 23.7561 31.1596 23.2377C30.6384 22.7193 30.0199 22.3088 29.3398 22.0296C28.6596 21.7505 27.9311 21.6082 27.1959 21.611C25.7162 21.6126 24.2974 22.2011 23.251 23.2475C22.2047 24.2939 21.6161 25.7125 21.6145 27.1923V46.4208C21.6145 47.491 21.1893 48.5172 20.4326 49.2739C19.6759 50.0306 18.6495 50.4557 17.5794 50.4557C16.5092 50.4557 15.4829 50.0306 14.7261 49.2739C13.9694 48.5172 13.5443 47.491 13.5443 46.4208V27.1923C13.5467 23.9201 14.7243 20.7577 16.8627 18.281C19.0012 15.8043 21.9581 14.178 25.1949 13.6984C28.4318 13.2188 31.7333 13.9178 34.498 15.668C37.2628 17.4182 39.3069 20.1032 40.258 23.2341L40.3141 23.4168C40.6693 24.6439 40.8503 25.9148 40.8516 27.1923V36.8065Z" fill="white"/>
<defs>
<linearGradient id="paint0_linear_1741_21854" x1="12.2553" y1="7.14894" x2="54.8085" y2="51.4043" gradientUnits="userSpaceOnUse">
<stop stop-color="#5C719A"/>
<stop offset="0.322917" stop-color="#213575"/>
<stop offset="1" stop-color="#111D40"/>
</linearGradient>
</defs>
</svg>
