<svg width="64" height="64" viewBox="0 0 64 64" fill="none" xmlns="http://www.w3.org/2000/svg">
<circle cx="32" cy="32" r="32" fill="#4C5460"/>
<path fill-rule="evenodd" clip-rule="evenodd" d="M15 18.7778C15 16.6914 16.6914 15 18.7778 15H45.2222C47.3086 15 49 16.6914 49 18.7778V45.2222C49 47.3086 47.3086 49 45.2222 49H18.7778C16.6914 49 15 47.3086 15 45.2222V18.7778ZM43.0185 18.463C43.0185 18.1152 43.3004 17.8333 43.6481 17.8333H45.537C45.8848 17.8333 46.1667 18.1152 46.1667 18.463V20.3519C46.1667 20.6996 45.8848 20.9815 45.537 20.9815H43.6481C43.3004 20.9815 43.0185 20.6996 43.0185 20.3519V18.463ZM24.444 40.7358H28.5365V27.1201L33.1801 40.7358H39.6338V23.3423H35.6199V37.1154L30.9764 23.3423H24.444V40.7358Z" fill="white"/>
</svg>
