<svg width="32" height="32" viewBox="0 0 32 32" fill="none" xmlns="http://www.w3.org/2000/svg">
<g clip-path="url(#clip0_613_394)">
<path d="M16 32C24.8366 32 32 24.8366 32 16C32 7.16344 24.8366 0 16 0C7.16344 0 0 7.16344 0 16C0 24.8366 7.16344 32 16 32Z" fill="url(#paint0_linear_613_394)"/>
<path d="M8 16.064C8 11.61 11.582 8 16 8C20.418 8 24 11.61 24 16.064V23.992C23.9989 21.8703 23.1551 19.8359 21.654 18.3363C20.153 16.8368 18.1177 15.9949 15.996 15.996C13.8743 15.9971 11.8399 16.8409 10.3403 18.342C8.84078 19.843 7.99894 21.8783 8 24V16.064Z" fill="white"/>
<path d="M27.1371 27.1371C25.6746 28.5996 23.9383 29.7598 22.0274 30.5513C20.1165 31.3428 18.0684 31.7502 16.0001 31.7502C13.9318 31.7502 11.8837 31.3428 9.9728 30.5513C8.06191 29.7598 6.32563 28.5996 4.8631 27.1371C3.40057 25.6746 2.24042 23.9383 1.4489 22.0274C0.657388 20.1165 0.25 18.0684 0.25 16.0001C0.25 13.9318 0.657388 11.8837 1.4489 9.9728C2.24042 8.06191 3.40057 6.32563 4.8631 4.8631C7.81681 1.90938 11.8229 0.25 16.0001 0.25C20.1773 0.25 24.1834 1.90938 27.1371 4.8631C30.0908 7.81681 31.7502 11.8229 31.7502 16.0001C31.7502 20.1773 30.0908 24.1834 27.1371 27.1371Z" stroke="white" stroke-width="0.5"/>
</g>
<defs>
<linearGradient id="paint0_linear_613_394" x1="16" y1="0" x2="16" y2="32" gradientUnits="userSpaceOnUse">
<stop stop-color="#FFA485"/>
<stop offset="0.286" stop-color="#FF8156"/>
<stop offset="1" stop-color="#FF6733"/>
</linearGradient>
<clipPath id="clip0_613_394">
<rect width="32" height="32" fill="white"/>
</clipPath>
</defs>
</svg>
