<svg width="32" height="32" viewBox="0 0 32 32" fill="none" xmlns="http://www.w3.org/2000/svg">
<g clip-path="url(#clip0_613_736)">
<path d="M16 32.0002C24.8365 32.0002 32 24.8725 32 16.0802C32 7.28779 24.8365 0.160156 16 0.160156C7.16344 0.160156 0 7.28779 0 16.0802C0 24.8725 7.16344 32.0002 16 32.0002Z" fill="url(#paint0_linear_613_736)"/>
<path d="M14.5098 12.4978V12.5113L13.2346 5.7788L12.1765 5.43945L11.5117 6.33531L14.5098 12.4978Z" fill="white"/>
<path d="M15.2031 9.68639L15.7458 12.2925L16.3291 9.64566L15.7593 9.26562L15.2031 9.68639Z" fill="white"/>
<path d="M19.2323 10.1504L18.5405 10.2183L17.7266 12.7973L19.5173 10.7748L19.2323 10.1504Z" fill="white"/>
<path d="M25.1457 10.6927V9.59325L24.074 9.25391L19.0547 13.964L25.1457 10.6927Z" fill="white"/>
<path d="M12.8806 13.474L11.3884 11.2344L11.4155 11.2887L11.3884 11.2344L10.7101 11.343L10.6016 12.0216L12.8806 13.474Z" fill="white"/>
<path d="M22.4889 15.7559L19.8164 16.2852L22.4889 16.8689L22.8958 16.3124L22.4889 15.7559Z" fill="white"/>
<path d="M11.6893 16.2984L4.82489 15.4297L4.16016 16.3256L4.82489 17.2214L11.6893 16.2984Z" fill="white"/>
<path d="M9.15271 17.791L8.94922 18.4289L9.50541 18.8361L11.8795 17.5059L9.15271 17.791Z" fill="white"/>
<path d="M9.94118 19.6797L9.91406 20.3584L10.5652 20.5891L12.4645 18.5938L9.94118 19.6797Z" fill="white"/>
<path d="M13.3573 19.5156L11.3359 21.2937L11.5123 21.9452L12.2041 21.9724L13.3573 19.5156Z" fill="white"/>
<path d="M15.7614 20.3008L15.2188 22.9341L15.775 23.3277L16.3311 22.9205L15.7614 20.3008Z" fill="white"/>
<path d="M25.1593 21.9043L19.0547 18.6602L24.1012 23.343L25.1593 23.0037V21.9043Z" fill="white"/>
<path d="M18.4326 22.4072L17.0625 20.1133L17.3745 22.7466L18.0257 22.9502L18.4326 22.4072Z" fill="white"/>
<path d="M14.5256 20.1133L11.5547 26.2893L12.2194 27.1851L13.2775 26.8458L14.5256 20.1133Z" fill="white"/>
<path d="M16 31.75C24.698 31.75 31.75 24.698 31.75 16C31.75 7.302 24.698 0.25 16 0.25C7.302 0.25 0.25 7.302 0.25 16C0.25 24.698 7.302 31.75 16 31.75Z" stroke="white" stroke-width="0.5"/>
</g>
<defs>
<linearGradient id="paint0_linear_613_736" x1="16" y1="0.160156" x2="16" y2="32.0002" gradientUnits="userSpaceOnUse">
<stop stop-color="#42AB6A"/>
<stop offset="1" stop-color="#2D9454"/>
</linearGradient>
<clipPath id="clip0_613_736">
<rect width="32" height="32" fill="white"/>
</clipPath>
</defs>
</svg>
