<svg width="20" height="20" viewBox="0 0 20 20" fill="none" xmlns="http://www.w3.org/2000/svg">
<path d="M9.99991 19.285C15.1279 19.285 19.285 15.1279 19.285 9.99991C19.285 4.87191 15.1279 0.714844 9.99991 0.714844C4.87191 0.714844 0.714844 4.87191 0.714844 9.99991C0.714844 15.1279 4.87191 19.285 9.99991 19.285Z" fill="white"/>
<path d="M9.99934 19.9986C8.68565 20.0023 7.3843 19.7452 6.17057 19.2426C4.95684 18.7399 3.85486 18.0016 2.92841 17.0702C1.99702 16.1438 1.25863 15.042 0.755973 13.8282C0.253319 12.6145 -0.00361684 11.313 4.01675e-05 9.99934C-0.00369573 8.68564 0.253206 7.38418 0.755864 6.17044C1.25852 4.9567 1.99696 3.85488 2.92841 2.92848C3.85481 1.99702 4.95677 1.25844 6.1705 0.755777C7.38424 0.253118 8.68564 -0.00369572 9.99934 4.01809e-05C11.313 -0.00369572 12.6144 0.253118 13.8282 0.755777C15.0419 1.25844 16.1439 1.99702 17.0703 2.92848C18.0017 3.85488 18.7402 4.9567 19.2428 6.17044C19.7455 7.38418 20.0024 8.68564 19.9986 9.99934C20.0023 11.313 19.7454 12.6145 19.2427 13.8282C18.7401 15.042 18.0017 16.1438 17.0703 17.0702C16.1438 18.0016 15.0418 18.7399 13.8281 19.2426C12.6144 19.7452 11.313 20.0023 9.99934 19.9986ZM9.99934 1.42851C7.72697 1.43097 5.54838 2.33478 3.94157 3.94159C2.33476 5.5484 1.43097 7.72697 1.42851 9.99934C1.43097 12.2717 2.33476 14.4503 3.94157 16.0571C5.54838 17.6639 7.72697 18.5677 9.99934 18.5702C12.2717 18.5677 14.4503 17.6639 16.0571 16.0571C17.6639 14.4503 18.5677 12.2717 18.5702 9.99934C18.5677 7.72697 17.6639 5.5484 16.0571 3.94159C14.4503 2.33478 12.2717 1.43097 9.99934 1.42851V1.42851Z" fill="#ED4E33"/>
<path opacity="0.7" d="M9.2863 19.9742V18.5408C9.52438 18.5608 9.76246 18.5708 10.0005 18.5708C10.2386 18.5708 10.4767 18.5611 10.7148 18.5415V19.9749C10.4767 19.9916 10.2386 20 10.0005 20C9.76246 20 9.52438 19.9913 9.2863 19.9742ZM15.533 16.5411C15.8967 16.2329 16.2343 15.8951 16.5422 15.5311L17.5586 16.5474C17.4034 16.7264 17.241 16.9004 17.0715 17.0695C16.902 17.2385 16.7279 17.401 16.5494 17.5567L15.533 16.5411ZM2.93102 17.0702C2.76151 16.9007 2.59891 16.7264 2.44321 16.5474L3.45957 15.5311C3.76776 15.8951 4.10555 16.2329 4.4695 16.5411L3.45314 17.5574C3.27411 17.4021 3.09959 17.2397 2.92961 17.0702H2.93102ZM18.5421 10.7135C18.5616 10.4755 18.5714 10.2374 18.5714 9.9993C18.5714 9.76122 18.5616 9.52315 18.5421 9.28507H19.9756C19.9922 9.52315 20.0006 9.76122 20.0006 9.9993C20.0006 10.2374 19.9922 10.4755 19.9756 10.7135H18.5421ZM0.026954 10.7135C0.0102885 10.4755 0.00195312 10.2374 0.00195312 9.9993C0.00195312 9.76122 0.0102885 9.52315 0.026954 9.28507H1.46042C1.44089 9.52315 1.43114 9.76122 1.43114 9.9993C1.43114 10.2374 1.44089 10.4755 1.46042 10.7135H0.026954ZM2.44321 3.45191C2.59891 3.27287 2.76151 3.09887 2.93102 2.92983C3.10053 2.7608 3.27483 2.59811 3.45386 2.44193L4.4695 3.45749C4.10562 3.76601 3.76783 4.10406 3.45957 4.46816L2.44321 3.45191ZM15.533 3.45749L16.5487 2.44193C16.7277 2.59764 16.902 2.76032 17.0715 2.92983C17.241 3.09934 17.4034 3.27335 17.5586 3.45191L16.5422 4.46816C16.2341 4.10396 15.8963 3.76589 15.5323 3.45749H15.533ZM9.2863 0.0251099C9.52438 0.00844435 9.76246 0 10.0005 0C10.2386 0 10.4767 0.00844435 10.7148 0.0251099V1.45707C10.4791 1.43755 10.241 1.42777 10.0005 1.42777C9.76008 1.42777 9.522 1.43777 9.2863 1.45777V0.0251099Z" fill="white"/>
<path d="M8.44581 6.09028C6.02625 7.01908 5.80461 9.39775 5.11082 10.5087C4.40882 11.6327 2.80056 12.253 3.02048 12.8258C3.24041 13.3986 4.85058 12.7834 6.12446 13.1489C7.38325 13.51 9.13959 15.1296 11.5592 14.2008C12.7918 13.7277 13.6843 12.7538 14.0947 11.6003C14.1388 11.4764 14.0563 11.344 13.9254 11.3318C13.844 11.3242 13.7659 11.3668 13.7292 11.4397C13.3579 12.1792 12.7211 12.7882 11.8876 13.108C10.5117 13.6361 9.00623 13.2215 8.08162 12.1815C7.87163 11.9453 7.69203 11.6765 7.55025 11.3794C7.51127 11.2976 7.4742 11.2145 7.44134 11.1285C7.40828 11.0425 7.38019 10.956 7.3544 10.869C8.08162 10.5301 8.92082 10.171 9.87217 9.80588C10.805 9.44781 11.6539 9.15738 12.4098 8.92504C12.9211 8.76798 13.3898 8.63728 13.813 8.53047C13.8436 8.52283 13.8738 8.51519 13.9038 8.50773C13.9678 8.49188 14.0335 8.52608 14.0572 8.5876L14.0576 8.58875C14.0716 8.62524 14.0836 8.66193 14.0966 8.69862C14.1803 8.93536 14.243 9.17458 14.2844 9.41438C14.3026 9.51927 14.4172 9.57641 14.5112 9.52596C14.8586 9.33948 15.1764 9.15757 15.4603 8.98255C16.5183 8.33099 17.1049 7.77841 16.9845 7.46524C16.8643 7.15188 16.0587 7.13392 14.8364 7.35747C14.448 7.42855 14.0173 7.52409 13.5532 7.64236C13.4729 7.66281 13.3917 7.68402 13.3096 7.7058C12.919 7.80936 12.5071 7.92802 12.0781 8.06081C11.2804 8.30787 10.4246 8.60384 9.54104 8.943C8.71446 9.26037 7.93106 9.5894 7.21262 9.91728C7.20383 8.5257 8.04513 7.21016 9.42104 6.68203C10.2543 6.36218 11.1352 6.38835 11.9059 6.68967C11.982 6.71948 12.0686 6.69885 12.1242 6.63866C12.2132 6.54217 12.1859 6.38854 12.0703 6.32587C10.9934 5.74367 9.67842 5.61718 8.44581 6.09028Z" fill="black"/>
</svg>
