<svg width="32" height="32" viewBox="0 0 32 32" fill="none" xmlns="http://www.w3.org/2000/svg">
<g clip-path="url(#clip0_3485_62983)">
<path d="M31.75 16C31.75 24.6985 24.6985 31.75 16 31.75C7.30151 31.75 0.25 24.6985 0.25 16C0.25 7.30151 7.30151 0.25 16 0.25C24.6985 0.25 31.75 7.30151 31.75 16Z" fill="url(#paint0_linear_3485_62983)" stroke="white" stroke-width="0.5"/>
<path d="M13.5577 9.45492C9.75554 10.9145 9.40724 14.6524 8.317 16.3981C7.21386 18.1645 4.68659 19.1391 5.03219 20.0393C5.37778 20.9395 7.90805 19.9726 9.90987 20.547C11.888 21.1145 14.6479 23.6595 18.4501 22.2C20.3871 21.4565 21.7896 19.9261 22.4345 18.1135C22.5039 17.9189 22.3742 17.7108 22.1685 17.6916C22.0406 17.6796 21.9178 17.7465 21.8601 17.8612C21.2767 19.0232 20.276 19.9802 18.9662 20.4828C16.8041 21.3127 14.4384 20.6611 12.9854 19.0268C12.6554 18.6557 12.3732 18.2333 12.1504 17.7664C12.0891 17.6378 12.0309 17.5072 11.9792 17.3721C11.9273 17.237 11.8832 17.101 11.8426 16.9644C12.9854 16.4317 14.3041 15.8675 15.7991 15.2937C17.265 14.7311 18.599 14.2747 19.7868 13.9095C20.5903 13.6627 21.3269 13.4574 21.9919 13.2895C22.04 13.2775 22.0874 13.2655 22.1346 13.2538C22.2351 13.2289 22.3384 13.2826 22.3757 13.3793L22.3763 13.3811C22.3982 13.4384 22.4171 13.4961 22.4375 13.5537C22.569 13.9258 22.6675 14.3017 22.7327 14.6785C22.7612 14.8433 22.9414 14.9331 23.0891 14.8539C23.6349 14.5608 24.1343 14.275 24.5805 13.9999C26.243 12.976 27.1648 12.1077 26.9756 11.6156C26.7867 11.1232 25.5209 11.0949 23.6001 11.4462C22.9897 11.5579 22.3129 11.7081 21.5836 11.8939C21.4575 11.926 21.3299 11.9594 21.2008 11.9936C20.587 12.1563 19.9397 12.3428 19.2656 12.5515C18.012 12.9397 16.6672 13.4048 15.2788 13.9378C13.9799 14.4365 12.7488 14.9535 11.6198 15.4688C11.606 13.282 12.9281 11.2147 15.0902 10.3848C16.3996 9.88219 17.7838 9.92333 18.9951 10.3968C19.1146 10.4437 19.2506 10.4112 19.338 10.3167C19.4779 10.165 19.4349 9.92363 19.2533 9.82514C17.561 8.91026 15.4947 8.71149 13.5577 9.45492Z" fill="#FAF1E4"/>
</g>
<defs>
<linearGradient id="paint0_linear_3485_62983" x1="16" y1="0" x2="16" y2="32" gradientUnits="userSpaceOnUse">
<stop stop-color="#ED4E33"/>
<stop offset="1" stop-color="#CF383B"/>
</linearGradient>
<clipPath id="clip0_3485_62983">
<rect width="32" height="32" fill="white"/>
</clipPath>
</defs>
</svg>
