<svg width="21" height="21" viewBox="0 0 21 21" fill="none" xmlns="http://www.w3.org/2000/svg">
<path d="M10.9512 20.2461C16.474 20.2461 20.9512 15.7689 20.9512 10.2461C20.9512 4.72325 16.474 0.246094 10.9512 0.246094C5.42832 0.246094 0.951172 4.72325 0.951172 10.2461C0.951172 15.7689 5.42832 20.2461 10.9512 20.2461Z" fill="white"/>
<path d="M10.9508 20.2447C9.6371 20.2484 8.3357 19.9913 7.12194 19.4887C5.90817 18.986 4.80615 18.2477 3.87968 17.3163C2.94826 16.3899 2.20984 15.2881 1.70717 14.0743C1.2045 12.8606 0.947555 11.5591 0.951212 10.2454C0.947476 8.93174 1.20439 7.63027 1.70706 6.41653C2.20973 5.2028 2.94819 4.10097 3.87968 3.17457C4.80611 2.24312 5.9081 1.50453 7.12187 1.00187C8.33565 0.499212 9.63709 0.242398 10.9508 0.246134C12.2646 0.242398 13.566 0.499212 14.7798 1.00187C15.9936 1.50453 17.0956 2.24312 18.022 3.17457C18.9535 4.10097 19.6919 5.2028 20.1946 6.41653C20.6973 7.63027 20.9542 8.93174 20.9504 10.2454C20.9541 11.5591 20.6972 12.8606 20.1945 14.0743C19.6918 15.2881 18.9534 16.3899 18.022 17.3163C17.0955 18.2477 15.9935 18.986 14.7797 19.4887C13.566 19.9913 12.2646 20.2484 10.9508 20.2447ZM10.9508 1.67461C8.67839 1.67706 6.49973 2.58087 4.89286 4.18768C3.286 5.79449 2.38219 7.97307 2.37973 10.2454C2.38219 12.5178 3.286 14.6964 4.89286 16.3032C6.49973 17.91 8.67839 18.8138 10.9508 18.8163C13.2233 18.8138 15.4019 17.91 17.0088 16.3032C18.6157 14.6964 19.5195 12.5178 19.5219 10.2454C19.5195 7.97307 18.6157 5.79449 17.0088 4.18768C15.4019 2.58087 13.2233 1.67706 10.9508 1.67461Z" fill="#007BB5"/>
<path opacity="0.41" d="M10.2358 20.2203V18.7869C10.4739 18.8069 10.712 18.8169 10.9501 18.8169C11.1882 18.8169 11.4262 18.8072 11.6643 18.7876V20.221C11.4262 20.2376 11.1882 20.2461 10.9501 20.2461C10.712 20.2461 10.4739 20.2374 10.2358 20.2203ZM16.4827 16.7872C16.8464 16.479 17.184 16.1412 17.492 15.7772L18.5084 16.7935C18.3531 16.9725 18.1907 17.1465 18.0212 17.3156C17.8517 17.4846 17.6777 17.6471 17.4991 17.8028L16.4827 16.7872ZM3.88033 17.3163C3.71082 17.1467 3.54822 16.9725 3.39251 16.7935L4.4089 15.7772C4.71709 16.1412 5.0549 16.479 5.41886 16.7872L4.40247 17.8035C4.22343 17.6482 4.04891 17.4858 3.87892 17.3163H3.88033ZM19.4919 10.9596C19.5114 10.7216 19.5212 10.4835 19.5212 10.2454C19.5212 10.0073 19.5114 9.76924 19.4919 9.53116H20.9254C20.9421 9.76924 20.9504 10.0073 20.9504 10.2454C20.9504 10.4835 20.9421 10.7216 20.9254 10.9596H19.4919ZM0.976174 10.9596C0.959508 10.7216 0.951172 10.4835 0.951172 10.2454C0.951172 10.0073 0.959508 9.76924 0.976174 9.53116H2.40968C2.39016 9.76924 2.38041 10.0073 2.38041 10.2454C2.38041 10.4835 2.39016 10.7216 2.40968 10.9596H0.976174ZM3.39251 3.698C3.54822 3.51897 3.71082 3.34496 3.88033 3.17593C4.04985 3.00689 4.22415 2.84421 4.40319 2.68803L5.41886 3.70358C5.05497 4.0121 4.71717 4.35016 4.4089 4.71425L3.39251 3.698ZM16.4827 3.70358L17.4984 2.68803C17.6774 2.84373 17.8517 3.00641 18.0212 3.17593C18.1907 3.34544 18.3531 3.51944 18.5084 3.698L17.492 4.71425C17.1838 4.35005 16.8467 4.01199 16.4827 3.70358ZM10.2358 0.271204C10.4739 0.254538 10.712 0.246094 10.9501 0.246094C11.1882 0.246094 11.4262 0.254538 11.6643 0.271204V1.70316C11.4286 1.68364 11.1905 1.67387 10.9501 1.67387C10.7096 1.67387 10.4715 1.68386 10.2358 1.70386V0.271204Z" fill="white"/>
<path d="M11.4246 12.6097L11.2803 12.6332H11.2697C11.2589 12.6357 11.2483 12.6357 11.2375 12.6386L11.2001 12.6437C9.30839 12.9538 7.70788 12.994 6.31094 12.7695C5.93484 12.7079 5.38128 12.6038 4.90835 12.4007C4.34938 12.1607 4.03135 11.8347 3.96459 11.4313C3.79629 10.4452 5.25741 9.65451 5.73881 9.39524C7.01587 8.70324 8.58982 8.20632 10.5483 7.87489C12.5068 7.54346 14.1581 7.49293 15.5901 7.7254C16.5253 7.87748 17.7864 8.17953 17.9371 9.06287C18.0878 9.94622 16.9969 10.6474 16.1629 11.0989C14.9171 11.7724 13.3949 12.2613 11.5057 12.5925L11.4683 12.5979C11.4577 12.6007 11.4469 12.6007 11.4364 12.6033C11.43 12.6097 11.4272 12.6097 11.4246 12.6097ZM11.2615 12.5561H11.2666L11.4138 12.5295H11.4164C11.427 12.5267 11.4378 12.5267 11.4483 12.5241L11.486 12.5187C13.3643 12.1896 14.8792 11.7037 16.1189 11.0331C18.0109 10.0097 17.8901 9.30968 17.8532 9.08003C17.6983 8.15015 16.1006 7.89088 15.5769 7.80814C14.1527 7.57825 12.5122 7.62644 10.5617 7.9581C8.61121 8.28977 7.04807 8.78339 5.77618 9.46999C3.88444 10.4934 4.00479 11.1934 4.04216 11.4233C4.19965 12.353 5.79757 12.6097 6.32222 12.695C7.71164 12.9195 9.30415 12.8795 11.1879 12.5695L11.2255 12.5641C11.2361 12.5615 11.2469 12.5615 11.2575 12.5589L11.2615 12.5561Z" fill="#007BB5"/>
<path d="M11.2879 12.2347C11.2506 12.2401 11.2104 12.2481 11.1678 12.2533C11.0874 12.2667 10.9967 12.2801 10.8978 12.2961L10.8872 12.2989C10.8444 12.3041 10.799 12.3123 10.7508 12.3175C10.7081 12.3229 10.6627 12.3309 10.6147 12.3363H10.6063C10.5344 12.3469 10.4568 12.3549 10.3792 12.3657H10.3686L10.2697 12.3762C10.2429 12.3791 10.2135 12.3817 10.1869 12.3871H10.1832C9.57673 12.4538 8.99943 12.494 8.47055 12.502C7.5087 12.5152 6.7363 12.427 6.18062 12.2401C5.64822 12.061 5.3088 11.7886 5.17646 11.4304C5.15361 11.3689 5.13661 11.3054 5.12569 11.2407C5.07867 10.9603 5.14708 10.6824 5.33136 10.418C5.58804 10.0494 6.07414 9.69659 6.77696 9.37339C7.43512 9.06781 8.26793 8.7935 9.25118 8.55304C9.87361 8.40072 10.3733 8.30999 10.6166 8.27097C10.8599 8.23195 11.37 8.15085 12.0006 8.08668C12.6952 8.01617 13.7107 7.95294 14.611 8.04132C15.3831 8.11607 15.9604 8.28977 16.3238 8.55962C16.5777 8.74931 16.7326 8.98437 16.7779 9.26479C16.7891 9.33188 16.7936 9.39991 16.7913 9.46788V9.46788C16.7805 9.84985 16.5535 10.2158 16.1179 10.5553C15.6546 10.9149 14.9548 11.2541 14.0381 11.5587C13.5304 11.727 12.9719 11.8793 12.376 12.0157C12.3559 12.0214 12.3354 12.0259 12.3147 12.0291L12.109 12.0735C12.0554 12.0841 12.0046 12.0949 11.9539 12.1055L11.9031 12.1163C11.8737 12.1214 11.8471 12.1268 11.8178 12.1323C11.7884 12.1377 11.7562 12.1457 11.7237 12.1511L11.673 12.1616C11.574 12.1804 11.4833 12.1964 11.4031 12.2124C11.3662 12.2213 11.326 12.2293 11.2879 12.2347ZM10.3635 12.2881H10.3769C10.4516 12.2801 10.5264 12.2695 10.5985 12.2587H10.6063C10.6519 12.2533 10.6972 12.2453 10.7426 12.2401C10.788 12.235 10.8366 12.2267 10.8789 12.2213L10.8895 12.2188C10.9885 12.2025 11.0776 12.1894 11.1568 12.1786C11.2423 12.1652 11.3091 12.1551 11.3947 12.1386C11.4748 12.1252 11.5656 12.1064 11.6645 12.0878L11.7153 12.077C11.7447 12.0716 11.7766 12.0664 11.806 12.0584L11.889 12.0422L11.9398 12.0317C11.9905 12.0211 12.0413 12.0103 12.0947 11.9997L12.3003 11.9541C12.3217 11.9489 12.3405 11.9461 12.3619 11.9407C12.9569 11.8072 13.5116 11.6523 14.0167 11.4858C14.9252 11.184 15.6172 10.85 16.0714 10.4946C16.4881 10.1695 16.7046 9.8247 16.7154 9.46671C16.7176 9.40373 16.7131 9.34069 16.702 9.27866C16.6592 9.0201 16.514 8.80032 16.277 8.62403C15.9245 8.36546 15.3634 8.19387 14.6046 8.12171C13.7095 8.03615 12.6995 8.0982 12.01 8.16707C11.3796 8.22866 10.8745 8.30811 10.6314 8.34877C10.3884 8.38944 9.88865 8.48229 9.27139 8.63202C8.30766 8.86707 7.4544 9.14773 6.81058 9.44696C6.12115 9.76593 5.64657 10.1079 5.39718 10.4659C5.22606 10.7118 5.16212 10.9708 5.20467 11.2301C5.21473 11.2902 5.23047 11.3493 5.25168 11.4064C5.3772 11.743 5.69829 11.9997 6.20812 12.1706C6.75581 12.3549 7.51739 12.4404 8.47126 12.427C9.00037 12.419 9.57485 12.3817 10.1787 12.3123H10.1839C10.2117 12.3101 10.2394 12.3065 10.2669 12.3015L10.363 12.2881H10.3635Z" fill="#007BB5"/>
<path d="M8.16348 11.4531L8.15549 11.4505H8.14796L8.15549 11.5253C8.17899 11.5227 8.20085 11.5227 8.226 11.5201C8.28856 11.5152 8.35136 11.5142 8.41405 11.5171C8.3293 11.5009 8.24563 11.4795 8.16348 11.4531V11.4531ZM8.90508 11.6517H8.91919H8.90508ZM9.03672 11.5812L9.04565 11.5793L9.03672 11.5812ZM9.06633 11.5768H9.06398V11.5812H9.06939L9.06633 11.5768ZM16.7725 9.27038C16.7271 8.98972 16.5722 8.75467 16.3183 8.56521C15.9549 8.29536 15.3781 8.12166 14.6055 8.04667C13.7052 7.95853 12.6897 8.02317 11.9963 8.09227C11.3657 8.15621 10.8579 8.23331 10.6123 8.27656C10.3667 8.31981 9.86835 8.40796 9.24568 8.55957C8.26244 8.80003 7.42869 9.07528 6.77147 9.37992C6.06818 9.70312 5.58255 10.0557 5.32587 10.4245C5.14158 10.689 5.07224 10.967 5.12019 11.2472C5.12826 11.2957 5.13989 11.3436 5.15498 11.3904C5.16015 11.4063 5.16532 11.4216 5.17096 11.4374C5.17472 11.4472 5.17849 11.4569 5.18248 11.4665C5.32352 11.8102 5.65824 12.0727 6.1756 12.2469C6.73151 12.435 7.50367 12.5222 8.46553 12.5088H8.48151L8.49209 12.4956C8.63077 12.3489 8.78003 12.1971 8.92929 12.0678C8.93235 12.065 8.93541 12.0626 8.93846 12.06L9.0212 11.9879H8.91237C8.90626 11.9879 8.89991 11.9879 8.8938 11.9879C8.1804 11.9947 7.60545 11.931 7.1847 11.794H7.18094L7.18588 11.7921C7.55515 11.6435 7.86096 11.5612 8.14279 11.5295H8.14444C8.35058 11.5939 8.60398 11.6351 8.89874 11.6522C8.72509 11.6429 8.55229 11.6216 8.38161 11.5883C8.35082 11.5819 8.3205 11.5751 8.29088 11.5683L8.25421 11.5577C8.21872 11.5481 8.18369 11.5382 8.15126 11.5279L8.14326 11.526H8.14068C8.09006 11.5103 8.04211 11.4925 7.99682 11.4726C7.72204 11.5182 7.41905 11.6106 7.06129 11.7613L6.97409 11.7987L6.96845 11.801L7.06247 11.8358C7.48181 11.9935 8.07322 12.0737 8.81529 12.0709C8.68954 12.1832 8.56942 12.3087 8.45448 12.4288C7.50861 12.4422 6.75501 12.3541 6.21015 12.1724C5.71818 12.0079 5.4025 11.7634 5.26804 11.4437C5.26287 11.432 5.25794 11.4202 5.25347 11.4075C5.249 11.3948 5.24383 11.3814 5.2396 11.368C5.22494 11.3233 5.21354 11.2776 5.20552 11.2312C5.16274 10.9727 5.22667 10.7129 5.39779 10.4671C5.64507 10.1093 6.11942 9.76729 6.80884 9.44926C7.4529 9.15003 8.30522 8.86937 9.26966 8.63432C9.88692 8.48482 10.3866 8.39127 10.6297 8.35107C10.8727 8.31088 11.3779 8.23096 12.0085 8.16937C12.6977 8.09886 13.7078 8.03845 14.6029 8.12401C15.3616 8.19617 15.9227 8.36706 16.2755 8.62632C16.5134 8.80262 16.6575 9.02169 16.7003 9.28096C16.7115 9.34298 16.716 9.40602 16.7137 9.469C16.7031 9.827 16.4866 10.1716 16.0699 10.4976C15.6183 10.8502 14.9315 11.1842 14.0312 11.4834C13.8815 11.4061 13.7212 11.326 13.5611 11.2564C14.2585 11.0107 14.7902 10.7435 15.1428 10.4602L15.2204 10.3961H15.2044L15.1188 10.3914C14.6219 10.3594 14.2505 10.3862 13.9539 10.4715L13.9459 10.4743L13.9379 10.4795C13.7293 10.6219 13.5051 10.7402 13.2699 10.8321L13.2325 10.8455C13.1603 10.8749 13.0828 10.9043 13.0054 10.9308L12.9572 10.947L12.9586 10.9383C12.9617 10.9198 12.9645 10.901 12.9666 10.8824C12.9806 10.7753 12.9864 10.6674 12.984 10.5594C12.984 10.5425 12.984 10.5254 12.9819 10.5082C12.9798 10.491 12.98 10.4739 12.9786 10.4565C12.9772 10.4391 12.9756 10.4217 12.9742 10.4041C12.9728 10.3864 12.9704 10.369 12.9678 10.3516C12.9648 10.3281 12.9612 10.3046 12.9572 10.2811C12.9532 10.2576 12.9476 10.2341 12.9431 10.2106C12.941 10.1989 12.9384 10.1871 12.9358 10.1758C12.8955 9.99348 12.8289 9.81795 12.7382 9.6547C12.7073 9.59898 12.6736 9.54485 12.6373 9.49251C12.6263 9.47653 12.615 9.46031 12.6032 9.4455C12.5915 9.43069 12.5835 9.41847 12.5732 9.4053C12.5628 9.39214 12.5511 9.3771 12.5398 9.36323C12.4144 9.20992 12.2669 9.07618 12.1021 8.96645C11.9724 8.87913 11.8324 8.80808 11.6853 8.7549C11.3802 8.64467 11.0527 8.6107 10.7315 8.65594C10.6999 8.65921 10.6685 8.66416 10.6375 8.67075H10.6292C10.3108 8.73431 10.0128 8.87463 9.76093 9.07951C9.64502 9.17197 9.54083 9.27822 9.45065 9.3959L9.4429 9.40554C9.38195 9.48457 9.32696 9.56801 9.27836 9.65517C9.26872 9.67256 9.25955 9.69019 9.25062 9.70782C9.2431 9.72169 9.23628 9.73579 9.22946 9.75037C9.22265 9.76494 9.21771 9.77387 9.21254 9.78657C9.18606 9.84506 9.16252 9.90484 9.14202 9.96568V9.96568C9.13638 9.98213 9.13097 9.99859 9.12557 10.015C9.12016 10.0315 9.1157 10.0477 9.11099 10.0644C9.10747 10.0769 9.10371 10.0898 9.10042 10.1025C9.10042 10.1051 9.10042 10.1074 9.09877 10.1098C9.09732 10.1139 9.09614 10.1182 9.09525 10.1225C9.09219 10.1335 9.0896 10.146 9.08702 10.1565C9.08681 10.1579 9.08681 10.1592 9.08702 10.1605V10.1641C9.08467 10.1732 9.08302 10.1819 9.08114 10.1911C9.07926 10.2003 9.07762 10.2073 9.07597 10.2146C9.07244 10.2318 9.06939 10.2492 9.06633 10.2666C9.05975 10.3053 9.05411 10.3439 9.04941 10.3827C9.048 10.3958 9.04659 10.4092 9.04541 10.4226C9.044 10.4403 9.04259 10.4579 9.04142 10.4758C9.03672 10.5551 9.03672 10.6346 9.04142 10.7139C9.04306 10.7456 9.04541 10.7776 9.04894 10.8095C9.04894 10.8164 9.04894 10.8234 9.05105 10.8302C9.05411 10.8537 9.0574 10.8742 9.06069 10.8953C9.06069 10.8998 9.06069 10.9043 9.06281 10.9085C9.06269 10.9094 9.06269 10.9102 9.06281 10.9111C9.06281 10.9146 9.06398 10.9181 9.06445 10.9217C9.0643 10.9225 9.0643 10.9234 9.06445 10.9242C9.06445 10.9287 9.06586 10.9329 9.06633 10.9372C9.06774 10.9466 9.06939 10.9555 9.07103 10.9649C9.08819 11.0569 9.11176 11.1477 9.14155 11.2364C9.18027 11.356 9.23074 11.4715 9.29222 11.5812H9.29387C9.30421 11.5998 9.31526 11.6181 9.32631 11.6369L9.33806 11.656H9.36157C9.35052 11.656 9.33994 11.656 9.32913 11.656H9.3249L9.22852 11.6604H9.23299C9.25649 11.6604 9.27788 11.6604 9.29974 11.659C9.30868 11.659 9.31737 11.659 9.32631 11.659H9.32772H9.36133L9.43185 11.6562L9.39494 11.5982C9.39095 11.5918 9.38695 11.5855 9.38319 11.5786C9.31297 11.4628 9.25597 11.3394 9.21324 11.2108C9.18149 11.1167 9.15735 11.0201 9.14108 10.9221C9.13591 10.8876 9.1305 10.8554 9.12768 10.8206C9.12557 10.802 9.12369 10.7832 9.12228 10.7646C9.10769 10.6023 9.11497 10.4387 9.1439 10.2783C9.19496 9.97669 9.3189 9.69209 9.50495 9.44926C9.53081 9.41635 9.55784 9.38415 9.58557 9.35289C9.65402 9.2747 9.72887 9.20237 9.80935 9.13663C10.0515 8.94089 10.3376 8.80705 10.6431 8.74667L10.6509 8.74526L10.6913 8.73845L10.7383 8.73045C11.0471 8.68689 11.362 8.71999 11.655 8.82683C11.7953 8.87738 11.929 8.94462 12.0532 9.0271C12.4593 9.29596 12.7457 9.71145 12.8524 10.1866C12.8576 10.2188 12.8656 10.2508 12.871 10.2856C12.8863 10.3739 12.8952 10.4632 12.8978 10.5529C12.9006 10.6928 12.8884 10.8327 12.8613 10.9701C12.8613 10.976 12.8592 10.9816 12.858 10.9875L12.8449 11.0568L12.9116 11.0354L12.9391 11.026C12.969 11.0159 12.9977 11.0056 13.0263 10.9955C13.1065 10.9687 13.1815 10.9393 13.2562 10.9099L13.2936 10.8965C13.5322 10.8023 13.7597 10.6822 13.9722 10.5385C14.2395 10.4638 14.5761 10.437 15.0036 10.4558L15.0006 10.4581C14.6424 10.727 14.1144 10.9802 13.4325 11.2117L13.3284 11.2465H13.3296L13.4299 11.2862L13.4384 11.2895C13.6328 11.3683 13.8226 11.4578 14.007 11.5577L14.023 11.5657H14.0338C14.9505 11.2601 15.6503 10.9217 16.1126 10.5611C16.548 10.2217 16.7753 9.85591 16.7859 9.47347C16.7881 9.4055 16.7836 9.33747 16.7725 9.27038V9.27038ZM9.06633 11.5768H9.06398V11.5812H9.06939L9.06633 11.5768ZM9.04588 11.5812L9.03648 11.5829L9.04588 11.5812ZM9.04236 11.6607H9.04659L9.09242 11.6621H9.12839C9.09713 11.6621 9.06586 11.6602 9.03672 11.6588C9.02872 11.6588 9.02097 11.6588 9.01321 11.6588H9.00451C9.00319 11.6586 9.00184 11.6586 9.00052 11.6588L9.04236 11.6607ZM8.14773 11.4529L8.15525 11.5276C8.17876 11.5251 8.20062 11.5251 8.22577 11.5225C8.28833 11.5176 8.35113 11.5166 8.41381 11.5194C8.32931 11.5032 8.24586 11.4818 8.16395 11.4555L8.15596 11.4529H8.14773ZM8.16324 11.4555L8.15525 11.4529H8.14773L8.15525 11.5276C8.17876 11.5251 8.20062 11.5251 8.22577 11.5225C8.28833 11.5176 8.35113 11.5166 8.41381 11.5194C8.3291 11.5024 8.2455 11.4803 8.16348 11.4531L8.16324 11.4555ZM9.03672 11.5812L9.04565 11.5793L9.03672 11.5812ZM9.06633 11.5768H9.06398V11.5812H9.06939L9.06633 11.5768ZM9.06633 11.5775H9.06398V11.5812H9.06939L9.06633 11.5775ZM9.03672 11.5812L9.04565 11.5793L9.03672 11.5812ZM8.16348 11.4531L8.15549 11.4505H8.14796L8.15549 11.5253C8.17899 11.5227 8.20085 11.5227 8.226 11.5201C8.28856 11.5152 8.35136 11.5142 8.41405 11.5171C8.3293 11.5009 8.24563 11.4795 8.16348 11.4531V11.4531Z" fill="#007BB5"/>
<path d="M8.16348 11.4531L8.15549 11.4505H8.14796L8.15549 11.5253C8.17899 11.5227 8.20085 11.5227 8.226 11.5201C8.28856 11.5152 8.35136 11.5142 8.41405 11.5171C8.3293 11.5009 8.24563 11.4795 8.16348 11.4531V11.4531ZM8.90508 11.6517H8.91919H8.90508ZM9.03672 11.5812L9.04565 11.5793L9.03672 11.5812ZM9.06633 11.5768H9.06398V11.5812H9.06939L9.06633 11.5768ZM16.7725 9.27038C16.7271 8.98972 16.5722 8.75467 16.3183 8.56521C15.9549 8.29536 15.3781 8.12166 14.6055 8.04667C13.7052 7.95853 12.6897 8.02317 11.9963 8.09227C11.3657 8.15621 10.8579 8.23331 10.6123 8.27656C10.3667 8.31981 9.86835 8.40796 9.24568 8.55957C8.26244 8.80003 7.42869 9.07528 6.77147 9.37992C6.06818 9.70312 5.58255 10.0557 5.32587 10.4245C5.14158 10.689 5.07224 10.967 5.12019 11.2472C5.12826 11.2957 5.13989 11.3436 5.15498 11.3904C5.16015 11.4063 5.16532 11.4216 5.17096 11.4374C5.17472 11.4472 5.17849 11.4569 5.18248 11.4665C5.32352 11.8102 5.65824 12.0727 6.1756 12.2469C6.73151 12.435 7.50367 12.5222 8.46553 12.5088H8.48151L8.49209 12.4956C8.63077 12.3489 8.78003 12.1971 8.92929 12.0678C8.93235 12.065 8.93541 12.0626 8.93846 12.06L9.0212 11.9879H8.91237C8.90626 11.9879 8.89991 11.9879 8.8938 11.9879C8.1804 11.9947 7.60545 11.931 7.1847 11.794H7.18094L7.18588 11.7921C7.55515 11.6435 7.86096 11.5612 8.14279 11.5295H8.14444C8.35058 11.5939 8.60398 11.6351 8.89874 11.6522C8.72509 11.6429 8.55229 11.6216 8.38161 11.5883C8.35082 11.5819 8.3205 11.5751 8.29088 11.5683L8.25421 11.5577C8.21872 11.5481 8.18369 11.5382 8.15126 11.5279L8.14326 11.526H8.14068C8.09006 11.5103 8.04211 11.4925 7.99682 11.4726C7.72204 11.5182 7.41905 11.6106 7.06129 11.7613L6.97409 11.7987L6.96845 11.801L7.06247 11.8358C7.48181 11.9935 8.07322 12.0737 8.81529 12.0709C8.68954 12.1832 8.56942 12.3087 8.45448 12.4288C7.50861 12.4422 6.75501 12.3541 6.21015 12.1724C5.71818 12.0079 5.4025 11.7634 5.26804 11.4437C5.26287 11.432 5.25794 11.4202 5.25347 11.4075C5.249 11.3948 5.24383 11.3814 5.2396 11.368C5.22494 11.3233 5.21354 11.2776 5.20552 11.2312C5.16274 10.9727 5.22667 10.7129 5.39779 10.4671C5.64507 10.1093 6.11942 9.76729 6.80884 9.44926C7.4529 9.15003 8.30522 8.86937 9.26966 8.63432C9.88692 8.48482 10.3866 8.39127 10.6297 8.35107C10.8727 8.31088 11.3779 8.23096 12.0085 8.16937C12.6977 8.09886 13.7078 8.03845 14.6029 8.12401C15.3616 8.19617 15.9227 8.36706 16.2755 8.62632C16.5134 8.80262 16.6575 9.02169 16.7003 9.28096C16.7115 9.34298 16.716 9.40602 16.7137 9.469C16.7031 9.827 16.4866 10.1716 16.0699 10.4976C15.6183 10.8502 14.9315 11.1842 14.0312 11.4834C13.8815 11.4061 13.7212 11.326 13.5611 11.2564C14.2585 11.0107 14.7902 10.7435 15.1428 10.4602L15.2204 10.3961H15.2044L15.1188 10.3914C14.6219 10.3594 14.2505 10.3862 13.9539 10.4715L13.9459 10.4743L13.9379 10.4795C13.7293 10.6219 13.5051 10.7402 13.2699 10.8321L13.2325 10.8455C13.1603 10.8749 13.0828 10.9043 13.0054 10.9308L12.9572 10.947L12.9586 10.9383C12.9617 10.9198 12.9645 10.901 12.9666 10.8824C12.9806 10.7753 12.9864 10.6674 12.984 10.5594C12.984 10.5425 12.984 10.5254 12.9819 10.5082C12.9798 10.491 12.98 10.4739 12.9786 10.4565C12.9772 10.4391 12.9756 10.4217 12.9742 10.4041C12.9728 10.3864 12.9704 10.369 12.9678 10.3516C12.9648 10.3281 12.9612 10.3046 12.9572 10.2811C12.9532 10.2576 12.9476 10.2341 12.9431 10.2106C12.941 10.1989 12.9384 10.1871 12.9358 10.1758C12.8955 9.99348 12.8289 9.81795 12.7382 9.6547C12.7073 9.59898 12.6736 9.54485 12.6373 9.49251C12.6263 9.47653 12.615 9.46031 12.6032 9.4455C12.5915 9.43069 12.5835 9.41847 12.5732 9.4053C12.5628 9.39214 12.5511 9.3771 12.5398 9.36323C12.4144 9.20992 12.2669 9.07618 12.1021 8.96645C11.9724 8.87913 11.8324 8.80808 11.6853 8.7549C11.3802 8.64467 11.0527 8.6107 10.7315 8.65594C10.6999 8.65921 10.6685 8.66416 10.6375 8.67075H10.6292C10.3108 8.73431 10.0128 8.87463 9.76093 9.07951C9.64502 9.17197 9.54083 9.27822 9.45065 9.3959L9.4429 9.40554C9.38195 9.48457 9.32696 9.56801 9.27836 9.65517C9.26872 9.67256 9.25955 9.69019 9.25062 9.70782C9.2431 9.72169 9.23628 9.73579 9.22946 9.75037C9.22265 9.76494 9.21771 9.77387 9.21254 9.78657C9.18606 9.84506 9.16252 9.90484 9.14202 9.96568V9.96568C9.13638 9.98213 9.13097 9.99859 9.12557 10.015C9.12016 10.0315 9.1157 10.0477 9.11099 10.0644C9.10747 10.0769 9.10371 10.0898 9.10042 10.1025C9.10042 10.1051 9.10042 10.1074 9.09877 10.1098C9.09732 10.1139 9.09614 10.1182 9.09525 10.1225C9.09219 10.1335 9.0896 10.146 9.08702 10.1565C9.08681 10.1579 9.08681 10.1592 9.08702 10.1605V10.1641C9.08467 10.1732 9.08302 10.1819 9.08114 10.1911C9.07926 10.2003 9.07762 10.2073 9.07597 10.2146C9.07244 10.2318 9.06939 10.2492 9.06633 10.2666C9.05975 10.3053 9.05411 10.3439 9.04941 10.3827C9.048 10.3958 9.04659 10.4092 9.04541 10.4226C9.044 10.4403 9.04259 10.4579 9.04142 10.4758C9.03672 10.5551 9.03672 10.6346 9.04142 10.7139C9.04306 10.7456 9.04541 10.7776 9.04894 10.8095C9.04894 10.8164 9.04894 10.8234 9.05105 10.8302C9.05411 10.8537 9.0574 10.8742 9.06069 10.8953C9.06069 10.8998 9.06069 10.9043 9.06281 10.9085C9.06269 10.9094 9.06269 10.9102 9.06281 10.9111C9.06281 10.9146 9.06398 10.9181 9.06445 10.9217C9.0643 10.9225 9.0643 10.9234 9.06445 10.9242C9.06445 10.9287 9.06586 10.9329 9.06633 10.9372C9.06774 10.9466 9.06939 10.9555 9.07103 10.9649C9.08819 11.0569 9.11176 11.1477 9.14155 11.2364C9.18027 11.356 9.23074 11.4715 9.29222 11.5812H9.29387C9.30421 11.5998 9.31526 11.6181 9.32631 11.6369L9.33806 11.656H9.36157C9.35052 11.656 9.33994 11.656 9.32913 11.656H9.3249L9.22852 11.6604H9.23299C9.25649 11.6604 9.27788 11.6604 9.29974 11.659C9.30868 11.659 9.31737 11.659 9.32631 11.659H9.32772H9.36133L9.43185 11.6562L9.39494 11.5982C9.39095 11.5918 9.38695 11.5855 9.38319 11.5786C9.31297 11.4628 9.25597 11.3394 9.21324 11.2108C9.18149 11.1167 9.15735 11.0201 9.14108 10.9221C9.13591 10.8876 9.1305 10.8554 9.12768 10.8206C9.12557 10.802 9.12369 10.7832 9.12228 10.7646C9.10769 10.6023 9.11497 10.4387 9.1439 10.2783C9.19496 9.97669 9.3189 9.69209 9.50495 9.44926C9.53081 9.41635 9.55784 9.38415 9.58557 9.35289C9.65402 9.2747 9.72887 9.20237 9.80935 9.13663C10.0515 8.94089 10.3376 8.80705 10.6431 8.74667L10.6509 8.74526L10.6913 8.73845L10.7383 8.73045C11.0471 8.68689 11.362 8.71999 11.655 8.82683C11.7953 8.87738 11.929 8.94462 12.0532 9.0271C12.4593 9.29596 12.7457 9.71145 12.8524 10.1866C12.8576 10.2188 12.8656 10.2508 12.871 10.2856C12.8863 10.3739 12.8952 10.4632 12.8978 10.5529C12.9006 10.6928 12.8884 10.8327 12.8613 10.9701C12.8613 10.976 12.8592 10.9816 12.858 10.9875L12.8449 11.0568L12.9116 11.0354L12.9391 11.026C12.969 11.0159 12.9977 11.0056 13.0263 10.9955C13.1065 10.9687 13.1815 10.9393 13.2562 10.9099L13.2936 10.8965C13.5322 10.8023 13.7597 10.6822 13.9722 10.5385C14.2395 10.4638 14.5761 10.437 15.0036 10.4558L15.0006 10.4581C14.6424 10.727 14.1144 10.9802 13.4325 11.2117L13.3284 11.2465H13.3296L13.4299 11.2862L13.4384 11.2895C13.6328 11.3683 13.8226 11.4578 14.007 11.5577L14.023 11.5657H14.0338C14.9505 11.2601 15.6503 10.9217 16.1126 10.5611C16.548 10.2217 16.7753 9.85591 16.7859 9.47347C16.7881 9.4055 16.7836 9.33747 16.7725 9.27038V9.27038ZM9.06633 11.5768H9.06398V11.5812H9.06939L9.06633 11.5768ZM9.04588 11.5812L9.03648 11.5829L9.04588 11.5812ZM9.04236 11.6607H9.04659L9.09242 11.6621H9.12839C9.09713 11.6621 9.06586 11.6602 9.03672 11.6588C9.02872 11.6588 9.02097 11.6588 9.01321 11.6588H9.00451C9.00319 11.6586 9.00184 11.6586 9.00052 11.6588L9.04236 11.6607ZM8.14773 11.4529L8.15525 11.5276C8.17876 11.5251 8.20062 11.5251 8.22577 11.5225C8.28833 11.5176 8.35113 11.5166 8.41381 11.5194C8.32931 11.5032 8.24586 11.4818 8.16395 11.4555L8.15596 11.4529H8.14773ZM8.16324 11.4555L8.15525 11.4529H8.14773L8.15525 11.5276C8.17876 11.5251 8.20062 11.5251 8.22577 11.5225C8.28833 11.5176 8.35113 11.5166 8.41381 11.5194C8.3291 11.5024 8.2455 11.4803 8.16348 11.4531L8.16324 11.4555ZM9.03672 11.5812L9.04565 11.5793L9.03672 11.5812ZM9.03672 11.5812L9.04565 11.5793L9.03672 11.5812ZM8.16348 11.4531L8.15549 11.4505H8.14796L8.15549 11.5253C8.17899 11.5227 8.20085 11.5227 8.226 11.5201C8.28856 11.5152 8.35136 11.5142 8.41405 11.5171C8.3293 11.5009 8.24563 11.4795 8.16348 11.4531V11.4531Z" fill="#007BB5"/>
<path d="M9.03975 11.5669L9.02588 11.5691H9.02306C8.97394 11.5677 8.92551 11.5653 8.8785 11.5625C8.81864 11.5589 8.76066 11.5542 8.70456 11.5484C8.61054 11.5391 8.52263 11.5268 8.44083 11.5115C8.34441 11.4943 8.24924 11.4707 8.15594 11.441L8.14771 11.4381H8.13972C8.08848 11.4438 8.03629 11.4516 7.98317 11.4616C7.71285 11.5087 7.41621 11.5987 7.06645 11.7437C6.70446 11.6069 6.47645 11.4078 6.38784 11.153C6.3829 11.1391 6.37843 11.125 6.37444 11.1105C6.37044 11.0959 6.36786 11.0856 6.36527 11.0733C6.36174 11.0569 6.35892 11.0404 6.35563 11.0249C6.31826 10.8058 6.37702 10.5896 6.52934 10.3837L6.53992 10.3703C6.74653 10.0969 7.12074 9.83481 7.65526 9.592C7.9442 9.46262 8.24022 9.34969 8.5419 9.25375C8.87098 9.14633 9.23297 9.04549 9.61635 8.95335C9.787 8.91268 9.94331 8.87672 10.0843 8.84757C10.0912 8.84592 10.0982 8.84475 10.1053 8.84334C9.98151 8.90609 9.865 8.98224 9.75785 9.0704C9.64082 9.16397 9.53575 9.27157 9.44499 9.39079L9.44005 9.3969C9.41436 9.42996 9.39007 9.46389 9.36719 9.49868C9.27088 9.64149 9.19405 9.7965 9.13871 9.95963V9.95963C9.13307 9.97608 9.12766 9.99253 9.12226 10.009C9.11685 10.0254 9.11239 10.0417 9.10768 10.0583C9.10557 10.0656 9.10369 10.0729 9.10181 10.0804C9.09993 10.088 9.09875 10.0913 9.09711 10.0964C9.09546 10.1016 9.09711 10.1014 9.09546 10.1037C9.09401 10.1079 9.09283 10.1121 9.09194 10.1164C9.08888 10.1275 9.08629 10.1399 9.08371 10.1505C9.0835 10.1518 9.0835 10.1532 9.08371 10.1545V10.158C9.08136 10.1672 9.07971 10.1759 9.07783 10.185C9.07595 10.1942 9.07431 10.2013 9.07266 10.2086C9.07266 10.2114 9.07125 10.214 9.07078 10.217C9.06772 10.2306 9.06537 10.244 9.06302 10.2577C9.05597 10.2972 9.05057 10.3369 9.0461 10.3766C9.04469 10.3898 9.04328 10.4032 9.0421 10.4166C9.04069 10.4342 9.03928 10.4518 9.03811 10.4697C9.0334 10.549 9.0334 10.6285 9.03811 10.7078C9.03999 10.7395 9.04234 10.7713 9.04586 10.803C9.04586 10.8094 9.04586 10.8155 9.04774 10.8216C9.0508 10.8451 9.05433 10.8669 9.05762 10.8888C9.05795 10.8913 9.05842 10.8937 9.05903 10.8961C9.06044 10.9071 9.06208 10.9177 9.06373 10.9285C9.06749 10.952 9.07172 10.9755 9.07689 10.999C9.07689 11.0014 9.07689 11.0035 9.07807 11.0061C9.08112 11.019 9.08394 11.0322 9.087 11.0449C9.09899 11.0961 9.11239 11.1441 9.12672 11.1902C9.13048 11.2026 9.13448 11.2137 9.13848 11.2273L9.15399 11.2712C9.1594 11.2861 9.1648 11.3006 9.17068 11.3154C9.1822 11.3446 9.19419 11.3737 9.20688 11.4024C9.21252 11.4149 9.21793 11.4259 9.2238 11.4391C9.22968 11.4522 9.23532 11.4626 9.24143 11.4748C9.25742 11.5077 9.27481 11.5402 9.29314 11.5716C9.30349 11.5902 9.31453 11.6086 9.32558 11.6274L9.33734 11.6464H9.36084C9.34979 11.6464 9.33922 11.6464 9.3284 11.6464H9.32417L9.2278 11.6509H9.23226C9.25577 11.6509 9.27716 11.6509 9.29902 11.6495H9.32535H9.32699H9.36061H9.36601L9.43535 11.6466L9.40104 11.5886C9.39704 11.5822 9.39304 11.5759 9.38905 11.5691C9.31749 11.4539 9.259 11.3312 9.21464 11.2031C9.18343 11.1089 9.15985 11.0124 9.14412 10.9144C9.13895 10.8799 9.13354 10.8477 9.13095 10.8129C9.12837 10.7927 9.12625 10.7725 9.12461 10.752C9.11124 10.5912 9.11915 10.4293 9.14811 10.2706C9.19942 9.96919 9.32352 9.68485 9.50963 9.44226C9.52961 9.41688 9.55006 9.39196 9.57122 9.36752C9.84865 9.04205 10.2285 8.82064 10.6485 8.73968V8.73827L10.6356 8.66352V8.66211C10.5972 8.66869 10.5507 8.67715 10.4964 8.68703C10.2905 8.72487 9.97669 8.78692 9.60318 8.87507C8.82021 9.06312 8.15758 9.27866 7.6287 9.51913C7.0916 9.765 6.70704 10.0294 6.49056 10.3099L6.47974 10.3233C6.30627 10.5531 6.23928 10.7934 6.28206 11.0395C6.28488 11.0559 6.28817 11.0717 6.29193 11.0865C6.29569 11.1013 6.29945 11.1166 6.30345 11.1319C6.30674 11.1431 6.31027 11.1554 6.31379 11.1657C6.40053 11.4306 6.61937 11.6389 6.96396 11.7865C6.96585 11.7876 6.96781 11.7885 6.96984 11.7893C6.99781 11.8013 7.02696 11.8128 7.05704 11.8241L7.07303 11.8293L7.08643 11.8241C7.11839 11.8107 7.14989 11.7975 7.18045 11.7851L7.18562 11.7832C7.55278 11.6356 7.85671 11.5519 8.14019 11.5199H8.14395C8.1778 11.5305 8.21306 11.5404 8.24949 11.5498C8.214 11.5402 8.17897 11.5303 8.14653 11.5199L8.13854 11.5181H8.13596C8.08534 11.5024 8.03739 11.4846 7.9921 11.4647C8.04381 11.456 8.09435 11.4487 8.14395 11.4433L8.15147 11.5181C8.17498 11.5155 8.19684 11.5155 8.22199 11.5129C8.28455 11.508 8.34735 11.507 8.41003 11.5098C8.51969 11.5313 8.6304 11.547 8.7417 11.5568C8.78871 11.5613 8.83572 11.5648 8.88532 11.5679C8.93492 11.5709 8.98169 11.5728 9.03129 11.5745H9.03388L9.04281 11.5726L9.05292 11.5712L9.06067 11.57V11.5742H9.06608H9.09546C9.13895 11.5742 9.1822 11.5766 9.22357 11.5766H9.29056C9.28993 11.5758 9.28938 11.5749 9.28891 11.574H9.2184C9.1775 11.574 9.13472 11.5721 9.09146 11.5716H9.0736L9.06584 11.57H9.06279H9.06044L9.03975 11.5669ZM9.04328 11.6532H9.04445L9.08911 11.6549H9.12508C9.09382 11.6549 9.06255 11.653 9.03341 11.6516C9.02541 11.6516 9.01766 11.6516 9.0099 11.6516H9.00308L9.04328 11.6532ZM9.03928 11.5686L9.04469 11.5705L9.03928 11.5686ZM9.28844 11.5761H9.21793C9.17703 11.5761 9.13425 11.5742 9.091 11.5738H9.0736L9.06584 11.5721H9.06279H9.06044V11.5742H9.06584H9.09523C9.13871 11.5742 9.18196 11.5766 9.22333 11.5766H9.29032C9.28979 11.5758 9.28931 11.5751 9.28891 11.5742L9.28844 11.5761Z" fill="#007BB5"/>
<path d="M12.848 11.0553L12.8614 10.9848C12.8909 10.8416 12.9043 10.6955 12.9014 10.5493C12.899 10.4601 12.89 10.3712 12.8746 10.2834C12.8694 10.2486 12.8614 10.2166 12.856 10.1847C12.7494 9.70939 12.463 9.29379 12.0568 9.0249C11.9326 8.94238 11.7989 8.87514 11.6586 8.82464C11.3656 8.71784 11.0507 8.68482 10.7419 8.7285L10.7285 8.65093C10.9102 8.62155 11.2896 8.56278 11.7705 8.51742C12.3128 8.46382 13.1092 8.41587 13.8252 8.47981H13.8306C14.429 8.5334 14.8834 8.65892 15.1852 8.85402L15.1986 8.86201C15.4365 9.01973 15.578 9.22 15.6182 9.46329C15.6241 9.49858 15.6277 9.53423 15.6288 9.57C15.6393 9.87722 15.4739 10.1767 15.1351 10.4545L15.1217 10.4651H15.1058C14.6302 10.4357 14.2595 10.4597 13.9702 10.5427C13.7577 10.6863 13.5301 10.8063 13.2916 10.9007L13.2542 10.9141C13.1792 10.9434 13.1045 10.9728 13.0243 10.9996C12.9869 11.0128 12.9496 11.0262 12.9094 11.0396L12.848 11.0553ZM11.2842 8.64529C11.4204 8.66465 11.5543 8.69781 11.6838 8.74425C11.8308 8.79742 11.9708 8.86847 12.1005 8.9558C12.3644 9.13164 12.5824 9.36802 12.7364 9.64522C12.827 9.80828 12.8935 9.98367 12.9336 10.1659C12.9416 10.2007 12.9468 10.2364 12.9547 10.27C12.9703 10.3619 12.9793 10.4549 12.9815 10.5481C12.9847 10.6778 12.9757 10.8074 12.9547 10.9355L13.0029 10.9195C13.0805 10.8927 13.1578 10.8633 13.23 10.8339L13.2674 10.8205C13.5026 10.7285 13.7267 10.6103 13.9354 10.4679L13.9434 10.4625L13.9514 10.4597C14.2454 10.3744 14.6114 10.3502 15.1003 10.3795C15.4104 10.121 15.5627 9.84784 15.5519 9.57C15.5509 9.53687 15.5474 9.50387 15.5413 9.47128C15.5039 9.25479 15.3782 9.07309 15.1671 8.92877L15.1565 8.92077C14.8679 8.73108 14.4217 8.60815 13.8313 8.55197H13.8259C13.1153 8.48803 12.3215 8.53599 11.7792 8.58958C11.5975 8.60791 11.4318 8.62672 11.2842 8.64529Z" fill="#007BB5"/>
<path d="M9.06715 11.5752V11.5776L9.0749 11.5759L9.06715 11.5752ZM9.28998 11.5778H9.21946C9.17856 11.5778 9.13578 11.5759 9.09253 11.5755L9.09653 11.578C9.14001 11.578 9.18326 11.5804 9.22463 11.5804H9.29163C9.29098 11.5795 9.29043 11.5786 9.28998 11.5776V11.5778ZM9.04623 11.5722L9.02907 11.575H9.02766C8.97853 11.5733 8.93081 11.5712 8.88404 11.5682C8.83021 11.5653 8.77826 11.5614 8.72749 11.5562C8.62536 11.5471 8.52377 11.5328 8.42309 11.5134V11.5134C8.33331 11.4968 8.24467 11.4745 8.15771 11.4466L8.14948 11.4441H8.14713L8.14149 11.4422C7.86295 11.3496 7.67373 11.2085 7.57853 11.0214C7.5696 11.0038 7.56113 10.9855 7.55385 10.9667C7.55009 10.9573 7.54633 10.9476 7.5428 10.9377C7.53113 10.9045 7.52225 10.8704 7.51624 10.8357C7.49273 10.7074 7.53504 10.5772 7.64199 10.443C7.73406 10.3327 7.84157 10.2364 7.9612 10.1569C8.12097 10.0478 8.28891 9.95111 8.46352 9.86777C8.75538 9.72801 9.05566 9.60657 9.36261 9.50413L9.36849 9.50202C9.33558 9.55091 9.30502 9.60113 9.27682 9.65269C9.26718 9.67008 9.25801 9.68771 9.24908 9.70534C9.24156 9.71921 9.23474 9.73331 9.22793 9.74789C9.22111 9.76246 9.21617 9.77139 9.211 9.78408C9.18452 9.84257 9.16098 9.90235 9.14048 9.9632V9.9632C9.13484 9.97965 9.12944 9.99611 9.12403 10.0126C9.11862 10.029 9.11416 10.0452 9.10946 10.0619C9.10593 10.0744 9.10217 10.0873 9.09888 10.1C9.09888 10.1026 9.09888 10.1049 9.09723 10.1073C9.09578 10.1114 9.0946 10.1157 9.09371 10.12C9.09065 10.131 9.08807 10.1435 9.08548 10.1541C9.08527 10.1554 9.08527 10.1567 9.08548 10.1581V10.1616C9.08313 10.1708 9.08149 10.1795 9.0796 10.1886C9.07772 10.1978 9.07467 10.2105 9.07255 10.2215C9.07044 10.2326 9.06715 10.2486 9.0648 10.2622C9.05774 10.3017 9.05234 10.3414 9.04787 10.3811C9.04646 10.3943 9.04505 10.4077 9.04388 10.4211C9.04247 10.4387 9.04106 10.4563 9.03988 10.4742C9.03518 10.5535 9.03518 10.633 9.03988 10.7123C9.04176 10.7441 9.04411 10.7758 9.04764 10.8075C9.04764 10.8139 9.04764 10.82 9.04952 10.8261C9.05257 10.8496 9.0561 10.8715 9.05939 10.8933C9.05972 10.8958 9.0602 10.8982 9.0608 10.9006C9.06221 10.9117 9.06386 10.9222 9.0655 10.933C9.06926 10.9566 9.07349 10.9801 9.07866 11.0036C9.07866 11.0059 9.07866 11.008 9.07984 11.0106C9.0829 11.0235 9.08572 11.0367 9.08877 11.0494C9.10076 11.1006 9.11416 11.1486 9.1285 11.1947C9.13226 11.2071 9.13625 11.2182 9.14025 11.2318L9.15576 11.2758C9.16117 11.2906 9.16658 11.3051 9.17245 11.3199C9.18397 11.3491 9.19596 11.3782 9.20865 11.4069C9.21429 11.4194 9.2197 11.4304 9.22557 11.4436C9.23145 11.4568 9.23709 11.4671 9.2432 11.4793C9.25919 11.5122 9.27658 11.5447 9.29492 11.5762C9.30526 11.5947 9.31631 11.6131 9.32735 11.6319L9.33911 11.6509H9.36261C9.35157 11.6509 9.34099 11.6509 9.33018 11.6509H9.32594L9.22957 11.6554H9.23404C9.25754 11.6554 9.27893 11.6554 9.30079 11.654H9.32712H9.32877H9.36238H9.36778L9.43713 11.6511L9.40563 11.5959C9.40069 11.5884 9.39623 11.5809 9.392 11.5724C9.32268 11.4573 9.26631 11.3349 9.22393 11.2074C9.19195 11.1134 9.16782 11.0169 9.15177 10.9189C9.14636 10.8842 9.14095 10.8522 9.13837 10.8174C9.11697 10.6368 9.12236 10.454 9.15435 10.2749C9.20622 9.9733 9.33097 9.68894 9.51775 9.44654L9.57675 9.36921L9.59532 9.3457L9.5878 9.34805L9.47239 9.38566L9.45335 9.39201H9.45053C9.44841 9.39201 9.44606 9.39201 9.44394 9.39412C9.2559 9.45681 9.07929 9.52051 8.91412 9.58523C8.74175 9.65308 8.58316 9.7225 8.43837 9.79349C8.03219 9.98858 7.74354 10.1891 7.58605 10.3894C7.4657 10.5417 7.41751 10.6966 7.44502 10.8463C7.45115 10.8762 7.459 10.9057 7.46852 10.9347C7.47435 10.9545 7.48118 10.9741 7.48897 10.9932C7.49226 11.0012 7.49555 11.0092 7.49908 11.0167C7.58323 11.2071 7.7473 11.3559 7.98964 11.4615L7.9934 11.4631L7.99952 11.4657C8.05123 11.457 8.10177 11.4497 8.15136 11.4443L8.15888 11.519C8.18239 11.5165 8.20425 11.5165 8.2294 11.5139C8.29196 11.509 8.35476 11.508 8.41745 11.5108C8.52711 11.5323 8.63781 11.548 8.74911 11.5578C8.79613 11.5623 8.84314 11.5658 8.89273 11.5689C8.94233 11.5719 8.98911 11.5738 9.0387 11.5755H9.04129L9.05022 11.5736L9.06033 11.5722L9.06809 11.571L9.04623 11.5722ZM9.29797 11.578C9.29734 11.5772 9.29679 11.5764 9.29633 11.5755H9.22581C9.18491 11.5755 9.14213 11.5736 9.09888 11.5731L9.10288 11.5757C9.14636 11.5757 9.18961 11.578 9.23098 11.578H9.29797ZM9.07349 11.5745L9.08125 11.5729H9.07349V11.5745ZM9.04999 11.6533H9.05116L9.09582 11.6549H9.13179C9.10052 11.6549 9.06926 11.653 9.04011 11.6516C9.03212 11.6516 9.02437 11.6516 9.01661 11.6516H9.00415L9.04999 11.6533ZM9.28998 11.5776H9.21946C9.17856 11.5776 9.13578 11.5757 9.09253 11.5752H9.06174V11.5776H9.06715H9.09653C9.14001 11.5776 9.18326 11.5799 9.22463 11.5799H9.29163C9.29101 11.5792 9.29046 11.5784 9.28998 11.5776V11.5776Z" fill="#007BB5"/>
<path d="M12.8474 11.0577L12.8608 10.9871C12.8903 10.8439 12.9037 10.6978 12.9007 10.5516C12.8984 10.4624 12.8894 10.3736 12.8739 10.2857C12.8688 10.2509 12.8608 10.219 12.8554 10.187C12.7487 9.71171 12.4623 9.29611 12.0562 9.02723L11.9492 8.95507L12.0776 8.95248C12.4406 8.9463 12.8037 8.962 13.1649 8.99949C13.6139 9.05285 13.9505 9.14358 14.1698 9.27733C14.3407 9.37887 14.4397 9.50698 14.4636 9.65671C14.4715 9.70795 14.4742 9.75984 14.4716 9.81161C14.4582 10.0702 14.2925 10.3139 13.9799 10.5358L13.9719 10.541C13.7956 10.6668 13.5659 10.7843 13.2959 10.8964L13.2585 10.9098C13.1837 10.9392 13.109 10.9686 13.0288 10.9954C12.9915 11.0088 12.9539 11.0222 12.9139 11.0353L12.8474 11.0577ZM12.2003 9.02981C12.4195 9.19603 12.6015 9.4063 12.7345 9.64707C12.8257 9.81021 12.8925 9.98577 12.9329 10.1682C12.9409 10.203 12.9461 10.2387 12.9541 10.2723C12.9696 10.3643 12.9786 10.4572 12.9809 10.5504C12.984 10.6801 12.975 10.8098 12.9541 10.9378L13.0023 10.9218C13.0798 10.895 13.1572 10.8656 13.2293 10.8362L13.2667 10.8228C13.502 10.7309 13.7261 10.6126 13.9347 10.4702L13.9427 10.4648C14.2288 10.2592 14.3811 10.0373 14.3917 9.80668C14.3943 9.76108 14.3916 9.71533 14.3837 9.67034C14.3628 9.54553 14.2768 9.43952 14.1277 9.34761C13.9192 9.22209 13.5932 9.13394 13.1551 9.08059C12.838 9.04584 12.5192 9.02889 12.2003 9.02981V9.02981Z" fill="#007BB5"/>
<path d="M9.29011 11.5778H9.21959C9.17869 11.5778 9.13591 11.5759 9.09266 11.5754L9.09666 11.578C9.14014 11.578 9.18339 11.5804 9.22476 11.5804H9.29175C9.29112 11.5796 9.29057 11.5787 9.29011 11.5778V11.5778ZM9.43279 11.6518L9.40129 11.5966C9.39636 11.5891 9.39189 11.5815 9.38766 11.5731C9.31834 11.458 9.26197 11.3355 9.21959 11.208C9.18762 11.1141 9.16348 11.0176 9.14743 10.9196C9.14202 10.8848 9.13662 10.8529 9.13403 10.8181L9.12604 10.7539L9.11875 10.7588L9.07339 10.7882L9.04494 10.807H9.0433C8.97479 10.853 8.91073 10.9052 8.85196 10.9631C8.75253 11.0625 8.70411 11.162 8.70717 11.2567C8.70717 11.2614 8.70717 11.2659 8.70717 11.2703C8.70767 11.293 8.71131 11.3154 8.71798 11.3371C8.71986 11.3444 8.72221 11.3517 8.72456 11.3587C8.7415 11.4071 8.76777 11.4516 8.8019 11.4899C8.8255 11.5167 8.85181 11.5411 8.8804 11.5625C8.88156 11.5635 8.88282 11.5644 8.88417 11.5651C8.88417 11.5651 8.88628 11.5667 8.88722 11.5679C8.93423 11.5707 8.98289 11.5729 9.03319 11.5745H9.03531L9.0299 11.5719L9.02496 11.5693L9.01979 11.5667L9.00922 11.5587H9.0064C8.9984 11.5545 8.99065 11.5498 8.98289 11.5451C8.9267 11.5137 8.87744 11.4712 8.83809 11.4203C8.81609 11.3905 8.80012 11.3568 8.79108 11.3209C8.78991 11.314 8.7885 11.3063 8.78756 11.2974C8.78662 11.2884 8.7845 11.2767 8.78286 11.2663C8.77486 11.1916 8.81764 11.1086 8.90321 11.0205C8.95032 10.9729 9.00152 10.9296 9.05623 10.8909V10.8909C9.0567 10.8956 9.05709 10.9003 9.0574 10.905C9.05729 10.9059 9.05729 10.9068 9.0574 10.9076C9.0574 10.9112 9.05858 10.9147 9.05905 10.9182C9.05889 10.9191 9.05889 10.9199 9.05905 10.9208C9.05905 10.9243 9.06046 10.9278 9.06093 10.9311C9.06469 10.9546 9.06892 10.9782 9.07409 11.0017C9.07409 11.004 9.07409 11.0061 9.07527 11.0087C9.07832 11.0216 9.08114 11.0348 9.0842 11.0475C9.09619 11.0987 9.10959 11.1467 9.12392 11.1928C9.12768 11.2052 9.13168 11.2163 9.13568 11.2299L9.15119 11.2739C9.1566 11.2887 9.162 11.3032 9.16788 11.318C9.1794 11.3472 9.19139 11.3763 9.20408 11.405C9.20972 11.4175 9.21513 11.4285 9.221 11.4417C9.22688 11.4548 9.23252 11.4652 9.23863 11.4774C9.25462 11.5103 9.27201 11.5428 9.29034 11.5743C9.30069 11.5928 9.31173 11.6112 9.32278 11.63L9.33454 11.649H9.35804C9.34699 11.649 9.33642 11.649 9.3256 11.649H9.32137L9.225 11.6535H9.22946C9.25297 11.6535 9.27436 11.6535 9.29622 11.6521H9.32255H9.32419H9.35781H9.36321L9.43255 11.6492L9.43279 11.6518ZM9.29175 11.5813C9.29112 11.5805 9.29057 11.5796 9.29011 11.5787H9.21959C9.17869 11.5787 9.13591 11.5768 9.09266 11.5764L9.09666 11.579C9.14014 11.579 9.18339 11.5813 9.22476 11.5813H9.29175ZM9.29011 11.5787H9.21959C9.17869 11.5787 9.13591 11.5768 9.09266 11.5764H9.0748L9.06704 11.578H9.09642C9.13991 11.578 9.18316 11.5804 9.22453 11.5804H9.29152C9.29097 11.5796 9.2905 11.5787 9.29011 11.5778V11.5787Z" fill="#007BB5"/>
<path d="M12.8511 11.0559L12.8645 10.9854C12.894 10.8422 12.9074 10.6961 12.9045 10.5498C12.9021 10.4607 12.8931 10.3718 12.8777 10.284C12.8725 10.2492 12.8645 10.2172 12.8591 10.1853L12.8457 10.1211L12.9099 10.1371C12.9962 10.1573 13.0802 10.186 13.1609 10.2226C13.3052 10.2894 13.3908 10.375 13.4148 10.4737C13.4176 10.4871 13.4202 10.5005 13.4228 10.5165C13.4416 10.6474 13.3934 10.775 13.2759 10.8987L13.2705 10.9038L13.2625 10.9067C13.1877 10.936 13.113 10.9654 13.0328 10.9922C12.9954 11.0054 12.9578 11.0188 12.9179 11.0322L12.8511 11.0559ZM12.9498 10.2304L12.9578 10.2704C12.9734 10.3623 12.9823 10.4552 12.9846 10.5484C12.9877 10.6781 12.9788 10.8078 12.9578 10.9358L13.006 10.9198C13.0808 10.893 13.1529 10.8662 13.2251 10.8368C13.3191 10.7327 13.3588 10.6286 13.3454 10.527C13.3426 10.5162 13.3426 10.5056 13.34 10.4922C13.3212 10.4175 13.2493 10.3512 13.1285 10.2946C13.0707 10.2686 13.011 10.2471 12.9498 10.2304V10.2304Z" fill="#007BB5"/>
<path d="M14.511 11.8033C14.3906 11.7526 14.2463 11.6778 14.094 11.6003L14.0059 11.5549L14.0432 11.4844L14.1314 11.53C14.2837 11.6073 14.4254 11.6823 14.543 11.7302L14.511 11.8033Z" fill="#007BB5"/>
<path d="M13.3105 10.8924L13.2598 10.8311C13.4572 10.6698 13.684 10.5483 13.9276 10.4731C13.9355 10.4707 13.9434 10.468 13.9511 10.4648L13.9696 10.5424C13.9645 10.545 13.9562 10.545 13.9511 10.5478C13.7176 10.6209 13.5002 10.7378 13.3105 10.8924Z" fill="#007BB5"/>
<path d="M16.8918 10.6494C16.6567 10.636 16.3895 10.604 16.0926 10.5638L16.0691 10.5612C15.7565 10.5238 15.433 10.4837 15.1152 10.4623L15.1195 10.3828C15.4403 10.4016 15.7635 10.4416 16.0787 10.4818L16.1022 10.4844C16.3986 10.5217 16.6633 10.5549 16.8984 10.5671L16.8918 10.6494Z" fill="#007BB5"/>
<path d="M13.0505 10.9776L12.9863 10.9306C13.1227 10.7543 13.2402 10.6154 13.3523 10.4925C13.6943 10.1211 14.0312 9.89143 14.4131 9.76849L14.4211 9.76567C14.7471 9.66154 15.1293 9.58139 15.5889 9.52521C15.9763 9.4782 16.3716 9.44788 16.751 9.42108L16.7912 9.41849C17.1786 9.39052 17.5415 9.36373 17.8894 9.31836L17.9 9.39851C17.55 9.44388 17.184 9.47068 16.7966 9.49747L16.7564 9.50006C16.377 9.52686 15.9842 9.55624 15.5969 9.60419C15.1425 9.66037 14.7631 9.73794 14.4425 9.84207L14.4345 9.84465C14.0685 9.96218 13.7425 10.1867 13.4085 10.5475C13.3015 10.665 13.1868 10.8039 13.0505 10.9776Z" fill="#007BB5"/>
<path d="M12.9737 10.5708L12.9062 10.528C12.9784 10.4159 13.0426 10.3195 13.1039 10.2342C13.4246 9.78757 13.7426 9.48599 14.1112 9.2829L14.1166 9.28032C14.1214 9.27822 14.1259 9.27545 14.13 9.27209C14.4106 9.11719 14.7498 8.98085 15.1614 8.84899H15.164C15.514 8.73945 15.864 8.6513 16.2836 8.54717L16.3071 8.54177C16.6519 8.45644 16.9777 8.37723 17.2877 8.2832L17.3112 8.35795C17.0014 8.45197 16.6728 8.53424 16.328 8.61981L16.3045 8.62521C15.8861 8.73099 15.5361 8.81796 15.1863 8.9275H15.1837C14.7775 9.05584 14.4435 9.19193 14.1657 9.34425C14.1603 9.34707 14.1577 9.34966 14.1549 9.34966L14.1497 9.35224C13.7943 9.55016 13.4817 9.84398 13.169 10.2821C13.11 10.3651 13.0459 10.4612 12.9737 10.5708Z" fill="#007BB5"/>
<path d="M12.7334 9.68165L12.6641 9.64146C12.7821 9.42875 12.9247 9.23059 13.0888 9.05099C13.1022 9.0376 13.1156 9.02161 13.129 9.00821C13.3027 8.82934 13.5244 8.65563 13.8022 8.4791L13.8102 8.47393C14.0535 8.31879 14.3153 8.17987 14.5824 8.03837L14.6226 8.01698C14.839 7.90203 15.0457 7.79508 15.2337 7.68555L15.2739 7.75606C15.0814 7.86819 14.8757 7.97514 14.6592 8.09008L14.6193 8.11147C14.3492 8.25251 14.0876 8.39189 13.8436 8.54703L13.8356 8.5522C13.5646 8.72238 13.3504 8.89069 13.1824 9.06439L13.1424 9.10435C12.9873 9.28277 12.8503 9.47615 12.7334 9.68165V9.68165Z" fill="#007BB5"/>
<path d="M11.7076 8.79713L11.6328 8.76775C11.6622 8.69559 11.697 8.62343 11.7395 8.53269C11.8117 8.38578 11.8918 8.23864 11.9668 8.10254L11.9934 8.05694C12.0604 7.93424 12.1323 7.80848 12.1939 7.68555L12.2658 7.72081C12.2042 7.84374 12.1321 7.97208 12.0653 8.09502L12.0388 8.14038C11.9638 8.27672 11.8836 8.42081 11.8115 8.56795C11.7687 8.65563 11.7341 8.72779 11.7076 8.79713Z" fill="#007BB5"/>
<path d="M9.75585 9.13087C9.70249 9.06928 9.64373 9.01052 9.57956 8.94635C9.47002 8.83681 9.35508 8.73479 9.22697 8.62056L9.19171 8.59094C9.07935 8.48963 8.9724 8.39608 8.87109 8.29712L8.92774 8.24023C9.0267 8.33661 9.13342 8.43275 9.24578 8.53147L9.28056 8.56085C9.40867 8.6758 9.52361 8.78016 9.63597 8.88993C9.69991 8.95387 9.75867 9.01545 9.81485 9.07798L9.75585 9.13087Z" fill="#007BB5"/>
<path d="M13.9721 10.5343C13.7596 10.678 13.532 10.798 13.2935 10.8923L13.2561 10.9057C13.1813 10.935 13.1063 10.9644 13.0262 10.9912C12.9975 11.0013 12.9688 11.0117 12.939 11.0218L12.9115 11.0312L12.8447 11.0526L12.8579 10.9832C12.8591 10.9773 12.8605 10.9717 12.8612 10.9658C12.7789 10.9931 12.6896 11.0204 12.5935 11.05C12.4226 11.1008 12.238 11.1487 12.035 11.1969C11.8319 11.2451 11.6208 11.2909 11.4017 11.3304C11.303 11.3492 11.2148 11.3649 11.1373 11.3774C11.0625 11.388 10.9716 11.4042 10.87 11.4202C10.6404 11.4576 10.4345 11.487 10.2396 11.5083C10.0311 11.5318 9.83341 11.5511 9.6463 11.5617C9.56098 11.5666 9.47354 11.5692 9.38962 11.5713H9.38069C9.38445 11.5782 9.38845 11.5845 9.39244 11.5908L9.42935 11.6489H9.43475C9.48459 11.6475 9.53418 11.6454 9.58307 11.643L9.65735 11.639C9.8454 11.6282 10.0447 11.6097 10.2528 11.5857C10.4479 11.5643 10.6535 11.5349 10.886 11.4973C10.929 11.4919 10.9701 11.4855 11.0092 11.4792L11.0766 11.4679L11.1001 11.4637C11.1185 11.4609 11.1361 11.4576 11.1526 11.4547C11.2301 11.4414 11.3209 11.4254 11.4198 11.4066C11.6415 11.3664 11.8554 11.321 12.0585 11.273C12.149 11.2519 12.2355 11.2303 12.3187 11.2079H12.3231C12.4273 11.1804 12.5262 11.1522 12.6221 11.1243C12.7263 11.0949 12.8226 11.0629 12.9134 11.0335C12.9214 11.0307 12.9294 11.0281 12.9369 11.0251C12.9681 11.0147 12.9982 11.0041 13.0281 10.9933C13.1082 10.9665 13.183 10.9372 13.2577 10.9078L13.2953 10.8944C13.5678 10.7823 13.7948 10.6621 13.9739 10.5364C14.2398 10.4619 14.5745 10.4351 14.9995 10.4534L15.0026 10.4511C14.5771 10.4327 14.2393 10.4595 13.9721 10.5343ZM9.04832 11.5706L9.03116 11.5735H9.02975C8.98062 11.5718 8.93291 11.5697 8.88613 11.5666C8.8323 11.5638 8.78035 11.5598 8.72958 11.5546C8.62746 11.5455 8.52586 11.5313 8.42518 11.5119V11.5119C8.3354 11.4952 8.24676 11.4729 8.1598 11.4451L8.15158 11.4425H8.14358C8.09375 11.4482 8.04298 11.455 7.99103 11.4639C7.71648 11.5098 7.41397 11.6017 7.05644 11.7523L6.96877 11.7897L6.96289 11.7925L6.969 11.7949L7.05527 11.8275C7.49624 11.9921 8.12125 12.0732 8.91481 12.0626H8.92985C9.16068 12.0596 9.4096 12.0492 9.66581 12.0306L9.71118 12.0281C9.72716 12.0255 9.74597 12.0255 9.76454 12.0226L9.78593 12.0201C9.89288 12.0121 9.99748 12.0041 10.0986 11.9933C10.1601 11.9881 10.2189 11.9801 10.2748 11.9747L10.3898 11.9613C10.4406 11.9559 10.4913 11.9479 10.5395 11.9425L10.5529 11.9399C10.7132 11.9211 10.8681 11.8997 11.0176 11.8757C11.0978 11.8652 11.1648 11.8543 11.2207 11.8438C11.2767 11.8332 11.3465 11.8224 11.4132 11.8064C11.5707 11.777 11.7259 11.7448 11.8808 11.71C11.9341 11.6994 11.9877 11.6886 12.0437 11.6755L12.1532 11.6487C12.204 11.6353 12.2547 11.6252 12.3083 11.6113C12.4045 11.5899 12.5034 11.5631 12.6047 11.5365L12.6663 11.5203C12.6898 11.5152 12.7117 11.5072 12.7357 11.5018L12.7439 11.4989C12.9858 11.4305 13.2201 11.3596 13.439 11.286L13.4491 11.2827H13.4519C14.201 11.0286 14.7651 10.7479 15.1318 10.4478L15.204 10.3883L15.2092 10.3836L15.1076 10.3784C14.6107 10.3462 14.2393 10.373 13.9427 10.4586L13.9347 10.4612L13.9267 10.4666C13.7181 10.609 13.4939 10.7272 13.2587 10.8192L13.2213 10.8326C13.1491 10.8619 13.0718 10.8913 12.9942 10.9181L12.9583 10.9308C12.9583 10.9308 12.9583 10.9308 12.9571 10.9308L12.8821 10.9574L12.8612 10.9649C12.7789 10.9922 12.6896 11.0194 12.5935 11.049C12.4226 11.0998 12.238 11.1478 12.035 11.196C11.8319 11.2441 11.6208 11.29 11.4017 11.3295C11.303 11.3483 11.2148 11.3639 11.1373 11.3765C11.0625 11.3871 10.9716 11.4033 10.87 11.4193C10.6404 11.4566 10.4345 11.486 10.2396 11.5074C10.0311 11.5309 9.83341 11.5502 9.6463 11.5608C9.56098 11.5657 9.47354 11.5683 9.38962 11.5704H9.38069H9.35718C9.33532 11.5704 9.31417 11.5723 9.29278 11.5727H9.22109C9.18019 11.5727 9.13741 11.5709 9.09416 11.5704H9.06336V11.576H9.06877H9.09815C9.14164 11.576 9.18489 11.5784 9.22626 11.5784H9.29325C9.29262 11.5776 9.29207 11.5767 9.2916 11.5758H9.29325C9.30359 11.5944 9.31464 11.6127 9.32569 11.6315L9.33744 11.6506H9.36095C9.38445 11.6506 9.40655 11.6506 9.42958 11.6506H9.43499C9.48482 11.6491 9.53442 11.647 9.58331 11.6447L9.65759 11.6407C9.84563 11.6299 10.045 11.6113 10.253 11.5873C10.4481 11.5659 10.6538 11.5365 10.8862 11.4989C10.9292 11.4935 10.9704 11.4872 11.0094 11.4808L11.0769 11.4696L11.1004 11.4653C11.1187 11.4625 11.1363 11.4592 11.1528 11.4564C11.2304 11.443 11.3211 11.427 11.42 11.4082C11.6417 11.368 11.8556 11.3226 12.0587 11.2747C12.1492 11.2535 12.2357 11.2319 12.3189 11.2096H12.3234C12.4275 11.1821 12.5265 11.1539 12.6224 11.1259C12.7265 11.0965 12.8229 11.0646 12.9136 11.0352C12.9216 11.0324 12.9296 11.0298 12.9371 11.0267C12.9684 11.0164 12.9985 11.0058 13.0283 10.995C13.1085 10.9682 13.1832 10.9388 13.258 10.9094L13.2956 10.896C13.568 10.7839 13.7951 10.6638 13.9742 10.538C14.24 10.4635 14.5748 10.4367 14.9997 10.4551H15.0056C14.6474 10.7249 14.1211 10.9759 13.4371 11.2084H13.4345L13.3287 11.2437C13.1383 11.306 12.9388 11.3659 12.7317 11.4223L12.7237 11.4249C12.7002 11.4303 12.6783 11.4383 12.6532 11.4437L12.5784 11.4623C12.4823 11.4891 12.3861 11.513 12.2952 11.5344C12.2418 11.5478 12.191 11.5579 12.1403 11.5718L12.0307 11.5986C11.9745 11.6092 11.9212 11.6221 11.8678 11.6334C11.7127 11.6654 11.5578 11.6976 11.4029 11.7274C11.3279 11.7406 11.2619 11.7509 11.2024 11.762C11.1429 11.773 11.0794 11.7834 11.0021 11.7942C10.855 11.8156 10.6965 11.8395 10.5398 11.8583L10.5264 11.8609C10.4793 11.8689 10.4276 11.8743 10.3769 11.8797L10.2619 11.8929C10.2057 11.9009 10.147 11.9063 10.0882 11.9117C9.98667 11.9197 9.88254 11.9305 9.77817 11.9385L9.7596 11.9411C9.7408 11.9437 9.72481 11.9437 9.70624 11.9465L9.66064 11.9491C9.42888 11.9658 9.2051 11.9759 8.99379 11.9799L8.91246 11.9813H8.89389C8.1819 11.9881 7.60789 11.9246 7.18737 11.7881L7.18337 11.7869H7.18126C7.55006 11.6383 7.85305 11.5554 8.14029 11.5232H8.13771C8.08709 11.5075 8.03914 11.4897 7.99385 11.4698C8.04556 11.4611 8.0961 11.4538 8.1457 11.4484L8.15322 11.5232C8.17673 11.5206 8.19859 11.5206 8.22374 11.518C8.2863 11.5131 8.3491 11.5121 8.41178 11.5149C8.52144 11.5364 8.63215 11.5521 8.74345 11.5619C8.79046 11.5664 8.83747 11.5699 8.88707 11.573C8.93667 11.576 8.98344 11.5779 9.03304 11.5796H9.03563L9.04456 11.5777L9.05467 11.5763L9.06242 11.5751" fill="#007BB5"/>
<path d="M9.08038 10.2977C8.90202 10.1429 8.7066 10.0088 8.49791 9.89814L8.43374 9.86617C8.20926 9.75664 7.9474 9.67108 7.63454 9.59891C7.36211 9.53474 7.07605 9.49196 6.78481 9.4466L6.7378 9.43861C6.49451 9.40123 6.26486 9.36644 6.04297 9.32366L6.05919 9.24609C6.28085 9.28887 6.51073 9.32366 6.7512 9.36104L6.79821 9.36903C7.09226 9.41463 7.37809 9.45718 7.65335 9.52135C7.93437 9.58136 8.20774 9.67283 8.46829 9.79401L8.53246 9.82598C8.7476 9.93901 8.94857 10.0772 9.13115 10.2376L9.08038 10.2977Z" fill="#007BB5"/>
<path d="M9.15725 11.2484C9.0503 11.1654 8.95157 11.0907 8.85543 11.0239C8.41987 10.7184 8.03273 10.5376 7.63431 10.4575L7.60752 10.452C7.30194 10.3933 6.94747 10.3719 6.51732 10.3881H6.51473C6.12736 10.4013 5.72377 10.4415 5.36836 10.4763H5.36037C4.9918 10.5136 4.64438 10.5484 4.32118 10.5616L4.31836 10.4814C4.63898 10.4683 4.98639 10.4344 5.35261 10.3961H5.3606C5.71601 10.3613 6.1196 10.3211 6.50956 10.308H6.51238C6.94771 10.2917 7.31158 10.3131 7.62115 10.3747L7.64795 10.3799C8.05671 10.4629 8.4549 10.6471 8.89821 10.9598C8.99459 11.0303 9.09613 11.1008 9.20379 11.1868L9.15725 11.2484Z" fill="#007BB5"/>
<path d="M9.25114 11.5772H9.22764C9.18627 11.5772 9.14301 11.5753 9.09953 11.5748L9.09553 11.5722C9.00363 11.5142 8.91995 11.4646 8.8405 11.4202C8.805 11.4004 8.76998 11.3814 8.73637 11.3635C8.73307 11.3619 8.73025 11.3602 8.72696 11.3588C8.31444 11.1402 7.94963 11.0318 7.58012 11.018C7.5632 11.018 7.5458 11.0168 7.52864 11.0166H7.49503C7.17982 11.0166 6.81877 11.0622 6.39026 11.1527L6.35006 11.1609L6.31763 11.1679C5.95634 11.2453 5.59224 11.3464 5.26575 11.4371L5.22179 11.4491L5.18254 11.4594C4.80292 11.5664 4.44493 11.6653 4.11091 11.7347L4.09375 11.6573C4.42283 11.5882 4.77965 11.4902 5.15456 11.3837L5.15997 11.3823L5.19993 11.3715L5.23683 11.3614C5.5645 11.2704 5.93237 11.1696 6.29459 11.0883L6.33008 11.0803L6.36652 11.0725C6.79127 10.9815 7.1509 10.9357 7.464 10.9336C7.48163 10.9336 7.49926 10.9336 7.51642 10.9336H7.52182H7.54298C7.92283 10.9418 8.29516 11.0443 8.70769 11.2561L8.76974 11.2885L8.78761 11.2982C8.923 11.3706 9.07156 11.4604 9.24644 11.5744L9.25114 11.5772Z" fill="#007BB5"/>
<path d="M9.05646 11.5738L9.04636 11.5752L9.03742 11.5771H9.03484C8.98532 11.5755 8.93666 11.5733 8.88887 11.5705C8.83974 11.5675 8.79179 11.5639 8.74525 11.5595L8.72926 11.5557C8.72221 11.5538 8.71516 11.5524 8.70811 11.551C8.62131 11.5318 8.53312 11.5194 8.44437 11.5141V11.5141L8.4258 11.5129H8.41452C8.35184 11.5101 8.28904 11.5111 8.22648 11.516C8.20297 11.5186 8.18111 11.5186 8.15596 11.5212L8.14844 11.4464V11.441C8.17238 11.438 8.19647 11.4363 8.2206 11.4358C8.41696 11.4223 8.61419 11.4415 8.80425 11.4927C8.86364 11.5084 8.92397 11.5267 8.98524 11.5477L9.00875 11.5559H9.01415L9.02215 11.5613L9.04401 11.5698L9.04941 11.5717C9.05167 11.5726 9.05404 11.5732 9.05646 11.5736V11.5738Z" fill="#007BB5"/>
<path d="M5.47102 12.5777L5.44141 12.5055C5.67129 12.4092 5.91152 12.2916 6.16562 12.1661L6.18442 12.1581C6.46649 12.0192 6.75867 11.8761 7.05272 11.752L7.08211 11.8241C6.79087 11.9471 6.49963 12.0886 6.21898 12.2277L6.20041 12.2383C5.94396 12.3638 5.70326 12.4813 5.47102 12.5777Z" fill="#007BB5"/>
<path d="M11.2813 12.2362C11.2439 12.2416 11.2037 12.2496 11.1612 12.2548C11.0808 12.2682 10.99 12.2816 10.8911 12.2976L10.8676 12.3004L10.7446 12.3164C10.7018 12.3218 10.6565 12.3298 10.6085 12.3349H10.5996C10.5277 12.3457 10.4501 12.3537 10.3725 12.3645H10.3645L10.2658 12.3751C9.66738 12.4464 9.06573 12.4874 8.46316 12.4981L8.36914 12.5006L8.43331 12.4301C8.57635 12.2757 8.72705 12.1285 8.88486 11.9892L8.89543 11.9786H8.90883C9.17327 11.9758 9.45934 11.9624 9.75504 11.9384L9.77643 11.9358C9.88338 11.9278 9.98798 11.917 10.0865 11.909C10.1478 11.9036 10.2094 11.8956 10.2682 11.8904L10.3751 11.877C10.4259 11.8716 10.4738 11.8662 10.5192 11.8582L10.5354 11.8556C10.6957 11.8368 10.8506 11.8129 10.9976 11.7915C11.0751 11.7807 11.142 11.77 11.1981 11.7595C11.2568 11.7487 11.3236 11.7381 11.3983 11.7247C11.5532 11.6953 11.7084 11.6631 11.8633 11.6307C11.9166 11.6199 11.9702 11.6072 12.0262 11.5959L12.1465 11.5665C12.1947 11.5559 12.2426 11.5451 12.2908 11.5317C12.3816 11.5104 12.475 11.4864 12.5713 11.4596L12.6462 11.441C12.9187 11.3663 13.1805 11.2887 13.4236 11.2059L13.4398 11.2031L13.4504 11.2059C13.6481 11.2833 13.8486 11.3848 14.0357 11.481L14.121 11.5237L14.0314 11.5548C13.4537 11.7436 12.8669 11.9032 12.2732 12.0331L12.1129 12.0679C12.0541 12.0813 11.998 12.0914 11.9446 12.1027L11.8938 12.1133L11.8083 12.1293C11.7789 12.1347 11.7469 12.1426 11.7175 12.1481L11.6668 12.1586C11.5678 12.1774 11.4771 12.1934 11.3969 12.2094C11.3593 12.2222 11.3206 12.2311 11.2813 12.2362ZM10.3568 12.2896H10.3674C10.4423 12.2816 10.5171 12.271 10.5893 12.2602H10.5972C10.6426 12.2548 10.6882 12.2468 10.7308 12.2416C10.7733 12.2364 10.8163 12.2308 10.8537 12.2254L10.8751 12.2228C10.974 12.2068 11.0631 12.1934 11.1423 12.1828C11.182 12.1742 11.2221 12.168 11.2625 12.164C11.3001 12.1586 11.34 12.1506 11.38 12.1426C11.4601 12.1293 11.5509 12.1107 11.6498 12.0919L11.7006 12.0813C11.73 12.0759 11.7594 12.0705 11.7913 12.0625C11.8181 12.0571 11.8475 12.0519 11.8743 12.0465L11.9251 12.0357C11.9784 12.0251 12.0346 12.0122 12.0934 12.0011L12.2509 11.9664C12.8467 11.8326 13.4052 11.6843 13.9101 11.5197C13.7552 11.4396 13.5923 11.3623 13.432 11.2981C13.1916 11.3782 12.9323 11.4584 12.6625 11.5306L12.6009 11.5465C12.4993 11.5733 12.4006 11.6001 12.3045 11.6213C12.2563 11.6321 12.2081 11.6448 12.1601 11.6561L12.0372 11.6855C11.981 11.6989 11.9277 11.709 11.8743 11.7203C11.7192 11.755 11.5617 11.787 11.4066 11.8164C11.3318 11.8298 11.2655 11.8432 11.2063 11.8512C11.147 11.8592 11.0833 11.8726 11.0032 11.8831C10.8534 11.9073 10.6984 11.9287 10.5382 11.9473L10.5223 11.9501C10.4741 11.9553 10.4261 11.9607 10.3754 11.9687L10.2684 11.9821C10.2096 11.9875 10.1481 11.9955 10.0841 12.0009C9.98257 12.0115 9.87821 12.0195 9.77149 12.0275L9.7501 12.0303C9.45605 12.0517 9.17562 12.0648 8.91377 12.0703C8.78801 12.1798 8.66249 12.3053 8.54496 12.4282C9.07126 12.4177 9.64315 12.3749 10.2444 12.3053L10.3565 12.2893L10.3568 12.2896Z" fill="#007BB5"/>
<path d="M8.09437 12.896L8.04102 12.837C8.13715 12.7516 8.24928 12.6313 8.36681 12.5058L8.4338 12.4336L8.49256 12.4898L8.4258 12.5603C8.30546 12.6875 8.19333 12.8076 8.09437 12.896Z" fill="#007BB5"/>
<path d="M12.9415 10.9534L12.9062 11.0254L13.4316 11.2829L13.4669 11.2109L12.9415 10.9534Z" fill="#007BB5"/>
<path d="M9.32393 11.6523L9.3211 11.6549C9.29478 11.6806 9.11566 11.8552 8.99202 11.9788C8.99081 11.9803 8.98948 11.9816 8.98803 11.9828L8.94525 12.0258L8.88672 11.9854L8.89212 11.9802L8.89753 11.9748C8.89753 11.9748 9.16009 11.6928 9.22332 11.6568L9.31969 11.6523H9.32393Z" fill="#007BB5"/>
<path d="M9.35818 11.6561C9.34713 11.6561 9.33655 11.6561 9.32574 11.6561H9.32151L9.22514 11.6606H9.12594C9.09468 11.6606 9.06342 11.6587 9.03427 11.6573C9.02628 11.6573 9.01852 11.6573 9.01076 11.6573H9.00207C9.00074 11.6571 8.99939 11.6571 8.99807 11.6573V11.6573H8.98608H8.97339H8.96375H8.94612H8.9379H8.93061C8.92623 11.6577 8.92183 11.6577 8.91745 11.6573H8.90334H8.89606C8.72241 11.648 8.54961 11.6267 8.37893 11.5934C8.34814 11.587 8.31781 11.5802 8.2882 11.5734L8.25153 11.5577C8.21603 11.548 8.18101 11.5381 8.14857 11.5278L8.14058 11.5259H8.138C8.08738 11.5102 8.03943 11.4925 7.99414 11.4726C8.04585 11.4639 8.09639 11.4566 8.14599 11.4512L8.15351 11.5259C8.17702 11.5233 8.19888 11.5233 8.22403 11.5207C8.28659 11.5159 8.34939 11.5148 8.41207 11.5177C8.52173 11.5391 8.63244 11.5548 8.74374 11.5647C8.79075 11.5692 8.83776 11.5727 8.88736 11.5758C8.93696 11.5788 8.98373 11.5807 9.03333 11.5823H9.03591L9.04485 11.5805L9.05495 11.579L9.06271 11.5779V11.5812H9.06812H9.0975C9.14099 11.5812 9.18424 11.5835 9.22561 11.5835H9.2926C9.29197 11.5827 9.29141 11.5818 9.29095 11.5809H9.2926C9.30294 11.5995 9.31399 11.6178 9.32503 11.6366L9.33679 11.6557L9.35818 11.6561Z" fill="#007BB5"/>
<path d="M12.9615 10.8789C12.9587 10.8977 12.9559 10.9168 12.9523 10.9356C12.9481 10.9591 12.9432 10.984 12.938 11.0082L12.9342 11.0249L12.9331 11.0287V11.0303L12.9117 11.0376C12.8073 11.0724 12.7051 11.1032 12.619 11.129C12.525 11.1568 12.426 11.184 12.3193 11.2115H12.3149C12.2331 11.2327 12.147 11.2539 12.0563 11.2755C11.8269 11.3307 11.6142 11.3726 11.4186 11.4095C11.3361 11.4252 11.2508 11.4403 11.1509 11.4577L11.0968 11.4673L11.0733 11.4715L11.0058 11.4828C10.9675 11.4887 10.9257 11.4948 10.8827 11.5007C10.6565 11.5373 10.4487 11.5663 10.248 11.5888C10.0423 11.6123 9.84135 11.63 9.65025 11.6426L9.57973 11.6466C9.53084 11.649 9.48124 11.6511 9.43141 11.6525H9.4246C9.40109 11.6525 9.37899 11.6525 9.35596 11.6525H9.33245L9.3207 11.6335C9.30965 11.6147 9.2986 11.5963 9.28826 11.5778C9.26993 11.5453 9.25253 11.5131 9.23655 11.4809C9.23044 11.4689 9.22456 11.4574 9.21892 11.4452C9.21328 11.433 9.20764 11.4217 9.202 11.4085C9.1886 11.3794 9.17661 11.3505 9.1658 11.3216C9.15992 11.3067 9.15451 11.2922 9.14911 11.2774C9.1437 11.2626 9.1383 11.2456 9.13312 11.2304L9.12184 11.197C9.1075 11.15 9.0941 11.103 9.08212 11.0517C9.07906 11.039 9.07624 11.0259 9.07318 11.0129C9.07318 11.0103 9.07318 11.0082 9.07201 11.0059C9.06895 10.9925 9.06613 10.9791 9.06355 10.9652C9.06096 10.9513 9.05908 10.9429 9.05697 10.9314L9.05156 10.8961L9.04075 10.8256C9.04075 10.8204 9.03957 10.8155 9.0391 10.8103C9.0188 10.6267 9.02481 10.441 9.05697 10.2591C9.10401 9.98922 9.20706 9.73219 9.35948 9.50456C9.38299 9.46789 9.40932 9.4324 9.43611 9.39738C9.52933 9.27776 9.63508 9.16846 9.75156 9.07135C9.96912 8.89385 10.2218 8.7644 10.4929 8.6915C10.5345 8.68022 10.5765 8.67042 10.6192 8.66212L10.7165 8.64566C11.0554 8.59614 11.4014 8.636 11.7201 8.76129C12.0389 8.88658 12.3194 9.09297 12.5339 9.36C12.5452 9.37387 12.5574 9.38797 12.5673 9.40208C12.5772 9.41618 12.5878 9.42887 12.5974 9.44227C12.607 9.45567 12.6209 9.47424 12.6315 9.48928C12.6647 9.53818 12.696 9.58848 12.7255 9.64019C12.8157 9.80299 12.8826 9.97761 12.9244 10.159C12.9295 10.1754 12.9345 10.1914 12.9382 10.2074C12.9439 10.2289 12.9485 10.2507 12.9519 10.2727C12.952 10.2741 12.952 10.2754 12.9519 10.2767C12.9559 10.3002 12.9594 10.3237 12.9624 10.3472C12.965 10.3646 12.9671 10.382 12.9688 10.3997C12.9704 10.4173 12.9718 10.4347 12.9733 10.4521C12.9747 10.4695 12.9756 10.4862 12.9765 10.5038C12.9775 10.5214 12.978 10.5351 12.9787 10.5508V10.5548C12.9826 10.6631 12.9769 10.7716 12.9615 10.8789Z" fill="#007BB5"/>
</svg>
