<svg width="32" height="32" viewBox="0 0 32 32" fill="none" xmlns="http://www.w3.org/2000/svg">
<path d="M16 32C24.8366 32 32 24.8366 32 16C32 7.16344 24.8366 0 16 0C7.16344 0 0 7.16344 0 16C0 24.8366 7.16344 32 16 32Z" fill="url(#paint0_linear_1328_27105)"/>
<path d="M16 31.75C24.6985 31.75 31.75 24.6985 31.75 16C31.75 7.30152 24.6985 0.25 16 0.25C7.30152 0.25 0.25 7.30152 0.25 16C0.25 24.6985 7.30152 31.75 16 31.75Z" stroke="white" stroke-width="0.5"/>
<path d="M16.8116 20.1188L16.5642 20.1591H16.5461C16.5275 20.1635 16.5094 20.1635 16.4908 20.1683L16.4268 20.1772C13.1838 20.7087 10.4401 20.7776 8.04531 20.3928C7.40058 20.2872 6.45162 20.1087 5.64087 19.7606C4.68265 19.3491 4.13745 18.7902 4.02301 18.0988C3.73449 16.4084 6.23926 15.0528 7.06452 14.6084C9.25377 13.4221 11.952 12.5702 15.3094 12.002C18.6668 11.4339 21.4976 11.3472 23.9524 11.7458C25.5557 12.0065 27.7176 12.5243 27.9759 14.0386C28.2342 15.5529 26.3641 16.7549 24.9344 17.529C22.7987 18.6835 20.1892 19.5216 16.9506 20.0894L16.8866 20.0986C16.8684 20.1035 16.8499 20.1035 16.8317 20.1079C16.8209 20.1188 16.816 20.1188 16.8116 20.1188ZM16.5319 20.0269H16.5408L16.7931 19.9814H16.7975C16.8156 19.9765 16.8342 19.9765 16.8523 19.9721L16.9168 19.9628C20.1368 19.3987 22.7338 18.5658 24.859 17.4162C28.1024 15.6617 27.8953 14.4617 27.832 14.068C27.5665 12.4739 24.8276 12.0295 23.9298 11.8876C21.4883 11.4935 18.6761 11.5761 15.3324 12.1447C11.9886 12.7133 9.30898 13.5595 7.12858 14.7365C3.8856 16.491 4.09191 17.691 4.15598 18.0851C4.42596 19.6788 7.16525 20.1188 8.06465 20.2651C10.4465 20.6499 13.1765 20.5814 16.4058 20.0499L16.4703 20.0406C16.4884 20.0362 16.507 20.0362 16.5251 20.0317L16.5319 20.0269Z" fill="white"/>
<path d="M16.567 19.4719C16.5029 19.4812 16.434 19.4949 16.3611 19.5037C16.2233 19.5267 16.0677 19.5497 15.8981 19.5771L15.88 19.5819C15.8066 19.5908 15.7289 19.6049 15.6463 19.6137C15.5729 19.623 15.4951 19.6367 15.4129 19.646H15.3984C15.2751 19.6641 15.1422 19.6778 15.0092 19.6963H14.991L14.8214 19.7145C14.7755 19.7193 14.7251 19.7237 14.6796 19.733H14.6731C13.6335 19.8474 12.6438 19.9163 11.7372 19.93C10.0883 19.9526 8.76418 19.8015 7.81159 19.4812C6.8989 19.1741 6.31703 18.7071 6.09017 18.093C6.05099 17.9876 6.02185 17.8787 6.00313 17.7678C5.92254 17.2871 6.0398 16.8108 6.35572 16.3574C6.79574 15.7256 7.62905 15.1208 8.83389 14.5667C9.96216 14.0429 11.3898 13.5726 13.0754 13.1604C14.1424 12.8993 14.9991 12.7437 15.4162 12.6769C15.8332 12.61 16.7076 12.4709 17.7888 12.3609C18.9795 12.24 20.7203 12.1317 22.2636 12.2832C23.5873 12.4113 24.577 12.7091 25.1999 13.1717C25.6351 13.4969 25.9007 13.8998 25.9784 14.3805C25.9975 14.4956 26.0052 14.6122 26.0014 14.7287C25.9829 15.3835 25.5936 16.0109 24.8469 16.5928C24.0527 17.2093 22.8531 17.7908 21.2816 18.313C20.4112 18.6015 19.4538 18.8626 18.4323 19.0963C18.3977 19.1061 18.3626 19.1138 18.3271 19.1193L17.9745 19.1955C17.8827 19.2136 17.7956 19.2321 17.7086 19.2503L17.6215 19.2688C17.5712 19.2777 17.5256 19.2869 17.4753 19.2962C17.4249 19.3055 17.3697 19.3192 17.3141 19.3284L17.227 19.3466C17.0574 19.3788 16.9019 19.4062 16.7645 19.4336C16.7012 19.4489 16.6323 19.4626 16.567 19.4719ZM14.9822 19.5634H15.0051C15.1333 19.5497 15.2614 19.5315 15.3851 19.513H15.3984C15.4766 19.5037 15.5544 19.49 15.6321 19.4812C15.7099 19.4723 15.7933 19.4582 15.8659 19.4489L15.884 19.4445C16.0536 19.4167 16.2064 19.3941 16.3422 19.3756C16.4888 19.3526 16.6033 19.3353 16.7499 19.3071C16.8874 19.2841 17.0429 19.2519 17.2125 19.22L17.2996 19.2015C17.3499 19.1922 17.4048 19.1834 17.4551 19.1697L17.5974 19.1419L17.6844 19.1237C17.7714 19.1056 17.8585 19.0871 17.9499 19.0689L18.3025 18.9908C18.3392 18.9819 18.3714 18.9771 18.4081 18.9678C19.428 18.7389 20.379 18.4734 21.2449 18.1881C22.8023 17.6707 23.9886 17.0981 24.7671 16.4888C25.4816 15.9315 25.8527 15.3404 25.8712 14.7267C25.875 14.6187 25.8673 14.5107 25.8483 14.4043C25.7749 13.9611 25.5259 13.5843 25.1197 13.2821C24.5153 12.8388 23.5534 12.5447 22.2527 12.421C20.7183 12.2743 18.9868 12.3807 17.8049 12.4987C16.7242 12.6043 15.8582 12.7405 15.4416 12.8102C15.0249 12.8799 14.1682 13.0391 13.1101 13.2958C11.4579 13.6987 9.99521 14.1799 8.89151 14.6928C7.70964 15.2396 6.89608 15.8259 6.46854 16.4396C6.17519 16.8611 6.06559 17.3052 6.13852 17.7497C6.15577 17.8527 6.18275 17.9539 6.21911 18.0519C6.43429 18.6289 6.98473 19.0689 7.85874 19.3619C8.79762 19.6778 10.1032 19.8245 11.7384 19.8015C12.6454 19.7878 13.6303 19.7237 14.6655 19.6049H14.6743C14.722 19.6012 14.7695 19.595 14.8166 19.5863L14.9814 19.5634H14.9822Z" fill="white"/>
<path d="M11.2169 18.1258L11.2032 18.1214H11.1903L11.2032 18.2495C11.2435 18.2451 11.281 18.2451 11.3241 18.2407C11.4313 18.2323 11.539 18.2305 11.6465 18.2354C11.5012 18.2077 11.3577 18.1711 11.2169 18.1258ZM12.4882 18.4663H12.5124H12.4882ZM12.7139 18.3454L12.7292 18.3422L12.7139 18.3454ZM12.7647 18.3378H12.7606V18.3454H12.7699L12.7647 18.3378ZM25.9752 14.384C25.8974 13.9029 25.6318 13.4999 25.1966 13.1751C24.5737 12.7125 23.5848 12.4147 22.2603 12.2862C20.717 12.1351 18.9762 12.2459 17.7875 12.3644C16.7064 12.474 15.836 12.6062 15.4149 12.6803C14.9938 12.7544 14.1395 12.9055 13.0721 13.1655C11.3866 13.5777 9.95727 14.0495 8.83061 14.5718C7.62497 15.1258 6.79246 15.7303 6.35243 16.3625C6.03652 16.8158 5.91765 17.2925 5.99985 17.7728C6.01368 17.856 6.03362 17.938 6.05949 18.0182C6.06835 18.0456 6.07722 18.0718 6.08689 18.0988C6.09333 18.1158 6.09978 18.1323 6.10663 18.1488C6.3484 18.7379 6.92221 19.188 7.80912 19.4866C8.76211 19.809 10.0858 19.9585 11.7347 19.9355H11.7621L11.7802 19.9129C12.018 19.6615 12.2739 19.4012 12.5297 19.1796C12.535 19.1747 12.5402 19.1707 12.5455 19.1663L12.6873 19.0426H12.5007C12.4903 19.0426 12.4794 19.0426 12.4689 19.0426C11.2459 19.0542 10.2603 18.945 9.53901 18.7101H9.53256L9.54102 18.7069C10.1741 18.4522 10.6983 18.3112 11.1815 18.2568H11.1843C11.5377 18.3672 11.972 18.4377 12.4774 18.4671C12.1797 18.4512 11.8835 18.4146 11.5909 18.3575C11.5381 18.3467 11.4861 18.335 11.4353 18.3233L11.3725 18.3051C11.3116 18.2886 11.2516 18.2717 11.196 18.254L11.1823 18.2508H11.1778C11.0911 18.2239 11.0089 18.1934 10.9312 18.1593C10.4602 18.2375 9.94075 18.3958 9.32745 18.6541L9.17796 18.7182L9.16829 18.7222L9.32947 18.7818C10.0483 19.0522 11.0622 19.1896 12.3343 19.1848C12.1187 19.3774 11.9128 19.5926 11.7158 19.7985C10.0943 19.8215 8.8024 19.6704 7.86835 19.3589C7.02497 19.0768 6.4838 18.6577 6.25331 18.1097C6.24444 18.0896 6.23598 18.0694 6.22832 18.0477C6.22067 18.0259 6.2118 18.0029 6.20455 17.98C6.17941 17.9033 6.15988 17.8249 6.14612 17.7454C6.07278 17.3022 6.18239 16.8569 6.47574 16.4354C6.89965 15.8221 7.71281 15.2358 8.89468 14.6906C9.99878 14.1777 11.4599 13.6965 13.1132 13.2936C14.1714 13.0373 15.0281 12.8769 15.4447 12.808C15.8614 12.7391 16.7273 12.6021 17.8085 12.4965C18.9899 12.3757 20.7214 12.2721 22.2559 12.4188C23.5566 12.5425 24.5185 12.8354 25.1233 13.2799C25.5311 13.5821 25.7781 13.9577 25.8514 14.4021C25.8706 14.5084 25.8783 14.6165 25.8744 14.7245C25.8563 15.3382 25.4852 15.9289 24.7707 16.4878C23.9966 17.0923 22.8192 17.6649 21.2759 18.1778C21.0192 18.0452 20.7444 17.9078 20.47 17.7886C21.6655 17.3675 22.577 16.9093 23.1815 16.4238L23.3144 16.3137H23.287L23.1404 16.3057C22.2885 16.2509 21.6518 16.2968 21.1433 16.4431L21.1296 16.4479L21.1159 16.4568C20.7582 16.7009 20.3741 16.9037 19.9707 17.0612L19.9066 17.0842C19.7829 17.1346 19.65 17.1849 19.5174 17.2305L19.4348 17.2583L19.4372 17.2434C19.4424 17.2115 19.4473 17.1793 19.4509 17.1475C19.4749 16.9639 19.4848 16.7788 19.4807 16.5938C19.4807 16.5648 19.4807 16.5354 19.4771 16.506C19.4735 16.4765 19.4739 16.4471 19.4715 16.4173C19.469 16.3875 19.4662 16.3577 19.4638 16.3274C19.4614 16.2972 19.4573 16.2674 19.4529 16.2376C19.4477 16.1973 19.4416 16.157 19.4348 16.1167C19.4279 16.0764 19.4183 16.0361 19.4106 15.9958C19.407 15.9757 19.4025 15.9555 19.3981 15.9362C19.3289 15.6236 19.2147 15.3227 19.0592 15.0428C19.0063 14.9473 18.9486 14.8545 18.8864 14.7648C18.8674 14.7374 18.8481 14.7096 18.8279 14.6842C18.8078 14.6588 18.7941 14.6379 18.7764 14.6153C18.7586 14.5927 18.7385 14.5669 18.7191 14.5432C18.5043 14.2803 18.2514 14.0511 17.9688 13.863C17.7464 13.7133 17.5065 13.5915 17.2544 13.5003C16.7313 13.3113 16.1699 13.2531 15.6192 13.3307C15.5651 13.3363 15.5113 13.3447 15.458 13.3561H15.4439C14.8981 13.465 14.3871 13.7056 13.9554 14.0568C13.7567 14.2153 13.5781 14.3974 13.4235 14.5992L13.4102 14.6157C13.3057 14.7512 13.2114 14.8942 13.1281 15.0436C13.1116 15.0734 13.0959 15.1037 13.0806 15.1339C13.0677 15.1577 13.056 15.1818 13.0443 15.2068C13.0326 15.2318 13.0242 15.2471 13.0153 15.2689C12.9699 15.3691 12.9296 15.4716 12.8944 15.5759C12.8847 15.6041 12.8755 15.6323 12.8662 15.6606C12.8569 15.6888 12.8493 15.7166 12.8412 15.7452C12.8352 15.7665 12.8287 15.7887 12.8231 15.8105C12.8231 15.8149 12.8231 15.8189 12.8203 15.8229C12.8178 15.8301 12.8158 15.8373 12.8142 15.8447C12.809 15.8636 12.8046 15.885 12.8001 15.9031C12.7998 15.9054 12.7998 15.9077 12.8001 15.91V15.916C12.7961 15.9317 12.7933 15.9467 12.79 15.9624C12.7868 15.9781 12.784 15.9902 12.7812 16.0027C12.7751 16.0321 12.7699 16.0619 12.7647 16.0917C12.7534 16.1582 12.7437 16.2243 12.7357 16.2908C12.7332 16.3133 12.7308 16.3363 12.7288 16.3593C12.7264 16.3895 12.724 16.4197 12.722 16.4503C12.7139 16.5863 12.7139 16.7226 12.722 16.8585C12.7248 16.9129 12.7288 16.9677 12.7348 17.0225C12.7348 17.0342 12.7348 17.0463 12.7385 17.058C12.7437 17.0983 12.7494 17.1334 12.755 17.1696C12.755 17.1773 12.755 17.1849 12.7586 17.1922C12.7584 17.1937 12.7584 17.1951 12.7586 17.1966C12.7586 17.2027 12.7606 17.2087 12.7614 17.2148C12.7612 17.2162 12.7612 17.2177 12.7614 17.2192C12.7614 17.2268 12.7639 17.2341 12.7647 17.2413C12.7671 17.2575 12.7699 17.2728 12.7727 17.2889C12.8021 17.4467 12.8425 17.6022 12.8936 17.7543C12.96 17.9594 13.0465 18.1574 13.1519 18.3454H13.1547C13.1725 18.3773 13.1914 18.4087 13.2103 18.4409L13.2305 18.4736H13.2708C13.2518 18.4736 13.2337 18.4736 13.2152 18.4736H13.2079L13.0427 18.4812H13.0504C13.0907 18.4812 13.1273 18.4812 13.1648 18.4788C13.1801 18.4788 13.195 18.4788 13.2103 18.4788H13.2127H13.2704L13.3913 18.474L13.328 18.3745C13.3211 18.3636 13.3143 18.3527 13.3078 18.341C13.1875 18.1424 13.0897 17.9308 13.0165 17.7104C12.9621 17.549 12.9207 17.3836 12.8928 17.2156C12.8839 17.1563 12.8747 17.1011 12.8698 17.0415C12.8662 17.0096 12.863 16.9774 12.8606 16.9456C12.8356 16.6673 12.848 16.3869 12.8976 16.1119C12.9852 15.5948 13.1976 15.1069 13.5166 14.6906C13.5609 14.6342 13.6072 14.579 13.6548 14.5254C13.7721 14.3914 13.9004 14.2674 14.0384 14.1547C14.4535 13.8192 14.9441 13.5897 15.4677 13.4862L15.481 13.4838L15.5503 13.4721L15.6309 13.4584C16.1603 13.3837 16.7001 13.4405 17.2024 13.6236C17.4429 13.7103 17.6721 13.8255 17.885 13.9669C18.5812 14.4278 19.0721 15.1401 19.2551 15.9547C19.2639 16.0099 19.2776 16.0647 19.2869 16.1244C19.3131 16.2758 19.3285 16.4289 19.3328 16.5825C19.3377 16.8225 19.3168 17.0623 19.2704 17.2978C19.2704 17.3078 19.2668 17.3175 19.2647 17.3276L19.2422 17.4465L19.3566 17.4098L19.4038 17.3937C19.4549 17.3763 19.5041 17.3586 19.5533 17.3413C19.6907 17.2953 19.8192 17.245 19.9473 17.1946L20.0114 17.1716C20.4204 17.0101 20.8105 16.8043 21.1747 16.5579C21.6329 16.4298 22.2099 16.3839 22.9429 16.4161L22.9377 16.4201C22.3236 16.8811 21.4185 17.3151 20.2496 17.712L20.0711 17.7716H20.0731L20.2451 17.8397L20.2596 17.8454C20.5928 17.9804 20.9183 18.1339 21.2344 18.3051L21.2618 18.3188H21.2803C22.8518 17.795 24.0514 17.2148 24.8441 16.5966C25.5903 16.0148 25.98 15.3878 25.9981 14.7321C26.0019 14.6156 25.9942 14.499 25.9752 14.384ZM12.7647 18.3378H12.7606V18.3454H12.7699L12.7647 18.3378ZM12.7296 18.3454L12.7135 18.3483L12.7296 18.3454ZM12.7236 18.4816H12.7308L12.8094 18.4841H12.871C12.8175 18.4841 12.7639 18.4808 12.7139 18.4784C12.7002 18.4784 12.6869 18.4784 12.6736 18.4784H12.6587C12.6564 18.478 12.6541 18.478 12.6518 18.4784L12.7236 18.4816ZM11.1899 18.1254L11.2028 18.2536C11.2431 18.2491 11.2806 18.2491 11.3237 18.2447C11.4309 18.2363 11.5386 18.2346 11.6461 18.2395C11.5012 18.2116 11.3581 18.175 11.2177 18.1299L11.204 18.1254H11.1899ZM11.2165 18.1299L11.2028 18.1254H11.1899L11.2028 18.2536C11.2431 18.2491 11.2806 18.2491 11.3237 18.2447C11.4309 18.2363 11.5386 18.2346 11.6461 18.2395C11.5008 18.2104 11.3575 18.1724 11.2169 18.1258L11.2165 18.1299ZM12.7139 18.3454L12.7292 18.3422L12.7139 18.3454ZM12.7647 18.3378H12.7606V18.3454H12.7699L12.7647 18.3378ZM12.7647 18.339H12.7606V18.3454H12.7699L12.7647 18.339ZM12.7139 18.3454L12.7292 18.3422L12.7139 18.3454ZM11.2169 18.1258L11.2032 18.1214H11.1903L11.2032 18.2495C11.2435 18.2451 11.281 18.2451 11.3241 18.2407C11.4313 18.2323 11.539 18.2305 11.6465 18.2354C11.5012 18.2077 11.3577 18.1711 11.2169 18.1258Z" fill="white"/>
<path d="M11.2169 18.1258L11.2032 18.1214H11.1903L11.2032 18.2495C11.2435 18.2451 11.281 18.2451 11.3241 18.2407C11.4313 18.2323 11.539 18.2305 11.6465 18.2354C11.5012 18.2077 11.3577 18.1711 11.2169 18.1258ZM12.4882 18.4663H12.5124H12.4882ZM12.7139 18.3454L12.7292 18.3422L12.7139 18.3454ZM12.7647 18.3378H12.7606V18.3454H12.7699L12.7647 18.3378ZM25.9752 14.384C25.8974 13.9029 25.6318 13.4999 25.1966 13.1751C24.5737 12.7125 23.5848 12.4147 22.2603 12.2862C20.717 12.1351 18.9762 12.2459 17.7875 12.3644C16.7064 12.474 15.836 12.6062 15.4149 12.6803C14.9938 12.7544 14.1395 12.9055 13.0721 13.1655C11.3866 13.5777 9.95727 14.0495 8.83061 14.5718C7.62497 15.1258 6.79246 15.7303 6.35243 16.3625C6.03652 16.8158 5.91765 17.2925 5.99985 17.7728C6.01368 17.856 6.03362 17.938 6.05949 18.0182C6.06835 18.0456 6.07722 18.0718 6.08689 18.0988C6.09333 18.1158 6.09978 18.1323 6.10663 18.1488C6.3484 18.7379 6.92221 19.188 7.80912 19.4866C8.76211 19.809 10.0858 19.9585 11.7347 19.9355H11.7621L11.7802 19.9129C12.018 19.6615 12.2739 19.4012 12.5297 19.1796C12.535 19.1747 12.5402 19.1707 12.5455 19.1663L12.6873 19.0426H12.5007C12.4903 19.0426 12.4794 19.0426 12.4689 19.0426C11.2459 19.0542 10.2603 18.945 9.53901 18.7101H9.53256L9.54102 18.7069C10.1741 18.4522 10.6983 18.3112 11.1815 18.2568H11.1843C11.5377 18.3672 11.972 18.4377 12.4774 18.4671C12.1797 18.4512 11.8835 18.4146 11.5909 18.3575C11.5381 18.3467 11.4861 18.335 11.4353 18.3233L11.3725 18.3051C11.3116 18.2886 11.2516 18.2717 11.196 18.254L11.1823 18.2508H11.1778C11.0911 18.2239 11.0089 18.1934 10.9312 18.1593C10.4602 18.2375 9.94075 18.3958 9.32745 18.6541L9.17796 18.7182L9.16829 18.7222L9.32947 18.7818C10.0483 19.0522 11.0622 19.1896 12.3343 19.1848C12.1187 19.3774 11.9128 19.5926 11.7158 19.7985C10.0943 19.8215 8.8024 19.6704 7.86835 19.3589C7.02497 19.0768 6.4838 18.6577 6.25331 18.1097C6.24444 18.0896 6.23598 18.0694 6.22832 18.0477C6.22067 18.0259 6.2118 18.0029 6.20455 17.98C6.17941 17.9033 6.15988 17.8249 6.14612 17.7454C6.07278 17.3022 6.18239 16.8569 6.47574 16.4354C6.89965 15.8221 7.71281 15.2358 8.89468 14.6906C9.99878 14.1777 11.4599 13.6965 13.1132 13.2936C14.1714 13.0373 15.0281 12.8769 15.4447 12.808C15.8614 12.7391 16.7273 12.6021 17.8085 12.4965C18.9899 12.3757 20.7214 12.2721 22.2559 12.4188C23.5566 12.5425 24.5185 12.8354 25.1233 13.2799C25.5311 13.5821 25.7781 13.9577 25.8514 14.4021C25.8706 14.5084 25.8783 14.6165 25.8744 14.7245C25.8563 15.3382 25.4852 15.9289 24.7707 16.4878C23.9966 17.0923 22.8192 17.6649 21.2759 18.1778C21.0192 18.0452 20.7444 17.9078 20.47 17.7886C21.6655 17.3675 22.577 16.9093 23.1815 16.4238L23.3144 16.3137H23.287L23.1404 16.3057C22.2885 16.2509 21.6518 16.2968 21.1433 16.4431L21.1296 16.4479L21.1159 16.4568C20.7582 16.7009 20.3741 16.9037 19.9707 17.0612L19.9066 17.0842C19.7829 17.1346 19.65 17.1849 19.5174 17.2305L19.4348 17.2583L19.4372 17.2434C19.4424 17.2115 19.4473 17.1793 19.4509 17.1475C19.4749 16.9639 19.4848 16.7788 19.4807 16.5938C19.4807 16.5648 19.4807 16.5354 19.4771 16.506C19.4735 16.4765 19.4739 16.4471 19.4715 16.4173C19.469 16.3875 19.4662 16.3577 19.4638 16.3274C19.4614 16.2972 19.4573 16.2674 19.4529 16.2376C19.4477 16.1973 19.4416 16.157 19.4348 16.1167C19.4279 16.0764 19.4183 16.0361 19.4106 15.9958C19.407 15.9757 19.4025 15.9555 19.3981 15.9362C19.3289 15.6236 19.2147 15.3227 19.0592 15.0428C19.0063 14.9473 18.9486 14.8545 18.8864 14.7648C18.8674 14.7374 18.8481 14.7096 18.8279 14.6842C18.8078 14.6588 18.7941 14.6379 18.7764 14.6153C18.7586 14.5927 18.7385 14.5669 18.7191 14.5432C18.5043 14.2803 18.2514 14.0511 17.9688 13.863C17.7464 13.7133 17.5065 13.5915 17.2544 13.5003C16.7313 13.3113 16.1699 13.2531 15.6192 13.3307C15.5651 13.3363 15.5113 13.3447 15.458 13.3561H15.4439C14.8981 13.465 14.3871 13.7056 13.9554 14.0568C13.7567 14.2153 13.5781 14.3974 13.4235 14.5992L13.4102 14.6157C13.3057 14.7512 13.2114 14.8942 13.1281 15.0436C13.1116 15.0734 13.0959 15.1037 13.0806 15.1339C13.0677 15.1577 13.056 15.1818 13.0443 15.2068C13.0326 15.2318 13.0242 15.2471 13.0153 15.2689C12.9699 15.3691 12.9296 15.4716 12.8944 15.5759C12.8847 15.6041 12.8755 15.6323 12.8662 15.6606C12.8569 15.6888 12.8493 15.7166 12.8412 15.7452C12.8352 15.7665 12.8287 15.7887 12.8231 15.8105C12.8231 15.8149 12.8231 15.8189 12.8203 15.8229C12.8178 15.8301 12.8158 15.8373 12.8142 15.8447C12.809 15.8636 12.8046 15.885 12.8001 15.9031C12.7998 15.9054 12.7998 15.9077 12.8001 15.91V15.916C12.7961 15.9317 12.7933 15.9467 12.79 15.9624C12.7868 15.9781 12.784 15.9902 12.7812 16.0027C12.7751 16.0321 12.7699 16.0619 12.7647 16.0917C12.7534 16.1582 12.7437 16.2243 12.7357 16.2908C12.7332 16.3133 12.7308 16.3363 12.7288 16.3593C12.7264 16.3895 12.724 16.4197 12.722 16.4503C12.7139 16.5863 12.7139 16.7226 12.722 16.8585C12.7248 16.9129 12.7288 16.9677 12.7348 17.0225C12.7348 17.0342 12.7348 17.0463 12.7385 17.058C12.7437 17.0983 12.7494 17.1334 12.755 17.1696C12.755 17.1773 12.755 17.1849 12.7586 17.1922C12.7584 17.1937 12.7584 17.1951 12.7586 17.1966C12.7586 17.2027 12.7606 17.2087 12.7614 17.2148C12.7612 17.2162 12.7612 17.2177 12.7614 17.2192C12.7614 17.2268 12.7639 17.2341 12.7647 17.2413C12.7671 17.2575 12.7699 17.2728 12.7727 17.2889C12.8021 17.4467 12.8425 17.6022 12.8936 17.7543C12.96 17.9594 13.0465 18.1574 13.1519 18.3454H13.1547C13.1725 18.3773 13.1914 18.4087 13.2103 18.4409L13.2305 18.4736H13.2708C13.2518 18.4736 13.2337 18.4736 13.2152 18.4736H13.2079L13.0427 18.4812H13.0504C13.0907 18.4812 13.1273 18.4812 13.1648 18.4788C13.1801 18.4788 13.195 18.4788 13.2103 18.4788H13.2127H13.2704L13.3913 18.474L13.328 18.3745C13.3211 18.3636 13.3143 18.3527 13.3078 18.341C13.1875 18.1424 13.0897 17.9308 13.0165 17.7104C12.9621 17.549 12.9207 17.3836 12.8928 17.2156C12.8839 17.1563 12.8747 17.1011 12.8698 17.0415C12.8662 17.0096 12.863 16.9774 12.8606 16.9456C12.8356 16.6673 12.848 16.3869 12.8976 16.1119C12.9852 15.5948 13.1976 15.1069 13.5166 14.6906C13.5609 14.6342 13.6072 14.579 13.6548 14.5254C13.7721 14.3914 13.9004 14.2674 14.0384 14.1547C14.4535 13.8192 14.9441 13.5897 15.4677 13.4862L15.481 13.4838L15.5503 13.4721L15.6309 13.4584C16.1603 13.3837 16.7001 13.4405 17.2024 13.6236C17.4429 13.7103 17.6721 13.8255 17.885 13.9669C18.5812 14.4278 19.0721 15.1401 19.2551 15.9547C19.2639 16.0099 19.2776 16.0647 19.2869 16.1244C19.3131 16.2758 19.3285 16.4289 19.3328 16.5825C19.3377 16.8225 19.3168 17.0623 19.2704 17.2978C19.2704 17.3078 19.2668 17.3175 19.2647 17.3276L19.2422 17.4465L19.3566 17.4098L19.4038 17.3937C19.4549 17.3763 19.5041 17.3586 19.5533 17.3413C19.6907 17.2953 19.8192 17.245 19.9473 17.1946L20.0114 17.1716C20.4204 17.0101 20.8105 16.8043 21.1747 16.5579C21.6329 16.4298 22.2099 16.3839 22.9429 16.4161L22.9377 16.4201C22.3236 16.8811 21.4185 17.3151 20.2496 17.712L20.0711 17.7716H20.0731L20.2451 17.8397L20.2596 17.8454C20.5928 17.9804 20.9183 18.1339 21.2344 18.3051L21.2618 18.3188H21.2803C22.8518 17.795 24.0514 17.2148 24.8441 16.5966C25.5903 16.0148 25.98 15.3878 25.9981 14.7321C26.0019 14.6156 25.9942 14.499 25.9752 14.384ZM12.7647 18.3378H12.7606V18.3454H12.7699L12.7647 18.3378ZM12.7296 18.3454L12.7135 18.3483L12.7296 18.3454ZM12.7236 18.4816H12.7308L12.8094 18.4841H12.871C12.8175 18.4841 12.7639 18.4808 12.7139 18.4784C12.7002 18.4784 12.6869 18.4784 12.6736 18.4784H12.6587C12.6564 18.478 12.6541 18.478 12.6518 18.4784L12.7236 18.4816ZM11.1899 18.1254L11.2028 18.2536C11.2431 18.2491 11.2806 18.2491 11.3237 18.2447C11.4309 18.2363 11.5386 18.2346 11.6461 18.2395C11.5012 18.2116 11.3581 18.175 11.2177 18.1299L11.204 18.1254H11.1899ZM11.2165 18.1299L11.2028 18.1254H11.1899L11.2028 18.2536C11.2431 18.2491 11.2806 18.2491 11.3237 18.2447C11.4309 18.2363 11.5386 18.2346 11.6461 18.2395C11.5008 18.2104 11.3575 18.1724 11.2169 18.1258L11.2165 18.1299ZM12.7139 18.3454L12.7292 18.3422L12.7139 18.3454ZM12.7139 18.3454L12.7292 18.3422L12.7139 18.3454ZM11.2169 18.1258L11.2032 18.1214H11.1903L11.2032 18.2495C11.2435 18.2451 11.281 18.2451 11.3241 18.2407C11.4313 18.2323 11.539 18.2305 11.6465 18.2354C11.5012 18.2077 11.3577 18.1711 11.2169 18.1258Z" fill="white"/>
<path d="M12.7275 18.343L12.7037 18.3466H12.6989C12.6146 18.3442 12.5316 18.3402 12.451 18.3353C12.3484 18.3292 12.249 18.3211 12.1529 18.3112C11.9917 18.2953 11.841 18.2742 11.7007 18.2479C11.5355 18.2184 11.3723 18.178 11.2124 18.127L11.1983 18.1222H11.1846C11.0967 18.1319 11.0072 18.1453 10.9162 18.1625C10.4528 18.2431 9.94425 18.3974 9.34466 18.646C8.7241 18.4115 8.33324 18.0702 8.18132 17.6334C8.17286 17.6096 8.16521 17.5854 8.15836 17.5605C8.1515 17.5355 8.14707 17.5178 8.14264 17.4968C8.1366 17.4686 8.13176 17.4404 8.12612 17.4138C8.06205 17.0382 8.16279 16.6675 8.4239 16.3145L8.44204 16.2916C8.79623 15.8229 9.43774 15.3736 10.3541 14.9574C10.8494 14.7356 11.3568 14.542 11.874 14.3775C12.4381 14.1934 13.0587 14.0205 13.7159 13.8625C14.0085 13.7928 14.2764 13.7312 14.5182 13.6812C14.5299 13.6784 14.542 13.6764 14.5541 13.674C14.3419 13.7815 14.1422 13.9121 13.9585 14.0632C13.7579 14.2236 13.5777 14.4081 13.4222 14.6124L13.4137 14.6229C13.3696 14.6796 13.328 14.7378 13.2888 14.7974C13.1237 15.0422 12.992 15.308 12.8971 15.5876C12.8874 15.6158 12.8782 15.644 12.8689 15.6722C12.8596 15.7004 12.852 15.7282 12.8439 15.7568C12.8403 15.7693 12.8371 15.7818 12.8338 15.7947C12.8306 15.8076 12.8286 15.8132 12.8258 15.8221C12.823 15.831 12.8258 15.8306 12.823 15.8346C12.8205 15.8417 12.8185 15.849 12.8169 15.8564C12.8117 15.8753 12.8073 15.8967 12.8028 15.9148C12.8025 15.9171 12.8025 15.9194 12.8028 15.9216V15.9277C12.7988 15.9434 12.796 15.9583 12.7927 15.974C12.7895 15.9897 12.7867 16.0018 12.7839 16.0143C12.7839 16.0192 12.7815 16.0236 12.7807 16.0288C12.7754 16.0522 12.7714 16.0752 12.7674 16.0985C12.7553 16.1662 12.746 16.2343 12.7383 16.3024C12.7359 16.325 12.7335 16.348 12.7315 16.3709C12.7291 16.4012 12.7267 16.4314 12.7246 16.462C12.7166 16.598 12.7166 16.7343 12.7246 16.8702C12.7279 16.9246 12.7319 16.979 12.7379 17.0334C12.7379 17.0443 12.7379 17.0548 12.7412 17.0652C12.7464 17.1055 12.7524 17.143 12.7581 17.1805C12.7587 17.1847 12.7595 17.1889 12.7605 17.193C12.7629 17.2119 12.7657 17.23 12.7686 17.2486C12.775 17.2889 12.7823 17.3292 12.7911 17.3695C12.7911 17.3735 12.7911 17.3771 12.7931 17.3816C12.7984 17.4037 12.8032 17.4263 12.8085 17.448C12.829 17.5359 12.852 17.6181 12.8766 17.6971C12.883 17.7184 12.8899 17.7374 12.8967 17.7607L12.9233 17.8361C12.9326 17.8615 12.9418 17.8865 12.9519 17.9118C12.9717 17.9618 12.9922 18.0118 13.014 18.0609C13.0236 18.0823 13.0329 18.1012 13.043 18.1238C13.0531 18.1464 13.0627 18.1641 13.0732 18.185C13.1006 18.2415 13.1304 18.2971 13.1619 18.3511C13.1796 18.3829 13.1985 18.4143 13.2175 18.4466L13.2376 18.4792H13.2779C13.259 18.4792 13.2408 18.4792 13.2223 18.4792H13.215L13.0498 18.4869H13.0575C13.0978 18.4869 13.1345 18.4869 13.1719 18.4844H13.2171H13.2199H13.2775H13.2868L13.4056 18.4796L13.3468 18.3801C13.34 18.3692 13.3331 18.3583 13.3263 18.3466C13.2036 18.1493 13.1033 17.9388 13.0273 17.7192C12.9738 17.5578 12.9334 17.3923 12.9064 17.2244C12.8975 17.1652 12.8882 17.11 12.8838 17.0503C12.8794 17.0157 12.8758 16.981 12.8729 16.946C12.85 16.6703 12.8636 16.3928 12.9132 16.1207C13.0012 15.604 13.2139 15.1165 13.533 14.7007C13.5672 14.6572 13.6023 14.6145 13.6385 14.5726C14.1141 14.0146 14.7654 13.635 15.4853 13.4963V13.4938L15.4631 13.3657V13.3633C15.3974 13.3746 15.3177 13.3891 15.2246 13.406C14.8716 13.4709 14.3336 13.5773 13.6933 13.7284C12.3511 14.0507 11.2152 14.4202 10.3085 14.8325C9.38777 15.2539 8.72854 15.7073 8.35742 16.188L8.33888 16.211C8.0415 16.6051 7.92666 17.0169 7.99999 17.4388C8.00483 17.467 8.01047 17.494 8.01692 17.5194C8.02337 17.5447 8.02981 17.5709 8.03666 17.5971C8.0423 17.6165 8.04835 17.6374 8.05439 17.6552C8.20308 18.1093 8.57823 18.4663 9.16897 18.7194C9.1722 18.7212 9.17557 18.7228 9.17904 18.7242C9.22699 18.7447 9.27696 18.7645 9.32854 18.7838L9.35594 18.7927L9.37891 18.7838C9.43371 18.7609 9.4877 18.7383 9.54009 18.7169L9.54895 18.7137C10.1784 18.4607 10.6994 18.3172 11.1854 18.2624H11.1918C11.2498 18.2805 11.3103 18.2975 11.3727 18.3136C11.3119 18.2971 11.2518 18.2801 11.1962 18.2624L11.1825 18.2592H11.1781C11.0913 18.2323 11.0091 18.2018 10.9315 18.1677C11.0201 18.1528 11.1068 18.1403 11.1918 18.131L11.2047 18.2592C11.245 18.2548 11.2825 18.2548 11.3256 18.2503C11.4328 18.2419 11.5405 18.2402 11.6479 18.2451C11.8359 18.2819 12.0257 18.3088 12.2165 18.3257C12.2971 18.3333 12.3777 18.3394 12.4627 18.3446C12.5477 18.3499 12.6279 18.3531 12.713 18.3559H12.7174L12.7327 18.3527L12.75 18.3503L12.7633 18.3482V18.3555H12.7726H12.823C12.8975 18.3555 12.9717 18.3595 13.0426 18.3595H13.1574C13.1563 18.3581 13.1554 18.3567 13.1546 18.3551H13.0337C12.9636 18.3551 12.8903 18.3519 12.8161 18.3511H12.7855L12.7722 18.3482H12.767H12.7629L12.7275 18.343ZM12.7335 18.4909H12.7355L12.8121 18.4937H12.8737C12.8201 18.4937 12.7666 18.4905 12.7166 18.4881C12.7029 18.4881 12.6896 18.4881 12.6763 18.4881H12.6646L12.7335 18.4909ZM12.7267 18.3458L12.7359 18.349L12.7267 18.3458ZM13.1538 18.3587H13.0329C12.9628 18.3587 12.8895 18.3555 12.8153 18.3547H12.7855L12.7722 18.3519H12.767H12.7629V18.3555H12.7722H12.8226C12.8971 18.3555 12.9713 18.3595 13.0422 18.3595H13.157C13.1561 18.3583 13.1553 18.3569 13.1546 18.3555L13.1538 18.3587Z" fill="white"/>
<path d="M19.2545 17.4598L19.2775 17.3389C19.3281 17.0933 19.351 16.8429 19.346 16.5922C19.3419 16.4394 19.3266 16.2871 19.3001 16.1365C19.2912 16.0769 19.2775 16.0221 19.2682 15.9673C19.0854 15.1525 18.5945 14.44 17.8982 13.9791C17.6853 13.8376 17.4561 13.7223 17.2156 13.6358C16.7132 13.4527 16.1735 13.3961 15.6441 13.471L15.6211 13.338C15.9326 13.2876 16.5829 13.1869 17.4074 13.1091C18.337 13.0172 19.7022 12.935 20.9296 13.0446H20.9389C21.9648 13.1365 22.7437 13.3517 23.2611 13.6861L23.2841 13.6998C23.6919 13.9702 23.9345 14.3135 24.0034 14.7306C24.0136 14.7911 24.0196 14.8522 24.0215 14.9135C24.0396 15.4402 23.756 15.9536 23.1753 16.4299L23.1523 16.448H23.1249C22.3097 16.3976 21.6743 16.4387 21.1783 16.581C20.8139 16.8271 20.4238 17.0329 20.0149 17.1947L19.9508 17.2176C19.8223 17.268 19.6942 17.3184 19.5568 17.3643C19.4927 17.3869 19.4286 17.4098 19.3597 17.4328L19.2545 17.4598ZM16.5737 13.3283C16.8072 13.3615 17.0367 13.4183 17.2587 13.4979C17.5108 13.5891 17.7508 13.7109 17.9731 13.8606C18.4255 14.1621 18.7992 14.5673 19.0631 15.0425C19.2186 15.322 19.3324 15.6227 19.4012 15.935C19.4149 15.9947 19.4238 16.0559 19.4375 16.1135C19.4641 16.2711 19.4795 16.4304 19.4834 16.5902C19.4888 16.8125 19.4734 17.0348 19.4375 17.2543L19.5201 17.2269C19.6531 17.181 19.7856 17.1306 19.9093 17.0802L19.9734 17.0573C20.3767 16.8996 20.7609 16.6968 21.1186 16.4528L21.1323 16.4436L21.146 16.4387C21.6501 16.2924 22.2775 16.2509 23.1157 16.3013C23.6472 15.8581 23.9083 15.3898 23.8897 14.9135C23.8881 14.8567 23.882 14.8002 23.8716 14.7443C23.8075 14.3732 23.592 14.0617 23.2301 13.8143L23.212 13.8006C22.7171 13.4754 21.9523 13.2646 20.9401 13.1683H20.9308C19.7127 13.0587 18.3519 13.1409 17.4223 13.2328C17.1108 13.2642 16.8267 13.2965 16.5737 13.3283Z" fill="white"/>
<path d="M12.7781 18.3396V18.3436L12.7914 18.3408L12.7781 18.3396ZM13.1601 18.344H13.0392C12.9691 18.344 12.8957 18.3408 12.8216 18.34L12.8284 18.3444C12.903 18.3444 12.9771 18.3485 13.048 18.3485H13.1629C13.1618 18.347 13.1608 18.3453 13.1601 18.3436V18.344ZM12.7422 18.3344L12.7128 18.3392H12.7104C12.6261 18.3364 12.5443 18.3328 12.4642 18.3275C12.3719 18.3227 12.2828 18.3158 12.1958 18.307C12.0207 18.2914 11.8465 18.2669 11.674 18.2336C11.52 18.2051 11.3681 18.1669 11.219 18.1192L11.2049 18.1148H11.2009L11.1912 18.1115C10.7137 17.9528 10.3893 17.711 10.2261 17.3902C10.2108 17.36 10.1963 17.3286 10.1838 17.2964C10.1774 17.2802 10.1709 17.2637 10.1649 17.2468C10.1449 17.1899 10.1297 17.1314 10.1194 17.0719C10.0791 16.8519 10.1516 16.6287 10.3349 16.3986C10.4928 16.2096 10.6771 16.0444 10.8821 15.9082C11.156 15.7211 11.4439 15.5554 11.7433 15.4125C12.2436 15.173 12.7584 14.9648 13.2846 14.7892L13.2946 14.7855C13.2382 14.8694 13.1858 14.9555 13.1375 15.0438C13.121 15.0737 13.1053 15.1039 13.0899 15.1341C13.077 15.1579 13.0654 15.1821 13.0537 15.207C13.042 15.232 13.0335 15.2473 13.0247 15.2691C12.9793 15.3694 12.9389 15.4718 12.9038 15.5761C12.8941 15.6043 12.8848 15.6326 12.8756 15.6608C12.8663 15.689 12.8586 15.7168 12.8506 15.7454C12.8445 15.7667 12.8381 15.7889 12.8325 15.8107C12.8325 15.8151 12.8325 15.8191 12.8296 15.8232C12.8271 15.8303 12.8251 15.8375 12.8236 15.8449C12.8183 15.8639 12.8139 15.8852 12.8095 15.9033C12.8091 15.9056 12.8091 15.9079 12.8095 15.9102V15.9162C12.8055 15.932 12.8026 15.9469 12.7994 15.9626C12.7962 15.9783 12.7909 16.0001 12.7873 16.019C12.7837 16.0379 12.7781 16.0653 12.774 16.0887C12.7619 16.1564 12.7527 16.2245 12.745 16.2926C12.7426 16.3152 12.7402 16.3381 12.7382 16.3611C12.7357 16.3913 12.7333 16.4215 12.7313 16.4522C12.7233 16.5881 12.7233 16.7244 12.7313 16.8604C12.7345 16.9148 12.7386 16.9692 12.7446 17.0236C12.7446 17.0344 12.7446 17.0449 12.7478 17.0554C12.7531 17.0957 12.7591 17.1332 12.7648 17.1706C12.7653 17.1748 12.7661 17.179 12.7672 17.1831C12.7696 17.2021 12.7724 17.2202 12.7752 17.2387C12.7817 17.279 12.7889 17.3193 12.7978 17.3596C12.7978 17.3637 12.7978 17.3673 12.7998 17.3717C12.8051 17.3939 12.8099 17.4164 12.8151 17.4382C12.8357 17.526 12.8586 17.6082 12.8832 17.6872C12.8897 17.7086 12.8965 17.7275 12.9034 17.7509L12.93 17.8262C12.9392 17.8516 12.9485 17.8766 12.9586 17.902C12.9783 17.952 12.9989 18.0019 13.0206 18.0511C13.0303 18.0725 13.0396 18.0914 13.0496 18.114C13.0597 18.1365 13.0694 18.1543 13.0799 18.1752C13.1073 18.2316 13.1371 18.2872 13.1685 18.3412C13.1862 18.3731 13.2052 18.4045 13.2241 18.4367L13.2443 18.4694H13.2846C13.2656 18.4694 13.2475 18.4694 13.229 18.4694H13.2217L13.0565 18.477H13.0642C13.1044 18.477 13.1411 18.477 13.1786 18.4746H13.2237H13.2265H13.2842H13.2934L13.4123 18.4698L13.3583 18.3751C13.3498 18.3622 13.3422 18.3493 13.3349 18.3348C13.2161 18.1374 13.1195 17.9276 13.0468 17.709C12.992 17.5479 12.9506 17.3825 12.9231 17.2146C12.9139 17.1549 12.9046 17.1001 12.9002 17.0405C12.8635 16.7308 12.8727 16.4174 12.9276 16.1105C13.0165 15.5935 13.2303 15.106 13.5505 14.6904L13.6517 14.5579L13.6835 14.5176L13.6706 14.5216L13.4727 14.5861L13.4401 14.597H13.4353C13.4316 14.597 13.4276 14.597 13.424 14.6006C13.1016 14.708 12.7989 14.8172 12.5157 14.9282C12.2202 15.0445 11.9484 15.1635 11.7001 15.2852C11.0038 15.6197 10.509 15.9634 10.239 16.3067C10.0327 16.5678 9.95011 16.8334 9.99726 17.09C10.0078 17.1413 10.0212 17.1919 10.0376 17.2416C10.0475 17.2756 10.0592 17.3091 10.0726 17.3419C10.0783 17.3556 10.0839 17.3693 10.0899 17.3822C10.2342 17.7086 10.5155 17.9637 10.9309 18.1446L10.9374 18.1474L10.9478 18.1518C11.0365 18.1369 11.1231 18.1244 11.2081 18.1152L11.221 18.2433C11.2613 18.2389 11.2988 18.2389 11.3419 18.2344C11.4492 18.2261 11.5568 18.2243 11.6643 18.2292C11.8523 18.266 12.0421 18.2929 12.2329 18.3098C12.3134 18.3174 12.394 18.3235 12.4791 18.3287C12.5641 18.334 12.6443 18.3372 12.7293 18.34H12.7337L12.749 18.3368L12.7664 18.3344L12.7797 18.3324L12.7422 18.3344ZM13.1738 18.3444C13.1727 18.3431 13.1717 18.3416 13.1709 18.34H13.05C12.9799 18.34 12.9066 18.3368 12.8325 18.336L12.8393 18.3404C12.9139 18.3404 12.988 18.3444 13.0589 18.3444H13.1738ZM12.7889 18.3384L12.8022 18.3356H12.7889V18.3384ZM12.7486 18.4734H12.7507L12.8272 18.4762H12.8889C12.8353 18.4762 12.7817 18.473 12.7317 18.4706C12.718 18.4706 12.7047 18.4706 12.6914 18.4706H12.6701L12.7486 18.4734ZM13.1601 18.3436H13.0392C12.9691 18.3436 12.8957 18.3404 12.8216 18.3396H12.7688V18.3436H12.7781H12.8284C12.903 18.3436 12.9771 18.3477 13.048 18.3477H13.1629C13.1618 18.3464 13.1609 18.3451 13.1601 18.3436Z" fill="white"/>
<path d="M19.2584 17.4568L19.2814 17.3359C19.3319 17.0904 19.3549 16.8399 19.3499 16.5893C19.3458 16.4364 19.3305 16.2841 19.304 16.1335C19.2951 16.0739 19.2814 16.0191 19.2721 15.9643C19.0893 15.1495 18.5984 14.437 17.9021 13.9761L17.7188 13.8524L17.9388 13.8479C18.5612 13.8374 19.1837 13.8643 19.8028 13.9285C20.5725 14.02 21.1495 14.1755 21.5255 14.4048C21.8184 14.5789 21.9881 14.7985 22.0292 15.0552C22.0426 15.143 22.0472 15.232 22.0429 15.3207C22.0199 15.764 21.7358 16.1819 21.1999 16.5623L21.1862 16.5711C20.884 16.7867 20.4903 16.9882 20.0273 17.1804L19.9632 17.2034C19.8351 17.2537 19.7069 17.3041 19.5695 17.35C19.5055 17.373 19.441 17.396 19.3725 17.4185L19.2584 17.4568ZM18.1491 13.9805C18.5249 14.2655 18.8369 14.6259 19.065 15.0387C19.2212 15.3183 19.3358 15.6193 19.4051 15.932C19.4188 15.9917 19.4277 16.0529 19.4414 16.1105C19.468 16.2681 19.4834 16.4274 19.4873 16.5872C19.4927 16.8095 19.4773 17.0319 19.4414 17.2513L19.524 17.2239C19.657 17.178 19.7895 17.1276 19.9132 17.0772L19.9773 17.0543C20.3806 16.8966 20.7648 16.6939 21.1225 16.4498L21.1362 16.4406C21.6266 16.088 21.8877 15.7076 21.9059 15.3123C21.9104 15.2341 21.9058 15.1557 21.8922 15.0786C21.8563 14.8646 21.7088 14.6829 21.4533 14.5253C21.0959 14.3101 20.537 14.159 19.7859 14.0676C19.2424 14.008 18.6959 13.9789 18.1491 13.9805Z" fill="white"/>
<path d="M13.1539 18.3499H13.033C12.9629 18.3499 12.8895 18.3466 12.8154 18.3458L12.8222 18.3503C12.8968 18.3503 12.9709 18.3543 13.0418 18.3543H13.1567C13.1556 18.3529 13.1547 18.3514 13.1539 18.3499ZM13.3985 18.4768L13.3445 18.3821C13.336 18.3692 13.3283 18.3563 13.3211 18.3418C13.2023 18.1445 13.1056 17.9346 13.033 17.716C12.9782 17.5549 12.9368 17.3895 12.9093 17.2216C12.9 17.1619 12.8907 17.1071 12.8863 17.0475L12.8726 16.9375L12.8601 16.946L12.7823 16.9963L12.7336 17.0286H12.7308C12.6133 17.1073 12.5035 17.1969 12.4028 17.2961C12.2323 17.4666 12.1493 17.637 12.1545 17.7994C12.1545 17.8075 12.1545 17.8151 12.1545 17.8228C12.1554 17.8616 12.1616 17.9001 12.1731 17.9372C12.1763 17.9497 12.1803 17.9622 12.1843 17.9743C12.2134 18.0572 12.2584 18.1336 12.3169 18.1992C12.3574 18.2452 12.4025 18.2869 12.4515 18.3237C12.4535 18.3254 12.4557 18.3269 12.458 18.3281C12.458 18.3281 12.4616 18.3309 12.4632 18.3329C12.5438 18.3378 12.6272 18.3415 12.7134 18.3442H12.7171L12.7078 18.3398L12.6993 18.3354L12.6905 18.3309L12.6723 18.3172H12.6675C12.6538 18.31 12.6405 18.3019 12.6272 18.2938C12.5309 18.24 12.4464 18.1672 12.379 18.0799C12.3413 18.0289 12.3139 17.971 12.2984 17.9094C12.2964 17.8977 12.294 17.8844 12.2923 17.8691C12.2907 17.8538 12.2871 17.8337 12.2843 17.8159C12.2706 17.6878 12.3439 17.5456 12.4906 17.3945C12.5714 17.3129 12.6591 17.2386 12.7529 17.1724C12.7537 17.1805 12.7544 17.1885 12.7549 17.1966C12.7547 17.1981 12.7547 17.1996 12.7549 17.201C12.7549 17.2071 12.7569 17.2131 12.7578 17.2192C12.7575 17.2206 12.7575 17.2221 12.7578 17.2236C12.7578 17.2296 12.7602 17.2357 12.761 17.2413C12.7674 17.2816 12.7747 17.3219 12.7835 17.3622C12.7835 17.3662 12.7835 17.3699 12.7856 17.3743C12.7908 17.3965 12.7956 17.419 12.8009 17.4408C12.8214 17.5286 12.8444 17.6108 12.869 17.6898C12.8754 17.7112 12.8823 17.7301 12.8891 17.7535L12.9157 17.8288C12.925 17.8542 12.9342 17.8792 12.9443 17.9046C12.9641 17.9546 12.9846 18.0045 13.0064 18.0537C13.016 18.075 13.0253 18.094 13.0354 18.1165C13.0455 18.1391 13.0551 18.1568 13.0656 18.1778C13.093 18.2342 13.1228 18.2898 13.1543 18.3438C13.172 18.3756 13.1909 18.4071 13.2099 18.4393L13.23 18.472H13.2703C13.2514 18.472 13.2332 18.472 13.2147 18.472H13.2075L13.0422 18.4796H13.0499C13.0902 18.4796 13.1269 18.4796 13.1643 18.4772H13.2095H13.2123H13.2699H13.2792L13.3981 18.4724L13.3985 18.4768ZM13.1567 18.3559C13.1556 18.3545 13.1547 18.353 13.1539 18.3515H13.033C12.9629 18.3515 12.8895 18.3482 12.8154 18.3474L12.8222 18.3519C12.8968 18.3519 12.9709 18.3559 13.0418 18.3559H13.1567ZM13.1539 18.3515H13.033C12.9629 18.3515 12.8895 18.3482 12.8154 18.3474H12.7848L12.7715 18.3503H12.8218C12.8964 18.3503 12.9705 18.3543 13.0414 18.3543H13.1563C13.1553 18.3529 13.1545 18.3514 13.1539 18.3499V18.3515Z" fill="white"/>
<path d="M19.2515 17.458L19.2744 17.3371C19.325 17.0916 19.3479 16.8411 19.3429 16.5905C19.3388 16.4376 19.3235 16.2853 19.297 16.1347C19.2881 16.0751 19.2744 16.0203 19.2652 15.9655L19.2422 15.8555L19.3522 15.8829C19.5001 15.9176 19.6442 15.9667 19.7826 16.0295C20.03 16.144 20.1766 16.2907 20.2177 16.4599C20.2226 16.4829 20.227 16.5058 20.2314 16.5332C20.2637 16.7577 20.1811 16.9765 19.9796 17.1884L19.9703 17.1973L19.9566 17.2021C19.8285 17.2525 19.7003 17.3029 19.5629 17.3488C19.4989 17.3714 19.4344 17.3944 19.3659 17.4173L19.2515 17.458ZM19.4207 16.0428L19.4344 16.1113C19.4611 16.2689 19.4764 16.4283 19.4803 16.588C19.4857 16.8103 19.4703 17.0327 19.4344 17.2521L19.517 17.2247C19.6451 17.1788 19.7689 17.1328 19.8926 17.0825C20.0537 16.904 20.1218 16.7254 20.0989 16.5514C20.094 16.5328 20.094 16.5147 20.0896 16.4917C20.0574 16.3636 19.9341 16.25 19.7269 16.1528C19.6279 16.1083 19.5255 16.0715 19.4207 16.0428Z" fill="white"/>
<path d="M22.1081 18.7421C21.9018 18.6551 21.6544 18.5269 21.3933 18.394L21.2422 18.3162L21.3063 18.1953L21.4574 18.2735C21.7185 18.4061 21.9615 18.5346 22.1629 18.6168L22.1081 18.7421Z" fill="white"/>
<path d="M20.0343 17.1646L19.9473 17.0594C20.2858 16.7831 20.6745 16.5747 21.0921 16.4457C21.1057 16.4417 21.1192 16.437 21.1324 16.4316L21.1642 16.5646C21.1553 16.569 21.1412 16.569 21.1324 16.5739C20.7321 16.6991 20.3594 16.8996 20.0343 17.1646Z" fill="white"/>
<path d="M26.1783 16.748C25.7754 16.725 25.3172 16.6702 24.8083 16.6013L24.768 16.5969C24.2321 16.5328 23.6776 16.4639 23.1328 16.4272L23.1401 16.291C23.6901 16.3233 24.2442 16.3918 24.7845 16.4607L24.8248 16.4651C25.3329 16.5292 25.7867 16.586 26.1896 16.6069L26.1783 16.748Z" fill="white"/>
<path d="M19.5885 17.3327L19.4785 17.2522C19.7122 16.9499 19.9137 16.7118 20.1059 16.501C20.6922 15.8644 21.2697 15.4707 21.9245 15.2599L21.9382 15.2551C22.4971 15.0766 23.1523 14.9392 23.94 14.8429C24.6041 14.7623 25.2819 14.7103 25.9322 14.6644L26.0012 14.6599C26.6652 14.612 27.2874 14.5661 27.8838 14.4883L27.9019 14.6257C27.3019 14.7035 26.6745 14.7494 26.0104 14.7953L25.9415 14.7998C25.2911 14.8457 24.6178 14.8961 23.9537 14.9783C23.1748 15.0746 22.5245 15.2076 21.9748 15.3861L21.9611 15.3905C21.3337 15.592 20.7748 15.9768 20.2022 16.5953C20.0189 16.7968 19.8222 17.035 19.5885 17.3327Z" fill="white"/>
<path d="M19.4731 16.6305L19.3574 16.5572C19.4811 16.365 19.5911 16.1998 19.6963 16.0535C20.2459 15.2879 20.7911 14.7709 21.423 14.4228L21.4322 14.4183C21.4405 14.4147 21.4483 14.41 21.4552 14.4042C21.9363 14.1387 22.5178 13.905 23.2234 13.6789H23.2278C23.8278 13.4911 24.4278 13.34 25.1471 13.1615L25.1874 13.1522C25.7785 13.006 26.337 12.8702 26.8685 12.709L26.9088 12.8371C26.3777 12.9983 25.8144 13.1393 25.2232 13.286L25.1829 13.2953C24.4657 13.4766 23.8657 13.6257 23.2661 13.8135H23.2617C22.5653 14.0335 21.9927 14.2668 21.5165 14.5279C21.5072 14.5328 21.5028 14.5372 21.4979 14.5372L21.4891 14.5416C20.8798 14.8809 20.3439 15.3846 19.8079 16.1357C19.7068 16.278 19.5968 16.4428 19.4731 16.6305Z" fill="white"/>
<path d="M19.0622 15.1035L18.9434 15.0346C19.1458 14.67 19.3902 14.3303 19.6715 14.0224C19.6945 13.9994 19.7174 13.972 19.7404 13.9491C20.0382 13.6424 20.4182 13.3446 20.8945 13.042L20.9082 13.0332C21.3252 12.7672 21.7741 12.5291 22.2319 12.2865L22.3008 12.2498C22.6719 12.0528 23.0261 11.8694 23.3485 11.6816L23.4174 11.8025C23.0874 11.9947 22.7348 12.1781 22.3636 12.3751L22.2951 12.4118C21.8321 12.6536 21.3837 12.8925 20.9654 13.1585L20.9517 13.1673C20.4871 13.4591 20.12 13.7476 19.8319 14.0454L19.7634 14.1139C19.4975 14.4197 19.2626 14.7513 19.0622 15.1035Z" fill="white"/>
<path d="M17.2981 13.5872L17.1699 13.5368C17.2203 13.4131 17.2799 13.2894 17.3529 13.1339C17.4766 12.882 17.614 12.6298 17.7425 12.3965L17.7881 12.3183C17.9029 12.108 18.0262 11.8924 18.1318 11.6816L18.2551 11.7421C18.1495 11.9528 18.0258 12.1728 17.9114 12.3836L17.8658 12.4614C17.7373 12.6951 17.5999 12.9421 17.4762 13.1943C17.4028 13.3446 17.3436 13.4683 17.2981 13.5872Z" fill="white"/>
<path d="M13.9523 14.1538C13.8608 14.0482 13.7601 13.9474 13.6501 13.8374C13.4623 13.6497 13.2652 13.4748 13.0456 13.2789L12.9852 13.2282C12.7926 13.0545 12.6092 12.8941 12.4355 12.7245L12.5327 12.627C12.7023 12.7922 12.8852 12.957 13.0779 13.1262L13.1375 13.1766C13.3571 13.3736 13.5542 13.5525 13.7468 13.7407C13.8564 13.8503 13.9571 13.9559 14.0534 14.0631L13.9523 14.1538Z" fill="white"/>
<path d="M21.1759 16.5652C20.8116 16.8115 20.4215 17.0173 20.0125 17.1789L19.9485 17.2018C19.8203 17.2522 19.6918 17.3026 19.5544 17.3485C19.5052 17.3658 19.4561 17.3836 19.4049 17.4009L19.3577 17.417L19.2433 17.4537L19.2659 17.3348C19.2679 17.3247 19.2703 17.3151 19.2715 17.305C19.1305 17.3517 18.9774 17.3985 18.8125 17.4492C18.5196 17.5363 18.2033 17.6185 17.8551 17.7011C17.507 17.7837 17.1451 17.8623 16.7696 17.93C16.6003 17.9622 16.4492 17.9891 16.3162 18.0106C16.1881 18.0287 16.0322 18.0565 15.8581 18.0839C15.4644 18.148 15.1114 18.1983 14.7774 18.235C14.4199 18.2753 14.081 18.3083 13.7603 18.3265C13.614 18.3349 13.4641 18.3394 13.3203 18.343H13.305C13.3114 18.3547 13.3183 18.3656 13.3251 18.3764L13.3884 18.476H13.3976C13.4831 18.4736 13.5681 18.4699 13.6519 18.4659L13.7792 18.459C14.1016 18.4405 14.4433 18.4087 14.7999 18.3676C15.1344 18.3309 15.487 18.2805 15.8855 18.2161C15.9592 18.2068 16.0297 18.1959 16.0966 18.185L16.2123 18.1657L16.2526 18.1584C16.284 18.1536 16.3142 18.148 16.3424 18.1431C16.4754 18.1202 16.6309 18.0928 16.8006 18.0605C17.1806 17.9916 17.5473 17.9138 17.8954 17.8316C18.0506 17.7954 18.1988 17.7583 18.3415 17.72H18.3491C18.5277 17.6729 18.6973 17.6245 18.8617 17.5766C19.0402 17.5262 19.2054 17.4714 19.361 17.421C19.3747 17.4162 19.3884 17.4118 19.4013 17.4065C19.4549 17.3888 19.5064 17.3707 19.5576 17.3521C19.695 17.3062 19.8232 17.2558 19.9513 17.2055L20.0158 17.1825C20.4828 16.9903 20.8721 16.7844 21.1791 16.5688C21.6348 16.441 22.2087 16.3951 22.9372 16.4265L22.9424 16.4225C22.2131 16.3911 21.634 16.437 21.1759 16.5652ZM12.7352 18.3418L12.7058 18.3466H12.7033C12.6191 18.3438 12.5373 18.3402 12.4571 18.3349C12.3649 18.3301 12.2758 18.3233 12.1888 18.3144C12.0137 18.2988 11.8395 18.2743 11.6669 18.241C11.513 18.2125 11.3611 18.1743 11.212 18.1266L11.1979 18.1222H11.1842C11.0988 18.1318 11.0117 18.1435 10.9227 18.1588C10.452 18.2374 9.93343 18.395 9.32053 18.6533L9.17023 18.7173L9.16016 18.7222L9.17063 18.7262L9.31852 18.7822C10.0745 19.0643 11.1459 19.2033 12.5063 19.1852H12.5321C12.9278 19.1799 13.3545 19.1622 13.7937 19.1304L13.8715 19.1259C13.8989 19.1215 13.9311 19.1215 13.963 19.1167L13.9996 19.1122C14.183 19.0985 14.3623 19.0848 14.5356 19.0663C14.6412 19.0574 14.7419 19.0437 14.8378 19.0345L15.0348 19.0115C15.1219 19.0022 15.2089 18.9885 15.2915 18.9793L15.3145 18.9748C15.5893 18.9426 15.8549 18.9059 16.1111 18.8648C16.2485 18.8467 16.3634 18.8282 16.4593 18.81C16.5552 18.7919 16.6749 18.7734 16.7893 18.746C17.0593 18.6956 17.3252 18.6404 17.5908 18.5807C17.6823 18.5626 17.7741 18.5441 17.87 18.5215L18.0578 18.4756C18.1449 18.4526 18.2319 18.4353 18.3238 18.4115C18.4886 18.3748 18.6582 18.3289 18.8319 18.2834L18.9375 18.2556C18.9778 18.2467 19.0152 18.233 19.0563 18.2237L19.0704 18.2189C19.4851 18.1016 19.8868 17.9799 20.262 17.8538L20.2793 17.8482H20.2841C21.5684 17.4126 22.5355 16.9314 23.1641 16.4169L23.2878 16.3149L23.2966 16.3069L23.1226 16.298C22.2707 16.2428 21.634 16.2887 21.1255 16.4354L21.1118 16.4398L21.0981 16.4491C20.7404 16.6932 20.3563 16.896 19.9529 17.0535L19.8888 17.0765C19.7651 17.1269 19.6326 17.1772 19.4996 17.2232L19.4379 17.2449C19.4379 17.2449 19.4379 17.2449 19.4359 17.2449L19.3074 17.2905L19.2715 17.3034C19.1305 17.3501 18.9774 17.3969 18.8125 17.4476C18.5196 17.5347 18.2033 17.6169 17.8551 17.6995C17.507 17.7821 17.1451 17.8607 16.7696 17.9284C16.6003 17.9606 16.4492 17.9875 16.3162 18.0089C16.1881 18.0271 16.0322 18.0549 15.8581 18.0823C15.4644 18.1464 15.1114 18.1967 14.7774 18.2334C14.4199 18.2737 14.081 18.3067 13.7603 18.3249C13.614 18.3333 13.4641 18.3378 13.3203 18.3414H13.305H13.2647C13.2272 18.3414 13.1909 18.3446 13.1542 18.3454H13.0313C12.9612 18.3454 12.8879 18.3422 12.8138 18.3414H12.761V18.3511H12.7702H12.8206C12.8951 18.3511 12.9693 18.3551 13.0402 18.3551H13.1551C13.154 18.3537 13.153 18.3522 13.1522 18.3507H13.1551C13.1728 18.3825 13.1917 18.4139 13.2107 18.4462L13.2308 18.4788H13.2711C13.3114 18.4788 13.3493 18.4788 13.3888 18.4788H13.398C13.4835 18.4764 13.5685 18.4727 13.6523 18.4687L13.7796 18.4619C14.102 18.4433 14.4437 18.4115 14.8003 18.3704C15.1348 18.3337 15.4874 18.2834 15.8859 18.2189C15.9596 18.2096 16.0301 18.1987 16.097 18.1879L16.2127 18.1685L16.253 18.1613C16.2844 18.1564 16.3146 18.1508 16.3428 18.146C16.4758 18.123 16.6314 18.0956 16.801 18.0633C17.181 17.9944 17.5477 17.9167 17.8958 17.8345C18.051 17.7982 18.1993 17.7611 18.3419 17.7228H18.3496C18.5281 17.6757 18.6977 17.6273 18.8621 17.5794C19.0406 17.529 19.2058 17.4742 19.3614 17.4239C19.3751 17.419 19.3888 17.4146 19.4017 17.4093C19.4553 17.3916 19.5068 17.3735 19.558 17.3549C19.6954 17.309 19.8236 17.2586 19.9517 17.2083L20.0162 17.1853C20.4832 16.9931 20.8725 16.7872 21.1795 16.5716C21.6353 16.4439 22.2091 16.3979 22.9376 16.4294H22.9477C22.3336 16.892 21.4314 17.3223 20.2588 17.7208H20.2543L20.073 17.7813C19.7466 17.8881 19.4045 17.9908 19.0495 18.0875L19.0358 18.092C18.9955 18.1012 18.958 18.1149 18.9149 18.1242L18.7868 18.156C18.622 18.202 18.4571 18.2431 18.3012 18.2797C18.2097 18.3027 18.1227 18.32 18.0356 18.3438L17.8479 18.3897C17.7516 18.4079 17.6601 18.43 17.5686 18.4494C17.3027 18.5042 17.0371 18.5594 16.7716 18.6106C16.643 18.6331 16.5298 18.6509 16.4279 18.6698C16.3259 18.6887 16.2171 18.7065 16.0845 18.725C15.8323 18.7617 15.5607 18.8028 15.2919 18.835L15.269 18.8394C15.1884 18.8531 15.0997 18.8624 15.0127 18.8717L14.8156 18.8942C14.7193 18.9079 14.6186 18.9172 14.5178 18.9265C14.3438 18.9402 14.1653 18.9587 13.9864 18.9724L13.9545 18.9768C13.9223 18.9813 13.8949 18.9813 13.863 18.9861L13.7849 18.9905C13.3876 19.0192 13.0039 19.0365 12.6417 19.0433L12.5023 19.0458H12.4704C11.2499 19.0574 10.2659 18.9486 9.54498 18.7145L9.53813 18.7125H9.5345C10.1667 18.4578 10.6861 18.3156 11.1786 18.2604H11.1741C11.0874 18.2335 11.0052 18.203 10.9275 18.1689C11.0162 18.154 11.1028 18.1415 11.1878 18.1323L11.2007 18.2604C11.241 18.256 11.2785 18.256 11.3216 18.2515C11.4289 18.2431 11.5365 18.2414 11.644 18.2463C11.832 18.2831 12.0217 18.31 12.2125 18.3269C12.2931 18.3345 12.3737 18.3406 12.4587 18.3458C12.5438 18.3511 12.624 18.3543 12.709 18.3571H12.7134L12.7287 18.3539L12.7461 18.3515L12.7594 18.3494" fill="white"/>
<path d="M12.7851 16.1583C12.4794 15.8928 12.1444 15.663 11.7866 15.4733L11.6766 15.4185C11.2918 15.2307 10.8429 15.084 10.3065 14.9603C9.83951 14.8503 9.34911 14.777 8.84985 14.6992L8.76926 14.6855C8.3522 14.6214 7.95851 14.5618 7.57812 14.4884L7.60593 14.3555C7.98592 14.4288 8.38001 14.4884 8.79223 14.5525L8.87282 14.5662C9.37692 14.6444 9.86691 14.7173 10.3388 14.8273C10.8205 14.9302 11.2892 15.087 11.7358 15.2948L11.8458 15.3496C12.2146 15.5433 12.5592 15.7802 12.8722 16.0551L12.7851 16.1583Z" fill="white"/>
<path d="M12.9144 17.7911C12.731 17.6489 12.5618 17.5207 12.397 17.4063C11.6503 16.8824 10.9866 16.5726 10.3036 16.4352L10.2577 16.4259C9.73385 16.3251 9.1262 16.2885 8.38879 16.3163H8.38436C7.72028 16.3388 7.02841 16.4077 6.41914 16.4674H6.40544C5.77361 16.5315 5.17804 16.5911 4.62398 16.6137L4.61914 16.4763C5.16877 16.4537 5.76434 16.3957 6.39214 16.33H6.40584C7.01511 16.2703 7.70699 16.2014 8.37549 16.1789H8.38033C9.1266 16.1511 9.75037 16.1877 10.2811 16.2933L10.327 16.3022C11.0277 16.4444 11.7103 16.7603 12.4703 17.2963C12.6355 17.4172 12.8096 17.538 12.9942 17.6855L12.9144 17.7911Z" fill="white"/>
<path d="M13.0815 18.3592H13.0412C12.9703 18.3592 12.8961 18.3559 12.8216 18.3551L12.8147 18.3507C12.6572 18.2512 12.5137 18.1661 12.3775 18.09C12.3167 18.0561 12.2566 18.0235 12.199 17.9929C12.1934 17.99 12.1885 17.9872 12.1829 17.9848C11.4757 17.6101 10.8503 17.4243 10.2169 17.4005C10.1879 17.4005 10.158 17.3985 10.1286 17.3981H10.071C9.53064 17.3981 8.9117 17.4763 8.17711 17.6314L8.1082 17.6455L8.0526 17.6576C7.43325 17.7902 6.80907 17.9634 6.24937 18.119L6.17402 18.1395L6.10672 18.1573C5.45595 18.3406 4.84225 18.5103 4.26965 18.6291L4.24023 18.4966C4.80437 18.3781 5.41606 18.2101 6.05877 18.0275L6.06804 18.0251L6.13654 18.0066L6.19981 17.9892C6.76153 17.8333 7.39215 17.6604 8.01311 17.521L8.07395 17.5073L8.13641 17.494C8.86455 17.3381 9.48107 17.2595 10.0178 17.2559C10.048 17.2559 10.0783 17.2559 10.1077 17.2559H10.1169H10.1532C10.8044 17.27 11.4427 17.4457 12.1498 17.8087L12.2562 17.8643L12.2868 17.8808C12.519 18.005 12.7736 18.1589 13.0734 18.3543L13.0815 18.3592Z" fill="white"/>
<path d="M12.7441 18.3472L12.7268 18.3496L12.7115 18.3529H12.707C12.6222 18.3502 12.5387 18.3464 12.4568 18.3416C12.3726 18.3364 12.2904 18.3303 12.2106 18.3226L12.1832 18.3162C12.1711 18.313 12.159 18.3106 12.1469 18.3081C11.9981 18.2751 11.847 18.254 11.6948 18.2449L11.663 18.2429H11.6436C11.5362 18.238 11.4285 18.2397 11.3213 18.2481C11.281 18.2525 11.2435 18.2525 11.2004 18.257L11.1875 18.1288V18.1196C11.2285 18.1144 11.2698 18.1114 11.3112 18.1107C11.6478 18.0875 11.9859 18.1205 12.3117 18.2082C12.4136 18.2351 12.517 18.2665 12.622 18.3025L12.6623 18.3166H12.6716L12.6853 18.3259L12.7228 18.3404L12.732 18.3436C12.7359 18.3452 12.74 18.3463 12.7441 18.3468V18.3472Z" fill="white"/>
<path d="M6.61523 20.0738L6.56445 19.9501C6.95854 19.7849 7.37036 19.5834 7.80596 19.3682L7.83819 19.3545C8.32174 19.1164 8.82261 18.871 9.32671 18.6582L9.37708 18.7819C8.87782 18.9927 8.37856 19.2352 7.89743 19.4738L7.8656 19.4919C7.42597 19.7071 7.01335 19.9086 6.61523 20.0738Z" fill="white"/>
<path d="M16.5762 19.4683C16.5121 19.4775 16.4432 19.4912 16.3703 19.5001C16.2325 19.5231 16.0769 19.546 15.9073 19.5734L15.867 19.5783L15.6563 19.6057C15.5829 19.6149 15.5051 19.6286 15.4229 19.6375H15.4076C15.2843 19.656 15.1513 19.6697 15.0184 19.6883H15.0047L14.8354 19.7064C13.8095 19.8286 12.7781 19.8989 11.7452 19.9171L11.584 19.9216L11.694 19.8007C11.9392 19.5359 12.1976 19.2836 12.4681 19.0447L12.4862 19.0266H12.5092C12.9625 19.0218 13.4529 18.9988 13.9598 18.9577L13.9965 18.9533C14.1798 18.9396 14.3591 18.921 14.528 18.9073C14.6331 18.8981 14.7387 18.8844 14.8395 18.8755L15.0228 18.8525C15.1098 18.8433 15.192 18.834 15.2698 18.8203L15.2976 18.8159C15.5724 18.7836 15.838 18.7425 16.0898 18.7059C16.2228 18.6873 16.3374 18.6691 16.4336 18.6511C16.5343 18.6325 16.6487 18.6144 16.7769 18.5914C17.0424 18.5411 17.3084 18.4858 17.5739 18.4302C17.6654 18.4117 17.7573 18.3899 17.8532 18.3706L18.0595 18.3202C18.1421 18.3021 18.2243 18.2836 18.3069 18.2606C18.4624 18.2241 18.6227 18.1828 18.7876 18.1369L18.9162 18.1051C19.3832 17.9769 19.8321 17.8439 20.2487 17.7021L20.2765 17.6973L20.2947 17.7021C20.6336 17.8347 20.9773 18.0087 21.298 18.1736L21.4443 18.2469L21.2908 18.3001C20.3004 18.6237 19.2945 18.8974 18.2767 19.1201L18.0019 19.1797C17.9011 19.2027 17.8048 19.22 17.7133 19.2394L17.6263 19.2575L17.4796 19.2849C17.4293 19.2942 17.3745 19.3079 17.3241 19.3171L17.237 19.3353C17.0674 19.3675 16.9119 19.3949 16.7745 19.4223C16.7101 19.4442 16.6436 19.4596 16.5762 19.4683ZM14.9914 19.5597H15.0095C15.1381 19.546 15.2662 19.5279 15.3899 19.5094H15.4036C15.4814 19.5001 15.5595 19.4864 15.6325 19.4775C15.7054 19.4687 15.7792 19.459 15.8432 19.4497L15.8799 19.4453C16.0495 19.4179 16.2023 19.3949 16.3381 19.3768C16.406 19.362 16.4748 19.3513 16.544 19.3445C16.6084 19.3353 16.6769 19.3216 16.7454 19.3079C16.8828 19.2849 17.0384 19.2531 17.208 19.2208L17.2951 19.2027C17.3454 19.1934 17.3958 19.1842 17.4506 19.1705C17.4965 19.1612 17.5469 19.1523 17.5929 19.1431L17.6799 19.1245C17.7714 19.1064 17.8677 19.0842 17.9684 19.0653L18.2384 19.0057C19.2599 18.7764 20.2173 18.5221 21.0829 18.24C20.8173 18.1026 20.5381 17.9701 20.2632 17.8601C19.851 17.9975 19.4066 18.1349 18.944 18.2586L18.8384 18.286C18.6643 18.3319 18.4951 18.3779 18.3303 18.4141C18.2477 18.4327 18.1651 18.4544 18.0828 18.4738L17.8721 18.5241C17.7758 18.5471 17.6843 18.5644 17.5929 18.5838C17.3269 18.6434 17.0569 18.6982 16.791 18.7486C16.6628 18.7715 16.5492 18.7945 16.4477 18.8082C16.3461 18.8219 16.2369 18.8449 16.0995 18.863C15.8427 18.9044 15.577 18.9411 15.3025 18.973L15.2751 18.9779C15.1924 18.9867 15.1102 18.996 15.0232 19.0097L14.8399 19.0327C14.7391 19.0419 14.6336 19.0556 14.5239 19.0649C14.3499 19.083 14.171 19.0967 13.988 19.1104L13.9513 19.1153C13.4473 19.1519 12.9665 19.1745 12.5176 19.1838C12.3021 19.3715 12.0869 19.5867 11.8854 19.7975C12.7876 19.7793 13.768 19.706 14.7988 19.5867L14.991 19.5593L14.9914 19.5597Z" fill="white"/>
<path d="M11.113 20.5993L11.0215 20.4981C11.1863 20.3518 11.3785 20.1455 11.58 19.9303L11.6948 19.8066L11.7956 19.9029L11.6811 20.0238C11.4748 20.2418 11.2826 20.4477 11.113 20.5993Z" fill="white"/>
<path d="M19.4003 17.2809L19.3398 17.4043L20.2404 17.8457L20.3009 17.7223L19.4003 17.2809Z" fill="white"/>
<path d="M13.2202 18.4805L13.2154 18.4849C13.1702 18.5288 12.8632 18.8282 12.6512 19.0402C12.6492 19.0427 12.6469 19.0449 12.6444 19.047L12.571 19.1208L12.4707 19.0515L12.48 19.0426L12.4892 19.0333C12.4892 19.0333 12.9393 18.5498 13.0477 18.4881L13.2129 18.4805H13.2202Z" fill="white"/>
<path d="M13.2719 18.4744C13.253 18.4744 13.2349 18.4744 13.2163 18.4744H13.2091L13.0439 18.4821H12.8738C12.8202 18.4821 12.7666 18.4789 12.7167 18.4764C12.703 18.4764 12.6897 18.4764 12.6764 18.4764H12.6615C12.6592 18.4761 12.6569 18.4761 12.6546 18.4764H12.6341H12.6123H12.5958H12.5656H12.5515H12.539C12.5315 18.4771 12.5239 18.4771 12.5164 18.4764H12.4922H12.4797C12.182 18.4605 11.8858 18.4239 11.5932 18.3668C11.5404 18.356 11.4885 18.3443 11.4377 18.3326L11.3748 18.3056C11.314 18.2891 11.2539 18.2721 11.1983 18.2544L11.1846 18.2512H11.1802C11.0934 18.2243 11.0112 18.1938 10.9336 18.1597C11.0222 18.1448 11.1089 18.1323 11.1939 18.123L11.2068 18.2512C11.2471 18.2468 11.2846 18.2468 11.3277 18.2423C11.4349 18.2339 11.5426 18.2322 11.65 18.2371C11.838 18.2738 12.0278 18.3007 12.2186 18.3177C12.2992 18.3253 12.3798 18.3314 12.4648 18.3366C12.5498 18.3419 12.63 18.3451 12.7151 18.3479H12.7195L12.7348 18.3447L12.7521 18.3423L12.7654 18.3402V18.3459H12.7747H12.8251C12.8996 18.3459 12.9738 18.3499 13.0447 18.3499H13.1595C13.1584 18.3485 13.1575 18.347 13.1567 18.3455H13.1595C13.1772 18.3773 13.1962 18.4087 13.2151 18.441L13.2353 18.4736L13.2719 18.4744Z" fill="white"/>
<path d="M19.4533 17.1491C19.4484 17.1813 19.4436 17.2139 19.4375 17.2462C19.4303 17.2865 19.4218 17.3292 19.413 17.3707L19.4065 17.3993L19.4045 17.4057V17.4086L19.3678 17.4211C19.1889 17.4807 19.0136 17.5335 18.8662 17.5778C18.705 17.6254 18.5353 17.6721 18.3524 17.7192H18.3447C18.2045 17.7555 18.057 17.7918 17.9015 17.8288C17.5082 17.9235 17.1435 17.9953 16.8083 18.0585C16.6668 18.0855 16.5205 18.1113 16.3493 18.1411L16.2566 18.1577L16.2163 18.1649L16.1007 18.1843C16.035 18.1943 15.9633 18.2048 15.8895 18.2149C15.5019 18.2777 15.1457 18.3273 14.8015 18.366C14.449 18.4063 14.1044 18.4365 13.7768 18.4583L13.6559 18.4651C13.5721 18.4691 13.4871 18.4728 13.4017 18.4752H13.39C13.3497 18.4752 13.3118 18.4752 13.2723 18.4752H13.232L13.2119 18.4425C13.1929 18.4103 13.174 18.3789 13.1563 18.347C13.1248 18.2914 13.095 18.2362 13.0676 18.181C13.0571 18.1605 13.0471 18.1407 13.0374 18.1198C13.0277 18.0988 13.0181 18.0795 13.0084 18.0569C12.9854 18.007 12.9649 17.9574 12.9463 17.9078C12.9363 17.8824 12.927 17.8575 12.9177 17.8321C12.9085 17.8067 12.8992 17.7777 12.8903 17.7515L12.871 17.6943C12.8464 17.6137 12.8234 17.5331 12.8029 17.4452C12.7976 17.4235 12.7928 17.4009 12.7876 17.3787C12.7876 17.3743 12.7876 17.3707 12.7856 17.3667C12.7803 17.3437 12.7755 17.3207 12.771 17.2969C12.7666 17.2732 12.7634 17.2587 12.7598 17.2389L12.7505 17.1785L12.732 17.0576C12.732 17.0487 12.7299 17.0403 12.7291 17.0314C12.6943 16.7166 12.7046 16.3984 12.7598 16.0865C12.8404 15.6238 13.0171 15.1832 13.2784 14.793C13.3187 14.7301 13.3638 14.6693 13.4097 14.6092C13.5695 14.4042 13.7508 14.2168 13.9505 14.0503C14.3235 13.746 14.7566 13.5241 15.2214 13.3992C15.2926 13.3798 15.3647 13.363 15.4378 13.3488L15.6046 13.3206C16.1856 13.2357 16.7787 13.304 17.3252 13.5188C17.8717 13.7336 18.3526 14.0874 18.7203 14.5452C18.7396 14.5689 18.7606 14.5931 18.7775 14.6173C18.7944 14.6415 18.8126 14.6632 18.8291 14.6862C18.8456 14.7092 18.8694 14.741 18.8875 14.7668C18.9445 14.8506 18.9982 14.9368 19.0487 15.0255C19.2033 15.3046 19.318 15.6039 19.3896 15.9148C19.3985 15.943 19.4069 15.9704 19.4134 15.9978C19.4232 16.0347 19.431 16.0721 19.4367 16.1098C19.4369 16.1121 19.4369 16.1144 19.4367 16.1167C19.4436 16.157 19.4496 16.1973 19.4549 16.2376C19.4593 16.2674 19.4629 16.2972 19.4657 16.3274C19.4686 16.3577 19.471 16.3875 19.4734 16.4173C19.4758 16.4471 19.4774 16.4757 19.479 16.5059C19.4807 16.5362 19.4815 16.5595 19.4827 16.5865V16.5934C19.4895 16.7791 19.4796 16.9651 19.4533 17.1491Z" fill="white"/>
<defs>
<linearGradient id="paint0_linear_1328_27105" x1="4.5" y1="4" x2="27" y2="28" gradientUnits="userSpaceOnUse">
<stop stop-color="#0088C8"/>
<stop offset="0.442708" stop-color="#5831C9"/>
<stop offset="1" stop-color="#81A3F2"/>
</linearGradient>
</defs>
</svg>
