<svg width="32" height="32" viewBox="0 0 32 32" fill="none" xmlns="http://www.w3.org/2000/svg">
<g clip-path="url(#clip0_613_477)">
<path d="M16 32C24.837 32 32 24.837 32 16C32 7.163 24.837 0 16 0C7.163 0 0 7.163 0 16C0 24.837 7.163 32 16 32Z" fill="url(#paint0_linear_613_477)"/>
<path d="M16 31.75C24.698 31.75 31.75 24.698 31.75 16C31.75 7.302 24.698 0.25 16 0.25C7.302 0.25 0.25 7.302 0.25 16C0.25 24.698 7.302 31.75 16 31.75Z" stroke="white" stroke-width="0.5"/>
<path d="M16.0995 11.95C14.1995 11.95 12.6995 13.2 12.2995 15H10.6495V16.3H12.1995C12.3995 18.35 14.0495 19.85 16.0995 19.85C17.6495 19.85 18.9495 19.25 19.4995 18.2L18.0995 17.3C17.7495 17.9 16.9495 18.25 16.0995 18.25C14.8995 18.25 14.0495 17.5 13.8495 16.3H20.8495L21.2995 15H19.6995C19.4495 13.25 17.9495 11.95 16.0995 11.95V11.95ZM13.9495 15C14.2495 14 14.9495 13.4 15.9995 13.4C17.0495 13.4 17.7995 14.05 17.8995 15H13.9495ZM13.5675 24.352L13.0645 26.08C7.4945 24.459 4.2965 18.633 5.9175 13.064L7.6465 13.567C6.3045 18.176 8.9585 23.01 13.5665 24.352H13.5675ZM18.9345 5.91797L18.4315 7.64597C23.0395 8.98797 25.6945 13.822 24.3515 18.431L26.0815 18.934C27.7015 13.365 24.5035 7.53897 18.9345 5.91797V5.91797Z" fill="white"/>
</g>
<defs>
<linearGradient id="paint0_linear_613_477" x1="16" y1="0" x2="16" y2="32" gradientUnits="userSpaceOnUse">
<stop stop-color="#04515B"/>
<stop offset="1" stop-color="#012C32"/>
</linearGradient>
<clipPath id="clip0_613_477">
<rect width="32" height="32" fill="white"/>
</clipPath>
</defs>
</svg>
