<svg width="32" height="32" viewBox="0 0 32 32" fill="none" xmlns="http://www.w3.org/2000/svg">
<g clip-path="url(#clip0_613_880)">
<path d="M16 32C24.8366 32 32 24.8366 32 16C32 7.16344 24.8366 0 16 0C7.16344 0 0 7.16344 0 16C0 24.8366 7.16344 32 16 32Z" fill="white"/>
<path fill-rule="evenodd" clip-rule="evenodd" d="M0 16C0 11.7565 1.68571 7.68688 4.68629 4.68629C7.68688 1.68571 11.7565 0 16 0C20.2435 0 24.3131 1.68571 27.3138 4.68629C30.3142 7.68688 32 11.7565 32 16C32 20.2435 30.3142 24.3131 27.3138 27.3138C24.3131 30.3142 20.2435 32 16 32C11.7565 32 7.68688 30.3142 4.68629 27.3138C1.68571 24.3131 0 20.2435 0 16ZM13.3272 11.5301H8.85726C8.26451 11.5301 7.69605 11.2946 7.27691 10.8755C6.85778 10.4564 6.62232 9.8879 6.62232 9.29515C6.62232 8.70242 6.85778 8.13395 7.27691 7.71482C7.69605 7.29568 8.26451 7.06021 8.85726 7.06021H15.9646C15.9938 7.05978 16.023 7.05978 16.0522 7.06021H23.1629C23.7557 7.06021 24.3242 7.29568 24.7434 7.71482C25.1624 8.13395 25.3979 8.70242 25.3979 9.29515C25.3979 9.8879 25.1624 10.4564 24.7434 10.8755C24.3242 11.2946 23.7557 11.5301 23.1629 11.5301H18.6914V18.2349C18.6914 18.3022 18.624 18.3427 18.5618 18.3192C18.3435 18.2402 18.1094 18.2147 17.8795 18.2454C17.6494 18.276 17.4302 18.3616 17.2403 18.495C17.0504 18.6283 16.8955 18.8056 16.7886 19.0115C16.6818 19.2176 16.6262 19.4462 16.6266 19.6782V19.9192C16.6266 20.0658 16.6485 20.2072 16.6888 20.3402C16.7579 20.5693 16.6738 20.8454 16.4395 20.8826C16.0752 20.9411 15.7026 20.9245 15.3448 20.8338C15.0585 20.7613 15.0653 20.3706 15.2724 20.16C15.5282 19.8989 15.6979 19.5656 15.7585 19.205C15.8191 18.8445 15.7678 18.4741 15.6114 18.1435C15.4551 17.8131 15.2012 17.5384 14.8841 17.3566C14.5669 17.1749 14.2016 17.0946 13.8375 17.1267C13.5865 17.1469 13.3272 16.9734 13.3272 16.7208V11.5301ZM18.0194 20.4699C18.1074 20.4699 18.1946 20.4525 18.2758 20.4189C18.3573 20.3851 18.431 20.3358 18.4933 20.2736C18.5555 20.2114 18.605 20.1374 18.6387 20.0562C18.6723 19.9747 18.6898 19.8877 18.6898 19.7995C18.6898 19.7115 18.6723 19.6243 18.6387 19.543C18.605 19.4618 18.5555 19.3878 18.4933 19.3256C18.431 19.2634 18.3573 19.2139 18.2758 19.1803C18.1946 19.1466 18.1074 19.1293 18.0194 19.1293C17.8416 19.1293 17.671 19.1998 17.5454 19.3256C17.4197 19.4514 17.3491 19.6218 17.3491 19.7995C17.3491 19.9773 17.4197 20.1478 17.5454 20.2736C17.671 20.3992 17.8416 20.4699 18.0194 20.4699ZM16.832 22.2738C16.832 22.5216 16.9306 22.7594 17.1058 22.9347C17.2811 23.1099 17.5189 23.2085 17.7667 23.2085C18.0147 23.2085 18.2523 23.1099 18.4277 22.9347C18.603 22.7594 18.7014 22.5216 18.7014 22.2738C18.7014 22.0258 18.603 21.788 18.4277 21.6128C18.2523 21.4374 18.0147 21.3389 17.7667 21.3389C17.5189 21.3389 17.2811 21.4374 17.1058 21.6128C16.9306 21.788 16.832 22.0258 16.832 22.2738ZM17.3912 24.9853C17.3912 25.1589 17.4602 25.3253 17.5829 25.448C17.7054 25.5707 17.872 25.6395 18.0454 25.6395C18.219 25.6395 18.3854 25.5707 18.5082 25.448C18.6309 25.3253 18.6998 25.1589 18.6998 24.9853C18.6998 24.8117 18.6309 24.6453 18.5082 24.5226C18.3854 24.3998 18.219 24.3309 18.0454 24.3309C17.872 24.3309 17.7054 24.3998 17.5829 24.5226C17.4602 24.6453 17.3912 24.8117 17.3912 24.9853ZM16.8302 24.0134C16.8302 24.1966 16.7576 24.3723 16.628 24.5018C16.4986 24.6312 16.3229 24.704 16.1398 24.704C15.9567 24.704 15.781 24.6312 15.6515 24.5018C15.522 24.3723 15.4493 24.1966 15.4493 24.0134C15.4493 23.8304 15.522 23.6547 15.6515 23.5251C15.781 23.3957 15.9567 23.3229 16.1398 23.3229C16.3229 23.3229 16.4986 23.3957 16.628 23.5251C16.7576 23.6547 16.8302 23.8304 16.8302 24.0134ZM15.8029 27.6211C15.5305 27.6211 15.2692 27.5128 15.0765 27.3202C14.8838 27.1275 14.7756 26.8662 14.7756 26.5938C14.7756 26.3213 14.8838 26.0598 15.0765 25.8672C15.2692 25.6746 15.5305 25.5662 15.8029 25.5662C16.0754 25.5662 16.3368 25.6746 16.5294 25.8672C16.7221 26.0598 16.8302 26.3213 16.8302 26.5938C16.8302 26.8662 16.7221 27.1275 16.5294 27.3202C16.3368 27.5128 16.0754 27.6211 15.8029 27.6211ZM12.6451 22.5752C12.6451 22.9222 12.7829 23.255 13.0283 23.5005C13.2738 23.7459 13.6066 23.8838 13.9537 23.8838C14.3008 23.8838 14.6336 23.7459 14.879 23.5005C15.1244 23.255 15.2623 22.9222 15.2623 22.5752C15.2623 22.2282 15.1244 21.8952 14.879 21.6498C14.6336 21.4045 14.3008 21.2666 13.9537 21.2666C13.6066 21.2666 13.2738 21.4045 13.0283 21.6498C12.7829 21.8952 12.6451 22.2282 12.6451 22.5752ZM13.9975 18.0109C13.7603 18.0109 13.5328 18.1051 13.3651 18.273C13.1974 18.4406 13.1032 18.668 13.1032 18.9053C13.1032 19.1424 13.1974 19.3699 13.3651 19.5376C13.5328 19.7053 13.7603 19.7995 13.9975 19.7995C14.2347 19.7995 14.4621 19.7053 14.6299 19.5376C14.7976 19.3699 14.8918 19.1424 14.8918 18.9053C14.8918 18.668 14.7976 18.4406 14.6299 18.273C14.4621 18.1051 14.2347 18.0109 13.9975 18.0109Z" fill="url(#paint0_linear_613_880)"/>
<path d="M16 31.75C24.6985 31.75 31.75 24.6985 31.75 16C31.75 7.30152 24.6985 0.25 16 0.25C7.30152 0.25 0.25 7.30152 0.25 16C0.25 24.6985 7.30152 31.75 16 31.75Z" stroke="white" stroke-width="0.5"/>
</g>
<defs>
<linearGradient id="paint0_linear_613_880" x1="32" y1="32" x2="12.608" y2="-6.37136" gradientUnits="userSpaceOnUse">
<stop stop-color="#71399F"/>
<stop offset="0.11" stop-color="#71399F"/>
<stop offset="0.8" stop-color="#EC096D"/>
<stop offset="1" stop-color="#EC096D"/>
</linearGradient>
<clipPath id="clip0_613_880">
<rect width="32" height="32" fill="white"/>
</clipPath>
</defs>
</svg>
