<svg width="20" height="20" viewBox="0 0 20 20" fill="none" xmlns="http://www.w3.org/2000/svg">
<path d="M9.99991 19.285C15.1279 19.285 19.285 15.1279 19.285 9.99991C19.285 4.87191 15.1279 0.714844 9.99991 0.714844C4.87191 0.714844 0.714844 4.87191 0.714844 9.99991C0.714844 15.1279 4.87191 19.285 9.99991 19.285Z" fill="white"/>
<path d="M9.99934 19.9986C8.68565 20.0023 7.3843 19.7452 6.17057 19.2426C4.95684 18.7399 3.85486 18.0016 2.92841 17.0702C1.99702 16.1438 1.25863 15.042 0.755973 13.8282C0.253319 12.6145 -0.00361684 11.313 4.01675e-05 9.99934C-0.00369573 8.68564 0.253206 7.38418 0.755864 6.17044C1.25852 4.9567 1.99696 3.85488 2.92841 2.92848C3.85481 1.99702 4.95677 1.25844 6.1705 0.755777C7.38424 0.253118 8.68564 -0.00369572 9.99934 4.01809e-05C11.313 -0.00369572 12.6144 0.253118 13.8282 0.755777C15.0419 1.25844 16.1439 1.99702 17.0703 2.92848C18.0017 3.85488 18.7402 4.9567 19.2428 6.17044C19.7455 7.38418 20.0024 8.68564 19.9986 9.99934C20.0023 11.313 19.7454 12.6145 19.2427 13.8282C18.7401 15.042 18.0017 16.1438 17.0703 17.0702C16.1438 18.0016 15.0418 18.7399 13.8281 19.2426C12.6144 19.7452 11.313 20.0023 9.99934 19.9986ZM9.99934 1.42851C7.72697 1.43097 5.54838 2.33478 3.94157 3.94159C2.33476 5.5484 1.43097 7.72697 1.42851 9.99934C1.43097 12.2717 2.33476 14.4503 3.94157 16.0571C5.54838 17.6639 7.72697 18.5677 9.99934 18.5702C12.2717 18.5677 14.4503 17.6639 16.0571 16.0571C17.6639 14.4503 18.5677 12.2717 18.5702 9.99934C18.5677 7.72697 17.6639 5.5484 16.0571 3.94159C14.4503 2.33478 12.2717 1.43097 9.99934 1.42851V1.42851Z" fill="#16183C"/>
<path opacity="0.7" d="M9.2863 19.9742V18.5408C9.52438 18.5608 9.76246 18.5708 10.0005 18.5708C10.2386 18.5708 10.4767 18.5611 10.7148 18.5415V19.9749C10.4767 19.9916 10.2386 20 10.0005 20C9.76246 20 9.52438 19.9913 9.2863 19.9742ZM15.533 16.5411C15.8967 16.2329 16.2343 15.8951 16.5422 15.5311L17.5586 16.5474C17.4034 16.7264 17.241 16.9004 17.0715 17.0695C16.902 17.2385 16.7279 17.401 16.5494 17.5567L15.533 16.5411ZM2.93102 17.0702C2.76151 16.9007 2.59891 16.7264 2.44321 16.5474L3.45957 15.5311C3.76776 15.8951 4.10555 16.2329 4.4695 16.5411L3.45314 17.5574C3.27411 17.4021 3.09959 17.2397 2.92961 17.0702H2.93102ZM18.5421 10.7135C18.5616 10.4755 18.5714 10.2374 18.5714 9.9993C18.5714 9.76122 18.5616 9.52315 18.5421 9.28507H19.9756C19.9922 9.52315 20.0006 9.76122 20.0006 9.9993C20.0006 10.2374 19.9922 10.4755 19.9756 10.7135H18.5421ZM0.026954 10.7135C0.0102885 10.4755 0.00195312 10.2374 0.00195312 9.9993C0.00195312 9.76122 0.0102885 9.52315 0.026954 9.28507H1.46042C1.44089 9.52315 1.43114 9.76122 1.43114 9.9993C1.43114 10.2374 1.44089 10.4755 1.46042 10.7135H0.026954ZM2.44321 3.45191C2.59891 3.27287 2.76151 3.09887 2.93102 2.92983C3.10053 2.7608 3.27483 2.59811 3.45386 2.44193L4.4695 3.45749C4.10562 3.76601 3.76783 4.10406 3.45957 4.46816L2.44321 3.45191ZM15.533 3.45749L16.5487 2.44193C16.7277 2.59764 16.902 2.76032 17.0715 2.92983C17.241 3.09934 17.4034 3.27335 17.5586 3.45191L16.5422 4.46816C16.2341 4.10396 15.8963 3.76589 15.5323 3.45749H15.533ZM9.2863 0.0251099C9.52438 0.00844435 9.76246 0 10.0005 0C10.2386 0 10.4767 0.00844435 10.7148 0.0251099V1.45707C10.4791 1.43755 10.241 1.42777 10.0005 1.42777C9.76008 1.42777 9.522 1.43777 9.2863 1.45777V0.0251099Z" fill="white"/>
<g clip-path="url(#clip0_4446_71643)">
<path d="M5.00391 6.31041V9.41171V9.28837C5.02475 11.9386 7.25344 14.2038 10.0004 14.2038C12.7473 14.2038 14.9766 12.0614 14.9974 9.41171V6.31041C14.9974 6.31041 14.3026 5.97284 13.5163 6.77885C13.0102 7.2965 12.6054 9.15635 11.5215 9.17314C10.0739 9.19515 9.08955 7.27218 7.9118 6.5536C6.6831 5.8026 5.00391 6.31041 5.00391 6.31041Z" fill="url(#paint0_linear_4446_71643)"/>
<path d="M5.00391 6.31041V9.41171V9.28837C5.02475 11.9386 7.25344 14.2038 10.0004 14.2038C12.7473 14.2038 14.9766 12.0614 14.9974 9.41171V6.31041C14.9974 6.31041 14.3026 5.97284 13.5163 6.77885C13.0102 7.2965 12.6054 9.15635 11.5215 9.17314C10.0739 9.19515 9.08955 7.27218 7.9118 6.5536C6.6831 5.8026 5.00391 6.31041 5.00391 6.31041Z" fill="url(#paint1_linear_4446_71643)"/>
<path d="M14.9987 9.71794V7.56394C14.7167 7.61142 14.3693 7.74865 14.0028 8.08507C13.4348 8.60619 12.9814 10.4909 11.7654 10.5077C10.1441 10.5303 9.03759 8.58419 7.71682 7.85693C6.80021 7.35201 5.66125 7.40991 5 7.50545V9.71794V9.58649C5.02027 12.4209 7.25012 14.8441 9.9982 14.8441C12.7463 14.8441 14.9779 12.5523 14.9987 9.71794Z" fill="url(#paint2_linear_4446_71643)"/>
<path d="M14.9987 9.71794V7.56394C14.7167 7.61142 14.3693 7.74865 14.0028 8.08507C13.4348 8.60619 12.9814 10.4909 11.7654 10.5077C10.1441 10.5303 9.03759 8.58419 7.71682 7.85693C6.80021 7.35201 5.66125 7.40991 5 7.50545V9.71794V9.58649C5.02027 12.4209 7.25012 14.8441 9.9982 14.8441C12.7463 14.8441 14.9779 12.5523 14.9987 9.71794Z" fill="url(#paint3_linear_4446_71643)"/>
<path d="M14.9974 9.71708V9.22837C14.7431 9.32833 14.508 9.47154 14.3025 9.65165C13.6911 10.1757 13.2023 12.0575 11.8943 12.0743C10.1468 12.0969 8.95747 10.1508 7.53594 9.42351C6.71025 9.00081 5.7172 8.97244 4.99805 9.03034V9.71708V9.58563C5.01831 12.42 7.24817 14.8432 9.99625 14.8432C12.7443 14.8432 14.9765 12.5514 14.9974 9.71708Z" fill="url(#paint4_linear_4446_71643)"/>
</g>
<defs>
<linearGradient id="paint0_linear_4446_71643" x1="4.2309" y1="12.2993" x2="17.0038" y2="5.62079" gradientUnits="userSpaceOnUse">
<stop stop-color="#FDA9FF"/>
<stop offset="0.03" stop-color="#F9AAFF"/>
<stop offset="0.24" stop-color="#DCB3FF"/>
<stop offset="0.37" stop-color="#D1B6FF"/>
<stop offset="0.89" stop-color="#4DFFE5"/>
</linearGradient>
<linearGradient id="paint1_linear_4446_71643" x1="9.44276" y1="10.2061" x2="10.7589" y2="5.37991" gradientUnits="userSpaceOnUse">
<stop stop-color="#16183C" stop-opacity="0.3"/>
<stop offset="0.28" stop-color="#16183C" stop-opacity="0.18"/>
<stop offset="0.87" stop-color="#16183C" stop-opacity="0"/>
</linearGradient>
<linearGradient id="paint2_linear_4446_71643" x1="4.65432" y1="12.6629" x2="16.111" y2="7.59289" gradientUnits="userSpaceOnUse">
<stop stop-color="#FDA9FF"/>
<stop offset="0.03" stop-color="#F9AAFF"/>
<stop offset="0.24" stop-color="#DCB3FF"/>
<stop offset="0.37" stop-color="#D1B6FF"/>
<stop offset="0.89" stop-color="#4DFFE5"/>
</linearGradient>
<linearGradient id="paint3_linear_4446_71643" x1="8.85404" y1="11.5616" x2="10.6091" y2="7.9542" gradientUnits="userSpaceOnUse">
<stop stop-color="#16183C" stop-opacity="0.3"/>
<stop offset="0.28" stop-color="#16183C" stop-opacity="0.18"/>
<stop offset="0.87" stop-color="#16183C" stop-opacity="0"/>
</linearGradient>
<linearGradient id="paint4_linear_4446_71643" x1="4.16192" y1="13.391" x2="14.4484" y2="9.44203" gradientUnits="userSpaceOnUse">
<stop stop-color="#FDA9FF"/>
<stop offset="0.03" stop-color="#F9AAFF"/>
<stop offset="0.24" stop-color="#DCB3FF"/>
<stop offset="0.37" stop-color="#D1B6FF"/>
<stop offset="0.89" stop-color="#4DFFE5"/>
</linearGradient>
<clipPath id="clip0_4446_71643">
<rect width="9.9993" height="8.70053" fill="white" transform="translate(5 6.14258)"/>
</clipPath>
</defs>
</svg>
