<svg width="32" height="32" viewBox="0 0 32 32" fill="none" xmlns="http://www.w3.org/2000/svg">
<g clip-path="url(#clip0_1667_38738)">
<path d="M16 32C24.8366 32 32 24.8366 32 16C32 7.16344 24.8366 0 16 0C7.16344 0 0 7.16344 0 16C0 24.8366 7.16344 32 16 32Z" fill="url(#paint0_linear_1667_38738)"/>
<path d="M16 31.75C24.6985 31.75 31.75 24.6985 31.75 16C31.75 7.30152 24.6985 0.25 16 0.25C7.30152 0.25 0.25 7.30152 0.25 16C0.25 24.6985 7.30152 31.75 16 31.75Z" fill="url(#paint1_linear_1667_38738)" stroke="white" stroke-width="0.5"/>
<g clip-path="url(#clip1_1667_38738)">
<path d="M7.00586 9.30662V14.9671L7.00766 14.7426C7.0451 19.5796 11.0569 23.7145 16.0026 23.7145C20.9483 23.7145 24.9601 19.8041 24.9976 14.9671L24.9994 14.7426V9.30662C24.9994 9.30662 23.7516 8.68932 22.3325 10.1612C21.4213 11.1063 20.6927 14.501 18.7415 14.5313C16.1362 14.5721 14.3632 11.0614 12.2431 9.7498C10.0288 8.37939 7.00586 9.30662 7.00586 9.30662Z" fill="url(#paint2_linear_1667_38738)"/>
<path d="M7.00586 9.30662V14.9671L7.00766 14.7426C7.0451 19.5796 11.0569 23.7145 16.0026 23.7145C20.9483 23.7145 24.9601 19.8041 24.9976 14.9671L24.9994 14.7426V9.30662C24.9994 9.30662 23.7516 8.68932 22.3325 10.1612C21.4213 11.1063 20.6927 14.501 18.7415 14.5313C16.1362 14.5721 14.3632 11.0614 12.2431 9.7498C10.0288 8.37939 7.00586 9.30662 7.00586 9.30662Z" fill="url(#paint3_linear_1667_38738)"/>
<path d="M24.9982 15.5246L25 15.2844V11.593C24.492 11.6788 23.8667 11.9303 23.2065 12.548C22.1844 13.5044 21.3672 16.9396 19.1792 16.9706C16.257 17.0119 14.2688 13.4592 11.8913 12.1315C10.2404 11.2101 8.19016 11.3156 7 11.4897V15.5246L7.0018 15.2844C7.03924 20.4587 11.0525 24.8817 16 24.8817C20.9475 24.8817 24.9608 20.6989 24.9982 15.5246Z" fill="url(#paint4_linear_1667_38738)"/>
<path d="M24.9982 15.5246L25 15.2844V11.593C24.492 11.6788 23.8667 11.9303 23.2065 12.548C22.1844 13.5044 21.3672 16.9396 19.1792 16.9706C16.257 17.0119 14.2688 13.4592 11.8913 12.1315C10.2404 11.2101 8.19016 11.3156 7 11.4897V15.5246L7.0018 15.2844C7.03924 20.4587 11.0525 24.8817 16 24.8817C20.9475 24.8817 24.9608 20.6989 24.9982 15.5246Z" fill="url(#paint5_linear_1667_38738)"/>
<path d="M24.9982 15.2946L25 15.0544V14.4027C24.6108 14.5531 24.1871 14.7941 23.7494 15.1748C22.6492 16.1313 21.7697 19.5664 19.4142 19.5974C16.2686 19.6387 14.1284 16.086 11.5688 14.7583C10.0823 13.9877 8.29492 13.9355 7 14.041V15.2946L7.0018 15.0544C7.03924 20.2286 11.0525 24.6516 16 24.6516C20.9475 24.6516 24.9608 20.4688 24.9982 15.2946Z" fill="url(#paint6_linear_1667_38738)"/>
</g>
<g clip-path="url(#clip2_1667_38738)">
<path d="M69.87 -51.47C61.02 -57.4 50.98 -61.57 40.11 -63.65C35.33 -64.53 30.38 -65 25.34 -65H24.87C19.83 -65 14.88 -64.53 10.15 -63.65C-0.93 -61.57 -11.13 -57.25 -20.13 -51.16C-41.16 -36.8 -55 -12.66 -55 14.71V117.89C-55 117.89 -41.16 66.38 -20.14 52.02C-19.72 51.76 -19.31 51.45 -18.89 51.24V14.71C-18.89 -9.38 0.730003 -29 24.87 -29H25.34C49.53 -29 69.15 -9.38 69.15 14.71V51.29C69.41 51.44 69.62 51.6 69.88 51.76C90.17 65.29 105.11 113.83 105.11 113.83V10.65C103.8 -15.26 90.17 -37.89 69.87 -51.47Z" fill="#E7E3E0"/>
</g>
</g>
<defs>
<linearGradient id="paint0_linear_1667_38738" x1="16" y1="0" x2="16" y2="32" gradientUnits="userSpaceOnUse">
<stop stop-color="#252864"/>
<stop offset="1" stop-color="#16183C"/>
</linearGradient>
<linearGradient id="paint1_linear_1667_38738" x1="16" y1="0.25" x2="16" y2="31.75" gradientUnits="userSpaceOnUse">
<stop stop-color="#252864"/>
<stop offset="1" stop-color="#16183C"/>
</linearGradient>
<linearGradient id="paint2_linear_1667_38738" x1="5.61395" y1="20.2386" x2="28.7436" y2="8.31146" gradientUnits="userSpaceOnUse">
<stop stop-color="#FDA9FF"/>
<stop offset="0.0276" stop-color="#F9AAFF"/>
<stop offset="0.2435" stop-color="#DCB3FF"/>
<stop offset="0.3671" stop-color="#D1B6FF"/>
<stop offset="0.8897" stop-color="#4DFFE5"/>
</linearGradient>
<linearGradient id="paint3_linear_1667_38738" x1="14.9963" y1="16.4175" x2="17.428" y2="7.62452" gradientUnits="userSpaceOnUse">
<stop stop-color="#16183C" stop-opacity="0.3"/>
<stop offset="0.8669" stop-color="#16183C" stop-opacity="0"/>
</linearGradient>
<linearGradient id="paint4_linear_1667_38738" x1="6.37714" y1="20.9003" x2="27.0941" y2="11.8588" gradientUnits="userSpaceOnUse">
<stop stop-color="#FDA9FF"/>
<stop offset="0.0276" stop-color="#F9AAFF"/>
<stop offset="0.2435" stop-color="#DCB3FF"/>
<stop offset="0.3671" stop-color="#D1B6FF"/>
<stop offset="0.8897" stop-color="#4DFFE5"/>
</linearGradient>
<linearGradient id="paint5_linear_1667_38738" x1="13.9372" y1="18.8901" x2="17.1684" y2="12.3401" gradientUnits="userSpaceOnUse">
<stop stop-color="#16183C" stop-opacity="0.3"/>
<stop offset="0.8669" stop-color="#16183C" stop-opacity="0"/>
</linearGradient>
<linearGradient id="paint6_linear_1667_38738" x1="5.49289" y1="22.001" x2="24.0759" y2="14.966" gradientUnits="userSpaceOnUse">
<stop stop-color="#FDA9FF"/>
<stop offset="0.0276" stop-color="#F9AAFF"/>
<stop offset="0.2435" stop-color="#DCB3FF"/>
<stop offset="0.3671" stop-color="#D1B6FF"/>
<stop offset="0.8897" stop-color="#4DFFE5"/>
</linearGradient>
<clipPath id="clip0_1667_38738">
<rect width="32" height="32" fill="white"/>
</clipPath>
<clipPath id="clip1_1667_38738">
<rect width="18" height="15.8824" fill="white" transform="translate(7 9)"/>
</clipPath>
<clipPath id="clip2_1667_38738">
<rect width="160.1" height="188.68" fill="white" transform="translate(-55 -65)"/>
</clipPath>
</defs>
</svg>
