<svg width="20" height="20" viewBox="0 0 20 20" fill="none" xmlns="http://www.w3.org/2000/svg">
<path d="M9.99991 19.285C15.1279 19.285 19.285 15.1279 19.285 9.99991C19.285 4.87191 15.1279 0.714844 9.99991 0.714844C4.87191 0.714844 0.714844 4.87191 0.714844 9.99991C0.714844 15.1279 4.87191 19.285 9.99991 19.285Z" fill="white"/>
<path fill-rule="evenodd" clip-rule="evenodd" d="M5.35547 9.98002C5.35547 7.35358 7.48771 5.22461 10.1184 5.22461H14.2726C14.4781 5.22461 14.6446 5.39078 14.6446 5.59617V10.0151C14.6446 12.6416 12.5124 14.7705 9.88173 14.7705H7.80515C7.75621 14.7705 7.70775 14.7609 7.66255 14.7422C7.61734 14.7235 7.57627 14.6962 7.54169 14.6617C7.50711 14.6272 7.47969 14.5862 7.46101 14.5411C7.44233 14.496 7.43275 14.4477 7.43282 14.399V10.3903C7.43282 8.69918 8.80615 7.32777 10.5 7.32777H12.2861C12.3106 7.32777 12.3349 7.33259 12.3575 7.34194C12.3801 7.35129 12.4007 7.365 12.418 7.38228C12.4353 7.39956 12.4491 7.42007 12.4584 7.44264C12.4678 7.46521 12.4726 7.48939 12.4725 7.51381V8.22854C12.4726 8.25296 12.4678 8.27715 12.4584 8.29972C12.4491 8.32228 12.4353 8.3428 12.418 8.36007C12.4007 8.37735 12.3801 8.39106 12.3575 8.40041C12.3349 8.40976 12.3106 8.41458 12.2861 8.41458H10.5003C9.61115 8.41458 8.85716 9.00339 8.60834 9.81127H12.1851C12.2346 9.81127 12.282 9.83084 12.3169 9.86568C12.3519 9.90052 12.3715 9.94778 12.3715 9.99705V10.7118C12.3716 10.7362 12.3668 10.7604 12.3575 10.783C12.3482 10.8056 12.3344 10.8262 12.3171 10.8435C12.2998 10.8608 12.2792 10.8745 12.2566 10.8839C12.2339 10.8933 12.2096 10.8981 12.1851 10.8981H8.52134V13.6847H9.88224C11.9117 13.6847 13.5572 12.0419 13.5572 10.0156V6.3109H10.1186C8.08945 6.3109 6.44399 7.95375 6.44399 9.98002V14.5858C6.44402 14.6102 6.43922 14.6344 6.42987 14.6569C6.42052 14.6795 6.40679 14.7 6.38948 14.7173C6.37216 14.7346 6.3516 14.7483 6.32896 14.7576C6.30633 14.767 6.28206 14.7718 6.25756 14.7718H5.54189C5.51739 14.7718 5.49313 14.767 5.47049 14.7576C5.44786 14.7483 5.42729 14.7346 5.40998 14.7173C5.39267 14.7 5.37894 14.6795 5.36959 14.6569C5.36023 14.6344 5.35543 14.6102 5.35547 14.5858V9.98002Z" fill="black"/>
<path d="M9.99934 19.9986C8.68565 20.0023 7.3843 19.7452 6.17057 19.2426C4.95684 18.7399 3.85486 18.0016 2.92841 17.0702C1.99702 16.1438 1.25863 15.042 0.755973 13.8282C0.253319 12.6145 -0.00361684 11.313 4.01675e-05 9.99934C-0.00369573 8.68564 0.253206 7.38418 0.755864 6.17044C1.25852 4.9567 1.99696 3.85488 2.92841 2.92848C3.85481 1.99702 4.95677 1.25844 6.1705 0.755777C7.38424 0.253118 8.68564 -0.00369572 9.99934 4.01809e-05C11.313 -0.00369572 12.6144 0.253118 13.8282 0.755777C15.0419 1.25844 16.1439 1.99702 17.0703 2.92848C18.0017 3.85488 18.7402 4.9567 19.2428 6.17044C19.7455 7.38418 20.0024 8.68564 19.9986 9.99934C20.0023 11.313 19.7454 12.6145 19.2427 13.8282C18.7401 15.042 18.0017 16.1438 17.0703 17.0702C16.1438 18.0016 15.0418 18.7399 13.8281 19.2426C12.6144 19.7452 11.313 20.0023 9.99934 19.9986ZM9.99934 1.42851C7.72697 1.43097 5.54838 2.33478 3.94157 3.94159C2.33476 5.5484 1.43097 7.72697 1.42851 9.99934C1.43097 12.2717 2.33476 14.4503 3.94157 16.0571C5.54838 17.6639 7.72697 18.5677 9.99934 18.5702C12.2717 18.5677 14.4503 17.6639 16.0571 16.0571C17.6639 14.4503 18.5677 12.2717 18.5702 9.99934C18.5677 7.72697 17.6639 5.5484 16.0571 3.94159C14.4503 2.33478 12.2717 1.43097 9.99934 1.42851Z" fill="#3C3C3C"/>
<path opacity="0.7" d="M9.2863 19.9742V18.5408C9.52438 18.5608 9.76246 18.5708 10.0005 18.5708C10.2386 18.5708 10.4767 18.5611 10.7148 18.5415V19.9749C10.4767 19.9916 10.2386 20 10.0005 20C9.76246 20 9.52438 19.9913 9.2863 19.9742ZM15.533 16.5411C15.8967 16.2329 16.2343 15.8951 16.5422 15.5311L17.5586 16.5474C17.4034 16.7264 17.241 16.9004 17.0715 17.0695C16.902 17.2385 16.7279 17.401 16.5494 17.5567L15.533 16.5411ZM2.93102 17.0702C2.76151 16.9007 2.59891 16.7264 2.44321 16.5474L3.45957 15.5311C3.76776 15.8951 4.10555 16.2329 4.4695 16.5411L3.45314 17.5574C3.27411 17.4021 3.09959 17.2397 2.92961 17.0702H2.93102ZM18.5421 10.7135C18.5616 10.4755 18.5714 10.2374 18.5714 9.9993C18.5714 9.76122 18.5616 9.52315 18.5421 9.28507H19.9756C19.9922 9.52315 20.0006 9.76122 20.0006 9.9993C20.0006 10.2374 19.9922 10.4755 19.9756 10.7135H18.5421ZM0.026954 10.7135C0.0102885 10.4755 0.00195312 10.2374 0.00195312 9.9993C0.00195312 9.76122 0.0102885 9.52315 0.026954 9.28507H1.46042C1.44089 9.52315 1.43114 9.76122 1.43114 9.9993C1.43114 10.2374 1.44089 10.4755 1.46042 10.7135H0.026954ZM2.44321 3.45191C2.59891 3.27287 2.76151 3.09887 2.93102 2.92983C3.10053 2.7608 3.27483 2.59811 3.45386 2.44193L4.4695 3.45749C4.10562 3.76601 3.76783 4.10406 3.45957 4.46816L2.44321 3.45191ZM15.533 3.45749L16.5487 2.44193C16.7277 2.59764 16.902 2.76032 17.0715 2.92983C17.241 3.09934 17.4034 3.27335 17.5586 3.45191L16.5422 4.46816C16.2341 4.10396 15.8963 3.76589 15.5323 3.45749H15.533ZM9.2863 0.0251099C9.52438 0.00844435 9.76246 0 10.0005 0C10.2386 0 10.4767 0.00844435 10.7148 0.0251099V1.45707C10.4791 1.43755 10.241 1.42777 10.0005 1.42777C9.76008 1.42777 9.522 1.43777 9.2863 1.45777V0.0251099Z" fill="white"/>
</svg>
