<svg width="32" height="32" viewBox="0 0 32 32" fill="none" xmlns="http://www.w3.org/2000/svg">
<path d="M31.75 16C31.75 24.6985 24.6985 31.75 16 31.75C7.30152 31.75 0.25 24.6985 0.25 16C0.25 7.30152 7.30152 0.25 16 0.25C24.6985 0.25 31.75 7.30152 31.75 16Z" fill="url(#paint0_linear_6995_56846)" stroke="white" stroke-width="0.5"/>
<path fill-rule="evenodd" clip-rule="evenodd" d="M7.80273 15.8889C7.80273 11.2535 11.5659 7.49609 16.2088 7.49609H23.5404C23.9033 7.49609 24.1971 7.78936 24.1971 8.15185V15.9508C24.1971 20.5862 20.4339 24.3436 15.7911 24.3436H12.1262C12.0398 24.3436 11.9543 24.3266 11.8745 24.2936C11.7947 24.2607 11.7222 24.2124 11.6612 24.1515C11.6001 24.0905 11.5518 24.0183 11.5188 23.9387C11.4858 23.8591 11.4689 23.7739 11.469 23.6878V16.6129C11.469 13.6283 13.8928 11.2079 16.8823 11.2079H20.0345C20.0778 11.2079 20.1206 11.2164 20.1605 11.233C20.2005 11.2495 20.2368 11.2737 20.2673 11.3041C20.2979 11.3346 20.3221 11.3708 20.3386 11.4107C20.3551 11.4505 20.3636 11.4932 20.3636 11.5363V12.7977C20.3636 12.8408 20.3551 12.8835 20.3386 12.9233C20.3221 12.9632 20.2979 12.9993 20.2673 13.0298C20.2368 13.0603 20.2005 13.0845 20.1605 13.101C20.1206 13.1175 20.0778 13.126 20.0345 13.126H16.8828C15.3135 13.126 13.9828 14.1652 13.5437 15.591H19.8563C19.9436 15.591 20.0273 15.6256 20.089 15.6871C20.1507 15.7486 20.1853 15.832 20.1853 15.9189V17.1803C20.1855 17.2235 20.177 17.2662 20.1605 17.3061C20.1441 17.346 20.1199 17.3822 20.0893 17.4128C20.0587 17.4433 20.0224 17.4676 19.9824 17.4841C19.9425 17.5006 19.8996 17.5091 19.8563 17.5091H13.3901V22.4273H15.792C19.3737 22.4273 22.2778 19.5279 22.2778 15.9517V9.41327H16.2092C12.6279 9.41327 9.72385 12.3127 9.72385 15.8889V24.0175C9.72391 24.0606 9.71544 24.1033 9.69893 24.1431C9.68243 24.183 9.6582 24.2192 9.62764 24.2497C9.59708 24.2802 9.56079 24.3043 9.52084 24.3209C9.4809 24.3374 9.43807 24.3459 9.39483 24.3459H8.13176C8.08851 24.3459 8.04569 24.3374 8.00574 24.3209C7.96579 24.3043 7.9295 24.2802 7.89894 24.2497C7.86838 24.2192 7.84416 24.183 7.82765 24.1431C7.81114 24.1033 7.80267 24.0606 7.80273 24.0175V15.8889Z" fill="white"/>
<defs>
<linearGradient id="paint0_linear_6995_56846" x1="16" y1="0" x2="16" y2="32" gradientUnits="userSpaceOnUse">
<stop stop-color="#454545"/>
<stop offset="1" stop-color="#191919"/>
<stop offset="1" stop-color="#191919"/>
</linearGradient>
</defs>
</svg>
