<svg width="32" height="32" viewBox="0 0 32 32" fill="none" xmlns="http://www.w3.org/2000/svg">
<g clip-path="url(#clip0_3711_73830)">
<path d="M16 32C24.8366 32 32 24.8366 32 16C32 7.16344 24.8366 0 16 0C7.16344 0 0 7.16344 0 16C0 24.8366 7.16344 32 16 32Z" fill="url(#paint0_linear_3711_73830)"/>
<path d="M17.9754 6.50446C18.2803 6.03505 19.0077 6.22996 19.037 6.7889L19.3545 12.847C19.3676 13.097 19.5401 13.3101 19.7819 13.3749L25.6416 14.945C26.1823 15.0898 26.2217 15.8419 25.6992 16.0425L20.0357 18.2165C19.802 18.3062 19.6526 18.5361 19.6657 18.7861L19.9832 24.8442C20.0125 25.4032 19.3095 25.673 18.9572 25.2381L15.1395 20.5236C14.982 20.329 14.7171 20.2581 14.4834 20.3478L8.81992 22.5218C8.29739 22.7224 7.82347 22.1371 8.1283 21.6677L11.4323 16.58C11.5686 16.37 11.5543 16.0962 11.3968 15.9017L7.57904 11.1872C7.22681 10.7522 7.63697 10.1206 8.1776 10.2655L14.0373 11.8356C14.2791 11.9004 14.5351 11.8021 14.6714 11.5922L17.9754 6.50446Z" fill="url(#paint1_linear_3711_73830)"/>
<path fill-rule="evenodd" clip-rule="evenodd" d="M12.8587 27.7197C19.3314 29.4541 25.9846 25.6129 27.7189 19.1401C29.4533 12.6674 25.6121 6.01427 19.1394 4.27991C12.6666 2.54555 6.01349 6.38675 4.27913 12.8595C2.54477 19.3322 6.38597 25.9853 12.8587 27.7197ZM12.6344 28.5568C19.5694 30.4151 26.6978 26.2995 28.5561 19.3645C30.4143 12.4294 26.2987 5.30102 19.3637 3.44277C12.4286 1.58453 5.30024 5.7001 3.44199 12.6352C1.58375 19.5702 5.69932 26.6986 12.6344 28.5568Z" fill="url(#paint2_linear_3711_73830)"/>
<path d="M31.75 16C31.75 24.6985 24.6985 31.75 16 31.75C7.30152 31.75 0.25 24.6985 0.25 16C0.25 7.30152 7.30152 0.25 16 0.25C24.6985 0.25 31.75 7.30152 31.75 16Z" stroke="white" stroke-width="0.5"/>
</g>
<defs>
<linearGradient id="paint0_linear_3711_73830" x1="16" y1="0" x2="16" y2="32" gradientUnits="userSpaceOnUse">
<stop stop-color="#3E3E3E"/>
<stop offset="1"/>
</linearGradient>
<linearGradient id="paint1_linear_3711_73830" x1="10.4549" y1="8.93649" x2="19.8817" y2="26.9575" gradientUnits="userSpaceOnUse">
<stop stop-color="#CD7176"/>
<stop offset="0.229167" stop-color="#D9AE29"/>
<stop offset="0.494792" stop-color="#AFE38F"/>
<stop offset="0.723958" stop-color="#65C7D1"/>
<stop offset="1" stop-color="#187DD0"/>
</linearGradient>
<linearGradient id="paint2_linear_3711_73830" x1="9.10474" y1="4.05855" x2="23.6781" y2="28.1514" gradientUnits="userSpaceOnUse">
<stop stop-color="#A63C00"/>
<stop offset="0.167881" stop-color="#775AA8"/>
<stop offset="0.336907" stop-color="#DFC136"/>
<stop offset="0.588542" stop-color="#AADFBD"/>
<stop offset="0.859375" stop-color="#3596DD"/>
<stop offset="0.973958" stop-color="#003390"/>
</linearGradient>
<clipPath id="clip0_3711_73830">
<rect width="32" height="32" fill="white"/>
</clipPath>
</defs>
</svg>
