<svg width="32" height="32" viewBox="0 0 32 32" fill="none" xmlns="http://www.w3.org/2000/svg">
<g clip-path="url(#clip0_613_601)">
<path d="M16 32C24.837 32 32 24.837 32 16C32 7.163 24.837 0 16 0C7.163 0 0 7.163 0 16C0 24.837 7.163 32 16 32Z" fill="url(#paint0_linear_613_601)"/>
<path d="M16 31.75C24.698 31.75 31.75 24.698 31.75 16C31.75 7.302 24.698 0.25 16 0.25C7.302 0.25 0.25 7.302 0.25 16C0.25 24.698 7.302 31.75 16 31.75Z" stroke="white" stroke-width="0.5"/>
<path d="M12.1475 24.609V7.16897H9.10547V24.609H12.1485H12.1475ZM20.4715 24.608L13.8015 15.888L20.4715 7.16797H24.2875L17.7105 15.888L24.2875 24.608H20.4715Z" fill="white"/>
</g>
<defs>
<linearGradient id="paint0_linear_613_601" x1="16" y1="0" x2="16" y2="32" gradientUnits="userSpaceOnUse">
<stop stop-color="#FF564F"/>
<stop offset="1" stop-color="#DB433D"/>
</linearGradient>
<clipPath id="clip0_613_601">
<rect width="32" height="32" fill="white"/>
</clipPath>
</defs>
</svg>
