<svg width="32" height="32" viewBox="0 0 32 32" fill="none" xmlns="http://www.w3.org/2000/svg">
<g clip-path="url(#clip0_613_534)">
<path d="M16 32C24.8365 32 32 24.8365 32 16C32 7.16344 24.8365 0 16 0C7.16344 0 0 7.16344 0 16C0 24.8365 7.16344 32 16 32Z" fill="url(#paint0_linear_613_534)"/>
<path d="M8.79261 9.54316C8.91001 9.392 9.03445 9.24718 9.15889 9.10165C9.16451 9.09462 9.17717 9.09321 9.1828 9.08617C9.19405 9.07211 9.21232 9.06297 9.22357 9.04891L9.23481 9.03486C9.32129 8.9526 9.41339 8.86331 9.52025 8.78528C9.87528 8.50318 10.2734 8.28004 10.6993 8.12441C12.021 7.65056 13.4918 7.94302 14.6455 9.05665C16.2555 10.5998 16.1114 13.0872 14.8262 14.7401C13.2007 17.2035 10.4089 20.6414 14.275 23.7208C14.9703 24.2749 15.4856 24.7312 17.6749 25.3779C16.2435 25.6478 14.9155 25.5641 13.4376 25.1782C12.3922 24.5744 10.7485 23.2829 10.1896 21.5379C9.34379 18.8923 11.6772 14.9369 12.8049 13.4141C14.353 11.305 11.848 9.02361 10.0039 11.5715C9.03937 12.8988 7.35347 16.6566 7.9391 19.4435C8.28149 21.024 8.73846 22.1763 10.5495 23.7589C10.2079 23.552 9.88109 23.3216 9.57158 23.0691C5.36313 19.0617 5.85176 12.8651 8.79261 9.54316Z" fill="url(#paint1_linear_613_534)"/>
<path d="M23.1174 22.1915C23 22.3427 22.8755 22.4875 22.751 22.6331C22.7454 22.6401 22.7328 22.6414 22.7272 22.6485C22.716 22.6626 22.6976 22.6717 22.6864 22.6858L22.6752 22.6998C22.5886 22.7821 22.4966 22.8713 22.3898 22.9494C22.0347 23.2315 21.6366 23.4547 21.2107 23.6102C19.889 24.0842 18.4182 23.7917 17.2645 22.6781C15.6545 21.1349 15.7987 18.6475 17.0838 16.9945C18.7086 14.5311 21.5011 11.0932 17.635 8.01386C16.9397 7.45986 16.4243 7.00357 14.2344 6.35677C15.6665 6.0868 16.9946 6.17047 18.4723 6.55644C19.5178 7.16036 21.1614 8.45186 21.7205 10.1968C22.5662 12.8424 20.2328 16.7977 19.1051 18.3205C17.557 20.4297 20.0619 22.711 21.9061 20.1632C22.8706 18.8358 24.5565 15.0781 23.9709 12.2912C23.6278 10.7108 23.1715 9.55845 21.3605 7.97589C21.6958 8.17837 22.0221 8.40828 22.3384 8.66559C26.5461 12.673 26.0582 18.8696 23.1174 22.1915Z" fill="url(#paint2_linear_613_534)"/>
<path d="M27.1371 27.1371C25.6746 28.5996 23.9383 29.7598 22.0274 30.5513C20.1165 31.3428 18.0684 31.7502 16.0001 31.7502C13.9318 31.7502 11.8837 31.3428 9.9728 30.5513C8.06191 29.7598 6.32563 28.5996 4.8631 27.1371C3.40057 25.6746 2.24042 23.9383 1.4489 22.0274C0.657388 20.1165 0.25 18.0684 0.25 16.0001C0.25 13.9318 0.657388 11.8837 1.4489 9.9728C2.24042 8.06191 3.40057 6.32563 4.8631 4.8631C7.81681 1.90938 11.8229 0.25 16.0001 0.25C20.1773 0.25 24.1834 1.90938 27.1371 4.8631C30.0908 7.81681 31.7502 11.8229 31.7502 16.0001C31.7502 20.1773 30.0908 24.1834 27.1371 27.1371Z" stroke="white" stroke-width="0.5"/>
</g>
<defs>
<linearGradient id="paint0_linear_613_534" x1="16" y1="0" x2="16" y2="32" gradientUnits="userSpaceOnUse">
<stop stop-color="#174C6A"/>
<stop offset="1" stop-color="#0C131A"/>
</linearGradient>
<linearGradient id="paint1_linear_613_534" x1="6.49997" y1="15.8685" x2="25.4099" y2="15.8685" gradientUnits="userSpaceOnUse">
<stop stop-color="#0082FA"/>
<stop offset="1" stop-color="#00F2FE"/>
</linearGradient>
<linearGradient id="paint2_linear_613_534" x1="6.50015" y1="15.8662" x2="25.4101" y2="15.8662" gradientUnits="userSpaceOnUse">
<stop stop-color="#0082FA"/>
<stop offset="1" stop-color="#00F2FE"/>
</linearGradient>
<clipPath id="clip0_613_534">
<rect width="32" height="32" fill="white"/>
</clipPath>
</defs>
</svg>
