<svg width="20" height="20" viewBox="0 0 20 20" fill="none" xmlns="http://www.w3.org/2000/svg">
<path d="M10 20C15.5228 20 20 15.5228 20 10C20 4.47715 15.5228 0 10 0C4.47715 0 0 4.47715 0 10C0 15.5228 4.47715 20 10 20Z" fill="white"/>
<path d="M9.99966 19.9986C8.68593 20.0023 7.38453 19.7452 6.17076 19.2426C4.957 18.7399 3.85498 18.0016 2.9285 17.0702C1.99708 16.1438 1.25867 15.042 0.755997 13.8282C0.253327 12.6145 -0.00361695 11.313 4.01687e-05 9.99934C-0.00369585 8.68564 0.253213 7.38418 0.755888 6.17044C1.25856 4.9567 1.99702 3.85488 2.9285 2.92848C3.85493 1.99702 4.95692 1.25844 6.1707 0.755777C7.38447 0.253118 8.68592 -0.00369572 9.99966 4.01809e-05C11.3134 -0.00369572 12.6148 0.253118 13.8286 0.755777C15.0424 1.25844 16.1444 1.99702 17.0708 2.92848C18.0023 3.85488 18.7408 4.9567 19.2434 6.17044C19.7461 7.38418 20.003 8.68564 19.9993 9.99934C20.0029 11.313 19.746 12.6145 19.2433 13.8282C18.7406 15.042 18.0022 16.1438 17.0708 17.0702C16.1443 18.0016 15.0423 18.7399 13.8286 19.2426C12.6148 19.7452 11.3134 20.0023 9.99966 19.9986ZM9.99966 1.42851C7.72722 1.43097 5.54855 2.33478 3.94169 3.94159C2.33483 5.5484 1.43101 7.72697 1.42856 9.99934C1.43101 12.2717 2.33483 14.4503 3.94169 16.0571C5.54855 17.6639 7.72722 18.5677 9.99966 18.5702C12.2721 18.5677 14.4508 17.6639 16.0576 16.0571C17.6645 14.4503 18.5683 12.2717 18.5708 9.99934C18.5683 7.72697 17.6645 5.5484 16.0576 3.94159C14.4508 2.33478 12.2721 1.43097 9.99966 1.42851Z" fill="#161616"/>
<path opacity="0.41" d="M9.28464 19.9742V18.5408C9.52273 18.5608 9.76081 18.5708 9.9989 18.5708C10.237 18.5708 10.4751 18.5611 10.7132 18.5415V19.9749C10.4751 19.9916 10.237 20 9.9989 20C9.76081 20 9.52273 19.9913 9.28464 19.9742ZM15.5315 16.5411C15.8953 16.2329 16.2328 15.8951 16.5408 15.5311L17.5572 16.5474C17.402 16.7264 17.2396 16.9004 17.0701 17.0695C16.9005 17.2385 16.7265 17.401 16.5479 17.5567L15.5315 16.5411ZM2.92916 17.0702C2.75964 16.9007 2.59704 16.7264 2.44133 16.5474L3.45773 15.5311C3.76592 15.8951 4.10373 16.2329 4.46769 16.5411L3.4513 17.5574C3.27226 17.4021 3.09774 17.2397 2.92774 17.0702H2.92916ZM18.5407 10.7135C18.5603 10.4755 18.57 10.2374 18.57 9.9993C18.57 9.76122 18.5603 9.52315 18.5407 9.28507H19.9742C19.9909 9.52315 19.9992 9.76122 19.9992 9.9993C19.9992 10.2374 19.9909 10.4755 19.9742 10.7135H18.5407ZM0.0250017 10.7135C0.00833563 10.4755 0 10.2374 0 9.9993C0 9.76122 0.00833563 9.52315 0.0250017 9.28507H1.45851C1.43899 9.52315 1.42924 9.76122 1.42924 9.9993C1.42924 10.2374 1.43899 10.4755 1.45851 10.7135H0.0250017ZM2.44133 3.45191C2.59704 3.27287 2.75964 3.09887 2.92916 2.92983C3.09868 2.7608 3.27298 2.59811 3.45202 2.44193L4.46769 3.45749C4.1038 3.76601 3.766 4.10406 3.45773 4.46816L2.44133 3.45191ZM15.5315 3.45749L16.5472 2.44193C16.7263 2.59764 16.9005 2.76032 17.0701 2.92983C17.2396 3.09934 17.402 3.27335 17.5572 3.45191L16.5408 4.46816C16.2326 4.10396 15.8955 3.76589 15.5315 3.45749ZM9.28464 0.0251099C9.52273 0.00844435 9.76081 0 9.9989 0C10.237 0 10.4751 0.00844435 10.7132 0.0251099V1.45707C10.4775 1.43755 10.2394 1.42777 9.9989 1.42777C9.75843 1.42777 9.52035 1.43777 9.28464 1.45777V0.0251099Z" fill="white"/>
<g clip-path="url(#clip0_2549_50267)">
<path fill-rule="evenodd" clip-rule="evenodd" d="M15.4814 9.61367C15.5848 9.32844 16.0169 9.19301 16.2772 9.19301H16.3956V9.8259C16.2471 9.8259 16.0957 9.81799 15.953 9.86723C15.8538 9.89952 15.7658 9.95984 15.6994 10.0411C15.5781 10.2067 15.5882 10.309 15.5787 10.4644C15.5697 10.6153 15.5738 10.7185 15.5738 10.8698V11.9925H14.8903V9.22144H15.4826L15.4814 9.61367ZM7.17199 11.3362C6.6825 11.8213 6.26015 12.0558 5.56484 12.0558C4.40695 12.0558 3.60742 11.2371 3.60742 10.0842C3.60742 8.90016 4.51405 8.12305 5.57584 8.12305C6.19563 8.12376 6.78434 8.39798 7.18821 8.87407L6.69292 9.35394C6.358 8.99397 5.99239 8.80636 5.55963 8.80636C4.86489 8.80636 4.29782 9.34867 4.29782 10.0842C4.29782 10.8563 4.84376 11.3725 5.57526 11.3725C6.0335 11.3725 6.34265 11.1849 6.69292 10.8302L7.17199 11.3362ZM10.1044 11.4396C9.81089 11.8623 9.42387 12.0511 8.84753 12.0511C7.97708 12.0511 7.41579 11.4045 7.41579 10.5907C7.41579 9.8344 7.95653 9.13526 8.8374 9.13526C9.70263 9.13526 10.2897 9.76141 10.2897 10.6376C10.2897 10.7003 10.2848 10.7314 10.2848 10.7941H8.08013C8.147 11.2063 8.45645 11.4355 8.84753 11.4355C9.14105 11.4355 9.33703 11.3523 9.5275 11.1644L10.1044 11.4396ZM9.59958 10.2451C9.50695 9.92264 9.21342 9.72359 8.84695 9.72359C8.50711 9.72359 8.24427 9.89567 8.11053 10.2451H9.59958ZM10.6369 8.138H11.3218V11.9781H10.6369V8.138ZM14.3576 11.4396C14.064 11.8623 13.6776 12.0511 13.1007 12.0511C12.2302 12.0511 11.6689 11.4045 11.6689 10.5907C11.6689 9.8344 12.2097 9.13526 13.0905 9.13526C13.9558 9.13526 14.5431 9.76141 14.5431 10.6376C14.5431 10.7003 14.5379 10.7314 14.5379 10.7941H12.3333C12.4002 11.2063 12.7096 11.4355 13.1007 11.4355C13.3945 11.4355 13.5902 11.3523 13.7806 11.1644L14.3576 11.4396ZM13.8527 10.2451C13.7601 9.92264 13.4666 9.72359 13.1001 9.72359C12.7603 9.72359 12.4977 9.89567 12.3637 10.2451H13.8527Z" fill="black"/>
</g>
<defs>
<clipPath id="clip0_2549_50267">
<rect width="12.8571" height="4.03361" fill="white" transform="translate(3.57227 8.07227)"/>
</clipPath>
</defs>
</svg>
