<svg width="32" height="32" viewBox="0 0 32 32" fill="none" xmlns="http://www.w3.org/2000/svg">
<path d="M31.75 16C31.75 24.6985 24.6985 31.75 16 31.75C7.30151 31.75 0.25 24.6985 0.25 16C0.25 7.30151 7.30151 0.25 16 0.25C24.6985 0.25 31.75 7.30151 31.75 16Z" fill="url(#paint0_linear_2549_50257)" stroke="white" stroke-width="0.5"/>
<g clip-path="url(#clip0_2549_50257)">
<path fill-rule="evenodd" clip-rule="evenodd" d="M25.9189 15.1532C26.106 14.637 26.8883 14.3918 27.3593 14.3918H27.5736V15.5374C27.3048 15.5374 27.0308 15.5231 26.7725 15.6122C26.593 15.6707 26.4337 15.7799 26.3135 15.9269C26.0939 16.2267 26.1122 16.4119 26.095 16.6931C26.0787 16.9664 26.0861 17.1531 26.0861 17.4269V19.4592H24.8489V14.4433H25.921L25.9189 15.1532ZM10.878 18.2711C9.99198 19.1493 9.2275 19.5738 7.96891 19.5738C5.873 19.5738 4.42578 18.0918 4.42578 16.0049C4.42578 13.8617 6.06687 12.4551 7.98882 12.4551C9.1107 12.4564 10.1763 12.9527 10.9074 13.8145L10.0108 14.6831C9.4046 14.0315 8.74282 13.6919 7.95947 13.6919C6.70193 13.6919 5.67546 14.6736 5.67546 16.0049C5.67546 17.4025 6.66368 18.3369 7.98777 18.3369C8.81722 18.3369 9.37683 17.9973 10.0108 17.3553L10.878 18.2711ZM16.186 18.4584C15.6547 19.2236 14.9541 19.5653 13.9109 19.5653C12.3353 19.5653 11.3193 18.3948 11.3193 16.9218C11.3193 15.5528 12.2981 14.2873 13.8926 14.2873C15.4587 14.2873 16.5214 15.4207 16.5214 17.0067C16.5214 17.1202 16.5124 17.1765 16.5124 17.29H12.5218C12.6429 18.0361 13.203 18.451 13.9109 18.451C14.4422 18.451 14.7969 18.3003 15.1417 17.9602L16.186 18.4584ZM15.2722 16.2962C15.1045 15.7125 14.5732 15.3522 13.9099 15.3522C13.2947 15.3522 12.8189 15.6637 12.5769 16.2962H15.2722ZM17.1498 12.4821H18.3895V19.4332H17.1498V12.4821ZM23.8846 18.4584C23.3533 19.2236 22.6538 19.5653 21.6095 19.5653C20.0339 19.5653 19.018 18.3948 19.018 16.9218C19.018 15.5528 19.9967 14.2873 21.5912 14.2873C23.1574 14.2873 24.2205 15.4207 24.2205 17.0067C24.2205 17.1202 24.2111 17.1765 24.2111 17.29H20.2205C20.3415 18.0361 20.9016 18.451 21.6095 18.451C22.1414 18.451 22.4956 18.3003 22.8404 17.9602L23.8846 18.4584ZM22.9708 16.2962C22.8032 15.7125 22.2718 15.3522 21.6085 15.3522C20.9933 15.3522 20.5181 15.6637 20.2755 16.2962H22.9708Z" fill="white"/>
</g>
<defs>
<linearGradient id="paint0_linear_2549_50257" x1="16" y1="0" x2="16" y2="32" gradientUnits="userSpaceOnUse">
<stop stop-color="#575757"/>
<stop offset="1"/>
</linearGradient>
<clipPath id="clip0_2549_50257">
<rect width="23.2727" height="7.30125" fill="white" transform="translate(4.36328 12.3633)"/>
</clipPath>
</defs>
</svg>
