<svg width="32" height="32" viewBox="0 0 32 32" fill="none" xmlns="http://www.w3.org/2000/svg">
<g clip-path="url(#clip0_613_818)">
<path d="M16 32C24.8366 32 32 24.8366 32 16C32 7.16344 24.8366 0 16 0C7.16344 0 0 7.16344 0 16C0 24.8366 7.16344 32 16 32Z" fill="url(#paint0_linear_613_818)"/>
<path d="M16 31.75C24.6985 31.75 31.75 24.6985 31.75 16C31.75 7.30152 24.6985 0.25 16 0.25C7.30152 0.25 0.25 7.30152 0.25 16C0.25 24.6985 7.30152 31.75 16 31.75Z" stroke="white" stroke-width="0.5"/>
<path fill-rule="evenodd" clip-rule="evenodd" d="M15.9584 10.9085C16.9184 10.9085 17.8384 10.5255 18.5174 9.84348C19.1969 9.16 19.578 8.23524 19.5774 7.27148H12.3394C12.3394 8.23648 12.7214 9.16148 13.3994 9.84348C13.7349 10.181 14.1338 10.4488 14.5731 10.6316C15.0125 10.8143 15.4836 10.9084 15.9594 10.9085H15.9584ZM7.27344 19.6355V12.3625C8.23344 12.3625 9.15344 12.7455 9.83344 13.4275C10.5132 14.1107 10.8947 15.0352 10.8947 15.999C10.8947 16.9627 10.5132 17.8873 9.83344 18.5705C9.49798 18.908 9.0991 19.1758 8.65976 19.3586C8.22042 19.5413 7.74928 19.6354 7.27344 19.6355V19.6355ZM15.9584 19.6355C16.9205 19.6331 17.8422 19.2487 18.5208 18.5669C19.1995 17.885 19.5796 16.9615 19.5774 15.9995C19.5788 15.523 19.4862 15.0509 19.305 14.6103C19.1238 14.1696 18.8576 13.7689 18.5215 13.4312C18.1854 13.0934 17.7861 12.8252 17.3463 12.6418C16.9065 12.4585 16.4349 12.3635 15.9584 12.3625C15.482 12.3637 15.0106 12.4587 14.5709 12.6421C14.1312 12.8255 13.732 13.0938 13.396 13.4315C13.0601 13.7693 12.7939 14.1699 12.6128 14.6105C12.4317 15.0511 12.3391 15.5231 12.3404 15.9995C12.3394 16.4759 12.4322 16.9479 12.6135 17.3885C12.7949 17.829 13.0612 18.2296 13.3974 18.5672C13.7335 18.9048 14.1329 19.173 14.5727 19.3563C15.0124 19.5396 15.484 19.6344 15.9604 19.6355H15.9584ZM21.0244 15.9995C21.0244 16.9635 21.4054 17.8895 22.0844 18.5705C22.4198 18.9078 22.8185 19.1756 23.2577 19.3584C23.6968 19.5411 24.1678 19.6353 24.6434 19.6355V12.3625C23.6834 12.3625 22.7634 12.7455 22.0844 13.4275C21.405 14.111 21.0239 15.0357 21.0244 15.9995V15.9995ZM24.6434 7.27148V10.9085C24.1678 10.9083 23.6968 10.8141 23.2577 10.6314C22.8185 10.4486 22.4198 10.1808 22.0844 9.84348C21.405 9.16 21.0239 8.23524 21.0244 7.27148H24.6434V7.27148ZM7.27344 10.9095C8.23344 10.9095 9.15344 10.5265 9.83344 9.84448C10.5125 9.16084 10.8933 8.2361 10.8924 7.27248H7.27344V10.9095ZM13.4004 22.1555C13.7359 21.8184 14.1346 21.5508 14.5738 21.3683C15.013 21.1858 15.4839 21.0918 15.9594 21.0918C16.435 21.0918 16.9059 21.1858 17.3451 21.3683C17.7842 21.5508 18.183 21.8184 18.5184 22.1555C19.1977 22.8387 19.5788 23.7631 19.5784 24.7265H12.3404C12.3404 23.7625 12.7224 22.8365 13.4004 22.1555ZM21.0254 24.7265H24.6444V21.0905C23.6844 21.0905 22.7644 21.4735 22.0854 22.1555C21.4062 22.8387 21.0251 23.7631 21.0254 24.7265V24.7265ZM7.27544 24.7265V21.0905C8.23544 21.0905 9.15544 21.4735 9.83344 22.1555C10.5127 22.8387 10.8938 23.7631 10.8934 24.7265H7.27344H7.27544Z" fill="url(#paint1_linear_613_818)"/>
</g>
<defs>
<linearGradient id="paint0_linear_613_818" x1="16" y1="0" x2="16" y2="32" gradientUnits="userSpaceOnUse">
<stop stop-color="#B92B79"/>
<stop offset="1" stop-color="#1F1F2D"/>
</linearGradient>
<linearGradient id="paint1_linear_613_818" x1="15.9584" y1="7.27148" x2="15.9584" y2="24.7265" gradientUnits="userSpaceOnUse">
<stop stop-color="#FD9657"/>
<stop offset="1" stop-color="#E2376D"/>
</linearGradient>
<clipPath id="clip0_613_818">
<rect width="32" height="32" fill="white"/>
</clipPath>
</defs>
</svg>
