<svg width="32" height="32" viewBox="0 0 32 32" fill="none" xmlns="http://www.w3.org/2000/svg">
<g clip-path="url(#clip0_613_665)">
<path d="M16 32C24.837 32 32 24.837 32 16C32 7.163 24.837 0 16 0C7.163 0 0 7.163 0 16C0 24.837 7.163 32 16 32Z" fill="url(#paint0_linear_613_665)"/>
<path d="M16 31.75C24.698 31.75 31.75 24.698 31.75 16C31.75 7.302 24.698 0.25 16 0.25C7.302 0.25 0.25 7.302 0.25 16C0.25 24.698 7.302 31.75 16 31.75Z" fill="url(#paint1_linear_613_665)" stroke="white" stroke-width="0.5"/>
<path d="M11.9762 11.7642C8.67018 9.92122 7.38318 11.3612 7.09118 13.9222C6.33118 8.99622 7.88118 7.13322 10.6412 8.38222C11.8313 8.92831 12.9329 9.64965 13.9092 10.5222C14.4792 11.0222 15.2152 11.2922 15.9732 11.2792" fill="#E1DFEB"/>
<path d="M15.9609 11.2802C16.7245 11.2703 17.4604 10.9933 18.0409 10.4972C19.0409 9.64022 20.1559 8.92722 21.3549 8.38222C24.1169 7.13322 25.6709 8.99622 24.9109 13.9222C24.5659 14.1662 24.2289 14.4132 23.8729 14.6832C23.9059 13.9072 23.7989 13.0082 23.7869 12.3302C23.7479 10.1242 20.6499 10.9252 19.0469 12.7812C18.1169 13.8602 19.3819 15.3352 20.8289 16.3142C21.0879 16.3882 21.3519 16.4422 21.6189 16.4742C21.0339 16.9522 20.3629 17.5072 19.5629 18.1712C18.5579 17.2272 17.2729 16.0182 15.9879 14.8832" fill="#E1DFEB"/>
<path d="M16.0001 11.2799C15.2467 11.2634 14.5223 10.9864 13.9501 10.4959C12.9515 9.63931 11.8373 8.92765 10.6401 8.38193C7.88211 7.13393 6.33111 8.99493 7.09111 13.9219C7.43511 14.1659 7.77111 14.4119 8.12711 14.6819C8.09411 13.9069 8.20211 13.0069 8.21311 12.3289C8.25111 10.1229 11.3461 10.9239 12.9441 12.7799C13.8731 13.8589 12.6091 15.3339 11.1661 16.3129C10.9073 16.3864 10.6432 16.4399 10.3761 16.4729C10.9591 16.9509 11.6301 17.5059 12.4291 18.1699C13.4321 17.2259 14.7171 16.0159 16.0011 14.8799C17.2851 13.7449 16.0011 11.2799 16.0011 11.2799H16.0001ZM17.2151 21.2739C17.8341 22.6927 18.8704 23.8894 20.1861 24.7049C23.3391 26.2629 25.1701 23.8399 24.3701 21.2349C24.0121 20.0659 22.6691 17.7539 20.5801 16.9029C20.0551 16.6889 16.6341 19.8819 17.2151 21.2729V21.2739ZM18.6451 18.9659C18.7941 18.1309 19.1971 18.1999 19.4191 18.2959C20.3221 18.6819 21.4081 19.6319 21.7911 20.5899C22.3401 21.9589 21.3991 22.8189 20.1711 22.0199C19.0521 21.2929 18.4391 20.1269 18.6461 18.9659H18.6451Z" fill="#E1DFEB"/>
<path d="M11.4227 16.9029C9.3337 17.7529 7.9907 20.0659 7.6327 21.2349C6.8327 23.8389 8.6627 26.2629 11.8167 24.7049C13.1324 23.8894 14.1687 22.6927 14.7877 21.2739C15.3677 19.8819 11.9467 16.6879 11.4227 16.9029ZM11.8307 22.0209C10.6037 22.8189 9.6617 21.9589 10.2107 20.5909C10.5947 19.6319 11.6807 18.6809 12.5827 18.2949C12.8057 18.1999 13.2087 18.1309 13.3567 18.9659C13.5627 20.1259 12.9497 21.2929 11.8307 22.0209Z" fill="#E1DFEB"/>
<path d="M21.3602 8.38303C27.3842 6.29703 23.8262 16.983 16.0002 16.983C8.1742 16.983 4.6162 6.29703 10.6412 8.38303C4.0742 4.97303 2.3722 13.519 10.2462 18.194C12.5852 19.583 14.9422 22.141 11.8172 24.704C13.7972 23.719 14.2872 21.939 16.0002 21.939C17.7142 21.939 18.2062 23.719 20.1832 24.704C17.0592 22.141 19.4152 19.583 21.7552 18.194C29.6282 13.52 27.9252 4.97202 21.3592 8.38402L21.3602 8.38303Z" fill="white"/>
</g>
<defs>
<linearGradient id="paint0_linear_613_665" x1="16" y1="0" x2="16" y2="32" gradientUnits="userSpaceOnUse">
<stop stop-color="#353340"/>
<stop offset="1" stop-color="#00000E"/>
</linearGradient>
<linearGradient id="paint1_linear_613_665" x1="16" y1="0.25" x2="16" y2="31.75" gradientUnits="userSpaceOnUse">
<stop stop-color="#353340"/>
<stop offset="1" stop-color="#00000E"/>
</linearGradient>
<clipPath id="clip0_613_665">
<rect width="32" height="32" fill="white"/>
</clipPath>
</defs>
</svg>
