<svg width="64" height="64" viewBox="0 0 64 64" fill="none" xmlns="http://www.w3.org/2000/svg">
<circle cx="32" cy="32" r="32" fill="url(#paint0_linear_724_10924)"/>
<path d="M49.646 20.9653V18.422H41.5895C41.1567 16.778 40.7247 15.3305 40.253 14L37.541 14.4695C38.0594 15.7654 38.5184 17.0842 38.9165 18.422H30.389V20.9653H49.646ZM29.0127 39.8652V23.6262H25.043C25.868 22.4127 26.6938 20.9262 27.5195 19.1262V17.2475H21.0342C21.3882 16.4653 21.7025 15.6823 22.0167 14.861L19.502 14.078C18.323 17.9128 16.4757 21.0042 14 23.3915L14.5895 26.1695C15.0995 25.7 15.611 25.2305 16.082 24.722V39.8652H29.0127ZM22.3318 23.6262H17.0653C18.1281 22.3206 19.0873 20.9339 19.934 19.4788H24.8862C24.0215 21.0433 23.1965 22.4525 22.3318 23.6262ZM38.5243 50C40.4893 50 41.5107 48.905 41.5107 46.7525V35.6H47.7598V24.4872H32.471V35.6H38.7598V46.0872C38.7598 47.0653 38.3667 47.5737 37.5807 47.5737C36.6762 47.5737 35.7335 47.4958 34.7908 47.3787L35.3405 50H38.5235H38.5243ZM21.4272 30.5915H18.5195V25.9347H21.4272V30.5915ZM26.576 30.5915H23.7072V25.9347H26.576V30.5915ZM45.0868 33.1348H35.144V26.9915H45.0868V33.1348ZM26.5767 37.5177H23.7072V32.8602H26.576V37.5177H26.5767ZM21.4272 37.5177H18.5195V32.8602H21.4272V37.5177ZM47.9172 48.2L50 46.7525C48.9388 44.2475 47.4447 41.3525 45.4797 38.0262L43.397 39.2788C45.2832 42.5263 46.8162 45.5 47.9165 48.2H47.9172ZM31.4495 48.8652C33.179 46.1652 34.6722 42.9567 35.93 39.278L33.65 38.183C32.432 41.7043 30.9778 44.7568 29.327 47.339L31.4495 48.8652ZM28.187 46.2043L30.113 45.7347C29.5633 43.8568 29.0127 42.2127 28.3842 40.8042L26.537 41.3518C27.175 42.938 27.7258 44.5579 28.187 46.2043ZM24.0215 48.4738L26.0653 48.239C25.829 45.2653 25.3977 42.9178 24.7677 41.1958L22.8027 41.4305C23.432 43.0738 23.825 45.422 24.0215 48.4738ZM16.5147 49.5305C17.3397 47.222 17.8513 44.6 18.0868 41.6255L15.9642 41.3525C15.7685 44.1695 15.218 46.6737 14.3533 48.8652L16.5147 49.5305ZM19.8163 49.061L21.86 48.8263C21.7812 45.7348 21.5848 43.2695 21.3095 41.4695L19.4232 41.7043C19.6197 43.4262 19.7383 45.8915 19.8163 49.061Z" fill="white"/>
<defs>
<linearGradient id="paint0_linear_724_10924" x1="12.2553" y1="7.14894" x2="54.8085" y2="51.4043" gradientUnits="userSpaceOnUse">
<stop offset="0.0001" stop-color="#FF6D69"/>
<stop offset="0.322917" stop-color="#E53935"/>
<stop offset="1" stop-color="#921411"/>
</linearGradient>
</defs>
</svg>
