<svg width="32" height="32" viewBox="0 0 32 32" fill="none" xmlns="http://www.w3.org/2000/svg">
<g clip-path="url(#clip0_613_898)">
<path d="M16 32C24.837 32 32 24.837 32 16C32 7.163 24.837 0 16 0C7.163 0 0 7.163 0 16C0 24.837 7.163 32 16 32Z" fill="url(#paint0_linear_613_898)"/>
<path d="M16 31.75C24.698 31.75 31.75 24.698 31.75 16C31.75 7.302 24.698 0.25 16 0.25C7.302 0.25 0.25 7.302 0.25 16C0.25 24.698 7.302 31.75 16 31.75Z" stroke="white" stroke-width="0.5"/>
<path d="M12.0586 6.19922L22.5046 24.2492L25.9826 18.2312L19.0206 6.19922H12.0586V6.19922Z" fill="white"/>
<path d="M12.0586 18.5762L15.6716 24.2492H22.5106L19.2806 18.5762H12.0586V18.5762Z" fill="white" fill-opacity="0.83"/>
<path d="M8.96547 11.873L5.35547 18.062L8.96847 24.25L16.1845 11.873H8.96447H8.96547Z" fill="white"/>
</g>
<defs>
<linearGradient id="paint0_linear_613_898" x1="16" y1="0" x2="16" y2="32" gradientUnits="userSpaceOnUse">
<stop stop-color="#ED3324"/>
<stop offset="1" stop-color="#AD1F23"/>
</linearGradient>
<clipPath id="clip0_613_898">
<rect width="32" height="32" fill="white"/>
</clipPath>
</defs>
</svg>
