<svg width="32" height="32" viewBox="0 0 32 32" fill="none" xmlns="http://www.w3.org/2000/svg">
<g clip-path="url(#clip0_613_474)">
<path d="M16 32C24.8365 32 32 24.8365 32 16C32 7.16344 24.8365 0 16 0C7.16344 0 0 7.16344 0 16C0 24.8365 7.16344 32 16 32Z" fill="url(#paint0_linear_613_474)"/>
<path fill-rule="evenodd" clip-rule="evenodd" d="M19.1476 7.7017C20.418 8.49207 21.6953 9.51608 22.7244 10.6843C24.8957 12.5814 26.5991 15.0901 26.2657 17.6949C25.9887 19.8186 24.0727 22.7397 19.4881 24.5746C18.7986 24.8531 18.0897 25.0806 17.3668 25.2554H17.366C17.2596 25.3038 17.1537 25.3518 17.0473 25.3933C15.4216 26.0382 13.825 26.3822 12.4342 26.3822C11.2061 26.3822 10.1986 26.1072 9.5245 25.5918C8.04816 24.465 7.33856 21.5781 7.40239 17.0077C7.46623 12.6366 8.04856 9.9286 9.21914 8.62287C9.6238 7.26199 10.2057 6.37548 10.9792 5.91488C12.5761 4.95943 15.9326 5.69503 19.1476 7.7017ZM11.9799 24.0592C12.0863 24.1762 12.1927 24.2718 12.3062 24.3618C13.2998 25.1174 15.1024 25.2411 17.189 24.7534C19.8927 23.5989 21.5676 22.0662 22.4687 20.6021C21.4116 21.5781 19.9921 22.4989 18.1397 23.2411C16.5145 23.8874 14.918 24.2309 13.5268 24.2309C12.9594 24.2309 12.4413 24.1691 11.9799 24.0592ZM11.4689 23.324C12.9023 23.9835 15.3435 23.7842 17.9341 22.7464C20.4676 21.7294 22.1421 20.3822 23.15 19.049C23.2071 18.8358 23.2497 18.6365 23.2709 18.4442C23.6823 15.2343 20.6945 12.1279 17.7569 10.2927C15.7127 9.01452 13.6407 8.26551 12.065 8.16898C11.0075 9.37188 10.4614 12.0109 10.3968 16.1971C10.3472 19.5371 10.7093 21.9221 11.4685 23.3243L11.4689 23.324ZM23.8599 17.908C24.1436 17.3445 24.3068 16.7946 24.3709 16.2925C24.605 14.4439 23.7106 12.6228 22.3553 11.0763C21.6853 10.4894 20.9684 9.95839 20.2119 9.4885C18.0759 8.15559 15.8195 7.35852 14.1659 7.35852C13.5276 7.35852 13.0091 7.47554 12.6261 7.70208L12.6119 7.70919C14.2155 7.92194 16.1604 8.66424 18.0551 9.84664C20.9506 11.6539 23.8957 14.6783 23.8604 17.9083L23.8599 17.908ZM11.3767 8.17607C10.9012 8.21036 10.4965 8.32028 10.1774 8.51295C10.0084 8.6138 9.85335 8.73616 9.71599 8.87701C9.30424 10.3065 9.0844 12.293 9.04893 14.8564C8.9922 18.8426 9.51741 21.4749 10.61 22.6915C10.0639 21.1726 9.80818 19.001 9.85074 16.1898C9.90748 12.1965 10.3972 9.59213 11.3767 8.17607ZM11.8235 7.64693C11.9776 7.49436 12.1491 7.36052 12.3345 7.2482C13.619 6.47162 16.0677 6.80848 18.665 8.03188C16.5858 6.76712 14.4137 6.01812 12.8172 6.01812C12.1785 6.01812 11.6604 6.13474 11.2774 6.36879C10.7806 6.66428 10.3618 7.20013 10.0351 7.98341C10.5107 7.74306 11.121 7.63274 11.8239 7.64693H11.8235ZM10.6242 23.4339C9.14823 22.3066 8.43154 19.4202 8.50245 14.8497C8.52373 13.1039 8.6372 11.6193 8.83578 10.3821C8.28968 11.8391 7.99852 14.0318 7.95597 17.0077C7.89215 21.4059 8.53082 24.1482 9.86492 25.1726C10.8515 25.9216 12.6466 26.0525 14.7261 25.5642C13.5693 25.5366 12.6182 25.2688 11.9728 24.7739C11.632 24.5126 11.3342 24.1624 11.0785 23.7222C10.9153 23.6333 10.7664 23.5371 10.6242 23.4339ZM24.9103 16.3614C24.7965 17.2413 24.406 18.2586 23.6538 19.2755C23.2567 20.657 22.1993 22.2581 20.2615 23.6538C23.9095 21.9083 25.4781 19.4474 25.7122 17.6333C25.9036 16.1693 25.3785 14.7189 24.4703 13.4061C24.8604 14.3548 25.0377 15.3513 24.9103 16.3614Z" fill="white"/>
<path d="M27.1371 27.1371C25.6746 28.5996 23.9383 29.7598 22.0274 30.5513C20.1165 31.3428 18.0684 31.7502 16.0001 31.7502C13.9318 31.7502 11.8837 31.3428 9.9728 30.5513C8.06191 29.7598 6.32563 28.5996 4.8631 27.1371C3.40057 25.6746 2.24042 23.9383 1.4489 22.0274C0.657388 20.1165 0.25 18.0684 0.25 16.0001C0.25 13.9318 0.657388 11.8837 1.4489 9.9728C2.24042 8.06191 3.40057 6.32563 4.8631 4.8631C7.81681 1.90938 11.8229 0.25 16.0001 0.25C20.1773 0.25 24.1834 1.90938 27.1371 4.8631C30.0908 7.81681 31.7502 11.8229 31.7502 16.0001C31.7502 20.1773 30.0908 24.1834 27.1371 27.1371Z" stroke="white" stroke-width="0.5"/>
</g>
<defs>
<linearGradient id="paint0_linear_613_474" x1="16" y1="0" x2="16" y2="32" gradientUnits="userSpaceOnUse">
<stop stop-color="#FF7B61"/>
<stop offset="1" stop-color="#E05A41"/>
</linearGradient>
<clipPath id="clip0_613_474">
<rect width="32" height="32" fill="white"/>
</clipPath>
</defs>
</svg>
