<svg width="200" height="200" viewBox="0 0 200 200" fill="none" xmlns="http://www.w3.org/2000/svg">
<g clip-path="url(#clip0_1225_2137)">
<path d="M100 200C155.228 200 200 155.228 200 100C200 44.7715 155.228 0 100 0C44.7715 0 0 44.7715 0 100C0 155.228 44.7715 200 100 200Z" fill="url(#paint0_linear_1225_2137)"/>
<path d="M65.1856 127.033C65.1856 108.444 80.1164 93.2612 99.4907 93.2612C117.257 93.2612 131.521 108.278 131.521 126.511C131.5 128.393 131.364 130.272 131.115 132.139H80.6607C82.8134 142.484 91.4241 147.851 101.383 147.851C108.185 147.876 114.837 145.915 120.481 142.224L126.403 152.957C118.945 157.927 110.131 160.616 101.091 160.678C82.1391 160.678 65.1856 148.373 65.1856 127.033ZM116.98 121.445C116.404 117.129 114.22 113.169 110.842 110.315C107.464 107.461 103.127 105.912 98.654 105.962C90.0432 105.962 82.5047 112.111 80.4901 121.406L116.98 121.445Z" fill="white"/>
<path d="M153.529 65.115C152.399 65.1123 151.315 64.6748 150.515 63.8979C143.67 57.2208 135.538 51.9233 126.586 48.3087C117.633 44.6941 108.036 42.8335 98.3427 42.8335C88.6498 42.8335 79.0522 44.6941 70.0995 48.3087C61.1469 51.9233 53.0152 57.2208 46.1702 63.8979C45.3556 64.5948 44.2986 64.9636 43.2144 64.929C42.1302 64.8945 41.1002 64.4593 40.3342 63.712C39.5682 62.9647 39.1236 61.9614 39.0911 60.9065C39.0585 59.8515 39.4404 58.8241 40.1589 58.0334C47.7963 50.5878 56.868 44.6807 66.8548 40.6504C76.8415 36.62 87.5471 34.5454 98.3589 34.5454C109.171 34.5454 119.876 36.62 129.863 40.6504C139.85 44.6807 148.922 50.5878 156.559 58.0334C157.166 58.612 157.581 59.3538 157.752 60.1636C157.923 60.9734 157.841 61.8144 157.517 62.5787C157.193 63.343 156.642 63.9958 155.935 64.4533C155.227 64.9109 154.395 65.1523 153.545 65.1466L153.529 65.115Z" fill="#296FA8"/>
<path d="M141.468 76.8349C140.904 76.8381 140.346 76.7313 139.825 76.5209C139.305 76.3105 138.833 76.0007 138.438 75.6098C133.172 70.476 126.918 66.403 120.033 63.624C113.147 60.8449 105.766 59.4145 98.3122 59.4145C90.8579 59.4145 83.4768 60.8449 76.5916 63.624C69.7063 66.403 63.452 70.476 58.1867 75.6098C57.7909 75.9944 57.3212 76.2993 56.8043 76.5072C56.2874 76.7151 55.7335 76.822 55.1741 76.8216C54.6148 76.8212 54.061 76.7137 53.5444 76.5051C53.0278 76.2965 52.5585 75.9909 52.1632 75.6059C51.768 75.2208 51.4546 74.7638 51.2409 74.2609C51.0272 73.7579 50.9174 73.219 50.9178 72.6748C50.9181 72.1306 51.0287 71.5918 51.2431 71.0892C51.4575 70.5866 51.7715 70.1299 52.1673 69.7454C58.2227 63.8404 65.4158 59.1556 73.3347 55.9591C81.2536 52.7625 89.7428 51.1172 98.3162 51.1172C106.89 51.1172 115.379 52.7625 123.298 55.9591C131.217 59.1556 138.41 63.8404 144.465 69.7454C145.072 70.3239 145.488 71.0657 145.658 71.8755C145.829 72.6854 145.747 73.5264 145.423 74.2907C145.1 75.055 144.549 75.7078 143.841 76.1653C143.133 76.6228 142.301 76.8642 141.451 76.8586L141.468 76.8349Z" fill="#296FA8"/>
<path d="M129.413 88.5761C128.283 88.5763 127.2 88.1416 126.399 87.3668C122.716 83.7739 118.341 80.9233 113.525 78.9783C108.708 77.0332 103.544 76.032 98.3286 76.032C93.1134 76.032 87.9494 77.0332 83.1326 78.9783C78.3158 80.9233 73.9408 83.7739 70.2582 87.3668C69.4497 88.0998 68.3804 88.4988 67.2756 88.4798C66.1707 88.4609 65.1165 88.0254 64.3351 87.2652C63.5538 86.5049 63.1062 85.4793 63.0867 84.4043C63.0672 83.3294 63.4773 82.289 64.2306 81.5024C68.7064 77.135 74.0239 73.6698 79.8786 71.3055C85.7333 68.9412 92.0099 67.7241 98.3489 67.7241C104.688 67.7241 110.965 68.9412 116.819 71.3055C122.674 73.6698 127.991 77.135 132.467 81.5024C133.064 82.0816 133.471 82.8202 133.636 83.6246C133.8 84.429 133.716 85.2628 133.393 86.0205C133.071 86.7782 132.524 87.4256 131.822 87.8805C131.121 88.3355 130.296 88.5776 129.453 88.5761H129.413Z" fill="#296FA8"/>
</g>
<defs>
<linearGradient id="paint0_linear_1225_2137" x1="100" y1="0" x2="100" y2="200" gradientUnits="userSpaceOnUse">
<stop stop-color="#8CC8FB"/>
<stop offset="0.984375" stop-color="#4C92CE"/>
</linearGradient>
<clipPath id="clip0_1225_2137">
<rect width="200" height="200" fill="white"/>
</clipPath>
</defs>
</svg>
