<svg width="800" height="137" viewBox="0 0 800 137" fill="none" xmlns="http://www.w3.org/2000/svg">
<g clip-path="url(#clip0_890_9054)">
<path d="M50.4694 110.053L22.1751 61.0441C20.7411 58.5603 20.7411 55.4876 22.1751 53.0039L50.4694 4.0201C51.9033 1.53634 54.5663 0 57.4342 0H114.023C116.891 0 119.554 1.53634 120.988 4.0201L149.282 53.0295L135.378 61.0697L109.363 16.0804H62.0432L38.3835 57.0496L64.3477 102.039L50.4438 110.079L50.4694 110.053Z" fill="black"/>
<path d="M91.8222 136.684H35.2591C32.3913 136.684 29.7283 135.147 28.2943 132.663L0 83.6541L13.9039 75.6139L39.8681 120.603H87.1619L110.822 79.634L84.8574 34.6447L98.7613 26.6045L127.056 75.6139C128.49 78.0976 128.49 81.1703 127.056 83.6541L98.7613 132.663C97.3274 135.147 94.6644 136.684 91.7966 136.684H91.8222Z" fill="black"/>
<path fill-rule="evenodd" clip-rule="evenodd" d="M290.847 47.6088L305.121 33.334L309.539 37.7518L295.291 52.0006C295.985 52.8878 296.624 53.8283 297.206 54.8219C299.562 58.842 300.739 63.3486 300.739 68.3673C300.739 73.386 299.562 77.8926 297.206 81.9127C294.85 85.9328 291.573 89.0568 287.399 91.3613C283.225 93.6402 278.539 94.7924 273.392 94.7924C268.246 94.7924 263.483 93.6402 259.309 91.3613V91.3101C258.592 90.9182 257.901 90.4999 257.236 90.0553L243.941 103.35L239.523 98.932L252.494 85.9618C251.359 84.7048 250.345 83.3286 249.451 81.8359C247.07 77.8158 245.866 73.3092 245.866 68.3417C245.866 63.3742 247.07 58.8676 249.451 54.8475C251.832 50.8274 255.11 47.6523 259.309 45.3734C263.483 43.0944 268.195 41.9422 273.392 41.9422C278.59 41.9422 283.225 43.0944 287.399 45.3734C288.626 46.0433 289.775 46.7884 290.847 47.6088ZM285.872 52.5836C285.162 52.0373 284.408 51.5371 283.609 51.0834C280.588 49.3679 277.182 48.4973 273.392 48.4973C269.603 48.4973 266.172 49.3679 263.099 51.0834C260.026 52.799 257.619 55.1804 255.878 58.2018C254.137 61.2233 253.266 64.6033 253.266 68.3417C253.266 72.0801 254.137 75.4601 255.878 78.4816C256.377 79.3465 256.93 80.1589 257.537 80.9183L285.872 52.5836ZM262.215 85.0764C262.503 85.2573 262.798 85.4318 263.099 85.6C266.172 87.3156 269.603 88.1861 273.392 88.1861C277.182 88.1861 280.588 87.3156 283.609 85.6C286.631 83.8844 289.012 81.5031 290.753 78.4816C292.494 75.4601 293.365 72.0801 293.365 68.3417C293.365 64.6033 292.494 61.2233 290.753 58.2018C290.55 57.85 290.339 57.5068 290.119 57.1723L262.215 85.0764ZM206.971 91.31C202.823 89.0311 199.571 85.8816 197.19 81.8615C194.834 77.867 193.656 73.3348 193.656 68.3161C193.656 63.2974 194.834 58.7908 197.19 54.7707C199.546 50.7506 202.823 47.6267 206.997 45.3221C211.171 43.0432 215.856 41.891 221.003 41.891C225.023 41.891 228.736 42.5567 232.065 43.9138C235.419 45.2709 238.261 47.2682 240.617 49.9312L235.829 54.5658C231.937 50.4945 227.097 48.446 221.31 48.446C217.47 48.446 214.013 49.3166 210.915 51.0322C207.816 52.7478 205.384 55.1291 203.642 58.1506C201.901 61.1721 201.031 64.5521 201.031 68.2905C201.031 72.0289 201.901 75.4089 203.642 78.4304C205.384 81.4518 207.816 83.8332 210.915 85.5488C214.013 87.2643 217.47 88.1349 221.31 88.1349C227.072 88.1349 231.911 86.0609 235.829 81.9384L240.617 86.573C238.261 89.236 235.394 91.2588 232.014 92.6159C228.634 93.9986 224.946 94.69 220.901 94.69C215.728 94.69 211.068 93.5377 206.92 91.2588L206.971 91.31ZM307.32 88.263C309.394 90.1834 312.236 91.7453 315.847 92.9488L315.898 92.8976C319.508 94.1267 323.247 94.7156 327.139 94.7156C331.518 94.7156 335.205 94.0755 338.201 92.7696C341.196 91.4893 343.424 89.6969 344.909 87.4692C346.369 85.2159 347.111 82.7577 347.111 80.0435C347.111 76.8172 346.266 74.231 344.576 72.3106C342.861 70.3902 340.838 68.9562 338.482 68.0344C336.127 67.1126 333.003 66.1908 329.111 65.2434C326.115 64.5521 323.733 63.9119 321.992 63.2974C320.251 62.6828 318.791 61.8378 317.614 60.7112C316.436 59.5845 315.847 58.1506 315.847 56.3838C315.847 53.9769 316.897 52.0052 318.971 50.4945C321.045 48.9838 324.194 48.2156 328.368 48.2156C330.724 48.2156 333.131 48.5741 335.589 49.291C338.047 49.9824 340.352 51.0322 342.528 52.4149L344.961 46.5256C342.835 45.0405 340.3 43.9138 337.356 43.1201C334.411 42.3263 331.415 41.9422 328.368 41.9422C323.989 41.9422 320.328 42.6079 317.383 43.9394C314.438 45.2453 312.236 47.0377 310.777 49.2398C309.317 51.4419 308.6 53.9257 308.6 56.6911C308.6 59.9942 309.445 62.606 311.135 64.5521C312.825 66.4981 314.874 67.9576 317.255 68.8794C319.636 69.8012 322.76 70.7486 326.652 71.6704C329.751 72.413 332.158 73.0788 333.848 73.6677C335.538 74.2566 336.972 75.1016 338.124 76.2027C339.276 77.3293 339.865 78.7632 339.865 80.53C339.865 82.937 338.815 84.8574 336.69 86.3169C334.565 87.7765 331.364 88.4934 327.088 88.4934C323.836 88.4934 320.686 87.9301 317.614 86.829C314.541 85.7024 312.032 84.2685 310.06 82.5017L307.32 88.263ZM405.723 94.1523L405.646 56.5375L386.98 87.8789H383.6L364.933 56.7423V94.1523H357.84V42.5311H363.883L385.418 78.8145L406.67 42.5311H412.713L412.79 94.1779H405.697L405.723 94.1523ZM427.667 81.8359C430.074 85.856 433.352 89.0311 437.525 91.3101V91.3613C441.699 93.6402 446.462 94.7924 451.608 94.7924C456.755 94.7924 461.441 93.6402 465.615 91.3613C469.789 89.0568 473.066 85.9328 475.422 81.9127C477.777 77.8926 478.955 73.386 478.955 68.3673C478.955 63.3486 477.777 58.842 475.422 54.8219C473.066 50.8018 469.789 47.6523 465.615 45.3734C461.441 43.0944 456.806 41.9422 451.608 41.9422C446.41 41.9422 441.699 43.0944 437.525 45.3734C433.326 47.6523 430.048 50.8274 427.667 54.8475C425.286 58.8676 424.082 63.3742 424.082 68.3417C424.082 73.3092 425.286 77.8158 427.667 81.8359ZM468.969 78.4816C467.228 81.5031 464.847 83.8844 461.825 85.6C458.804 87.3156 455.398 88.1861 451.608 88.1861C447.819 88.1861 444.388 87.3156 441.315 85.6C438.242 83.8844 435.835 81.5031 434.094 78.4816C432.353 75.4601 431.482 72.0801 431.482 68.3417C431.482 64.6033 432.353 61.2233 434.094 58.2018C435.835 55.1804 438.242 52.799 441.315 51.0834C444.388 49.3679 447.819 48.4973 451.608 48.4973C455.398 48.4973 458.804 49.3679 461.825 51.0834C464.847 52.799 467.228 55.1804 468.969 58.2018C470.71 61.2233 471.581 64.6033 471.581 68.3417C471.581 72.0801 470.71 75.4601 468.969 78.4816ZM494.063 92.9488C490.452 91.7453 487.61 90.1834 485.536 88.263L488.276 82.5017C490.247 84.2685 492.757 85.7024 495.83 86.829C498.902 87.9301 502.052 88.4934 505.304 88.4934C509.58 88.4934 512.781 87.7765 514.906 86.3169C517.031 84.8574 518.081 82.937 518.081 80.53C518.081 78.7632 517.492 77.3293 516.34 76.2027C515.187 75.1016 513.754 74.2566 512.064 73.6677C510.374 73.0788 507.967 72.413 504.868 71.6704C500.976 70.7486 497.852 69.8012 495.471 68.8794C493.09 67.9576 491.041 66.4981 489.351 64.5521C487.661 62.606 486.816 59.9942 486.816 56.6911C486.816 53.9257 487.533 51.4419 488.993 49.2398C490.452 47.0377 492.654 45.2453 495.599 43.9394C498.544 42.6079 502.205 41.9422 506.584 41.9422C509.631 41.9422 512.627 42.3263 515.572 43.1201C518.516 43.9138 521.051 45.0405 523.176 46.5256L520.744 52.4149C518.567 51.0322 516.263 49.9824 513.805 49.291C511.347 48.5741 508.94 48.2156 506.584 48.2156C502.41 48.2156 499.261 48.9838 497.187 50.4945C495.113 52.0052 494.063 53.9769 494.063 56.3838C494.063 58.1506 494.652 59.5845 495.83 60.7112C497.007 61.8378 498.467 62.6828 500.208 63.2974C501.949 63.9119 504.331 64.5521 507.327 65.2434C511.219 66.1908 514.342 67.1126 516.698 68.0344C519.054 68.9562 521.077 70.3902 522.792 72.3106C524.482 74.231 525.327 76.8172 525.327 80.0435C525.327 82.7577 524.585 85.2159 523.125 87.4692C521.64 89.6969 519.412 91.4893 516.417 92.7696C513.421 94.0755 509.733 94.7156 505.355 94.7156C501.463 94.7156 497.724 94.1267 494.114 92.8976L494.063 92.9488ZM527.888 48.9326H545.582H545.607V94.1523H552.905V48.9326H570.598V42.5055H527.888V48.9326ZM608.905 81.247H581.506L575.822 94.1523H568.217L591.595 42.5055H598.893L622.348 94.1523H614.589L608.905 81.247ZM606.37 75.3577L595.231 50.0592L584.093 75.3577H606.37ZM620.043 48.9326H637.737H637.762V94.1523H645.06V48.9326H662.753V42.5055H620.043V48.9326ZM670.768 42.5311H678.142V94.1779H670.768V42.5311ZM692.994 81.8359C695.401 85.856 698.678 89.0311 702.852 91.3101V91.3613C707.026 93.6402 711.788 94.7924 716.935 94.7924C722.082 94.7924 726.768 93.6402 730.941 91.3613C735.115 89.0568 738.393 85.9328 740.748 81.9127C743.104 77.8926 744.282 73.386 744.282 68.3673C744.282 63.3486 743.104 58.842 740.748 54.8219C738.393 50.8018 735.115 47.6523 730.941 45.3734C726.768 43.0944 722.133 41.9422 716.935 41.9422C711.737 41.9422 707.026 43.0944 702.852 45.3734C698.652 47.6523 695.375 50.8274 692.994 54.8475C690.612 58.8676 689.409 63.3742 689.409 68.3417C689.409 73.3092 690.612 77.8158 692.994 81.8359ZM734.296 78.4816C732.555 81.5031 730.173 83.8844 727.152 85.6C724.13 87.3156 720.725 88.1861 716.935 88.1861C713.145 88.1861 709.714 87.3156 706.642 85.6C703.569 83.8844 701.162 81.5031 699.421 78.4816C697.679 75.4601 696.809 72.0801 696.809 68.3417C696.809 64.6033 697.679 61.2233 699.421 58.2018C701.162 55.1804 703.569 52.799 706.642 51.0834C709.714 49.3679 713.145 48.4973 716.935 48.4973C720.725 48.4973 724.13 49.3679 727.152 51.0834C730.173 52.799 732.555 55.1804 734.296 58.2018C736.037 61.2233 736.908 64.6033 736.908 68.3417C736.908 72.0801 736.037 75.4601 734.296 78.4816ZM800 42.5311V94.1779H793.957L762.974 55.6669V94.1779H755.6V42.5311H761.643L792.626 81.0421V42.5311H800Z" fill="black"/>
</g>
<defs>
<clipPath id="clip0_890_9054">
<rect width="800" height="136.683" fill="white"/>
</clipPath>
</defs>
</svg>
