<svg width="128" height="128" viewBox="0 0 128 128" fill="none" xmlns="http://www.w3.org/2000/svg">
<path d="M50.1615 87.8417L33.9916 59.8065C33.5886 59.1076 33.3765 58.3148 33.3765 57.5078C33.3765 56.7008 33.5886 55.9081 33.9916 55.2092L50.1615 27.1876C50.5646 26.4886 51.1444 25.9083 51.8426 25.5048C52.5408 25.1013 53.3327 24.8889 54.1389 24.8889H86.4649C87.2711 24.8889 88.0632 25.1013 88.7614 25.5048C89.4596 25.9083 90.0393 26.4886 90.4424 27.1876L106.667 55.2365L98.7119 59.8339L83.8678 34.1108H56.8454L43.3273 57.5351L58.1712 83.2718L50.1615 87.8417Z" fill="#9C6CFF"/>
<path d="M73.8615 103.101H41.4673C40.6611 103.101 39.8689 102.889 39.1707 102.485C38.4725 102.082 37.8928 101.501 37.4897 100.803L21.3335 72.7947L29.275 68.1974L44.1189 93.934H71.1278L84.6322 70.496L69.802 44.7731L77.7433 40.1758L93.9132 68.1974C94.3163 68.8963 94.5284 69.6891 94.5284 70.496C94.5284 71.303 94.3163 72.0958 93.9132 72.7947L77.7433 100.83C77.347 101.512 76.7814 102.079 76.1011 102.477C75.4209 102.875 74.6493 103.09 73.8615 103.101V103.101Z" fill="#05D2DD"/>
</svg>
