<svg width="32" height="32" viewBox="0 0 32 32" fill="none" xmlns="http://www.w3.org/2000/svg">
<g clip-path="url(#clip0_613_555)">
<path d="M16 32C24.837 32 32 24.837 32 16C32 7.163 24.837 0 16 0C7.163 0 0 7.163 0 16C0 24.837 7.163 32 16 32Z" fill="url(#paint0_linear_613_555)"/>
<path d="M16.0003 31.6363C24.6353 31.6363 31.6363 24.6363 31.6363 16.0003C31.6363 7.36428 24.6363 0.363281 16.0003 0.363281C7.36428 0.363281 0.363281 7.36328 0.363281 16.0003C0.363281 24.6353 7.36328 31.6363 16.0003 31.6363Z" stroke="white" stroke-width="0.5"/>
<path d="M15.9991 30.5461C7.97912 30.5461 1.45312 24.0211 1.45312 16.0001C1.45312 7.98008 7.97812 1.45508 16.0001 1.45508C24.0201 1.45508 30.5451 7.98008 30.5451 16.0001C30.5451 24.0201 24.0201 30.5461 16.0001 30.5461H15.9991ZM15.9991 2.68608C8.65712 2.68708 2.68512 8.66008 2.68512 16.0001C2.68512 23.3411 8.65712 29.3141 15.9991 29.3141C23.3391 29.3141 29.3121 23.3421 29.3121 16.0001C29.3131 8.66008 23.3401 2.68708 16.0001 2.68708L15.9991 2.68608Z" fill="#28646E"/>
<path d="M15.0398 13.3432C14.9559 13.3429 14.874 13.3171 14.8051 13.2693C14.7362 13.2214 14.6834 13.1538 14.6538 13.0752C14.6242 12.9967 14.6191 12.9111 14.6393 12.8296C14.6595 12.7482 14.7039 12.6748 14.7668 12.6192C15.9348 11.5892 16.4518 10.7392 16.5438 10.5792C16.8868 9.98117 17.4388 9.67217 18.0178 9.75017C18.1265 9.76489 18.225 9.82221 18.2914 9.9095C18.3579 9.9968 18.387 10.1069 18.3723 10.2157C18.3576 10.3244 18.3002 10.4229 18.2129 10.4893C18.1256 10.5558 18.0155 10.5849 17.9068 10.5702C17.5688 10.5252 17.3428 10.8502 17.2608 10.9912C17.1578 11.1712 16.5798 12.1232 15.3148 13.2392C15.2389 13.3056 15.1416 13.3422 15.0408 13.3422L15.0398 13.3432ZM8.07778 20.3532C7.99286 20.3531 7.91002 20.3269 7.84047 20.2782C7.77093 20.2295 7.71806 20.1605 7.68902 20.0807C7.65998 20.0009 7.65619 19.9141 7.67814 19.8321C7.7001 19.7501 7.74676 19.6768 7.81178 19.6222C8.29185 19.2436 8.8011 18.9035 9.33478 18.6052C9.43152 18.5661 9.53942 18.5649 9.63699 18.6019C9.73456 18.6388 9.81465 18.7111 9.8613 18.8044C9.90796 18.8977 9.91776 19.0052 9.88875 19.1054C9.85975 19.2056 9.79406 19.2912 9.70478 19.3452C9.22778 19.6152 8.77278 19.9202 8.34178 20.2582C8.26783 20.3203 8.17434 20.3543 8.07778 20.3542V20.3532Z" fill="#28646E"/>
<path d="M18.4668 16.4296C18.6308 16.5836 18.8218 16.5166 18.9968 16.3506C20.1968 15.2086 21.4658 13.4146 21.8888 12.4846C21.9788 12.2846 22.1618 12.1746 22.3588 12.2526C22.5888 12.3466 22.5858 12.7426 22.3768 13.1726C21.8228 14.3126 21.0548 15.5686 19.5378 17.1396C19.506 17.1698 19.4808 17.2064 19.4638 17.2469C19.4468 17.2874 19.4384 17.3309 19.4392 17.3749C19.44 17.4188 19.4498 17.462 19.4682 17.5019C19.4865 17.5418 19.513 17.5775 19.5458 17.6066C19.6788 17.7266 19.8958 17.7196 20.0988 17.5126C20.8868 16.7096 21.4178 16.0876 21.8738 15.4426C21.9898 15.2726 22.1308 15.2046 22.2698 15.2356C22.4688 15.2756 22.4998 15.4676 22.4398 15.6976C22.3398 16.0696 21.2938 17.4396 20.8798 17.9036C19.7558 19.1576 18.6308 19.8446 16.4678 20.9696C15.7118 21.3656 15.1478 21.7376 14.8048 22.3156C14.4948 22.8406 14.4008 23.0126 14.3688 23.0796C14.3076 23.2031 14.2974 23.3457 14.3404 23.4767C14.3834 23.6077 14.4763 23.7165 14.5988 23.7796C14.6614 23.8094 14.7293 23.8262 14.7986 23.8289C14.8678 23.8315 14.9369 23.8201 15.0015 23.7952C15.0662 23.7703 15.1251 23.7325 15.1747 23.6841C15.2242 23.6357 15.2634 23.5777 15.2898 23.5136C15.2898 23.5076 15.2738 23.5226 15.6808 22.8356C15.9863 22.3437 16.4297 21.9525 16.9558 21.7106C19.1188 20.7246 20.0058 19.9436 21.2618 18.6886C21.8348 18.1156 22.6258 16.8876 22.8448 16.5246C23.4498 15.5066 23.1318 14.6336 22.5858 14.4846C22.5751 14.4822 22.5652 14.4773 22.5568 14.4703C22.5484 14.4633 22.5417 14.4544 22.5374 14.4444C22.5331 14.4343 22.5313 14.4234 22.5321 14.4125C22.5328 14.4015 22.5362 14.391 22.5418 14.3816C22.9648 13.6576 23.1568 13.1576 23.2368 12.7696C23.3448 12.2426 23.1958 11.6036 22.4718 11.4466C22.4583 11.4432 22.446 11.4359 22.4366 11.4256C22.4271 11.4153 22.421 11.4024 22.4188 11.3886C22.4175 11.3792 22.4182 11.3697 22.4208 11.3606C22.4658 11.1936 22.5108 10.9826 22.5428 10.8446C22.6938 10.1596 22.2608 9.53959 21.7418 9.42859C21.574 9.39104 21.4001 9.38982 21.2318 9.425C21.0634 9.46019 20.9046 9.53097 20.7658 9.63259C20.7464 9.64552 20.723 9.65102 20.6998 9.64808C20.6767 9.64515 20.6554 9.63397 20.6398 9.61659C20.5716 9.54006 20.4886 9.47817 20.3958 9.43468C20.303 9.39119 20.2023 9.36701 20.0998 9.36359C19.6468 9.35659 19.2008 9.49559 18.8748 10.1926C18.6408 10.6906 18.2938 11.3596 17.2758 12.4876C16.3318 13.5356 15.0158 14.5566 14.2058 15.0896C14.0628 15.1826 13.8638 15.1596 13.8888 14.9696C13.9268 14.6656 14.2528 12.6276 14.3068 12.0266C14.3978 11.0506 13.8728 10.6016 13.2838 10.5226C12.7988 10.4566 12.0638 10.5966 11.6608 11.6996C11.4228 12.3466 10.9328 13.4096 10.5158 15.1196C10.2218 16.3246 10.1738 17.7276 10.4418 19.3396C10.459 19.4369 10.4401 19.5371 10.3888 19.6216C10.0678 20.1506 9.59782 20.8466 9.33482 21.4536C9.2823 21.5712 9.27532 21.7042 9.31523 21.8267C9.35513 21.9492 9.43909 22.0525 9.55082 22.1166C9.61177 22.1499 9.67889 22.1705 9.74806 22.1769C9.81724 22.1833 9.88699 22.1755 9.95304 22.154C10.0191 22.1324 10.08 22.0976 10.1321 22.0516C10.1842 22.0056 10.2263 21.9495 10.2558 21.8866C10.4148 21.5566 10.7308 20.9366 10.8588 20.6836C11.0768 20.2356 11.2218 19.9406 11.2818 19.7546C11.3348 19.5846 11.3668 19.3886 11.2688 18.9426C11.1038 18.1916 11.0468 16.7786 11.3528 15.5346C11.6872 14.2458 12.0945 12.9771 12.5728 11.7346C12.6958 11.4306 12.8708 11.3346 13.0478 11.3506C13.2238 11.3666 13.5558 11.4516 13.4598 12.0726C13.2898 13.1876 13.0468 14.6056 12.9668 15.0806C12.9288 15.3136 12.8828 15.8606 13.3148 16.1096C13.6508 16.3046 14.0218 16.1956 14.4308 15.9226C15.3518 15.3086 16.9398 14.0566 17.9368 12.9366C18.9828 11.7616 19.3168 11.0616 19.5858 10.4286C19.7088 10.1386 20.0238 10.1416 20.1358 10.1746C20.2458 10.2066 20.3818 10.3566 20.2858 10.6746C20.0538 11.4476 19.0988 13.2176 17.2578 14.8776C17.0488 15.0666 17.0778 15.2876 17.1848 15.4046C17.2908 15.5216 17.4788 15.5906 17.6928 15.4046C19.3468 13.9946 20.2918 12.3086 20.7158 11.4066C20.8578 11.1066 20.9788 10.7966 21.0788 10.4806C21.1688 10.2186 21.3708 10.1256 21.5118 10.1546C21.7128 10.1966 21.8458 10.4036 21.7818 10.7436C21.6788 11.1778 21.5276 11.5991 21.3308 11.9996C20.8008 13.1246 19.6808 14.6316 18.4728 15.9246C18.4193 15.9723 18.3821 16.0356 18.3664 16.1056C18.3508 16.1756 18.3576 16.2487 18.3858 16.3146C18.4049 16.3579 18.4329 16.3967 18.4678 16.4286L18.4668 16.4296ZM10.9868 10.8236C11.0518 10.7676 11.0268 10.6956 11.0078 10.6376C10.792 10.0557 10.5487 9.48443 10.2788 8.92559C10.2118 8.80559 10.1268 8.78859 10.0358 8.82359C9.91582 8.86959 9.76882 8.98159 9.54182 9.17759C9.31582 9.37459 9.18782 9.50859 9.12682 9.62159C9.07982 9.70759 9.08582 9.79459 9.19682 9.87559C9.41582 10.0386 10.5288 10.6956 10.7988 10.8256C10.8538 10.8506 10.9218 10.8856 10.9858 10.8256L10.9878 10.8236H10.9868ZM20.1608 21.3486C20.0768 21.3546 20.0528 21.4286 20.0328 21.4836C19.9308 21.7636 19.6108 23.0166 19.5718 23.2876C19.5518 23.4236 19.6088 23.4876 19.7018 23.5156C19.8248 23.5516 20.0088 23.5546 20.3098 23.5336C20.6098 23.5136 20.7918 23.4876 20.9098 23.4336C20.9988 23.3946 21.0458 23.3226 21.0078 23.1896C20.9328 22.9286 20.4488 21.7296 20.3098 21.4646C20.2828 21.4116 20.2478 21.3426 20.1638 21.3486H20.1608ZM20.8848 20.7686C20.8458 20.8436 20.8948 20.9016 20.9328 20.9486C21.1188 21.1816 22.0238 22.1046 22.2348 22.2786C22.3398 22.3666 22.4248 22.3516 22.4968 22.2866C22.5918 22.1996 22.6898 22.0436 22.8288 21.7766C22.9668 21.5086 23.0388 21.3396 23.0558 21.2126C23.0678 21.1156 23.0308 21.0386 22.8968 21.0016C22.2892 20.8729 21.6759 20.7727 21.0588 20.7016C20.9988 20.6976 20.9238 20.6896 20.8838 20.7666V20.7686H20.8848ZM10.5488 11.5996C10.5338 11.5156 10.4588 11.4996 10.4008 11.4856C10.1108 11.4146 8.83082 11.2336 8.55782 11.2236C8.41982 11.2186 8.36182 11.2836 8.34382 11.3816C8.32082 11.5086 8.33882 11.6916 8.39282 11.9886C8.44582 12.2836 8.49182 12.4626 8.55682 12.5736C8.60682 12.6576 8.68282 12.6966 8.80982 12.6456C9.06282 12.5416 10.2018 11.9326 10.4488 11.7636C10.4988 11.7296 10.5638 11.6896 10.5488 11.6056V11.5996V11.5996ZM15.9918 28.1926C16.1141 28.1966 16.2329 28.1518 16.3222 28.0682C16.4115 27.9845 16.4638 27.8689 16.4678 27.7466C16.4718 27.6243 16.427 27.5055 16.3434 27.4162C16.2598 27.327 16.1441 27.2746 16.0218 27.2706C15.8996 27.2666 15.7807 27.3114 15.6915 27.395C15.6022 27.4787 15.5498 27.5943 15.5458 27.7166C15.5418 27.8389 15.5866 27.9577 15.6702 28.047C15.7539 28.1362 15.8696 28.1886 15.9918 28.1926V28.1926ZM15.9918 4.73159C16.1142 4.73159 16.2316 4.68297 16.3182 4.59642C16.4047 4.50988 16.4533 4.39249 16.4533 4.27009C16.4533 4.1477 16.4047 4.03031 16.3182 3.94376C16.2316 3.85722 16.1142 3.80859 15.9918 3.80859C15.8694 3.80859 15.752 3.85722 15.6655 3.94376C15.5789 4.03031 15.5303 4.1477 15.5303 4.27009C15.5303 4.39249 15.5789 4.50988 15.6655 4.59642C15.752 4.68297 15.8694 4.73159 15.9918 4.73159V4.73159ZM19.0278 27.7926C19.1502 27.7926 19.2676 27.744 19.3542 27.6574C19.4407 27.5709 19.4893 27.4535 19.4893 27.3311C19.4893 27.2087 19.4407 27.0913 19.3542 27.0048C19.2676 26.9182 19.1502 26.8696 19.0278 26.8696C18.9054 26.8696 18.788 26.9182 18.7015 27.0048C18.6149 27.0913 18.5663 27.2087 18.5663 27.3311C18.5663 27.4535 18.6149 27.5709 18.7015 27.6574C18.788 27.744 18.9054 27.7926 19.0278 27.7926ZM12.9558 5.13059C13.0781 5.13059 13.1953 5.08202 13.2818 4.99557C13.3683 4.90912 13.4168 4.79186 13.4168 4.66959C13.4168 4.54733 13.3683 4.43007 13.2818 4.34362C13.1953 4.25716 13.0781 4.20859 12.9558 4.20859C12.8336 4.20859 12.7163 4.25716 12.6298 4.34362C12.5434 4.43007 12.4948 4.54733 12.4948 4.66959C12.4948 4.79186 12.5434 4.90912 12.6298 4.99557C12.7163 5.08202 12.8336 5.13059 12.9558 5.13059V5.13059ZM21.8578 26.6206C21.9195 26.6247 21.9814 26.6163 22.0398 26.5959C22.0982 26.5756 22.1519 26.5437 22.1977 26.5022C22.2435 26.4607 22.2805 26.4104 22.3065 26.3543C22.3325 26.2982 22.3469 26.2374 22.3489 26.1756C22.3509 26.1138 22.3405 26.0522 22.3182 25.9945C22.296 25.9369 22.2623 25.8843 22.2193 25.8398C22.1763 25.7954 22.1248 25.7601 22.0678 25.736C22.0109 25.7119 21.9497 25.6995 21.8878 25.6996C21.7682 25.6997 21.6533 25.7463 21.5674 25.8295C21.4815 25.9127 21.4313 26.026 21.4274 26.1456C21.4235 26.2651 21.4662 26.3815 21.5466 26.4701C21.6269 26.5588 21.7385 26.6127 21.8578 26.6206V26.6206ZM10.1278 6.30259C10.1884 6.3045 10.2487 6.29446 10.3053 6.27305C10.362 6.25164 10.4139 6.21928 10.458 6.17782C10.5022 6.13636 10.5378 6.08661 10.5627 6.03141C10.5876 5.9762 10.6014 5.91663 10.6033 5.85609C10.6052 5.79555 10.5952 5.73523 10.5738 5.67857C10.5524 5.62191 10.52 5.57002 10.4786 5.52587C10.4371 5.48172 10.3873 5.44616 10.3321 5.42123C10.2769 5.39631 10.2174 5.3825 10.1568 5.38059C10.0346 5.37662 9.91572 5.42137 9.82645 5.50501C9.73719 5.58865 9.6848 5.70433 9.68082 5.82659C9.67685 5.94886 9.7216 6.0677 9.80524 6.15696C9.88888 6.24623 10.0046 6.29862 10.1268 6.30259H10.1278ZM24.2878 24.7566C24.4101 24.7604 24.5289 24.7156 24.618 24.6318C24.7072 24.5481 24.7595 24.4324 24.7633 24.3101C24.7672 24.1878 24.7223 24.069 24.6386 23.9799C24.5548 23.8907 24.4391 23.8384 24.3168 23.8346C24.1946 23.8306 24.0757 23.8754 23.9865 23.959C23.8972 24.0427 23.8448 24.1583 23.8408 24.2806C23.8368 24.4029 23.8816 24.5217 23.9652 24.611C24.0489 24.7002 24.1646 24.7526 24.2868 24.7566H24.2878ZM7.69582 8.16659C7.75766 8.17067 7.81968 8.16226 7.87819 8.14188C7.93671 8.12149 7.99053 8.08954 8.03644 8.04793C8.08236 8.00632 8.11944 7.9559 8.14546 7.89966C8.17149 7.84343 8.18595 7.78254 8.18796 7.7206C8.18997 7.65867 8.1795 7.59696 8.15718 7.53916C8.13486 7.48135 8.10113 7.42863 8.05802 7.38412C8.0149 7.33962 7.96327 7.30424 7.9062 7.2801C7.84913 7.25596 7.78779 7.24354 7.72582 7.24359C7.60596 7.24369 7.49082 7.29037 7.40473 7.37378C7.31864 7.45718 7.26834 7.57078 7.26445 7.69059C7.26055 7.81039 7.30337 7.92701 7.38386 8.01583C7.46436 8.10465 7.57622 8.15871 7.69582 8.16659V8.16659ZM27.3218 19.4966C27.3849 19.5008 27.4482 19.4919 27.5077 19.4706C27.5673 19.4493 27.6218 19.4161 27.668 19.3728C27.7141 19.3296 27.7509 19.2774 27.7761 19.2194C27.8012 19.1614 27.8142 19.0988 27.8142 19.0356C27.8142 18.9724 27.8012 18.9098 27.7761 18.8518C27.7509 18.7938 27.7141 18.7416 27.668 18.6983C27.6218 18.6551 27.5673 18.6218 27.5077 18.6006C27.4482 18.5793 27.3849 18.5704 27.3218 18.5746C27.2031 18.5801 27.0912 18.6312 27.0091 18.7171C26.9271 18.803 26.8813 18.9173 26.8813 19.0361C26.8813 19.1549 26.9271 19.2691 27.0091 19.3551C27.0912 19.441 27.2031 19.4921 27.3218 19.4976V19.4966ZM26.1498 22.3266C26.2721 22.3266 26.3893 22.278 26.4758 22.1916C26.5623 22.1051 26.6108 21.9879 26.6108 21.8656C26.6108 21.7433 26.5623 21.6261 26.4758 21.5396C26.3893 21.4532 26.2721 21.4046 26.1498 21.4046C26.0274 21.4046 25.91 21.4532 25.8235 21.5398C25.7369 21.6263 25.6883 21.7437 25.6883 21.8661C25.6883 21.9885 25.7369 22.1059 25.8235 22.1924C25.91 22.279 26.0274 22.3276 26.1498 22.3276V22.3266ZM5.83282 10.5976C5.95535 10.5976 6.07287 10.5489 6.15951 10.4623C6.24615 10.3756 6.29482 10.2581 6.29482 10.1356C6.29482 10.0131 6.24615 9.89555 6.15951 9.80891C6.07287 9.72227 5.95535 9.67359 5.83282 9.67359C5.71029 9.67359 5.59278 9.72227 5.50614 9.80891C5.4195 9.89555 5.37082 10.0131 5.37082 10.1356C5.37082 10.2581 5.4195 10.3756 5.50614 10.4623C5.59278 10.5489 5.71029 10.5976 5.83282 10.5976ZM4.66082 13.4266C4.72273 13.4289 4.78446 13.4186 4.84232 13.3965C4.90017 13.3743 4.95295 13.3407 4.9975 13.2977C5.04205 13.2546 5.07744 13.203 5.10155 13.146C5.12566 13.0889 5.138 13.0275 5.13782 12.9656C5.13786 12.9036 5.12543 12.8423 5.10128 12.7853C5.07713 12.7282 5.04175 12.6766 4.99725 12.6335C4.95275 12.5904 4.90003 12.5567 4.84223 12.5344C4.78444 12.512 4.72275 12.5016 4.66082 12.5036C4.53829 12.5036 4.42078 12.5523 4.33414 12.6389C4.2475 12.7256 4.19882 12.8431 4.19882 12.9656C4.19882 13.0881 4.2475 13.2056 4.33414 13.2923C4.42078 13.3789 4.53829 13.4276 4.66082 13.4276V13.4266ZM27.7228 16.4626C27.8454 16.4626 27.9629 16.4139 28.0495 16.3273C28.1361 16.2406 28.1848 16.1231 28.1848 16.0006C28.1848 15.8781 28.1361 15.7606 28.0495 15.6739C27.9629 15.5873 27.8454 15.5386 27.7228 15.5386C27.6003 15.5386 27.4828 15.5873 27.3961 15.6739C27.3095 15.7606 27.2608 15.8781 27.2608 16.0006C27.2608 16.1231 27.3095 16.2406 27.3961 16.3273C27.4828 16.4139 27.6003 16.4626 27.7228 16.4626ZM4.26082 16.4626C4.32324 16.4655 4.38559 16.4557 4.44411 16.4338C4.50264 16.412 4.55611 16.3784 4.60131 16.3353C4.6465 16.2921 4.68248 16.2403 4.70706 16.1828C4.73164 16.1254 4.74431 16.0636 4.74431 16.0011C4.74431 15.9386 4.73164 15.8768 4.70706 15.8193C4.68248 15.7619 4.6465 15.71 4.60131 15.6669C4.55611 15.6238 4.50264 15.5902 4.44411 15.5684C4.38559 15.5465 4.32324 15.5367 4.26082 15.5396C4.14214 15.5451 4.03015 15.5962 3.94812 15.6821C3.86608 15.768 3.82031 15.8823 3.82031 16.0011C3.82031 16.1199 3.86608 16.2341 3.94812 16.3201C4.03015 16.406 4.14214 16.4571 4.26082 16.4626V16.4626ZM27.3228 13.4266C27.4004 13.4295 27.4774 13.4128 27.5467 13.3779C27.616 13.343 27.6754 13.2912 27.7193 13.2272C27.7632 13.1633 27.7902 13.0892 27.7979 13.012C27.8055 12.9348 27.7934 12.8569 27.7628 12.7856C27.7265 12.6997 27.6651 12.6267 27.5865 12.5764C27.508 12.5261 27.4161 12.5007 27.3228 12.5036C27.2003 12.5036 27.0828 12.5523 26.9961 12.6389C26.9095 12.7256 26.8608 12.8431 26.8608 12.9656C26.8608 13.0881 26.9095 13.2056 26.9961 13.2923C27.0828 13.3789 27.2003 13.4276 27.3228 13.4276V13.4266ZM4.66082 19.4976C4.78322 19.4976 4.90061 19.449 4.98715 19.3624C5.0737 19.2759 5.12232 19.1585 5.12232 19.0361C5.12232 18.9137 5.0737 18.7963 4.98715 18.7098C4.90061 18.6232 4.78322 18.5746 4.66082 18.5746C4.53843 18.5746 4.42104 18.6232 4.33449 18.7098C4.24795 18.7963 4.19932 18.9137 4.19932 19.0361C4.19932 19.1585 4.24795 19.2759 4.33449 19.3624C4.42104 19.449 4.53843 19.4976 4.66082 19.4976V19.4976ZM26.1508 10.5956C26.2132 10.5985 26.2756 10.5887 26.3341 10.5668C26.3926 10.545 26.4461 10.5114 26.4913 10.4683C26.5365 10.4251 26.5725 10.3733 26.5971 10.3158C26.6216 10.2584 26.6343 10.1966 26.6343 10.1341C26.6343 10.0716 26.6216 10.0098 26.5971 9.95234C26.5725 9.8949 26.5365 9.84304 26.4913 9.7999C26.4461 9.75676 26.3926 9.72323 26.3341 9.70135C26.2756 9.67947 26.2132 9.66969 26.1508 9.67259C26.0283 9.67259 25.9108 9.72127 25.8241 9.80791C25.7375 9.89455 25.6888 10.0121 25.6888 10.1346C25.6888 10.2571 25.7375 10.3746 25.8241 10.4613C25.9108 10.5479 26.0283 10.5966 26.1508 10.5966V10.5956ZM5.83282 22.3276C5.89524 22.3305 5.95759 22.3207 6.01611 22.2988C6.07464 22.277 6.12811 22.2434 6.17331 22.2003C6.2185 22.1571 6.25448 22.1053 6.27906 22.0478C6.30364 21.9904 6.31631 21.9286 6.31631 21.8661C6.31631 21.8036 6.30364 21.7418 6.27906 21.6843C6.25448 21.6269 6.2185 21.575 6.17331 21.5319C6.12811 21.4888 6.07464 21.4552 6.01611 21.4334C5.95759 21.4115 5.89524 21.4017 5.83282 21.4046C5.71414 21.4101 5.60215 21.4612 5.52012 21.5471C5.43808 21.633 5.39231 21.7473 5.39231 21.8661C5.39231 21.9849 5.43808 22.0991 5.52012 22.1851C5.60215 22.271 5.71414 22.3221 5.83282 22.3276V22.3276ZM24.2868 8.16659C24.3474 8.16856 24.4077 8.15859 24.4644 8.13724C24.5211 8.11589 24.573 8.08359 24.6172 8.04218C24.6614 8.00076 24.697 7.95105 24.722 7.89587C24.747 7.84069 24.7609 7.78113 24.7628 7.72059C24.7648 7.66005 24.7548 7.59972 24.7335 7.54304C24.7121 7.48635 24.6798 7.43442 24.6384 7.39022C24.597 7.34602 24.5473 7.31041 24.4921 7.28543C24.4369 7.26044 24.3774 7.24656 24.3168 7.24459C24.1946 7.24062 24.0757 7.28537 23.9865 7.36901C23.8972 7.45265 23.8448 7.56833 23.8408 7.69059C23.8368 7.81286 23.8816 7.9317 23.9652 8.02096C24.0489 8.11023 24.1646 8.16262 24.2868 8.16659V8.16659ZM7.69682 24.7566C7.75736 24.7586 7.8177 24.7486 7.87438 24.7272C7.93107 24.7059 7.98299 24.6736 8.02719 24.6322C8.07139 24.5908 8.10701 24.541 8.13199 24.4859C8.15698 24.4307 8.17085 24.3711 8.17282 24.3106C8.17479 24.2501 8.16482 24.1897 8.14347 24.133C8.12213 24.0764 8.08982 24.0244 8.04841 23.9802C8.00699 23.936 7.95728 23.9004 7.9021 23.8754C7.84692 23.8504 7.78736 23.8366 7.72682 23.8346C7.60456 23.8306 7.48572 23.8754 7.39645 23.959C7.30719 24.0427 7.2548 24.1583 7.25082 24.2806C7.24685 24.4029 7.2916 24.5217 7.37524 24.611C7.45888 24.7002 7.57456 24.7526 7.69682 24.7566ZM21.8578 6.30259C21.9184 6.30456 21.9787 6.29459 22.0354 6.27324C22.0921 6.25189 22.144 6.21959 22.1882 6.17818C22.2324 6.13676 22.268 6.08705 22.293 6.03187C22.318 5.97669 22.3319 5.91713 22.3338 5.85659C22.3358 5.79605 22.3258 5.73572 22.3045 5.67903C22.2831 5.62235 22.2508 5.57042 22.2094 5.52622C22.168 5.48202 22.1183 5.44641 22.0631 5.42143C22.0079 5.39644 21.9484 5.38256 21.8878 5.38059C21.7656 5.37662 21.6467 5.42137 21.5575 5.50501C21.4682 5.58865 21.4158 5.70433 21.4118 5.82659C21.4078 5.94886 21.4526 6.0677 21.5362 6.15696C21.6199 6.24623 21.7356 6.29862 21.8578 6.30259ZM10.1278 26.6196C10.1895 26.6237 10.2514 26.6153 10.3098 26.5949C10.3682 26.5746 10.4219 26.5427 10.4677 26.5012C10.5135 26.4597 10.5505 26.4094 10.5765 26.3533C10.6025 26.2972 10.6169 26.2364 10.6189 26.1746C10.6209 26.1128 10.6105 26.0512 10.5882 25.9935C10.566 25.9359 10.5323 25.8833 10.4893 25.8388C10.4463 25.7944 10.3948 25.7591 10.3378 25.735C10.2809 25.7109 10.2197 25.6985 10.1578 25.6986C10.0382 25.6987 9.92333 25.7453 9.83742 25.8285C9.75151 25.9117 9.70131 26.025 9.69741 26.1446C9.69352 26.2641 9.73624 26.3805 9.81655 26.4691C9.89686 26.5578 10.0085 26.6117 10.1278 26.6196V26.6196ZM19.0278 5.12959C19.0902 5.1325 19.1526 5.12272 19.2111 5.10083C19.2696 5.07895 19.3231 5.04543 19.3683 5.00229C19.4135 4.95915 19.4495 4.90729 19.4741 4.84985C19.4986 4.7924 19.5113 4.73057 19.5113 4.66809C19.5113 4.60561 19.4986 4.54378 19.4741 4.48634C19.4495 4.4289 19.4135 4.37704 19.3683 4.3339C19.3231 4.29076 19.2696 4.25723 19.2111 4.23535C19.1526 4.21347 19.0902 4.20369 19.0278 4.20659C18.9091 4.21212 18.7972 4.26316 18.7151 4.3491C18.6331 4.43504 18.5873 4.54928 18.5873 4.66809C18.5873 4.7869 18.6331 4.90115 18.7151 4.98709C18.7972 5.07303 18.9091 5.12407 19.0278 5.12959ZM12.9558 27.7916C13.0182 27.7945 13.0806 27.7847 13.1391 27.7628C13.1976 27.741 13.2511 27.7074 13.2963 27.6643C13.3415 27.6211 13.3775 27.5693 13.4021 27.5118C13.4266 27.4544 13.4393 27.3926 13.4393 27.3301C13.4393 27.2676 13.4266 27.2058 13.4021 27.1483C13.3775 27.0909 13.3415 27.039 13.2963 26.9959C13.2511 26.9528 13.1976 26.9192 13.1391 26.8974C13.0806 26.8755 13.0182 26.8657 12.9558 26.8686C12.8371 26.8741 12.7252 26.9252 12.6431 27.0111C12.5611 27.097 12.5153 27.2113 12.5153 27.3301C12.5153 27.4489 12.5611 27.5631 12.6431 27.6491C12.7252 27.735 12.8371 27.7861 12.9558 27.7916V27.7916Z" fill="#28646E"/>
</g>
<defs>
<linearGradient id="paint0_linear_613_555" x1="2.182" y1="13.818" x2="32" y2="16" gradientUnits="userSpaceOnUse">
<stop stop-color="#D4F0ED"/>
<stop offset="1" stop-color="#F0E6B5"/>
</linearGradient>
<clipPath id="clip0_613_555">
<rect width="32" height="32" fill="white"/>
</clipPath>
</defs>
</svg>
