<svg width="200" height="200" viewBox="0 0 200 200" fill="none" xmlns="http://www.w3.org/2000/svg">
<circle cx="100" cy="100" r="100" fill="url(#paint0_linear_2986_902)"/>
<path d="M88.1208 86.2283L94.8013 81.543C94.1333 80.2043 87.4527 69.4951 65.4069 69.4951C40.6889 69.4951 30 86.8976 30 100.953C30 115.009 40.6889 130.404 64.0708 130.404C82.7763 130.404 94.5786 120.587 98.1416 115.679V96.9375L65.4069 97.6068V105.639H88.7888V113.001C87.4527 114.34 78.768 121.703 64.0708 121.703C49.3736 121.703 40.0208 112.332 40.0208 100.953C40.0208 89.5749 48.0375 77.527 65.4069 77.527C81.4402 77.527 85.4486 83.551 88.1208 86.2283Z" fill="white"/>
<path d="M159.979 86.2283L166.66 81.543C165.992 80.2043 159.311 69.4951 137.265 69.4951C112.547 69.4951 101.858 86.8976 101.858 100.953C101.858 115.009 112.547 130.404 135.929 130.404C154.635 130.404 166.437 120.587 170 115.679V96.9375L137.265 97.6068V105.639H160.647V113.001C159.311 114.34 150.626 121.703 135.929 121.703C121.232 121.703 111.879 112.332 111.879 100.953C111.879 89.5749 119.896 77.527 137.265 77.527C153.299 77.527 157.307 83.551 159.979 86.2283Z" fill="white"/>
<defs>
<linearGradient id="paint0_linear_2986_902" x1="0" y1="100" x2="200" y2="100" gradientUnits="userSpaceOnUse">
<stop stop-color="#86DEA4"/>
<stop offset="1" stop-color="#33C8D7"/>
</linearGradient>
</defs>
</svg>
