<svg width="64" height="64" viewBox="0 0 64 64" fill="none" xmlns="http://www.w3.org/2000/svg">
<circle cx="32" cy="32" r="31.875" fill="#FFFFFF"/>
<path fill-rule="evenodd" clip-rule="evenodd" d="M32 59.7333125C47.3166875 59.7333125 59.7333125 47.3166875 59.7333125 32C59.7333125 16.6833125 47.3166875 4.26666875 32 4.26666875C16.6833125 4.26666875 4.26666875 16.6833125 4.26666875 32C4.26666875 47.3166875 16.6833125 59.7333125 32 59.7333125ZM32 64C49.673125 64 64 49.673125 64 32C64 14.326875 49.673125 0 32 0C14.326875 0 0 14.326875 0 32C0 49.673125 14.326875 64 32 64Z" fill="#222222"/>
<path d="M37.9764375 18.0245625C38.2181875 17.727625 38.522625 17.4878125 38.8679375 17.3221875C39.2131875 17.156625 39.5908125 17.0694375 39.9736875 17.06675C40.2916875 17.0681875 40.60625 17.1325625 40.8991875 17.2561875C41.1921875 17.37975 41.4578125 17.560125 41.68075 17.786875C41.9036875 18.013625 42.0795625 18.28225 42.1981875 18.57725C42.3168125 18.8723125 42.375875 19.187875 42.3719375 19.505875V44.3235C42.3980625 44.65625 42.3550625 44.990875 42.245625 45.30625C42.13625 45.6216875 41.96275 45.9110625 41.736125 46.156125C41.5095 46.40125 41.234625 46.596875 40.92875 46.730625C40.622875 46.864375 40.2926875 46.9334375 39.958875 46.9334375C39.6250625 46.9334375 39.2948125 46.864375 38.9889375 46.730625C38.683125 46.596875 38.40825 46.40125 38.181625 46.156125C37.955 45.9110625 37.7815 45.6216875 37.6720625 45.30625C37.562625 44.990875 37.5196875 44.65625 37.5458125 44.3235V25.6759375L20.587375 45.9458125C20.36575 46.201 20.092875 46.4065625 19.7864375 46.54925C19.4800625 46.691875 19.1470625 46.768375 18.809125 46.7736875C18.207375 46.767875 17.631875 46.52625 17.206375 46.10075C16.7808125 45.6751875 16.5391875 45.09975 16.533375 44.4979375C16.5294375 43.9545 16.7204375 43.4276875 17.0716875 43.013L37.9764375 18.0245625Z" fill="#222222"/>
</svg>
