<svg width="90" height="90" viewBox="0 0 90 90" fill="none" xmlns="http://www.w3.org/2000/svg">
<g clip-path="url(#clip0_3872_16076)">
<mask id="mask0_3872_16076" style="mask-type:alpha" maskUnits="userSpaceOnUse" x="0" y="0" width="90" height="90">
<circle cx="45" cy="45" r="45" fill="#D9D9D9"/>
</mask>
<g mask="url(#mask0_3872_16076)">
<g filter="url(#filter0_f_3872_16076)">
<path d="M580.657 -373.072C424.386 -190.183 -16.8192 153.717 -531.465 66.2007C-354.482 245.742 115.717 409.246 580.657 -373.072Z" fill="#002E48"/>
</g>
<g filter="url(#filter1_f_3872_16076)">
<path d="M467.091 -284.22C340.355 -135.881 -17.4701 143.043 -434.879 72.0335C-291.329 217.672 90.0355 350.315 467.091 -284.22Z" fill="#0072A3"/>
</g>
<g filter="url(#filter2_f_3872_16076)">
<path d="M467.09 -284.218C340.354 -135.88 -1.86905 195.505 -434.88 72.0349C-291.33 217.673 98.2686 321.228 467.09 -284.218Z" fill="#00C2CE"/>
</g>
<g filter="url(#filter3_f_3872_16076)">
<path d="M521.051 -306.709C371.835 -152.832 -25.8567 195.398 -487.988 108.058C-342.705 238.86 73.6637 310.112 521.051 -306.709Z" fill="#EF6619"/>
</g>
<g filter="url(#filter4_f_3872_16076)">
<path d="M467.09 -284.217C340.354 -135.879 8.77628 231.104 -434.88 72.0359C-294.905 182.921 91.7497 301.918 467.09 -284.217Z" fill="#CF7154"/>
</g>
<g filter="url(#filter5_f_3872_16076)">
<path d="M467.089 -284.218C340.353 -135.88 27.4649 279.643 -434.881 72.0352C-242.85 187.032 97.2858 226.344 467.089 -284.218Z" fill="#F1F9A0"/>
</g>
</g>
<path d="M45 14L54.4905 22.0878L66.9203 23.0797L67.9122 35.5095L76 45L67.9122 54.4905L66.9203 66.9203L54.4905 67.9122L45 76L35.5095 67.9122L23.0797 66.9203L22.0878 54.4905L14 45L22.0878 35.5095L23.0797 23.0797L35.5095 22.0878L45 14Z" fill="white"/>
</g>
<defs>
<filter id="filter0_f_3872_16076" x="-552.555" y="-394.162" width="1154.3" height="630.309" filterUnits="userSpaceOnUse" color-interpolation-filters="sRGB">
<feFlood flood-opacity="0" result="BackgroundImageFix"/>
<feBlend mode="normal" in="SourceGraphic" in2="BackgroundImageFix" result="shape"/>
<feGaussianBlur stdDeviation="10.545" result="effect1_foregroundBlur_3872_16076"/>
</filter>
<filter id="filter1_f_3872_16076" x="-455.969" y="-305.31" width="944.149" height="519.191" filterUnits="userSpaceOnUse" color-interpolation-filters="sRGB">
<feFlood flood-opacity="0" result="BackgroundImageFix"/>
<feBlend mode="normal" in="SourceGraphic" in2="BackgroundImageFix" result="shape"/>
<feGaussianBlur stdDeviation="10.545" result="effect1_foregroundBlur_3872_16076"/>
</filter>
<filter id="filter2_f_3872_16076" x="-455.969" y="-305.308" width="944.149" height="510.384" filterUnits="userSpaceOnUse" color-interpolation-filters="sRGB">
<feFlood flood-opacity="0" result="BackgroundImageFix"/>
<feBlend mode="normal" in="SourceGraphic" in2="BackgroundImageFix" result="shape"/>
<feGaussianBlur stdDeviation="10.545" result="effect1_foregroundBlur_3872_16076"/>
</filter>
<filter id="filter3_f_3872_16076" x="-532.511" y="-351.232" width="1098.09" height="592.711" filterUnits="userSpaceOnUse" color-interpolation-filters="sRGB">
<feFlood flood-opacity="0" result="BackgroundImageFix"/>
<feBlend mode="normal" in="SourceGraphic" in2="BackgroundImageFix" result="shape"/>
<feGaussianBlur stdDeviation="22.2616" result="effect1_foregroundBlur_3872_16076"/>
</filter>
<filter id="filter4_f_3872_16076" x="-455.969" y="-305.307" width="944.149" height="489.77" filterUnits="userSpaceOnUse" color-interpolation-filters="sRGB">
<feFlood flood-opacity="0" result="BackgroundImageFix"/>
<feBlend mode="normal" in="SourceGraphic" in2="BackgroundImageFix" result="shape"/>
<feGaussianBlur stdDeviation="10.545" result="effect1_foregroundBlur_3872_16076"/>
</filter>
<filter id="filter5_f_3872_16076" x="-455.973" y="-305.308" width="944.153" height="471.083" filterUnits="userSpaceOnUse" color-interpolation-filters="sRGB">
<feFlood flood-opacity="0" result="BackgroundImageFix"/>
<feBlend mode="normal" in="SourceGraphic" in2="BackgroundImageFix" result="shape"/>
<feGaussianBlur stdDeviation="10.545" result="effect1_foregroundBlur_3872_16076"/>
</filter>
<clipPath id="clip0_3872_16076">
<rect width="90" height="90" fill="white"/>
</clipPath>
</defs>
</svg>
