<svg width="32" height="32" viewBox="0 0 32 32" fill="none" xmlns="http://www.w3.org/2000/svg">
<g clip-path="url(#clip0_613_445)">
<path d="M16 32C24.837 32 32 24.837 32 16C32 7.163 24.837 0 16 0C7.163 0 0 7.163 0 16C0 24.837 7.163 32 16 32Z" fill="url(#paint0_linear_613_445)"/>
<path d="M16 31.75C24.698 31.75 31.75 24.698 31.75 16C31.75 7.302 24.698 0.25 16 0.25C7.302 0.25 0.25 7.302 0.25 16C0.25 24.698 7.302 31.75 16 31.75Z" stroke="white" stroke-width="0.5"/>
<path d="M23.21 18.5851H13.093V13.0821H11.562V19.3421C11.5634 19.4427 11.5847 19.542 11.6246 19.6343C11.6645 19.7267 11.7223 19.8102 11.7946 19.8802C11.8669 19.9501 11.9523 20.0051 12.0459 20.042C12.1395 20.0789 12.2394 20.0969 12.34 20.0951H21.184L19.36 21.7001H9.552V12.6251H19.648C19.8405 12.6271 20.0272 12.5596 20.174 12.4351L23.736 9.32107C23.854 9.22205 23.9383 9.0887 23.977 8.93959C24.0157 8.79047 24.007 8.63299 23.952 8.48907C23.8923 8.34413 23.7908 8.22024 23.6604 8.13316C23.5301 8.04608 23.3768 7.99975 23.22 8.00007H12.34C12.2391 7.99874 12.139 8.0173 12.0453 8.05468C11.9516 8.09206 11.8662 8.14753 11.794 8.21792C11.7217 8.28831 11.6641 8.37224 11.6243 8.46492C11.5845 8.5576 11.5633 8.65721 11.562 8.75807V10.6411H13.092V9.51507H21.184L19.359 11.0941H8.779C8.57548 11.0911 8.37911 11.1691 8.23305 11.3109C8.08698 11.4526 8.00316 11.6465 8 11.8501V22.4301C8.00117 22.531 8.02228 22.6308 8.0621 22.7236C8.10192 22.8164 8.15968 22.9004 8.23206 22.9709C8.30444 23.0413 8.39001 23.0967 8.48387 23.134C8.57773 23.1713 8.67802 23.1897 8.779 23.1881H19.648C19.8415 23.1906 20.029 23.1211 20.174 22.9931L23.725 19.9211C23.8133 19.8455 23.8828 19.7505 23.9282 19.6436C23.9736 19.5366 23.9936 19.4206 23.9866 19.3047C23.9796 19.1887 23.9459 19.0759 23.888 18.9752C23.8301 18.8745 23.7497 18.7885 23.653 18.7241C23.5227 18.6341 23.3684 18.5853 23.21 18.5841V18.5851Z" fill="#FE4350"/>
</g>
<defs>
<linearGradient id="paint0_linear_613_445" x1="16" y1="0" x2="16" y2="32" gradientUnits="userSpaceOnUse">
<stop stop-color="#183C74"/>
<stop offset="1" stop-color="#050516"/>
</linearGradient>
<clipPath id="clip0_613_445">
<rect width="32" height="32" fill="white"/>
</clipPath>
</defs>
</svg>
