<svg width="32" height="32" viewBox="0 0 32 32" fill="none" xmlns="http://www.w3.org/2000/svg">
<path d="M27.1369 27.1369C24.1832 30.0906 20.1772 31.75 16 31.75C11.8228 31.75 7.81677 30.0906 4.86307 27.1369C1.90937 24.1832 0.25 20.1772 0.25 16C0.25 11.8228 1.90937 7.81677 4.86307 4.86307C7.81677 1.90937 11.8228 0.25 16 0.25C20.1772 0.25 24.1832 1.90937 27.1369 4.86307C30.0906 7.81677 31.75 11.8228 31.75 16C31.75 20.1772 30.0906 24.1832 27.1369 27.1369Z" fill="url(#paint0_linear_1200_2248)" stroke="white" stroke-width="0.5"/>
<path fill-rule="evenodd" clip-rule="evenodd" d="M14.9883 5.04004H13.4424V6.77147C9.38117 7.90327 6.40002 11.645 6.40002 16.0863C6.40002 20.5277 9.38117 24.2694 13.4424 25.4012V26.96H14.9883V20.8079C14.4307 20.6855 13.9093 20.466 13.4424 20.1678C12.1001 19.3105 11.2095 17.8029 11.2095 16.0863C11.2095 14.3697 12.1001 12.8622 13.4424 12.0048C13.823 11.7618 14.2399 11.5709 14.683 11.4425C14.7835 11.4133 14.8853 11.3874 14.9883 11.3648V5.04004ZM13.4424 8.21385V10.4366C11.3139 11.4183 9.83535 13.5777 9.83535 16.0863C9.83535 18.595 11.3139 20.7543 13.4424 21.736V23.9588C10.1512 22.8719 7.77415 19.7574 7.77415 16.0863C7.77415 12.4153 10.1512 9.30075 13.4424 8.21385Z" fill="white"/>
<path fill-rule="evenodd" clip-rule="evenodd" d="M16.706 26.96V20.8702C16.7404 20.8652 16.7747 20.8599 16.8089 20.8542C17.3219 20.769 17.8074 20.6023 18.2519 20.3677C19.541 19.6875 20.4851 18.4367 20.7519 16.9493H25.6C25.5586 17.4201 25.4835 17.8812 25.3773 18.3301C24.5408 21.8661 21.7709 24.6495 18.2519 25.4901V26.96H16.706ZM18.2519 24.0638C21.0099 23.2859 23.1839 21.1015 23.958 18.3301L21.7867 18.3301C21.1595 19.9572 19.8713 21.2519 18.2519 21.8821V24.0638Z" fill="white"/>
<path fill-rule="evenodd" clip-rule="evenodd" d="M18.2519 11.8049C17.9295 11.6348 17.5856 11.5004 17.2253 11.4069C17.1716 11.3929 17.1175 11.3799 17.0631 11.3678C17.0273 11.3598 16.9913 11.3523 16.9552 11.3451C16.8729 11.3288 16.7898 11.3146 16.706 11.3025V5.04004H18.2519V6.6826C21.7709 7.52318 24.5408 10.3065 25.3773 13.8426C25.4835 14.2915 25.5586 14.7526 25.6 15.2233H20.7519C20.4851 13.736 19.5409 12.4852 18.2519 11.8049ZM18.2519 10.2905V8.10886C21.0099 8.88679 23.1839 11.0712 23.958 13.8426H21.7867C21.1595 12.2154 19.8713 10.9208 18.2519 10.2905Z" fill="white"/>
<defs>
<linearGradient id="paint0_linear_1200_2248" x1="16" y1="0" x2="16" y2="32" gradientUnits="userSpaceOnUse">
<stop stop-color="#424242"/>
<stop offset="1"/>
</linearGradient>
</defs>
</svg>
