<svg width="32" height="32" viewBox="0 0 32 32" fill="none" xmlns="http://www.w3.org/2000/svg">
<path d="M27.1369 27.1369C24.1832 30.0906 20.1772 31.75 16 31.75C11.8228 31.75 7.81677 30.0906 4.86307 27.1369C1.90937 24.1832 0.25 20.1772 0.25 16C0.25 11.8228 1.90937 7.81677 4.86307 4.86307C7.81677 1.90937 11.8228 0.25 16 0.25C20.1772 0.25 24.1832 1.90937 27.1369 4.86307C30.0906 7.81677 31.75 11.8228 31.75 16C31.75 20.1772 30.0906 24.1832 27.1369 27.1369Z" fill="url(#paint0_linear_1200_2242)" stroke="white" stroke-width="0.5"/>
<g clip-path="url(#clip0_1200_2242)">
<path d="M10.3656 24.2581C9.66488 23.7394 9.09553 23.0663 8.70257 22.2922C8.3096 21.518 8.1038 20.664 8.1014 19.7975C8.0566 17.363 8.09546 14.9271 8.0982 12.4917C8.10576 11.9717 8.24894 11.4624 8.51383 11.0134C8.77871 10.5644 9.15631 10.1908 9.60997 9.929C11.53 8.6205 14.8987 8.63544 16.8091 9.9539C17.2979 10.2595 17.6961 10.688 17.963 11.1958C18.23 11.7036 18.3561 12.2725 18.3286 12.8444C18.3103 13.5303 18.3254 14.2171 18.3254 14.9325H13.5771V11.8333H11.6676V18.815C11.6676 21.5809 12.9933 23.4463 15.6237 24.3559C17.3847 24.9672 19.2901 25.0427 21.0948 24.5728C21.2456 24.5352 21.396 24.4945 21.5473 24.4605C21.5757 24.4542 21.6104 24.4755 21.6936 24.4981C20.9563 25.1851 20.0555 25.6764 19.0751 25.9261C18.1424 26.187 17.1785 26.3222 16.2093 26.3282C14.0798 26.3196 12.0176 25.5891 10.3656 24.2581V24.2581ZM15.0614 21.9273C14.5832 21.6217 14.1942 21.1973 13.9331 20.6965C13.672 20.1956 13.548 19.6357 13.5734 19.0726C13.5903 18.3849 13.5766 17.6971 13.5766 16.9727H18.3149V20.0651H20.2349V19.5267C20.2349 17.3498 20.1937 15.1725 20.2454 12.9974C20.3076 10.4198 19.0271 8.75271 16.7711 7.75119C14.877 6.93649 12.7579 6.79088 10.7684 7.33872C10.6038 7.37902 10.4388 7.41615 10.1215 7.4904C10.7918 6.83127 11.6153 6.34539 12.5197 6.07551C14.0311 5.55693 15.6509 5.42809 17.2265 5.70114C18.8021 5.97419 20.2816 6.64013 21.5254 7.63619C22.2286 8.15207 22.8003 8.82353 23.195 9.59705C23.5897 10.3706 23.7965 11.2247 23.7988 12.0914C23.8445 14.5431 23.8038 16.9962 23.7988 19.4489C23.7877 19.9602 23.6444 20.4602 23.3824 20.901C23.1204 21.3417 22.7486 21.7085 22.3025 21.9662C21.2333 22.6367 19.9873 22.9781 18.7222 22.9474C17.426 22.9795 16.1501 22.6241 15.0609 21.9273H15.0614Z" fill="#8F97F1"/>
</g>
<defs>
<linearGradient id="paint0_linear_1200_2242" x1="16" y1="0" x2="16" y2="32" gradientUnits="userSpaceOnUse">
<stop stop-color="#424242"/>
<stop offset="1"/>
</linearGradient>
<clipPath id="clip0_1200_2242">
<rect width="15.84" height="20.96" fill="white" transform="translate(8.07996 5.52002)"/>
</clipPath>
</defs>
</svg>
