<svg width="32" height="32" viewBox="0 0 32 32" fill="none" xmlns="http://www.w3.org/2000/svg">
<path d="M16 32C24.8366 32 32 24.8366 32 16C32 7.16344 24.8366 0 16 0C7.16344 0 0 7.16344 0 16C0 24.8366 7.16344 32 16 32Z" fill="url(#paint0_linear_615_1120)"/>
<path d="M16.8116 20.1188L16.5642 20.1591H16.5461C16.5275 20.1635 16.5094 20.1635 16.4908 20.1683L16.4268 20.1772C13.1838 20.7087 10.4401 20.7776 8.04531 20.3928C7.40058 20.2872 6.45162 20.1087 5.64087 19.7606C4.68265 19.3491 4.13745 18.7902 4.02301 18.0988C3.73449 16.4084 6.23926 15.0528 7.06452 14.6084C9.25377 13.4221 11.952 12.5702 15.3094 12.002C18.6668 11.4339 21.4976 11.3472 23.9524 11.7458C25.5557 12.0065 27.7176 12.5243 27.9759 14.0386C28.2342 15.5529 26.3641 16.7549 24.9344 17.529C22.7987 18.6835 20.1892 19.5216 16.9506 20.0894L16.8866 20.0986C16.8684 20.1035 16.8499 20.1035 16.8317 20.1079C16.8209 20.1188 16.816 20.1188 16.8116 20.1188ZM16.532 20.0269H16.5408L16.7931 19.9814H16.7975C16.8156 19.9765 16.8342 19.9765 16.8523 19.9721L16.9168 19.9628C20.1368 19.3987 22.7338 18.5658 24.859 17.4162C28.1024 15.6617 27.8953 14.4617 27.832 14.068C27.5665 12.4739 24.8276 12.0295 23.9298 11.8876C21.4883 11.4935 18.6761 11.5761 15.3324 12.1447C11.9886 12.7133 9.30898 13.5595 7.12858 14.7365C3.8856 16.491 4.09191 17.691 4.15598 18.0851C4.42596 19.6788 7.16525 20.1188 8.06465 20.2651C10.4465 20.6499 13.1765 20.5814 16.4058 20.0499L16.4703 20.0406C16.4884 20.0362 16.507 20.0362 16.5251 20.0317L16.532 20.0269Z" fill="white"/>
<path d="M16.569 19.4719C16.5049 19.4812 16.436 19.4949 16.363 19.5037C16.2252 19.5267 16.0697 19.5497 15.9001 19.5771L15.8819 19.5819C15.8086 19.5908 15.7308 19.6049 15.6482 19.6137C15.5749 19.623 15.4971 19.6367 15.4149 19.646H15.4004C15.2771 19.6641 15.1441 19.6778 15.0111 19.6963H14.993L14.8234 19.7145C14.7774 19.7193 14.7271 19.7237 14.6815 19.733H14.6751C13.6354 19.8474 12.6458 19.9163 11.7391 19.93C10.0902 19.9526 8.76613 19.8015 7.81355 19.4812C6.90085 19.1741 6.31898 18.7071 6.09212 18.093C6.05295 17.9876 6.02381 17.8787 6.00508 17.7678C5.92449 17.2871 6.04175 16.8108 6.35767 16.3574C6.7977 15.7256 7.63101 15.1208 8.83584 14.5667C9.96412 14.0429 11.3918 13.5726 13.0774 13.1604C14.1444 12.8993 15.0011 12.7437 15.4181 12.6769C15.8352 12.61 16.7096 12.4709 17.7907 12.3609C18.9815 12.24 20.7222 12.1317 22.2655 12.2832C23.5892 12.4113 24.5789 12.7091 25.2019 13.1717C25.6371 13.4969 25.9026 13.8998 25.9804 14.3805C25.9995 14.4956 26.0072 14.6122 26.0034 14.7287V14.7287C25.9848 15.3835 25.5956 16.0109 24.8489 16.5928C24.0547 17.2093 22.8551 17.7908 21.2835 18.313C20.4132 18.6015 19.4557 18.8626 18.4342 19.0963C18.3997 19.1061 18.3646 19.1138 18.3291 19.1193L17.9765 19.1955C17.8846 19.2136 17.7976 19.2321 17.7105 19.2503L17.6235 19.2688C17.5731 19.2777 17.5276 19.2869 17.4772 19.2962C17.4269 19.3055 17.3716 19.3192 17.316 19.3284L17.229 19.3466C17.0594 19.3788 16.9038 19.4062 16.7664 19.4336C16.7031 19.4489 16.6342 19.4626 16.569 19.4719ZM14.9841 19.5634H15.0071C15.1352 19.5497 15.2634 19.5315 15.3871 19.513H15.4004C15.4786 19.5037 15.5563 19.49 15.6341 19.4812C15.7119 19.4723 15.7953 19.4582 15.8678 19.4489L15.8859 19.4445C16.0556 19.4167 16.2083 19.3941 16.3441 19.3756C16.4908 19.3526 16.6052 19.3353 16.7519 19.3071C16.8893 19.2841 17.0448 19.2519 17.2145 19.22L17.3015 19.2015C17.3519 19.1922 17.4067 19.1834 17.4571 19.1697L17.5993 19.1419L17.6864 19.1237C17.7734 19.1056 17.8604 19.0871 17.9519 19.0689L18.3045 18.9908C18.3412 18.9819 18.3734 18.9771 18.4101 18.9678C19.4299 18.7389 20.3809 18.4734 21.2469 18.1881C22.8043 17.6707 23.9906 17.0981 24.7691 16.4888C25.4835 15.9315 25.8547 15.3404 25.8732 14.7267C25.8769 14.6187 25.8692 14.5107 25.8502 14.4043C25.7769 13.9611 25.5279 13.5843 25.1217 13.2821C24.5173 12.8388 23.5554 12.5447 22.2547 12.421C20.7202 12.2743 18.9887 12.3807 17.8068 12.4987C16.7261 12.6043 15.8602 12.7405 15.4435 12.8102C15.0268 12.8799 14.1702 13.0391 13.112 13.2958C11.4599 13.6987 9.99716 14.1799 8.89347 14.6928C7.7116 15.2396 6.89803 15.8259 6.4705 16.4396C6.17714 16.8611 6.06754 17.3052 6.14048 17.7497C6.15772 17.8527 6.18471 17.9539 6.22107 18.0519C6.43624 18.6289 6.98668 19.0689 7.86069 19.3619C8.79958 19.6778 10.1052 19.8245 11.7403 19.8015C12.6474 19.7878 13.6322 19.7237 14.6674 19.6049H14.6763C14.724 19.6012 14.7715 19.595 14.8185 19.5863L14.9833 19.5634H14.9841Z" fill="white"/>
<path d="M11.2189 18.1258L11.2052 18.1214H11.1923L11.2052 18.2495C11.2455 18.2451 11.2829 18.2451 11.3261 18.2407C11.4333 18.2323 11.541 18.2305 11.6484 18.2354C11.5031 18.2077 11.3597 18.1711 11.2189 18.1258V18.1258ZM12.4902 18.4663H12.5144H12.4902ZM12.7158 18.3454L12.7312 18.3422L12.7158 18.3454ZM12.7666 18.3378H12.7626V18.3454H12.7719L12.7666 18.3378ZM25.9771 14.384C25.8993 13.9029 25.6338 13.4999 25.1986 13.1751C24.5756 12.7125 23.5868 12.4147 22.2623 12.2862C20.7189 12.1351 18.9782 12.2459 17.7895 12.3644C16.7083 12.474 15.8379 12.6062 15.4169 12.6803C14.9958 12.7544 14.1415 12.9055 13.0741 13.1655C11.3885 13.5777 9.95923 14.0495 8.83256 14.5718C7.62692 15.1258 6.79441 15.7303 6.35439 16.3625C6.03847 16.8158 5.9196 17.2925 6.0018 17.7728C6.01564 17.856 6.03557 17.938 6.06144 18.0182C6.0703 18.0456 6.07917 18.0718 6.08884 18.0988C6.09529 18.1158 6.10173 18.1323 6.10858 18.1488C6.35036 18.7379 6.92417 19.188 7.81107 19.4866C8.76406 19.809 10.0878 19.9585 11.7367 19.9355H11.7641L11.7822 19.9129C12.0199 19.6615 12.2758 19.4012 12.5317 19.1796C12.5369 19.1747 12.5422 19.1707 12.5474 19.1663L12.6892 19.0426H12.5027C12.4922 19.0426 12.4813 19.0426 12.4708 19.0426C11.2479 19.0542 10.2622 18.945 9.54096 18.7101H9.53451L9.54297 18.7069C10.176 18.4522 10.7003 18.3112 11.1834 18.2568H11.1862C11.5396 18.3672 11.974 18.4377 12.4793 18.4671C12.1816 18.4512 11.8854 18.4146 11.5928 18.3575C11.54 18.3467 11.488 18.335 11.4373 18.3233L11.3744 18.3051C11.3136 18.2886 11.2535 18.2717 11.1979 18.254L11.1842 18.2507H11.1798C11.093 18.2239 11.0108 18.1934 10.9332 18.1593C10.4621 18.2375 9.94271 18.3958 9.32941 18.6541L9.17991 18.7182L9.17024 18.7222L9.33142 18.7818C10.0503 19.0522 11.0641 19.1896 12.3363 19.1848C12.1207 19.3774 11.9148 19.5926 11.7177 19.7985C10.0962 19.8215 8.80436 19.6704 7.87031 19.3589C7.02692 19.0768 6.48575 18.6577 6.25526 18.1097C6.2464 18.0896 6.23793 18.0694 6.23028 18.0477C6.22262 18.0259 6.21376 18.0029 6.2065 17.98C6.18136 17.9033 6.16184 17.8249 6.14807 17.7454C6.07474 17.3022 6.18434 16.8569 6.47769 16.4354C6.9016 15.8221 7.71477 15.2358 8.89663 14.6906C10.0007 14.1777 11.4618 13.6965 13.1152 13.2936C14.1733 13.0373 15.03 12.8769 15.4467 12.808C15.8633 12.7391 16.7293 12.6021 17.8104 12.4965C18.9919 12.3757 20.7234 12.2721 22.2578 12.4188C23.5586 12.5425 24.5204 12.8354 25.1253 13.2799C25.533 13.5821 25.7801 13.9577 25.8534 14.4021C25.8726 14.5084 25.8803 14.6165 25.8764 14.7245C25.8582 15.3382 25.4871 15.9289 24.7727 16.4878C23.9986 17.0923 22.8212 17.6649 21.2778 18.1778C21.0212 18.0452 20.7463 17.9078 20.4719 17.7886C21.6675 17.3675 22.579 16.9093 23.1834 16.4238L23.3164 16.3137H23.289L23.1423 16.3057C22.2905 16.2509 21.6538 16.2968 21.1453 16.4431L21.1316 16.4479L21.1179 16.4568C20.7602 16.7009 20.376 16.9037 19.9727 17.0612L19.9086 17.0842C19.7849 17.1346 19.6519 17.1849 19.5193 17.2305L19.4367 17.2583L19.4392 17.2434C19.4444 17.2115 19.4492 17.1793 19.4529 17.1475C19.4768 16.9639 19.4868 16.7788 19.4827 16.5938C19.4827 16.5648 19.4827 16.5354 19.479 16.506C19.4754 16.4765 19.4758 16.4471 19.4734 16.4173C19.471 16.3875 19.4682 16.3577 19.4657 16.3274C19.4633 16.2972 19.4593 16.2674 19.4549 16.2376C19.4496 16.1973 19.4436 16.157 19.4367 16.1167C19.4299 16.0764 19.4202 16.0361 19.4126 15.9958C19.4089 15.9757 19.4045 15.9555 19.4001 15.9362C19.3308 15.6236 19.2167 15.3227 19.0612 15.0428C19.0083 14.9473 18.9506 14.8545 18.8883 14.7648C18.8694 14.7374 18.85 14.7096 18.8299 14.6842C18.8097 14.6588 18.796 14.6379 18.7783 14.6153C18.7606 14.5927 18.7404 14.5669 18.7211 14.5432C18.5062 14.2803 18.2534 14.0511 17.9708 13.863C17.7484 13.7133 17.5084 13.5915 17.2563 13.5003C16.7333 13.3113 16.1719 13.2531 15.6212 13.3307C15.567 13.3363 15.5132 13.3447 15.46 13.3561H15.4459C14.9001 13.465 14.3891 13.7056 13.9573 14.0568C13.7587 14.2153 13.58 14.3974 13.4254 14.5992L13.4122 14.6157C13.3077 14.7512 13.2134 14.8942 13.1301 15.0436C13.1136 15.0734 13.0978 15.1037 13.0825 15.1339C13.0696 15.1577 13.058 15.1818 13.0463 15.2068C13.0346 15.2318 13.0261 15.2471 13.0173 15.2689C12.9719 15.3691 12.9315 15.4716 12.8964 15.5759V15.5759C12.8867 15.6041 12.8774 15.6323 12.8682 15.6606C12.8589 15.6888 12.8512 15.7166 12.8432 15.7452C12.8371 15.7665 12.8307 15.7887 12.825 15.8105C12.825 15.8149 12.825 15.8189 12.8222 15.8229C12.8197 15.8301 12.8177 15.8373 12.8162 15.8447C12.8109 15.8636 12.8065 15.885 12.8021 15.9031C12.8017 15.9054 12.8017 15.9077 12.8021 15.91V15.916C12.798 15.9317 12.7952 15.9467 12.792 15.9624C12.7888 15.9781 12.786 15.9902 12.7831 16.0027C12.7771 16.0321 12.7719 16.0619 12.7666 16.0917C12.7553 16.1582 12.7457 16.2243 12.7376 16.2908C12.7352 16.3133 12.7328 16.3363 12.7308 16.3593C12.7283 16.3895 12.7259 16.4197 12.7239 16.4503C12.7158 16.5863 12.7158 16.7226 12.7239 16.8585C12.7267 16.9129 12.7308 16.9677 12.7368 17.0225C12.7368 17.0342 12.7368 17.0463 12.7404 17.058C12.7457 17.0983 12.7513 17.1334 12.7569 17.1696C12.7569 17.1773 12.7569 17.1849 12.7606 17.1922C12.7604 17.1937 12.7604 17.1951 12.7606 17.1966C12.7606 17.2027 12.7626 17.2087 12.7634 17.2148C12.7631 17.2162 12.7631 17.2177 12.7634 17.2192C12.7634 17.2268 12.7658 17.2341 12.7666 17.2413C12.769 17.2575 12.7719 17.2728 12.7747 17.2889C12.8041 17.4467 12.8445 17.6022 12.8956 17.7543C12.9619 17.9594 13.0484 18.1574 13.1539 18.3454H13.1567C13.1744 18.3773 13.1933 18.4087 13.2123 18.4409L13.2324 18.4736H13.2727C13.2538 18.4736 13.2357 18.4736 13.2171 18.4736H13.2099L13.0447 18.4812H13.0523C13.0926 18.4812 13.1293 18.4812 13.1668 18.4788C13.1821 18.4788 13.197 18.4788 13.2123 18.4788H13.2147H13.2723L13.3932 18.474L13.3299 18.3745C13.3231 18.3636 13.3162 18.3527 13.3098 18.341C13.1894 18.1424 13.0917 17.9308 13.0185 17.7104C12.964 17.549 12.9227 17.3836 12.8948 17.2156C12.8859 17.1563 12.8766 17.1011 12.8718 17.0415C12.8682 17.0096 12.8649 16.9774 12.8625 16.9456C12.8375 16.6673 12.85 16.3869 12.8996 16.1119C12.9871 15.5948 13.1996 15.1069 13.5185 14.6906C13.5629 14.6342 13.6092 14.579 13.6567 14.5254C13.7741 14.3914 13.9024 14.2674 14.0404 14.1547C14.4555 13.8192 14.946 13.5897 15.4696 13.4862L15.4829 13.4838L15.5522 13.4721L15.6328 13.4584C16.1623 13.3837 16.702 13.4405 17.2044 13.6236C17.4448 13.7103 17.674 13.8255 17.887 13.9669C18.5831 14.4278 19.074 15.1401 19.257 15.9547C19.2659 16.0099 19.2796 16.0647 19.2889 16.1244C19.3151 16.2758 19.3304 16.4289 19.3348 16.5825C19.3397 16.8225 19.3187 17.0623 19.2723 17.2978C19.2723 17.3078 19.2687 17.3175 19.2667 17.3276L19.2441 17.4465L19.3586 17.4098L19.4057 17.3937C19.4569 17.3763 19.506 17.3586 19.5552 17.3413C19.6926 17.2953 19.8212 17.245 19.9493 17.1946L20.0134 17.1716C20.4224 17.0101 20.8124 16.8043 21.1767 16.5579C21.6349 16.4298 22.2119 16.3839 22.9449 16.4161L22.9396 16.4201C22.3255 16.8811 21.4205 17.3151 20.2515 17.712L20.073 17.7716H20.075L20.2471 17.8397L20.2616 17.8454C20.5948 17.9804 20.9202 18.1339 21.2363 18.3051L21.2637 18.3188H21.2823C22.8538 17.795 24.0534 17.2148 24.846 16.5966C25.5923 16.0148 25.9819 15.3878 26.0001 14.7321C26.0039 14.6156 25.9962 14.499 25.9771 14.384V14.384ZM12.7666 18.3378H12.7626V18.3454H12.7719L12.7666 18.3378ZM12.7316 18.3454L12.7154 18.3483L12.7316 18.3454ZM12.7255 18.4816H12.7328L12.8113 18.4841H12.873C12.8194 18.4841 12.7658 18.4808 12.7158 18.4784C12.7021 18.4784 12.6888 18.4784 12.6755 18.4784H12.6606C12.6584 18.478 12.6561 18.478 12.6538 18.4784L12.7255 18.4816ZM11.1919 18.1254L11.2048 18.2536C11.2451 18.2491 11.2825 18.2491 11.3256 18.2447C11.4329 18.2363 11.5406 18.2346 11.648 18.2395C11.5031 18.2116 11.3601 18.175 11.2197 18.1299L11.206 18.1254H11.1919ZM11.2185 18.1299L11.2048 18.1254H11.1919L11.2048 18.2536C11.2451 18.2491 11.2825 18.2491 11.3256 18.2447C11.4329 18.2363 11.5406 18.2346 11.648 18.2395C11.5028 18.2104 11.3595 18.1724 11.2189 18.1258L11.2185 18.1299ZM12.7158 18.3454L12.7312 18.3422L12.7158 18.3454ZM12.7666 18.3378H12.7626V18.3454H12.7719L12.7666 18.3378ZM12.7666 18.339H12.7626V18.3454H12.7719L12.7666 18.339ZM12.7158 18.3454L12.7312 18.3422L12.7158 18.3454ZM11.2189 18.1258L11.2052 18.1214H11.1923L11.2052 18.2495C11.2455 18.2451 11.2829 18.2451 11.3261 18.2407C11.4333 18.2323 11.541 18.2305 11.6484 18.2354C11.5031 18.2077 11.3597 18.1711 11.2189 18.1258V18.1258Z" fill="white"/>
<path d="M11.2189 18.1258L11.2052 18.1214H11.1923L11.2052 18.2495C11.2455 18.2451 11.2829 18.2451 11.3261 18.2407C11.4333 18.2323 11.541 18.2305 11.6484 18.2354C11.5031 18.2077 11.3597 18.1711 11.2189 18.1258V18.1258ZM12.4902 18.4663H12.5144H12.4902ZM12.7158 18.3454L12.7312 18.3422L12.7158 18.3454ZM12.7666 18.3378H12.7626V18.3454H12.7719L12.7666 18.3378ZM25.9771 14.384C25.8993 13.9029 25.6338 13.4999 25.1986 13.1751C24.5756 12.7125 23.5868 12.4147 22.2623 12.2862C20.7189 12.1351 18.9782 12.2459 17.7895 12.3644C16.7083 12.474 15.8379 12.6062 15.4169 12.6803C14.9958 12.7544 14.1415 12.9055 13.0741 13.1655C11.3885 13.5777 9.95923 14.0495 8.83256 14.5718C7.62692 15.1258 6.79441 15.7303 6.35439 16.3625C6.03847 16.8158 5.9196 17.2925 6.0018 17.7728C6.01564 17.856 6.03557 17.938 6.06144 18.0182C6.0703 18.0456 6.07917 18.0718 6.08884 18.0988C6.09529 18.1158 6.10173 18.1323 6.10858 18.1488C6.35036 18.7379 6.92417 19.188 7.81107 19.4866C8.76406 19.809 10.0878 19.9585 11.7367 19.9355H11.7641L11.7822 19.9129C12.0199 19.6615 12.2758 19.4012 12.5317 19.1796C12.5369 19.1747 12.5422 19.1707 12.5474 19.1663L12.6892 19.0426H12.5027C12.4922 19.0426 12.4813 19.0426 12.4708 19.0426C11.2479 19.0542 10.2622 18.945 9.54096 18.7101H9.53451L9.54297 18.7069C10.176 18.4522 10.7003 18.3112 11.1834 18.2568H11.1862C11.5396 18.3672 11.974 18.4377 12.4793 18.4671C12.1816 18.4512 11.8854 18.4146 11.5928 18.3575C11.54 18.3467 11.488 18.335 11.4373 18.3233L11.3744 18.3051C11.3136 18.2886 11.2535 18.2717 11.1979 18.254L11.1842 18.2507H11.1798C11.093 18.2239 11.0108 18.1934 10.9332 18.1593C10.4621 18.2375 9.94271 18.3958 9.32941 18.6541L9.17991 18.7182L9.17024 18.7222L9.33142 18.7818C10.0503 19.0522 11.0641 19.1896 12.3363 19.1848C12.1207 19.3774 11.9148 19.5926 11.7177 19.7985C10.0962 19.8215 8.80436 19.6704 7.87031 19.3589C7.02692 19.0768 6.48575 18.6577 6.25526 18.1097C6.2464 18.0896 6.23793 18.0694 6.23028 18.0477C6.22262 18.0259 6.21376 18.0029 6.2065 17.98C6.18136 17.9033 6.16184 17.8249 6.14807 17.7454C6.07474 17.3022 6.18434 16.8569 6.47769 16.4354C6.9016 15.8221 7.71477 15.2358 8.89663 14.6906C10.0007 14.1777 11.4618 13.6965 13.1152 13.2936C14.1733 13.0373 15.03 12.8769 15.4467 12.808C15.8633 12.7391 16.7293 12.6021 17.8104 12.4965C18.9919 12.3757 20.7234 12.2721 22.2578 12.4188C23.5586 12.5425 24.5204 12.8354 25.1253 13.2799C25.533 13.5821 25.7801 13.9577 25.8534 14.4021C25.8726 14.5084 25.8803 14.6165 25.8764 14.7245C25.8582 15.3382 25.4871 15.9289 24.7727 16.4878C23.9986 17.0923 22.8212 17.6649 21.2778 18.1778C21.0212 18.0452 20.7463 17.9078 20.4719 17.7886C21.6675 17.3675 22.579 16.9093 23.1834 16.4238L23.3164 16.3137H23.289L23.1423 16.3057C22.2905 16.2509 21.6538 16.2968 21.1453 16.4431L21.1316 16.4479L21.1179 16.4568C20.7602 16.7009 20.376 16.9037 19.9727 17.0612L19.9086 17.0842C19.7849 17.1346 19.6519 17.1849 19.5193 17.2305L19.4367 17.2583L19.4392 17.2434C19.4444 17.2115 19.4492 17.1793 19.4529 17.1475C19.4768 16.9639 19.4868 16.7788 19.4827 16.5938C19.4827 16.5648 19.4827 16.5354 19.479 16.506C19.4754 16.4765 19.4758 16.4471 19.4734 16.4173C19.471 16.3875 19.4682 16.3577 19.4657 16.3274C19.4633 16.2972 19.4593 16.2674 19.4549 16.2376C19.4496 16.1973 19.4436 16.157 19.4367 16.1167C19.4299 16.0764 19.4202 16.0361 19.4126 15.9958C19.4089 15.9757 19.4045 15.9555 19.4001 15.9362C19.3308 15.6236 19.2167 15.3227 19.0612 15.0428C19.0083 14.9473 18.9506 14.8545 18.8883 14.7648C18.8694 14.7374 18.85 14.7096 18.8299 14.6842C18.8097 14.6588 18.796 14.6379 18.7783 14.6153C18.7606 14.5927 18.7404 14.5669 18.7211 14.5432C18.5062 14.2803 18.2534 14.0511 17.9708 13.863C17.7484 13.7133 17.5084 13.5915 17.2563 13.5003C16.7333 13.3113 16.1719 13.2531 15.6212 13.3307C15.567 13.3363 15.5132 13.3447 15.46 13.3561H15.4459C14.9001 13.465 14.3891 13.7056 13.9573 14.0568C13.7587 14.2153 13.58 14.3974 13.4254 14.5992L13.4122 14.6157C13.3077 14.7512 13.2134 14.8942 13.1301 15.0436C13.1136 15.0734 13.0978 15.1037 13.0825 15.1339C13.0696 15.1577 13.058 15.1818 13.0463 15.2068C13.0346 15.2318 13.0261 15.2471 13.0173 15.2689C12.9719 15.3691 12.9315 15.4716 12.8964 15.5759V15.5759C12.8867 15.6041 12.8774 15.6323 12.8682 15.6606C12.8589 15.6888 12.8512 15.7166 12.8432 15.7452C12.8371 15.7665 12.8307 15.7887 12.825 15.8105C12.825 15.8149 12.825 15.8189 12.8222 15.8229C12.8197 15.8301 12.8177 15.8373 12.8162 15.8447C12.8109 15.8636 12.8065 15.885 12.8021 15.9031C12.8017 15.9054 12.8017 15.9077 12.8021 15.91V15.916C12.798 15.9317 12.7952 15.9467 12.792 15.9624C12.7888 15.9781 12.786 15.9902 12.7831 16.0027C12.7771 16.0321 12.7719 16.0619 12.7666 16.0917C12.7553 16.1582 12.7457 16.2243 12.7376 16.2908C12.7352 16.3133 12.7328 16.3363 12.7308 16.3593C12.7283 16.3895 12.7259 16.4197 12.7239 16.4503C12.7158 16.5863 12.7158 16.7226 12.7239 16.8585C12.7267 16.9129 12.7308 16.9677 12.7368 17.0225C12.7368 17.0342 12.7368 17.0463 12.7404 17.058C12.7457 17.0983 12.7513 17.1334 12.7569 17.1696C12.7569 17.1773 12.7569 17.1849 12.7606 17.1922C12.7604 17.1937 12.7604 17.1951 12.7606 17.1966C12.7606 17.2027 12.7626 17.2087 12.7634 17.2148C12.7631 17.2162 12.7631 17.2177 12.7634 17.2192C12.7634 17.2268 12.7658 17.2341 12.7666 17.2413C12.769 17.2575 12.7719 17.2728 12.7747 17.2889C12.8041 17.4467 12.8445 17.6022 12.8956 17.7543C12.9619 17.9594 13.0484 18.1574 13.1539 18.3454H13.1567C13.1744 18.3773 13.1933 18.4087 13.2123 18.4409L13.2324 18.4736H13.2727C13.2538 18.4736 13.2357 18.4736 13.2171 18.4736H13.2099L13.0447 18.4812H13.0523C13.0926 18.4812 13.1293 18.4812 13.1668 18.4788C13.1821 18.4788 13.197 18.4788 13.2123 18.4788H13.2147H13.2723L13.3932 18.474L13.3299 18.3745C13.3231 18.3636 13.3162 18.3527 13.3098 18.341C13.1894 18.1424 13.0917 17.9308 13.0185 17.7104C12.964 17.549 12.9227 17.3836 12.8948 17.2156C12.8859 17.1563 12.8766 17.1011 12.8718 17.0415C12.8682 17.0096 12.8649 16.9774 12.8625 16.9456C12.8375 16.6673 12.85 16.3869 12.8996 16.1119C12.9871 15.5948 13.1996 15.1069 13.5185 14.6906C13.5629 14.6342 13.6092 14.579 13.6567 14.5254C13.7741 14.3914 13.9024 14.2674 14.0404 14.1547C14.4555 13.8192 14.946 13.5897 15.4696 13.4862L15.4829 13.4838L15.5522 13.4721L15.6328 13.4584C16.1623 13.3837 16.702 13.4405 17.2044 13.6236C17.4448 13.7103 17.674 13.8255 17.887 13.9669C18.5831 14.4278 19.074 15.1401 19.257 15.9547C19.2659 16.0099 19.2796 16.0647 19.2889 16.1244C19.3151 16.2758 19.3304 16.4289 19.3348 16.5825C19.3397 16.8225 19.3187 17.0623 19.2723 17.2978C19.2723 17.3078 19.2687 17.3175 19.2667 17.3276L19.2441 17.4465L19.3586 17.4098L19.4057 17.3937C19.4569 17.3763 19.506 17.3586 19.5552 17.3413C19.6926 17.2953 19.8212 17.245 19.9493 17.1946L20.0134 17.1716C20.4224 17.0101 20.8124 16.8043 21.1767 16.5579C21.6349 16.4298 22.2119 16.3839 22.9449 16.4161L22.9396 16.4201C22.3255 16.8811 21.4205 17.3151 20.2515 17.712L20.073 17.7716H20.075L20.2471 17.8397L20.2616 17.8454C20.5948 17.9804 20.9202 18.1339 21.2363 18.3051L21.2637 18.3188H21.2823C22.8538 17.795 24.0534 17.2148 24.846 16.5966C25.5923 16.0148 25.9819 15.3878 26.0001 14.7321C26.0039 14.6156 25.9962 14.499 25.9771 14.384V14.384ZM12.7666 18.3378H12.7626V18.3454H12.7719L12.7666 18.3378ZM12.7316 18.3454L12.7154 18.3483L12.7316 18.3454ZM12.7255 18.4816H12.7328L12.8113 18.4841H12.873C12.8194 18.4841 12.7658 18.4808 12.7158 18.4784C12.7021 18.4784 12.6888 18.4784 12.6755 18.4784H12.6606C12.6584 18.478 12.6561 18.478 12.6538 18.4784L12.7255 18.4816ZM11.1919 18.1254L11.2048 18.2536C11.2451 18.2491 11.2825 18.2491 11.3256 18.2447C11.4329 18.2363 11.5406 18.2346 11.648 18.2395C11.5031 18.2116 11.3601 18.175 11.2197 18.1299L11.206 18.1254H11.1919ZM11.2185 18.1299L11.2048 18.1254H11.1919L11.2048 18.2536C11.2451 18.2491 11.2825 18.2491 11.3256 18.2447C11.4329 18.2363 11.5406 18.2346 11.648 18.2395C11.5028 18.2104 11.3595 18.1724 11.2189 18.1258L11.2185 18.1299ZM12.7158 18.3454L12.7312 18.3422L12.7158 18.3454ZM12.7158 18.3454L12.7312 18.3422L12.7158 18.3454ZM11.2189 18.1258L11.2052 18.1214H11.1923L11.2052 18.2495C11.2455 18.2451 11.2829 18.2451 11.3261 18.2407C11.4333 18.2323 11.541 18.2305 11.6484 18.2354C11.5031 18.2077 11.3597 18.1711 11.2189 18.1258V18.1258Z" fill="white"/>
<path d="M12.7255 18.343L12.7017 18.3466H12.6969C12.6127 18.3442 12.5297 18.3402 12.4491 18.3353C12.3465 18.3292 12.2471 18.3211 12.1509 18.3112C11.9897 18.2953 11.839 18.2742 11.6988 18.2479C11.5335 18.2184 11.3704 18.178 11.2104 18.127L11.1963 18.1222H11.1826C11.0948 18.1319 11.0053 18.1453 10.9142 18.1625C10.4508 18.2431 9.9423 18.3974 9.3427 18.646C8.72215 18.4115 8.33128 18.0702 8.17937 17.6334C8.17091 17.6096 8.16325 17.5854 8.1564 17.5605C8.14955 17.5355 8.14512 17.5178 8.14069 17.4968C8.13464 17.4686 8.12981 17.4404 8.12417 17.4138C8.0601 17.0382 8.16083 16.6675 8.42195 16.3145L8.44008 16.2916C8.79428 15.8229 9.43579 15.3736 10.3521 14.9574C10.8474 14.7356 11.3549 14.542 11.8721 14.3775C12.4362 14.1934 13.0567 14.0205 13.714 13.8625C14.0065 13.7928 14.2745 13.7312 14.5162 13.6812C14.5279 13.6784 14.54 13.6764 14.5521 13.674C14.3399 13.7815 14.1402 13.9121 13.9565 14.0632C13.7559 14.2236 13.5758 14.4081 13.4202 14.6124L13.4117 14.6229C13.3677 14.6796 13.3261 14.7378 13.2868 14.7974C13.1217 15.0422 12.99 15.308 12.8952 15.5876V15.5876C12.8855 15.6158 12.8762 15.644 12.867 15.6722C12.8577 15.7004 12.85 15.7282 12.842 15.7568C12.8383 15.7693 12.8351 15.7818 12.8319 15.7947C12.8287 15.8076 12.8267 15.8132 12.8238 15.8221C12.821 15.831 12.8238 15.8306 12.821 15.8346C12.8185 15.8417 12.8165 15.849 12.815 15.8564C12.8097 15.8753 12.8053 15.8967 12.8009 15.9148C12.8005 15.9171 12.8005 15.9194 12.8009 15.9216V15.9277C12.7968 15.9434 12.794 15.9583 12.7908 15.974C12.7876 15.9897 12.7847 16.0018 12.7819 16.0143C12.7819 16.0192 12.7795 16.0236 12.7787 16.0288C12.7735 16.0522 12.7694 16.0752 12.7654 16.0985C12.7533 16.1662 12.744 16.2343 12.7364 16.3024C12.734 16.325 12.7316 16.348 12.7295 16.3709C12.7271 16.4012 12.7247 16.4314 12.7227 16.462C12.7146 16.598 12.7146 16.7343 12.7227 16.8702C12.7259 16.9246 12.7299 16.979 12.736 17.0334C12.736 17.0443 12.736 17.0548 12.7392 17.0652C12.7445 17.1055 12.7505 17.143 12.7561 17.1805C12.7567 17.1847 12.7575 17.1889 12.7586 17.193C12.761 17.2119 12.7638 17.23 12.7666 17.2486C12.7731 17.2889 12.7803 17.3292 12.7892 17.3695C12.7892 17.3735 12.7892 17.3771 12.7912 17.3816C12.7964 17.4037 12.8013 17.4263 12.8065 17.448C12.8271 17.5359 12.85 17.6181 12.8746 17.6971C12.8811 17.7184 12.8879 17.7374 12.8948 17.7607L12.9213 17.8361C12.9306 17.8615 12.9399 17.8865 12.95 17.9118C12.9697 17.9618 12.9903 18.0118 13.012 18.0609C13.0217 18.0823 13.031 18.1012 13.041 18.1238C13.0511 18.1464 13.0608 18.1641 13.0712 18.185C13.0986 18.2415 13.1285 18.2971 13.1599 18.3511C13.1776 18.3829 13.1966 18.4143 13.2155 18.4466L13.2357 18.4792H13.2759C13.257 18.4792 13.2389 18.4792 13.2203 18.4792H13.2131L13.0479 18.4869H13.0555C13.0958 18.4869 13.1325 18.4869 13.17 18.4844H13.2151H13.2179H13.2755H13.2848L13.4037 18.4796L13.3449 18.3801C13.338 18.3692 13.3312 18.3583 13.3243 18.3466C13.2016 18.1493 13.1014 17.9388 13.0253 17.7192C12.9718 17.5578 12.9314 17.3923 12.9044 17.2244C12.8956 17.1652 12.8863 17.11 12.8819 17.0503C12.8774 17.0157 12.8738 16.981 12.871 16.946C12.8481 16.6703 12.8616 16.3928 12.9113 16.1207C12.9992 15.604 13.212 15.1165 13.531 14.7007C13.5653 14.6572 13.6003 14.6145 13.6366 14.5726C14.1122 14.0146 14.7635 13.635 15.4833 13.4963V13.4938L15.4612 13.3657V13.3633C15.3955 13.3746 15.3157 13.3891 15.2226 13.406C14.8696 13.4709 14.3317 13.5773 13.6914 13.7284C12.3492 14.0507 11.2132 14.4202 10.3066 14.8325C9.38582 15.2539 8.72658 15.7073 8.35546 16.188L8.33693 16.211C8.03954 16.6051 7.9247 17.0169 7.99804 17.4388C8.00288 17.467 8.00852 17.494 8.01496 17.5194C8.02141 17.5447 8.02786 17.5709 8.03471 17.5971C8.04035 17.6165 8.0464 17.6374 8.05244 17.6552C8.20113 18.1093 8.57628 18.4663 9.16701 18.7194C9.17025 18.7212 9.17362 18.7228 9.17709 18.7242C9.22504 18.7447 9.27501 18.7645 9.32658 18.7838L9.35399 18.7927L9.37695 18.7838C9.43176 18.7609 9.48575 18.7383 9.53814 18.7169L9.547 18.7137C10.1764 18.4607 10.6974 18.3172 11.1834 18.2624H11.1898C11.2479 18.2805 11.3083 18.2975 11.3708 18.3136C11.3099 18.2971 11.2499 18.2801 11.1943 18.2624L11.1806 18.2592H11.1761C11.0894 18.2323 11.0072 18.2018 10.9295 18.1677C11.0182 18.1528 11.1048 18.1403 11.1898 18.131L11.2027 18.2592C11.243 18.2548 11.2805 18.2548 11.3236 18.2503C11.4309 18.2419 11.5385 18.2402 11.646 18.2451C11.834 18.2819 12.0238 18.3088 12.2146 18.3257C12.2952 18.3333 12.3757 18.3394 12.4608 18.3446C12.5458 18.3499 12.626 18.3531 12.711 18.3559H12.7154L12.7308 18.3527L12.7481 18.3503L12.7614 18.3482V18.3555H12.7706H12.821C12.8956 18.3555 12.9697 18.3595 13.0406 18.3595H13.1555C13.1544 18.3581 13.1534 18.3567 13.1526 18.3551H13.0318C12.9616 18.3551 12.8883 18.3519 12.8142 18.3511H12.7835L12.7702 18.3482H12.765H12.761L12.7255 18.343ZM12.7316 18.4909H12.7336L12.8101 18.4937H12.8718C12.8182 18.4937 12.7646 18.4905 12.7146 18.4881C12.7009 18.4881 12.6876 18.4881 12.6743 18.4881H12.6627L12.7316 18.4909ZM12.7247 18.3458L12.734 18.349L12.7247 18.3458ZM13.1518 18.3587H13.031C12.9608 18.3587 12.8875 18.3555 12.8134 18.3547H12.7835L12.7702 18.3519H12.765H12.761V18.3555H12.7702H12.8206C12.8952 18.3555 12.9693 18.3595 13.0402 18.3595H13.1551C13.1541 18.3583 13.1533 18.3569 13.1526 18.3555L13.1518 18.3587Z" fill="white"/>
<path d="M19.2545 17.4598L19.2775 17.3389C19.3281 17.0933 19.351 16.8429 19.346 16.5922C19.3419 16.4394 19.3266 16.2871 19.3001 16.1365C19.2912 16.0769 19.2775 16.0221 19.2682 15.9673C19.0854 15.1525 18.5945 14.44 17.8982 13.9791C17.6853 13.8376 17.4561 13.7223 17.2156 13.6358C16.7132 13.4527 16.1735 13.3961 15.6441 13.471L15.6211 13.338C15.9326 13.2876 16.5829 13.1869 17.4074 13.1091C18.337 13.0172 19.7022 12.935 20.9296 13.0446H20.9389C21.9648 13.1365 22.7437 13.3517 23.2611 13.6861L23.2841 13.6998C23.6919 13.9702 23.9345 14.3135 24.0034 14.7306C24.0136 14.7911 24.0196 14.8522 24.0215 14.9135C24.0396 15.4402 23.756 15.9536 23.1753 16.4299L23.1523 16.448H23.1249C22.3097 16.3976 21.6743 16.4387 21.1783 16.581C20.8139 16.8271 20.4238 17.0329 20.0149 17.1947L19.9508 17.2176C19.8223 17.268 19.6942 17.3184 19.5568 17.3643C19.4927 17.3869 19.4286 17.4098 19.3597 17.4328L19.2545 17.4598ZM16.5737 13.3283C16.8072 13.3615 17.0367 13.4183 17.2587 13.4979C17.5108 13.5891 17.7508 13.7109 17.9731 13.8606C18.4255 14.1621 18.7992 14.5673 19.0631 15.0425C19.2186 15.322 19.3324 15.6227 19.4012 15.935C19.4149 15.9947 19.4238 16.0559 19.4375 16.1135C19.4641 16.2711 19.4795 16.4304 19.4834 16.5902C19.4888 16.8125 19.4734 17.0348 19.4375 17.2543L19.5201 17.2269C19.6531 17.181 19.7856 17.1306 19.9093 17.0802L19.9734 17.0573C20.3767 16.8996 20.7609 16.6968 21.1186 16.4528L21.1323 16.4436L21.146 16.4387C21.6501 16.2924 22.2775 16.2509 23.1157 16.3013C23.6472 15.8581 23.9083 15.3898 23.8897 14.9135C23.8881 14.8567 23.882 14.8002 23.8716 14.7443C23.8075 14.3732 23.592 14.0617 23.2301 13.8143L23.212 13.8006C22.7171 13.4754 21.9523 13.2646 20.9401 13.1683H20.9308C19.7127 13.0587 18.3519 13.1409 17.4223 13.2328C17.1108 13.2642 16.8267 13.2965 16.5737 13.3283Z" fill="white"/>
<path d="M12.7781 18.3396V18.3436L12.7914 18.3408L12.7781 18.3396ZM13.1601 18.344H13.0392C12.9691 18.344 12.8957 18.3408 12.8216 18.34L12.8284 18.3444C12.903 18.3444 12.9771 18.3485 13.048 18.3485H13.1629C13.1618 18.347 13.1608 18.3453 13.1601 18.3436V18.344ZM12.7422 18.3344L12.7128 18.3392H12.7104C12.6261 18.3364 12.5443 18.3328 12.4642 18.3275C12.3719 18.3227 12.2828 18.3158 12.1958 18.307C12.0207 18.2914 11.8465 18.2669 11.674 18.2336V18.2336C11.52 18.2051 11.3681 18.1669 11.219 18.1192L11.2049 18.1148H11.2009L11.1912 18.1115C10.7137 17.9528 10.3893 17.711 10.2261 17.3902C10.2108 17.36 10.1963 17.3286 10.1838 17.2964C10.1774 17.2802 10.1709 17.2637 10.1649 17.2468C10.1449 17.1899 10.1297 17.1314 10.1194 17.0719C10.0791 16.8519 10.1516 16.6287 10.3349 16.3986C10.4928 16.2096 10.6771 16.0444 10.8821 15.9082C11.156 15.7211 11.4439 15.5554 11.7433 15.4125C12.2436 15.173 12.7584 14.9648 13.2846 14.7892L13.2946 14.7855C13.2382 14.8694 13.1858 14.9555 13.1375 15.0438C13.121 15.0737 13.1053 15.1039 13.0899 15.1341C13.077 15.1579 13.0654 15.1821 13.0537 15.207C13.042 15.232 13.0335 15.2473 13.0247 15.2691C12.9793 15.3694 12.9389 15.4718 12.9038 15.5761V15.5761C12.8941 15.6043 12.8848 15.6326 12.8756 15.6608C12.8663 15.689 12.8586 15.7168 12.8506 15.7454C12.8445 15.7667 12.8381 15.7889 12.8325 15.8107C12.8325 15.8151 12.8325 15.8191 12.8296 15.8232C12.8271 15.8303 12.8251 15.8375 12.8236 15.8449C12.8183 15.8639 12.8139 15.8852 12.8095 15.9033C12.8091 15.9056 12.8091 15.9079 12.8095 15.9102V15.9162C12.8055 15.932 12.8026 15.9469 12.7994 15.9626C12.7962 15.9783 12.7909 16.0001 12.7873 16.019C12.7837 16.0379 12.7781 16.0653 12.774 16.0887C12.7619 16.1564 12.7527 16.2245 12.745 16.2926C12.7426 16.3152 12.7402 16.3381 12.7382 16.3611C12.7357 16.3913 12.7333 16.4215 12.7313 16.4522C12.7233 16.5881 12.7233 16.7244 12.7313 16.8604C12.7345 16.9148 12.7386 16.9692 12.7446 17.0236C12.7446 17.0344 12.7446 17.0449 12.7478 17.0554C12.7531 17.0957 12.7591 17.1332 12.7648 17.1706C12.7653 17.1748 12.7661 17.179 12.7672 17.1831C12.7696 17.2021 12.7724 17.2202 12.7752 17.2387C12.7817 17.279 12.7889 17.3193 12.7978 17.3596C12.7978 17.3637 12.7978 17.3673 12.7998 17.3717C12.8051 17.3939 12.8099 17.4164 12.8151 17.4382C12.8357 17.526 12.8586 17.6082 12.8832 17.6872C12.8897 17.7086 12.8965 17.7275 12.9034 17.7509L12.93 17.8262C12.9392 17.8516 12.9485 17.8766 12.9586 17.902C12.9783 17.952 12.9989 18.0019 13.0206 18.0511C13.0303 18.0725 13.0396 18.0914 13.0496 18.114C13.0597 18.1365 13.0694 18.1543 13.0799 18.1752C13.1073 18.2316 13.1371 18.2872 13.1685 18.3412C13.1862 18.3731 13.2052 18.4045 13.2241 18.4367L13.2443 18.4694H13.2846C13.2656 18.4694 13.2475 18.4694 13.229 18.4694H13.2217L13.0565 18.477H13.0642C13.1044 18.477 13.1411 18.477 13.1786 18.4746H13.2237H13.2265H13.2842H13.2934L13.4123 18.4698L13.3583 18.3751C13.3498 18.3622 13.3422 18.3493 13.3349 18.3348C13.2161 18.1374 13.1195 17.9276 13.0468 17.709C12.992 17.5479 12.9506 17.3825 12.9231 17.2146C12.9138 17.1549 12.9046 17.1001 12.9001 17.0405C12.8635 16.7308 12.8727 16.4174 12.9276 16.1105C13.0165 15.5935 13.2303 15.106 13.5505 14.6904L13.6517 14.5579L13.6835 14.5176L13.6706 14.5216L13.4727 14.5861L13.4401 14.597H13.4353C13.4316 14.597 13.4276 14.597 13.424 14.6006C13.1016 14.708 12.7989 14.8172 12.5157 14.9282C12.2202 15.0445 11.9484 15.1635 11.7001 15.2852C11.0038 15.6197 10.509 15.9634 10.239 16.3067C10.0327 16.5678 9.95011 16.8334 9.99726 17.09C10.0078 17.1413 10.0212 17.1919 10.0376 17.2416C10.0475 17.2756 10.0592 17.3091 10.0726 17.3419C10.0783 17.3556 10.0839 17.3693 10.0899 17.3822C10.2342 17.7086 10.5155 17.9637 10.9309 18.1446L10.9374 18.1474L10.9478 18.1518C11.0365 18.1369 11.1231 18.1244 11.2081 18.1152L11.221 18.2433C11.2613 18.2389 11.2988 18.2389 11.3419 18.2344C11.4492 18.2261 11.5568 18.2243 11.6643 18.2292C11.8523 18.266 12.0421 18.2929 12.2329 18.3098C12.3134 18.3174 12.394 18.3235 12.4791 18.3287C12.5641 18.334 12.6443 18.3372 12.7293 18.34H12.7337L12.749 18.3368L12.7664 18.3344L12.7797 18.3324L12.7422 18.3344ZM13.1738 18.3444C13.1727 18.3431 13.1717 18.3416 13.1709 18.34H13.05C12.9799 18.34 12.9066 18.3368 12.8325 18.336L12.8393 18.3404C12.9138 18.3404 12.988 18.3444 13.0589 18.3444H13.1738ZM12.7889 18.3384L12.8022 18.3356H12.7889V18.3384ZM12.7486 18.4734H12.7507L12.8272 18.4762H12.8889C12.8353 18.4762 12.7817 18.473 12.7317 18.4706C12.718 18.4706 12.7047 18.4706 12.6914 18.4706H12.6701L12.7486 18.4734ZM13.1601 18.3436H13.0392C12.9691 18.3436 12.8957 18.3404 12.8216 18.3396H12.7688V18.3436H12.7781H12.8284C12.903 18.3436 12.9771 18.3477 13.048 18.3477H13.1629C13.1618 18.3464 13.1609 18.3451 13.1601 18.3436V18.3436Z" fill="white"/>
<path d="M19.2584 17.4568L19.2814 17.3359C19.3319 17.0904 19.3549 16.8399 19.3499 16.5893C19.3458 16.4364 19.3305 16.2841 19.304 16.1335C19.2951 16.0739 19.2814 16.0191 19.2721 15.9643C19.0893 15.1495 18.5984 14.437 17.9021 13.9761L17.7188 13.8524L17.9388 13.8479C18.5612 13.8374 19.1837 13.8643 19.8028 13.9285C20.5725 14.02 21.1495 14.1755 21.5255 14.4048C21.8184 14.5789 21.9881 14.7985 22.0292 15.0552C22.0426 15.143 22.0472 15.232 22.0429 15.3207C22.0199 15.764 21.7358 16.1819 21.1999 16.5623L21.1862 16.5711C20.884 16.7867 20.4903 16.9882 20.0273 17.1804L19.9632 17.2034C19.8351 17.2537 19.7069 17.3041 19.5695 17.35C19.5055 17.373 19.441 17.396 19.3725 17.4185L19.2584 17.4568ZM18.1491 13.9805C18.5249 14.2655 18.8369 14.6259 19.065 15.0387C19.2212 15.3183 19.3358 15.6193 19.4051 15.932C19.4188 15.9917 19.4277 16.0529 19.4414 16.1105C19.468 16.2681 19.4834 16.4274 19.4873 16.5872C19.4927 16.8095 19.4773 17.0319 19.4414 17.2513L19.524 17.2239C19.657 17.178 19.7895 17.1276 19.9132 17.0772L19.9773 17.0543C20.3806 16.8966 20.7648 16.6939 21.1225 16.4498L21.1362 16.4406C21.6266 16.088 21.8877 15.7076 21.9059 15.3123C21.9104 15.2341 21.9058 15.1557 21.8922 15.0786C21.8563 14.8646 21.7088 14.6829 21.4533 14.5253C21.0959 14.3101 20.537 14.159 19.7859 14.0676C19.2424 14.008 18.6959 13.9789 18.1491 13.9805V13.9805Z" fill="white"/>
<path d="M13.1519 18.3499H13.031C12.9609 18.3499 12.8876 18.3466 12.8134 18.3458L12.8203 18.3503C12.8948 18.3503 12.969 18.3543 13.0399 18.3543H13.1547C13.1536 18.3529 13.1527 18.3514 13.1519 18.3499V18.3499ZM13.3965 18.4768L13.3425 18.3821C13.334 18.3692 13.3264 18.3563 13.3191 18.3418C13.2003 18.1445 13.1037 17.9346 13.031 17.716C12.9762 17.5549 12.9348 17.3895 12.9073 17.2216C12.898 17.1619 12.8888 17.1071 12.8843 17.0475L12.8706 16.9375L12.8582 16.946L12.7804 16.9963L12.7316 17.0286H12.7288C12.6114 17.1073 12.5015 17.1969 12.4008 17.2961C12.2303 17.4666 12.1473 17.637 12.1526 17.7994C12.1526 17.8075 12.1526 17.8151 12.1526 17.8228C12.1534 17.8616 12.1597 17.9001 12.1711 17.9372C12.1743 17.9497 12.1784 17.9622 12.1824 17.9743C12.2114 18.0572 12.2565 18.1336 12.315 18.1992C12.3554 18.2452 12.4005 18.2869 12.4496 18.3237C12.4515 18.3254 12.4537 18.3269 12.456 18.3281C12.456 18.3281 12.4596 18.3309 12.4612 18.3329C12.5418 18.3378 12.6252 18.3415 12.7115 18.3442H12.7151L12.7058 18.3398L12.6974 18.3354L12.6885 18.3309L12.6704 18.3172H12.6655C12.6518 18.31 12.6385 18.3019 12.6252 18.2938C12.5289 18.24 12.4445 18.1672 12.377 18.0799C12.3393 18.0289 12.3119 17.971 12.2964 17.9094C12.2944 17.8977 12.292 17.8844 12.2904 17.8691C12.2888 17.8538 12.2851 17.8337 12.2823 17.8159C12.2686 17.6878 12.342 17.5456 12.4886 17.3945C12.5694 17.3129 12.6572 17.2386 12.751 17.1724V17.1724C12.7518 17.1805 12.7524 17.1885 12.753 17.1966C12.7528 17.1981 12.7528 17.1996 12.753 17.201C12.753 17.2071 12.755 17.2131 12.7558 17.2192C12.7555 17.2206 12.7555 17.2221 12.7558 17.2236C12.7558 17.2296 12.7582 17.2357 12.759 17.2413C12.7655 17.2816 12.7727 17.3219 12.7816 17.3622C12.7816 17.3662 12.7816 17.3699 12.7836 17.3743C12.7888 17.3965 12.7937 17.419 12.7989 17.4408C12.8195 17.5286 12.8424 17.6108 12.867 17.6898C12.8735 17.7112 12.8803 17.7301 12.8872 17.7535L12.9138 17.8288C12.923 17.8542 12.9323 17.8792 12.9424 17.9046C12.9621 17.9546 12.9827 18.0045 13.0044 18.0537C13.0141 18.075 13.0234 18.094 13.0334 18.1165C13.0435 18.1391 13.0532 18.1568 13.0637 18.1778C13.0911 18.2342 13.1209 18.2898 13.1523 18.3438C13.17 18.3756 13.189 18.4071 13.2079 18.4393L13.2281 18.472H13.2684C13.2494 18.472 13.2313 18.472 13.2128 18.472H13.2055L13.0403 18.4796H13.0479C13.0882 18.4796 13.1249 18.4796 13.1624 18.4772H13.2075H13.2103H13.268H13.2772L13.3961 18.4724L13.3965 18.4768ZM13.1547 18.3559C13.1536 18.3545 13.1527 18.353 13.1519 18.3515H13.031C12.9609 18.3515 12.8876 18.3482 12.8134 18.3474L12.8203 18.3519C12.8948 18.3519 12.969 18.3559 13.0399 18.3559H13.1547ZM13.1519 18.3515H13.031C12.9609 18.3515 12.8876 18.3482 12.8134 18.3474H12.7828L12.7695 18.3503H12.8199C12.8944 18.3503 12.9686 18.3543 13.0395 18.3543H13.1543C13.1534 18.3529 13.1526 18.3514 13.1519 18.3499V18.3515Z" fill="white"/>
<path d="M19.2515 17.458L19.2744 17.3371C19.325 17.0916 19.3479 16.8411 19.3429 16.5905C19.3388 16.4376 19.3235 16.2853 19.297 16.1347C19.2881 16.0751 19.2744 16.0203 19.2652 15.9655L19.2422 15.8555L19.3522 15.8829C19.5001 15.9176 19.6442 15.9667 19.7826 16.0295C20.03 16.144 20.1766 16.2907 20.2177 16.4599C20.2226 16.4829 20.227 16.5058 20.2314 16.5332C20.2637 16.7577 20.1811 16.9765 19.9796 17.1884L19.9703 17.1973L19.9566 17.2021C19.8285 17.2525 19.7003 17.3029 19.5629 17.3488C19.4989 17.3714 19.4344 17.3944 19.3659 17.4173L19.2515 17.458ZM19.4207 16.0428L19.4344 16.1113C19.4611 16.2689 19.4764 16.4283 19.4803 16.588C19.4857 16.8103 19.4703 17.0327 19.4344 17.2521L19.517 17.2247C19.6451 17.1788 19.7689 17.1328 19.8926 17.0825C20.0537 16.904 20.1218 16.7254 20.0989 16.5514C20.094 16.5328 20.094 16.5147 20.0896 16.4917C20.0574 16.3636 19.9341 16.25 19.7269 16.1528C19.6279 16.1083 19.5255 16.0715 19.4207 16.0428V16.0428Z" fill="white"/>
<path d="M22.1081 18.7421C21.9018 18.6551 21.6544 18.5269 21.3933 18.394L21.2422 18.3162L21.3063 18.1953L21.4574 18.2735C21.7185 18.4061 21.9615 18.5346 22.1629 18.6168L22.1081 18.7421Z" fill="white"/>
<path d="M20.0363 17.1646L19.9492 17.0594C20.2877 16.7831 20.6764 16.5747 21.094 16.4457C21.1077 16.4417 21.1211 16.437 21.1343 16.4316L21.1661 16.5646C21.1573 16.569 21.1432 16.569 21.1343 16.5739C20.734 16.6991 20.3614 16.8996 20.0363 17.1646Z" fill="white"/>
<path d="M26.1783 16.748C25.7754 16.725 25.3172 16.6702 24.8083 16.6013L24.768 16.5969C24.2321 16.5328 23.6776 16.4639 23.1328 16.4272L23.1401 16.291C23.6901 16.3233 24.2442 16.3918 24.7845 16.4607L24.8248 16.4651C25.3329 16.5292 25.7867 16.586 26.1896 16.6069L26.1783 16.748Z" fill="white"/>
<path d="M19.5905 17.3327L19.4805 17.2522C19.7142 16.9499 19.9157 16.7118 20.1079 16.501C20.6942 15.8644 21.2716 15.4707 21.9264 15.2599L21.9401 15.2551C22.499 15.0766 23.1542 14.9392 23.942 14.8429C24.6061 14.7623 25.2838 14.7103 25.9342 14.6644L26.0031 14.6599C26.6672 14.612 27.2893 14.5661 27.8857 14.4883L27.9038 14.6257C27.3038 14.7035 26.6764 14.7494 26.0124 14.7953L25.9435 14.7998C25.2931 14.8457 24.6198 14.8961 23.9557 14.9783C23.1768 15.0746 22.5264 15.2076 21.9768 15.3861L21.9631 15.3905C21.3357 15.592 20.7768 15.9768 20.2042 16.5953C20.0208 16.7968 19.8242 17.035 19.5905 17.3327Z" fill="white"/>
<path d="M19.4711 16.6305L19.3555 16.5572C19.4792 16.365 19.5892 16.1998 19.6944 16.0535C20.244 15.2879 20.7892 14.7709 21.421 14.4228L21.4303 14.4183C21.4386 14.4147 21.4463 14.41 21.4533 14.4042C21.9344 14.1387 22.5158 13.905 23.2214 13.6789H23.2259C23.8259 13.4911 24.4259 13.34 25.1451 13.1615L25.1854 13.1522C25.7766 13.006 26.3351 12.8702 26.8666 12.709L26.9069 12.8371C26.3758 12.9983 25.8124 13.1393 25.2213 13.286L25.181 13.2953C24.4637 13.4766 23.8637 13.6257 23.2641 13.8135H23.2597C22.5634 14.0335 21.9908 14.2668 21.5145 14.5279C21.5052 14.5328 21.5008 14.5372 21.496 14.5372L21.4871 14.5416C20.8778 14.8809 20.3419 15.3846 19.806 16.1357C19.7048 16.278 19.5948 16.4428 19.4711 16.6305Z" fill="white"/>
<path d="M19.0603 15.1035L18.9414 15.0346C19.1438 14.67 19.3882 14.3303 19.6695 14.0224C19.6925 13.9994 19.7155 13.972 19.7385 13.9491C20.0362 13.6424 20.4162 13.3446 20.8925 13.042L20.9062 13.0332C21.3233 12.7672 21.7722 12.5291 22.2299 12.2865L22.2988 12.2498C22.67 12.0528 23.0242 11.8694 23.3465 11.6816L23.4154 11.8025C23.0854 11.9947 22.7328 12.1781 22.3617 12.3751L22.2932 12.4118C21.8302 12.6536 21.3817 12.8925 20.9634 13.1585L20.9497 13.1673C20.4851 13.4591 20.118 13.7476 19.8299 14.0454L19.7614 14.1139C19.4955 14.4197 19.2606 14.7513 19.0603 15.1035V15.1035Z" fill="white"/>
<path d="M17.2961 13.5872L17.168 13.5368C17.2183 13.4131 17.278 13.2894 17.3509 13.1339C17.4746 12.882 17.612 12.6298 17.7406 12.3965L17.7861 12.3183C17.9009 12.108 18.0242 11.8924 18.1298 11.6816L18.2531 11.7421C18.1476 11.9528 18.0238 12.1728 17.9094 12.3836L17.8639 12.4614C17.7353 12.6951 17.5979 12.9421 17.4742 13.1943C17.4009 13.3446 17.3416 13.4683 17.2961 13.5872Z" fill="white"/>
<path d="M13.9503 14.1537C13.8588 14.0482 13.7581 13.9474 13.6481 13.8374C13.4603 13.6497 13.2633 13.4748 13.0437 13.2789L12.9832 13.2282C12.7906 13.0545 12.6073 12.8941 12.4336 12.7245L12.5307 12.627C12.7004 12.7922 12.8833 12.957 13.0759 13.1262L13.1355 13.1766C13.3552 13.3736 13.5522 13.5525 13.7448 13.7407C13.8544 13.8503 13.9552 13.9559 14.0515 14.0631L13.9503 14.1537Z" fill="white"/>
<path d="M21.1759 16.5652C20.8116 16.8115 20.4215 17.0173 20.0125 17.1789L19.9485 17.2018C19.8203 17.2522 19.6918 17.3026 19.5544 17.3485C19.5052 17.3658 19.4561 17.3836 19.4049 17.4009L19.3577 17.417L19.2433 17.4537L19.2659 17.3348C19.2679 17.3247 19.2703 17.3151 19.2715 17.305C19.1305 17.3517 18.9774 17.3985 18.8125 17.4492C18.5196 17.5363 18.2033 17.6185 17.8551 17.7011C17.507 17.7837 17.1451 17.8623 16.7696 17.93C16.6003 17.9622 16.4492 17.9891 16.3162 18.0106C16.1881 18.0287 16.0322 18.0565 15.8581 18.0839C15.4644 18.148 15.1114 18.1983 14.7774 18.235C14.4199 18.2753 14.081 18.3083 13.7603 18.3265C13.614 18.3349 13.4641 18.3394 13.3203 18.343H13.305C13.3114 18.3547 13.3183 18.3656 13.3251 18.3764L13.3884 18.476H13.3976C13.4831 18.4736 13.5681 18.4699 13.6519 18.4659L13.7792 18.459C14.1016 18.4405 14.4433 18.4087 14.7999 18.3676C15.1344 18.3309 15.487 18.2805 15.8855 18.2161C15.9592 18.2068 16.0297 18.1959 16.0966 18.185L16.2123 18.1657L16.2526 18.1584C16.284 18.1536 16.3142 18.148 16.3424 18.1431C16.4754 18.1202 16.6309 18.0928 16.8006 18.0605C17.1806 17.9916 17.5473 17.9138 17.8954 17.8316C18.0506 17.7954 18.1988 17.7583 18.3415 17.72H18.3491C18.5277 17.6729 18.6973 17.6245 18.8617 17.5766C19.0402 17.5262 19.2054 17.4714 19.361 17.421C19.3747 17.4162 19.3884 17.4118 19.4013 17.4065C19.4549 17.3888 19.5064 17.3707 19.5576 17.3521C19.695 17.3062 19.8232 17.2558 19.9513 17.2055L20.0158 17.1825C20.4828 16.9903 20.8721 16.7844 21.1791 16.5688C21.6348 16.441 22.2087 16.3951 22.9372 16.4265L22.9424 16.4225C22.2131 16.3911 21.634 16.437 21.1759 16.5652ZM12.7352 18.3418L12.7058 18.3466H12.7033C12.6191 18.3438 12.5373 18.3402 12.4571 18.3349C12.3649 18.3301 12.2758 18.3233 12.1888 18.3144C12.0137 18.2988 11.8395 18.2743 11.6669 18.241V18.241C11.513 18.2125 11.3611 18.1743 11.212 18.1266L11.1979 18.1222H11.1842C11.0988 18.1318 11.0117 18.1435 10.9227 18.1588C10.452 18.2374 9.93343 18.395 9.32053 18.6533L9.17023 18.7173L9.16016 18.7222L9.17063 18.7262L9.31852 18.7822C10.0745 19.0643 11.1459 19.2033 12.5063 19.1852H12.5321C12.9278 19.1799 13.3545 19.1622 13.7937 19.1304L13.8715 19.1259C13.8989 19.1215 13.9311 19.1215 13.963 19.1167L13.9996 19.1122C14.183 19.0985 14.3623 19.0848 14.5356 19.0663C14.6412 19.0574 14.7419 19.0437 14.8378 19.0345L15.0348 19.0115C15.1219 19.0022 15.2089 18.9885 15.2915 18.9793L15.3145 18.9748C15.5893 18.9426 15.8549 18.9059 16.1111 18.8648C16.2485 18.8467 16.3634 18.8282 16.4593 18.81C16.5552 18.7919 16.6749 18.7734 16.7893 18.746C17.0593 18.6956 17.3252 18.6404 17.5908 18.5807C17.6823 18.5626 17.7741 18.5441 17.87 18.5215L18.0578 18.4756C18.1449 18.4526 18.2319 18.4353 18.3238 18.4115C18.4886 18.3748 18.6582 18.3289 18.8319 18.2834L18.9375 18.2556C18.9778 18.2467 19.0152 18.233 19.0563 18.2237L19.0704 18.2189C19.4851 18.1016 19.8868 17.9799 20.262 17.8538L20.2793 17.8482H20.2841C21.5684 17.4126 22.5355 16.9314 23.1641 16.4169L23.2878 16.3149L23.2966 16.3069L23.1226 16.298C22.2707 16.2428 21.634 16.2887 21.1255 16.4354L21.1118 16.4398L21.0981 16.4491C20.7404 16.6932 20.3563 16.896 19.9529 17.0535L19.8888 17.0765C19.7651 17.1269 19.6326 17.1772 19.4996 17.2232L19.4379 17.2449C19.4379 17.2449 19.4379 17.2449 19.4359 17.2449L19.3074 17.2905L19.2715 17.3034C19.1305 17.3501 18.9774 17.3969 18.8125 17.4476C18.5196 17.5347 18.2033 17.6169 17.8551 17.6995C17.507 17.7821 17.1451 17.8607 16.7696 17.9284C16.6003 17.9606 16.4492 17.9875 16.3162 18.0089C16.1881 18.0271 16.0322 18.0549 15.8581 18.0823C15.4644 18.1464 15.1114 18.1967 14.7774 18.2334C14.4199 18.2737 14.081 18.3067 13.7603 18.3249C13.614 18.3333 13.4641 18.3378 13.3203 18.3414H13.305H13.2647C13.2272 18.3414 13.1909 18.3446 13.1542 18.3454H13.0313C12.9612 18.3454 12.8879 18.3422 12.8138 18.3414H12.761V18.3511H12.7702H12.8206C12.8951 18.3511 12.9693 18.3551 13.0402 18.3551H13.1551C13.154 18.3537 13.153 18.3522 13.1522 18.3507H13.1551C13.1728 18.3825 13.1917 18.4139 13.2107 18.4462L13.2308 18.4788H13.2711C13.3114 18.4788 13.3493 18.4788 13.3888 18.4788H13.398C13.4835 18.4764 13.5685 18.4727 13.6523 18.4687L13.7796 18.4619C14.102 18.4433 14.4437 18.4115 14.8003 18.3704C15.1348 18.3337 15.4874 18.2834 15.8859 18.2189C15.9596 18.2096 16.0301 18.1987 16.097 18.1879L16.2127 18.1685L16.253 18.1613C16.2844 18.1564 16.3146 18.1508 16.3428 18.146C16.4758 18.123 16.6314 18.0956 16.801 18.0633C17.181 17.9944 17.5477 17.9167 17.8958 17.8345C18.051 17.7982 18.1992 17.7611 18.3419 17.7228H18.3496C18.5281 17.6757 18.6977 17.6273 18.8621 17.5794C19.0406 17.529 19.2058 17.4742 19.3614 17.4239C19.3751 17.419 19.3888 17.4146 19.4017 17.4093C19.4553 17.3916 19.5068 17.3735 19.558 17.3549C19.6954 17.309 19.8236 17.2586 19.9517 17.2083L20.0162 17.1853C20.4832 16.9931 20.8725 16.7872 21.1795 16.5716C21.6352 16.4439 22.2091 16.3979 22.9376 16.4294H22.9477C22.3336 16.892 21.4314 17.3223 20.2588 17.7208H20.2543L20.073 17.7813C19.7466 17.8881 19.4045 17.9908 19.0495 18.0875L19.0358 18.092C18.9955 18.1012 18.958 18.1149 18.9149 18.1242L18.7868 18.156C18.6219 18.202 18.4571 18.2431 18.3012 18.2797C18.2097 18.3027 18.1227 18.32 18.0356 18.3438L17.8479 18.3897C17.7516 18.4079 17.6601 18.43 17.5686 18.4494C17.3027 18.5042 17.0371 18.5594 16.7716 18.6106C16.643 18.6331 16.5298 18.6509 16.4279 18.6698C16.3259 18.6887 16.2171 18.7065 16.0845 18.725C15.8323 18.7617 15.5607 18.8028 15.2919 18.835L15.269 18.8394C15.1884 18.8531 15.0997 18.8624 15.0127 18.8717L14.8156 18.8942C14.7193 18.9079 14.6186 18.9172 14.5178 18.9265C14.3438 18.9402 14.1653 18.9587 13.9864 18.9724L13.9545 18.9768C13.9223 18.9813 13.8949 18.9813 13.863 18.9861L13.7849 18.9905C13.3876 19.0192 13.0039 19.0365 12.6417 19.0433L12.5023 19.0458H12.4704C11.2499 19.0574 10.2659 18.9486 9.54498 18.7145L9.53813 18.7125H9.5345C10.1667 18.4578 10.6861 18.3156 11.1786 18.2604H11.1741C11.0874 18.2335 11.0052 18.203 10.9275 18.1689C11.0162 18.154 11.1028 18.1415 11.1878 18.1323L11.2007 18.2604C11.241 18.256 11.2785 18.256 11.3216 18.2515C11.4289 18.2431 11.5365 18.2414 11.644 18.2463C11.832 18.2831 12.0217 18.31 12.2125 18.3269C12.2931 18.3345 12.3737 18.3406 12.4587 18.3458C12.5438 18.3511 12.624 18.3543 12.709 18.3571H12.7134L12.7287 18.3539L12.7461 18.3515L12.7594 18.3494" fill="white"/>
<path d="M12.7851 16.1583C12.4794 15.8928 12.1444 15.663 11.7866 15.4733L11.6766 15.4185C11.2918 15.2307 10.8429 15.084 10.3065 14.9603C9.83951 14.8503 9.34911 14.777 8.84985 14.6992L8.76926 14.6855C8.3522 14.6214 7.95851 14.5618 7.57812 14.4884L7.60593 14.3555C7.98592 14.4288 8.38001 14.4884 8.79223 14.5525L8.87282 14.5662C9.37692 14.6444 9.86691 14.7173 10.3388 14.8273C10.8205 14.9302 11.2892 15.087 11.7358 15.2948L11.8458 15.3496C12.2146 15.5433 12.5592 15.7802 12.8722 16.0551L12.7851 16.1583Z" fill="white"/>
<path d="M12.9163 17.7911C12.733 17.6489 12.5637 17.5207 12.3989 17.4063C11.6523 16.8824 10.9886 16.5726 10.3056 16.4352L10.2596 16.4259C9.73581 16.3251 9.12815 16.2885 8.39074 16.3163H8.38631C7.72224 16.3388 7.03036 16.4077 6.4211 16.4674H6.40739C5.77556 16.5315 5.17999 16.5911 4.62593 16.6137L4.62109 16.4763C5.17072 16.4537 5.76629 16.3957 6.3941 16.33H6.4078C7.01707 16.2703 7.70894 16.2014 8.37744 16.1789H8.38228C9.12855 16.1511 9.75233 16.1877 10.283 16.2933L10.329 16.3022C11.0297 16.4444 11.7123 16.7603 12.4723 17.2963C12.6375 17.4172 12.8116 17.538 12.9961 17.6855L12.9163 17.7911Z" fill="white"/>
<path d="M13.0834 18.3592H13.0431C12.9722 18.3592 12.8981 18.3559 12.8235 18.3551L12.8167 18.3507C12.6591 18.2512 12.5157 18.1661 12.3795 18.09C12.3186 18.0561 12.2586 18.0235 12.201 17.9929C12.1953 17.99 12.1905 17.9872 12.1848 17.9848C11.4777 17.6101 10.8523 17.4243 10.2188 17.4005C10.1898 17.4005 10.16 17.3985 10.1306 17.3981H10.073C9.53259 17.3981 8.91365 17.4763 8.17906 17.6314L8.11016 17.6455L8.05455 17.6576C7.43521 17.7902 6.81103 17.9634 6.25132 18.119L6.17597 18.1395L6.10868 18.1573C5.4579 18.3406 4.8442 18.5103 4.2716 18.6291L4.24219 18.4966C4.80633 18.3781 5.41801 18.2101 6.06073 18.0275L6.06999 18.0251L6.1385 18.0066L6.20176 17.9892C6.76348 17.8333 7.3941 17.6604 8.01506 17.521L8.0759 17.5073L8.13836 17.494C8.8665 17.3381 9.48303 17.2595 10.0198 17.2559C10.05 17.2559 10.0802 17.2559 10.1096 17.2559H10.1189H10.1552C10.8063 17.27 11.4446 17.4457 12.1518 17.8087L12.2582 17.8643L12.2888 17.8808C12.5209 18.005 12.7756 18.1589 13.0754 18.3543L13.0834 18.3592Z" fill="white"/>
<path d="M12.7441 18.3472L12.7268 18.3496L12.7115 18.3529H12.707C12.6222 18.3502 12.5387 18.3464 12.4568 18.3416C12.3726 18.3364 12.2904 18.3303 12.2106 18.3227L12.1832 18.3162C12.1711 18.313 12.159 18.3106 12.1469 18.3081C11.9981 18.2751 11.847 18.254 11.6948 18.2449V18.2449L11.663 18.2429H11.6436C11.5362 18.238 11.4285 18.2397 11.3213 18.2481C11.281 18.2525 11.2435 18.2525 11.2004 18.257L11.1875 18.1288V18.1196C11.2285 18.1144 11.2698 18.1114 11.3112 18.1107C11.6478 18.0875 11.9859 18.1205 12.3117 18.2082C12.4136 18.2351 12.517 18.2665 12.622 18.3025L12.6623 18.3166H12.6716L12.6853 18.3259L12.7228 18.3404L12.732 18.3436C12.7359 18.3452 12.74 18.3463 12.7441 18.3468V18.3472Z" fill="white"/>
<path d="M6.61327 20.0738L6.5625 19.9501C6.95659 19.7849 7.36841 19.5834 7.80401 19.3682L7.83624 19.3545C8.31979 19.1164 8.82066 18.871 9.32476 18.6582L9.37513 18.7819C8.87587 18.9927 8.3766 19.2352 7.89548 19.4738L7.86364 19.4919C7.42402 19.7071 7.01139 19.9086 6.61327 20.0738Z" fill="white"/>
<path d="M16.5742 19.4683C16.5102 19.4775 16.4413 19.4912 16.3683 19.5001C16.2305 19.5231 16.075 19.546 15.9053 19.5734L15.865 19.5783L15.6543 19.6057C15.581 19.6149 15.5032 19.6286 15.421 19.6375H15.4057C15.2824 19.656 15.1494 19.6697 15.0164 19.6883H15.0027L14.8335 19.7064C13.8076 19.8286 12.7762 19.8989 11.7432 19.9171L11.582 19.9216L11.692 19.8007C11.9372 19.5359 12.1956 19.2836 12.4661 19.0447L12.4842 19.0266H12.5072C12.9605 19.0218 13.4509 18.9988 13.9579 18.9577L13.9945 18.9533C14.1779 18.9396 14.3572 18.921 14.526 18.9073C14.6312 18.8981 14.7368 18.8844 14.8375 18.8755L15.0209 18.8525C15.1079 18.8433 15.1901 18.834 15.2679 18.8203L15.2957 18.8159C15.5705 18.7836 15.836 18.7425 16.0879 18.7059C16.2209 18.6873 16.3354 18.6691 16.4316 18.6511C16.5323 18.6325 16.6468 18.6144 16.7749 18.5914C17.0405 18.5411 17.3064 18.4858 17.572 18.4302C17.6634 18.4117 17.7553 18.3899 17.8512 18.3706L18.0575 18.3202C18.1401 18.3021 18.2223 18.2836 18.3049 18.2606C18.4605 18.2241 18.6207 18.1828 18.7857 18.1369L18.9142 18.1051C19.3812 17.9769 19.8301 17.8439 20.2468 17.7021L20.2746 17.6973L20.2927 17.7021C20.6316 17.8347 20.9753 18.0087 21.2961 18.1736L21.4423 18.2469L21.2888 18.3001C20.2985 18.6237 19.2925 18.8974 18.2747 19.1201L17.9999 19.1797C17.8992 19.2027 17.8029 19.22 17.7114 19.2394L17.6243 19.2575L17.4777 19.2849C17.4273 19.2942 17.3725 19.3079 17.3221 19.3171L17.2351 19.3353C17.0654 19.3675 16.9099 19.3949 16.7725 19.4223C16.7081 19.4442 16.6417 19.4596 16.5742 19.4683ZM14.9894 19.5597H15.0076C15.1361 19.546 15.2642 19.5279 15.3879 19.5094H15.4016C15.4794 19.5001 15.5576 19.4864 15.6305 19.4775C15.7035 19.4687 15.7772 19.459 15.8413 19.4497L15.8779 19.4453C16.0476 19.4179 16.2003 19.3949 16.3361 19.3768C16.404 19.362 16.4728 19.3513 16.542 19.3445C16.6065 19.3353 16.675 19.3216 16.7435 19.3079C16.8809 19.2849 17.0364 19.2531 17.2061 19.2208L17.2931 19.2027C17.3435 19.1934 17.3939 19.1842 17.4487 19.1705C17.4946 19.1612 17.545 19.1523 17.5909 19.1431L17.6779 19.1245C17.7694 19.1064 17.8657 19.0842 17.9665 19.0653L18.2364 19.0057C19.2579 18.7764 20.2153 18.5221 21.0809 18.24C20.8153 18.1026 20.5361 17.9701 20.2613 17.8601C19.8491 17.9975 19.4046 18.1349 18.942 18.2586L18.8364 18.286C18.6624 18.3319 18.4931 18.3779 18.3283 18.4141C18.2457 18.4327 18.1631 18.4544 18.0809 18.4738L17.8701 18.5241C17.7738 18.5471 17.6824 18.5644 17.5909 18.5838C17.325 18.6434 17.055 18.6982 16.789 18.7486C16.6609 18.7715 16.5472 18.7945 16.4457 18.8082C16.3442 18.8219 16.235 18.8449 16.0975 18.863C15.8407 18.9044 15.5751 18.9411 15.3005 18.973L15.2731 18.9779C15.1905 18.9867 15.1083 18.996 15.0213 19.0097L14.8379 19.0327C14.7372 19.0419 14.6316 19.0556 14.522 19.0649C14.3479 19.083 14.169 19.0967 13.9861 19.1104L13.9494 19.1153C13.4453 19.1519 12.9646 19.1745 12.5157 19.1838C12.3001 19.3715 12.0849 19.5867 11.8834 19.7975C12.7857 19.7793 13.766 19.706 14.7968 19.5867L14.989 19.5593L14.9894 19.5597Z" fill="white"/>
<path d="M11.111 20.5993L11.0195 20.4981C11.1843 20.3518 11.3766 20.1455 11.578 19.9303L11.6929 19.8066L11.7936 19.9029L11.6792 20.0238C11.4729 20.2418 11.2806 20.4477 11.111 20.5993Z" fill="white"/>
<path d="M19.4003 17.2809L19.3398 17.4043L20.2404 17.8457L20.3009 17.7223L19.4003 17.2809Z" fill="white"/>
<path d="M13.2182 18.4805L13.2134 18.4849C13.1683 18.5288 12.8612 18.8282 12.6493 19.0402C12.6472 19.0427 12.6449 19.0449 12.6424 19.047L12.5691 19.1208L12.4688 19.0515L12.478 19.0426L12.4873 19.0333C12.4873 19.0333 12.9374 18.5498 13.0458 18.4881L13.211 18.4805H13.2182Z" fill="white"/>
<path d="M13.2719 18.4744C13.253 18.4744 13.2349 18.4744 13.2163 18.4744H13.2091L13.0439 18.4821H12.8738C12.8202 18.4821 12.7666 18.4789 12.7167 18.4764C12.703 18.4764 12.6897 18.4764 12.6764 18.4764H12.6615C12.6592 18.4761 12.6569 18.4761 12.6546 18.4764V18.4764H12.6341H12.6123H12.5958H12.5656H12.5515H12.539C12.5315 18.4771 12.5239 18.4771 12.5164 18.4764H12.4922H12.4797C12.182 18.4605 11.8858 18.4239 11.5932 18.3668C11.5404 18.356 11.4885 18.3443 11.4377 18.3326L11.3748 18.3056C11.314 18.2891 11.2539 18.2721 11.1983 18.2544L11.1846 18.2512H11.1802C11.0934 18.2243 11.0112 18.1938 10.9336 18.1597C11.0222 18.1448 11.1089 18.1323 11.1939 18.123L11.2068 18.2512C11.2471 18.2468 11.2846 18.2468 11.3277 18.2423C11.4349 18.2339 11.5426 18.2322 11.65 18.2371C11.838 18.2738 12.0278 18.3007 12.2186 18.3177C12.2992 18.3253 12.3798 18.3314 12.4648 18.3366C12.5498 18.3419 12.63 18.3451 12.7151 18.3479H12.7195L12.7348 18.3447L12.7521 18.3423L12.7654 18.3402V18.3459H12.7747H12.8251C12.8996 18.3459 12.9738 18.3499 13.0447 18.3499H13.1595C13.1584 18.3485 13.1575 18.347 13.1567 18.3455H13.1595C13.1772 18.3773 13.1962 18.4087 13.2151 18.441L13.2353 18.4736L13.2719 18.4744Z" fill="white"/>
<path d="M19.4513 17.1491C19.4465 17.1813 19.4416 17.2139 19.4356 17.2462C19.4283 17.2865 19.4199 17.3292 19.411 17.3707L19.4046 17.3993L19.4025 17.4057V17.4086L19.3659 17.4211C19.187 17.4807 19.0117 17.5335 18.8642 17.5778C18.703 17.6254 18.5334 17.6721 18.3504 17.7192H18.3428C18.2025 17.7555 18.0551 17.7918 17.8995 17.8288C17.5062 17.9235 17.1416 17.9953 16.8063 18.0585C16.6649 18.0855 16.5186 18.1113 16.3473 18.1411L16.2547 18.1577L16.2144 18.1649L16.0987 18.1843C16.033 18.1943 15.9613 18.2048 15.8876 18.2149C15.4999 18.2777 15.1437 18.3273 14.7996 18.366C14.447 18.4063 14.1025 18.4365 13.7749 18.4583L13.654 18.4651C13.5702 18.4691 13.4851 18.4728 13.3997 18.4752H13.388C13.3477 18.4752 13.3099 18.4752 13.2704 18.4752H13.2301L13.2099 18.4425C13.191 18.4103 13.172 18.3789 13.1543 18.347C13.1229 18.2914 13.0931 18.2362 13.0657 18.181C13.0552 18.1605 13.0451 18.1407 13.0354 18.1198C13.0258 18.0988 13.0161 18.0795 13.0064 18.0569C12.9835 18.007 12.9629 17.9574 12.9444 17.9078C12.9343 17.8824 12.925 17.8575 12.9158 17.8321C12.9065 17.8067 12.8972 17.7777 12.8884 17.7515L12.869 17.6943C12.8444 17.6137 12.8215 17.5331 12.8009 17.4452C12.7957 17.4235 12.7909 17.4009 12.7856 17.3787C12.7856 17.3743 12.7856 17.3707 12.7836 17.3667C12.7784 17.3437 12.7735 17.3207 12.7691 17.2969C12.7647 17.2732 12.7614 17.2587 12.7578 17.2389L12.7485 17.1785L12.73 17.0576C12.73 17.0487 12.728 17.0403 12.7272 17.0314C12.6924 16.7166 12.7027 16.3984 12.7578 16.0865C12.8385 15.6238 13.0151 15.1832 13.2764 14.793C13.3167 14.7301 13.3618 14.6693 13.4078 14.6092C13.5676 14.4042 13.7489 14.2168 13.9485 14.0503C14.3215 13.746 14.7546 13.5241 15.2195 13.3992C15.2907 13.3798 15.3628 13.363 15.4359 13.3488L15.6027 13.3206C16.1837 13.2357 16.7768 13.304 17.3233 13.5188C17.8697 13.7336 18.3506 14.0874 18.7183 14.5452C18.7377 14.5689 18.7586 14.5931 18.7755 14.6173C18.7925 14.6415 18.8106 14.6632 18.8271 14.6862C18.8436 14.7092 18.8674 14.741 18.8856 14.7668C18.9425 14.8506 18.9962 14.9368 19.0467 15.0255C19.2013 15.3046 19.3161 15.6039 19.3876 15.9148C19.3965 15.943 19.405 15.9704 19.4114 15.9978C19.4212 16.0347 19.429 16.0721 19.4348 16.1098C19.435 16.1121 19.435 16.1144 19.4348 16.1167C19.4416 16.157 19.4477 16.1973 19.4529 16.2376C19.4573 16.2674 19.461 16.2972 19.4638 16.3274C19.4666 16.3577 19.469 16.3875 19.4715 16.4173C19.4739 16.4471 19.4755 16.4757 19.4771 16.5059C19.4787 16.5362 19.4795 16.5595 19.4807 16.5865V16.5934C19.4875 16.7791 19.4777 16.9651 19.4513 17.1491Z" fill="white"/>
<path d="M27.1371 27.1371C25.6746 28.5996 23.9383 29.7598 22.0274 30.5513C20.1165 31.3428 18.0684 31.7502 16.0001 31.7502C13.9318 31.7502 11.8837 31.3428 9.9728 30.5513C8.06191 29.7598 6.32563 28.5996 4.8631 27.1371C3.40057 25.6746 2.24042 23.9383 1.4489 22.0274C0.657388 20.1165 0.25 18.0684 0.25 16.0001C0.25 13.9318 0.657388 11.8837 1.4489 9.9728C2.24042 8.06191 3.40057 6.32563 4.8631 4.8631C7.81681 1.90938 11.8229 0.25 16.0001 0.25C20.1773 0.25 24.1834 1.90938 27.1371 4.8631C30.0908 7.81681 31.7502 11.8229 31.7502 16.0001C31.7502 20.1773 30.0908 24.1834 27.1371 27.1371Z" stroke="white" stroke-width="0.5"/>
<defs>
<linearGradient id="paint0_linear_615_1120" x1="4.5" y1="4" x2="27" y2="28" gradientUnits="userSpaceOnUse">
<stop stop-color="#0088C8"/>
<stop offset="0.442708" stop-color="#5831C9"/>
<stop offset="1" stop-color="#81A3F2"/>
</linearGradient>
</defs>
</svg>
