<svg width="20" height="20" viewBox="0 0 20 20" fill="none" xmlns="http://www.w3.org/2000/svg">
<path d="M10 20C15.5228 20 20 15.5228 20 10C20 4.47715 15.5228 0 10 0C4.47715 0 0 4.47715 0 10C0 15.5228 4.47715 20 10 20Z" fill="white"/>
<path d="M9.99966 19.9986C8.68593 20.0023 7.38453 19.7452 6.17076 19.2426C4.957 18.7399 3.85498 18.0016 2.9285 17.0702C1.99708 16.1438 1.25867 15.042 0.755997 13.8282C0.253327 12.6145 -0.00361695 11.313 4.01687e-05 9.99934C-0.00369585 8.68564 0.253213 7.38418 0.755888 6.17044C1.25856 4.9567 1.99702 3.85488 2.9285 2.92848C3.85493 1.99702 4.95692 1.25844 6.1707 0.755777C7.38447 0.253118 8.68592 -0.00369572 9.99966 4.01809e-05C11.3134 -0.00369572 12.6148 0.253118 13.8286 0.755777C15.0424 1.25844 16.1444 1.99702 17.0708 2.92848C18.0023 3.85488 18.7408 4.9567 19.2434 6.17044C19.7461 7.38418 20.003 8.68564 19.9993 9.99934C20.0029 11.313 19.746 12.6145 19.2433 13.8282C18.7406 15.042 18.0022 16.1438 17.0708 17.0702C16.1443 18.0016 15.0423 18.7399 13.8286 19.2426C12.6148 19.7452 11.3134 20.0023 9.99966 19.9986ZM9.99966 1.42851C7.72722 1.43097 5.54855 2.33478 3.94169 3.94159C2.33483 5.5484 1.43101 7.72697 1.42856 9.99934C1.43101 12.2717 2.33483 14.4503 3.94169 16.0571C5.54855 17.6639 7.72722 18.5677 9.99966 18.5702C12.2721 18.5677 14.4508 17.6639 16.0576 16.0571C17.6645 14.4503 18.5683 12.2717 18.5708 9.99934C18.5683 7.72697 17.6645 5.5484 16.0576 3.94159C14.4508 2.33478 12.2721 1.43097 9.99966 1.42851Z" fill="#1F1F2D"/>
<path opacity="0.41" d="M9.28464 19.9742V18.5408C9.52273 18.5608 9.76081 18.5708 9.9989 18.5708C10.237 18.5708 10.4751 18.5611 10.7132 18.5415V19.9749C10.4751 19.9916 10.237 20 9.9989 20C9.76081 20 9.52273 19.9913 9.28464 19.9742ZM15.5315 16.5411C15.8953 16.2329 16.2328 15.8951 16.5408 15.5311L17.5572 16.5474C17.402 16.7264 17.2396 16.9004 17.0701 17.0695C16.9005 17.2385 16.7265 17.401 16.5479 17.5567L15.5315 16.5411ZM2.92916 17.0702C2.75964 16.9007 2.59704 16.7264 2.44133 16.5474L3.45773 15.5311C3.76592 15.8951 4.10373 16.2329 4.46769 16.5411L3.4513 17.5574C3.27226 17.4021 3.09774 17.2397 2.92774 17.0702H2.92916ZM18.5407 10.7135C18.5603 10.4755 18.57 10.2374 18.57 9.9993C18.57 9.76122 18.5603 9.52315 18.5407 9.28507H19.9742C19.9909 9.52315 19.9992 9.76122 19.9992 9.9993C19.9992 10.2374 19.9909 10.4755 19.9742 10.7135H18.5407ZM0.0250017 10.7135C0.00833563 10.4755 0 10.2374 0 9.9993C0 9.76122 0.00833563 9.52315 0.0250017 9.28507H1.45851C1.43899 9.52315 1.42924 9.76122 1.42924 9.9993C1.42924 10.2374 1.43899 10.4755 1.45851 10.7135H0.0250017ZM2.44133 3.45191C2.59704 3.27287 2.75964 3.09887 2.92916 2.92983C3.09868 2.7608 3.27298 2.59811 3.45202 2.44193L4.46769 3.45749C4.1038 3.76601 3.766 4.10406 3.45773 4.46816L2.44133 3.45191ZM15.5315 3.45749L16.5472 2.44193C16.7263 2.59764 16.9005 2.76032 17.0701 2.92983C17.2396 3.09934 17.402 3.27335 17.5572 3.45191L16.5408 4.46816C16.2326 4.10396 15.8955 3.76589 15.5315 3.45749ZM9.28464 0.0251099C9.52273 0.00844435 9.76081 0 9.9989 0C10.237 0 10.4751 0.00844435 10.7132 0.0251099V1.45707C10.4775 1.43755 10.2394 1.42777 9.9989 1.42777C9.75843 1.42777 9.52035 1.43777 9.28464 1.45777V0.0251099Z" fill="white"/>
<g clip-path="url(#clip0_3623_69604)">
<path fill-rule="evenodd" clip-rule="evenodd" d="M9.97559 7.08334C10.5254 7.08334 11.0528 6.86384 11.4416 6.47314C11.8303 6.08244 12.0488 5.55253 12.0488 5H7.90243C7.90243 5.55253 8.12086 6.08244 8.50964 6.47314C8.89845 6.86384 9.42577 7.08334 9.97559 7.08334ZM5 12.0833V7.91666C5.54984 7.91666 6.07716 8.13616 6.46595 8.52686C6.85475 8.91755 7.07316 9.44746 7.07316 10C7.07316 10.5525 6.85475 11.0824 6.46595 11.4731C6.07716 11.8638 5.54984 12.0833 5 12.0833ZM9.97559 12.0833C11.1206 12.0833 12.0488 11.1506 12.0488 10C12.0488 8.84941 11.1206 7.91666 9.97559 7.91666C8.83063 7.91666 7.90243 8.84941 7.90243 10C7.90243 11.1506 8.83063 12.0833 9.97559 12.0833ZM12.878 10C12.878 10.5525 13.0964 11.0824 13.4852 11.4731C13.874 11.8638 14.4014 12.0833 14.9512 12.0833V7.91666C14.4014 7.91666 13.874 8.13616 13.4852 8.52686C13.0964 8.91755 12.878 9.44746 12.878 10ZM14.9512 5V7.08334C14.4014 7.08334 13.874 6.86384 13.4852 6.47314C13.0964 6.08244 12.878 5.55253 12.878 5H14.9512ZM5 7.08334C5.54984 7.08334 6.07716 6.86384 6.46595 6.47314C6.85475 6.08244 7.07316 5.55253 7.07316 5H5V7.08334ZM8.50964 13.5269C8.89845 13.1362 9.42577 12.9167 9.97559 12.9167C10.5254 12.9167 11.0528 13.1362 11.4416 13.5269C11.8303 13.9176 12.0488 14.4475 12.0488 15H7.90243C7.90243 14.4475 8.12086 13.9176 8.50964 13.5269ZM12.878 15H14.9512V12.9167C14.4014 12.9167 13.874 13.1362 13.4852 13.5269C13.0964 13.9176 12.878 14.4475 12.878 15ZM5 15V12.9167C5.54984 12.9167 6.07716 13.1362 6.46595 13.5269C6.85475 13.9176 7.07316 14.4475 7.07316 15H5Z" fill="#F26057"/>
</g>
<defs>
<clipPath id="clip0_3623_69604">
<rect width="10" height="10" fill="white" transform="translate(5 5)"/>
</clipPath>
</defs>
</svg>
