<svg width="32" height="32" viewBox="0 0 32 32" fill="none" xmlns="http://www.w3.org/2000/svg">
<circle cx="16" cy="16" r="16" fill="url(#paint0_linear_3599_66479)"/>
<circle cx="16" cy="16" r="15.75" stroke="white" stroke-width="0.5"/>
<g clip-path="url(#clip0_3599_66479)">
<path fill-rule="evenodd" clip-rule="evenodd" d="M15.9581 10.9098C16.9178 10.9098 17.8382 10.5267 18.5169 9.84474C19.1955 9.16278 19.5767 8.23786 19.5767 7.27344H12.3395C12.3395 8.23786 12.7208 9.16278 13.3994 9.84474C14.078 10.5267 14.9984 10.9098 15.9581 10.9098ZM7.27344 19.6371V12.3643C8.23315 12.3643 9.15357 12.7475 9.83219 13.4294C10.5108 14.1114 10.892 15.0363 10.892 16.0007C10.892 16.9651 10.5108 17.8901 9.83219 18.572C9.15357 19.254 8.23315 19.6371 7.27344 19.6371ZM15.9581 19.6371C17.9566 19.6371 19.5767 18.009 19.5767 16.0007C19.5767 13.9924 17.9566 12.3643 15.9581 12.3643C13.9596 12.3643 12.3395 13.9924 12.3395 16.0007C12.3395 18.009 13.9596 19.6371 15.9581 19.6371ZM21.0242 16.0007C21.0242 16.9651 21.4054 17.8901 22.0841 18.572C22.7627 19.254 23.6831 19.6371 24.6428 19.6371V12.3643C23.6831 12.3643 22.7627 12.7475 22.0841 13.4294C21.4054 14.1114 21.0242 15.0363 21.0242 16.0007ZM24.6428 7.27344V10.9098C23.6831 10.9098 22.7627 10.5267 22.0841 9.84474C21.4054 9.16278 21.0242 8.23786 21.0242 7.27344H24.6428ZM7.27344 10.9098C8.23315 10.9098 9.15357 10.5267 9.83219 9.84474C10.5108 9.16278 10.892 8.23786 10.892 7.27344H7.27344V10.9098ZM13.3994 22.1567C14.078 21.4747 14.9984 21.0916 15.9581 21.0916C16.9178 21.0916 17.8382 21.4747 18.5169 22.1567C19.1955 22.8386 19.5767 23.7636 19.5767 24.728H12.3395C12.3395 23.7636 12.7208 22.8386 13.3994 22.1567ZM21.0242 24.728H24.6428V21.0916C23.6831 21.0916 22.7627 21.4747 22.0841 22.1567C21.4054 22.8386 21.0242 23.7636 21.0242 24.728ZM7.27344 24.728V21.0916C8.23315 21.0916 9.15357 21.4747 9.83219 22.1567C10.5108 22.8386 10.892 23.7636 10.892 24.728H7.27344Z" fill="url(#paint1_linear_3599_66479)"/>
</g>
<defs>
<linearGradient id="paint0_linear_3599_66479" x1="16" y1="0" x2="16" y2="32" gradientUnits="userSpaceOnUse">
<stop stop-color="#B92B79"/>
<stop offset="1" stop-color="#1F1F2D"/>
</linearGradient>
<linearGradient id="paint1_linear_3599_66479" x1="15.9581" y1="7.27344" x2="15.9581" y2="24.728" gradientUnits="userSpaceOnUse">
<stop stop-color="white"/>
<stop offset="0.0001" stop-color="#FD9657"/>
<stop offset="1" stop-color="#E2376D"/>
</linearGradient>
<clipPath id="clip0_3599_66479">
<rect width="17.4545" height="17.4545" fill="white" transform="translate(7.27344 7.27344)"/>
</clipPath>
</defs>
</svg>
