<svg width="20" height="20" viewBox="0 0 20 20" fill="none" xmlns="http://www.w3.org/2000/svg">
<path d="M10 20C15.5228 20 20 15.5228 20 10C20 4.47715 15.5228 0 10 0C4.47715 0 0 4.47715 0 10C0 15.5228 4.47715 20 10 20Z" fill="white"/>
<path d="M9.99966 19.9986C8.68593 20.0023 7.38453 19.7452 6.17076 19.2426C4.957 18.7399 3.85498 18.0016 2.9285 17.0702C1.99708 16.1438 1.25867 15.042 0.755997 13.8282C0.253327 12.6145 -0.00361695 11.313 4.01687e-05 9.99934C-0.00369585 8.68564 0.253213 7.38418 0.755888 6.17044C1.25856 4.9567 1.99702 3.85488 2.9285 2.92848C3.85493 1.99702 4.95692 1.25844 6.1707 0.755777C7.38447 0.253118 8.68592 -0.00369572 9.99966 4.01809e-05C11.3134 -0.00369572 12.6148 0.253118 13.8286 0.755777C15.0424 1.25844 16.1444 1.99702 17.0708 2.92848C18.0023 3.85488 18.7408 4.9567 19.2434 6.17044C19.7461 7.38418 20.003 8.68564 19.9993 9.99934C20.0029 11.313 19.746 12.6145 19.2433 13.8282C18.7406 15.042 18.0022 16.1438 17.0708 17.0702C16.1443 18.0016 15.0423 18.7399 13.8286 19.2426C12.6148 19.7452 11.3134 20.0023 9.99966 19.9986ZM9.99966 1.42851C7.72722 1.43097 5.54855 2.33478 3.94169 3.94159C2.33483 5.5484 1.43101 7.72697 1.42856 9.99934C1.43101 12.2717 2.33483 14.4503 3.94169 16.0571C5.54855 17.6639 7.72722 18.5677 9.99966 18.5702C12.2721 18.5677 14.4508 17.6639 16.0576 16.0571C17.6645 14.4503 18.5683 12.2717 18.5708 9.99934C18.5683 7.72697 17.6645 5.5484 16.0576 3.94159C14.4508 2.33478 12.2721 1.43097 9.99966 1.42851Z" fill="#1E1E1E"/>
<path opacity="0.41" d="M9.28464 19.9742V18.5408C9.52273 18.5608 9.76081 18.5708 9.9989 18.5708C10.237 18.5708 10.4751 18.5611 10.7132 18.5415V19.9749C10.4751 19.9916 10.237 20 9.9989 20C9.76081 20 9.52273 19.9913 9.28464 19.9742ZM15.5315 16.5411C15.8953 16.2329 16.2328 15.8951 16.5408 15.5311L17.5572 16.5474C17.402 16.7264 17.2396 16.9004 17.0701 17.0695C16.9005 17.2385 16.7265 17.401 16.5479 17.5567L15.5315 16.5411ZM2.92916 17.0702C2.75964 16.9007 2.59704 16.7264 2.44133 16.5474L3.45773 15.5311C3.76592 15.8951 4.10373 16.2329 4.46769 16.5411L3.4513 17.5574C3.27226 17.4021 3.09774 17.2397 2.92774 17.0702H2.92916ZM18.5407 10.7135C18.5603 10.4755 18.57 10.2374 18.57 9.9993C18.57 9.76122 18.5603 9.52315 18.5407 9.28507H19.9742C19.9909 9.52315 19.9992 9.76122 19.9992 9.9993C19.9992 10.2374 19.9909 10.4755 19.9742 10.7135H18.5407ZM0.0250017 10.7135C0.00833563 10.4755 0 10.2374 0 9.9993C0 9.76122 0.00833563 9.52315 0.0250017 9.28507H1.45851C1.43899 9.52315 1.42924 9.76122 1.42924 9.9993C1.42924 10.2374 1.43899 10.4755 1.45851 10.7135H0.0250017ZM2.44133 3.45191C2.59704 3.27287 2.75964 3.09887 2.92916 2.92983C3.09868 2.7608 3.27298 2.59811 3.45202 2.44193L4.46769 3.45749C4.1038 3.76601 3.766 4.10406 3.45773 4.46816L2.44133 3.45191ZM15.5315 3.45749L16.5472 2.44193C16.7263 2.59764 16.9005 2.76032 17.0701 2.92983C17.2396 3.09934 17.402 3.27335 17.5572 3.45191L16.5408 4.46816C16.2326 4.10396 15.8955 3.76589 15.5315 3.45749ZM9.28464 0.0251099C9.52273 0.00844435 9.76081 0 9.9989 0C10.237 0 10.4751 0.00844435 10.7132 0.0251099V1.45707C10.4775 1.43755 10.2394 1.42777 9.9989 1.42777C9.75843 1.42777 9.52035 1.43777 9.28464 1.45777V0.0251099Z" fill="white"/>
<path d="M5.5918 6.8563C5.5918 6.57843 5.70218 6.31194 5.89866 6.11546C6.09515 5.91898 6.36164 5.80859 6.63951 5.80859H13.3229C13.6008 5.80859 13.8673 5.91898 14.0638 6.11546C14.2603 6.31194 14.3706 6.57843 14.3706 6.8563C14.3706 7.13417 14.2603 7.40066 14.0638 7.59715C13.8673 7.79363 13.6008 7.90401 13.3229 7.90401H11.2354V11.0499C11.2354 11.0794 11.2047 11.0978 11.1772 11.0876C11.0752 11.0504 10.9656 11.0383 10.8579 11.0525C10.7502 11.0666 10.6475 11.1065 10.5585 11.1688C10.4695 11.2312 10.3969 11.314 10.3468 11.4104C10.2966 11.5068 10.2705 11.6138 10.2705 11.7224V11.8383C10.2705 12.0489 10.192 12.3038 9.98141 12.3038C9.71507 12.3038 9.70603 11.9346 9.81053 11.6894C9.86476 11.5621 9.88662 11.4234 9.87417 11.2856C9.86171 11.1478 9.81533 11.0152 9.73915 10.8997C9.66297 10.7842 9.55938 10.6894 9.43762 10.6236C9.31585 10.5579 9.17971 10.5234 9.04134 10.5231C8.88735 10.5231 8.72707 10.4162 8.72707 10.2626V7.90401H6.6399C6.50228 7.90407 6.366 7.877 6.23884 7.82437C6.11168 7.77175 5.99613 7.69458 5.8988 7.59729C5.80147 7.49999 5.72426 7.38448 5.67159 7.25734C5.61891 7.1302 5.5918 6.99392 5.5918 6.8563Z" fill="black"/>
<path d="M11.2367 11.7797C11.2367 11.863 11.2036 11.9429 11.1448 12.0018C11.0859 12.0607 11.0061 12.0939 10.9228 12.094C10.8394 12.094 10.7595 12.0609 10.7006 12.002C10.6416 11.943 10.6085 11.8631 10.6085 11.7797C10.6085 11.6964 10.6416 11.6164 10.7006 11.5575C10.7595 11.4986 10.8394 11.4655 10.9228 11.4655C11.0061 11.4656 11.0859 11.4987 11.1448 11.5576C11.2036 11.6166 11.2367 11.6964 11.2367 11.7797ZM10.8034 13.3778C10.6872 13.3778 10.5758 13.3317 10.4936 13.2495C10.4115 13.1674 10.3653 13.056 10.3653 12.9398C10.3653 12.8236 10.4115 12.7122 10.4936 12.6301C10.5758 12.5479 10.6872 12.5018 10.8034 12.5018C10.9195 12.5018 11.0309 12.5479 11.1131 12.6301C11.1952 12.7122 11.2414 12.8236 11.2414 12.9398C11.2414 13.056 11.1952 13.1674 11.1131 13.2495C11.0309 13.3317 10.9195 13.3778 10.8034 13.3778ZM10.9342 14.5167C10.8529 14.5167 10.775 14.4844 10.7175 14.4269C10.66 14.3695 10.6278 14.2915 10.6278 14.2102C10.6278 14.129 10.66 14.051 10.7175 13.9936C10.775 13.9361 10.8529 13.9038 10.9342 13.9038C11.0154 13.9038 11.0934 13.9361 11.1508 13.9936C11.2083 14.051 11.2406 14.129 11.2406 14.2102C11.2406 14.2915 11.2083 14.3695 11.1508 14.4269C11.0934 14.4844 11.0154 14.5167 10.9342 14.5167ZM10.0432 14.0786C10.1291 14.0786 10.2114 14.0445 10.2721 13.9838C10.3328 13.9231 10.3669 13.8408 10.3669 13.7549C10.3669 13.6691 10.3328 13.5868 10.2721 13.526C10.2114 13.4653 10.1291 13.4312 10.0432 13.4312C9.95736 13.4312 9.87503 13.4653 9.81432 13.526C9.75361 13.5868 9.71951 13.6691 9.71951 13.7549C9.71951 13.8408 9.75361 13.9231 9.81432 13.9838C9.87503 14.0445 9.95736 14.0786 10.0432 14.0786ZM9.40524 14.9645C9.40524 15.2301 9.62012 15.4465 9.88568 15.4465C10.0135 15.4465 10.136 15.3958 10.2264 15.3054C10.3167 15.215 10.3675 15.0925 10.3675 14.9647C10.3675 14.8369 10.3167 14.7144 10.2264 14.624C10.136 14.5336 10.0135 14.4829 9.88568 14.4829C9.62051 14.4829 9.40524 14.6989 9.40524 14.9649V14.9645ZM9.02143 13.6941C8.85879 13.6941 8.70282 13.6294 8.58781 13.5144C8.47281 13.3994 8.4082 13.2435 8.4082 13.0808C8.4082 12.9182 8.47281 12.7622 8.58781 12.6472C8.70282 12.5322 8.85879 12.4676 9.02143 12.4676C9.18407 12.4676 9.34004 12.5322 9.45505 12.6472C9.57005 12.7622 9.63466 12.9182 9.63466 13.0808C9.63466 13.2435 9.57005 13.3994 9.45505 13.5144C9.34004 13.6294 9.18407 13.6941 9.02143 13.6941ZM8.62387 11.3606C8.62387 11.1296 8.81087 10.9414 9.04186 10.9414C9.15303 10.9414 9.25964 10.9856 9.33825 11.0642C9.41686 11.1428 9.46102 11.2494 9.46102 11.3606C9.46102 11.4717 9.41686 11.5784 9.33825 11.657C9.25964 11.7356 9.15303 11.7797 9.04186 11.7797C8.93086 11.7795 8.82449 11.7353 8.74611 11.6567C8.66774 11.5781 8.62377 11.4716 8.62387 11.3606Z" fill="black"/>
</svg>
