<svg width="32" height="32" viewBox="0 0 32 32" fill="none" xmlns="http://www.w3.org/2000/svg">
<g clip-path="url(#clip0_613_801)">
<path d="M31.75 16C31.75 24.698 24.698 31.75 16 31.75C7.302 31.75 0.25 24.698 0.25 16C0.25 7.302 7.302 0.25 16 0.25C24.698 0.25 31.75 7.302 31.75 16Z" fill="url(#paint0_linear_613_801)" stroke="white" stroke-width="0.5"/>
<path fill-rule="evenodd" clip-rule="evenodd" d="M16.4398 19.4183C22.1998 18.7103 26.5918 15.8763 26.2498 13.0873C25.9068 10.2973 20.9598 8.61027 15.1998 9.31727C9.43979 10.0253 5.04779 12.8593 5.38979 15.6483C5.73279 18.4383 10.6798 20.1253 16.4398 19.4183V19.4183Z" fill="white"/>
<path fill-rule="evenodd" clip-rule="evenodd" d="M22.8518 9.62487C24.8788 10.3159 26.3418 11.4909 26.5328 13.0529C26.7248 14.6159 25.5898 16.1089 23.7898 17.2709C21.9718 18.4439 19.3908 19.3409 16.4788 19.6979C13.5658 20.0559 10.8448 19.8099 8.79684 19.1119C6.76884 18.4199 5.30684 17.2459 5.11484 15.6829C4.92284 14.1209 6.05784 12.6269 7.85784 11.4659C9.67584 10.2919 12.2568 9.39587 15.1698 9.03787C18.0828 8.68087 20.8028 8.92587 22.8508 9.62487H22.8518ZM22.6688 10.1589C20.7188 9.49287 18.0858 9.24887 15.2388 9.59787C12.3908 9.94787 9.89584 10.8219 8.16384 11.9399C6.41384 13.0699 5.52384 14.3879 5.67384 15.6139C5.82484 16.8409 7.00684 17.9049 8.97884 18.5779C10.9298 19.2439 13.5628 19.4879 16.4088 19.1379L16.4438 19.4179L16.4098 19.1379C19.2568 18.7879 21.7518 17.9149 23.4848 16.7969C25.2348 15.6669 26.1248 14.3489 25.9738 13.1219C25.8238 11.8949 24.6408 10.8319 22.6688 10.1589V10.1589Z" fill="#979797"/>
<path fill-rule="evenodd" clip-rule="evenodd" d="M16.334 18.6239C21.744 17.9599 25.896 15.5219 25.608 13.1789C25.321 10.8359 20.702 9.47491 15.292 10.1389C9.88203 10.8029 5.73003 13.2409 6.01803 15.5839C6.30603 17.9269 10.924 19.2879 16.334 18.6239V18.6239Z" fill="#000002"/>
<path fill-rule="evenodd" clip-rule="evenodd" d="M16.0287 25.1679C18.9907 25.3749 21.7487 22.0109 22.9467 17.1819C22.9737 17.0709 22.8557 17.1969 22.6427 17.2969C22.2747 17.4699 21.5777 17.7669 20.5367 18.0809C19.1117 18.5089 17.0837 18.9009 16.3937 19.0009C15.6787 19.1039 14.2337 19.1429 12.9897 19.1339C12.2567 19.1289 11.7057 19.1679 11.3037 19.1139C11.0237 19.0759 10.7537 18.8739 10.8077 19.0789C11.7407 22.5949 13.6477 25.0019 16.0277 25.1689L16.0287 25.1679Z" fill="#6758FF"/>
<path fill-rule="evenodd" clip-rule="evenodd" d="M18.4282 23.0747C20.0662 22.7257 20.8502 20.6587 20.7782 20.3247C20.7082 19.9897 19.7832 21.3937 18.1452 21.7417C16.5072 22.0897 14.8022 22.1017 14.8732 22.4367C14.9182 22.6477 15.8812 23.1017 16.9462 23.1387C17.5702 23.1597 17.8232 23.2027 18.4282 23.0747V23.0747Z" fill="#FF7FA7"/>
<g filter="url(#filter0_f_613_801)">
<path fill-rule="evenodd" clip-rule="evenodd" d="M16.2035 17.4196C20.4735 17.4196 24.5825 20.9356 24.5825 13.0636C24.5825 5.19157 19.8585 11.2036 15.5895 11.2036C11.3215 11.2036 7.98047 8.73457 7.98047 16.6076C7.98047 24.4796 11.9355 17.4206 16.2035 17.4206V17.4196Z" fill="#FFD5E2" fill-opacity="0.102"/>
</g>
<g filter="url(#filter1_f_613_801)">
<path fill-rule="evenodd" clip-rule="evenodd" d="M24.6462 10.6601C24.7902 11.2781 24.8642 12.0691 24.8642 13.0641C24.8642 15.0461 24.6082 16.3641 24.1172 17.2081C23.6102 18.0811 22.8682 18.4181 22.0132 18.4761C21.2002 18.5311 20.2632 18.3341 19.3082 18.1341L19.2562 18.1241C18.2662 17.9161 17.2372 17.7031 16.2042 17.7031C15.2102 17.7031 14.2142 18.1151 13.2552 18.6481C12.8032 18.8981 12.3672 19.1711 11.9482 19.4341L11.8762 19.4791C11.4382 19.7531 11.0132 20.0161 10.6212 20.2181C10.2312 20.4181 9.84522 20.5711 9.48422 20.6051C9.10822 20.6411 8.75322 20.5471 8.46422 20.2541C8.19122 19.9751 8.00422 19.5431 7.88422 18.9611C7.76122 18.3741 7.69922 17.6011 7.69922 16.6081C7.69922 14.6281 7.90822 13.2601 8.31122 12.3301C8.72322 11.3801 9.33922 10.8891 10.1112 10.6811C10.8562 10.4821 11.7252 10.5531 12.6332 10.6611L13.1252 10.7211C13.9052 10.8191 14.7272 10.9211 15.5902 10.9211C16.5972 10.9211 17.6492 10.5661 18.6862 10.1281C19.0062 9.99206 19.3292 9.84806 19.6482 9.70406C20.3362 9.39406 21.0072 9.09406 21.6052 8.91206C22.4832 8.64606 23.3552 8.59106 23.9832 9.26006C24.2832 9.58006 24.5012 10.0441 24.6462 10.6601V10.6601ZM18.9062 10.6471C17.8572 11.0901 16.7172 11.4861 15.5902 11.4861C14.6892 11.4861 13.8262 11.3781 13.0442 11.2801L12.5672 11.2211C11.6482 11.1121 10.8832 11.0591 10.2572 11.2261C9.66222 11.3861 9.17722 11.7531 8.82822 12.5551C8.47222 13.3771 8.26322 14.6521 8.26322 16.6081C8.26322 17.5831 8.32422 18.3121 8.43522 18.8461C8.54722 19.3841 8.70322 19.6921 8.86722 19.8591C9.01622 20.0111 9.19322 20.0671 9.43122 20.0441C9.68322 20.0201 9.99122 19.9061 10.3632 19.7161C10.7312 19.5271 11.1352 19.2771 11.5772 19.0001L11.6522 18.9541C12.0692 18.6931 12.5162 18.4131 12.9822 18.1541C13.9642 17.6091 15.0632 17.1391 16.2042 17.1391C17.3052 17.1391 18.3902 17.3661 19.3722 17.5711C20.3702 17.7811 21.2422 17.9631 21.9752 17.9141C22.6802 17.8661 23.2332 17.6061 23.6302 16.9241C24.0432 16.2141 24.3002 15.0191 24.3002 13.0641C24.3002 12.0921 24.2272 11.3491 24.0962 10.7881C23.9662 10.2271 23.7812 9.86806 23.5722 9.64506C23.1802 9.22706 22.6052 9.19906 21.7692 9.45206C21.2052 9.62206 20.5912 9.89906 19.9232 10.1991C19.5972 10.3461 19.2582 10.4991 18.9062 10.6471V10.6471Z" fill="#979797" fill-opacity="0.102"/>
</g>
</g>
<defs>
<filter id="filter0_f_613_801" x="2.02647" y="3.05381" width="28.5096" height="23.2303" filterUnits="userSpaceOnUse" color-interpolation-filters="sRGB">
<feFlood flood-opacity="0" result="BackgroundImageFix"/>
<feBlend mode="normal" in="SourceGraphic" in2="BackgroundImageFix" result="shape"/>
<feGaussianBlur stdDeviation="2.977" result="effect1_foregroundBlur_613_801"/>
</filter>
<filter id="filter1_f_613_801" x="1.74522" y="2.77256" width="29.0721" height="23.7947" filterUnits="userSpaceOnUse" color-interpolation-filters="sRGB">
<feFlood flood-opacity="0" result="BackgroundImageFix"/>
<feBlend mode="normal" in="SourceGraphic" in2="BackgroundImageFix" result="shape"/>
<feGaussianBlur stdDeviation="2.977" result="effect1_foregroundBlur_613_801"/>
</filter>
<linearGradient id="paint0_linear_613_801" x1="16" y1="0" x2="16" y2="32" gradientUnits="userSpaceOnUse">
<stop stop-color="#EDEDED"/>
<stop offset="1" stop-color="#E5E5E5"/>
</linearGradient>
<clipPath id="clip0_613_801">
<rect width="32" height="32" fill="white"/>
</clipPath>
</defs>
</svg>
