<svg width="32" height="32" viewBox="0 0 32 32" fill="none" xmlns="http://www.w3.org/2000/svg">
<path d="M16 32C24.8366 32 32 24.8366 32 16C32 7.16344 24.8366 0 16 0C7.16344 0 0 7.16344 0 16C0 24.8366 7.16344 32 16 32Z" fill="url(#paint0_linear_1074_14217)"/>
<path d="M16 31.75C24.6985 31.75 31.75 24.6985 31.75 16C31.75 7.30152 24.6985 0.25 16 0.25C7.30152 0.25 0.25 7.30152 0.25 16C0.25 24.6985 7.30152 31.75 16 31.75Z" stroke="white" stroke-width="0.5"/>
<path d="M14.5489 12.2575V12.2711L13.2737 5.53856L12.2155 5.19922L11.5508 6.09508L14.5489 12.2575Z" fill="white"/>
<path d="M15.2422 9.44617L15.7848 12.0523L16.3682 9.40543L15.7984 9.02539L15.2422 9.44617Z" fill="white"/>
<path d="M19.2714 9.91016L18.5796 9.97803L17.7656 12.557L19.5563 10.5346L19.2714 9.91016Z" fill="white"/>
<path d="M25.1849 10.4525V9.35301L24.1132 9.01367L19.0938 13.7237L25.1849 10.4525Z" fill="white"/>
<path d="M12.9216 13.2338L11.4294 10.9941L11.4565 11.0484L11.4294 10.9941L10.7511 11.1027L10.6426 11.7814L12.9216 13.2338Z" fill="white"/>
<path d="M22.528 15.5156L19.8555 16.045L22.528 16.6287L22.9349 16.0722L22.528 15.5156Z" fill="white"/>
<path d="M11.7283 16.0582L4.86395 15.1895L4.19922 16.0853L4.86395 16.9812L11.7283 16.0582Z" fill="white"/>
<path d="M9.19176 17.5507L8.98828 18.1886L9.54447 18.5959L11.9185 17.2656L9.19176 17.5507Z" fill="white"/>
<path d="M9.97829 19.4394L9.95117 20.1181L10.6023 20.3489L12.5016 18.3535L9.97829 19.4394Z" fill="white"/>
<path d="M13.3963 19.2754L11.375 21.0535L11.5514 21.7051L12.2432 21.7322L13.3963 19.2754Z" fill="white"/>
<path d="M15.7985 20.0605L15.2559 22.6939L15.8121 23.0875L16.3683 22.6803L15.7985 20.0605Z" fill="white"/>
<path d="M25.1984 21.664L19.0938 18.4199L24.1403 23.1028L25.1984 22.7635V21.664Z" fill="white"/>
<path d="M18.4717 22.167L17.1016 19.873L17.4136 22.5064L18.0648 22.71L18.4717 22.167Z" fill="white"/>
<path d="M14.5627 19.873L11.5918 26.0491L12.2565 26.9449L13.3147 26.6056L14.5627 19.873Z" fill="white"/>
<defs>
<linearGradient id="paint0_linear_1074_14217" x1="16" y1="0" x2="16" y2="32" gradientUnits="userSpaceOnUse">
<stop stop-color="#43AD6B"/>
<stop offset="1" stop-color="#2B9151"/>
</linearGradient>
</defs>
</svg>
