<svg width="32" height="32" viewBox="0 0 32 32" fill="none" xmlns="http://www.w3.org/2000/svg">
<g clip-path="url(#clip0_613_731)">
<path d="M16 32C24.837 32 32 24.837 32 16C32 7.163 24.837 0 16 0C7.163 0 0 7.163 0 16C0 24.837 7.163 32 16 32Z" fill="url(#paint0_linear_613_731)"/>
<path d="M16 31.75C24.698 31.75 31.75 24.698 31.75 16C31.75 7.302 24.698 0.25 16 0.25C7.302 0.25 0.25 7.302 0.25 16C0.25 24.698 7.302 31.75 16 31.75Z" stroke="white" stroke-width="0.5"/>
<path d="M22.1729 15.3998C22.1809 16.2668 21.9679 17.1198 21.5519 17.8798C21.1059 18.6498 20.4459 19.2738 19.6519 19.6748C18.6619 20.1628 17.5669 20.3978 16.4639 20.3608H14.1149V25.9388H10.3359V10.3978H16.4679C17.5519 10.3648 18.6279 10.5838 19.6119 11.0398C20.4169 11.4218 21.0879 12.0388 21.5359 12.8098C21.9719 13.6018 22.1919 14.4958 22.1729 15.3998V15.3998ZM16.1799 17.3498C16.7639 17.3958 17.3439 17.2138 17.7959 16.8398C18.1389 16.4398 18.3279 15.9298 18.3279 15.4008C18.3279 14.8738 18.1389 14.3628 17.7959 13.9608C17.3439 13.5888 16.7639 13.4058 16.1799 13.4528H14.1149V17.3528L16.1799 17.3498V17.3498Z" fill="white"/>
<path d="M22.1711 6.46094H10.3281V8.96094H22.1711V6.46094V6.46094Z" fill="#E50913"/>
</g>
<defs>
<linearGradient id="paint0_linear_613_731" x1="16" y1="0" x2="16" y2="32" gradientUnits="userSpaceOnUse">
<stop stop-color="#434343"/>
<stop offset="1"/>
</linearGradient>
<clipPath id="clip0_613_731">
<rect width="32" height="32" fill="white"/>
</clipPath>
</defs>
</svg>
