<svg width="20" height="20" viewBox="0 0 20 20" fill="none" xmlns="http://www.w3.org/2000/svg">
<path d="M9.99991 19.285C15.1279 19.285 19.285 15.1279 19.285 9.99991C19.285 4.87191 15.1279 0.714844 9.99991 0.714844C4.87191 0.714844 0.714844 4.87191 0.714844 9.99991C0.714844 15.1279 4.87191 19.285 9.99991 19.285Z" fill="white"/>
<path d="M9.99934 19.9986C8.68565 20.0023 7.3843 19.7452 6.17057 19.2426C4.95684 18.7399 3.85486 18.0016 2.92841 17.0702C1.99702 16.1438 1.25863 15.042 0.755973 13.8282C0.253319 12.6145 -0.00361684 11.313 4.01675e-05 9.99934C-0.00369573 8.68564 0.253206 7.38418 0.755864 6.17044C1.25852 4.9567 1.99696 3.85488 2.92841 2.92848C3.85481 1.99702 4.95677 1.25844 6.1705 0.755777C7.38424 0.253118 8.68564 -0.00369572 9.99934 4.01809e-05C11.313 -0.00369572 12.6144 0.253118 13.8282 0.755777C15.0419 1.25844 16.1439 1.99702 17.0703 2.92848C18.0017 3.85488 18.7402 4.9567 19.2428 6.17044C19.7455 7.38418 20.0024 8.68564 19.9986 9.99934C20.0023 11.313 19.7454 12.6145 19.2427 13.8282C18.7401 15.042 18.0017 16.1438 17.0703 17.0702C16.1438 18.0016 15.0418 18.7399 13.8281 19.2426C12.6144 19.7452 11.313 20.0023 9.99934 19.9986ZM9.99934 1.42851C7.72697 1.43097 5.54838 2.33478 3.94157 3.94159C2.33476 5.5484 1.43097 7.72697 1.42851 9.99934C1.43097 12.2717 2.33476 14.4503 3.94157 16.0571C5.54838 17.6639 7.72697 18.5677 9.99934 18.5702C12.2717 18.5677 14.4503 17.6639 16.0571 16.0571C17.6639 14.4503 18.5677 12.2717 18.5702 9.99934C18.5677 7.72697 17.6639 5.5484 16.0571 3.94159C14.4503 2.33478 12.2717 1.43097 9.99934 1.42851V1.42851Z" fill="#3D1E17"/>
<path opacity="0.7" d="M9.2863 19.9742V18.5408C9.52438 18.5608 9.76246 18.5708 10.0005 18.5708C10.2386 18.5708 10.4767 18.5611 10.7148 18.5415V19.9749C10.4767 19.9916 10.2386 20 10.0005 20C9.76246 20 9.52438 19.9913 9.2863 19.9742ZM15.533 16.5411C15.8967 16.2329 16.2343 15.8951 16.5422 15.5311L17.5586 16.5474C17.4034 16.7264 17.241 16.9004 17.0715 17.0695C16.902 17.2385 16.7279 17.401 16.5494 17.5567L15.533 16.5411ZM2.93102 17.0702C2.76151 16.9007 2.59891 16.7264 2.44321 16.5474L3.45957 15.5311C3.76776 15.8951 4.10555 16.2329 4.4695 16.5411L3.45314 17.5574C3.27411 17.4021 3.09959 17.2397 2.92961 17.0702H2.93102ZM18.5421 10.7135C18.5616 10.4755 18.5714 10.2374 18.5714 9.9993C18.5714 9.76122 18.5616 9.52315 18.5421 9.28507H19.9756C19.9922 9.52315 20.0006 9.76122 20.0006 9.9993C20.0006 10.2374 19.9922 10.4755 19.9756 10.7135H18.5421ZM0.026954 10.7135C0.0102885 10.4755 0.00195312 10.2374 0.00195312 9.9993C0.00195312 9.76122 0.0102885 9.52315 0.026954 9.28507H1.46042C1.44089 9.52315 1.43114 9.76122 1.43114 9.9993C1.43114 10.2374 1.44089 10.4755 1.46042 10.7135H0.026954ZM2.44321 3.45191C2.59891 3.27287 2.76151 3.09887 2.93102 2.92983C3.10053 2.7608 3.27483 2.59811 3.45386 2.44193L4.4695 3.45749C4.10562 3.76601 3.76783 4.10406 3.45957 4.46816L2.44321 3.45191ZM15.533 3.45749L16.5487 2.44193C16.7277 2.59764 16.902 2.76032 17.0715 2.92983C17.241 3.09934 17.4034 3.27335 17.5586 3.45191L16.5422 4.46816C16.2341 4.10396 15.8963 3.76589 15.5323 3.45749H15.533ZM9.2863 0.0251099C9.52438 0.00844435 9.76246 0 10.0005 0C10.2386 0 10.4767 0.00844435 10.7148 0.0251099V1.45707C10.4791 1.43755 10.241 1.42777 10.0005 1.42777C9.76008 1.42777 9.522 1.43777 9.2863 1.45777V0.0251099Z" fill="white"/>
<path fill-rule="evenodd" clip-rule="evenodd" d="M9.93374 4C10.9513 3.99938 11.952 4.26066 12.8392 4.75866C13.7265 5.25667 14.4705 5.97463 14.9996 6.84338C14.5904 6.83756 14.1841 6.91308 13.8044 7.06555C13.4246 7.21803 13.079 7.44442 12.7876 7.73156C12.4961 8.01869 12.2647 8.36089 12.1067 8.7382C11.9488 9.1155 11.8675 9.52046 11.8675 9.92947C11.8675 10.3385 11.9488 10.7434 12.1067 11.1207C12.2647 11.498 12.4961 11.8402 12.7876 12.1273C13.079 12.4145 13.4246 12.6409 13.8044 12.7934C14.1841 12.9458 14.5904 13.0214 14.9996 13.0155C14.4607 13.8993 13.6998 14.6268 12.7924 15.1255C11.885 15.6243 10.8629 15.877 9.82749 15.8586C8.79211 15.8402 7.77957 15.5512 6.89056 15.0205C6.00154 14.4897 5.26699 13.7357 4.75993 12.8333C4.25287 11.9309 3.99096 10.9116 4.00024 9.87666C4.00951 8.84176 4.28965 7.82727 4.8128 6.93409C5.33595 6.04091 6.08389 5.30014 6.98228 4.7854C7.88066 4.27066 8.8982 3.99989 9.93374 4Z" fill="#FFC780"/>
<path fill-rule="evenodd" clip-rule="evenodd" d="M14.9999 6.84071C14.5908 6.83488 14.1845 6.9104 13.8047 7.06287C13.425 7.21535 13.0794 7.44174 12.7879 7.72889C12.4965 8.01604 12.2651 8.3582 12.1072 8.7355C11.9492 9.11285 11.8678 9.51777 11.8678 9.92677C11.8678 10.3358 11.9492 10.7407 12.1072 11.118C12.2651 11.4954 12.4965 11.8375 12.7879 12.1247C13.0794 12.4118 13.425 12.6382 13.8047 12.7907C14.1845 12.9431 14.5908 13.0187 14.9999 13.0128L14.9818 13.0429C14.3788 13.5894 13.6299 13.9489 12.8261 14.0777C12.0225 14.2065 11.1986 14.0991 10.4549 13.7684C9.71118 13.4377 9.07967 12.8981 8.63724 12.2153C8.1948 11.5324 7.96053 10.7357 7.96291 9.92216C7.96529 9.10864 8.20423 8.31338 8.65068 7.6331C9.09708 6.95283 9.73176 6.41694 10.4774 6.09063C11.223 5.76432 12.0475 5.66167 12.8504 5.79517C13.6534 5.92868 14.4002 6.29258 14.9999 6.84259V6.84071Z" fill="url(#paint0_linear_4449_66830)"/>
<defs>
<linearGradient id="paint0_linear_4449_66830" x1="11.4801" y1="14.1308" x2="11.4801" y2="5.73592" gradientUnits="userSpaceOnUse">
<stop stop-color="#FFC780"/>
<stop offset="1" stop-color="#964B48"/>
</linearGradient>
</defs>
</svg>
