<svg width="64" height="64" viewBox="0 0 64 64" fill="none" xmlns="http://www.w3.org/2000/svg">
<circle cx="32" cy="32" r="32" fill="url(#paint0_linear_650_11931)"/>
<path d="M22.5 48.5C15.8193 45.5049 11 38.8885 11 31.1294C11 20.5714 19.6132 12 30.2226 12C36.3559 12 41.8221 14.8644 45.3391 19.3256C46.4879 20.9369 47.2562 24.3152 44.3305 27.7495C42.6928 29.6723 38.8662 31.5505 33.5 34C29.3376 35.8736 25.2832 38.4796 22.6624 41.1156C21.6819 42.1014 21.0351 43.2106 20.7011 44.2667C20.2117 45.8118 20.9089 47.7262 22.5 48.5Z" stroke="white" stroke-width="2"/>
<path d="M33.9047 34.1024L33.9063 34.106C33.7637 38.0305 32.6421 42.1837 31.0007 45.1893C29.3846 48.1493 25.4393 49.6758 22.7531 48.655L22.4424 48.5231C20.8597 47.7449 20.3327 45.7502 20.8195 44.1968C21.1518 43.135 21.7952 42.0199 22.7703 41.0287C25.3776 38.3787 29.4553 36.1323 33.5962 34.2486L33.9047 34.1024Z" stroke="white" stroke-width="2"/>
<path d="M49.6456 34.5044C52.2211 35.6975 54.0094 38.3497 53.9998 41.4209C53.9869 45.6003 50.6512 48.9839 46.5551 48.9715C44.1875 48.9644 42.0805 47.8243 40.7281 46.0542C40.2865 45.415 39.9939 44.0769 41.1277 42.7206C41.7621 41.9614 43.2247 41.0752 45.2997 40.1117C46.909 39.3749 48.4943 38.495 49.5092 37.4547C49.8889 37.0652 50.1401 36.6272 50.2705 36.2096C50.4611 35.5983 50.2587 34.8125 49.6456 34.5044V34.5044Z" stroke="white" stroke-width="2"/>
<path d="M45.1588 40.1304L45.1582 40.1293C45.2187 38.5352 45.6646 36.8496 46.313 35.6311C46.9517 34.4305 48.5039 33.8152 49.558 34.2332L49.68 34.2873C50.3007 34.6051 50.5056 35.4157 50.3123 36.0463C50.1806 36.4771 49.9263 36.9291 49.5419 37.3307C48.5144 38.4038 46.9095 39.3114 45.2799 40.0715L45.1588 40.1304Z" stroke="white" stroke-width="2"/>
<defs>
<linearGradient id="paint0_linear_650_11931" x1="12.2553" y1="7.14894" x2="54.8085" y2="51.4043" gradientUnits="userSpaceOnUse">
<stop stop-color="#898989"/>
<stop offset="0.322917" stop-color="#575757"/>
<stop offset="0.660048" stop-color="#1D1D1D"/>
</linearGradient>
</defs>
</svg>
