<svg width="32" height="32" viewBox="0 0 32 32" fill="none" xmlns="http://www.w3.org/2000/svg">
<g clip-path="url(#clip0_613_874)">
<path d="M16 32C24.8365 32 32 24.8365 32 16C32 7.16344 24.8365 0 16 0C7.16344 0 0 7.16344 0 16C0 24.8365 7.16344 32 16 32Z" fill="url(#paint0_linear_613_874)"/>
<path d="M25.7663 14.3543L24.9727 13.3258L20.4375 10.3984C20.4524 10.4845 20.4685 10.5705 20.4871 10.6559C20.5233 10.8143 20.5631 10.9719 20.6065 11.1285C20.6322 11.224 20.6589 11.3172 20.6863 11.4083C20.6949 11.4361 20.7033 11.4643 20.7111 11.4924C21.6074 14.3721 23.3959 15.7404 25.7969 17.5737C25.9532 16.595 25.9631 15.5984 25.8263 14.6167L25.7663 14.3543Z" fill="#EF7730"/>
<path d="M16.9518 18.4796C12.6366 16.5497 9.93889 12.6325 9.78166 8.69028C9.78007 8.65279 9.76791 8.61652 9.74655 8.58567C9.72519 8.55484 9.69553 8.53068 9.661 8.51601C9.62647 8.50134 9.58849 8.49676 9.55147 8.50281C9.51444 8.50886 9.4799 8.52527 9.45182 8.55015C8.32247 9.54559 7.43441 10.7849 6.85483 12.1743C6.27524 13.5637 6.01934 15.0667 6.10649 16.5697C6.19364 18.0725 6.62158 19.5359 7.35787 20.849C8.09417 22.1621 9.11954 23.2905 10.3564 24.1487C11.5932 25.0069 13.0091 25.5725 14.4968 25.8026C15.9846 26.0329 17.5051 25.9215 18.9435 25.477C20.3819 25.0327 21.7003 24.2669 22.7989 23.2378C23.8976 22.2085 24.7477 20.9429 25.2849 19.5365C25.2981 19.5028 25.3017 19.466 25.2955 19.4303C25.2894 19.3945 25.2734 19.3612 25.2496 19.3338C25.2257 19.3065 25.1949 19.2863 25.1603 19.2753C25.1257 19.2642 25.0888 19.2629 25.0534 19.2714C22.3403 19.9202 19.488 19.6415 16.9518 18.4796ZM25.8235 14.6259C25.4726 13.8145 25.4726 13.8145 16.0632 10.4159C11.327 8.70467 10.447 7.05323 13.8761 6.30575C14.0431 6.26988 14.2115 6.23796 14.3813 6.21003C15.687 5.99679 17.0221 6.04638 18.3083 6.35587C19.5945 6.66537 20.8061 7.22855 21.8717 8.01241C22.9374 8.79627 23.836 9.785 24.5145 10.9206C25.1931 12.0563 25.6382 13.316 25.8235 14.6259Z" fill="#F9D85E"/>
<path d="M16.79 6.11172L16.6758 6.10156C16.831 6.11247 16.9838 6.13182 17.1371 6.14942C17.1097 6.1462 17.0835 6.14223 17.0558 6.139C16.9689 6.12835 16.8811 6.12015 16.79 6.11172Z" fill="#EF7730"/>
<path d="M16 31.75C24.6985 31.75 31.75 24.6985 31.75 16C31.75 7.30152 24.6985 0.25 16 0.25C7.30152 0.25 0.25 7.30152 0.25 16C0.25 24.6985 7.30152 31.75 16 31.75Z" stroke="white" stroke-width="0.5"/>
</g>
<defs>
<linearGradient id="paint0_linear_613_874" x1="16" y1="0" x2="16" y2="32" gradientUnits="userSpaceOnUse">
<stop stop-color="#264286"/>
<stop offset="1" stop-color="#0B1B42"/>
</linearGradient>
<clipPath id="clip0_613_874">
<rect width="32" height="32" fill="white"/>
</clipPath>
</defs>
</svg>
