<svg id="Layer_1" data-name="Layer 1" xmlns="http://www.w3.org/2000/svg" xmlns:xlink="http://www.w3.org/1999/xlink" viewBox="0 0 257.38 336.11"><defs><style>.cls-1{fill:url(#print_gradient_2);}</style><linearGradient id="print_gradient_2" x1="329.84" y1="562.56" x2="283.16" y2="230.44" gradientUnits="userSpaceOnUse"><stop offset="0" stop-color="#31a8fa"/><stop offset="0.38" stop-color="#31a8fa"/><stop offset="0.48" stop-color="#5b85fb"/><stop offset="0.7" stop-color="#c62dfd"/><stop offset="0.74" stop-color="#d81efd"/><stop offset="0.82" stop-color="#ae1cdb"/><stop offset="1" stop-color="#511790"/></linearGradient></defs><path class="cls-1" d="M435.19,435.87a128.69,128.69,0,0,1-257.38,0,10.58,10.58,0,0,1,10.59-10.59h39.37a10.58,10.58,0,0,1,10.58,10.59h0a67.94,67.94,0,0,0,20,48.19l.48.52.07.08.07.07a68,68,0,0,0,47.56,19.34h2.41V504a67.93,67.93,0,0,0,45.79-19.85h0l.06-.06h0a68.17,68.17,0,0,0-5.49-101.29,36.94,36.94,0,0,1-14-27.26,28.84,28.84,0,0,0-49.12-18.76l-.06,0a28.94,28.94,0,0,0,0,40.73l1.67,1.67.11-.1a28.69,28.69,0,0,0,18.61,6.84h0a49.81,49.81,0,0,1,35.27,14.63l0,0,0,0v0l0,0a49.81,49.81,0,0,1-.06,70.48l0,0,0,0,0,.05h0a49.91,49.91,0,0,1-85-32.58,15.53,15.53,0,0,0-6.14-12A89.2,89.2,0,0,1,243.35,294v0l0,0,0,0a89.16,89.16,0,0,1,126.16,0h0l0,0,0,0a89.17,89.17,0,0,1,25.24,50.41l.29,2.07h18.32l-.33-2.7a107.53,107.53,0,1,0-212.15,34.37c1.39,7,1.05,6.55,3.76,13.06h0a10.56,10.56,0,0,1-19.51,8.1h0c-3.28-7.88-3.36-8.79-5-17a128.69,128.69,0,1,1,254.88-25.22,10.58,10.58,0,0,1-10.59,10.59H385.24a10.58,10.58,0,0,1-10.59-10.59,67.92,67.92,0,0,0-19.91-48.19l-.05-.05a68.27,68.27,0,0,0-96.36,0h0l-.05.05,0,0a68.15,68.15,0,0,0,5.48,101.31,37.07,37.07,0,0,1,14,27.26,28.84,28.84,0,0,0,49.12,18.76l0,0a28.91,28.91,0,0,0,0-40.71l0-.05a28.66,28.66,0,0,0-20.35-8.38h0a49.78,49.78,0,0,1-34.95-14.29l-.35-.37,0,0a49.82,49.82,0,0,1-.05-70.48l.05-.06h0l0,0h0a49.91,49.91,0,0,1,85.11,32.52h0a16.72,16.72,0,0,0,1.72,6.71,16.36,16.36,0,0,0,4.42,5.26,89.2,89.2,0,0,1,7.21,132.62l0,0,0,.05h0a89.09,89.09,0,0,1-61.12,26.12h-2a89,89,0,0,1-62.41-25.44l-.05-.05-.06,0c-.22-.19-.43-.39-.62-.58a89,89,0,0,1-25.28-50.5l-.29-2.07H199.46l.33,2.7a107.53,107.53,0,1,0,212.15-34.34c-1.39-7-1-6.54-3.74-13h0a10.55,10.55,0,0,1,5.7-13.8,10.33,10.33,0,0,1,4-.81,10.56,10.56,0,0,1,9.76,6.51h0c3.28,7.87,3.35,8.78,5,17A129.08,129.08,0,0,1,435.19,435.87ZM306.47,446.51a10.62,10.62,0,1,0-7.5-3.11A10.55,10.55,0,0,0,306.47,446.51Zm0-100a10.62,10.62,0,1,0,7.5,3.11A10.51,10.51,0,0,0,306.47,346.49Z" transform="translate(-177.81 -228.44)"/></svg>