<svg width="32" height="32" viewBox="0 0 32 32" fill="none" xmlns="http://www.w3.org/2000/svg">
<g clip-path="url(#clip0_613_883)">
<path d="M16 32C24.8365 32 32 24.8365 32 16C32 7.16344 24.8365 0 16 0C7.16344 0 0 7.16344 0 16C0 24.8365 7.16344 32 16 32Z" fill="url(#paint0_linear_613_883)"/>
<path d="M7.00781 9.30662V14.9671L7.00962 14.7426C7.04706 19.5795 11.0589 23.7145 16.0045 23.7145C20.9503 23.7145 24.9621 19.8041 24.9996 14.9671L25.0013 14.7426V9.30662C25.0013 9.30662 23.7537 8.68933 22.3345 10.1612C21.4233 11.1063 20.6946 14.501 18.7434 14.5313C16.1381 14.5721 14.3651 11.0614 12.2451 9.74979C10.0307 8.37939 7.00781 9.30662 7.00781 9.30662Z" fill="url(#paint1_linear_613_883)"/>
<path d="M7.00781 9.30662V14.9671L7.00962 14.7426C7.04706 19.5795 11.0589 23.7145 16.0045 23.7145C20.9503 23.7145 24.9621 19.8041 24.9996 14.9671L25.0013 14.7426V9.30662C25.0013 9.30662 23.7537 8.68933 22.3345 10.1612C21.4233 11.1063 20.6946 14.501 18.7434 14.5313C16.1381 14.5721 14.3651 11.0614 12.2451 9.74979C10.0307 8.37939 7.00781 9.30662 7.00781 9.30662Z" fill="url(#paint2_linear_613_883)"/>
<path d="M24.9982 15.5246L25 15.2844V11.593C24.492 11.6788 23.8667 11.9303 23.2064 12.548C22.1845 13.5045 21.3672 16.9397 19.1792 16.9707C16.257 17.0118 14.2688 13.4592 11.8913 12.1315C10.2404 11.2101 8.19016 11.3156 7 11.4897V15.5246L7.00179 15.2844C7.03923 20.4587 11.0525 24.8817 16 24.8817C20.9475 24.8817 24.9608 20.6989 24.9982 15.5246Z" fill="url(#paint3_linear_613_883)"/>
<path d="M24.9982 15.5246L25 15.2844V11.593C24.492 11.6788 23.8667 11.9303 23.2064 12.548C22.1845 13.5045 21.3672 16.9397 19.1792 16.9707C16.257 17.0118 14.2688 13.4592 11.8913 12.1315C10.2404 11.2101 8.19016 11.3156 7 11.4897V15.5246L7.00179 15.2844C7.03923 20.4587 11.0525 24.8817 16 24.8817C20.9475 24.8817 24.9608 20.6989 24.9982 15.5246Z" fill="url(#paint4_linear_613_883)"/>
<path d="M24.9982 15.2946L25 15.0544V14.4027C24.6109 14.5532 24.1872 14.7941 23.7494 15.1748C22.6493 16.1313 21.7698 19.5665 19.4142 19.5975C16.2685 19.6386 14.1284 16.086 11.5688 14.7583C10.0823 13.9877 8.29493 13.9355 7 14.041V15.2946L7.00181 15.0544C7.03923 20.2285 11.0525 24.6516 16 24.6516C20.9475 24.6516 24.9608 20.4689 24.9982 15.2946Z" fill="url(#paint5_linear_613_883)"/>
<path d="M16 31.75C24.6985 31.75 31.75 24.6985 31.75 16C31.75 7.30152 24.6985 0.25 16 0.25C7.30152 0.25 0.25 7.30152 0.25 16C0.25 24.6985 7.30152 31.75 16 31.75Z" stroke="white" stroke-width="0.5"/>
</g>
<defs>
<linearGradient id="paint0_linear_613_883" x1="16" y1="0" x2="16" y2="32" gradientUnits="userSpaceOnUse">
<stop stop-color="#252864"/>
<stop offset="1" stop-color="#16183C"/>
</linearGradient>
<linearGradient id="paint1_linear_613_883" x1="5.61591" y1="20.2385" x2="28.7457" y2="8.31145" gradientUnits="userSpaceOnUse">
<stop stop-color="#FDA9FF"/>
<stop offset="0.0276" stop-color="#F9AAFF"/>
<stop offset="0.2435" stop-color="#DCB3FF"/>
<stop offset="0.3671" stop-color="#D1B6FF"/>
<stop offset="0.8897" stop-color="#4DFFE5"/>
</linearGradient>
<linearGradient id="paint2_linear_613_883" x1="14.9982" y1="16.4176" x2="17.43" y2="7.62453" gradientUnits="userSpaceOnUse">
<stop stop-color="#16183C" stop-opacity="0.3"/>
<stop offset="0.8669" stop-color="#16183C" stop-opacity="0"/>
</linearGradient>
<linearGradient id="paint3_linear_613_883" x1="6.37714" y1="20.9003" x2="27.0941" y2="11.8588" gradientUnits="userSpaceOnUse">
<stop stop-color="#FDA9FF"/>
<stop offset="0.0276" stop-color="#F9AAFF"/>
<stop offset="0.2435" stop-color="#DCB3FF"/>
<stop offset="0.3671" stop-color="#D1B6FF"/>
<stop offset="0.8897" stop-color="#4DFFE5"/>
</linearGradient>
<linearGradient id="paint4_linear_613_883" x1="13.9372" y1="18.8901" x2="17.1683" y2="12.3401" gradientUnits="userSpaceOnUse">
<stop stop-color="#16183C" stop-opacity="0.3"/>
<stop offset="0.8669" stop-color="#16183C" stop-opacity="0"/>
</linearGradient>
<linearGradient id="paint5_linear_613_883" x1="5.4929" y1="22.001" x2="24.0758" y2="14.966" gradientUnits="userSpaceOnUse">
<stop stop-color="#FDA9FF"/>
<stop offset="0.0276" stop-color="#F9AAFF"/>
<stop offset="0.2435" stop-color="#DCB3FF"/>
<stop offset="0.3671" stop-color="#D1B6FF"/>
<stop offset="0.8897" stop-color="#4DFFE5"/>
</linearGradient>
<clipPath id="clip0_613_883">
<rect width="32" height="32" fill="white"/>
</clipPath>
</defs>
</svg>
