<svg width="32" height="32" viewBox="0 0 32 32" fill="none" xmlns="http://www.w3.org/2000/svg">
<g clip-path="url(#clip0_3874_16185)">
<mask id="mask0_3874_16185" style="mask-type:luminance" maskUnits="userSpaceOnUse" x="0" y="0" width="32" height="32">
<path d="M32 0H0V32H32V0Z" fill="white"/>
</mask>
<g mask="url(#mask0_3874_16185)">
<path d="M16 32C24.8365 32 32 24.8365 32 16C32 7.16345 24.8365 0 16 0C7.16345 0 0 7.16345 0 16C0 24.8365 7.16345 32 16 32Z" fill="url(#paint0_linear_3874_16185)"/>
<path d="M16 31.75C24.6985 31.75 31.75 24.6985 31.75 16C31.75 7.30152 24.6985 0.25 16 0.25C7.30152 0.25 0.25 7.30152 0.25 16C0.25 24.6985 7.30152 31.75 16 31.75Z" stroke="white" stroke-width="0.5"/>
<path fill-rule="evenodd" clip-rule="evenodd" d="M16 5C19.0374 5 21.7876 6.23134 23.7781 8.22196C25.7452 10.1891 26.9706 12.8978 26.9993 15.8924V15.8986L26.9997 15.9394L27 16L26.9993 16.1014V16.108C26.9706 19.1026 25.7452 21.8109 23.7781 23.778C21.7876 25.7687 19.0378 27 16 27C12.9626 27 10.2124 25.7687 8.22186 23.778C6.2313 21.7874 5 19.0372 5 15.9997C5 12.9622 6.2313 10.2122 8.22186 8.22161C10.2124 6.23099 12.9626 5 16 5ZM22.3222 11.3221C22.7393 11.3221 23.1438 11.3771 23.529 11.4792C22.3946 10.3784 20.8477 9.70039 19.1419 9.70039C17.4023 9.70039 15.8273 10.4053 14.6877 11.5453C13.5478 12.6853 12.8429 14.2603 12.8429 16C12.8429 17.7397 13.5478 19.3147 14.6877 20.4543C15.8277 21.5943 17.4026 22.2993 19.1419 22.2993C20.8477 22.2993 22.3949 21.6213 23.529 20.5204C23.1442 20.6229 22.7396 20.6776 22.3226 20.6776C21.0311 20.6776 19.8614 20.1539 19.0153 19.3074C18.1688 18.4609 17.6452 17.2912 17.6452 15.9997C17.6452 14.7081 18.1688 13.5384 19.0153 12.6919C19.861 11.8461 21.0304 11.3221 22.3222 11.3221ZM24.5274 13.7948C23.9629 13.2307 23.1833 12.8815 22.3219 12.8815C21.4605 12.8815 20.6809 13.2307 20.1164 13.7948C19.552 14.3593 19.2032 15.139 19.2032 16.0003C19.2032 16.8617 19.5523 17.6414 20.1164 18.2059C20.6809 18.77 21.4605 19.1192 22.3219 19.1192C23.1833 19.1192 23.9629 18.77 24.5274 18.2059C25.0915 17.6414 25.4406 16.8617 25.4406 16.0003L25.4403 15.9602C25.4299 15.1144 25.0828 14.3503 24.5274 13.7948ZM19.1416 8.14132C20.1213 8.14132 21.0588 8.32059 21.9239 8.64832C20.304 7.34154 18.2432 6.55907 16 6.55907C13.3931 6.55907 11.0326 7.61598 9.32407 9.32421C7.6159 11.0324 6.55902 13.393 6.55902 16C6.55902 18.6073 7.61555 20.9676 9.32407 22.6761C11.0326 24.3844 13.3928 25.4413 16 25.4413C18.2435 25.4413 20.304 24.6588 21.9239 23.3517C21.0588 23.6794 20.1213 23.8587 19.1416 23.8587C16.9717 23.8587 15.0068 22.979 13.5852 21.5569C12.1632 20.1349 11.2835 18.1702 11.2835 16.0003C11.2835 13.8305 12.1632 11.8654 13.5852 10.4434C15.0068 9.02105 16.9717 8.14132 19.1416 8.14132Z" fill="white"/>
</g>
</g>
<defs>
<linearGradient id="paint0_linear_3874_16185" x1="-0.250682" y1="31.4225" x2="31.2265" y2="1.54946" gradientUnits="userSpaceOnUse">
<stop stop-color="#04BF77"/>
<stop offset="0.612453" stop-color="#04D082"/>
<stop offset="1" stop-color="#04D484"/>
</linearGradient>
<clipPath id="clip0_3874_16185">
<rect width="32" height="32" fill="white"/>
</clipPath>
</defs>
</svg>
