<svg width="32" height="32" viewBox="0 0 32 32" fill="none" xmlns="http://www.w3.org/2000/svg">
<path d="M31.75 16C31.75 24.6985 24.6985 31.75 16 31.75C7.30151 31.75 0.25 24.6985 0.25 16C0.25 7.30151 7.30151 0.25 16 0.25C24.6985 0.25 31.75 7.30151 31.75 16Z" fill="url(#paint0_linear_3554_65776)" stroke="white" stroke-width="0.5"/>
<path d="M16.9667 14.7114L22.0457 9.7297L20.1192 7.83984L16.0034 11.8766L11.8877 7.83984L9.96028 9.7297L15.0397 14.7114C15.3061 14.9725 15.6547 15.1031 16.0034 15.1031C16.3521 15.1031 16.7007 14.9725 16.9667 14.7114ZM24.3197 20.0329L20.2039 15.9966L24.3193 11.9598L22.3927 10.07L17.3137 15.0517C17.1872 15.1754 17.0869 15.3226 17.0184 15.4848C16.9499 15.6469 16.9146 15.8209 16.9146 15.9966C16.9146 16.1723 16.9499 16.3462 17.0184 16.5084C17.0869 16.6706 17.1872 16.8178 17.3137 16.9415L22.3927 21.9232L24.3197 20.0329ZM15.9964 20.1231L20.1117 24.1598L22.0391 22.27L16.9597 17.2883C16.7034 17.0376 16.3571 16.8969 15.9962 16.8969C15.6352 16.8969 15.2889 17.0376 15.0327 17.2883L9.95367 22.27L11.8802 24.1598L15.9964 20.1231ZM14.6861 16.948C14.8123 16.8242 14.9124 16.677 14.9808 16.5149C15.0491 16.3527 15.0843 16.1789 15.0843 16.0033C15.0843 15.8277 15.0491 15.6539 14.9808 15.4918C14.9124 15.3296 14.8123 15.1824 14.6861 15.0586L9.60707 10.0769L7.67969 11.9668L11.7958 16.0031L7.6801 20.0399L9.60665 21.9297L14.6861 16.948Z" fill="white"/>
<defs>
<linearGradient id="paint0_linear_3554_65776" x1="16" y1="0" x2="16" y2="32" gradientUnits="userSpaceOnUse">
<stop stop-color="#393939"/>
<stop offset="1" stop-color="#060606"/>
</linearGradient>
</defs>
</svg>
