<svg width="32" height="32" viewBox="0 0 32 32" fill="none" xmlns="http://www.w3.org/2000/svg">
<g clip-path="url(#clip0_3348_62579)">
<path d="M31.75 16C31.75 24.6985 24.6985 31.75 16 31.75C7.30151 31.75 0.25 24.6985 0.25 16C0.25 7.30151 7.30151 0.25 16 0.25C24.6985 0.25 31.75 7.30151 31.75 16Z" fill="url(#paint0_linear_3348_62579)" stroke="white" stroke-width="0.5"/>
<path d="M16 5.70117L7 10.9239V21.3229L16 26.5456L24.9999 21.3229V10.9239L16 5.70117ZM22.3419 19.784L16 23.4213L9.65802 19.784V12.4628L16 8.77888L22.3419 12.4628V19.784Z" fill="white"/>
<g style="mix-blend-mode:multiply">
<path style="mix-blend-mode:multiply" d="M16 8.77888V5.70117L7 10.9239V21.3229L16 26.5456V23.4213L9.65802 19.784V12.4628L16 8.77888Z" fill="white"/>
</g>
<g style="mix-blend-mode:multiply">
<path style="mix-blend-mode:multiply" d="M16 23.4213V26.499L25 21.2762V10.9239L16 5.70117V8.77888L22.3419 12.4162V19.7374L16 23.4213Z" fill="white"/>
</g>
<path d="M20.2431 18.5246L15.9996 20.9494L11.8027 18.5246V13.6749L15.9996 11.25L20.2431 13.6749V18.5246Z" fill="white"/>
</g>
<defs>
<linearGradient id="paint0_linear_3348_62579" x1="16" y1="0" x2="16" y2="32" gradientUnits="userSpaceOnUse">
<stop stop-color="#003A9B"/>
<stop offset="1" stop-color="#032D74"/>
</linearGradient>
<clipPath id="clip0_3348_62579">
<rect width="32" height="32" fill="white"/>
</clipPath>
</defs>
</svg>
