<svg width="32" height="32" viewBox="0 0 32 32" fill="none" xmlns="http://www.w3.org/2000/svg">
<g clip-path="url(#clip0_371_5789)">
<path d="M16 32C24.8366 32 32 24.8366 32 16C32 7.16344 24.8366 0 16 0C7.16344 0 0 7.16344 0 16C0 24.8366 7.16344 32 16 32Z" fill="url(#paint0_linear_371_5789)"/>
<path d="M16 31.75C24.6985 31.75 31.75 24.6985 31.75 16C31.75 7.30152 24.6985 0.25 16 0.25C7.30152 0.25 0.25 7.30152 0.25 16C0.25 24.6985 7.30152 31.75 16 31.75Z" stroke="white" stroke-width="0.5"/>
<path d="M12.0566 6.19922L22.5026 24.2492L25.9806 18.2322L19.0186 6.19922H12.0566Z" fill="white"/>
<path d="M12.0566 18.5762L15.6696 24.2492H22.5086L19.2786 18.5762H12.0566Z" fill="white" fill-opacity="0.83"/>
<path d="M8.96352 11.873L5.35352 18.062L8.96652 24.25L16.1835 11.873H8.96352Z" fill="white"/>
</g>
<defs>
<linearGradient id="paint0_linear_371_5789" x1="16" y1="0" x2="16" y2="32" gradientUnits="userSpaceOnUse">
<stop stop-color="#ED3324"/>
<stop offset="1" stop-color="#AD1F23"/>
</linearGradient>
<clipPath id="clip0_371_5789">
<rect width="32" height="32" fill="white"/>
</clipPath>
</defs>
</svg>
