<svg width="64" height="64" viewBox="0 0 66 66" fill="none" xmlns="http://www.w3.org/2000/svg" style="" preserveAspectRatio="xMidYMid meet">
<g fill="#50698CFF" stroke="#50698CFF">
<path d="M 9.244 10.980 C -2.334 23.045 -1.896 44.102 10.182 55.990 C 17.125 62.824 23.898 65.285 34.500 64.826 C 52.502 64.046 64.046 52.502 64.826 34.500 C 65.265 24.373 62.809 17.211 56.734 10.899 L 52.500 6.500 52.000 21.500 C 51.428 38.671 50.307 41.846 43.444 45.733 C 37.932 48.855 28.068 48.855 22.556 45.733 C 15.696 41.847 14.572 38.668 14.000 21.523 L 13.500 6.546 9.244 10.980 "/></g>
<g fill="#50698CFF" stroke="#50698CFF">
<path d="M 24.396 2.412 C 24.080 3.233 23.975 11.167 24.161 20.042 C 24.488 35.599 24.585 36.248 26.861 38.090 C 29.946 40.586 36.053 40.587 39.139 38.090 C 41.456 36.216 41.500 35.857 41.500 18.840 L 41.500 1.500 33.234 1.209 C 26.637 0.977 24.853 1.220 24.396 2.412 "/></g>
</svg>
