<svg width="64" height="64" viewBox="0 0 64 64" fill="none" xmlns="http://www.w3.org/2000/svg">
<circle cx="32" cy="32" r="32" fill="#4C5460"/>
<path d="M40.9585 27.7759C40.2994 27.37 39.4425 27.37 38.7175 27.7759L33.5762 30.8879L30.0828 32.9175L24.9416 36.0296C24.2825 36.4355 23.4256 36.4355 22.7006 36.0296L18.6139 33.5941C17.9548 33.1882 17.4934 32.444 17.4934 31.6321V26.8287C17.4934 26.0169 17.8889 25.2727 18.6139 24.8668L22.6346 22.4989C23.2938 22.093 24.1506 22.093 24.8757 22.4989L28.8964 24.8668C29.5555 25.2727 30.0169 26.0169 30.0169 26.8287V29.9408L33.5103 27.8435V24.7315C33.5103 23.9197 33.1149 23.1755 32.3898 22.7696L24.9416 18.3044C24.2825 17.8985 23.4256 17.8985 22.7006 18.3044L15.1205 22.7696C14.3955 23.1755 14 23.9197 14 24.7315V33.7294C14 34.5412 14.3955 35.2854 15.1205 35.6913L22.7006 40.1564C23.3597 40.5624 24.2166 40.5624 24.9416 40.1564L30.0828 37.112L33.5762 35.0148L38.7175 31.9704C39.3766 31.5645 40.2335 31.5645 40.9585 31.9704L44.9792 34.3383C45.6384 34.7442 46.0998 35.4884 46.0998 36.3002V41.1036C46.0998 41.9154 45.7043 42.6596 44.9792 43.0655L40.9585 45.5011C40.2994 45.907 39.4425 45.907 38.7175 45.5011L34.6968 43.1332C34.0376 42.7273 33.5762 41.9831 33.5762 41.1712V38.0592L30.0828 40.1564V43.2685C30.0828 44.0803 30.4783 44.8245 31.2034 45.2304L38.7834 49.6956C39.4425 50.1015 40.2994 50.1015 41.0244 49.6956L48.6045 45.2304C49.2636 44.8245 49.725 44.0803 49.725 43.2685V34.2706C49.725 33.4588 49.3295 32.7146 48.6045 32.3087L40.9585 27.7759Z" fill="white"/>
</svg>
