<svg width="32" height="32" viewBox="0 0 32 32" fill="none" xmlns="http://www.w3.org/2000/svg">
<g clip-path="url(#clip0_613_543)">
<path d="M16 32C24.8366 32 32 24.8366 32 16C32 7.16344 24.8366 0 16 0C7.16344 0 0 7.16344 0 16C0 24.8366 7.16344 32 16 32Z" fill="url(#paint0_linear_613_543)"/>
<path d="M16 31.75C24.6985 31.75 31.75 24.6985 31.75 16C31.75 7.30152 24.6985 0.25 16 0.25C7.30152 0.25 0.25 7.30152 0.25 16C0.25 24.6985 7.30152 31.75 16 31.75Z" stroke="white" stroke-width="0.5"/>
<path fill-rule="evenodd" clip-rule="evenodd" d="M16.003 11.89L12.052 8H8V12.052L11.892 16.003L8 19.954V24H12.057L16.003 20.113L19.95 24H24V19.948L20.113 16.002L24 12.055V8H19.953L16.002 11.892L16.003 11.89Z" fill="#06B7DD"/>
</g>
<defs>
<linearGradient id="paint0_linear_613_543" x1="16" y1="0" x2="16" y2="32" gradientUnits="userSpaceOnUse">
<stop stop-color="#354E91"/>
<stop offset="1" stop-color="#212F56"/>
</linearGradient>
<clipPath id="clip0_613_543">
<rect width="32" height="32" fill="white"/>
</clipPath>
</defs>
</svg>
