<svg width="64" height="64" viewBox="0 0 64 64" fill="none" xmlns="http://www.w3.org/2000/svg">
<circle cx="32" cy="32" r="32" fill="url(#paint0_linear_1611_21858)"/>
<path fill-rule="evenodd" clip-rule="evenodd" d="M32.0001 53.341C43.7858 53.341 53.34 43.7868 53.34 32.0011C53.34 20.2154 43.7858 10.6612 32.0001 10.6612C20.2144 10.6612 10.6602 20.2154 10.6602 32.0011C10.6602 43.7868 20.2144 53.341 32.0001 53.341ZM32.0001 54.001C44.1503 54.001 54 44.1513 54 32.0011C54 19.8509 44.1503 10.0012 32.0001 10.0012C19.8499 10.0012 10.0002 19.8509 10.0002 32.0011C10.0002 44.1513 19.8499 54.001 32.0001 54.001Z" fill="white"/>
<path fill-rule="evenodd" clip-rule="evenodd" d="M32.2189 10.2535V10.1052L31.9363 10.2286L25.2682 11.2861L19.1959 14.3784L14.3775 19.1968L11.3856 25.0716L11.2425 25.0251L11.2735 25.3423L10.2178 31.9999L11.2851 38.7307L14.3775 44.803L19.0382 49.4636L18.9514 49.5832L19.2503 49.649L25.2681 52.7165L31.999 53.7839L38.7299 52.7165L44.6004 49.7241L44.6879 49.8446L44.8431 49.5803L49.6204 44.803L52.7155 38.7307L53.7829 31.9999L52.7508 25.4917L52.8911 25.4461L52.6905 25.2199L49.6204 19.1967L44.8021 14.3784L38.7298 11.2861L32.2189 10.2535ZM51.5295 23.9111L49.4063 19.7457L48.6908 20.7109L51.5295 23.9111ZM46.1964 23.3369L48.0839 20.7908L43.1992 17.9751L46.1964 23.3369ZM39.9827 21.9231L45.8128 23.8544L42.6499 28.1209L39.9827 21.9231ZM39.5366 21.9996L42.2311 28.2608L35.9123 26.9878L39.5366 21.9996ZM45.7999 15.9985L48.4261 20.3291L49.1517 19.3503L45.7999 15.9985ZM47.7759 20.1054L44.6536 14.9568L42.9388 17.317L47.7759 20.1054ZM45.702 23.3542L42.5932 17.7927L39.9394 21.4452L45.702 23.3542ZM35.8604 27.4262L37.8116 33.4348L42.1724 28.6978L35.8604 27.4262ZM43.9747 35.6592L42.4772 29.0164L38.1146 33.7553L43.9747 35.6592ZM42.8984 28.8837L47.9609 30.4746L44.3814 35.4628L42.8984 28.8837ZM48.5777 30.6684L49.306 36.7654L51.6011 31.6185L48.5777 30.6684ZM52.15 31.791L52.5699 36.8395L53.3126 32.1564L52.15 31.791ZM52.254 38.3491L51.7552 32.3532L49.483 37.4488L52.254 38.3491ZM48.9227 37.2668L44.6294 35.8719L48.1672 30.9418L48.9227 37.2668ZM42.9958 28.4531L47.9782 30.0188L46.093 24.2152L42.9818 28.412L43.0255 28.4208L42.9958 28.4531ZM53.2879 31.6874L52.1395 31.3265L52.5555 27.0696L53.2879 31.6874ZM50.4343 26.2451L52.2518 25.654L51.7869 30.4102L50.4343 26.2451ZM51.5631 31.1454L50.1278 26.7259L48.6165 30.2194L51.5631 31.1454ZM46.4925 23.6763L49.7676 25.6174L48.3306 21.1969L46.4925 23.6763ZM45.7295 48.0716L49.0309 44.7703L47.8936 44.3884L45.7295 48.0716ZM44.6233 42.8262L47.6304 43.8359L48.799 38.3182L44.6233 42.8262ZM44.0515 36.4783L44.0131 42.6214L38.9821 40.9322L44.0515 36.4783ZM43.8403 36.0782L38.7197 40.577L37.9763 34.1729L43.8403 36.0782ZM48.7858 37.685L44.4927 36.2901L44.4547 42.3607L48.7858 37.685ZM48.1871 43.3311L49.3445 37.8665L52.1209 38.7685L48.1871 43.3311ZM49.3288 44.4061L51.4801 40.1855L48.1751 44.0188L49.3288 44.4061ZM37.5434 34.2599L32.4327 37.9728L38.286 40.6567L37.5434 34.2599ZM32.2189 44.5218V38.3588L38.0759 41.0444L32.2189 44.5218ZM38.3333 41.4033L38.3847 46.7114L32.5325 44.8473L38.3333 41.4033ZM38.391 47.3551L32.8148 49.9335L38.4217 50.5269L38.391 47.3551ZM38.4273 51.1015L33.7648 53.0584L38.4391 52.3171L38.4273 51.1015ZM32.2189 53.23L37.7698 50.9003L32.2189 50.3128V53.23ZM32.2189 49.7242L38.0006 47.0508L32.2189 45.2092V49.7242ZM38.7729 41.3641L38.8235 46.5831L43.7555 42.999L38.808 41.3379L38.8132 41.3825L38.7729 41.3641ZM38.8775 52.1474L38.8658 50.9477L43.0325 50.0295L38.8775 52.1474ZM43.1696 47.7547L44.293 49.3011L39.6244 50.33L43.1696 47.7547ZM38.86 50.3415L42.6179 47.6117L38.83 47.2547L38.86 50.3415ZM44.3922 43.2128L43.5601 46.9269L47.3199 44.1958L44.3922 43.2128ZM20.9571 50.0252L25.1175 52.1458L25.1291 50.9446L20.9571 50.0252ZM31.1829 49.9306L25.5732 50.5244L25.604 47.352L31.1829 49.9306ZM31.4652 44.8469L25.6102 46.7088L25.6617 41.4004L31.4652 44.8469ZM31.7789 38.3585L25.9196 41.0418L31.7789 44.5215V38.3585ZM25.9951 47.0481L31.7789 45.2088V49.7214L25.9951 47.0481ZM26.2282 50.8975L31.7789 50.3099V53.2271L26.2282 50.8975ZM25.5558 52.3166L30.2441 53.0601L25.5676 51.0974L25.5558 52.3166ZM31.565 37.9726L25.7095 40.6541L26.4544 34.2599L31.565 37.9726ZM25.0107 40.9301L19.946 36.4783L19.982 42.618L25.0107 40.9301ZM25.2755 40.577L26.0216 34.1732L20.1578 36.0786L25.2755 40.577ZM19.5049 36.2908L19.5405 42.361L15.2104 37.6862L19.5049 36.2908ZM14.6509 37.868L15.8078 43.3283L11.8771 38.7693L14.6509 37.868ZM12.5235 40.1928L15.8191 44.0153L14.6671 44.402L12.5235 40.1928ZM16.3643 43.8323L15.196 38.3182L19.3693 42.8237L16.3643 43.8323ZM25.1872 41.335L20.2365 42.9967L25.1714 46.5804L25.222 41.3612L25.182 41.3796L25.1872 41.335ZM14.9634 44.7667L16.0988 44.3856L18.2634 48.0666L14.9634 44.7667ZM20.467 47.4933L19.3458 49.0393L16.9227 44.9187L20.467 47.4933ZM16.6724 44.193L20.4324 46.9243L19.602 43.2097L16.6724 44.193ZM25.1649 47.2519L21.375 47.6088L25.135 50.3385L25.1649 47.2519ZM11.4434 27.0804L10.7135 31.6833L11.8581 31.3236L11.4434 27.0804ZM11.4274 36.8185L11.8477 31.7881L10.6875 32.1527L11.4274 36.8185ZM14.6942 36.7652L12.3966 31.6156L15.4206 30.6653L14.6942 36.7652ZM19.6163 35.4628L16.0351 30.4722L21.1001 28.8805L19.6163 35.4628ZM20.023 35.6598L21.521 29.0143L25.8834 33.7555L20.023 35.6598ZM15.8308 30.9421L19.3687 35.8724L15.0775 37.2668L15.8308 30.9421ZM12.2423 32.3496L14.5174 37.4488L11.7408 38.351L12.2423 32.3496ZM26.1863 33.4349L28.1375 27.426L21.8253 28.6952L26.1863 33.4349ZM24.0567 21.4429L18.2958 23.3537L21.4036 17.7914L24.0567 21.4429ZM24.4603 21.9984L21.7637 28.2588L28.0853 26.9877L24.4603 21.9984ZM21.3463 28.1157L24.0148 21.9204L18.1866 23.8535L21.3463 28.1157ZM17.8023 23.335L15.914 20.7878L20.7988 17.9718L17.8023 23.335ZM15.5717 20.3261L18.1932 16.0034L14.8475 19.3491L15.5717 20.3261ZM19.3432 14.9555L16.222 20.1023L21.0574 17.3149L19.3432 14.9555ZM21.0161 28.4091L17.9056 24.2132L16.0207 30.0155L21.0019 28.4501L20.9722 28.4179L21.0161 28.4091ZM14.5926 19.7441L15.3071 20.7079L12.4768 23.8986L14.5926 19.7441ZM13.6992 25.8241L11.8814 25.2329L15.0543 21.656L13.6992 25.8241ZM15.6672 21.1937L14.2298 25.6154L17.507 23.6755L15.6672 21.1937ZM15.3801 30.2168L13.8699 26.7235L12.4349 31.1423L15.3801 30.2168ZM30.3338 10.9282L25.7221 11.6596L26.4185 12.6377L30.3338 10.9282ZM21.0508 13.9275L25.9734 12.7712L25.2677 11.7801L21.0508 13.9275ZM22.1197 17.0149L26.3071 13.2398L28.1452 15.8213L22.1197 17.0149ZM24.8809 21.2931L28.5192 16.3465L31.5979 20.6701L24.8809 21.2931ZM24.8171 21.7409L31.6013 21.1117L28.4402 26.7275L24.8171 21.7409ZM28.0097 16.2967L24.4137 21.1857L21.7609 17.5345L28.0097 16.2967ZM25.561 13.3201L21.4147 17.0581L19.6993 14.697L25.561 13.3201ZM28.8388 26.9162H35.1587L31.9988 21.3026L28.8388 26.9162ZM44.2985 14.697L38.4391 13.32L42.5831 17.058L44.2985 14.697ZM42.2369 17.5345L35.9883 16.2967L39.5853 21.1839L42.2369 17.5345ZM39.1808 21.7407L32.3962 21.1117L35.5575 26.7277L39.1808 21.7407ZM32.3997 20.6701L39.1194 21.2931L35.4785 16.3463L32.3997 20.6701ZM35.8524 15.8212L37.6916 13.2383L41.8784 17.015L35.8524 15.8212ZM38.0245 12.7707L38.73 11.7799L42.9467 13.9273L38.0245 12.7707ZM32.0205 20.4442L35.0491 16.1908H28.9485L31.9771 20.4441L31.9988 20.4056L32.0205 20.4442ZM38.2756 11.6595L37.5798 12.6367L33.665 10.9284L38.2756 11.6595ZM32.2189 12.6901V10.7774L36.6019 12.6901H32.2189ZM37.2285 13.1301H32.5817L35.4378 15.6448L37.2285 13.1301ZM28.5598 15.6449L31.4161 13.1301H26.7691L28.5598 15.6449ZM29.1053 15.7508L31.9989 13.2032L34.8924 15.7508H29.1053ZM27.3981 12.6901H31.7789V10.7774L27.3981 12.6901ZM26.6228 33.5152L28.5395 27.6127L31.6428 31.884L26.6228 33.5152ZM31.7789 37.5841L26.7555 33.9347L31.7789 32.3024V37.5841ZM37.2426 33.9346L32.2189 37.5842V32.3024L37.2426 33.9346ZM35.4583 27.6126L37.375 33.5149L32.355 31.8839L35.4583 27.6126ZM35.1008 27.3562L31.9989 31.6255L28.897 27.3562H35.1008ZM11.7458 25.6515L13.5634 26.2426L12.2107 30.4081L11.7458 25.6515ZM17.4383 24.2274L14.1194 26.192L15.65 29.7323L17.4383 24.2274ZM19.7018 49.298L20.823 47.7518L24.3698 50.3267L19.7018 49.298ZM20.1055 43.4453L20.9465 47.2072L24.7876 46.8455L20.1055 43.4453ZM44.6489 49.0423L43.5254 47.4959L47.0705 44.9208L44.6489 49.0423ZM39.207 46.8483L43.0458 47.21L43.889 43.4459L39.207 46.8483ZM46.5596 24.2276L49.8783 26.1944L48.3478 29.7324L46.5596 24.2276ZM48.9434 21.6588L50.2983 25.8267L52.1161 25.2355L48.9434 21.6588Z" fill="white"/>
<defs>
<linearGradient id="paint0_linear_1611_21858" x1="12.2553" y1="7.14894" x2="54.8085" y2="51.4043" gradientUnits="userSpaceOnUse">
<stop stop-color="#F77378"/>
<stop offset="0.286458" stop-color="#DF5A5F"/>
<stop offset="0.828125" stop-color="#8B000A"/>
</linearGradient>
</defs>
</svg>
