<svg width="20" height="20" viewBox="0 0 20 20" fill="none" xmlns="http://www.w3.org/2000/svg">
<path d="M9.99991 19.285C15.1279 19.285 19.285 15.1279 19.285 9.99991C19.285 4.87191 15.1279 0.714844 9.99991 0.714844C4.87191 0.714844 0.714844 4.87191 0.714844 9.99991C0.714844 15.1279 4.87191 19.285 9.99991 19.285Z" fill="white"/>
<path d="M9.99934 19.9986C8.68565 20.0023 7.3843 19.7452 6.17057 19.2426C4.95684 18.7399 3.85486 18.0016 2.92841 17.0702C1.99702 16.1438 1.25863 15.042 0.755973 13.8282C0.253319 12.6145 -0.00361684 11.313 4.01675e-05 9.99934C-0.00369573 8.68564 0.253206 7.38418 0.755864 6.17044C1.25852 4.9567 1.99696 3.85488 2.92841 2.92848C3.85481 1.99702 4.95677 1.25844 6.1705 0.755777C7.38424 0.253118 8.68564 -0.00369572 9.99934 4.01809e-05C11.313 -0.00369572 12.6144 0.253118 13.8282 0.755777C15.0419 1.25844 16.1439 1.99702 17.0703 2.92848C18.0017 3.85488 18.7402 4.9567 19.2428 6.17044C19.7455 7.38418 20.0024 8.68564 19.9986 9.99934C20.0023 11.313 19.7454 12.6145 19.2427 13.8282C18.7401 15.042 18.0017 16.1438 17.0703 17.0702C16.1438 18.0016 15.0418 18.7399 13.8281 19.2426C12.6144 19.7452 11.313 20.0023 9.99934 19.9986ZM9.99934 1.42851C7.72697 1.43097 5.54838 2.33478 3.94157 3.94159C2.33476 5.5484 1.43097 7.72697 1.42851 9.99934C1.43097 12.2717 2.33476 14.4503 3.94157 16.0571C5.54838 17.6639 7.72697 18.5677 9.99934 18.5702C12.2717 18.5677 14.4503 17.6639 16.0571 16.0571C17.6639 14.4503 18.5677 12.2717 18.5702 9.99934C18.5677 7.72697 17.6639 5.5484 16.0571 3.94159C14.4503 2.33478 12.2717 1.43097 9.99934 1.42851V1.42851Z" fill="#05C3CD"/>
<path opacity="0.7" d="M9.2863 19.9742V18.5408C9.52438 18.5608 9.76246 18.5708 10.0005 18.5708C10.2386 18.5708 10.4767 18.5611 10.7148 18.5415V19.9749C10.4767 19.9916 10.2386 20 10.0005 20C9.76246 20 9.52438 19.9913 9.2863 19.9742ZM15.533 16.5411C15.8967 16.2329 16.2343 15.8951 16.5422 15.5311L17.5586 16.5474C17.4034 16.7264 17.241 16.9004 17.0715 17.0695C16.902 17.2385 16.7279 17.401 16.5494 17.5567L15.533 16.5411ZM2.93102 17.0702C2.76151 16.9007 2.59891 16.7264 2.44321 16.5474L3.45957 15.5311C3.76776 15.8951 4.10555 16.2329 4.4695 16.5411L3.45314 17.5574C3.27411 17.4021 3.09959 17.2397 2.92961 17.0702H2.93102ZM18.5421 10.7135C18.5616 10.4755 18.5714 10.2374 18.5714 9.9993C18.5714 9.76122 18.5616 9.52315 18.5421 9.28507H19.9756C19.9922 9.52315 20.0006 9.76122 20.0006 9.9993C20.0006 10.2374 19.9922 10.4755 19.9756 10.7135H18.5421ZM0.026954 10.7135C0.0102885 10.4755 0.00195312 10.2374 0.00195312 9.9993C0.00195312 9.76122 0.0102885 9.52315 0.026954 9.28507H1.46042C1.44089 9.52315 1.43114 9.76122 1.43114 9.9993C1.43114 10.2374 1.44089 10.4755 1.46042 10.7135H0.026954ZM2.44321 3.45191C2.59891 3.27287 2.76151 3.09887 2.93102 2.92983C3.10053 2.7608 3.27483 2.59811 3.45386 2.44193L4.4695 3.45749C4.10562 3.76601 3.76783 4.10406 3.45957 4.46816L2.44321 3.45191ZM15.533 3.45749L16.5487 2.44193C16.7277 2.59764 16.902 2.76032 17.0715 2.92983C17.241 3.09934 17.4034 3.27335 17.5586 3.45191L16.5422 4.46816C16.2341 4.10396 15.8963 3.76589 15.5323 3.45749H15.533ZM9.2863 0.0251099C9.52438 0.00844435 9.76246 0 10.0005 0C10.2386 0 10.4767 0.00844435 10.7148 0.0251099V1.45707C10.4791 1.43755 10.241 1.42777 10.0005 1.42777C9.76008 1.42777 9.522 1.43777 9.2863 1.45777V0.0251099Z" fill="white"/>
<path fill-rule="evenodd" clip-rule="evenodd" d="M10.1158 12.3143L12.5179 9.91211L9.11908 6.51324C8.85096 6.24512 8.41625 6.24512 8.14813 6.51324L6.7169 7.94448C6.44878 8.2126 6.44878 8.64731 6.7169 8.91543L10.1158 12.3143ZM13.0801 9.91211L9.40015 6.23218C8.9768 5.80883 8.29042 5.80883 7.86707 6.23218L6.43583 7.66341C6.01248 8.08676 6.01248 8.77314 6.43583 9.19649L10.1158 12.8764L13.0801 9.91211Z" fill="#05C3CD"/>
<path fill-rule="evenodd" clip-rule="evenodd" d="M13.9945 6.31641L12.4393 4.76117L10.884 6.31641L12.4393 7.87164L13.9945 6.31641ZM14.3011 6.57192C14.4422 6.4308 14.4422 6.20201 14.3011 6.06089L12.6948 4.45455C12.5537 4.31344 12.3249 4.31344 12.1838 4.45455L10.5774 6.06089C10.4363 6.20201 10.4363 6.4308 10.5774 6.57192L12.1838 8.17826C12.3249 8.31938 12.5537 8.31938 12.6948 8.17826L14.3011 6.57192Z" fill="#05C3CD"/>
<path fill-rule="evenodd" clip-rule="evenodd" d="M10.7169 7.81273L11.4396 7.09003L11.7207 7.37109L10.998 8.0938L10.7169 7.81273Z" fill="#05C3CD"/>
<path fill-rule="evenodd" clip-rule="evenodd" d="M4.95666 12.2402L6.5119 13.7955L8.06714 12.2402L6.5119 10.685L4.95666 12.2402ZM4.65004 11.9847C4.50893 12.1258 4.50893 12.3546 4.65004 12.4957L6.25639 14.1021C6.3975 14.2432 6.6263 14.2432 6.76741 14.1021L8.37375 12.4957C8.51487 12.3546 8.51487 12.1258 8.37375 11.9847L6.76741 10.3784C6.6263 10.2373 6.3975 10.2373 6.25638 10.3784L4.65004 11.9847Z" fill="#05C3CD"/>
<path fill-rule="evenodd" clip-rule="evenodd" d="M8.29088 10.8006L7.56817 11.5233L7.28711 11.2422L8.00981 10.5195L8.29088 10.8006Z" fill="#05C3CD"/>
<path fill-rule="evenodd" clip-rule="evenodd" d="M12.0843 11.8938C11.4003 12.5779 11.3159 13.6345 11.8312 14.4104L14.601 11.6407C13.825 11.1254 12.7684 11.2098 12.0843 11.8938ZM14.8868 11.3549C13.9511 10.687 12.643 10.773 11.8033 11.6127C10.9635 12.4525 10.8776 13.7606 11.5454 14.6963C11.6216 14.8029 11.7075 14.9048 11.8033 15.0005L15.1911 11.6127C15.0953 11.517 14.9935 11.431 14.8868 11.3549Z" fill="#05C3CD"/>
<path fill-rule="evenodd" clip-rule="evenodd" d="M13.9892 13.797C13.9105 13.8757 13.9105 14.0032 13.9892 14.0819C14.0678 14.1605 14.1953 14.1605 14.274 14.0819C14.3526 14.0032 14.3526 13.8757 14.274 13.797C14.1953 13.7184 14.0678 13.7184 13.9892 13.797ZM13.7081 13.516C13.4742 13.7499 13.4742 14.129 13.7081 14.3629C13.942 14.5968 14.3212 14.5968 14.555 14.3629C14.7889 14.129 14.7889 13.7499 14.555 13.516C14.3212 13.2821 13.942 13.2821 13.7081 13.516Z" fill="#05C3CD"/>
<path fill-rule="evenodd" clip-rule="evenodd" d="M11.3878 11.8958L12.0961 11.1875L12.023 11.1144L11.3147 11.8227L11.3878 11.8958ZM12.6582 11.1875L12.023 10.5523L10.7526 11.8227L11.3878 12.4579L12.6582 11.1875Z" fill="#05C3CD"/>
<path fill-rule="evenodd" clip-rule="evenodd" d="M6.71786 7.23563L7.42615 6.52734L7.35307 6.45426L6.64478 7.16255L6.71786 7.23563ZM7.98828 6.52734L7.60858 6.14765C7.46747 6.00653 7.23867 6.00653 7.09756 6.14765L6.33816 6.90704C6.19705 7.04816 6.19705 7.27695 6.33816 7.41807L6.71786 7.79776L7.98828 6.52734Z" fill="#05C3CD"/>
<path fill-rule="evenodd" clip-rule="evenodd" d="M13.5293 13.0625L14.0586 13.5918L13.7775 13.8729L13.2482 13.3435L13.5293 13.0625Z" fill="#05C3CD"/>
<path fill-rule="evenodd" clip-rule="evenodd" d="M13.6017 7.01165L11.7949 5.20489L12.076 4.92383L13.8827 6.73058L13.6017 7.01165Z" fill="#05C3CD"/>
<path fill-rule="evenodd" clip-rule="evenodd" d="M7.60168 12.9687L5.79492 11.1619L6.07599 10.8809L7.88274 12.6876L7.60168 12.9687Z" fill="#05C3CD"/>
<path fill-rule="evenodd" clip-rule="evenodd" d="M7.03136 13.6972L5.22461 11.8904L5.50567 11.6094L7.31243 13.4161L7.03136 13.6972Z" fill="#05C3CD"/>
<path fill-rule="evenodd" clip-rule="evenodd" d="M12.8868 7.55071L11.0801 5.74396L11.3611 5.46289L13.1679 7.26964L12.8868 7.55071Z" fill="#05C3CD"/>
<path d="M4.74097 8.18786C4.77777 8.22448 4.82754 8.2451 4.87946 8.24525C4.91801 8.245 4.95563 8.23338 4.98761 8.21183C5.01959 8.19029 5.0445 8.1598 5.05922 8.12416C5.07394 8.08853 5.07782 8.04934 5.07037 8.01151C5.06292 7.97368 5.04446 7.93889 5.01732 7.9115L4.81333 7.70751L5.01732 7.50351C5.05397 7.46686 5.07456 7.41716 5.07456 7.36533C5.07456 7.31351 5.05397 7.2638 5.01732 7.22716C4.98068 7.19051 4.93097 7.16992 4.87914 7.16992C4.82731 7.16992 4.77762 7.19051 4.74097 7.22716L4.53697 7.43115L4.3336 7.22716C4.29696 7.19051 4.24725 7.16992 4.19542 7.16992C4.14359 7.16992 4.09388 7.19051 4.05724 7.22716C4.02059 7.2638 4 7.31351 4 7.36533C4 7.41716 4.02059 7.46686 4.05724 7.50351L4.26061 7.70751L4.05724 7.9115C4.0301 7.93889 4.01166 7.97368 4.0042 8.01151C3.99675 8.04934 4.00062 8.08853 4.01534 8.12416C4.03006 8.1598 4.05497 8.19029 4.08695 8.21183C4.11893 8.23338 4.15656 8.245 4.19512 8.24525C4.24704 8.2451 4.2968 8.22448 4.3336 8.18786L4.53697 7.98387L4.74097 8.18786Z" fill="#05C3CD"/>
<path d="M4.32853 10.2168C4.28912 10.2167 4.25055 10.2283 4.21773 10.2501C4.18491 10.2719 4.15931 10.303 4.14417 10.3394C4.12903 10.3757 4.12504 10.4158 4.1327 10.4545C4.14036 10.4931 4.15933 10.5287 4.1872 10.5565C4.21506 10.5844 4.25058 10.6034 4.28924 10.611C4.3279 10.6187 4.36796 10.6147 4.40435 10.5995C4.44074 10.5844 4.47181 10.5588 4.49363 10.526C4.51545 10.4932 4.52703 10.4546 4.52691 10.4152C4.52691 10.3626 4.50601 10.3121 4.4688 10.2749C4.4316 10.2377 4.38115 10.2168 4.32853 10.2168V10.2168Z" fill="#05C3CD"/>
<path d="M15.9418 8.8463C15.9051 8.80977 15.8554 8.78926 15.8036 8.78926C15.7518 8.78926 15.7021 8.80977 15.6654 8.8463L15.4614 9.05029L15.2574 8.8463C15.2393 8.82815 15.2177 8.81376 15.194 8.80394C15.1703 8.79412 15.1449 8.78906 15.1192 8.78906C15.0936 8.78906 15.0682 8.79412 15.0445 8.80394C15.0207 8.81376 14.9992 8.82815 14.9811 8.8463C14.9629 8.86444 14.9485 8.88599 14.9387 8.90969C14.9289 8.9334 14.9238 8.95882 14.9238 8.98448C14.9238 9.01014 14.9289 9.03555 14.9387 9.05926C14.9485 9.08297 14.9629 9.10451 14.9811 9.12266L15.1851 9.32665L14.9811 9.53064C14.9444 9.56729 14.9238 9.617 14.9238 9.66883C14.9238 9.72065 14.9444 9.77036 14.9811 9.807C15.0177 9.84365 15.0674 9.86424 15.1192 9.86424C15.1711 9.86424 15.2208 9.84365 15.2574 9.807L15.4614 9.60301L15.6654 9.807C15.7021 9.84365 15.7518 9.86424 15.8036 9.86424C15.8554 9.86424 15.9051 9.84365 15.9418 9.807C15.9784 9.77036 15.999 9.72065 15.999 9.66883C15.999 9.617 15.9784 9.56729 15.9418 9.53064L15.7378 9.32665L15.9418 9.12266C15.9783 9.08595 15.9988 9.03627 15.9988 8.98448C15.9988 8.93269 15.9783 8.88301 15.9418 8.8463V8.8463Z" fill="#05C3CD"/>
<path d="M9.71791 15.1233C9.82748 15.1233 9.9163 15.0345 9.9163 14.9249C9.9163 14.8154 9.82748 14.7266 9.71791 14.7266C9.60835 14.7266 9.51953 14.8154 9.51953 14.9249C9.51953 15.0345 9.60835 15.1233 9.71791 15.1233Z" fill="#05C3CD"/>
</svg>
