<svg width="33" height="32" viewBox="0 0 33 32" fill="none" xmlns="http://www.w3.org/2000/svg">
<circle cx="16.1836" cy="16" r="15.75" fill="url(#paint0_linear_1396_30321)" stroke="white" stroke-width="0.5"/>
<path fill-rule="evenodd" clip-rule="evenodd" d="M16.2861 20.532L20.736 16.082L14.4398 9.78578C13.9431 9.2891 13.1378 9.28909 12.6411 9.78578L9.98983 12.4371C9.49314 12.9338 9.49314 13.739 9.98983 14.2357L16.2861 20.532ZM21.7773 16.082L14.9604 9.26512C14.1762 8.48088 12.9047 8.48088 12.1205 9.26512L9.46916 11.9164C8.68493 12.7007 8.68493 13.9721 9.46916 14.7564L16.2861 21.5733L21.7773 16.082Z" fill="white"/>
<path fill-rule="evenodd" clip-rule="evenodd" d="M23.4704 9.42188L20.5894 6.54086L17.7084 9.42188L20.5894 12.3029L23.4704 9.42188ZM24.0384 9.8952C24.2998 9.63379 24.2998 9.20996 24.0384 8.94855L21.0627 5.97287C20.8013 5.71146 20.3775 5.71146 20.1161 5.97287L17.1404 8.94855C16.879 9.20996 16.879 9.63379 17.1404 9.8952L20.1161 12.8709C20.3775 13.1323 20.8013 13.1323 21.0627 12.8709L24.0384 9.8952Z" fill="white"/>
<path fill-rule="evenodd" clip-rule="evenodd" d="M17.3984 12.1931L18.7372 10.8543L19.2578 11.375L17.919 12.7138L17.3984 12.1931Z" fill="white"/>
<path fill-rule="evenodd" clip-rule="evenodd" d="M6.72492 20.3984L9.60593 23.2794L12.4869 20.3984L9.60593 17.5174L6.72492 20.3984ZM6.15692 19.9251C5.89551 20.1865 5.89551 20.6104 6.15692 20.8718L9.1326 23.8474C9.39401 24.1089 9.81784 24.1089 10.0793 23.8474L13.0549 20.8718C13.3163 20.6104 13.3163 20.1865 13.0549 19.9251L10.0793 16.9494C9.81784 16.688 9.39401 16.688 9.1326 16.9494L6.15692 19.9251Z" fill="white"/>
<path fill-rule="evenodd" clip-rule="evenodd" d="M12.8946 17.7249L11.5558 19.0636L11.0352 18.543L12.3739 17.2042L12.8946 17.7249Z" fill="white"/>
<path fill-rule="evenodd" clip-rule="evenodd" d="M19.9281 19.7539C18.6609 21.0211 18.5046 22.9784 19.4592 24.4158L24.59 19.285C23.1526 18.3304 21.1952 18.4867 19.9281 19.7539ZM25.1195 18.7556C23.3862 17.5184 20.963 17.6776 19.4074 19.2332C17.8518 20.7888 17.6926 23.2121 18.9297 24.9453C19.0708 25.1429 19.23 25.3316 19.4074 25.509L25.6831 19.2332C25.5057 19.0559 25.3171 18.8966 25.1195 18.7556Z" fill="white"/>
<path fill-rule="evenodd" clip-rule="evenodd" d="M23.4602 23.2811C23.3145 23.4268 23.3145 23.663 23.4602 23.8087C23.6059 23.9544 23.8421 23.9544 23.9878 23.8087C24.1335 23.663 24.1335 23.4268 23.9878 23.2811C23.8421 23.1354 23.6059 23.1354 23.4602 23.2811ZM22.9396 22.7605C22.5063 23.1937 22.5063 23.8961 22.9396 24.3294C23.3728 24.7626 24.0753 24.7626 24.5085 24.3294C24.9418 23.8961 24.9418 23.1937 24.5085 22.7605C24.0753 22.3272 23.3728 22.3272 22.9396 22.7605Z" fill="white"/>
<path fill-rule="evenodd" clip-rule="evenodd" d="M18.6427 19.7574L19.9548 18.4453L19.8194 18.3099L18.5073 19.622L18.6427 19.7574ZM20.9961 18.4453L19.8194 17.2686L17.466 19.622L18.6427 20.7987L20.9961 18.4453Z" fill="white"/>
<path fill-rule="evenodd" clip-rule="evenodd" d="M9.99035 11.1246L11.3024 9.8125L11.167 9.67712L9.85497 10.9892L9.99035 11.1246ZM12.3438 9.8125L11.6404 9.10913C11.379 8.84772 10.9551 8.84772 10.6937 9.10913L9.28698 10.5159C9.02557 10.7773 9.02557 11.2011 9.28698 11.4625L9.99035 12.1659L12.3438 9.8125Z" fill="white"/>
<path fill-rule="evenodd" clip-rule="evenodd" d="M22.6132 21.9179L23.5938 22.8984L23.0731 23.4191L22.0925 22.4385L22.6132 21.9179Z" fill="white"/>
<path fill-rule="evenodd" clip-rule="evenodd" d="M22.7415 10.7113L19.3945 7.36441L19.9152 6.84375L23.2621 10.1907L22.7415 10.7113Z" fill="white"/>
<path fill-rule="evenodd" clip-rule="evenodd" d="M11.6282 21.7465L8.28125 18.3996L8.80191 17.8789L12.1488 21.2258L11.6282 21.7465Z" fill="white"/>
<path fill-rule="evenodd" clip-rule="evenodd" d="M10.5735 23.0942L7.22656 19.7472L7.74722 19.2266L11.0942 22.5735L10.5735 23.0942Z" fill="white"/>
<path fill-rule="evenodd" clip-rule="evenodd" d="M21.4133 11.7074L18.0664 8.3605L18.5871 7.83984L21.934 11.1868L21.4133 11.7074Z" fill="white"/>
<path d="M6.32574 12.8857C6.39392 12.9535 6.4861 12.9917 6.58228 12.992C6.65371 12.9915 6.72339 12.97 6.78263 12.9301C6.84187 12.8902 6.88802 12.8337 6.91529 12.7677C6.94256 12.7017 6.94975 12.6291 6.93594 12.559C6.92213 12.4889 6.88794 12.4245 6.83767 12.3737L6.45978 11.9959L6.83767 11.618C6.90556 11.5501 6.9437 11.458 6.9437 11.362C6.9437 11.266 6.90556 11.1739 6.83767 11.106C6.76978 11.0381 6.6777 11 6.58169 11C6.48568 11 6.39363 11.0381 6.32574 11.106L5.94785 11.4839L5.57111 11.106C5.50323 11.0381 5.41114 11 5.31513 11C5.21912 11 5.12704 11.0381 5.05915 11.106C4.99126 11.1739 4.95312 11.266 4.95312 11.362C4.95312 11.458 4.99126 11.5501 5.05915 11.618L5.43589 11.9959L5.05915 12.3737C5.00888 12.4245 4.97472 12.4889 4.96091 12.559C4.94711 12.6291 4.95427 12.7017 4.98154 12.7677C5.00881 12.8337 5.05496 12.8902 5.1142 12.9301C5.17343 12.97 5.24315 12.9915 5.31457 12.992C5.41075 12.9917 5.50293 12.9535 5.57111 12.8857L5.94785 12.5078L6.32574 12.8857Z" fill="white"/>
<path d="M5.55339 16.6465C5.48038 16.6463 5.40894 16.6677 5.34814 16.7081C5.28734 16.7486 5.23991 16.8061 5.21187 16.8735C5.18382 16.9409 5.17644 17.0152 5.19062 17.0868C5.20481 17.1584 5.23995 17.2242 5.29157 17.2758C5.3432 17.3274 5.40898 17.3626 5.4806 17.3768C5.55222 17.3909 5.62643 17.3835 5.69384 17.3555C5.76125 17.3274 5.81881 17.28 5.85923 17.2192C5.89965 17.1584 5.9211 17.087 5.92087 17.014C5.92087 16.9165 5.88216 16.823 5.81324 16.7541C5.74432 16.6852 5.65086 16.6465 5.55339 16.6465Z" fill="white"/>
<path d="M27.0693 14.106C27.0013 14.0384 26.9093 14.0004 26.8133 14.0004C26.7174 14.0004 26.6253 14.0384 26.5573 14.106L26.1794 14.4839L25.8016 14.106C25.7679 14.0724 25.728 14.0458 25.6841 14.0276C25.6402 14.0094 25.5931 14 25.5456 14C25.498 14 25.451 14.0094 25.407 14.0276C25.3631 14.0458 25.3232 14.0724 25.2896 14.106C25.256 14.1396 25.2294 14.1795 25.2112 14.2235C25.193 14.2674 25.1836 14.3145 25.1836 14.362C25.1836 14.4095 25.193 14.4566 25.2112 14.5005C25.2294 14.5445 25.256 14.5844 25.2896 14.618L25.6675 14.9959L25.2896 15.3737C25.2217 15.4416 25.1836 15.5337 25.1836 15.6297C25.1836 15.7257 25.2217 15.8178 25.2896 15.8857C25.3575 15.9536 25.4496 15.9917 25.5456 15.9917C25.6416 15.9917 25.7337 15.9536 25.8016 15.8857L26.1794 15.5078L26.5573 15.8857C26.6252 15.9536 26.7173 15.9917 26.8133 15.9917C26.9093 15.9917 27.0014 15.9536 27.0693 15.8857C27.1372 15.8178 27.1753 15.7257 27.1753 15.6297C27.1753 15.5337 27.1372 15.4416 27.0693 15.3737L26.6914 14.9959L27.0693 14.618C27.1369 14.55 27.175 14.4579 27.175 14.362C27.175 14.2661 27.1369 14.174 27.0693 14.106Z" fill="white"/>
<path d="M15.5511 25.735C15.7541 25.735 15.9186 25.5704 15.9186 25.3675C15.9186 25.1645 15.7541 25 15.5511 25C15.3481 25 15.1836 25.1645 15.1836 25.3675C15.1836 25.5704 15.3481 25.735 15.5511 25.735Z" fill="white"/>
<defs>
<linearGradient id="paint0_linear_1396_30321" x1="29.1836" y1="32" x2="9.18359" y2="1.17719e-06" gradientUnits="userSpaceOnUse">
<stop stop-color="#0B1081"/>
<stop offset="1" stop-color="#05C3CD"/>
</linearGradient>
</defs>
</svg>
