<svg width="64" height="64" viewBox="0 0 64 64" fill="none" xmlns="http://www.w3.org/2000/svg">
<circle cx="32" cy="32" r="32" fill="#4C5460"/>
<path d="M30.1884 11.4023C31.2049 10.8659 32.7516 10.8659 33.768 11.4023L44.1401 16.8761C44.7523 17.1992 45.0885 17.6806 45.1488 18.1776H45.1586V45.6919C45.1452 46.234 44.8058 46.7724 44.1401 47.1239L33.768 52.5976C32.7516 53.1341 31.2049 53.1341 30.1884 52.5976L19.8163 47.1239C19.1535 46.7741 18.8354 46.2317 18.8196 45.6919C18.818 45.6388 18.8178 45.5945 18.8193 45.5577L18.8193 18.3543C18.8182 18.3246 18.8181 18.2948 18.819 18.2652L18.8196 18.1776L18.8242 18.1776C18.8703 17.6752 19.1913 17.206 19.8163 16.8761L30.1884 11.4023ZM43.5258 33.5277L33.768 38.6774C32.7516 39.2138 31.2049 39.2138 30.1884 38.6774L20.452 33.5392V45.6375L30.1884 50.7487C30.7382 51.0423 31.3089 51.3285 31.8668 51.3649L31.9782 51.3685C32.5597 51.3704 33.1241 51.0755 33.6965 50.7962L43.5258 45.5935V33.5277ZM17.1326 45.0938C17.1326 46.1477 17.2552 46.8407 17.4987 47.3289C17.7005 47.7335 18.0032 48.0426 18.5561 48.419L18.5876 48.4403C18.7089 48.522 18.8426 48.6076 19.0053 48.708L19.1971 48.8255L19.7863 49.1809L18.9413 50.5767L18.2819 50.1787L18.1711 50.1108C17.9804 49.993 17.8224 49.8922 17.675 49.7928C16.0994 48.7313 15.5118 47.5744 15.5002 45.1669L15.5 45.0938H17.1326ZM31.1617 26.153C31.0862 26.179 31.0154 26.2089 30.9509 26.243L20.5788 31.7168C20.5679 31.7226 20.5575 31.7282 20.5477 31.7338L20.5389 31.739L20.5551 31.7483L20.5788 31.7611L30.9509 37.2349C31.0154 37.269 31.0862 37.2989 31.1617 37.3249V26.153ZM32.7948 26.153V37.3249C32.8703 37.2989 32.9411 37.269 33.0056 37.2349L43.3777 31.7611C43.3886 31.7553 43.3989 31.7497 43.4088 31.7441L43.4176 31.739L43.4013 31.7296L43.3777 31.7168L33.0056 26.243C32.9411 26.2089 32.8703 26.179 32.7948 26.153ZM43.5258 20.1294L34.2215 25.0398L43.5258 29.9502V20.1294ZM20.452 20.1409V29.9387L29.7348 25.0398L20.452 20.1409ZM33.0056 12.8448C32.4662 12.5601 31.4903 12.5601 30.9509 12.8448L20.5788 18.3186C20.5679 18.3244 20.5575 18.33 20.5477 18.3356L20.5389 18.3407L20.5551 18.3501L20.5788 18.3629L30.9509 23.8367C31.4903 24.1214 32.4662 24.1214 33.0056 23.8367L43.3777 18.3629C43.3886 18.3571 43.3989 18.3515 43.4088 18.3458L43.4176 18.3407L43.4013 18.3314L43.3777 18.3186L33.0056 12.8448ZM45.0587 13.445L45.7181 13.8429L45.8289 13.9109C46.0196 14.0285 46.1776 14.1296 46.325 14.2288C47.9006 15.2902 48.4882 16.4474 48.4997 18.8547L48.5 18.928H46.8674C46.8674 17.8738 46.7448 17.1809 46.5013 16.6928C46.2996 16.2882 45.9968 15.979 45.4439 15.6028L45.4124 15.5814C45.2911 15.4997 45.1574 15.4141 44.9947 15.3135L44.8029 15.1961L44.2137 14.8408L45.0587 13.445Z" fill="white"/>
</svg>
