<svg width="512" height="512" viewBox="0 0 512 512" fill="none" xmlns="http://www.w3.org/2000/svg">
<path d="M511.778 241.819V241.745C505.102 107.758 393.061 1.60889 256.677 0.0748336C256.227 0.0748336 255.814 0.0748336 255.402 0.0748336L255.252 0L254.051 0.0748336C213.166 0.486409 172.543 10.8132 136.684 29.9702C83.1208 57.9573 41.2979 105.176 18.9798 162.909L17.0293 167.998H90.0601L91.2604 165.79C91.8605 164.705 92.4982 163.583 93.1359 162.498C93.4734 161.899 93.8861 161.338 94.2237 160.739C95.649 158.344 97.1119 155.987 98.6497 153.705C128.845 108.469 179.97 77.1143 235.372 69.7808L235.597 69.7434H236.572L236.722 69.6311C243.324 68.9576 250.038 68.5835 256.714 68.5835H259.753C264.854 68.5835 270.068 68.7705 275.207 69.1821L278.62 69.4814C289.46 70.6039 300.075 72.5495 310.503 75.3557L315.942 76.9272C328.057 80.7062 339.723 85.7574 350.675 91.931L351.013 92.1181C355.402 94.6624 359.678 97.4312 363.729 100.387L352.663 111.088L255.777 207.733L255.702 207.659L255.477 207.92L208.215 160.44L207.202 159.392L182.783 183.75L158.365 208.108L161.328 211.026L206.939 256.524L158.402 304.94L203.526 350.475L206.189 353.132L254.801 304.641L327.907 377.34L360.54 409.892C351.088 416.365 340.285 422.239 327.007 428.151C299.888 438.964 276.219 443.978 252.513 443.978C209.34 443.978 169.092 429.647 135.897 402.334C130.983 398.181 126.219 393.728 121.981 389.388C105.814 369.37 91.598 350.887 81.733 327.726L81.583 327.352C78.3947 319.457 75.769 311.301 73.706 303.107C72.6933 298.692 71.8305 294.127 71.2304 289.525L129.97 289.637V224.309L129.895 220.567V220.492H2.10057L1.57545 223.598C5.04085e-05 232.989 0 243.915 0 254.541C0.675169 307.035 16.3166 357.21 45.3864 399.752C92.6483 470.019 171.643 512 256.677 512C391.936 512 504.014 405.477 511.778 269.432C511.928 265.878 512.003 261.687 512.003 256.898C512.003 248.816 511.778 241.819 511.778 241.782V241.819ZM436.722 311.189C432.558 324.696 426.745 337.791 419.393 350.176C416.842 354.441 414.029 358.632 411.066 362.748L304.426 256.075L410.991 149.364C433.384 180.719 444.749 216.451 444.749 255.738C444.749 275.12 442.048 293.79 436.759 311.226L436.722 311.189Z" fill="#FF5A21"/>
</svg>
