<svg width="32" height="32" viewBox="0 0 32 32" fill="none" xmlns="http://www.w3.org/2000/svg">
<g clip-path="url(#clip0_613_605)">
<path d="M16 32C24.8366 32 32 24.8366 32 16C32 7.16344 24.8366 0 16 0C7.16344 0 0 7.16344 0 16C0 24.8366 7.16344 32 16 32Z" fill="black"/>
<path d="M16 0C24.836 0 32 7.164 32 16C32 24.836 24.836 32 16 32C7.163 32 0 24.836 0 16C0 7.164 7.163 0 16 0ZM16 1.493C7.988 1.493 1.493 7.988 1.493 16C1.493 24.012 7.988 30.507 16 30.507C24.012 30.507 30.506 24.012 30.506 16C30.506 7.988 24.012 1.493 16 1.493Z" fill="#E53935"/>
<path d="M24.5564 10.6504V9.41744H20.6504C20.4404 8.62044 20.2304 7.91944 20.0024 7.27344L18.6874 7.50144C18.9394 8.12944 19.1614 8.76944 19.3544 9.41744H15.2204V10.6504H24.5564ZM14.5524 19.8144V11.9414H12.6284C13.0284 11.3524 13.4284 10.6314 13.8284 9.75944V8.84844H10.6844C10.8564 8.46844 11.0084 8.08944 11.1604 7.69144L9.94144 7.31144C9.36944 9.17144 8.47444 10.6694 7.27344 11.8274L7.55944 13.1744C7.80744 12.9464 8.05544 12.7194 8.28344 12.4724V19.8144H14.5534H14.5524ZM11.3134 11.9414H8.76044C9.27544 11.3084 9.74044 10.6354 10.1504 9.93044H12.5524C12.1324 10.6884 11.7324 11.3724 11.3134 11.9404V11.9414ZM19.1644 24.7284C20.1174 24.7284 20.6124 24.1984 20.6124 23.1534V17.7464H23.6424V12.3584H16.2294V17.7464H19.2794V22.8314C19.2794 23.3054 19.0884 23.5514 18.7064 23.5514C18.2684 23.5514 17.8114 23.5144 17.3544 23.4574L17.6204 24.7284H19.1644V24.7284ZM10.8744 15.3184H9.46444V13.0604H10.8744V15.3184ZM13.3714 15.3184H11.9804V13.0604H13.3704V15.3184H13.3714ZM22.3464 16.5514H17.5264V13.5724H22.3464V16.5514ZM13.3714 18.6764H11.9804V16.4184H13.3704V18.6764H13.3714V18.6764ZM10.8744 18.6764H9.46444V16.4184H10.8744V18.6764ZM23.7184 23.8564L24.7284 23.1534C24.2134 21.9394 23.4894 20.5354 22.5364 18.9234L21.5264 19.5304C22.4414 21.1044 23.1844 22.5464 23.7184 23.8554V23.8564ZM15.7344 24.1784C16.5724 22.8684 17.2964 21.3134 17.9064 19.5294L16.8014 19.0004C16.2114 20.7074 15.5054 22.1874 14.7054 23.4394L15.7344 24.1794V24.1784ZM14.1524 22.8884L15.0864 22.6604C14.8194 21.7504 14.5524 20.9524 14.2484 20.2704L13.3524 20.5354C13.6624 21.3044 13.9284 22.0894 14.1524 22.8884ZM12.1324 23.9884L13.1234 23.8744C13.0094 22.4324 12.8004 21.2944 12.4944 20.4594L11.5414 20.5734C11.8474 21.3704 12.0374 22.5084 12.1324 23.9884ZM8.49244 24.5004C8.89244 23.3814 9.14144 22.1104 9.25544 20.6684L8.22544 20.5354C8.13144 21.9014 7.86444 23.1154 7.44544 24.1784L8.49344 24.5004H8.49244ZM10.0934 24.2734L11.0844 24.1594C11.0464 22.6604 10.9514 21.4654 10.8174 20.5924L9.90344 20.7064C9.99844 21.5414 10.0564 22.7364 10.0934 24.2734Z" fill="#E53935"/>
<path d="M16 31.75C24.6985 31.75 31.75 24.6985 31.75 16C31.75 7.30152 24.6985 0.25 16 0.25C7.30152 0.25 0.25 7.30152 0.25 16C0.25 24.6985 7.30152 31.75 16 31.75Z" stroke="white" stroke-width="0.5"/>
</g>
<defs>
<clipPath id="clip0_613_605">
<rect width="32" height="32" fill="white"/>
</clipPath>
</defs>
</svg>
