<svg width="32" height="32" viewBox="0 0 32 32" fill="none" xmlns="http://www.w3.org/2000/svg">
<g clip-path="url(#clip0_4446_66733)">
<path d="M16 32C24.8365 32 32 24.8365 32 16C32 7.16344 24.8365 0 16 0C7.16344 0 0 7.16344 0 16C0 24.8365 7.16344 32 16 32Z" fill="url(#paint0_linear_4446_66733)"/>
<path fill-rule="evenodd" clip-rule="evenodd" d="M16.7099 6C18.375 5.99899 20.0125 6.42655 21.4643 7.24147C22.9163 8.0564 24.1338 9.23127 24.9995 10.6529C24.3299 10.6433 23.6651 10.7669 23.0437 11.0164C22.4224 11.266 21.8568 11.6364 21.3798 12.1063C20.903 12.5761 20.5243 13.1361 20.2658 13.7535C20.0074 14.371 19.8742 15.0336 19.8742 15.7029C19.8742 16.3722 20.0074 17.0349 20.2658 17.6522C20.5243 18.2698 20.903 18.8296 21.3798 19.2995C21.8568 19.7694 22.4224 20.1398 23.0437 20.3894C23.6651 20.6389 24.3299 20.7624 24.9995 20.753C24.1178 22.1992 22.8726 23.3896 21.3877 24.2058C19.903 25.0219 18.2302 25.4355 16.536 25.4053C14.8417 25.3752 13.1849 24.9024 11.7301 24.0338C10.2753 23.1653 9.07329 21.9315 8.24356 20.4547C7.4138 18.9781 6.98522 17.3101 7.00039 15.6165C7.01557 13.923 7.47399 12.2629 8.33007 10.8013C9.18613 9.33973 10.4101 8.12754 11.8802 7.28522C13.3503 6.44291 15.0154 5.99983 16.7099 6Z" fill="#FFC780"/>
<path fill-rule="evenodd" clip-rule="evenodd" d="M24.9997 10.6478C24.3301 10.6382 23.6653 10.7618 23.0439 11.0113C22.4226 11.2608 21.857 11.6313 21.38 12.1012C20.9031 12.5711 20.5245 13.131 20.2659 13.7484C20.0075 14.3659 19.8744 15.0285 19.8744 15.6978C19.8744 16.3671 20.0075 17.0297 20.2659 17.6471C20.5245 18.2646 20.9031 18.8244 21.38 19.2943C21.857 19.7643 22.4226 20.1347 23.0439 20.3843C23.6653 20.6337 24.3301 20.7574 24.9997 20.7478L24.9701 20.7969C23.9832 21.6913 22.7578 22.2796 21.4426 22.4903C20.1274 22.7011 18.7792 22.5252 17.5623 21.9841C16.3453 21.443 15.3118 20.5599 14.5879 19.4427C13.8639 18.3252 13.4805 17.0214 13.4844 15.6902C13.4883 14.359 13.8793 13.0576 14.6099 11.9444C15.3404 10.8312 16.3789 9.9543 17.5991 9.42033C18.8192 8.88636 20.1683 8.71838 21.4823 8.93684C22.7962 9.15532 24.0183 9.75079 24.9997 10.6508V10.6478Z" fill="url(#paint1_linear_4446_66733)"/>
<path d="M27.1371 27.1371C25.6746 28.5996 23.9383 29.7598 22.0274 30.5513C20.1165 31.3428 18.0684 31.7502 16.0001 31.7502C13.9318 31.7502 11.8837 31.3428 9.9728 30.5513C8.06191 29.7598 6.32563 28.5996 4.8631 27.1371C3.40057 25.6746 2.24042 23.9383 1.4489 22.0274C0.657388 20.1165 0.25 18.0684 0.25 16.0001C0.25 13.9318 0.657388 11.8837 1.4489 9.9728C2.24042 8.06191 3.40057 6.32563 4.8631 4.8631C7.81681 1.90938 11.8229 0.25 16.0001 0.25C20.1773 0.25 24.1834 1.90938 27.1371 4.8631C30.0908 7.81681 31.7502 11.8229 31.7502 16.0001C31.7502 20.1773 30.0908 24.1834 27.1371 27.1371Z" stroke="white" stroke-width="0.5"/>
</g>
<defs>
<linearGradient id="paint0_linear_4446_66733" x1="16" y1="0" x2="16" y2="32" gradientUnits="userSpaceOnUse">
<stop stop-color="#6A3524"/>
<stop offset="1" stop-color="#1D0E09"/>
</linearGradient>
<linearGradient id="paint1_linear_4446_66733" x1="19.2399" y1="22.5772" x2="19.2399" y2="8.8399" gradientUnits="userSpaceOnUse">
<stop stop-color="#FFC780"/>
<stop offset="1" stop-color="#964B48"/>
</linearGradient>
<clipPath id="clip0_4446_66733">
<rect width="32" height="32" fill="white"/>
</clipPath>
</defs>
</svg>
