<svg width="32" height="32" viewBox="0 0 32 32" fill="none" xmlns="http://www.w3.org/2000/svg">
<g clip-path="url(#clip0_613_482)">
<path d="M31.75 16C31.75 24.698 24.698 31.75 16 31.75C7.302 31.75 0.25 24.698 0.25 16C0.25 7.302 7.302 0.25 16 0.25C24.698 0.25 31.75 7.302 31.75 16Z" fill="url(#paint0_linear_613_482)" stroke="white" stroke-width="0.5"/>
<path d="M13.5581 9.45458C9.75608 10.9146 9.40808 14.6516 8.31708 16.3976C7.21408 18.1646 4.68708 19.1386 5.03208 20.0386C5.37808 20.9386 7.90808 19.9726 9.91008 20.5466C11.8881 21.1136 14.6481 23.6596 18.4501 22.1996C19.3706 21.8474 20.2036 21.2995 20.8916 20.5939C21.5796 19.8883 22.1063 19.0417 22.4351 18.1126C22.4515 18.0674 22.4573 18.0191 22.4521 17.9713C22.447 17.9235 22.4309 17.8775 22.4053 17.8369C22.3796 17.7962 22.345 17.762 22.304 17.7368C22.2631 17.7117 22.2169 17.6962 22.1691 17.6916C22.1064 17.6854 22.0434 17.6984 21.9883 17.7287C21.9331 17.7591 21.8884 17.8054 21.8601 17.8616C21.3722 18.8296 20.6048 19.6287 19.6574 20.1554C18.7099 20.682 17.6261 20.9119 16.5465 20.8153C15.4668 20.7186 14.4411 20.2998 13.6022 19.6132C12.7634 18.9266 12.1502 18.0039 11.8421 16.9646C13.1413 16.3619 14.4611 15.8046 15.7991 15.2936C17.1123 14.7869 18.4424 14.3249 19.7871 13.9086C20.5901 13.6626 21.3271 13.4566 21.9921 13.2886L22.1351 13.2536C22.2351 13.2286 22.3381 13.2826 22.3751 13.3786L22.3761 13.3806C22.3981 13.4376 22.4171 13.4956 22.4371 13.5536C22.5691 13.9256 22.6671 14.3016 22.7331 14.6776C22.7395 14.7158 22.7549 14.752 22.7781 14.7831C22.8012 14.8142 22.8314 14.8394 22.8661 14.8565C22.9009 14.8737 22.9392 14.8824 22.978 14.8819C23.0167 14.8814 23.0548 14.8717 23.0891 14.8536C23.5947 14.5837 24.0923 14.2989 24.5811 13.9996C26.2431 12.9756 27.1651 12.1076 26.9761 11.6156C26.7861 11.1226 25.5211 11.0946 23.6001 11.4456C22.793 11.5958 21.9924 11.7787 21.2001 11.9936C20.5871 12.1556 19.9401 12.3426 19.2661 12.5516C17.9222 12.9697 16.5925 13.432 15.2791 13.9376C14.0438 14.4101 12.8232 14.9203 11.6191 15.4676C11.614 14.5848 11.8251 13.7142 12.2338 12.9317C12.6426 12.1493 13.2366 11.4787 13.9641 10.9786C14.6915 10.4785 15.5303 10.164 16.4073 10.0625C17.2842 9.96107 18.1727 10.0758 18.9951 10.3966C19.1151 10.4436 19.2511 10.4106 19.3381 10.3166C19.3706 10.281 19.3945 10.2384 19.408 10.1922C19.4215 10.146 19.4243 10.0972 19.4161 10.0498C19.4079 10.0023 19.3889 9.95732 19.3607 9.91829C19.3324 9.87926 19.2956 9.8472 19.2531 9.82458C18.3871 9.35465 17.4294 9.07821 16.4462 9.01433C15.463 8.95045 14.4776 9.10065 13.5581 9.45458V9.45458Z" fill="#FAF1E4"/>
</g>
<defs>
<linearGradient id="paint0_linear_613_482" x1="16" y1="0" x2="16" y2="32" gradientUnits="userSpaceOnUse">
<stop stop-color="#ED4E33"/>
<stop offset="1" stop-color="#CF383B"/>
</linearGradient>
<clipPath id="clip0_613_482">
<rect width="32" height="32" fill="white"/>
</clipPath>
</defs>
</svg>
