<svg width="200" height="200" viewBox="0 0 200 200" fill="none" xmlns="http://www.w3.org/2000/svg">
<circle cx="100" cy="100" r="100" fill="#D9D9D9"/>
<circle cx="100" cy="100" r="100" fill="url(#paint0_linear_1482_2127)"/>
<circle cx="100.002" cy="100.002" r="74.9983" fill="url(#paint1_linear_1482_2127)"/>
<path fill-rule="evenodd" clip-rule="evenodd" d="M99.9983 172.747C140.176 172.747 172.747 140.176 172.747 99.9983C172.747 59.8205 140.176 27.2499 99.9983 27.2499C59.8205 27.2499 27.2499 59.8205 27.2499 99.9983C27.2499 140.176 59.8205 172.747 99.9983 172.747ZM99.9983 174.997C141.419 174.997 174.997 141.419 174.997 99.9983C174.997 58.5779 141.419 25 99.9983 25C58.5779 25 25 58.5779 25 99.9983C25 141.419 58.5779 174.997 99.9983 174.997Z" fill="white"/>
<path fill-rule="evenodd" clip-rule="evenodd" d="M100.746 25.8674V25.3618L99.7824 25.7824L77.0507 29.3874L56.35 39.9293L39.9242 56.3552L29.7246 76.3828L29.2366 76.2241L29.3423 77.3056L25.7434 100.001L29.3819 122.947L39.9242 143.648L55.8123 159.536L55.5167 159.943L56.5354 160.168L77.0505 170.625L99.9963 174.264L122.942 170.625L142.955 160.424L143.253 160.835L143.782 159.934L160.068 143.648L170.619 122.947L174.258 100.001L170.74 77.8149L171.218 77.6594L170.534 76.8883L160.068 56.3551L143.642 39.9293L122.942 29.3874L100.746 25.8674ZM166.576 72.4266L159.339 58.2264L156.899 61.517L166.576 72.4266ZM148.396 70.4689L154.83 61.7892L138.178 52.1904L148.396 70.4689ZM127.213 65.6494L147.088 72.2332L136.305 86.778L127.213 65.6494ZM125.692 65.91L134.878 87.2547L113.337 82.915L125.692 65.91ZM147.044 45.4522L155.997 60.2153L158.47 56.8786L147.044 45.4522ZM153.78 59.4527L143.136 41.9011L137.29 49.9472L153.78 59.4527ZM146.71 70.528L136.112 51.5685L127.065 64.0203L146.71 70.528ZM113.16 84.4095L119.812 104.893L134.678 88.7446L113.16 84.4095ZM140.822 112.476L135.717 89.8306L120.845 105.986L140.822 112.476ZM137.153 89.3783L154.411 94.8017L142.208 111.807L137.153 89.3783ZM156.513 95.4624L158.996 116.247L166.82 98.7014L156.513 95.4624ZM168.692 99.2894L170.123 116.5L172.655 100.535L168.692 99.2894ZM169.046 121.646L167.346 101.206L159.6 118.577L169.046 121.646ZM157.69 117.957L143.054 113.201L155.114 96.3945L157.69 117.957ZM137.485 87.9103L154.47 93.2479L148.043 73.4632L137.437 87.7704L137.586 87.8004L137.485 87.9103ZM172.571 98.9361L168.656 97.7058L170.074 83.1939L172.571 98.9361ZM162.843 80.3833L169.039 78.3682L167.454 94.5821L162.843 80.3833ZM166.691 97.0884L161.798 82.0221L156.646 93.9317L166.691 97.0884ZM149.405 71.6262L160.57 78.2432L155.671 63.1736L149.405 71.6262ZM146.804 154.791L158.059 143.536L154.181 142.234L146.804 154.791ZM143.033 136.909L153.284 140.351L157.268 121.541L143.033 136.909ZM141.084 115.269L140.953 136.21L123.802 130.452L141.084 115.269ZM140.364 113.904L122.907 129.241L120.373 107.409L140.364 113.904ZM157.223 119.382L142.588 114.627L142.458 135.322L157.223 119.382ZM155.182 138.63L159.128 120.001L168.592 123.076L155.182 138.63ZM159.074 142.295L166.408 127.906L155.141 140.974L159.074 142.295ZM118.897 107.706L101.475 120.363L121.429 129.513L118.897 107.706ZM100.746 142.689V121.679L120.713 130.835L100.746 142.689ZM121.59 132.058L121.766 150.154L101.815 143.799L121.59 132.058ZM121.787 152.348L102.777 161.138L121.892 163.161L121.787 152.348ZM121.911 165.12L106.016 171.79L121.951 169.263L121.911 165.12ZM100.746 172.376L119.669 164.434L100.746 162.431V172.376ZM100.746 160.424L120.456 151.311L100.746 145.032V160.424ZM123.089 131.924L123.261 149.716L140.075 137.498L123.209 131.835L123.226 131.987L123.089 131.924ZM123.445 168.685L123.406 164.595L137.61 161.465L123.445 168.685ZM138.077 153.71L141.907 158.982L125.992 162.489L138.077 153.71ZM123.386 162.528L136.196 153.222L123.284 152.006L123.386 162.528ZM142.245 138.227L139.408 150.888L152.226 141.578L142.245 138.227ZM62.3541 161.45L76.5369 168.68L76.5766 164.585L62.3541 161.45ZM97.2141 161.128L78.0905 163.152L78.1954 152.337L97.2141 161.128ZM98.1766 143.797L78.2166 150.144L78.3921 132.048L98.1766 143.797ZM99.2461 121.678L79.2713 130.826L99.2461 142.688V121.678ZM79.5288 151.301L99.2461 145.031V160.415L79.5288 151.301ZM80.3236 164.424L99.2461 162.421V172.366L80.3236 164.424ZM78.0313 169.262L94.0138 171.796L78.0716 165.106L78.0313 169.262ZM98.5168 120.362L78.5551 129.504L81.0947 107.706L98.5168 120.362ZM76.1728 130.445L58.9072 115.268L59.0299 136.199L76.1728 130.445ZM77.0756 129.241L79.619 107.41L59.6291 113.906L77.0756 129.241ZM57.4035 114.629L57.5248 135.323L42.7632 119.386L57.4035 114.629ZM40.8559 120.006L44.7999 138.62L31.4002 123.079L40.8559 120.006ZM33.6036 127.931L44.8387 140.962L40.9113 142.281L33.6036 127.931ZM46.6972 140.339L42.7144 121.541L56.9412 136.9L46.6972 140.339ZM76.7746 131.825L59.8977 137.49L76.7208 149.707L76.8933 131.915L76.7568 131.977L76.7746 131.825ZM41.9215 143.524L45.7919 142.225L53.1713 154.774L41.9215 143.524ZM60.6832 152.819L56.8613 158.089L48.6007 144.042L60.6832 152.819ZM47.7474 141.568L60.5654 150.879L57.7345 138.216L47.7474 141.568ZM76.6986 151.996L63.7787 153.213L76.5966 162.518L76.6986 151.996ZM29.9214 83.2307L27.4332 98.9221L31.3354 97.6959L29.9214 83.2307ZM29.8669 116.428L31.2998 99.2793L27.3447 100.522L29.8669 116.428ZM41.0035 116.246L33.1711 98.6913L43.48 95.4517L41.0035 116.246ZM57.7834 111.807L45.5749 94.7934L62.8417 89.3673L57.7834 111.807ZM59.1696 112.478L64.2764 89.8235L79.148 105.986L59.1696 112.478ZM44.8782 96.3953L56.9391 113.203L42.3105 117.956L44.8782 96.3953ZM32.645 101.194L40.4008 118.577L30.9356 121.653L32.645 101.194ZM80.1806 104.893L86.8324 84.4088L65.3138 88.7356L80.1806 104.893ZM72.9208 64.0124L53.2818 70.5262L63.8764 51.5642L72.9208 64.0124ZM74.2965 65.9059L65.1039 87.2478L86.6545 82.9146L74.2965 65.9059ZM63.6808 86.76L72.7778 65.6401L52.9095 72.23L63.6808 86.76ZM51.5992 70.4625L45.1619 61.779L61.8144 52.1794L51.5992 70.4625ZM43.9952 60.2052L52.9318 45.4688L41.5261 56.8745L43.9952 60.2052ZM56.8523 41.8967L46.212 59.4423L62.6961 49.9398L56.8523 41.8967ZM62.5552 87.7603L51.9513 73.4563L45.5256 93.2366L62.5068 87.9002L62.4057 87.7904L62.5552 87.7603ZM40.6572 58.2211L43.0929 61.5068L33.4445 72.3838L40.6572 58.2211ZM37.6118 78.948L31.4146 76.9325L42.2312 64.7387L37.6118 78.948ZM44.3207 63.1629L39.4204 78.2365L50.5924 71.6232L44.3207 63.1629ZM43.3419 93.9228L38.1935 82.0142L33.3017 97.078L43.3419 93.9228ZM94.3197 28.1675L78.598 30.6607L80.9722 33.995L94.3197 28.1675ZM62.6736 38.3922L79.455 34.4502L77.0491 31.0714L62.6736 38.3922ZM66.3175 48.9171L80.5925 36.0477L86.8587 44.848L66.3175 48.9171ZM75.7304 63.5016L88.1336 46.6385L98.6289 61.378L75.7304 63.5016ZM75.5129 65.0281L98.6405 62.8833L87.8641 82.0276L75.5129 65.0281ZM86.3965 46.4686L74.1377 63.1354L65.0943 50.6886L86.3965 46.4686ZM78.0489 36.3213L63.9141 49.0643L58.066 41.0154L78.0489 36.3213ZM89.2232 82.6711H110.768L99.9954 63.5341L89.2232 82.6711ZM141.926 41.0153L121.951 36.3213L136.078 49.0642L141.926 41.0153ZM134.898 50.6886L113.596 46.4688L125.858 63.1295L134.898 50.6886ZM124.479 65.0274L101.35 62.8832L112.127 82.0283L124.479 65.0274ZM101.362 61.3779L124.27 63.5015L111.858 46.6378L101.362 61.3779ZM113.133 44.8479L119.402 36.0426L133.676 48.9174L113.133 44.8479ZM120.538 34.4483L122.942 31.071L137.317 38.3915L120.538 34.4483ZM100.069 60.6077L110.394 46.1078H89.5971L99.9216 60.6075L99.9954 60.4762L100.069 60.6077ZM121.393 30.6605L119.021 33.9918L105.676 28.1679L121.393 30.6605ZM100.746 34.1737V27.6531L115.688 34.1737H100.746ZM117.824 35.6737H101.983L111.719 44.2466L117.824 35.6737ZM88.2719 44.2467L98.0091 35.6736H82.1674L88.2719 44.2467ZM90.1315 44.6078L99.9958 35.9229L109.86 44.6078H90.1315ZM84.3117 34.1736H99.2458V27.6534L84.3117 34.1736ZM81.6688 105.167L88.2027 85.0455L98.7821 99.6063L81.6688 105.167ZM99.2461 119.038L82.121 106.597L99.2461 101.033V119.038ZM117.872 106.597L100.746 119.039V101.033L117.872 106.597ZM111.789 85.0451L118.323 105.166L101.21 99.6062L111.789 85.0451ZM110.57 84.171L99.9959 98.725L89.4214 84.171H110.57ZM30.9524 78.3595L37.1488 80.3748L32.5374 94.5749L30.9524 78.3595ZM50.3584 73.5048L39.0442 80.2022L44.2621 92.2713L50.3584 73.5048ZM58.0746 158.971L61.8969 153.7L73.988 162.478L58.0746 158.971ZM59.4511 139.019L62.3179 151.844L75.4125 150.611L59.4511 139.019ZM143.12 158.1L139.29 152.828L151.375 144.049L143.12 158.1ZM124.569 150.62L137.655 151.853L140.53 139.021L124.569 150.62ZM149.634 73.5056L160.947 80.2104L155.73 92.2716L149.634 73.5056ZM157.76 64.7482L162.379 78.9568L168.576 76.9413L157.76 64.7482Z" fill="white"/>
<defs>
<linearGradient id="paint0_linear_1482_2127" x1="100" y1="0" x2="100" y2="200" gradientUnits="userSpaceOnUse">
<stop stop-color="#F9F9F9"/>
<stop offset="1" stop-color="#E6E6E6"/>
</linearGradient>
<linearGradient id="paint1_linear_1482_2127" x1="25.0033" y1="25.0034" x2="175" y2="175" gradientUnits="userSpaceOnUse">
<stop stop-color="#FF8887"/>
<stop offset="1" stop-color="#970615"/>
</linearGradient>
</defs>
</svg>
