<svg width="20" height="20" viewBox="0 0 20 20" fill="none" xmlns="http://www.w3.org/2000/svg">
<path d="M10 20C15.5228 20 20 15.5228 20 10C20 4.47715 15.5228 0 10 0C4.47715 0 0 4.47715 0 10C0 15.5228 4.47715 20 10 20Z" fill="white"/>
<path d="M9.99966 19.9986C8.68593 20.0023 7.38453 19.7452 6.17076 19.2426C4.957 18.7399 3.85498 18.0016 2.9285 17.0702C1.99708 16.1438 1.25867 15.042 0.755997 13.8282C0.253327 12.6145 -0.00361695 11.313 4.01687e-05 9.99934C-0.00369585 8.68564 0.253213 7.38418 0.755888 6.17044C1.25856 4.9567 1.99702 3.85488 2.9285 2.92848C3.85493 1.99702 4.95692 1.25844 6.1707 0.755777C7.38447 0.253118 8.68592 -0.00369572 9.99966 4.01809e-05C11.3134 -0.00369572 12.6148 0.253118 13.8286 0.755777C15.0424 1.25844 16.1444 1.99702 17.0708 2.92848C18.0023 3.85488 18.7408 4.9567 19.2434 6.17044C19.7461 7.38418 20.003 8.68564 19.9993 9.99934C20.0029 11.313 19.746 12.6145 19.2433 13.8282C18.7406 15.042 18.0022 16.1438 17.0708 17.0702C16.1443 18.0016 15.0423 18.7399 13.8286 19.2426C12.6148 19.7452 11.3134 20.0023 9.99966 19.9986ZM9.99966 1.42851C7.72722 1.43097 5.54855 2.33478 3.94169 3.94159C2.33483 5.5484 1.43101 7.72697 1.42856 9.99934C1.43101 12.2717 2.33483 14.4503 3.94169 16.0571C5.54855 17.6639 7.72722 18.5677 9.99966 18.5702C12.2721 18.5677 14.4508 17.6639 16.0576 16.0571C17.6645 14.4503 18.5683 12.2717 18.5708 9.99934C18.5683 7.72697 17.6645 5.5484 16.0576 3.94159C14.4508 2.33478 12.2721 1.43097 9.99966 1.42851Z" fill="#C1A034"/>
<path opacity="0.41" d="M9.28464 19.9742V18.5408C9.52273 18.5608 9.76081 18.5708 9.9989 18.5708C10.237 18.5708 10.4751 18.5611 10.7132 18.5415V19.9749C10.4751 19.9916 10.237 20 9.9989 20C9.76081 20 9.52273 19.9913 9.28464 19.9742ZM15.5315 16.5411C15.8953 16.2329 16.2328 15.8951 16.5408 15.5311L17.5572 16.5474C17.402 16.7264 17.2396 16.9004 17.0701 17.0695C16.9005 17.2385 16.7265 17.401 16.5479 17.5567L15.5315 16.5411ZM2.92916 17.0702C2.75964 16.9007 2.59704 16.7264 2.44133 16.5474L3.45773 15.5311C3.76592 15.8951 4.10373 16.2329 4.46769 16.5411L3.4513 17.5574C3.27226 17.4021 3.09774 17.2397 2.92774 17.0702H2.92916ZM18.5407 10.7135C18.5603 10.4755 18.57 10.2374 18.57 9.9993C18.57 9.76122 18.5603 9.52315 18.5407 9.28507H19.9742C19.9909 9.52315 19.9992 9.76122 19.9992 9.9993C19.9992 10.2374 19.9909 10.4755 19.9742 10.7135H18.5407ZM0.0250017 10.7135C0.00833563 10.4755 0 10.2374 0 9.9993C0 9.76122 0.00833563 9.52315 0.0250017 9.28507H1.45851C1.43899 9.52315 1.42924 9.76122 1.42924 9.9993C1.42924 10.2374 1.43899 10.4755 1.45851 10.7135H0.0250017ZM2.44133 3.45191C2.59704 3.27287 2.75964 3.09887 2.92916 2.92983C3.09868 2.7608 3.27298 2.59811 3.45202 2.44193L4.46769 3.45749C4.1038 3.76601 3.766 4.10406 3.45773 4.46816L2.44133 3.45191ZM15.5315 3.45749L16.5472 2.44193C16.7263 2.59764 16.9005 2.76032 17.0701 2.92983C17.2396 3.09934 17.402 3.27335 17.5572 3.45191L16.5408 4.46816C16.2326 4.10396 15.8955 3.76589 15.5315 3.45749ZM9.28464 0.0251099C9.52273 0.00844435 9.76081 0 9.9989 0C10.237 0 10.4751 0.00844435 10.7132 0.0251099V1.45707C10.4775 1.43755 10.2394 1.42777 9.9989 1.42777C9.75843 1.42777 9.52035 1.43777 9.28464 1.45777V0.0251099Z" fill="white"/>
<path d="M6.8392 12.1455C6.60444 11.6841 6.4882 11.1716 6.50095 10.6541C6.49277 10.168 6.58376 9.68534 6.76834 9.23557C6.91778 8.87232 7.11786 8.53203 7.36263 8.22482C7.57961 7.96754 7.84839 7.7589 8.15144 7.61249C8.45966 7.45774 8.79993 7.37759 9.14481 7.37852C9.5775 7.35692 10.0012 7.50735 10.3234 7.79699L11.6657 6.67393C11.6387 6.44004 11.625 6.2048 11.6249 5.96935C11.6249 4.45768 12.0244 3.70184 12.8235 3.70184C12.915 3.69746 13.0063 3.71459 13.09 3.75185C13.1737 3.78912 13.2475 3.84548 13.3055 3.91643C13.4273 4.07492 13.4954 4.26809 13.5 4.46793C13.499 4.81972 13.388 5.16239 13.1825 5.44793C12.9122 5.84091 12.5958 6.20001 12.2399 6.51751C12.4047 7.47048 12.5107 8.43269 12.5574 9.39868C12.5585 9.89539 12.4931 10.39 12.3629 10.8694C12.238 11.3283 12.0371 11.763 11.7686 12.1555C11.492 12.5519 11.1131 12.8658 10.6723 13.064C10.1633 13.2911 9.61043 13.4027 9.05323 13.3909C8.67208 13.4153 8.29075 13.3462 7.9424 13.1896C7.59405 13.033 7.28923 12.7937 7.05445 12.4924C6.92537 12.9682 6.86327 13.4595 6.86995 13.9524C6.86329 14.4779 7.01416 14.9934 7.30313 15.4324C7.41659 15.6319 7.58036 15.7982 7.77811 15.9147C7.97587 16.0312 8.2007 16.0938 8.4302 16.0963C8.46451 16.0963 8.48167 16.1303 8.48167 16.1985C8.48836 16.2667 8.4712 16.3008 8.4302 16.3008C8.1604 16.2992 7.89562 16.2277 7.66166 16.0934C7.4277 15.959 7.23255 15.7663 7.09523 15.5341C6.74993 15.0406 6.56718 14.4517 6.57247 13.8495C6.5663 13.2706 6.65644 12.6948 6.8392 12.1455ZM10.4972 7.99018C10.6866 8.24332 10.7873 8.55178 10.7839 8.86791C10.7883 9.16471 10.7361 9.45964 10.6302 9.73694C10.5224 10.0047 10.3426 10.2375 10.1108 10.4094C9.86479 10.6002 9.56099 10.7011 9.24976 10.6955C9.19087 10.6986 9.13283 10.6806 9.08598 10.6447C9.04637 10.5988 9.02145 10.5419 9.01446 10.4816C9.17052 10.4758 9.32346 10.4362 9.46274 10.3655C9.60203 10.2949 9.72437 10.195 9.82132 10.0725C10.1613 9.73046 10.3533 9.2686 10.3561 8.78635C10.3567 8.59036 10.3187 8.39617 10.2445 8.2148C9.54676 8.80033 8.89838 9.44223 8.30586 10.134C7.79362 10.735 7.40025 11.4278 7.1467 12.1756C7.33886 12.4835 7.61096 12.7334 7.934 12.8988C8.25704 13.0642 8.61891 13.1389 8.98103 13.1148C9.44942 13.1257 9.9124 13.0129 10.3234 12.7879C10.7013 12.5875 11.0168 12.2868 11.2352 11.9189C11.6855 11.1195 11.9088 10.2122 11.8809 9.29507C11.8809 9.04327 11.8194 8.27763 11.6964 6.99815L10.4972 7.99018ZM10.0874 8.00021C9.97004 7.88205 9.82902 7.79005 9.6736 7.73026C9.51818 7.67046 9.35187 7.64422 9.18559 7.65327C8.82189 7.64818 8.46383 7.74348 8.15077 7.92868C7.54211 8.32577 7.10644 8.93866 6.93145 9.64402C6.82252 9.98386 6.76748 10.3387 6.76834 10.6955C6.76419 11.0753 6.8299 11.4526 6.9622 11.8086C7.68833 10.31 8.75933 9.00486 10.0874 8.00021ZM12.147 5.44793C12.1512 5.69378 12.1683 5.93923 12.1985 6.18326C12.7344 5.77323 13.0966 5.1767 13.2132 4.51205C13.2132 4.1582 13.0833 3.98127 12.8235 3.98127C12.3725 3.9786 12.147 4.46748 12.147 5.44793Z" fill="#C1A034"/>
</svg>
