<svg width="32" height="32" viewBox="0 0 32 32" fill="none" xmlns="http://www.w3.org/2000/svg">
<g clip-path="url(#clip0_648_0)">
<path d="M31.75 16C31.75 24.6985 24.6985 31.75 16 31.75C7.30152 31.75 0.25 24.6985 0.25 16C0.25 7.30152 7.30152 0.25 16 0.25C24.6985 0.25 31.75 7.30152 31.75 16Z" fill="url(#paint0_linear_648_0)" stroke="white" stroke-width="0.5"/>
<path d="M10.063 20.056C9.6652 19.2739 9.46826 18.4052 9.48989 17.528C9.47544 16.7032 9.62937 15.8841 9.94225 15.1207C10.194 14.5052 10.5314 13.9284 10.9444 13.4073C11.3125 12.9709 11.7685 12.617 12.2826 12.3687C12.8055 12.1055 13.383 11.969 13.9684 11.9702C14.7022 11.9335 15.4207 12.1887 15.967 12.68L18.2477 10.776C18.2017 10.3796 18.1784 9.98089 18.1779 9.58183C18.1779 7.01892 18.8557 5.73746 20.2113 5.73746C20.3665 5.73004 20.5213 5.75907 20.6633 5.82221C20.8052 5.88536 20.9304 5.98087 21.0288 6.1011C21.2351 6.37001 21.3508 6.69751 21.359 7.03637C21.3575 7.63314 21.1693 8.21447 20.8208 8.69892C20.3623 9.36696 19.8251 9.97741 19.2208 10.5171C19.5001 12.1322 19.6798 13.7629 19.759 15.4C19.7606 16.242 19.6495 17.0805 19.4288 17.8931C19.217 18.6716 18.8763 19.4091 18.4208 20.0749C17.9518 20.747 17.3094 21.2793 16.5619 21.6153C15.6987 22.0006 14.7608 22.1898 13.8157 22.1695C13.1695 22.2108 12.5229 22.0937 11.9323 21.8283C11.3416 21.5629 10.8248 21.1572 10.4266 20.6466C10.208 21.4523 10.1028 22.2845 10.1139 23.1193C10.1002 24.01 10.3535 24.8844 10.8412 25.6298C11.0335 25.9682 11.3112 26.2503 11.6465 26.4478C11.9819 26.6454 12.3632 26.7515 12.7524 26.7556C12.8106 26.7556 12.8397 26.8133 12.8397 26.9287C12.8397 27.0441 12.8106 27.1018 12.7524 27.1018C12.2973 27.0984 11.8508 26.9777 11.4559 26.7515C11.061 26.5252 10.7311 26.201 10.4979 25.8102C9.91257 24.9733 9.60292 23.9747 9.61207 22.9535C9.60028 21.9693 9.75267 20.9901 10.063 20.056ZM16.2666 13.0102C16.5883 13.4396 16.7596 13.9631 16.7539 14.4996C16.7612 15.0024 16.6729 15.5019 16.4935 15.9716C16.3098 16.4274 16.0031 16.8232 15.6077 17.1149C15.192 17.4369 14.679 17.6078 14.1532 17.5993C14.0531 17.6041 13.9547 17.5732 13.8753 17.512C13.8079 17.4342 13.7653 17.3379 13.7532 17.2356C14.0185 17.2266 14.2788 17.16 14.5158 17.0404C14.7529 16.9209 14.9612 16.7513 15.1263 16.5433C15.7016 15.9624 16.0259 15.179 16.0295 14.3615C16.0302 14.0287 15.9655 13.6991 15.839 13.3913C14.6533 14.3841 13.5514 15.4729 12.5444 16.6466C11.6782 17.6656 11.0134 18.8399 10.5852 20.1069C10.9098 20.6308 11.3708 21.0565 11.9189 21.3383C12.467 21.6202 13.0815 21.7476 13.6964 21.7069C14.4907 21.7254 15.2759 21.5342 15.9728 21.1527C16.6143 20.8117 17.1493 20.3004 17.519 19.6749C18.2827 18.3193 18.6615 16.7807 18.6143 15.2255C18.6143 14.7988 18.51 13.5004 18.3015 11.3302L16.2666 13.0102ZM15.5713 13.0276C15.3719 12.8285 15.1326 12.6737 14.8691 12.5734C14.6057 12.4732 14.324 12.4297 14.0426 12.4458C13.4256 12.437 12.8181 12.5986 12.287 12.9127C11.2544 13.5859 10.5153 14.6254 10.2186 15.8218C10.0347 16.3959 9.94147 16.9951 9.94225 17.5978C9.93526 18.2431 10.0472 18.8841 10.2724 19.4887C11.503 16.946 13.319 14.7312 15.5713 13.0262V13.0276ZM19.0623 8.69892C19.0694 9.11568 19.0985 9.53178 19.1495 9.94546C20.0602 9.24868 20.6751 8.23445 20.8717 7.10474C20.8717 6.50449 20.6516 6.20437 20.2113 6.20437C19.4472 6.20437 19.0652 7.0354 19.0652 8.69746L19.0623 8.69892Z" fill="white"/>
</g>
<defs>
<linearGradient id="paint0_linear_648_0" x1="16" y1="0" x2="16" y2="32" gradientUnits="userSpaceOnUse">
<stop stop-color="#BF9E32"/>
<stop offset="1" stop-color="#9B7D1C"/>
</linearGradient>
<clipPath id="clip0_648_0">
<rect width="32" height="32" fill="white"/>
</clipPath>
</defs>
</svg>
