<svg width="64" height="64" viewBox="0 0 64 64" fill="none" xmlns="http://www.w3.org/2000/svg">
<circle cx="32" cy="32" r="32" fill="url(#paint0_linear_1705_21878)"/>
<path fill-rule="evenodd" clip-rule="evenodd" d="M31.9998 11.977C20.9695 11.977 12.0252 20.9391 12.0252 31.9998C12.0252 43.0605 20.9695 52.0226 31.9998 52.0226C43.03 52.0226 51.9742 43.0605 51.9742 31.9998C51.9742 20.9431 43.0299 11.977 31.9998 11.977ZM9.99976 31.9998C9.99976 19.8176 19.8512 9.94666 31.9998 9.94666C44.1485 9.94666 54 19.8217 54 31.9998C54 44.1821 44.1484 54.0532 31.9998 54.0532C19.8512 54.0532 9.99976 44.1821 9.99976 31.9998Z" fill="white"/>
<path fill-rule="evenodd" clip-rule="evenodd" d="M40.6841 26.7483L35.1345 26.5168L38.9058 22.4237L37.3868 20.905L33.2995 24.6733L33.0767 19.1102H30.9338L30.7029 24.6733L26.6197 20.8929L25.1047 22.4156L28.8679 26.5127L23.3142 26.732V28.8842L28.8638 29.1156L25.0925 33.2087L26.6116 34.7274L30.634 31.016L30.8123 40.0305L27.6 40.2661V42.2679L30.8609 42.5156L30.9217 45.6464H33.0645L33.1294 42.5197L36.4227 42.2679V40.2661L33.178 40.0305L33.3603 31.02L37.3787 34.7355L38.8937 33.2168L35.1345 29.1196L40.6841 28.8964L40.6841 26.7483Z" fill="white"/>
<defs>
<linearGradient id="paint0_linear_1705_21878" x1="12.2553" y1="7.14894" x2="54.8085" y2="51.4043" gradientUnits="userSpaceOnUse">
<stop stop-color="#FFABA7"/>
<stop offset="0.322917" stop-color="#ED7B75"/>
<stop offset="1" stop-color="#592421"/>
</linearGradient>
</defs>
</svg>
