<svg width="200" height="200" viewBox="0 0 200 200" fill="none" xmlns="http://www.w3.org/2000/svg">
<circle cx="100" cy="100" r="100" fill="url(#paint0_linear_1643_2118)"/>
<path fill-rule="evenodd" clip-rule="evenodd" d="M60.3333 49C54.0741 49 49 54.0741 49 60.3333V139.667C49 145.926 54.0741 151 60.3333 151H139.667C145.926 151 151 145.926 151 139.667V60.3333C151 54.0741 145.926 49 139.667 49H60.3333ZM134.944 57.5C133.901 57.5 133.056 58.3457 133.056 59.3889V65.0556C133.056 66.0988 133.901 66.9444 134.944 66.9444H140.611C141.654 66.9444 142.5 66.0988 142.5 65.0556V59.3889C142.5 58.3457 141.654 57.5 140.611 57.5H134.944Z" fill="white"/>
<path d="M89.6096 126.208H77.3318V74.0273H96.929L110.86 115.347V74.0273H122.901V126.208H103.54L89.6096 85.3607V126.208Z" fill="#9C64EB"/>
<defs>
<linearGradient id="paint0_linear_1643_2118" x1="100" y1="0" x2="100" y2="200" gradientUnits="userSpaceOnUse">
<stop stop-color="#C1B0F7"/>
<stop offset="1" stop-color="#854EE8"/>
</linearGradient>
</defs>
</svg>
