<svg width="200" height="200" viewBox="0 0 200 200" fill="none" xmlns="http://www.w3.org/2000/svg">
<circle cx="100" cy="100" r="100" fill="url(#paint0_linear_1806_2124)"/>
<path d="M145.884 36.366C141.184 36.3782 136.68 38.2526 133.358 41.5787C130.037 44.9047 128.17 49.4113 128.164 54.1116V63.4433C122.937 52.7971 113.984 44.4397 103.003 39.9563C92.0225 35.4729 79.7782 35.1753 68.5929 39.12C59.1716 42.4601 51.0154 48.635 45.2446 56.7967C39.4738 64.9585 36.3715 74.7066 36.3636 84.7024V145.884C36.3636 150.592 38.234 155.107 41.5633 158.437C44.8925 161.766 49.4079 163.636 54.1162 163.636C58.8245 163.636 63.3399 161.766 66.6692 158.437C69.9983 155.107 71.8689 150.592 71.8689 145.884V136.572C77.095 147.214 86.0457 155.568 97.023 160.047C108 164.528 120.24 164.822 131.42 160.875C140.839 157.537 148.992 151.363 154.761 143.204C160.529 135.044 163.63 125.299 163.636 115.306V54.1116C163.63 49.4061 161.757 44.8956 158.429 41.5689C155.101 38.2423 150.589 36.3712 145.884 36.366ZM115.299 158.722C106.018 158.761 96.9724 155.81 89.4997 150.307C82.0273 144.803 76.526 137.039 73.8105 128.165L73.7379 127.907C72.4914 123.823 71.8617 119.576 71.8689 115.306V84.7024C71.8723 81.2972 73.2268 78.0327 75.6354 75.6257C78.0437 73.2186 81.3091 71.8654 84.7144 71.8638C88.1161 71.8726 91.3759 73.228 93.7808 75.6341C96.1856 78.0402 97.5395 81.3006 97.5467 84.7024V115.293C97.5523 120.001 99.4263 124.514 102.757 127.841C105.243 130.316 108.405 131.999 111.845 132.68C115.285 133.36 118.85 133.007 122.09 131.666C125.33 130.324 128.1 128.053 130.052 125.14C132.004 122.226 133.05 118.8 133.058 115.293V54.1116C133.058 52.4264 133.39 50.7578 134.035 49.201C134.68 47.6441 135.625 46.2295 136.817 45.038C138.008 43.8464 139.423 42.9012 140.98 42.2563C142.537 41.6114 144.205 41.2796 145.89 41.2796C147.576 41.2796 149.244 41.6114 150.801 42.2563C152.358 42.9012 153.773 43.8464 154.964 45.038C156.156 46.2295 157.101 47.6441 157.746 49.201C158.391 50.7578 158.723 52.4264 158.723 54.1116V115.293C158.727 120.997 157.607 126.646 155.426 131.916C153.246 137.187 150.047 141.976 146.014 146.01C141.981 150.043 137.193 153.242 131.922 155.424C126.652 157.605 121.003 158.726 115.299 158.722ZM128.164 115.293C128.162 117.831 127.408 120.311 125.998 122.42C124.588 124.53 122.585 126.175 120.242 127.149C117.898 128.122 115.319 128.379 112.829 127.889C110.34 127.399 108.051 126.183 106.251 124.394C104.933 123.088 103.917 121.511 103.273 119.771C103.154 119.46 103.048 119.11 102.942 118.76L102.903 118.582L102.863 118.417C102.804 118.186 102.744 117.955 102.705 117.71C102.705 117.624 102.705 117.532 102.658 117.44V117.301C102.658 117.083 102.592 116.865 102.573 116.64C102.553 116.416 102.573 116.37 102.573 116.191C102.573 116.013 102.573 115.749 102.573 115.531V84.7024C102.568 82.3632 102.102 80.0478 101.202 77.8885C100.302 75.7295 98.985 73.7692 97.3261 72.1197C95.6676 70.4703 93.6998 69.164 91.5357 68.2756C89.3714 67.3876 87.0535 66.9349 84.7144 66.9436C80.006 66.9488 75.4918 68.8215 72.1623 72.1507C68.8331 75.4802 66.9603 79.994 66.9551 84.7024V145.884C66.9551 149.289 65.6024 152.554 63.1947 154.962C60.7869 157.37 57.5213 158.722 54.1162 158.722C50.7111 158.722 47.4455 157.37 45.0377 154.962C42.63 152.554 41.2773 149.289 41.2773 145.884V84.7024C41.2849 74.2909 45.032 64.2288 51.836 56.3483C58.6401 48.4678 68.0486 43.2933 78.3475 41.7673C88.6467 40.2413 99.1514 42.4652 107.948 48.0341C116.745 53.603 123.249 62.1463 126.276 72.1081L126.454 72.6893C127.584 76.5938 128.16 80.6378 128.164 84.7024V115.293Z" fill="url(#paint1_linear_1806_2124)"/>
<defs>
<linearGradient id="paint0_linear_1806_2124" x1="100" y1="0" x2="100" y2="200" gradientUnits="userSpaceOnUse">
<stop stop-color="#3E3E3E"/>
<stop offset="1"/>
</linearGradient>
<linearGradient id="paint1_linear_1806_2124" x1="45.0915" y1="154.73" x2="196.759" y2="2.83091" gradientUnits="userSpaceOnUse">
<stop offset="0.05" stop-color="white"/>
<stop offset="0.38" stop-color="#A7B3FF"/>
<stop offset="1" stop-color="#74A4FF"/>
</linearGradient>
</defs>
</svg>
