<svg width="64" height="64" viewBox="0 0 64 64" fill="none" xmlns="http://www.w3.org/2000/svg">
<circle cx="32" cy="32" r="32" fill="url(#paint0_linear_1788_20857)"/>
<path fill-rule="evenodd" clip-rule="evenodd" d="M51.8213 32.413C51.8172 32.5482 51.6331 32.5839 51.58 32.4593C51.5572 32.4056 51.5338 32.3516 51.5101 32.2977C51.4667 32.199 51.4789 32.0842 51.5437 31.9978C51.557 31.9802 51.5843 31.9445 51.6169 31.9019C51.7044 31.7875 51.8305 31.8045 51.8305 31.9315C51.8305 32.0981 51.8266 32.2423 51.8213 32.413ZM50.8528 29.768C50.7036 30.0366 50.3212 30.0489 50.1556 29.7899C50.1299 29.7499 50.104 29.7099 50.0779 29.6697C49.481 28.7531 48.794 27.8534 48.0268 26.9791C47.8384 26.7644 47.9924 26.4275 48.2781 26.4273H48.285C50.0779 26.4273 51.0178 26.8702 51.3047 27.4109C51.5441 27.8632 51.4707 28.6542 50.8528 29.768ZM50.4521 39.1438C50.3559 39.3885 50.2553 39.6316 50.1495 39.8724C50.133 39.9056 50.1175 39.9391 50.1005 39.9721C49.4406 41.2422 48.3333 42.2424 46.8536 42.9384C46.5216 43.0944 46.1584 42.7906 46.2573 42.4374C46.7486 40.6789 47.1204 38.7718 47.3614 36.7725C47.4063 36.3997 47.5902 36.0575 47.8743 35.8118C48.4828 35.2853 49.0511 34.7596 49.5738 34.2377L49.5795 34.2318C49.8367 33.9751 50.2755 34.0856 50.3803 34.4337C50.8967 36.1505 50.9254 37.7495 50.4521 39.1438ZM46.4299 45.4928C46.2794 45.6537 46.1258 45.8126 45.9692 45.9692C45.6965 46.2416 45.4172 46.5051 45.1319 46.7596C44.952 46.9199 44.6798 46.7194 44.7817 46.5008C44.8107 46.4384 44.8396 46.3756 44.8682 46.3122C44.9881 46.0479 45.1039 45.7767 45.2165 45.5004C45.2432 45.4353 45.2993 45.3866 45.3676 45.3692C45.6513 45.2971 45.928 45.2177 46.1974 45.1307C46.4158 45.0605 46.5869 45.3252 46.4299 45.4928ZM43.4762 43.9053C42.8789 43.9919 42.2508 44.0478 41.5937 44.071C39.9903 44.1271 38.295 43.9887 36.5535 43.6681C36.3412 43.6291 36.3004 43.342 36.4929 43.2447C36.8728 43.0524 37.2528 42.8557 37.6327 42.6544C40.2974 41.242 42.7837 39.6982 44.9602 38.1152C45.1235 37.9965 45.3484 38.1366 45.3152 38.3358C45.0134 40.1499 44.5955 41.8576 44.0706 43.4077C43.9811 43.6718 43.7523 43.8653 43.4762 43.9053ZM42.8603 46.3222C41.4316 49.1321 39.6721 50.7097 37.9665 50.6779C36.1128 50.645 34.2644 48.7145 32.8955 45.3821L32.894 45.3784C32.807 45.1668 32.9069 44.9247 33.1165 44.8337C33.131 44.8272 33.1455 44.8209 33.16 44.8144C33.2499 44.7754 33.3508 44.7683 33.4454 44.795C36.0058 45.5136 38.5287 45.8886 40.8924 45.8886C41.1492 45.8886 41.4043 45.8842 41.6572 45.8754C41.9533 45.8648 42.2447 45.8481 42.531 45.8254C42.7965 45.8044 42.9811 46.0848 42.8603 46.3222ZM34.4 51.6657C33.5505 51.7748 32.6885 51.8307 31.8181 51.8307C27.9282 51.8307 24.2076 50.7284 21.0133 48.6714C20.7936 48.5297 20.887 48.1887 21.1481 48.1767C21.2023 48.1741 21.2529 48.1714 21.2975 48.1686C22.1092 48.1159 22.9993 47.997 23.9637 47.8111C26.0152 47.4165 28.2957 46.7396 30.6835 45.8279C30.8976 45.7463 31.1366 45.8524 31.2237 46.0644L31.2253 46.0681C32.1507 48.3211 33.2896 50.0235 34.5683 51.1065C34.7797 51.2856 34.6747 51.6304 34.4 51.6657ZM22.827 37.6437C24.5905 36.2078 26.6567 34.7749 28.9232 33.4185C28.9719 36.3174 29.2898 39.1007 29.8523 41.6146C29.0117 41.2562 28.1737 40.8614 27.3429 40.4299C25.7336 39.5936 24.2196 38.6568 22.827 37.6437ZM17.3428 45.4113C16.9221 44.6176 17.4658 42.779 20.2281 39.9846L20.2294 39.9833C20.5179 39.6919 20.4902 39.2137 20.1682 38.96C20.0575 38.873 19.9477 38.7851 19.8386 38.6972C19.5635 38.4749 19.1653 38.4953 18.9155 38.7455C18.8608 38.8002 18.82 38.8414 18.808 38.8538C17.4272 40.2711 16.4608 41.5831 15.9194 42.7631C15.766 43.0975 15.3025 43.1336 15.0996 42.8267C12.9567 39.5873 11.8056 35.7914 11.8056 31.8181C11.8056 30.3976 11.9532 28.9998 12.2403 27.6419C12.2836 27.4365 12.5734 27.4233 12.6343 27.6242C13.0495 28.995 13.7253 30.4129 14.6591 31.8467C15.9161 33.7772 17.5738 35.6328 19.5381 37.3351C20.2086 37.9161 20.9168 38.478 21.6554 39.0202C23.1525 40.1188 24.7794 41.1327 26.5103 42.032C27.2775 42.4307 28.0247 42.8112 28.79 43.1558C29.216 43.3475 29.7009 43.3624 30.1357 43.1917C30.4965 43.0504 30.8599 42.9034 31.2255 42.7506C31.623 42.5848 31.8387 42.1513 31.7333 41.7336C31.7202 41.6814 31.7098 41.6394 31.7039 41.6146C31.1013 39.0787 30.7663 36.2239 30.7269 33.2336L30.7257 33.2342C30.7253 33.1987 30.7255 33.1626 30.7251 33.1267C30.7234 32.9632 30.7243 32.7986 30.7214 32.6355C30.7204 32.5835 30.722 32.4954 30.7226 32.4432C30.723 32.4224 30.7226 32.4018 30.7226 32.3812L30.7234 32.381C30.7243 32.1938 30.7257 32.0069 30.7291 31.8191C30.7383 31.3061 30.7567 30.7969 30.7832 30.2919L30.7822 30.2925C30.9681 26.6841 31.5799 23.2936 32.5533 20.4415C32.6434 20.1776 32.5027 19.8911 32.2388 19.8011C31.9815 19.7132 31.7245 19.6292 31.4678 19.5487C31.2082 19.4673 30.9308 19.6074 30.8431 19.865C29.788 22.9624 29.1369 26.637 28.9633 30.5256C28.9411 31.0189 28.6727 31.4678 28.2478 31.7196C25.9448 33.0845 23.8297 34.5314 22.0025 35.99C21.6218 36.2939 21.0781 36.2823 20.71 35.9631C18.8786 34.3752 17.3373 32.6507 16.1722 30.8613C13.8824 27.3454 13.3383 24.0332 14.6404 21.5365C14.644 21.5306 14.6471 21.5245 14.6505 21.5188C14.8165 21.2433 14.9891 20.9715 15.1689 20.7035C16.6651 18.723 19.4498 17.5753 23.1431 17.4456C23.3768 17.4374 23.6121 17.4333 23.8495 17.4333C26.1149 17.4333 28.5461 17.8071 31.0187 18.5205L31.0193 18.5199C31.0734 18.5356 31.1276 18.5519 31.1817 18.5678C31.2235 18.5802 31.2653 18.5918 31.3071 18.6043C31.8785 18.775 32.4515 18.9644 33.0252 19.1708C33.0386 19.1755 33.0521 19.1804 33.0655 19.1851C33.215 19.2391 33.3643 19.2944 33.5136 19.3507C33.5603 19.3684 33.6072 19.3863 33.6539 19.4043C33.6989 19.4216 33.7438 19.4383 33.7889 19.4557L33.7883 19.4565C34.9959 19.9239 36.2025 20.4674 37.3939 21.0867C39.7001 22.2849 41.8111 23.6894 43.6481 25.2303C40.1422 26.0335 36.0671 27.5828 31.9698 29.6718C31.7808 29.7684 31.6564 29.9583 31.6444 30.1702C31.6301 30.4241 31.6113 30.9347 31.5977 31.3405C31.5893 31.5952 31.8587 31.7639 32.0844 31.6454L32.0867 31.644C36.1434 29.5139 40.192 27.9217 43.6689 27.0803C44.3188 26.9231 44.7395 26.299 44.6482 25.6367C44.5843 25.174 44.5123 24.7186 44.4326 24.2712C44.3325 23.7092 44.0248 23.2067 43.5708 22.861C41.9423 21.6204 40.1477 20.4826 38.2265 19.4842C36.9318 18.8115 35.6181 18.2221 34.3017 17.7194C34.0201 17.6118 33.8994 17.279 34.0464 17.0159C35.4027 14.5896 37.0158 13.2308 38.5873 13.2308C38.6036 13.2308 38.6199 13.2308 38.6362 13.2312C40.4899 13.2643 42.3383 15.1946 43.7072 18.527C44.4 20.2139 44.9369 22.1593 45.3038 24.2734C45.3018 24.2716 45.2999 24.27 45.2981 24.2683C45.4547 25.1705 45.5809 26.1029 45.6745 27.0595C45.6664 27.0646 45.6578 27.0691 45.6498 27.0742C45.6607 27.0854 45.6723 27.0966 45.6835 27.108C45.8387 28.7131 45.9043 30.3845 45.8736 32.09C45.8544 33.1689 45.7969 34.2328 45.7039 35.2737C43.2239 37.278 40.1575 39.2725 36.787 41.0588C35.6793 41.6458 34.5719 42.1923 33.4752 42.6954C33.4581 42.7033 33.4412 42.7109 33.4242 42.7188C33.3404 42.7571 33.2564 42.7959 33.1726 42.8338L33.1706 42.8332C32.2619 43.2443 31.3619 43.6245 30.4767 43.9719L30.4771 43.9726C30.4271 43.9923 30.3774 44.0111 30.3276 44.0305C30.2654 44.0549 30.2032 44.0788 30.1412 44.1027C29.9926 44.1596 29.8447 44.2158 29.6971 44.2709C29.6565 44.286 29.6157 44.3019 29.5751 44.3168C29.3959 44.3833 29.2178 44.4479 29.0402 44.5115C29.018 44.5193 28.9958 44.5278 28.9739 44.5356L28.9731 44.5352C27.0762 45.2108 25.2692 45.7212 23.6225 46.0381C19.6433 46.8041 17.7696 46.2164 17.3428 45.4113ZM20.2008 15.5187C23.5687 13.107 27.5932 11.8056 31.8181 11.8056C32.9332 11.8056 34.034 11.8969 35.1126 12.0748C35.4015 12.1225 35.4984 12.4912 35.2681 12.672C34.2228 13.4914 33.2517 14.7038 32.3922 16.2762C32.1825 16.6598 31.7376 16.8474 31.3169 16.7288C28.4696 15.9273 25.6681 15.5501 23.0797 15.641C22.1249 15.6745 21.2207 15.7713 20.3713 15.9279C20.1327 15.9718 20.0036 15.6598 20.2008 15.5187ZM47.6714 30.1039C47.6655 29.8745 47.9599 29.7766 48.0929 29.9634C48.2564 30.1928 48.4139 30.4233 48.5648 30.6551C48.7654 30.9631 48.952 31.2694 49.1254 31.5738C49.2335 31.7635 49.2076 32.0016 49.0605 32.1628C48.8268 32.4195 48.5733 32.6848 48.298 32.9599C48.1975 33.0602 48.0951 33.1606 47.9907 33.2613C47.8612 33.3865 47.644 33.2911 47.651 33.111C47.6638 32.7827 47.6732 32.4533 47.6791 32.1222C47.6912 31.4441 47.6883 30.7708 47.6714 30.1039ZM45.596 17.3036C45.7218 17.4229 45.8462 17.5441 45.9692 17.6672C47.8977 19.5956 49.3831 21.849 50.3763 24.3032C50.4766 24.5506 50.2665 24.8096 50.0037 24.7623C49.429 24.6591 48.7822 24.613 48.0662 24.625C47.57 24.6332 47.1387 24.2855 47.0516 23.7969C46.6625 21.6151 46.0999 19.5998 45.3774 17.8408C45.3362 17.7406 45.2946 17.6415 45.2524 17.5434C45.1606 17.3293 45.427 17.1431 45.596 17.3036ZM53.165 27.2803C52.3028 23.1837 50.2755 19.4198 47.2458 16.3902C43.125 12.2693 37.6461 10 31.8181 10C25.9903 10 20.5112 12.2693 16.3904 16.3902C15.3881 17.3925 14.4966 18.4754 13.7194 19.6237C13.4882 19.9314 13.2812 20.2563 13.0972 20.5964C11.0782 23.9512 10 27.8018 10 31.8181C10 37.6461 12.2695 43.125 16.3904 47.2458C20.5112 51.3667 25.9903 53.6364 31.8181 53.6364C37.6461 53.6364 43.125 51.3667 47.2458 47.2458C49.1908 45.3011 50.7227 43.0535 51.7987 40.6098C51.9302 40.339 52.045 40.0618 52.1437 39.779C53.1232 37.276 53.6364 34.5866 53.6364 31.8181C53.6364 30.2942 53.4798 28.7949 53.177 27.3368C53.1729 27.3179 53.1692 27.2991 53.165 27.2803Z" fill="white"/>
<defs>
<linearGradient id="paint0_linear_1788_20857" x1="12.2553" y1="7.14894" x2="54.8085" y2="51.4043" gradientUnits="userSpaceOnUse">
<stop stop-color="#C42CFA"/>
<stop offset="0.4375" stop-color="#7828F7"/>
<stop offset="1" stop-color="#5411BE"/>
</linearGradient>
</defs>
</svg>
