<svg width="34" height="34" viewBox="0 0 34 34" fill="none" xmlns="http://www.w3.org/2000/svg">
<g clip-path="url(#clip0_613_632)">
<path d="M32.9591 16.9991C32.9591 25.8135 25.8135 32.9591 16.9991 32.9591C8.1846 32.9591 1.03906 25.8135 1.03906 16.9991C1.03906 8.1846 8.1846 1.03906 16.9991 1.03906C25.8135 1.03906 32.9591 8.1846 32.9591 16.9991Z" fill="url(#paint0_linear_613_632)" stroke="white" stroke-width="0.5"/>
<path d="M24.0686 9.93137C20.1701 6.02288 13.8315 6.02288 9.93137 9.93137C6.02288 13.8399 6.02288 20.1685 9.93137 24.0686C13.8399 27.9771 20.1685 27.9771 24.0686 24.0686C27.9771 20.1701 27.9771 13.8299 24.0686 9.93137ZM23.2086 23.2086C19.7802 26.6371 14.2099 26.6371 10.7814 23.2086C7.35292 19.7802 7.35292 14.2099 10.7814 10.7814C14.2099 7.35292 19.7802 7.35292 23.2086 10.7814C26.6488 14.2199 26.6488 19.7802 23.2086 23.2086Z" fill="white"/>
<path d="M22.3987 22.8295V11.1724C21.8907 10.6913 21.3226 10.2778 20.7086 9.94234V21.0895L13.3516 9.90234C12.7127 10.2392 12.1237 10.6633 11.6016 11.1624V22.8295C12.1096 23.3106 12.6776 23.7241 13.2916 24.0596V12.9125L20.6502 24.0996C21.2888 23.7588 21.8771 23.3314 22.3987 22.8295Z" fill="white"/>
</g>
<defs>
<linearGradient id="paint0_linear_613_632" x1="16.9991" y1="0.999063" x2="16.9991" y2="32.9991" gradientUnits="userSpaceOnUse">
<stop stop-color="#3B507C"/>
<stop offset="1" stop-color="#17243E"/>
</linearGradient>
<clipPath id="clip0_613_632">
<rect width="34" height="34" fill="white"/>
</clipPath>
</defs>
</svg>
