<svg width="34" height="34" viewBox="0 0 34 34" fill="none" xmlns="http://www.w3.org/2000/svg">
<g clip-path="url(#clip0_613_636)">
<path d="M32.9591 16.9991C32.9591 25.8135 25.8135 32.9591 16.9991 32.9591C8.1846 32.9591 1.03906 25.8135 1.03906 16.9991C1.03906 8.1846 8.1846 1.03906 16.9991 1.03906C25.8135 1.03906 32.9591 8.1846 32.9591 16.9991Z" fill="url(#paint0_linear_613_636)" stroke="white" stroke-width="0.5"/>
<path d="M24.3529 9.64823C20.2985 5.5834 13.7064 5.5834 9.65019 9.64823C5.58535 13.7131 5.58535 20.2948 9.65019 24.351C13.715 28.4158 20.2968 28.4158 24.3529 24.351C28.4177 20.2966 28.4177 13.7027 24.3529 9.64823ZM23.4585 23.4566C19.8929 27.0222 14.0998 27.0222 10.5342 23.4566C6.96862 19.891 6.96862 14.0979 10.5342 10.5323C14.0998 6.96667 19.8929 6.96667 23.4585 10.5323C27.0363 14.1083 27.0363 19.891 23.4585 23.4566Z" fill="white"/>
<path d="M22.6158 23.0615V10.9381C22.0874 10.4377 21.4966 10.0077 20.858 9.6588V21.2519L13.2068 9.61719C12.5423 9.96751 11.9297 10.4086 11.3867 10.9277V23.0615C11.915 23.5618 12.5058 23.9919 13.1444 24.3407V12.7477L20.7974 24.3823C21.4614 24.0279 22.0734 23.5834 22.6158 23.0615Z" fill="white"/>
</g>
<defs>
<linearGradient id="paint0_linear_613_636" x1="16.9991" y1="0.999063" x2="16.9991" y2="32.9991" gradientUnits="userSpaceOnUse">
<stop stop-color="#F4731B"/>
<stop offset="1" stop-color="#F12F4E"/>
</linearGradient>
<clipPath id="clip0_613_636">
<rect width="34" height="34" fill="white"/>
</clipPath>
</defs>
</svg>
