<svg width="32" height="32" viewBox="0 0 32 32" fill="none" xmlns="http://www.w3.org/2000/svg">
<g clip-path="url(#clip0_613_561)">
<path d="M16 32C24.8366 32 32 24.8366 32 16C32 7.16344 24.8366 0 16 0C7.16344 0 0 7.16344 0 16C0 24.8366 7.16344 32 16 32Z" fill="url(#paint0_linear_613_561)"/>
<path d="M12.5404 23H10L12.8669 9H15.4119L14.24 14.74H14.7007L19.048 9H22V9.24138L16.8789 15.8793V16.2414L20.1126 22.8794V23H17.3038L14.5129 17.26H13.7033L12.5404 23Z" fill="white"/>
<path d="M16 31.75C24.698 31.75 31.75 24.698 31.75 16C31.75 7.302 24.698 0.25 16 0.25C7.302 0.25 0.25 7.302 0.25 16C0.25 24.698 7.302 31.75 16 31.75Z" stroke="white" stroke-width="0.5"/>
</g>
<defs>
<linearGradient id="paint0_linear_613_561" x1="16" y1="0" x2="16" y2="32" gradientUnits="userSpaceOnUse">
<stop stop-color="#29655D"/>
<stop offset="1" stop-color="#061F1C"/>
</linearGradient>
<clipPath id="clip0_613_561">
<rect width="32" height="32" fill="white"/>
</clipPath>
</defs>
</svg>
