<svg width="21" height="21" viewBox="0 0 21 21" fill="none" xmlns="http://www.w3.org/2000/svg">
<path d="M10.966 19.0036C15.92 19.0036 19.936 14.9878 19.936 10.034C19.936 5.08026 15.92 1.06445 10.966 1.06445C6.01207 1.06445 1.99609 5.08026 1.99609 10.034C1.99609 14.9878 6.01207 19.0036 10.966 19.0036Z" fill="white"/>
<path d="M10.9665 19.9997C8.99528 19.9996 7.06836 19.4151 5.42939 18.32C3.79042 17.2249 2.513 15.6684 1.75866 13.8474C1.00432 12.0263 0.80695 10.0225 1.1915 8.08922C1.57605 6.15599 2.52526 4.3802 3.91908 2.98641C4.84129 2.04652 5.94061 1.29869 7.15352 0.786119C8.36644 0.273549 9.66891 0.00640218 10.9857 0.000113669C12.3024 -0.00617484 13.6074 0.24852 14.8252 0.749482C16.0429 1.25044 17.1493 1.98774 18.0805 2.91878C19.0116 3.84981 19.749 4.95612 20.2501 6.17379C20.7512 7.39147 21.006 8.69635 20.9998 10.0131C20.9936 11.3298 20.7265 12.6322 20.214 13.8451C19.7015 15.058 18.9537 16.1573 18.0138 17.0796C17.0906 18.0081 15.9924 18.7443 14.7827 19.2456C13.573 19.7468 12.2759 20.0031 10.9665 19.9997ZM10.9665 1.49048C9.27698 1.49048 7.62544 1.99144 6.22068 2.93C4.81592 3.86857 3.72102 5.20259 3.07444 6.76338C2.42786 8.32417 2.25863 10.0416 2.58816 11.6986C2.91769 13.3555 3.73117 14.8776 4.92574 16.0723C6.12032 17.2669 7.64233 18.0805 9.29932 18.4102C10.9563 18.74 12.6739 18.5709 14.2348 17.9246C15.7957 17.2782 17.1299 16.1835 18.0687 14.7789C19.0075 13.3743 19.5086 11.7229 19.5088 10.0335C19.5065 7.76864 18.6057 5.59723 17.0043 3.99565C15.4028 2.39406 13.2314 1.49312 10.9665 1.49048Z" fill="#25619C"/>
<path opacity="0.41" d="M10.254 19.9758V18.5466C10.4892 18.5659 10.7267 18.5755 10.9666 18.5755C11.2065 18.5755 11.4437 18.5659 11.6782 18.5466V19.9758C11.4423 19.9924 11.2051 20.0007 10.9666 20.0007C10.7281 20.0007 10.4905 19.9924 10.254 19.9758ZM16.4801 16.5534C16.8425 16.2462 17.1789 15.9095 17.4857 15.5468L18.4983 16.5604C18.3435 16.7391 18.1817 16.9125 18.013 17.0806C17.8442 17.2487 17.6708 17.4105 17.4927 17.566L16.4801 16.5534ZM3.9222 17.0806C3.75344 16.9119 3.59131 16.7384 3.43583 16.5604L4.44844 15.5468C4.75566 15.9095 5.09235 16.2462 5.45507 16.5534L4.44047 17.566C4.26173 17.4118 4.08798 17.25 3.91921 17.0806H3.9222ZM19.482 10.7461C19.502 10.5109 19.5119 10.2737 19.5119 10.0335C19.5119 9.79335 19.502 9.55715 19.483 9.32195H20.9123C20.9262 9.55715 20.9332 9.79468 20.9332 10.0345C20.9332 10.2744 20.9249 10.5119 20.9083 10.7471L19.482 10.7461ZM1.02791 10.7461C1.0093 10.5103 1 10.2731 1 10.0345C1 9.79601 1.00831 9.55882 1.02492 9.32295H2.45413C2.43486 9.55815 2.42522 9.79535 2.42522 10.0345C2.42522 10.2747 2.43519 10.5119 2.45512 10.7471L1.02791 10.7461ZM3.43384 3.50868C3.58866 3.32996 3.75078 3.15654 3.92021 2.98845C4.08964 2.82035 4.26339 2.65824 4.44146 2.5021L5.45307 3.51367C5.09047 3.821 4.75379 4.15766 4.44645 4.52025L3.43384 3.50868ZM16.4801 3.51466L17.4927 2.5021C17.6708 2.65757 17.8445 2.81969 18.014 2.98845C18.1834 3.15721 18.3452 3.33062 18.4993 3.50868L17.4867 4.52025C17.1795 4.15788 16.8428 3.82154 16.4801 3.51466ZM10.254 0.0932748C10.4899 0.0766645 10.7274 0.0683594 10.9666 0.0683594C11.2058 0.0683594 11.443 0.0766645 11.6782 0.0932748V1.52043C11.4437 1.50116 11.2065 1.49153 10.9666 1.49153C10.7267 1.49153 10.4892 1.5015 10.254 1.52143V0.0932748Z" fill="white" stroke="white" stroke-width="0.1"/>
<path d="M7.83008 12.8318C7.83008 11.0592 9.21541 9.61133 11.013 9.61133C12.6614 9.61133 13.9849 11.0433 13.9849 12.7821C13.983 12.9615 13.9704 13.1407 13.9473 13.3187H9.26591C9.46565 14.3053 10.2646 14.817 11.1886 14.817C11.8197 14.8194 12.4369 14.6325 12.9606 14.2804L13.5101 15.3039C12.8181 15.7779 12.0003 16.0343 11.1615 16.0403C9.40309 16.0403 7.83008 14.8668 7.83008 12.8318ZM12.6358 12.299C12.5823 11.8874 12.3796 11.5097 12.0662 11.2376C11.7528 10.9654 11.3504 10.8177 10.9354 10.8225C10.1365 10.8225 9.43701 11.4089 9.25009 12.2952L12.6358 12.299Z" fill="#636466"/>
<path d="M16.0264 6.921C15.9215 6.92074 15.821 6.87902 15.7467 6.80493C15.1116 6.1682 14.3571 5.66302 13.5265 5.31833C12.6958 4.97364 11.8053 4.79622 10.906 4.79622C10.0066 4.79622 9.11612 4.97364 8.28546 5.31833C7.4548 5.66302 6.70031 6.1682 6.06521 6.80493C5.98963 6.87139 5.89156 6.90656 5.79096 6.90326C5.69036 6.89997 5.5948 6.85847 5.52372 6.7872C5.45265 6.71594 5.4114 6.62027 5.40838 6.51967C5.40536 6.41907 5.44079 6.32109 5.50746 6.24569C6.21609 5.53567 7.05779 4.97237 7.9844 4.58803C8.91101 4.20369 9.90432 4.00586 10.9075 4.00586C11.9106 4.00586 12.9039 4.20369 13.8306 4.58803C14.7572 4.97237 15.5989 5.53567 16.3075 6.24569C16.3638 6.30086 16.4024 6.3716 16.4182 6.44883C16.434 6.52605 16.4265 6.60625 16.3964 6.67914C16.3664 6.75202 16.3152 6.81427 16.2496 6.8579C16.1839 6.90153 16.1067 6.92455 16.0279 6.92401L16.0264 6.921Z" fill="#296FA8"/>
<path d="M14.9094 8.03253C14.8571 8.03284 14.8053 8.02266 14.757 8.00259C14.7087 7.98253 14.6649 7.95298 14.6282 7.91571C14.1397 7.42615 13.5594 7.03774 12.9206 6.77273C12.2817 6.50772 11.5969 6.37131 10.9052 6.37131C10.2136 6.37131 9.52877 6.50772 8.88993 6.77273C8.25108 7.03774 7.67078 7.42615 7.18225 7.91571C7.14553 7.95238 7.10195 7.98146 7.05399 8.00129C7.00603 8.02111 6.95463 8.0313 6.90273 8.03127C6.85084 8.03123 6.79946 8.02097 6.75152 8.00108C6.70359 7.98119 6.66004 7.95205 6.62337 7.91533C6.5867 7.87861 6.55762 7.83503 6.53779 7.78707C6.51797 7.73911 6.50778 7.68772 6.50781 7.63583C6.50785 7.58393 6.5181 7.53255 6.538 7.48462C6.55789 7.43669 6.58703 7.39315 6.62375 7.35648C7.18559 6.79337 7.85299 6.34662 8.58774 6.0418C9.32249 5.73698 10.1101 5.58008 10.9056 5.58008C11.7011 5.58008 12.4888 5.73698 13.2235 6.0418C13.9582 6.34662 14.6257 6.79337 15.1875 7.35648C15.2438 7.41165 15.2824 7.48238 15.2982 7.55961C15.314 7.63683 15.3065 7.71703 15.2764 7.78992C15.2464 7.8628 15.1952 7.92505 15.1296 7.96868C15.0639 8.01231 14.9867 8.03533 14.9079 8.03479L14.9094 8.03253Z" fill="#296FA8"/>
<path d="M13.7947 9.15057C13.6899 9.15059 13.5893 9.10913 13.515 9.03525C13.1734 8.69263 12.7674 8.42079 12.3205 8.23531C11.8736 8.04983 11.3944 7.95436 10.9106 7.95436C10.4267 7.95436 9.94754 8.04983 9.50062 8.23531C9.0537 8.42079 8.64777 8.69263 8.30609 9.03525C8.23108 9.10515 8.13186 9.1432 8.02935 9.14139C7.92683 9.13958 7.82902 9.09805 7.75653 9.02556C7.68403 8.95306 7.6425 8.85525 7.64069 8.75274C7.63888 8.65024 7.67693 8.55103 7.74683 8.47602C8.1621 8.05954 8.65549 7.7291 9.1987 7.50363C9.74192 7.27817 10.3243 7.16211 10.9124 7.16211C11.5006 7.16211 12.083 7.27817 12.6262 7.50363C13.1694 7.7291 13.6628 8.05954 14.0781 8.47602C14.1334 8.53125 14.1712 8.60169 14.1865 8.67839C14.2018 8.75509 14.1939 8.83461 14.164 8.90687C14.134 8.97912 14.0833 9.04085 14.0182 9.08424C13.9532 9.12762 13.8767 9.15071 13.7984 9.15057H13.7947Z" fill="#296FA8"/>
</svg>
