<svg width="32" height="32" viewBox="0 0 32 32" fill="none" xmlns="http://www.w3.org/2000/svg">
<g clip-path="url(#clip0_5016_71359)">
<path d="M16 32C24.8366 32 32 24.8366 32 16C32 7.16344 24.8366 0 16 0C7.16344 0 0 7.16344 0 16C0 24.8366 7.16344 32 16 32Z" fill="url(#paint0_linear_5016_71359)"/>
<path d="M16 31.75C24.6985 31.75 31.75 24.6985 31.75 16C31.75 7.30152 24.6985 0.25 16 0.25C7.30152 0.25 0.25 7.30152 0.25 16C0.25 24.6985 7.30152 31.75 16 31.75Z" stroke="white" stroke-width="0.5"/>
<path d="M10.5762 20.5988C10.5762 17.6245 12.9651 15.1953 16.065 15.1953C18.9075 15.1953 21.1899 17.598 21.1899 20.5153C21.1864 20.8165 21.1647 21.1171 21.1249 21.4157H13.0522C13.3966 23.071 14.7743 23.9297 16.3678 23.9297C17.456 23.9336 18.5204 23.62 19.4235 23.0293L20.371 24.7466C19.1777 25.5418 17.7674 25.972 16.321 25.9821C13.2887 25.9821 10.5762 24.0131 10.5762 20.5988ZM18.8633 19.7048C18.7711 19.0142 18.4216 18.3805 17.8811 17.9239C17.3407 17.4673 16.6468 17.2195 15.9311 17.2275C14.5534 17.2275 13.3472 18.2113 13.0249 19.6984L18.8633 19.7048Z" fill="white"/>
<path d="M24.7108 10.6919C24.5299 10.6915 24.3566 10.6215 24.2286 10.4972C23.1334 9.42884 21.8323 8.58124 20.3999 8.0029C18.9674 7.42457 17.4318 7.12688 15.881 7.12688C14.3301 7.12688 12.7945 7.42457 11.3621 8.0029C9.92963 8.58124 8.62856 9.42884 7.53336 10.4972C7.40302 10.6087 7.2339 10.6677 7.06043 10.6622C6.88696 10.6566 6.72217 10.587 6.5996 10.4674C6.47704 10.3479 6.40591 10.1873 6.4007 10.0186C6.39549 9.84976 6.45658 9.68538 6.57155 9.55887C7.79354 8.36757 9.24501 7.42243 10.8429 6.77757C12.4408 6.13271 14.1537 5.80078 15.8836 5.80078C17.6134 5.80078 19.3263 6.13271 20.9242 6.77757C22.5221 7.42243 23.9736 8.36757 25.1956 9.55887C25.2927 9.65144 25.3592 9.77012 25.3865 9.89969C25.4138 10.0293 25.4007 10.1638 25.3489 10.2861C25.2971 10.4084 25.2089 10.5128 25.0957 10.5861C24.9824 10.6593 24.8493 10.6979 24.7134 10.697L24.7108 10.6919Z" fill="#296FA8"/>
<path d="M22.7809 12.568C22.6908 12.5685 22.6014 12.5514 22.5181 12.5177C22.4349 12.4841 22.3594 12.4345 22.2961 12.3719C21.4537 11.5505 20.453 10.8989 19.3514 10.4542C18.2497 10.0096 17.0688 9.78069 15.8761 9.78069C14.6834 9.78069 13.5024 10.0096 12.4008 10.4542C11.2991 10.8989 10.2984 11.5505 9.456 12.3719C9.39268 12.4335 9.31752 12.4823 9.23481 12.5155C9.15211 12.5488 9.06348 12.5659 8.97399 12.5658C8.8845 12.5658 8.79589 12.5486 8.71323 12.5152C8.63057 12.4818 8.55548 12.4329 8.49225 12.3713C8.42901 12.3097 8.37886 12.2366 8.34467 12.1561C8.31048 12.0756 8.29291 11.9894 8.29297 11.9023C8.29303 11.8153 8.31071 11.7291 8.34502 11.6486C8.37932 11.5682 8.42957 11.4952 8.49289 11.4336C9.46175 10.4888 10.6127 9.73926 11.8797 9.22782C13.1467 8.71638 14.505 8.45313 15.8767 8.45312C17.2485 8.45313 18.6067 8.71638 19.8738 9.22782C21.1408 9.73926 22.2917 10.4888 23.2606 11.4336C23.3577 11.5262 23.4241 11.6449 23.4515 11.7745C23.4788 11.904 23.4657 12.0386 23.4139 12.1609C23.3621 12.2832 23.2739 12.3876 23.1607 12.4608C23.0474 12.534 22.9143 12.5727 22.7783 12.5717L22.7809 12.568Z" fill="#296FA8"/>
<path d="M20.8525 14.4457C20.6718 14.4457 20.4985 14.3762 20.3703 14.2522C19.7811 13.6773 19.0811 13.2212 18.3104 12.91C17.5397 12.5988 16.7135 12.4386 15.879 12.4386C15.0446 12.4386 14.2184 12.5988 13.4477 12.91C12.677 13.2212 11.977 13.6773 11.3878 14.2522C11.2584 14.3695 11.0873 14.4333 10.9106 14.4303C10.7338 14.4273 10.5651 14.3576 10.4401 14.2359C10.3151 14.1143 10.2435 13.9502 10.2403 13.7782C10.2372 13.6062 10.3028 13.4398 10.4234 13.3139C11.1395 12.6151 11.9903 12.0607 12.9271 11.6824C13.8638 11.3041 14.8681 11.1094 15.8823 11.1094C16.8965 11.1094 17.9008 11.3041 18.8375 11.6824C19.7743 12.0607 20.6251 12.6151 21.3412 13.3139C21.4367 13.4066 21.5018 13.5248 21.5282 13.6535C21.5545 13.7821 21.5411 13.9156 21.4894 14.0368C21.4378 14.158 21.3503 14.2616 21.238 14.3344C21.1258 14.4072 20.9939 14.4459 20.859 14.4457H20.8525Z" fill="#296FA8"/>
</g>
<defs>
<linearGradient id="paint0_linear_5016_71359" x1="16" y1="0" x2="16" y2="32" gradientUnits="userSpaceOnUse">
<stop stop-color="#93CDFF"/>
<stop offset="1" stop-color="#448CC9"/>
</linearGradient>
<clipPath id="clip0_5016_71359">
<rect width="32" height="32" fill="white"/>
</clipPath>
</defs>
</svg>
