<svg width="32" height="32" viewBox="0 0 32 32" fill="none" xmlns="http://www.w3.org/2000/svg">
<g clip-path="url(#clip0_613_435)">
<path d="M16 32C24.8366 32 32 24.8366 32 16C32 7.16344 24.8366 0 16 0C7.16344 0 0 7.16344 0 16C0 24.8366 7.16344 32 16 32Z" fill="white"/>
<path d="M15.9705 0.000362006C14.7572 -0.00818542 13.5474 0.134659 12.3681 0.425706V20.3413C12.3651 20.5346 12.2881 20.7189 12.1535 20.855C12.0189 20.9912 11.8374 21.0685 11.6477 21.0702H10.2054C10.1346 21.0707 10.0644 21.0571 9.99882 21.0299C9.93326 21.0027 9.87365 20.9626 9.82339 20.9117C9.77315 20.861 9.73326 20.8005 9.70606 20.7339C9.67885 20.6674 9.66483 20.596 9.66483 20.5238V1.27569C6.81211 2.48282 4.37298 4.5213 2.65354 7.13531C0.934095 9.74934 0.0109657 12.8224 0 15.9689C0.0156941 18.0946 0.443174 20.1963 1.25793 22.1534C2.07269 24.1104 3.25869 25.8845 4.74795 27.3738C6.2372 28.863 8.0004 30.0381 9.93646 30.8318C11.8725 31.6256 13.9434 32.0222 16.0302 31.999C18.1093 32.0222 20.1723 31.6274 22.1011 30.8366C24.0299 30.0461 25.7866 28.8754 27.2702 27.3917C28.7539 25.9082 29.9354 24.1408 30.747 22.191C31.5587 20.2413 31.9845 18.1475 32 16.0298C31.948 11.7433 30.2333 7.65178 27.2299 4.64856C24.2267 1.64536 20.179 -0.0256491 15.9705 0.000362006ZM15.6703 22.6485C15.6682 22.8258 15.5977 22.9952 15.4741 23.1202C15.3506 23.2451 15.1837 23.3157 15.0096 23.3166H13.5673C13.3932 23.3157 13.2264 23.2451 13.1028 23.1202C12.9792 22.9952 12.9088 22.8258 12.9066 22.6485V12.5081C12.9088 12.3308 12.9792 12.1614 13.1028 12.0364C13.2264 11.9114 13.3932 11.8409 13.5673 11.84H15.0096C15.1837 11.8409 15.3506 11.9114 15.4741 12.0364C15.5977 12.1614 15.6682 12.3308 15.6703 12.5081V22.6485ZM18.9122 23.6202C18.9099 23.7976 18.8395 23.9669 18.7158 24.0918C18.5923 24.2168 18.4254 24.2874 18.2514 24.2883H16.8091C16.6349 24.2874 16.4682 24.2168 16.3445 24.0918C16.221 23.9669 16.1506 23.7976 16.1483 23.6202V11.5371C16.1506 11.3597 16.221 11.1903 16.3445 11.0654C16.4682 10.9404 16.6349 10.8699 16.8091 10.869H18.2514C18.4254 10.8699 18.5923 10.9404 18.7158 11.0654C18.8395 11.1903 18.9099 11.3597 18.9122 11.5371V23.6202ZM22.1539 21.8013C22.1517 21.9787 22.0813 22.148 21.9576 22.273C21.8341 22.3979 21.6672 22.4685 21.4931 22.4694H20.0549C19.8808 22.4685 19.7141 22.3979 19.5904 22.273C19.4669 22.148 19.3963 21.9787 19.3942 21.8013V13.4798C19.3963 13.3025 19.4669 13.1331 19.5904 13.0081C19.7141 12.8832 19.8808 12.8126 20.0549 12.8117H21.4973C21.6714 12.8126 21.8382 12.8832 21.9618 13.0081C22.0853 13.1331 22.1558 13.3025 22.1579 13.4798L22.1539 21.8013Z" fill="url(#paint0_linear_613_435)"/>
<path d="M27.1371 27.1371C25.6746 28.5996 23.9383 29.7598 22.0274 30.5513C20.1165 31.3428 18.0684 31.7502 16.0001 31.7502C13.9318 31.7502 11.8837 31.3428 9.9728 30.5513C8.06191 29.7598 6.32563 28.5996 4.8631 27.1371C3.40057 25.6746 2.24042 23.9383 1.4489 22.0274C0.657388 20.1165 0.25 18.0684 0.25 16.0001C0.25 13.9318 0.657388 11.8837 1.4489 9.9728C2.24042 8.06191 3.40057 6.32563 4.8631 4.8631C7.81681 1.90938 11.8229 0.25 16.0001 0.25C20.1773 0.25 24.1834 1.90938 27.1371 4.8631C30.0908 7.81681 31.7502 11.8229 31.7502 16.0001C31.7502 20.1773 30.0908 24.1834 27.1371 27.1371Z" stroke="white" stroke-width="0.5"/>
</g>
<defs>
<linearGradient id="paint0_linear_613_435" x1="16" y1="0" x2="16" y2="32" gradientUnits="userSpaceOnUse">
<stop stop-color="#FF005C"/>
<stop offset="1" stop-color="#C70048"/>
</linearGradient>
<clipPath id="clip0_613_435">
<rect width="32" height="32" fill="white"/>
</clipPath>
</defs>
</svg>
