<svg width="32" height="32" viewBox="0 0 32 32" fill="none" xmlns="http://www.w3.org/2000/svg">
<circle cx="16" cy="16" r="15.75" fill="url(#paint0_linear_5231_72225)" stroke="white" stroke-width="0.5"/>
<path d="M23.2103 6.00043C22.4717 6.00235 21.7639 6.29689 21.242 6.81956C20.7202 7.34223 20.4267 8.05041 20.4258 8.78901V10.2554C19.6044 8.58246 18.1974 7.26915 16.4719 6.56461C14.7464 5.86008 12.8223 5.81331 11.0646 6.43319C9.58411 6.95807 8.30242 7.92841 7.39558 9.21097C6.48874 10.4935 6.00123 12.0254 6 13.5961V23.2104C6 23.9503 6.29391 24.6598 6.81708 25.1829C7.34025 25.7061 8.04981 26 8.78969 26C9.52956 26 10.2391 25.7061 10.7623 25.1829C11.2854 24.6598 11.5794 23.9503 11.5794 23.2104V21.7471C12.4006 23.4194 13.8072 24.7321 15.5322 25.4361C17.2572 26.1401 19.1806 26.1864 20.9375 25.5662C22.4175 25.0415 23.6988 24.0714 24.6053 22.7892C25.5117 21.507 25.999 19.9756 26 18.4053V8.78901C25.9989 8.04959 25.7046 7.34079 25.1817 6.81803C24.6587 6.29528 23.9498 6.00125 23.2103 6.00043ZM18.4041 25.2279C16.9458 25.234 15.5242 24.7702 14.3499 23.9054C13.1757 23.0405 12.3112 21.8205 11.8845 20.426L11.8731 20.3855C11.6772 19.7437 11.5783 19.0763 11.5794 18.4053V13.5961C11.5799 13.061 11.7928 12.5481 12.1713 12.1698C12.5497 11.7916 13.0629 11.5789 13.598 11.5787C14.1325 11.58 14.6448 11.793 15.0227 12.1711C15.4006 12.5492 15.6133 13.0616 15.6145 13.5961V18.4033C15.6154 19.1431 15.9098 19.8523 16.4333 20.3751C16.8238 20.764 17.3207 21.0285 17.8613 21.1354C18.4019 21.2424 18.9621 21.1869 19.4713 20.9761C19.9804 20.7652 20.4158 20.4084 20.7225 19.9506C21.0292 19.4927 21.1936 18.9543 21.1949 18.4033V8.78901C21.1949 8.52421 21.247 8.262 21.3484 8.01735C21.4497 7.7727 21.5982 7.55041 21.7855 7.36317C21.9727 7.17592 22.195 7.02738 22.4397 6.92605C22.6843 6.82471 22.9466 6.77256 23.2114 6.77256C23.4762 6.77256 23.7384 6.82471 23.9831 6.92605C24.2277 7.02738 24.45 7.17592 24.6373 7.36317C24.8245 7.55041 24.973 7.7727 25.0744 8.01735C25.1757 8.262 25.2279 8.52421 25.2279 8.78901V18.4033C25.2286 19.2996 25.0525 20.1873 24.7099 21.0155C24.3672 21.8438 23.8646 22.5963 23.2308 23.2301C22.5971 23.864 21.8445 24.3667 21.0164 24.7095C20.1881 25.0523 19.3005 25.2285 18.4041 25.2279ZM20.4258 18.4033C20.4254 18.802 20.307 19.1917 20.0854 19.5233C19.8639 19.8548 19.5491 20.1133 19.1809 20.2663C18.8126 20.4192 18.4073 20.4597 18.016 20.3827C17.6248 20.3056 17.2651 20.1145 16.9823 19.8333C16.7752 19.6282 16.6155 19.3803 16.5143 19.1069C16.4956 19.0581 16.479 19.0031 16.4624 18.9481L16.4561 18.9201L16.4499 18.8941C16.4406 18.8578 16.4312 18.8215 16.425 18.7831C16.425 18.7696 16.425 18.7551 16.4177 18.7406V18.7187C16.4177 18.6845 16.4074 18.6503 16.4043 18.615C16.4011 18.5797 16.4043 18.5724 16.4043 18.5444C16.4043 18.5164 16.4043 18.4749 16.4043 18.4406V13.5961C16.4036 13.2286 16.3304 12.8647 16.189 12.5254C16.0475 12.1861 15.8405 11.8781 15.5798 11.6189C15.3192 11.3597 15.01 11.1544 14.6699 11.0148C14.3298 10.8752 13.9656 10.8041 13.598 10.8055C12.8581 10.8063 12.1487 11.1006 11.6255 11.6237C11.1023 12.1469 10.8081 12.8563 10.8072 13.5961V23.2104C10.8072 23.7455 10.5947 24.2586 10.2163 24.637C9.83794 25.0153 9.32477 25.2279 8.78969 25.2279C8.2546 25.2279 7.74143 25.0153 7.36307 24.637C6.98471 24.2586 6.77214 23.7455 6.77214 23.2104V13.5961C6.77334 11.9601 7.36217 10.3789 8.43137 9.14051C9.50059 7.90214 10.9791 7.08901 12.5975 6.8492C14.2159 6.6094 15.8666 6.95888 17.249 7.83399C18.6314 8.7091 19.6534 10.0516 20.129 11.617L20.157 11.7084C20.3346 12.3219 20.4251 12.9574 20.4258 13.5961V18.4033Z" fill="url(#paint1_linear_5231_72225)"/>
<defs>
<linearGradient id="paint0_linear_5231_72225" x1="16" y1="0" x2="16" y2="32" gradientUnits="userSpaceOnUse">
<stop stop-color="#393939"/>
<stop offset="1"/>
</linearGradient>
<linearGradient id="paint1_linear_5231_72225" x1="7.37152" y1="24.6005" x2="31.205" y2="0.730627" gradientUnits="userSpaceOnUse">
<stop offset="0.05" stop-color="white"/>
<stop offset="0.38" stop-color="#A7B3FF"/>
<stop offset="1" stop-color="#74A4FF"/>
</linearGradient>
</defs>
</svg>
