<svg width="64" height="64" viewBox="0 0 64 64" fill="none" xmlns="http://www.w3.org/2000/svg">
<circle cx="32" cy="32" r="32" fill="url(#paint0_linear_838_12199)"/>
<path d="M25.8492 49.6207C25.6763 49.4681 25.5681 49.2554 25.5466 49.0258L23.8286 30.7493H29.9426V51.2247C29.9426 52.0056 29.0212 52.4212 28.4358 51.9044L25.8492 49.6207Z" fill="white"/>
<path d="M29.9426 27.4712L23.4679 26.9118L22.456 16.1457C22.406 15.6138 22.8244 15.1542 23.3587 15.1542H29.036C29.5367 15.1542 29.9426 15.5601 29.9426 16.0609V27.4712Z" fill="white"/>
<path d="M41.8918 30.3849H46.5502C46.8004 30.3849 47.0033 30.1821 47.0033 29.9318V27.2594C47.0033 26.9918 46.7725 26.7824 46.5062 26.8085L42.1803 27.2309L41.8918 30.3849Z" fill="white"/>
<path d="M35.0014 27.9321V30.3865H17.8288C17.5785 30.3865 17.3755 30.1837 17.3755 29.9332V27.2537C17.3755 26.9881 17.6028 26.7794 17.8675 26.802L33.1294 28.1073C33.1569 28.1097 33.1846 28.1095 33.2122 28.1068L35.0014 27.9321Z" fill="white"/>
<path d="M36.9158 51.8429C36.3464 52.42 35.3635 52.0169 35.3635 51.2061V23.0789H42.2045L39.8247 48.6022C39.8053 48.8106 39.7144 49.0059 39.5674 49.1548L36.9158 51.8429Z" fill="white"/>
<path d="M35.3635 16.0611V18.4436L42.6793 17.9872L42.851 16.1453C42.9005 15.6136 42.4822 15.1544 41.9483 15.1544H36.2703C35.7696 15.1544 35.3635 15.5604 35.3635 16.0611Z" fill="white"/>
<path d="M30.3044 22.7161H48.6375C48.8378 22.7161 49.0001 22.5537 49.0001 22.3534V18.3244C49.0001 18.115 48.8234 17.9491 48.6145 17.9624L32.8703 18.9625L30.3044 18.8362V22.7161Z" fill="white"/>
<path d="M22.2736 18.441L22.708 22.7162H15.3627C15.1624 22.7162 15 22.5538 15 22.3535V18.464C15 18.2567 15.1735 18.0916 15.3805 18.1018L22.2736 18.441Z" fill="white"/>
<defs>
<linearGradient id="paint0_linear_838_12199" x1="12.2553" y1="7.14894" x2="54.8085" y2="51.4043" gradientUnits="userSpaceOnUse">
<stop stop-color="#BFFFDA"/>
<stop offset="0.463542" stop-color="#00B4FF"/>
<stop offset="1" stop-color="#5030F5"/>
</linearGradient>
</defs>
</svg>
