<svg width="20" height="20" viewBox="0 0 20 20" fill="none" xmlns="http://www.w3.org/2000/svg">
<path d="M10 20C15.5228 20 20 15.5228 20 10C20 4.47715 15.5228 0 10 0C4.47715 0 0 4.47715 0 10C0 15.5228 4.47715 20 10 20Z" fill="white"/>
<path d="M9.99966 19.9986C8.68593 20.0023 7.38453 19.7452 6.17076 19.2426C4.957 18.7399 3.85498 18.0016 2.9285 17.0702C1.99708 16.1438 1.25867 15.042 0.755997 13.8282C0.253327 12.6145 -0.00361695 11.313 4.01687e-05 9.99934C-0.00369585 8.68564 0.253213 7.38418 0.755888 6.17044C1.25856 4.9567 1.99702 3.85488 2.9285 2.92848C3.85493 1.99702 4.95692 1.25844 6.1707 0.755777C7.38447 0.253118 8.68592 -0.00369572 9.99966 4.01809e-05C11.3134 -0.00369572 12.6148 0.253118 13.8286 0.755777C15.0424 1.25844 16.1444 1.99702 17.0708 2.92848C18.0023 3.85488 18.7408 4.9567 19.2434 6.17044C19.7461 7.38418 20.003 8.68564 19.9993 9.99934C20.0029 11.313 19.746 12.6145 19.2433 13.8282C18.7406 15.042 18.0022 16.1438 17.0708 17.0702C16.1443 18.0016 15.0423 18.7399 13.8286 19.2426C12.6148 19.7452 11.3134 20.0023 9.99966 19.9986ZM9.99966 1.42851C7.72722 1.43097 5.54855 2.33478 3.94169 3.94159C2.33483 5.5484 1.43101 7.72697 1.42856 9.99934C1.43101 12.2717 2.33483 14.4503 3.94169 16.0571C5.54855 17.6639 7.72722 18.5677 9.99966 18.5702C12.2721 18.5677 14.4508 17.6639 16.0576 16.0571C17.6645 14.4503 18.5683 12.2717 18.5708 9.99934C18.5683 7.72697 17.6645 5.5484 16.0576 3.94159C14.4508 2.33478 12.2721 1.43097 9.99966 1.42851Z" fill="#292929"/>
<path opacity="0.41" d="M9.28464 19.9742V18.5408C9.52273 18.5608 9.76081 18.5708 9.9989 18.5708C10.237 18.5708 10.4751 18.5611 10.7132 18.5415V19.9749C10.4751 19.9916 10.237 20 9.9989 20C9.76081 20 9.52273 19.9913 9.28464 19.9742ZM15.5315 16.5411C15.8953 16.2329 16.2328 15.8951 16.5408 15.5311L17.5572 16.5474C17.402 16.7264 17.2396 16.9004 17.0701 17.0695C16.9005 17.2385 16.7265 17.401 16.5479 17.5567L15.5315 16.5411ZM2.92916 17.0702C2.75964 16.9007 2.59704 16.7264 2.44133 16.5474L3.45773 15.5311C3.76592 15.8951 4.10373 16.2329 4.46769 16.5411L3.4513 17.5574C3.27226 17.4021 3.09774 17.2397 2.92774 17.0702H2.92916ZM18.5407 10.7135C18.5603 10.4755 18.57 10.2374 18.57 9.9993C18.57 9.76122 18.5603 9.52315 18.5407 9.28507H19.9742C19.9909 9.52315 19.9992 9.76122 19.9992 9.9993C19.9992 10.2374 19.9909 10.4755 19.9742 10.7135H18.5407ZM0.0250017 10.7135C0.00833563 10.4755 0 10.2374 0 9.9993C0 9.76122 0.00833563 9.52315 0.0250017 9.28507H1.45851C1.43899 9.52315 1.42924 9.76122 1.42924 9.9993C1.42924 10.2374 1.43899 10.4755 1.45851 10.7135H0.0250017ZM2.44133 3.45191C2.59704 3.27287 2.75964 3.09887 2.92916 2.92983C3.09868 2.7608 3.27298 2.59811 3.45202 2.44193L4.46769 3.45749C4.1038 3.76601 3.766 4.10406 3.45773 4.46816L2.44133 3.45191ZM15.5315 3.45749L16.5472 2.44193C16.7263 2.59764 16.9005 2.76032 17.0701 2.92983C17.2396 3.09934 17.402 3.27335 17.5572 3.45191L16.5408 4.46816C16.2326 4.10396 15.8955 3.76589 15.5315 3.45749ZM9.28464 0.0251099C9.52273 0.00844435 9.76081 0 9.9989 0C10.237 0 10.4751 0.00844435 10.7132 0.0251099V1.45707C10.4775 1.43755 10.2394 1.42777 9.9989 1.42777C9.75843 1.42777 9.52035 1.43777 9.28464 1.45777V0.0251099Z" fill="white"/>
<path fill-rule="evenodd" clip-rule="evenodd" d="M10.4255 4.50652C10.4255 4.22679 10.2236 4 9.97458 4C9.97458 4 9.97432 4 9.97406 4C9.72529 4 9.52344 4.22679 9.52344 4.50652C9.52344 6.5476 9.52344 14.1598 9.52344 16.2012C9.52344 16.4809 9.72529 16.7077 9.97406 16.7077C9.97432 16.7077 9.97458 16.7077 9.97458 16.7077C10.2236 16.7077 10.4255 16.4809 10.4255 16.2012C10.4255 14.1598 10.4255 6.5476 10.4255 4.50652V4.50652Z" fill="#F0827D"/>
<path fill-rule="evenodd" clip-rule="evenodd" d="M8.60386 14.1453C8.35496 14.145 8.15293 14.3716 8.15272 14.6514C8.15272 14.6514 8.15272 14.6517 8.15272 14.652C8.15251 14.9314 8.35421 15.1584 8.60311 15.1586C9.2956 15.1593 10.6135 15.1605 11.306 15.1611C11.555 15.1614 11.757 14.9348 11.7572 14.6553C11.7572 14.655 11.7572 14.6547 11.7572 14.6547C11.7574 14.375 11.5558 14.148 11.3068 14.1478C10.6143 14.1471 9.29635 14.1459 8.60386 14.1453V14.1453Z" fill="#F0827D"/>
<path fill-rule="evenodd" clip-rule="evenodd" d="M6.37538 7.52026C6.12627 7.52002 5.92441 7.74661 5.9242 8.02637C5.9242 8.02637 5.9242 8.02667 5.9242 8.02696C5.924 8.30643 6.12553 8.53339 6.37463 8.53362C7.7899 8.53494 12.1339 8.539 13.5492 8.54032C13.7981 8.54055 14.0001 8.31397 14.0003 8.0345C14.0003 8.03421 14.0003 8.03391 14.0003 8.03391C14.0006 7.75415 13.7988 7.52719 13.5499 7.52695C12.1347 7.52563 7.79065 7.52158 6.37538 7.52026V7.52026Z" fill="#F0827D"/>
<path fill-rule="evenodd" clip-rule="evenodd" d="M7.86059 4.95877C7.68433 4.76119 7.39887 4.76155 7.22297 4.95959C7.22297 4.95959 7.22278 4.9598 7.2226 4.96001C7.04688 5.15784 7.04717 5.47852 7.22343 5.6761C8.19423 6.76433 11.1049 10.0271 12.0757 11.1153C12.2519 11.3129 12.5374 11.3125 12.7131 11.1147C12.7133 11.1145 12.7135 11.1143 12.7135 11.1143C12.8894 10.9163 12.8891 10.5956 12.7128 10.398C11.742 9.30976 8.83138 6.047 7.86059 4.95877V4.95877Z" fill="#F0827D"/>
<path fill-rule="evenodd" clip-rule="evenodd" d="M7.23201 10.4084C7.05625 10.6065 7.05676 10.9272 7.23316 11.1247C7.23316 11.1247 7.23335 11.1249 7.23354 11.1251C7.40975 11.3224 7.69521 11.3218 7.87097 11.1237C8.83902 10.0324 11.7415 6.76039 12.7095 5.66909C12.8853 5.47095 12.8848 5.15026 12.7086 4.95299C12.7084 4.95278 12.7082 4.95257 12.7082 4.95257C12.5318 4.7551 12.2463 4.75564 12.0706 4.95378C11.1025 6.04508 8.20007 9.31706 7.23201 10.4084V10.4084Z" fill="#F0827D"/>
</svg>
