<svg width="64" height="64" viewBox="0 0 64 64" fill="none" xmlns="http://www.w3.org/2000/svg">
<circle cx="32" cy="32" r="32" fill="url(#paint0_linear_18_1411)"/>
<path fill-rule="evenodd" clip-rule="evenodd" d="M32 53.7895C44.034 53.7895 53.7895 44.034 53.7895 32C53.7895 19.966 44.034 10.2105 32 10.2105C19.966 10.2105 10.2105 19.966 10.2105 32C10.2105 44.034 19.966 53.7895 32 53.7895ZM32 55C44.7025 55 55 44.7025 55 32C55 19.2975 44.7025 9 32 9C19.2975 9 9 19.2975 9 32C9 44.7025 19.2975 55 32 55Z" fill="white"/>
<path fill-rule="evenodd" clip-rule="evenodd" d="M32.0003 51.3686C42.6971 51.3686 51.3687 42.697 51.3687 32.0001C51.3687 21.3033 42.6971 12.6317 32.0003 12.6317C21.3034 12.6317 12.6318 21.3033 12.6318 32.0001C12.6318 42.697 21.3034 51.3686 32.0003 51.3686ZM22.9203 18.4117C25.6078 16.616 28.7674 15.6576 31.9996 15.6577C36.3337 15.6578 40.4902 17.3795 43.5549 20.4442C46.6196 23.5088 48.3413 27.6654 48.3414 31.9994C48.3414 35.2316 47.3831 38.3913 45.5874 41.0788C43.7917 43.7662 41.2394 45.8609 38.2533 47.0978C35.2671 48.3348 31.9813 48.6584 28.8112 48.0279C25.6411 47.3973 22.7292 45.8409 20.4437 43.5554C18.1582 41.2699 16.6017 38.358 15.9712 35.1879C15.3406 32.0178 15.6643 28.7319 16.9012 25.7458C18.1381 22.7596 20.2328 20.2073 22.9203 18.4117ZM24.7897 32.5409L27.2988 30.0318V28.7406C27.2988 27.8072 26.928 26.9121 26.2681 26.2521C25.6081 25.5921 24.7129 25.2213 23.7796 25.2213C22.8462 25.2213 21.9511 25.5921 21.2911 26.2521C20.6311 26.9121 20.2603 27.8072 20.2603 28.7406V35.256C20.2603 36.1894 20.6311 37.0845 21.2911 37.7445C21.9511 38.4045 22.8462 38.7753 23.7796 38.7753C24.7129 38.7753 25.6081 38.4045 26.2681 37.7445C26.928 37.0845 27.2988 36.1894 27.2988 35.256V32.5409H24.7897ZM43.7386 35.256V32.5409H41.2295L43.7386 30.0318V28.7406C43.7386 27.8071 43.3678 26.912 42.7078 26.2519C42.0478 25.5919 41.1526 25.2211 40.2192 25.2211C39.2858 25.2211 38.3906 25.5919 37.7306 26.2519C37.0705 26.912 36.6997 27.8071 36.6997 28.7406V35.256C36.6997 36.1894 37.0705 37.0846 37.7306 37.7446C38.3906 38.4046 39.2858 38.7754 40.2192 38.7754C41.1526 38.7754 42.0478 38.4046 42.7078 37.7446C43.3678 37.0846 43.7386 36.1894 43.7386 35.256Z" fill="white"/>
<defs>
<linearGradient id="paint0_linear_18_1411" x1="32" y1="-1.88235" x2="33.3176" y2="74.9176" gradientUnits="userSpaceOnUse">
<stop stop-color="#6D6D6D"/>
<stop offset="1" stop-color="#121212"/>
</linearGradient>
</defs>
</svg>
