<svg width="200" height="200" viewBox="0 0 200 200" fill="none" xmlns="http://www.w3.org/2000/svg">
<path d="M199.5 100C199.5 154.952 154.952 199.5 100 199.5C45.0477 199.5 0.5 154.952 0.5 100C0.5 45.0477 45.0477 0.5 100 0.5C154.952 0.5 199.5 45.0477 199.5 100Z" fill="url(#paint0_linear_1697_2174)" stroke="#ACACAC"/>
<g clip-path="url(#clip0_1697_2174)">
<path d="M99.2969 167.648C135.67 167.648 165.156 138.078 165.156 101.602C165.156 65.1249 135.67 35.5547 99.2969 35.5547C62.9237 35.5547 33.4375 65.1249 33.4375 101.602C33.4375 138.078 62.9237 167.648 99.2969 167.648Z" fill="#F2E373"/>
<path fill-rule="evenodd" clip-rule="evenodd" d="M126.016 94.5703L36.0156 121.5C40.2344 134.625 48.4375 146.555 61.3281 155.695C92.7344 177.703 131.875 168.352 156.484 142.102C156.953 141.633 156.484 140.695 155.781 140.93C151.094 143.039 145.937 143.742 141.016 142.805C131.406 140.93 124.141 133.664 122.266 124.078C119.922 111.891 127.187 99.9609 139.141 96.4453L126.016 94.5703Z" fill="url(#paint1_linear_1697_2174)"/>
<path fill-rule="evenodd" clip-rule="evenodd" d="M115.703 89.4375C117.578 88.7344 119.219 87.7969 120.859 86.8594C137.5 77.25 158.594 80.7656 171.484 95.0625C171.719 95.2969 171.719 95.7656 171.484 96C171.25 96.2344 171.016 96.2344 170.781 96.2344C159.531 93.8906 147.344 93.4219 138.203 96.4688C127.188 100.219 118.984 107.953 113.359 117.773C105.156 132.07 101.641 136.266 88.2813 141.422C65.0781 150.562 43.2813 142.125 36.0156 121.523C26.4063 90.8203 40.2344 57.5859 68.8281 42.5859C76.7969 38.3672 86.6406 34.6172 94.8438 32.2734C102.813 29.9297 116.172 26.6484 119.688 18.2344C119.922 18 120.391 18 120.625 18C120.859 18 121.094 18.2344 121.094 18.7031C122.5 28.7812 120.156 33.2109 114.297 38.8359C107.969 44.6953 100.234 47.5078 93.4375 51.7031C82.8906 58.7344 79.6094 71.3672 86.6406 81.9141C90.8594 88.2422 97.8906 91.5234 105.391 91.5234C107.734 91.5234 109.844 91.2891 112.188 90.5859C113.359 90.3516 114.531 89.8828 115.703 89.4141V89.4375Z" fill="url(#paint2_linear_1697_2174)"/>
</g>
<defs>
<linearGradient id="paint0_linear_1697_2174" x1="100" y1="0" x2="100" y2="200" gradientUnits="userSpaceOnUse">
<stop stop-color="#F9F9F9"/>
<stop offset="1" stop-color="#EBEBEB"/>
</linearGradient>
<linearGradient id="paint1_linear_1697_2174" x1="94.2259" y1="117.381" x2="106.061" y2="145.162" gradientUnits="userSpaceOnUse">
<stop stop-color="#F7D45C"/>
<stop offset="1" stop-color="#DE3633"/>
</linearGradient>
<linearGradient id="paint2_linear_1697_2174" x1="56.7972" y1="52.3233" x2="111.018" y2="114.247" gradientUnits="userSpaceOnUse">
<stop stop-color="#F7D45C"/>
<stop offset="1" stop-color="#DE3633"/>
</linearGradient>
<clipPath id="clip0_1697_2174">
<rect width="150" height="150" fill="white" transform="translate(25 18)"/>
</clipPath>
</defs>
</svg>
