<svg width="32" height="32" viewBox="0 0 32 32" fill="none" xmlns="http://www.w3.org/2000/svg">
<g clip-path="url(#clip0_1526_35747)">
<path d="M16 31.5C24.5604 31.5 31.5 24.5604 31.5 16C31.5 7.43959 24.5604 0.5 16 0.5C7.43959 0.5 0.5 7.43959 0.5 16C0.5 24.5604 7.43959 31.5 16 31.5Z" fill="black"/>
<path d="M16 31.75C24.6985 31.75 31.75 24.6985 31.75 16C31.75 7.30152 24.6985 0.25 16 0.25C7.30152 0.25 0.25 7.30152 0.25 16C0.25 24.6985 7.30152 31.75 16 31.75Z" stroke="white" stroke-width="0.5"/>
<path d="M29.7 16C29.7 23.5663 23.5663 29.7 16 29.7C8.4337 29.7 2.3 23.5663 2.3 16C2.3 8.4337 8.4337 2.3 16 2.3C23.5663 2.3 29.7 8.4337 29.7 16Z" stroke="#F0827D" stroke-width="0.6"/>
<path fill-rule="evenodd" clip-rule="evenodd" d="M16.4725 10.5231C16.4725 10.2342 16.254 10 15.9844 10C15.9844 10 15.9841 10 15.9838 10C15.7146 10 15.4961 10.2342 15.4961 10.5231C15.4961 12.631 15.4961 20.4925 15.4961 22.6008C15.4961 22.8897 15.7146 23.1239 15.9838 23.1239C15.9841 23.1239 15.9844 23.1239 15.9844 23.1239C16.254 23.1239 16.4725 22.8897 16.4725 22.6008C16.4725 20.4925 16.4725 12.631 16.4725 10.5231Z" fill="white"/>
<path fill-rule="evenodd" clip-rule="evenodd" d="M14.5001 20.4766C14.2306 20.4763 14.012 20.7103 14.0117 20.9993C14.0117 20.9993 14.0117 20.9996 14.0117 20.9999C14.0115 21.2885 14.2298 21.5229 14.4992 21.5231C15.2488 21.5238 16.6753 21.5251 17.4249 21.5257C17.6944 21.526 17.9131 21.292 17.9133 21.0033C17.9133 21.003 17.9133 21.0027 17.9133 21.0027C17.9135 20.7138 17.6952 20.4794 17.4257 20.4792C16.6761 20.4785 15.2496 20.4772 14.5001 20.4766Z" fill="white"/>
<path fill-rule="evenodd" clip-rule="evenodd" d="M12.088 13.6348C11.8184 13.6345 11.5998 13.8685 11.5996 14.1575C11.5996 14.1575 11.5996 14.1578 11.5996 14.1581C11.5994 14.4467 11.8175 14.6811 12.0872 14.6813C13.619 14.6827 18.321 14.6869 19.8529 14.6882C20.1223 14.6885 20.341 14.4545 20.3413 14.1658C20.3413 14.1655 20.3413 14.1652 20.3413 14.1652C20.3415 13.8763 20.1231 13.6419 19.8537 13.6417C18.3218 13.6403 13.6199 13.6361 12.088 13.6348Z" fill="white"/>
<path fill-rule="evenodd" clip-rule="evenodd" d="M13.6982 10.9907C13.5074 10.7866 13.1984 10.787 13.008 10.9915C13.008 10.9915 13.0079 10.9918 13.0076 10.992C12.8175 11.1963 12.8178 11.5275 13.0085 11.7315C14.0593 12.8554 17.2099 16.225 18.2606 17.3488C18.4514 17.5529 18.7604 17.5525 18.9506 17.3482C18.9508 17.348 18.951 17.3478 18.951 17.3478C19.1414 17.1433 19.1411 16.8121 18.9503 16.608C17.8995 15.4842 14.749 12.1146 13.6982 10.9907Z" fill="white"/>
<path fill-rule="evenodd" clip-rule="evenodd" d="M13.0134 16.6171C12.8232 16.8218 12.8237 17.1529 13.0147 17.3569C13.0147 17.3569 13.0149 17.3571 13.0151 17.3573C13.2058 17.561 13.5148 17.5605 13.705 17.3558C14.7529 16.2288 17.8945 12.8497 18.9423 11.7226C19.1326 11.518 19.132 11.1868 18.9413 10.9831C18.9411 10.9829 18.9409 10.9827 18.9409 10.9827C18.7499 10.7787 18.4409 10.7793 18.2507 10.9839C17.2029 12.1109 14.0613 15.4901 13.0134 16.6171Z" fill="white"/>
</g>
<defs>
<clipPath id="clip0_1526_35747">
<rect width="32" height="32" fill="white"/>
</clipPath>
</defs>
</svg>
