<svg width="32" height="32" viewBox="0 0 32 32" fill="none" xmlns="http://www.w3.org/2000/svg">
<g clip-path="url(#clip0_5079_69150)">
<path d="M31.7484 16.0429C31.7484 18.1074 31.342 20.1517 30.5522 22.059C29.7625 23.9663 28.605 25.6993 27.1458 27.1591C25.6867 28.6189 23.9543 29.7769 22.0478 30.5669C20.1413 31.3569 18.0979 31.7636 16.0344 31.7636C13.9708 31.7636 11.9274 31.3569 10.0209 30.5669C8.11438 29.7769 6.38208 28.6189 4.92289 27.1591C3.4637 25.6993 2.3062 23.9663 1.51649 22.059C0.726773 20.1517 0.320312 18.1074 0.320312 16.0429C0.320313 11.8735 1.97592 7.87489 4.92289 4.92671C7.86985 1.97852 11.8668 0.322266 16.0344 0.322266C20.202 0.322265 24.1989 1.97852 27.1458 4.92671C30.0928 7.87489 31.7484 11.8735 31.7484 16.0429Z" fill="#1E1E1E" stroke="white" stroke-width="0.5"/>
<path fill-rule="evenodd" clip-rule="evenodd" d="M16.0345 4.16654C9.48464 4.16654 4.17342 9.48835 4.17342 16.0563C4.17342 22.6242 9.48464 27.9459 16.0345 27.9459C22.5843 27.9459 27.8955 22.6242 27.8955 16.0563C27.8955 9.4907 22.5843 4.16654 16.0345 4.16654ZM2.9707 16.0563C2.9707 8.82237 8.82057 2.96094 16.0345 2.96094C23.2485 2.96094 29.0984 8.82484 29.0984 16.0563C29.0984 23.2902 23.2484 29.1517 16.0345 29.1517C8.82057 29.1517 2.9707 23.2902 2.9707 16.0563Z" fill="#FF7B7C"/>
<path fill-rule="evenodd" clip-rule="evenodd" d="M21.1913 12.9379L17.896 12.8005L20.1354 10.3699L19.2333 9.46811L16.8063 11.7057L16.674 8.40234H15.4015L15.2644 11.7057L12.8398 9.46088L11.9401 10.3651L14.1748 12.798L10.877 12.9282V14.2062L14.1723 14.3436L11.9329 16.7741L12.835 17.6759L15.2235 15.4721L15.3294 20.825L13.4219 20.9649V22.1536L15.3582 22.3007L15.3943 24.1597H16.6668L16.7053 22.3031L18.6609 22.1536V20.9649L16.7341 20.825L16.8424 15.4745L19.2285 17.6808L20.1282 16.7789L17.896 14.346L21.1914 14.2134L21.1913 12.9379Z" fill="#FF7B7C"/>
</g>
<defs>
<clipPath id="clip0_5079_69150">
<rect width="32" height="32" fill="white"/>
</clipPath>
</defs>
</svg>
