<svg width="32" height="32" viewBox="0 0 32 32" fill="none" xmlns="http://www.w3.org/2000/svg">
<g clip-path="url(#clip0_4446_71416)">
<path d="M16 32C24.837 32 32 24.837 32 16C32 7.163 24.837 0 16 0C7.163 0 0 7.163 0 16C0 24.837 7.163 32 16 32Z" fill="url(#paint0_linear_4446_71416)"/>
<path d="M16 31.75C24.698 31.75 31.75 24.698 31.75 16C31.75 7.302 24.698 0.25 16 0.25C7.302 0.25 0.25 7.302 0.25 16C0.25 24.698 7.302 31.75 16 31.75Z" stroke="white" stroke-width="0.5"/>
<path d="M16.8231 16.959H15.1731L15.1921 17.01L11.8711 25.45L13.2651 26L15.9991 19.056L18.7301 26L20.1241 25.45L16.8041 17.01L16.8231 16.959Z" fill="white"/>
<path d="M26 13.268L25.45 11.873L17.01 15.194L16.863 15.137L16.806 14.99L20.126 6.55L18.733 6L16.003 12.944L13.267 6L11.872 6.55L15.193 14.99L15.136 15.137L14.989 15.194L6.549 11.874L6 13.267L12.944 16L6 18.732L6.55 20.127L14.99 16.806L15.126 16.859V15.211H15.201L15.192 15.192L15.239 15.212H16.761L16.808 15.192L16.799 15.212H16.874V16.859L17.01 16.806L25.45 20.126L26 18.732L19.056 16.002L26 13.267V13.268Z" fill="white"/>
</g>
<defs>
<linearGradient id="paint0_linear_4446_71416" x1="16" y1="0" x2="16" y2="32" gradientUnits="userSpaceOnUse">
<stop stop-color="#6E7FEF"/>
<stop offset="1" stop-color="#5C67B0"/>
</linearGradient>
<clipPath id="clip0_4446_71416">
<rect width="32" height="32" fill="white"/>
</clipPath>
</defs>
</svg>
