<svg width="20" height="20" viewBox="0 0 20 20" fill="none" xmlns="http://www.w3.org/2000/svg">
<path d="M10 20C15.5228 20 20 15.5228 20 10C20 4.47715 15.5228 0 10 0C4.47715 0 0 4.47715 0 10C0 15.5228 4.47715 20 10 20Z" fill="white"/>
<path d="M9.99966 19.9986C8.68593 20.0023 7.38453 19.7452 6.17076 19.2426C4.957 18.7399 3.85498 18.0016 2.9285 17.0702C1.99708 16.1438 1.25867 15.042 0.755997 13.8282C0.253327 12.6145 -0.00361695 11.313 4.01687e-05 9.99934C-0.00369585 8.68564 0.253213 7.38418 0.755888 6.17044C1.25856 4.9567 1.99702 3.85488 2.9285 2.92848C3.85493 1.99702 4.95692 1.25844 6.1707 0.755777C7.38447 0.253118 8.68592 -0.00369572 9.99966 4.01809e-05C11.3134 -0.00369572 12.6148 0.253118 13.8286 0.755777C15.0424 1.25844 16.1444 1.99702 17.0708 2.92848C18.0023 3.85488 18.7408 4.9567 19.2434 6.17044C19.7461 7.38418 20.003 8.68564 19.9993 9.99934C20.0029 11.313 19.746 12.6145 19.2433 13.8282C18.7406 15.042 18.0022 16.1438 17.0708 17.0702C16.1443 18.0016 15.0423 18.7399 13.8286 19.2426C12.6148 19.7452 11.3134 20.0023 9.99966 19.9986ZM9.99966 1.42851C7.72722 1.43097 5.54855 2.33478 3.94169 3.94159C2.33483 5.5484 1.43101 7.72697 1.42856 9.99934C1.43101 12.2717 2.33483 14.4503 3.94169 16.0571C5.54855 17.6639 7.72722 18.5677 9.99966 18.5702C12.2721 18.5677 14.4508 17.6639 16.0576 16.0571C17.6645 14.4503 18.5683 12.2717 18.5708 9.99934C18.5683 7.72697 17.6645 5.5484 16.0576 3.94159C14.4508 2.33478 12.2721 1.43097 9.99966 1.42851Z" fill="#505050"/>
<path opacity="0.41" d="M9.28464 19.9742V18.5408C9.52273 18.5608 9.76081 18.5708 9.9989 18.5708C10.237 18.5708 10.4751 18.5611 10.7132 18.5415V19.9749C10.4751 19.9916 10.237 20 9.9989 20C9.76081 20 9.52273 19.9913 9.28464 19.9742ZM15.5315 16.5411C15.8953 16.2329 16.2328 15.8951 16.5408 15.5311L17.5572 16.5474C17.402 16.7264 17.2396 16.9004 17.0701 17.0695C16.9005 17.2385 16.7265 17.401 16.5479 17.5567L15.5315 16.5411ZM2.92916 17.0702C2.75964 16.9007 2.59704 16.7264 2.44133 16.5474L3.45773 15.5311C3.76592 15.8951 4.10373 16.2329 4.46769 16.5411L3.4513 17.5574C3.27226 17.4021 3.09774 17.2397 2.92774 17.0702H2.92916ZM18.5407 10.7135C18.5603 10.4755 18.57 10.2374 18.57 9.9993C18.57 9.76122 18.5603 9.52315 18.5407 9.28507H19.9742C19.9909 9.52315 19.9992 9.76122 19.9992 9.9993C19.9992 10.2374 19.9909 10.4755 19.9742 10.7135H18.5407ZM0.0250017 10.7135C0.00833563 10.4755 0 10.2374 0 9.9993C0 9.76122 0.00833563 9.52315 0.0250017 9.28507H1.45851C1.43899 9.52315 1.42924 9.76122 1.42924 9.9993C1.42924 10.2374 1.43899 10.4755 1.45851 10.7135H0.0250017ZM2.44133 3.45191C2.59704 3.27287 2.75964 3.09887 2.92916 2.92983C3.09868 2.7608 3.27298 2.59811 3.45202 2.44193L4.46769 3.45749C4.1038 3.76601 3.766 4.10406 3.45773 4.46816L2.44133 3.45191ZM15.5315 3.45749L16.5472 2.44193C16.7263 2.59764 16.9005 2.76032 17.0701 2.92983C17.2396 3.09934 17.402 3.27335 17.5572 3.45191L16.5408 4.46816C16.2326 4.10396 15.8955 3.76589 15.5315 3.45749ZM9.28464 0.0251099C9.52273 0.00844435 9.76081 0 9.9989 0C10.237 0 10.4751 0.00844435 10.7132 0.0251099V1.45707C10.4775 1.43755 10.2394 1.42777 9.9989 1.42777C9.75843 1.42777 9.52035 1.43777 9.28464 1.45777V0.0251099Z" fill="white"/>
<path d="M9.96319 14.319C12.2717 14.319 14.1432 12.4475 14.1432 10.139C14.1432 7.83043 12.2717 5.95898 9.96319 5.95898C7.65465 5.95898 5.7832 7.83043 5.7832 10.139C5.7832 12.4475 7.65465 14.319 9.96319 14.319Z" fill="#DEDEDE"/>
<path d="M15.3695 13.826C14.2204 13.826 11.641 12.6808 9.23409 11.2915C7.818 10.4924 6.47138 9.5759 5.20852 8.55166C4.12416 7.63772 3.67767 6.99786 3.87899 6.64803C4.31952 5.88459 7.58165 7.23507 10.5776 8.96427C11.9937 9.76333 13.3402 10.6798 14.6031 11.7041C15.6874 12.618 16.1349 13.2579 15.9326 13.6077C15.8459 13.7582 15.6506 13.826 15.3695 13.826ZM4.41224 6.66598C4.23882 6.66598 4.12921 6.70186 4.08935 6.76564C3.99666 6.9271 4.27463 7.44138 5.36498 8.36029C6.61567 9.37505 7.94922 10.2832 9.35162 11.0752C12.9555 13.1552 15.4872 13.8788 15.7164 13.4811C15.8091 13.3197 15.531 12.8054 14.4406 11.8865C13.1899 10.8717 11.8564 9.96358 10.454 9.17158C7.47897 7.45832 5.23346 6.66598 4.41321 6.66598H4.41224Z" fill="#1D1D1D" stroke="#1D1D1D" stroke-width="0.2"/>
<path d="M4.44151 13.8283C4.16045 13.8283 3.96504 13.7595 3.87833 13.61C3.679 13.2602 4.12349 12.6204 5.20786 11.7064C6.47071 10.6822 7.81733 9.7657 9.23343 8.96661C12.2284 7.2374 15.4914 5.88593 15.9319 6.65036C16.1313 7.00019 15.6868 7.64005 14.6024 8.55399C13.3396 9.57825 11.9929 10.4947 10.5768 11.2938C8.17089 12.6802 5.59066 13.8283 4.44151 13.8283ZM15.3987 6.66831C14.5784 6.66831 12.3329 7.46563 9.35692 9.17889C7.95452 9.97088 6.62097 10.879 5.37028 11.8938C4.27993 12.8127 4.00196 13.327 4.09465 13.4884C4.32488 13.8871 6.85638 13.1625 10.4593 11.0825C11.8617 10.2905 13.1952 9.38237 14.4459 8.36761C15.5363 7.44869 15.8144 6.93441 15.7217 6.77295C15.6818 6.7002 15.5721 6.66731 15.3987 6.66731V6.66831Z" fill="#1D1D1D" stroke="#1D1D1D" stroke-width="0.2"/>
<path d="M9.90637 10.8616C10.3109 10.8616 10.6389 10.5336 10.6389 10.129C10.6389 9.72446 10.3109 9.39648 9.90637 9.39648C9.5018 9.39648 9.17383 9.72446 9.17383 10.129C9.17383 10.5336 9.5018 10.8616 9.90637 10.8616Z" fill="#1D1D1D" stroke="#1D1D1D" stroke-width="0.2"/>
<path d="M13.1114 7.59587C13.3811 7.59587 13.5998 7.37722 13.5998 7.1075C13.5998 6.83779 13.3811 6.61914 13.1114 6.61914C12.8417 6.61914 12.623 6.83779 12.623 7.1075C12.623 7.37722 12.8417 7.59587 13.1114 7.59587Z" fill="#1D1D1D" stroke="#1D1D1D" stroke-width="0.2"/>
<path d="M5.29696 9.06266C5.56667 9.06266 5.78532 8.84402 5.78532 8.5743C5.78532 8.30459 5.56667 8.08594 5.29696 8.08594C5.02724 8.08594 4.80859 8.30459 4.80859 8.5743C4.80859 8.84402 5.02724 9.06266 5.29696 9.06266Z" fill="#1D1D1D" stroke="#1D1D1D" stroke-width="0.2"/>
<path d="M8.96102 15.1662C9.23073 15.1662 9.44938 14.9475 9.44938 14.6778C9.44938 14.4081 9.23073 14.1895 8.96102 14.1895C8.6913 14.1895 8.47266 14.4081 8.47266 14.6778C8.47266 14.9475 8.6913 15.1662 8.96102 15.1662Z" fill="#1D1D1D" stroke="#1D1D1D" stroke-width="0.2"/>
<path d="M9.90602 17.0893C9.02497 17.0893 8.5625 13.588 8.5625 10.1296C8.5625 6.67119 9.02398 3.16992 9.90602 3.16992C10.7881 3.16992 11.2495 6.67119 11.2495 10.1296C11.2495 13.588 10.7871 17.0893 9.90602 17.0893ZM9.90602 3.4151C9.44756 3.4151 8.80972 5.96954 8.80972 10.1306C8.80972 14.2916 9.44955 16.8461 9.90602 16.8461C10.3625 16.8461 11.0023 14.2916 11.0023 10.1306C11.0023 5.96954 10.3645 3.41411 9.90602 3.41411V3.4151Z" fill="#1D1D1D" stroke="#1D1D1D" stroke-width="0.2"/>
</svg>
