<svg width="32" height="32" viewBox="0 0 32 32" fill="none" xmlns="http://www.w3.org/2000/svg">
<g clip-path="url(#clip0_495_23)">
<path d="M16 32C24.8366 32 32 24.8366 32 16C32 7.16344 24.8366 0 16 0C7.16344 0 0 7.16344 0 16C0 24.8366 7.16344 32 16 32Z" fill="url(#paint0_linear_495_23)"/>
<path d="M16 31.75C24.6985 31.75 31.75 24.6985 31.75 16C31.75 7.30152 24.6985 0.25 16 0.25C7.30152 0.25 0.25 7.30152 0.25 16C0.25 24.6985 7.30152 31.75 16 31.75Z" stroke="white" stroke-width="0.5"/>
<path d="M22.171 15.4008C22.1794 16.267 21.9656 17.1208 21.55 17.8808C21.1043 18.6506 20.4441 19.274 19.65 19.6748C18.66 20.1625 17.5649 20.3982 16.462 20.3608H14.113V25.9388H10.334V10.3978H16.466C17.5496 10.3646 18.6261 10.5844 19.61 11.0398C20.4154 11.4218 21.0862 12.0389 21.534 12.8098C21.9704 13.6025 22.1901 14.4962 22.171 15.4008ZM16.178 17.3498C16.7623 17.3962 17.3418 17.2137 17.794 16.8408C18.137 16.4396 18.3255 15.9291 18.3255 15.4013C18.3255 14.8735 18.137 14.363 17.794 13.9618C17.3418 13.5889 16.7623 13.4064 16.178 13.4528H14.113V17.3528L16.178 17.3498Z" fill="white"/>
<path d="M22.1711 6.46094H10.3281V8.96094H22.1711V6.46094Z" fill="#E50913"/>
</g>
<defs>
<linearGradient id="paint0_linear_495_23" x1="16" y1="0" x2="16" y2="32" gradientUnits="userSpaceOnUse">
<stop stop-color="#434343"/>
<stop offset="1"/>
</linearGradient>
<clipPath id="clip0_495_23">
<rect width="32" height="32" fill="white"/>
</clipPath>
</defs>
</svg>
