<svg width="64" height="64" viewBox="0 0 64 64" fill="none" xmlns="http://www.w3.org/2000/svg">
<circle cx="32" cy="32" r="32" fill="url(#paint0_linear_5736_18543)"/>
<path d="M27.9741 27.6259L30.0976 26.1366C29.8852 25.7111 27.7618 22.3071 20.7543 22.3071C12.8975 22.3071 9.5 27.8386 9.5 32.3064C9.5 36.7741 12.8975 41.6674 20.3296 41.6674C26.2753 41.6674 30.0268 38.5471 31.1593 36.9869V31.0299L20.7543 31.2426V33.7956H28.1864V36.1359C27.7618 36.5614 25.0013 38.9016 20.3296 38.9016C15.658 38.9016 12.6852 35.9231 12.6852 32.3064C12.6852 28.6896 15.2333 24.8601 20.7543 24.8601C25.8506 24.8601 27.1247 26.7749 27.9741 27.6259Z" fill="white"/>
<path d="M50.8149 27.6259L52.9384 26.1366C52.726 25.7111 50.6026 22.3071 43.5952 22.3071C35.7384 22.3071 32.3408 27.8386 32.3408 32.3064C32.3408 36.7741 35.7384 41.6674 43.1705 41.6674C49.1162 41.6674 52.8676 38.5471 54.0001 36.9869V31.0299L43.5952 31.2426V33.7956H51.0273V36.1359C50.6026 36.5614 47.8421 38.9016 43.1705 38.9016C38.4989 38.9016 35.526 35.9231 35.526 32.3064C35.526 28.6896 38.0742 24.8601 43.5952 24.8601C48.6915 24.8601 49.9655 26.7749 50.8149 27.6259Z" fill="white"/>
<defs>
<linearGradient id="paint0_linear_5736_18543" x1="12.2553" y1="7.14894" x2="56" y2="54" gradientUnits="userSpaceOnUse">
<stop stop-color="#D6F5DC"/>
<stop offset="0.286458" stop-color="#9DE0D5"/>
<stop offset="0.972566" stop-color="#0EA0AB"/>
</linearGradient>
</defs>
</svg>
