<svg width="32" height="32" viewBox="0 0 32 32" fill="none" xmlns="http://www.w3.org/2000/svg">
<g clip-path="url(#clip0_613_399)">
<path d="M16 32C24.8365 32 32 24.8365 32 16C32 7.16344 24.8365 0 16 0C7.16344 0 0 7.16344 0 16C0 24.8365 7.16344 32 16 32Z" fill="url(#paint0_linear_613_399)"/>
<path opacity="0.95" d="M14.7962 10H8.79912C8.32197 10 7.86435 10.1896 7.52694 10.527C7.18955 10.8644 7 11.322 7 11.7991V20.195C7.00069 20.5758 7.12218 20.9466 7.34699 21.2539C7.57179 21.5613 7.88832 21.7894 8.25102 21.9054C8.61371 22.0214 9.00386 22.0194 9.36531 21.8995C9.72675 21.7797 10.0409 21.5482 10.2624 21.2386L16.2595 12.8426C16.451 12.5737 16.5648 12.2572 16.5885 11.9279C16.612 11.5986 16.5446 11.2692 16.3934 10.9757C16.2424 10.6822 16.0134 10.4359 15.7317 10.2637C15.45 10.0917 15.1263 10.0004 14.7962 10ZM9.99853 14.198C9.7613 14.198 9.52944 14.1276 9.33218 13.9958C9.13493 13.864 8.9812 13.6767 8.89042 13.4576C8.79965 13.2384 8.77589 12.9972 8.82216 12.7645C8.86845 12.5319 8.98267 12.3182 9.15042 12.1504C9.31816 11.9827 9.5319 11.8684 9.76453 11.8221C9.99722 11.7759 10.2384 11.7997 10.4576 11.8904C10.6767 11.9812 10.864 12.135 10.9958 12.3322C11.1276 12.5294 11.198 12.7613 11.198 12.9985C11.198 13.3166 11.0716 13.6217 10.8466 13.8466C10.6217 14.0716 10.3166 14.198 9.99853 14.198Z" fill="black"/>
<path opacity="0.95" d="M19.2961 21.3911C20.1242 21.3911 20.7954 20.7198 20.7954 19.8918C20.7954 19.0638 20.1242 18.3926 19.2961 18.3926C18.4681 18.3926 17.7969 19.0638 17.7969 19.8918C17.7969 20.7198 18.4681 21.3911 19.2961 21.3911Z" fill="black"/>
<path opacity="0.95" d="M24.9992 11.7991V20.195C24.9998 20.644 24.8326 21.077 24.5304 21.409C24.2281 21.741 23.8128 21.9478 23.3656 21.9893C22.9185 22.0306 22.4723 21.9034 22.1142 21.6323C21.7563 21.3613 21.5126 20.9664 21.4308 20.5248C21.4116 20.416 21.4017 20.3056 21.4009 20.195V18.8277C21.3977 18.4478 21.2744 18.0789 21.0486 17.7734C20.823 17.468 20.5064 17.2419 20.1443 17.1274C19.782 17.013 19.3931 17.016 19.0328 17.1362C18.6724 17.2562 18.3595 17.4874 18.1385 17.7962L17.203 19.1096L15.6977 21.2205C15.4106 21.5856 14.9935 21.8254 14.5336 21.8899C14.0736 21.9546 13.6067 21.8387 13.2302 21.5669C12.8537 21.2949 12.5969 20.888 12.5136 20.4312C12.4303 19.9742 12.5268 19.5029 12.7831 19.1155L18.7803 10.7196C18.9459 10.4986 19.1603 10.3187 19.4068 10.194C19.6532 10.0692 19.9252 10.0028 20.2016 10H23.2001C23.6772 10 24.1348 10.1896 24.4723 10.527C24.8096 10.8644 24.9992 11.322 24.9992 11.7991Z" fill="white"/>
<path d="M27.1371 27.1371C25.6746 28.5996 23.9383 29.7598 22.0274 30.5513C20.1165 31.3428 18.0684 31.7502 16.0001 31.7502C13.9318 31.7502 11.8837 31.3428 9.9728 30.5513C8.06191 29.7598 6.32563 28.5996 4.8631 27.1371C3.40057 25.6746 2.24042 23.9383 1.4489 22.0274C0.657388 20.1165 0.25 18.0684 0.25 16.0001C0.25 13.9318 0.657388 11.8837 1.4489 9.9728C2.24042 8.06191 3.40057 6.32563 4.8631 4.8631C7.81681 1.90938 11.8229 0.25 16.0001 0.25C20.1773 0.25 24.1834 1.90938 27.1371 4.8631C30.0908 7.81681 31.7502 11.8229 31.7502 16.0001C31.7502 20.1773 30.0908 24.1834 27.1371 27.1371Z" stroke="white" stroke-width="0.5"/>
</g>
<defs>
<linearGradient id="paint0_linear_613_399" x1="16" y1="0" x2="16" y2="32" gradientUnits="userSpaceOnUse">
<stop stop-color="#FFD161"/>
<stop offset="1" stop-color="#FABA1C"/>
</linearGradient>
<clipPath id="clip0_613_399">
<rect width="32" height="32" fill="white"/>
</clipPath>
</defs>
</svg>
