<svg width="64" height="64" viewBox="0 0 64 64" fill="none" xmlns="http://www.w3.org/2000/svg">
<circle cx="32" cy="32" r="32" fill="#4C5460"/>
<g clip-path="url(#clip0_928_31861)">
<path fill-rule="evenodd" clip-rule="evenodd" d="M41.5332 38.5127C41.5332 41.557 39.0475 44.0333 35.9914 44.0333H25.3665L36.4085 33.0333C39.2668 33.2502 41.5332 35.6105 41.5332 38.5127ZM23.7998 32.5667V19.8H36.0157C36.2245 19.8 36.4304 19.8112 36.6332 19.8339L23.7998 32.5667ZM43.7559 25.2959C43.7559 22.7231 42.4832 20.4411 40.5308 19.0385L45.7998 13.8L42.6478 13.818L38.4616 17.9796C37.6868 17.721 36.8577 17.5806 35.9962 17.5806H21.5847V37.8752L38.9356 20.6245C40.4984 21.6004 41.5395 23.3295 41.5395 25.2959C41.5395 28.3349 39.0531 30.8071 35.9962 30.8071H35.5374L16.2332 50H19.3673L23.152 46.237H35.9962C40.2748 46.237 43.7559 42.7763 43.7559 38.5224C43.7559 35.7169 42.2372 33.2638 39.9792 31.9134C42.2396 30.5633 43.7559 28.1028 43.7559 25.2959Z" fill="white"/>
</g>
<defs>
<clipPath id="clip0_928_31861">
<rect width="36" height="36" fill="white" transform="translate(13 14)"/>
</clipPath>
</defs>
</svg>
