<svg width="20" height="20" viewBox="0 0 20 20" fill="none" xmlns="http://www.w3.org/2000/svg">
<path d="M10 20C15.5228 20 20 15.5228 20 10C20 4.47715 15.5228 0 10 0C4.47715 0 0 4.47715 0 10C0 15.5228 4.47715 20 10 20Z" fill="white"/>
<path d="M9.99966 19.9986C8.68593 20.0023 7.38453 19.7452 6.17076 19.2426C4.957 18.7399 3.85498 18.0016 2.9285 17.0702C1.99708 16.1438 1.25867 15.042 0.755997 13.8282C0.253327 12.6145 -0.00361695 11.313 4.01687e-05 9.99934C-0.00369585 8.68564 0.253213 7.38418 0.755888 6.17044C1.25856 4.9567 1.99702 3.85488 2.9285 2.92848C3.85493 1.99702 4.95692 1.25844 6.1707 0.755777C7.38447 0.253118 8.68592 -0.00369572 9.99966 4.01809e-05C11.3134 -0.00369572 12.6148 0.253118 13.8286 0.755777C15.0424 1.25844 16.1444 1.99702 17.0708 2.92848C18.0023 3.85488 18.7408 4.9567 19.2434 6.17044C19.7461 7.38418 20.003 8.68564 19.9993 9.99934C20.0029 11.313 19.746 12.6145 19.2433 13.8282C18.7406 15.042 18.0022 16.1438 17.0708 17.0702C16.1443 18.0016 15.0423 18.7399 13.8286 19.2426C12.6148 19.7452 11.3134 20.0023 9.99966 19.9986ZM9.99966 1.42851C7.72722 1.43097 5.54855 2.33478 3.94169 3.94159C2.33483 5.5484 1.43101 7.72697 1.42856 9.99934C1.43101 12.2717 2.33483 14.4503 3.94169 16.0571C5.54855 17.6639 7.72722 18.5677 9.99966 18.5702C12.2721 18.5677 14.4508 17.6639 16.0576 16.0571C17.6645 14.4503 18.5683 12.2717 18.5708 9.99934C18.5683 7.72697 17.6645 5.5484 16.0576 3.94159C14.4508 2.33478 12.2721 1.43097 9.99966 1.42851Z" fill="#28646E"/>
<path opacity="0.41" d="M9.28464 19.9742V18.5408C9.52273 18.5608 9.76081 18.5708 9.9989 18.5708C10.237 18.5708 10.4751 18.5611 10.7132 18.5415V19.9749C10.4751 19.9916 10.237 20 9.9989 20C9.76081 20 9.52273 19.9913 9.28464 19.9742ZM15.5315 16.5411C15.8953 16.2329 16.2328 15.8951 16.5408 15.5311L17.5572 16.5474C17.402 16.7264 17.2396 16.9004 17.0701 17.0695C16.9005 17.2385 16.7265 17.401 16.5479 17.5567L15.5315 16.5411ZM2.92916 17.0702C2.75964 16.9007 2.59704 16.7264 2.44133 16.5474L3.45773 15.5311C3.76592 15.8951 4.10373 16.2329 4.46769 16.5411L3.4513 17.5574C3.27226 17.4021 3.09774 17.2397 2.92774 17.0702H2.92916ZM18.5407 10.7135C18.5603 10.4755 18.57 10.2374 18.57 9.9993C18.57 9.76122 18.5603 9.52315 18.5407 9.28507H19.9742C19.9909 9.52315 19.9992 9.76122 19.9992 9.9993C19.9992 10.2374 19.9909 10.4755 19.9742 10.7135H18.5407ZM0.0250017 10.7135C0.00833563 10.4755 0 10.2374 0 9.9993C0 9.76122 0.00833563 9.52315 0.0250017 9.28507H1.45851C1.43899 9.52315 1.42924 9.76122 1.42924 9.9993C1.42924 10.2374 1.43899 10.4755 1.45851 10.7135H0.0250017ZM2.44133 3.45191C2.59704 3.27287 2.75964 3.09887 2.92916 2.92983C3.09868 2.7608 3.27298 2.59811 3.45202 2.44193L4.46769 3.45749C4.1038 3.76601 3.766 4.10406 3.45773 4.46816L2.44133 3.45191ZM15.5315 3.45749L16.5472 2.44193C16.7263 2.59764 16.9005 2.76032 17.0701 2.92983C17.2396 3.09934 17.402 3.27335 17.5572 3.45191L16.5408 4.46816C16.2326 4.10396 15.8955 3.76589 15.5315 3.45749ZM9.28464 0.0251099C9.52273 0.00844435 9.76081 0 9.9989 0C10.237 0 10.4751 0.00844435 10.7132 0.0251099V1.45707C10.4775 1.43755 10.2394 1.42777 9.9989 1.42777C9.75843 1.42777 9.52035 1.43777 9.28464 1.45777V0.0251099Z" fill="white"/>
<path d="M9.19618 8.19519C9.13697 8.19527 9.07913 8.17729 9.03039 8.14367C8.98164 8.11004 8.9443 8.06236 8.92334 8.00697C8.90238 7.95159 8.8988 7.89113 8.91307 7.83366C8.92734 7.77618 8.95878 7.72442 9.00322 7.68527C9.82632 6.96019 10.1904 6.36147 10.255 6.24876C10.4971 5.8273 10.8858 5.6094 11.2939 5.66473C11.3691 5.67667 11.4367 5.71758 11.4821 5.7787C11.5275 5.83982 11.5472 5.91629 11.5369 5.99174C11.5266 6.06719 11.4872 6.13562 11.4271 6.18238C11.367 6.22914 11.291 6.25052 11.2154 6.24193C10.9773 6.21051 10.8178 6.439 10.7604 6.53907C10.6877 6.66578 10.2802 7.33622 9.38915 8.12244C9.33574 8.16918 9.26716 8.19491 9.19618 8.19485V8.19519ZM4.29134 13.1339C4.23147 13.1338 4.17308 13.1153 4.12408 13.0809C4.07509 13.0465 4.03786 12.9979 4.01746 12.9416C3.99706 12.8853 3.99447 12.8241 4.01004 12.7663C4.02562 12.7085 4.0586 12.6569 4.10452 12.6185C4.44264 12.3517 4.80126 12.112 5.17695 11.9019C5.24564 11.8711 5.32358 11.868 5.39449 11.8933C5.46539 11.9187 5.52376 11.9704 5.55737 12.0378C5.59099 12.1051 5.59726 12.1829 5.57486 12.2548C5.55246 12.3267 5.50314 12.3871 5.4372 12.4234C5.10189 12.6138 4.78111 12.8286 4.47748 13.0662C4.42535 13.11 4.35942 13.134 4.29134 13.1339Z" fill="#28646E"/>
<path d="M11.6183 10.3691C11.7337 10.4774 11.868 10.4306 11.9919 10.3134C12.8362 9.50875 13.7304 8.2454 14.0289 7.58964C14.0924 7.44961 14.2212 7.3714 14.3595 7.42673C14.5217 7.49265 14.5197 7.77168 14.3725 8.07531C13.9821 8.87793 13.4411 9.76252 12.3728 10.8691C12.3502 10.8904 12.3323 10.9161 12.3203 10.9446C12.3082 10.9731 12.3023 11.0039 12.3027 11.0349C12.3032 11.0658 12.3102 11.0964 12.3231 11.1245C12.336 11.1527 12.3547 11.1778 12.3779 11.1983C12.4721 11.283 12.6248 11.2776 12.7679 11.1321C13.3229 10.5662 13.6966 10.1283 14.0179 9.67372C14.0999 9.55452 14.199 9.50636 14.2966 9.52822C14.437 9.55623 14.4592 9.69114 14.4162 9.85337C14.3468 10.1157 13.6095 11.0802 13.3178 11.4074C12.5261 12.2909 11.7337 12.7749 10.2098 13.5673C9.67766 13.846 9.27977 14.1083 9.03864 14.515C8.81972 14.8853 8.7538 15.0065 8.73126 15.0533C8.68834 15.1404 8.68133 15.2408 8.71174 15.333C8.74215 15.4252 8.80754 15.5017 8.89383 15.5461C8.93782 15.5672 8.98564 15.579 9.03436 15.581C9.08309 15.5829 9.1317 15.5749 9.17722 15.5574C9.22274 15.5399 9.26422 15.5134 9.29912 15.4793C9.33402 15.4452 9.3616 15.4044 9.38018 15.3593C9.38018 15.3549 9.36891 15.3655 9.65546 14.8812C9.87067 14.5349 10.1829 14.2594 10.5534 14.0891C12.0777 13.3944 12.7023 12.8446 13.5866 11.9603C13.9903 11.5563 14.548 10.6915 14.7017 10.4357C15.1279 9.71846 14.9042 9.10369 14.5197 8.99918C14.5084 8.99653 14.4984 8.98996 14.4915 8.98064C14.4846 8.97131 14.4813 8.95985 14.4821 8.94829C14.4827 8.94068 14.485 8.93331 14.4889 8.92677C14.7868 8.41651 14.922 8.06404 14.9784 7.79081C15.0542 7.41956 14.949 6.96907 14.4394 6.85909C14.4298 6.85674 14.4212 6.85159 14.4145 6.84429C14.4079 6.83699 14.4036 6.82787 14.4022 6.81811C14.4013 6.81148 14.4017 6.80474 14.4035 6.7983C14.4353 6.68047 14.4671 6.53224 14.4889 6.43456C14.5958 5.9523 14.2908 5.51582 13.9247 5.43726C13.8066 5.41084 13.6841 5.40997 13.5656 5.43471C13.4471 5.45945 13.3352 5.50923 13.2375 5.58071C13.2238 5.58983 13.2073 5.59372 13.191 5.59165C13.1747 5.58958 13.1597 5.58169 13.1487 5.56944C13.1007 5.51563 13.0422 5.47215 12.9769 5.44162C12.9115 5.41109 12.8407 5.39415 12.7686 5.39184C12.4493 5.38637 12.135 5.4844 11.9055 5.97519C11.7409 6.32595 11.496 6.79727 10.7791 7.59238C10.1138 8.3301 9.18755 9.04938 8.61616 9.42473C8.51575 9.49065 8.37537 9.47494 8.39313 9.34037C8.41977 9.12623 8.64929 7.69074 8.68788 7.26723C8.75175 6.57971 8.38186 6.26345 7.96723 6.20778C7.62569 6.16133 7.10758 6.25969 6.82376 7.03703C6.65641 7.49265 6.31077 8.24096 6.01704 9.44659C5.81007 10.2946 5.77626 11.2834 5.96513 12.419C5.97707 12.4875 5.96372 12.558 5.92756 12.6174C5.70146 12.9901 5.37017 13.4802 5.18505 13.9078C5.14814 13.9907 5.14327 14.0844 5.17141 14.1707C5.19955 14.257 5.25868 14.3298 5.33738 14.375C5.38028 14.3985 5.42754 14.413 5.47624 14.4175C5.52494 14.4221 5.57406 14.4166 5.62057 14.4015C5.66709 14.3864 5.71001 14.3619 5.74671 14.3295C5.78341 14.2972 5.81311 14.2577 5.83398 14.2135C5.94566 13.9812 6.16869 13.544 6.25851 13.3654C6.41221 13.0502 6.51467 12.8422 6.55633 12.7114C6.5939 12.5918 6.61645 12.4535 6.5478 12.1393C6.43167 11.6099 6.39103 10.615 6.60688 9.73861C6.84225 8.83084 7.12904 7.93718 7.46585 7.06197C7.55261 6.84748 7.6759 6.78054 7.80056 6.79147C7.92454 6.80274 8.15884 6.86251 8.09121 7.29968C7.97099 8.08522 7.80022 9.08388 7.74387 9.41859C7.71654 9.58287 7.68478 9.96778 7.98875 10.1433C8.22578 10.2806 8.48672 10.2041 8.77498 10.0118C9.4239 9.57911 10.5421 8.6976 11.2446 7.90864C11.9817 7.08041 12.2167 6.58757 12.4059 6.14152C12.4926 5.93796 12.7146 5.93967 12.7932 5.96255C12.8717 5.98543 12.9667 6.09131 12.8997 6.31536C12.7361 6.85977 12.063 8.10639 10.7662 9.27582C10.6193 9.40868 10.6401 9.56511 10.7149 9.64708C10.7897 9.72905 10.9219 9.77823 11.0729 9.64708C12.2382 8.6532 12.9035 7.46567 13.2023 6.83074C13.3021 6.61899 13.3875 6.40109 13.4578 6.1784C13.5213 5.99397 13.6634 5.92806 13.7628 5.94855C13.9046 5.9786 13.9985 6.1241 13.9531 6.36352C13.8806 6.66954 13.774 6.96648 13.6354 7.24879C13.2621 8.04184 12.4732 9.10335 11.6224 10.0139C11.5973 10.0361 11.5772 10.0633 11.5633 10.0937C11.5494 10.1242 11.542 10.1572 11.5416 10.1907C11.5413 10.2241 11.548 10.2573 11.5612 10.288C11.5745 10.3188 11.5937 10.3464 11.6183 10.3691ZM6.34936 6.42021C6.39445 6.3806 6.37669 6.33005 6.36371 6.28906C6.30155 6.08892 5.94395 5.25147 5.85037 5.08309C5.8029 4.99839 5.74313 4.98677 5.67926 5.01136C5.5949 5.04347 5.49073 5.12271 5.33089 5.26069C5.17173 5.39935 5.08157 5.49396 5.03853 5.5732C5.0054 5.63399 5.0095 5.69478 5.08737 5.75216C5.24209 5.86726 6.02592 6.33039 6.2165 6.42158C6.2551 6.43934 6.30325 6.46325 6.34834 6.42158L6.34936 6.42021ZM12.8113 13.8343C12.7519 13.8381 12.7351 13.89 12.7208 13.929C12.6491 14.1264 12.4236 15.0092 12.3963 15.1998C12.3823 15.2955 12.4223 15.3409 12.4882 15.3603C12.5746 15.386 12.7044 15.3877 12.9165 15.3733C13.1282 15.359 13.256 15.3405 13.3386 15.303C13.4015 15.2753 13.4349 15.2244 13.4083 15.1312C13.3554 14.9467 13.0142 14.1018 12.9165 13.9156C12.897 13.8781 12.8728 13.8299 12.8133 13.8343H12.8113ZM13.3212 13.4252C13.2939 13.4781 13.3284 13.5191 13.3554 13.5522C13.4862 13.7162 14.1238 14.3668 14.2721 14.4894C14.3465 14.5512 14.4063 14.5407 14.4572 14.4945C14.5241 14.4337 14.5931 14.3238 14.6908 14.1352C14.7881 13.9471 14.839 13.8279 14.8503 13.7384C14.8592 13.6701 14.8332 13.6154 14.7386 13.5895C14.5531 13.5389 13.6542 13.391 13.4442 13.3781C13.4022 13.3753 13.3485 13.3702 13.3205 13.4238L13.3212 13.4252ZM6.04027 6.96668C6.03002 6.90759 5.97674 6.89632 5.9361 6.88641C5.7322 6.83621 4.82985 6.70881 4.63757 6.70198C4.54091 6.69857 4.49959 6.74365 4.48729 6.81333C4.47124 6.90213 4.48387 7.03123 4.52144 7.24025C4.55901 7.44859 4.59112 7.57462 4.63688 7.65249C4.67206 7.71157 4.72603 7.73958 4.81551 7.70338C4.99379 7.63029 5.79607 7.20131 5.96991 7.08212C6.00543 7.05821 6.0512 7.02986 6.04027 6.97078V6.96668Z" fill="#28646E"/>
</svg>
