<svg width="32" height="32" viewBox="0 0 32 32" fill="none" xmlns="http://www.w3.org/2000/svg">
<g clip-path="url(#clip0_1380_28645)">
<path d="M16 32C24.8366 32 32 24.8366 32 16C32 7.16344 24.8366 0 16 0C7.16344 0 0 7.16344 0 16C0 24.8366 7.16344 32 16 32Z" fill="url(#paint0_linear_1380_28645)"/>
<path d="M15.9996 31.636C24.6354 31.636 31.636 24.6354 31.636 15.9996C31.636 7.36392 24.6354 0.363281 15.9996 0.363281C7.36392 0.363281 0.363281 7.36392 0.363281 15.9996C0.363281 24.6354 7.36392 31.636 15.9996 31.636Z" stroke="white" stroke-width="0.5"/>
<path d="M16.0005 30.546C7.98017 30.546 1.45508 24.0209 1.45508 16.0005C1.45508 7.98017 7.98017 1.45508 16.0005 1.45508C24.0209 1.45508 30.546 7.98017 30.546 16.0005C30.546 24.0209 24.0209 30.546 16.0005 30.546ZM16.0005 2.68659C8.65896 2.68659 2.68659 8.65993 2.68659 16.0005C2.68659 23.3411 8.65896 29.3145 16.0005 29.3145C23.3411 29.3145 29.3145 23.3416 29.3145 16.0005C29.3145 8.65944 23.3416 2.68659 16.001 2.68659H16.0005Z" fill="#28646E"/>
<path d="M15.0445 13.3426C14.9604 13.3427 14.8783 13.3171 14.8091 13.2694C14.7399 13.2217 14.6869 13.154 14.6571 13.0754C14.6274 12.9967 14.6223 12.9109 14.6425 12.8293C14.6628 12.7477 14.7074 12.6743 14.7705 12.6187C15.939 11.5893 16.4559 10.7394 16.5475 10.5794C16.8912 9.9811 17.443 9.67177 18.0224 9.75032C18.1292 9.76727 18.225 9.82534 18.2895 9.91211C18.354 9.99888 18.3819 10.1074 18.3673 10.2145C18.3528 10.3217 18.2968 10.4188 18.2115 10.4852C18.1262 10.5516 18.0183 10.5819 17.9109 10.5697C17.5729 10.5251 17.3465 10.8495 17.2651 10.9915C17.1618 11.1714 16.5834 12.1232 15.3184 13.2393C15.2426 13.3056 15.1452 13.3422 15.0445 13.3421V13.3426ZM8.08155 20.3535C7.99657 20.3534 7.91367 20.3271 7.84412 20.2783C7.77456 20.2295 7.72172 20.1604 7.69276 20.0805C7.66379 20.0006 7.66012 19.9137 7.68223 19.8317C7.70433 19.7496 7.75116 19.6764 7.81634 19.6218C8.29634 19.2432 8.80543 18.9028 9.33876 18.6046C9.43627 18.5609 9.54693 18.5565 9.64758 18.5924C9.74823 18.6284 9.83109 18.7019 9.87881 18.7975C9.92654 18.8931 9.93543 19.0035 9.90363 19.1055C9.87184 19.2076 9.80182 19.2934 9.70822 19.345C9.23221 19.6152 8.77682 19.9201 8.34579 20.2575C8.27179 20.3196 8.1782 20.3536 8.08155 20.3535Z" fill="#28646E"/>
<path d="M18.4704 16.4302C18.6343 16.5839 18.8248 16.5174 19.0008 16.3511C20.1993 15.2088 21.4687 13.4154 21.8924 12.4845C21.9826 12.2857 22.1654 12.1747 22.3618 12.2532C22.5921 12.3468 22.5892 12.7429 22.3802 13.1739C21.826 14.3133 21.058 15.5691 19.5414 17.14C19.5094 17.1702 19.484 17.2067 19.4669 17.2472C19.4498 17.2877 19.4413 17.3313 19.442 17.3753C19.4427 17.4193 19.4525 17.4626 19.4709 17.5026C19.4893 17.5425 19.5157 17.5782 19.5487 17.6074C19.6825 17.7276 19.8992 17.7199 20.1024 17.5133C20.8902 16.7099 21.4207 16.0884 21.8769 15.443C21.9933 15.2738 22.1339 15.2054 22.2726 15.2365C22.4718 15.2762 22.5033 15.4677 22.4422 15.698C22.3438 16.0704 21.297 17.4396 20.883 17.9041C19.7591 19.1584 18.6342 19.8454 16.4709 20.9703C15.7155 21.3659 15.1506 21.7383 14.8083 22.3157C14.4975 22.8413 14.4039 23.0134 14.3719 23.0799C14.311 23.2035 14.3011 23.346 14.3442 23.4769C14.3874 23.6077 14.4802 23.7164 14.6027 23.7795C14.6652 23.8094 14.7331 23.8262 14.8022 23.829C14.8714 23.8317 14.9404 23.8203 15.005 23.7955C15.0697 23.7707 15.1285 23.733 15.1781 23.6846C15.2276 23.6362 15.2668 23.5783 15.2932 23.5143C15.2932 23.508 15.2772 23.523 15.6839 22.8355C15.9895 22.3439 16.4327 21.9529 16.9586 21.7111C19.1225 20.725 20.0093 19.9444 21.2646 18.6891C21.8376 18.1155 22.6294 16.8879 22.8476 16.5247C23.4527 15.5065 23.1351 14.6338 22.5892 14.4854C22.5731 14.4817 22.559 14.4724 22.5492 14.4591C22.5394 14.4459 22.5347 14.4296 22.5358 14.4132C22.5366 14.4024 22.5399 14.3919 22.5455 14.3827C22.9683 13.6583 23.1603 13.1579 23.2403 12.77C23.3479 12.243 23.1986 11.6035 22.4752 11.4474C22.4616 11.444 22.4493 11.4367 22.4399 11.4264C22.4305 11.416 22.4244 11.4031 22.4224 11.3892C22.4211 11.3798 22.4217 11.3702 22.4243 11.3611C22.4694 11.1938 22.5145 10.9834 22.5455 10.8447C22.6973 10.1601 22.2643 9.54047 21.7446 9.42896C21.5768 9.39145 21.403 9.39021 21.2348 9.42533C21.0665 9.46045 20.9077 9.53112 20.769 9.63259C20.7496 9.64555 20.7262 9.65106 20.703 9.64812C20.6799 9.64518 20.6585 9.63399 20.643 9.61659C20.5748 9.54021 20.4918 9.47848 20.399 9.43514C20.3063 9.3918 20.2057 9.36776 20.1033 9.36447C19.65 9.35671 19.2039 9.49587 18.8781 10.1926C18.6444 10.6905 18.2968 11.3596 17.2791 12.4884C16.3346 13.5356 15.0197 14.5567 14.2086 15.0896C14.066 15.1831 13.8667 15.1608 13.8919 14.9698C13.9298 14.6658 14.2556 12.628 14.3104 12.0268C14.401 11.0508 13.8759 10.6018 13.2873 10.5228C12.8025 10.4568 12.067 10.5965 11.6641 11.7C11.4265 12.3468 10.9358 13.4091 10.5189 15.1206C10.225 16.3245 10.177 17.7281 10.4452 19.3402C10.4621 19.4375 10.4432 19.5376 10.3918 19.6219C10.0709 20.1509 9.60055 20.8467 9.33777 21.4537C9.28535 21.5714 9.27845 21.7044 9.3184 21.8269C9.35834 21.9494 9.44229 22.0528 9.55401 22.117C9.61491 22.1503 9.68199 22.1709 9.75113 22.1773C9.82027 22.1838 9.88999 22.176 9.95603 22.1546C10.0221 22.1331 10.083 22.0983 10.1351 22.0524C10.1872 22.0065 10.2294 21.9504 10.259 21.8876C10.4175 21.5579 10.7341 20.9373 10.8616 20.6837C11.0798 20.2362 11.2253 19.941 11.2844 19.7553C11.3378 19.5856 11.3698 19.3892 11.2723 18.9431C11.1075 18.1916 11.0498 16.7793 11.3562 15.5351C11.6903 14.2465 12.0974 12.9778 12.5756 11.7354C12.6987 11.4309 12.8738 11.3359 13.0507 11.3514C13.2267 11.3674 13.5593 11.4522 13.4633 12.0728C13.2927 13.188 13.0503 14.6057 12.9703 15.0808C12.9315 15.314 12.8864 15.8605 13.3179 16.1097C13.6544 16.3046 14.0248 16.196 14.434 15.923C15.3552 15.3087 16.9426 14.0573 17.9399 12.9373C18.9862 11.7616 19.3198 11.0619 19.5884 10.4287C19.7116 10.1397 20.0267 10.1422 20.1382 10.1747C20.2498 10.2071 20.3846 10.3574 20.2895 10.6755C20.0573 11.4484 19.1016 13.218 17.2607 14.8782C17.0522 15.0668 17.0818 15.2888 17.1879 15.4052C17.2941 15.5216 17.4818 15.5914 17.6961 15.4052C19.3504 13.9943 20.2949 12.3085 20.7191 11.4071C20.8607 11.1065 20.9819 10.7972 21.0818 10.4811C21.1719 10.2193 21.3736 10.1257 21.5147 10.1548C21.7159 10.1974 21.8493 10.404 21.7848 10.7439C21.6819 11.1783 21.5306 11.5998 21.3339 12.0006C20.8039 13.1264 19.6839 14.6333 18.4762 15.9259C18.4406 15.9574 18.412 15.996 18.3923 16.0392C18.3725 16.0825 18.3621 16.1293 18.3616 16.1769C18.3611 16.2244 18.3705 16.2715 18.3894 16.3151C18.4082 16.3587 18.4359 16.3979 18.4709 16.4302H18.4704ZM10.9906 10.8244C11.0546 10.7681 11.0294 10.6964 11.011 10.6382C10.9227 10.354 10.4151 9.1652 10.2822 8.92617C10.2149 8.80593 10.13 8.78944 10.0393 8.82435C9.91958 8.86993 9.7717 8.98241 9.5448 9.17829C9.31886 9.37514 9.19086 9.50944 9.12977 9.62193C9.08274 9.70823 9.08855 9.79453 9.1991 9.87599C9.41874 10.0394 10.5315 10.6968 10.802 10.8263C10.8568 10.8515 10.9252 10.8854 10.9892 10.8263L10.9906 10.8244ZM20.1639 21.3494C20.0796 21.3548 20.0558 21.4285 20.0355 21.4837C19.9336 21.764 19.6136 23.0173 19.5749 23.2879C19.555 23.4236 19.6117 23.4881 19.7053 23.5157C19.8279 23.5521 20.0122 23.5545 20.3133 23.5342C20.6139 23.5138 20.7952 23.4876 20.9126 23.4343C21.0018 23.395 21.0493 23.3228 21.0115 23.1904C20.9363 22.9286 20.4519 21.7291 20.3133 21.4648C20.2856 21.4115 20.2512 21.3431 20.1669 21.3494H20.1644H20.1639ZM20.8878 20.7686C20.849 20.8437 20.898 20.9019 20.9363 20.949C21.122 21.1817 22.0272 22.1053 22.2376 22.2794C22.3433 22.3671 22.4282 22.3521 22.5004 22.2867C22.5955 22.2004 22.6934 22.0442 22.8321 21.7766C22.9702 21.5094 23.0425 21.3402 23.0585 21.2132C23.0711 21.1162 23.0343 21.0387 22.8999 21.0018C22.6367 20.93 21.3606 20.7201 21.0624 20.7017C21.0027 20.6978 20.9266 20.6905 20.8869 20.7667L20.8878 20.7686ZM10.5518 11.6001C10.5373 11.5162 10.4616 11.5002 10.4039 11.4862C10.1145 11.4149 8.83352 11.234 8.56055 11.2244C8.42334 11.2195 8.36467 11.2835 8.34722 11.3824C8.32443 11.5085 8.34237 11.6917 8.3957 11.9885C8.44904 12.2842 8.49461 12.4631 8.55958 12.5737C8.60952 12.6576 8.68613 12.6973 8.81316 12.6459C9.06625 12.5422 10.2052 11.9332 10.4519 11.764C10.5024 11.73 10.5673 11.6898 10.5518 11.6059V11.6001ZM15.9952 28.1926C16.0571 28.1946 16.1187 28.1842 16.1764 28.1619C16.2341 28.1396 16.2868 28.1059 16.3312 28.0629C16.3757 28.0199 16.411 27.9683 16.4352 27.9113C16.4593 27.8544 16.4718 27.7931 16.4718 27.7313C16.4718 27.6694 16.4593 27.6081 16.4352 27.5512C16.411 27.4942 16.3757 27.4427 16.3312 27.3996C16.2868 27.3566 16.2341 27.3229 16.1764 27.3007C16.1187 27.2784 16.0571 27.2679 15.9952 27.2699C15.8755 27.2738 15.7619 27.3241 15.6785 27.4102C15.5952 27.4963 15.5486 27.6114 15.5486 27.7313C15.5486 27.8511 15.5952 27.9662 15.6785 28.0523C15.7619 28.1384 15.8755 28.1887 15.9952 28.1926ZM15.9952 4.73175C16.1176 4.73175 16.235 4.68312 16.3216 4.59655C16.4082 4.50999 16.4568 4.39259 16.4568 4.27017C16.4568 4.14775 16.4082 4.03035 16.3216 3.94379C16.235 3.85722 16.1176 3.80859 15.9952 3.80859C15.8728 3.80859 15.7554 3.85722 15.6688 3.94379C15.5823 4.03035 15.5336 4.14775 15.5336 4.27017C15.5336 4.39259 15.5823 4.50999 15.6688 4.59655C15.7554 4.68312 15.8728 4.73175 15.9952 4.73175ZM19.0313 27.7931C19.092 27.7931 19.152 27.7811 19.208 27.7579C19.264 27.7347 19.3149 27.7007 19.3577 27.6579C19.4006 27.615 19.4346 27.5641 19.4578 27.5081C19.481 27.4521 19.4929 27.3921 19.4929 27.3315C19.4929 27.2709 19.481 27.2109 19.4578 27.1549C19.4346 27.0989 19.4006 27.048 19.3577 27.0051C19.3149 26.9623 19.264 26.9283 19.208 26.9051C19.152 26.8819 19.092 26.8699 19.0313 26.8699C18.9089 26.8699 18.7915 26.9186 18.705 27.0051C18.6184 27.0917 18.5698 27.2091 18.5698 27.3315C18.5698 27.4539 18.6184 27.5713 18.705 27.6579C18.7915 27.7444 18.9089 27.7931 19.0313 27.7931ZM12.9591 5.13126C13.0815 5.13126 13.1989 5.08263 13.2855 4.99607C13.372 4.90951 13.4207 4.7921 13.4207 4.66968C13.4207 4.54727 13.372 4.42986 13.2855 4.3433C13.1989 4.25674 13.0815 4.20811 12.9591 4.20811C12.8367 4.20811 12.7193 4.25674 12.6327 4.3433C12.5462 4.42986 12.4975 4.54727 12.4975 4.66968C12.4975 4.7921 12.5462 4.90951 12.6327 4.99607C12.7193 5.08263 12.8367 5.13126 12.9591 5.13126ZM21.8609 26.6212C21.9228 26.6232 21.9844 26.6128 22.0421 26.5905C22.0998 26.5682 22.1525 26.5345 22.1969 26.4915C22.2414 26.4485 22.2767 26.3969 22.3009 26.34C22.325 26.283 22.3375 26.2217 22.3375 26.1599C22.3375 26.098 22.325 26.0368 22.3009 25.9798C22.2767 25.9228 22.2414 25.8713 22.1969 25.8282C22.1525 25.7852 22.0998 25.7515 22.0421 25.7293C21.9844 25.707 21.9228 25.6965 21.8609 25.6985C21.7412 25.7024 21.6276 25.7527 21.5442 25.8388C21.4609 25.9249 21.4143 26.04 21.4143 26.1599C21.4143 26.2797 21.4609 26.3948 21.5442 26.4809C21.6276 26.567 21.7412 26.6173 21.8609 26.6212ZM10.13 6.30265C10.1918 6.30466 10.2535 6.29421 10.3112 6.27193C10.3689 6.24965 10.4216 6.21599 10.466 6.17295C10.5105 6.12991 10.5458 6.07838 10.57 6.02141C10.5941 5.96444 10.6065 5.9032 10.6065 5.84132C10.6065 5.77945 10.5941 5.7182 10.57 5.66123C10.5458 5.60426 10.5105 5.55273 10.466 5.50969C10.4216 5.46665 10.3689 5.43299 10.3112 5.41071C10.2535 5.38843 10.1918 5.37798 10.13 5.37999C10.0102 5.38387 9.89668 5.43418 9.81334 5.52027C9.72999 5.60636 9.68339 5.72149 9.68339 5.84132C9.68339 5.96115 9.72999 6.07628 9.81334 6.16237C9.89668 6.24847 10.0102 6.29877 10.13 6.30265ZM24.29 24.757C24.3518 24.759 24.4135 24.7485 24.4712 24.7262C24.5289 24.704 24.5816 24.6703 24.626 24.6273C24.6705 24.5842 24.7058 24.5327 24.73 24.4757C24.7541 24.4187 24.7665 24.3575 24.7665 24.2956C24.7665 24.2338 24.7541 24.1725 24.73 24.1155C24.7058 24.0586 24.6705 24.007 24.626 23.964C24.5816 23.921 24.5289 23.8873 24.4712 23.865C24.4135 23.8427 24.3518 23.8323 24.29 23.8343C24.1702 23.8382 24.0567 23.8885 23.9733 23.9746C23.89 24.0607 23.8434 24.1758 23.8434 24.2956C23.8434 24.4155 23.89 24.5306 23.9733 24.6167C24.0567 24.7028 24.1702 24.7531 24.29 24.757ZM7.69995 8.1669C7.76179 8.1689 7.8234 8.15845 7.88112 8.13617C7.93885 8.11389 7.9915 8.08023 8.03596 8.03719C8.08041 7.99416 8.11576 7.94262 8.1399 7.88565C8.16404 7.82868 8.17648 7.76744 8.17648 7.70556C8.17648 7.64369 8.16404 7.58245 8.1399 7.52548C8.11576 7.46851 8.08041 7.41697 8.03596 7.37393C7.9915 7.3309 7.93885 7.29724 7.88112 7.27496C7.8234 7.25267 7.76179 7.24222 7.69995 7.24423C7.58018 7.24811 7.46662 7.29842 7.38327 7.38451C7.29993 7.4706 7.25333 7.58574 7.25333 7.70556C7.25333 7.82539 7.29993 7.94052 7.38327 8.02662C7.46662 8.11271 7.58018 8.16301 7.69995 8.1669ZM27.3261 19.4978C27.4485 19.4978 27.5659 19.4492 27.6525 19.3626C27.7391 19.2761 27.7877 19.1586 27.7877 19.0362C27.7877 18.9138 27.7391 18.7964 27.6525 18.7098C27.5659 18.6233 27.4485 18.5747 27.3261 18.5747C27.2037 18.5747 27.0863 18.6233 26.9997 18.7098C26.9132 18.7964 26.8646 18.9138 26.8646 19.0362C26.8646 19.1586 26.9132 19.2761 26.9997 19.3626C27.0863 19.4492 27.2037 19.4978 27.3261 19.4978ZM26.1542 22.3279C26.2149 22.3279 26.2749 22.3159 26.3309 22.2927C26.3869 22.2695 26.4378 22.2355 26.4806 22.1927C26.5235 22.1498 26.5575 22.0989 26.5807 22.0429C26.6039 21.9869 26.6158 21.9269 26.6158 21.8663C26.6158 21.8057 26.6039 21.7457 26.5807 21.6897C26.5575 21.6337 26.5235 21.5828 26.4806 21.5399C26.4378 21.497 26.3869 21.463 26.3309 21.4399C26.2749 21.4167 26.2149 21.4047 26.1542 21.4047C26.0318 21.4047 25.9144 21.4533 25.8279 21.5399C25.7413 21.6265 25.6927 21.7439 25.6927 21.8663C25.6927 21.9887 25.7413 22.1061 25.8279 22.1927C25.9144 22.2792 26.0318 22.3279 26.1542 22.3279ZM5.8357 10.5965C5.95812 10.5965 6.07553 10.5478 6.16209 10.4613C6.24865 10.3747 6.29728 10.2573 6.29728 10.1349C6.29728 10.0125 6.24865 9.89508 6.16209 9.80851C6.07553 9.72195 5.95812 9.67332 5.8357 9.67332C5.71329 9.67332 5.59588 9.72195 5.50932 9.80851C5.42276 9.89508 5.37413 10.0125 5.37413 10.1349C5.37413 10.2573 5.42276 10.3747 5.50932 10.4613C5.59588 10.5478 5.71329 10.5965 5.8357 10.5965ZM4.66431 13.426C4.72615 13.4281 4.78777 13.4176 4.84549 13.3953C4.90321 13.373 4.95586 13.3394 5.00032 13.2963C5.04477 13.2533 5.08012 13.2018 5.10426 13.1448C5.1284 13.0878 5.14084 13.0266 5.14084 12.9647C5.14084 12.9028 5.1284 12.8416 5.10426 12.7846C5.08012 12.7277 5.04477 12.6761 5.00032 12.6331C4.95586 12.59 4.90321 12.5564 4.84549 12.5341C4.78777 12.5118 4.72615 12.5014 4.66431 12.5034C4.54189 12.5034 4.42449 12.552 4.33793 12.6386C4.25136 12.7251 4.20273 12.8425 4.20273 12.965C4.20273 13.0874 4.25136 13.2048 4.33793 13.2913C4.42449 13.3779 4.54189 13.4265 4.66431 13.4265V13.426ZM27.7256 16.4622C27.8481 16.4622 27.9655 16.4135 28.052 16.327C28.1386 16.2404 28.1872 16.123 28.1872 16.0006C28.1872 15.8782 28.1386 15.7608 28.052 15.6742C27.9655 15.5876 27.8481 15.539 27.7256 15.539C27.6032 15.539 27.4858 15.5876 27.3993 15.6742C27.3127 15.7608 27.2641 15.8782 27.2641 16.0006C27.2641 16.123 27.3127 16.2404 27.3993 16.327C27.4858 16.4135 27.6032 16.4622 27.7256 16.4622ZM4.26431 16.4622C4.38673 16.4622 4.50413 16.4135 4.59069 16.327C4.67726 16.2404 4.72589 16.123 4.72589 16.0006C4.72589 15.8782 4.67726 15.7608 4.59069 15.6742C4.50413 15.5876 4.38673 15.539 4.26431 15.539C4.14189 15.539 4.02449 15.5876 3.93793 15.6742C3.85136 15.7608 3.80273 15.8782 3.80273 16.0006C3.80273 16.123 3.85136 16.2404 3.93793 16.327C4.02449 16.4135 4.14189 16.4622 4.26431 16.4622ZM27.3261 13.426C27.388 13.4281 27.4496 13.4176 27.5073 13.3953C27.565 13.373 27.6177 13.3394 27.6621 13.2963C27.7066 13.2533 27.7419 13.2018 27.7661 13.1448C27.7902 13.0878 27.8027 13.0266 27.8027 12.9647C27.8027 12.9028 27.7902 12.8416 27.7661 12.7846C27.7419 12.7277 27.7066 12.6761 27.6621 12.6331C27.6177 12.59 27.565 12.5564 27.5073 12.5341C27.4496 12.5118 27.388 12.5014 27.3261 12.5034C27.2037 12.5034 27.0863 12.552 26.9997 12.6386C26.9132 12.7251 26.8646 12.8425 26.8646 12.965C26.8646 13.0874 26.9132 13.2048 26.9997 13.2913C27.0863 13.3779 27.2037 13.4265 27.3261 13.4265V13.426ZM4.66431 19.4978C4.78673 19.4978 4.90413 19.4492 4.99069 19.3626C5.07726 19.2761 5.12589 19.1586 5.12589 19.0362C5.12589 18.9138 5.07726 18.7964 4.99069 18.7098C4.90413 18.6233 4.78673 18.5747 4.66431 18.5747C4.54189 18.5747 4.42449 18.6233 4.33793 18.7098C4.25136 18.7964 4.20273 18.9138 4.20273 19.0362C4.20273 19.1586 4.25136 19.2761 4.33793 19.3626C4.42449 19.4492 4.54189 19.4978 4.66431 19.4978ZM26.1542 10.5965C26.2767 10.5965 26.3941 10.5478 26.4806 10.4613C26.5672 10.3747 26.6158 10.2573 26.6158 10.1349C26.6158 10.0125 26.5672 9.89508 26.4806 9.80851C26.3941 9.72195 26.2767 9.67332 26.1542 9.67332C26.0318 9.67332 25.9144 9.72195 25.8279 9.80851C25.7413 9.89508 25.6927 10.0125 25.6927 10.1349C25.6927 10.2573 25.7413 10.3747 25.8279 10.4613C25.9144 10.5478 26.0318 10.5965 26.1542 10.5965ZM5.8357 22.3279C5.89632 22.3279 5.95634 22.3159 6.01234 22.2927C6.06834 22.2695 6.11923 22.2355 6.16209 22.1927C6.20495 22.1498 6.23895 22.0989 6.26214 22.0429C6.28534 21.9869 6.29728 21.9269 6.29728 21.8663C6.29728 21.8057 6.28534 21.7457 6.26214 21.6897C6.23895 21.6337 6.20495 21.5828 6.16209 21.5399C6.11923 21.497 6.06834 21.463 6.01234 21.4399C5.95634 21.4167 5.89632 21.4047 5.8357 21.4047C5.71329 21.4047 5.59588 21.4533 5.50932 21.5399C5.42276 21.6265 5.37413 21.7439 5.37413 21.8663C5.37413 21.9887 5.42276 22.1061 5.50932 22.1927C5.59588 22.2792 5.71329 22.3279 5.8357 22.3279ZM24.29 8.1669C24.3518 8.1689 24.4135 8.15845 24.4712 8.13617C24.5289 8.11389 24.5816 8.08023 24.626 8.03719C24.6705 7.99416 24.7058 7.94262 24.73 7.88565C24.7541 7.82868 24.7665 7.76744 24.7665 7.70556C24.7665 7.64369 24.7541 7.58245 24.73 7.52548C24.7058 7.46851 24.6705 7.41697 24.626 7.37393C24.5816 7.3309 24.5289 7.29724 24.4712 7.27496C24.4135 7.25267 24.3518 7.24222 24.29 7.24423C24.1702 7.24811 24.0567 7.29842 23.9733 7.38451C23.89 7.4706 23.8434 7.58574 23.8434 7.70556C23.8434 7.82539 23.89 7.94052 23.9733 8.02662C24.0567 8.11271 24.1702 8.16301 24.29 8.1669ZM7.69995 24.757C7.76179 24.759 7.8234 24.7485 7.88112 24.7262C7.93885 24.704 7.9915 24.6703 8.03596 24.6273C8.08041 24.5842 8.11576 24.5327 8.1399 24.4757C8.16404 24.4187 8.17648 24.3575 8.17648 24.2956C8.17648 24.2338 8.16404 24.1725 8.1399 24.1155C8.11576 24.0586 8.08041 24.007 8.03596 23.964C7.9915 23.921 7.93885 23.8873 7.88112 23.865C7.8234 23.8427 7.76179 23.8323 7.69995 23.8343C7.58018 23.8382 7.46662 23.8885 7.38327 23.9746C7.29993 24.0607 7.25333 24.1758 7.25333 24.2956C7.25333 24.4155 7.29993 24.5306 7.38327 24.6167C7.46662 24.7028 7.58018 24.7531 7.69995 24.757ZM21.8609 6.30265C21.9228 6.30466 21.9844 6.29421 22.0421 6.27193C22.0998 6.24965 22.1525 6.21599 22.1969 6.17295C22.2414 6.12991 22.2767 6.07838 22.3009 6.02141C22.325 5.96444 22.3375 5.9032 22.3375 5.84132C22.3375 5.77945 22.325 5.7182 22.3009 5.66123C22.2767 5.60426 22.2414 5.55273 22.1969 5.50969C22.1525 5.46665 22.0998 5.43299 22.0421 5.41071C21.9844 5.38843 21.9228 5.37798 21.8609 5.37999C21.7412 5.38387 21.6276 5.43418 21.5442 5.52027C21.4609 5.60636 21.4143 5.72149 21.4143 5.84132C21.4143 5.96115 21.4609 6.07628 21.5442 6.16237C21.6276 6.24847 21.7412 6.29877 21.8609 6.30265ZM10.13 26.6212C10.1918 26.6232 10.2535 26.6128 10.3112 26.5905C10.3689 26.5682 10.4216 26.5345 10.466 26.4915C10.5105 26.4485 10.5458 26.3969 10.57 26.34C10.5941 26.283 10.6065 26.2217 10.6065 26.1599C10.6065 26.098 10.5941 26.0368 10.57 25.9798C10.5458 25.9228 10.5105 25.8713 10.466 25.8282C10.4216 25.7852 10.3689 25.7515 10.3112 25.7293C10.2535 25.707 10.1918 25.6965 10.13 25.6985C10.0102 25.7024 9.89668 25.7527 9.81334 25.8388C9.72999 25.9249 9.68339 26.04 9.68339 26.1599C9.68339 26.2797 9.72999 26.3948 9.81334 26.4809C9.89668 26.567 10.0102 26.6173 10.13 26.6212ZM19.0313 5.13126C19.1538 5.13126 19.2712 5.08263 19.3577 4.99607C19.4443 4.90951 19.4929 4.7921 19.4929 4.66968C19.4929 4.54727 19.4443 4.42986 19.3577 4.3433C19.2712 4.25674 19.1538 4.20811 19.0313 4.20811C18.9089 4.20811 18.7915 4.25674 18.705 4.3433C18.6184 4.42986 18.5698 4.54727 18.5698 4.66968C18.5698 4.7921 18.6184 4.90951 18.705 4.99607C18.7915 5.08263 18.9089 5.13126 19.0313 5.13126ZM12.9591 27.7931C13.0197 27.7931 13.0797 27.7811 13.1357 27.7579C13.1917 27.7347 13.2426 27.7007 13.2855 27.6579C13.3283 27.615 13.3623 27.5641 13.3855 27.5081C13.4087 27.4521 13.4207 27.3921 13.4207 27.3315C13.4207 27.2709 13.4087 27.2109 13.3855 27.1549C13.3623 27.0989 13.3283 27.048 13.2855 27.0051C13.2426 26.9623 13.1917 26.9283 13.1357 26.9051C13.0797 26.8819 13.0197 26.8699 12.9591 26.8699C12.8367 26.8699 12.7193 26.9186 12.6327 27.0051C12.5462 27.0917 12.4975 27.2091 12.4975 27.3315C12.4975 27.4539 12.5462 27.5713 12.6327 27.6579C12.7193 27.7444 12.8367 27.7931 12.9591 27.7931Z" fill="#28646E"/>
</g>
<defs>
<linearGradient id="paint0_linear_1380_28645" x1="2.18182" y1="13.8182" x2="32" y2="16" gradientUnits="userSpaceOnUse">
<stop offset="0.0001" stop-color="#D4F0ED"/>
<stop offset="1" stop-color="#F0E6B5"/>
</linearGradient>
<clipPath id="clip0_1380_28645">
<rect width="32" height="32" fill="white"/>
</clipPath>
</defs>
</svg>
