<svg width="32" height="32" viewBox="0 0 32 32" fill="none" xmlns="http://www.w3.org/2000/svg">
<circle cx="16" cy="16" r="15.75" fill="url(#paint0_linear_7384_15777)" stroke="white" stroke-width="0.5"/>
<path d="M14.1001 13.7964L15.169 13.0468C15.0621 12.8326 13.9932 11.1191 10.4659 11.1191C6.511 11.1191 4.80078 13.9035 4.80078 16.1525C4.80078 18.4014 6.511 20.8645 10.2521 20.8645C13.245 20.8645 15.1334 19.2938 15.7034 18.5085V15.5099L10.4659 15.617V16.9021H14.207V18.0801C13.9932 18.2943 12.6037 19.4723 10.2521 19.4723C7.90056 19.4723 6.40411 17.973 6.40411 16.1525C6.40411 14.3319 7.68678 12.4042 10.4659 12.4042C13.0312 12.4042 13.6726 13.3681 14.1001 13.7964Z" fill="white"/>
<path d="M25.5982 13.7964L26.667 13.0468C26.5602 12.8326 25.4913 11.1191 21.9639 11.1191C18.009 11.1191 16.2988 13.9035 16.2988 16.1525C16.2988 18.4014 18.009 20.8645 21.7502 20.8645C24.743 20.8645 26.6314 19.2938 27.2015 18.5085V15.5099L21.9639 15.617V16.9021H25.705V18.0801C25.4913 18.2943 24.1017 19.4723 21.7502 19.4723C19.3986 19.4723 17.9022 17.973 17.9022 16.1525C17.9022 14.3319 19.1848 12.4042 21.9639 12.4042C24.5293 12.4042 25.1706 13.3681 25.5982 13.7964Z" fill="white"/>
<defs>
<linearGradient id="paint0_linear_7384_15777" x1="0" y1="16" x2="32" y2="16" gradientUnits="userSpaceOnUse">
<stop stop-color="#86DEA4"/>
<stop offset="1" stop-color="#33C8D7"/>
</linearGradient>
</defs>
</svg>
