<svg width="32" height="32" viewBox="0 0 32 32" fill="none" xmlns="http://www.w3.org/2000/svg">
<g clip-path="url(#clip0_613_753)">
<path d="M16 32C24.837 32 32 24.837 32 16C32 7.163 24.837 0 16 0C7.163 0 0 7.163 0 16C0 24.837 7.163 32 16 32Z" fill="url(#paint0_linear_613_753)"/>
<path d="M16 31.75C24.698 31.75 31.75 24.698 31.75 16C31.75 7.302 24.698 0.25 16 0.25C7.302 0.25 0.25 7.302 0.25 16C0.25 24.698 7.302 31.75 16 31.75Z" stroke="white" stroke-width="0.5"/>
<path d="M24.6054 20.9307L24.6004 20.9397C24.5734 20.9877 24.5444 21.0357 24.5174 21.0797L24.4604 21.1547C24.2614 21.4387 24.0144 21.6747 23.7214 21.8687L17.4304 25.5067C16.9924 25.7567 16.5004 25.8827 16.0064 25.8827C15.5114 25.8827 15.0224 25.7567 14.5764 25.5067L9.09638 22.3417C9.02938 22.2937 8.96638 22.2507 8.92138 22.2097L8.90838 22.2047C8.83838 22.1267 8.80838 22.0487 8.83238 21.9737C8.90038 21.7617 9.36738 21.6647 9.38938 21.6617C9.51538 21.6407 9.63338 21.6247 9.75738 21.6027L9.83538 21.5927C10.0364 21.5657 10.2324 21.5327 10.4344 21.5027C10.6324 21.4737 10.8314 21.4497 11.0334 21.4207C11.8234 21.3077 12.5864 21.2107 13.3654 21.1197C14.0954 21.0297 14.8534 20.9497 15.6194 20.8827C16.4224 20.8077 17.1374 20.7487 17.7924 20.7087C18.5074 20.6657 19.2134 20.6247 19.8994 20.6007C20.5834 20.5687 21.2694 20.5577 21.9354 20.5547L22.1344 20.5527H22.3324C22.8354 20.5527 23.3674 20.5577 23.9074 20.5687C23.9714 20.5737 24.0394 20.5767 24.1034 20.5787L24.2134 20.5847C24.4154 20.6037 24.5414 20.6627 24.5954 20.7487C24.6294 20.7987 24.6294 20.8617 24.6054 20.9317V20.9307Z" fill="url(#paint1_linear_613_753)"/>
<path d="M24.9998 15.3815V17.4565C24.9998 18.2245 25.0078 18.2405 23.4198 18.4395L22.3828 18.5275C22.2488 18.5415 22.1028 18.5525 21.9608 18.5705L21.6339 18.5975C19.0009 18.8635 16.3678 19.0925 13.7298 19.2565C12.5638 19.3265 11.3978 19.3875 10.2288 19.4335C9.68385 19.4525 9.14085 19.4705 8.59585 19.4835C8.33485 19.4865 8.07185 19.4925 7.81085 19.4975C7.60385 19.5035 7.28085 19.5705 7.11485 19.4175C6.95685 19.2695 7.00785 18.9775 7.00785 18.7725V13.5445C7.00785 12.8185 7.23585 12.6605 8.74285 12.5695C8.99285 12.5665 9.25885 12.5605 9.60785 12.5605C14.0228 12.5605 18.7178 13.2165 24.3848 14.6305C24.3928 14.6305 24.4008 14.6305 24.4058 14.6325L24.4158 14.6355C24.4618 14.6485 24.5138 14.6595 24.5588 14.6695L24.5688 14.6725C24.7708 14.7525 24.9988 14.7105 24.9988 15.3825L24.9998 15.3815Z" fill="url(#paint2_linear_613_753)"/>
<path d="M24.6073 11.95C24.5823 11.975 24.5533 11.994 24.5123 12.002C24.3403 12.05 24.1223 12.018 23.9483 12.012C23.7443 12.007 23.5453 11.996 23.3443 11.986C22.9493 11.959 22.5513 11.921 22.1543 11.878L20.5793 11.709C19.7893 11.629 18.9993 11.542 18.2123 11.459C17.2883 11.359 16.3693 11.263 15.4513 11.166C14.5313 11.064 13.6163 10.97 12.6943 10.871C11.9123 10.787 11.1283 10.704 10.3463 10.624C9.83032 10.567 9.31732 10.516 8.80132 10.46L8.41132 10.42C8.38232 10.414 8.35332 10.409 8.32632 10.409C8.22932 10.392 8.14032 10.382 8.10032 10.312C8.08432 10.285 8.07032 10.223 8.12432 10.14L8.15432 10.116C8.19432 10.089 8.23232 10.059 8.28632 10.025C8.33432 9.99 8.38532 9.96 8.43632 9.925L14.5783 6.379C15.0183 6.132 15.5083 6 16.0093 6C16.5093 6 17.0033 6.132 17.4333 6.379L23.5783 9.922C24.0833 10.215 24.4863 10.715 24.6153 11.303C24.6503 11.459 24.7463 11.808 24.6073 11.951V11.95Z" fill="url(#paint3_linear_613_753)"/>
</g>
<defs>
<linearGradient id="paint0_linear_613_753" x1="16" y1="0" x2="16" y2="32" gradientUnits="userSpaceOnUse">
<stop stop-color="#59588D"/>
<stop offset="1" stop-color="#1E1433"/>
</linearGradient>
<linearGradient id="paint1_linear_613_753" x1="27.3314" y1="5.87074" x2="13.0224" y2="26.8777" gradientUnits="userSpaceOnUse">
<stop offset="0.04" stop-color="#5FF19D"/>
<stop offset="0.205" stop-color="#59EEA3"/>
<stop offset="0.427" stop-color="#49E5B4"/>
<stop offset="0.681" stop-color="#2FD6D0"/>
<stop offset="0.957" stop-color="#0AC2F7"/>
<stop offset="1" stop-color="#04BEFE"/>
</linearGradient>
<linearGradient id="paint2_linear_613_753" x1="24.0948" y1="3.66655" x2="9.78685" y2="24.6725" gradientUnits="userSpaceOnUse">
<stop offset="0.04" stop-color="#5FF19D"/>
<stop offset="0.205" stop-color="#59EEA3"/>
<stop offset="0.427" stop-color="#49E5B4"/>
<stop offset="0.681" stop-color="#2FD6D0"/>
<stop offset="0.957" stop-color="#0AC2F7"/>
<stop offset="1" stop-color="#04BEFE"/>
</linearGradient>
<linearGradient id="paint3_linear_613_753" x1="22.2503" y1="2.408" x2="7.94132" y2="23.414" gradientUnits="userSpaceOnUse">
<stop offset="0.04" stop-color="#5FF19D"/>
<stop offset="0.205" stop-color="#59EEA3"/>
<stop offset="0.427" stop-color="#49E5B4"/>
<stop offset="0.681" stop-color="#2FD6D0"/>
<stop offset="0.957" stop-color="#0AC2F7"/>
<stop offset="1" stop-color="#04BEFE"/>
</linearGradient>
<clipPath id="clip0_613_753">
<rect width="32" height="32" fill="white"/>
</clipPath>
</defs>
</svg>
