<svg width="32" height="32" viewBox="0 0 32 32" fill="none" xmlns="http://www.w3.org/2000/svg">
<g clip-path="url(#clip0_613_673)">
<path d="M16 32C24.837 32 32 24.837 32 16C32 7.163 24.837 0 16 0C7.163 0 0 7.163 0 16C0 24.837 7.163 32 16 32Z" fill="url(#paint0_linear_613_673)"/>
<path d="M16 31.75C24.698 31.75 31.75 24.698 31.75 16C31.75 7.302 24.698 0.25 16 0.25C7.302 0.25 0.25 7.302 0.25 16C0.25 24.698 7.302 31.75 16 31.75Z" stroke="white" stroke-width="0.5"/>
<path d="M25.1922 8.75005C24.9872 7.97305 24.3282 7.19605 23.1422 6.33205C22.1892 5.64405 21.1792 5.24805 20.3732 5.24805C20.2122 5.24805 20.0652 5.26305 19.9192 5.29205C19.5532 5.36505 19.2302 5.62905 19.0252 6.02405C18.7762 6.49405 18.7182 7.12405 18.8792 7.50405C18.9372 7.62105 19.0112 7.76805 19.0992 7.90005C18.3222 8.36805 17.8832 8.50005 17.8242 8.51505C19.8452 9.18905 21.5302 10.595 22.5842 12.426L22.6002 12.25C22.6432 11.767 22.7902 11.21 22.9952 10.639C23.2002 10.698 23.4052 10.727 23.6102 10.727C24.1522 10.727 24.6212 10.507 24.9142 10.111C25.2072 9.71605 25.3242 9.18905 25.1922 8.74905V8.75005Z" fill="#5E12A0"/>
<path d="M23.0848 10.217C24.4178 10.583 24.9598 9.55704 24.7848 8.86904C24.5938 8.18104 23.9788 7.47804 22.8948 6.68704C21.8108 5.89604 20.7118 5.57304 20.0088 5.72004C19.3058 5.86604 19.1008 6.93604 19.2758 7.34604C19.3498 7.50704 19.5108 7.74104 19.7308 8.00604C19.4518 8.19604 19.1887 8.34204 18.9688 8.47404C20.3168 9.07404 21.4888 10.012 22.3668 11.184C22.4698 10.788 22.6168 10.437 22.7478 10.129C22.8508 10.144 22.9678 10.173 23.0848 10.217V10.217Z" fill="url(#paint1_radial_613_673)"/>
<path d="M15.4497 24.5704C19.9727 24.5704 23.6397 20.9044 23.6397 16.3824C23.6397 11.8594 19.9727 8.19336 15.4497 8.19336C10.9277 8.19336 7.26172 11.8594 7.26172 16.3824C7.26172 20.9044 10.9277 24.5704 15.4507 24.5704H15.4497Z" fill="url(#paint2_radial_613_673)"/>
<path opacity="0.6" d="M24.1098 8.19493C22.9958 7.02293 22.0588 6.71493 20.9298 6.46593C20.0518 6.26093 20.2858 5.76293 21.3558 5.86593C20.8428 5.68993 20.3598 5.64593 20.0078 5.71993C19.3048 5.86593 19.0998 6.93493 19.2758 7.34493C19.3488 7.50693 19.5098 7.74093 19.7298 8.00493C19.3338 8.26793 18.9967 8.45893 18.7188 8.60493C18.8507 8.66393 19.0118 8.73693 19.2018 8.83993C19.6998 9.10293 20.2418 9.54293 20.2418 9.54293C19.4218 8.83893 19.5978 8.51693 20.7258 7.72593C21.0768 7.47693 21.7218 7.50593 22.3218 7.81393C22.9228 8.12193 23.6258 8.89793 23.6258 8.89793L22.9518 10.1879L23.0838 10.2309C23.5088 10.3479 23.8458 10.3189 24.1098 10.2169C24.4168 10.0269 25.2228 9.38193 24.1098 8.19493V8.19493Z" fill="#A98698"/>
<path d="M20.9125 7.17018C21.2055 7.28718 21.5865 7.49218 22.0555 7.80018C22.6115 8.16618 23.0955 8.57618 23.4025 8.89818C22.8905 9.57218 22.5525 10.4952 22.3485 11.1402C22.4505 11.2862 22.5685 11.4322 22.6705 11.5792C22.7735 11.2132 22.9485 10.6702 23.1835 10.1292C23.2415 10.1432 23.3155 10.1432 23.3885 10.1432C23.5645 10.1432 23.7685 10.1132 23.9305 9.98218C24.0475 9.89418 24.1795 9.73318 24.1645 9.44018C24.1645 9.16218 23.9445 8.81018 23.4905 8.38618C23.1685 8.07818 22.7295 7.74118 22.2905 7.43318C21.0305 6.59818 20.1505 6.36418 19.7555 6.75918C19.4915 7.02318 19.5205 7.34518 19.6085 7.57918C19.1405 7.88718 18.7445 8.10718 18.4805 8.25418C18.6565 8.31218 18.8185 8.38618 18.9935 8.45918C19.4625 8.20918 20.1365 7.78518 20.9135 7.16918L20.9125 7.17018ZM23.6815 9.26418C23.7255 9.33818 23.7395 9.41118 23.7395 9.45418C23.7395 9.58718 23.6965 9.63118 23.6665 9.66018C23.6085 9.70418 23.4905 9.73318 23.3885 9.73318C23.4765 9.55718 23.5785 9.41118 23.6815 9.26418ZM20.0635 7.08218C20.1075 7.03818 20.2235 7.00918 20.4145 7.03818C20.2685 7.15518 20.1215 7.25818 19.9745 7.36018C19.9605 7.25718 19.9745 7.15518 20.0635 7.08218V7.08218Z" fill="#5E12A0"/>
<path d="M15.4503 7.71094C10.6603 7.71094 6.77734 11.5939 6.77734 16.3839C6.77734 21.1739 10.6593 25.0559 15.4493 25.0559C20.2393 25.0559 24.1213 21.1739 24.1213 16.3839C24.1213 11.5939 20.2253 7.71194 15.4493 7.71194L15.4503 7.71094ZM15.4503 24.5729C10.9233 24.5729 7.26034 20.9099 7.26034 16.3829C7.26034 11.8569 10.9233 8.19494 15.4503 8.19494C19.9763 8.19494 23.6383 11.8579 23.6383 16.3839C23.6383 20.9109 19.9613 24.5729 15.4493 24.5729H15.4503Z" fill="#5E12A0"/>
<path opacity="0.6" d="M15.4497 24.5704C19.9727 24.5704 23.6397 20.9044 23.6397 16.3824C23.6397 11.8594 19.9727 8.19336 15.4497 8.19336C10.9277 8.19336 7.26172 11.8594 7.26172 16.3824C7.26172 20.9044 10.9277 24.5704 15.4507 24.5704H15.4497Z" fill="url(#paint3_linear_613_673)"/>
<path opacity="0.6" d="M15.3901 23.5736C10.9231 22.8566 7.89006 18.6526 8.62306 14.1836C8.94506 12.2066 9.94106 10.5216 11.3471 9.30664C9.29706 10.4926 7.77306 12.5586 7.36306 15.0766C6.64506 19.5466 9.67706 23.7496 14.1311 24.4676C16.6211 24.8776 19.0231 24.1016 20.7961 22.5776C19.2281 23.4866 17.3241 23.8816 15.3901 23.5736Z" fill="#A98698"/>
<path opacity="0.6" d="M16.7537 8.31106C14.6877 7.97406 12.6817 8.44306 11.0407 9.48305L10.9817 9.54206C11.6117 9.16105 12.5347 8.82406 12.5347 8.82406C10.1617 10.2011 9.42969 11.7681 9.42969 11.7681C10.3517 9.98106 13.0617 8.72106 15.1867 8.63306C17.3107 8.54506 18.7017 9.17506 20.4007 10.5381C22.1007 11.9151 23.1257 14.7281 23.0237 16.9541C22.9357 19.1801 21.7637 20.9821 21.7637 20.9821C22.5697 19.9421 23.0527 19.1801 23.3607 18.4041C23.4187 18.1691 23.4777 17.9351 23.5067 17.6861C24.2387 13.2331 21.2217 9.02906 16.7537 8.31106Z" fill="url(#paint4_linear_613_673)"/>
<path d="M23.2282 16.3086C23.2282 20.6006 19.7413 24.0866 15.4493 24.0866C11.1573 24.0866 7.65625 20.6006 7.65625 16.3086H23.2282Z" fill="url(#paint5_linear_613_673)"/>
<path opacity="0.6" d="M22.6145 16.3086C22.6145 20.4986 19.3045 23.9256 15.1445 24.0866H15.4515C19.7435 24.0866 23.2305 20.6006 23.2305 16.3086H22.6145Z" fill="url(#paint6_linear_613_673)"/>
<path opacity="0.7" d="M8.75525 16.3086H7.65625C7.65625 20.6006 11.1433 24.0866 15.4353 24.0866C15.6253 24.0866 15.8013 24.0866 15.9773 24.0716C11.9483 23.7786 8.75525 20.4096 8.75525 16.3086V16.3086Z" fill="url(#paint7_linear_613_673)"/>
<path d="M23.2133 16.3814C23.2133 15.4884 21.6603 14.9754 19.5953 14.7994C18.1013 14.6824 16.5922 14.8294 14.8632 15.3564C13.3692 15.7964 12.0222 15.7224 11.0402 15.6064C8.85825 15.3564 7.65625 15.3274 7.65625 16.3814C7.65625 17.9054 10.7622 19.8094 15.4202 19.1504C17.7792 18.8134 18.9943 18.1254 20.3863 17.6564C21.8953 17.1584 23.2133 17.1734 23.2133 16.3824V16.3814Z" fill="url(#paint8_linear_613_673)"/>
<path d="M18.0016 12.6897C18.7296 12.6897 19.3206 12.0997 19.3206 11.3707C19.3206 10.6427 18.7306 10.0527 18.0016 10.0527C17.2736 10.0527 16.6836 10.6427 16.6836 11.3707C16.6836 12.0987 17.2736 12.6897 18.0016 12.6897V12.6897ZM20.1556 13.6707C20.4626 13.6707 20.7116 13.4207 20.7116 13.1147C20.7116 12.8067 20.4616 12.5577 20.1556 12.5577C19.8476 12.5577 19.5986 12.8077 19.5986 13.1147C19.5986 13.4217 19.8486 13.6707 20.1546 13.6707H20.1556Z" fill="white"/>
<path opacity="0.6" d="M22.1477 10.3168H22.1177C22.0307 10.3018 21.9717 10.2138 21.9867 10.1118C22.1177 9.43782 22.6747 8.79282 22.7047 8.76382C22.7627 8.69082 22.8797 8.69082 22.9387 8.74882C23.0117 8.80782 23.0117 8.92482 22.9537 8.98382C22.9387 8.99882 22.4257 9.59882 22.3087 10.1848C22.2937 10.2728 22.2207 10.3168 22.1477 10.3168V10.3168Z" fill="url(#paint9_linear_613_673)"/>
<path d="M20.372 5.249C21.192 5.249 22.203 5.645 23.141 6.333C24.328 7.197 24.987 7.959 25.191 8.75C25.309 9.204 25.207 9.717 24.914 10.098C24.606 10.493 24.152 10.713 23.61 10.713C23.42 10.713 23.214 10.683 22.994 10.625C22.863 10.962 22.76 11.299 22.687 11.621C23.58 12.984 24.107 14.624 24.107 16.382C24.107 21.172 20.226 25.054 15.436 25.054C10.646 25.054 6.778 21.172 6.778 16.382C6.778 11.592 10.66 7.71 15.45 7.71C16.505 7.71 17.516 7.9 18.453 8.252C18.629 8.164 18.849 8.047 19.098 7.9C19.01 7.769 18.922 7.637 18.878 7.505C18.718 7.109 18.776 6.495 19.025 6.025C19.23 5.645 19.537 5.381 19.918 5.293C20.05 5.263 20.211 5.249 20.372 5.249V5.249ZM20.372 5C20.197 5 20.021 5.015 19.86 5.059C19.42 5.161 19.04 5.454 18.79 5.923C18.512 6.465 18.439 7.168 18.63 7.623C18.659 7.681 18.688 7.754 18.732 7.827C18.629 7.886 18.527 7.944 18.424 7.988C17.457 7.651 16.461 7.476 15.436 7.476C14.235 7.476 13.063 7.71 11.964 8.179C10.894 8.633 9.942 9.278 9.122 10.098C8.302 10.918 7.657 11.87 7.203 12.94C6.734 14.038 6.5 15.21 6.5 16.411C6.5 17.612 6.735 18.784 7.203 19.883C7.657 20.953 8.302 21.905 9.123 22.725C9.943 23.545 10.895 24.19 11.964 24.644C13.063 25.113 14.234 25.347 15.436 25.347C16.637 25.347 17.809 25.112 18.908 24.644C19.977 24.19 20.929 23.545 21.749 22.725C22.569 21.905 23.214 20.952 23.669 19.883C24.137 18.785 24.372 17.613 24.372 16.411C24.372 14.697 23.888 13.042 22.965 11.607C23.009 11.387 23.082 11.167 23.155 10.947C23.302 10.977 23.463 10.991 23.61 10.991C24.225 10.991 24.767 10.742 25.119 10.274C25.456 9.834 25.587 9.219 25.441 8.706C25.206 7.856 24.533 7.051 23.287 6.157C22.306 5.41 21.237 5 20.372 5Z" fill="white"/>
<path opacity="0.2" d="M14.9061 22.4919C15.1331 22.4919 15.3161 22.3079 15.3161 22.0819C15.3161 21.8549 15.1331 21.6719 14.9061 21.6719C14.6801 21.6719 14.4961 21.8549 14.4961 22.0819C14.4961 22.3089 14.6801 22.4919 14.9061 22.4919Z" fill="white"/>
<g opacity="0.4">
<path opacity="0.6" d="M14.6758 22.3426C14.5138 22.1816 14.5138 21.9176 14.6758 21.7566C14.7048 21.7266 14.7338 21.7126 14.7638 21.6836C14.7038 21.6976 14.6608 21.7266 14.6168 21.7706C14.4558 21.9326 14.4558 22.1956 14.6168 22.3576C14.7488 22.4886 14.9538 22.5176 15.1148 22.4306C14.9688 22.4886 14.7928 22.4596 14.6748 22.3426H14.6758Z" fill="url(#paint10_linear_613_673)"/>
</g>
<path opacity="0.3" d="M15.0568 21.9631C15.1048 21.9631 15.1447 21.9231 15.1447 21.8751C15.1447 21.8261 15.1048 21.7871 15.0568 21.7871C15.0078 21.7871 14.9688 21.8271 14.9688 21.8751C14.9688 21.9241 15.0088 21.9631 15.0568 21.9631Z" fill="white"/>
<path opacity="0.2" d="M17.0467 22.2848C17.2727 22.2848 17.4567 22.1018 17.4567 21.8748C17.4567 21.6478 17.2727 21.4648 17.0467 21.4648C16.8197 21.4648 16.6367 21.6488 16.6367 21.8748C16.6367 22.1018 16.8197 22.2848 17.0467 22.2848Z" fill="white"/>
<g opacity="0.4">
<path opacity="0.6" d="M16.8116 22.1395C16.6516 21.9785 16.6516 21.7145 16.8116 21.5535C16.8416 21.5235 16.8706 21.5095 16.8996 21.4805C16.8416 21.4945 16.7976 21.5235 16.7536 21.5675C16.5926 21.7285 16.5926 21.9925 16.7536 22.1535C16.8846 22.2855 17.0906 22.3145 17.2516 22.2265C17.1046 22.2855 16.9286 22.2565 16.8116 22.1395Z" fill="url(#paint11_linear_613_673)"/>
</g>
<path opacity="0.3" d="M17.1935 21.758C17.2425 21.758 17.2815 21.718 17.2815 21.67C17.2815 21.621 17.2415 21.582 17.1935 21.582C17.1455 21.582 17.1055 21.622 17.1055 21.67C17.1055 21.718 17.1455 21.758 17.1935 21.758Z" fill="white"/>
<path opacity="0.2" d="M15.9906 23.2361C16.1606 23.2361 16.2986 23.0991 16.2986 22.9291C16.2986 22.7591 16.1606 22.6211 15.9906 22.6211C15.8206 22.6211 15.6836 22.7591 15.6836 22.9291C15.6836 23.0991 15.8206 23.2361 15.9906 23.2361Z" fill="white"/>
<g opacity="0.4">
<path opacity="0.6" d="M15.8153 23.1197C15.6983 23.0027 15.6983 22.7977 15.8153 22.6797C15.8303 22.6657 15.8593 22.6507 15.8753 22.6367C15.8303 22.6507 15.8013 22.6807 15.7713 22.7097C15.6543 22.8267 15.6543 23.0317 15.7713 23.1497C15.8743 23.2517 16.0213 23.2667 16.1523 23.1927C16.0353 23.2367 15.9033 23.2077 15.8153 23.1197V23.1197Z" fill="url(#paint12_linear_613_673)"/>
</g>
<path opacity="0.3" d="M16.0942 22.8289C16.1262 22.8289 16.1522 22.8029 16.1522 22.7709C16.1522 22.7379 16.1262 22.7109 16.0942 22.7109C16.0612 22.7109 16.0352 22.7379 16.0352 22.7709C16.0352 22.8029 16.0612 22.8289 16.0942 22.8289Z" fill="white"/>
<path opacity="0.2" d="M17.8822 23.0173C18.0522 23.0173 18.1892 22.8803 18.1892 22.7103C18.1892 22.5403 18.0522 22.4023 17.8822 22.4023C17.7122 22.4023 17.5742 22.5403 17.5742 22.7103C17.5742 22.8803 17.7122 23.0173 17.8822 23.0173Z" fill="white"/>
<g opacity="0.4">
<path opacity="0.6" d="M17.7099 22.901C17.5929 22.784 17.5929 22.579 17.7099 22.461C17.7249 22.447 17.7539 22.433 17.7689 22.418C17.7249 22.433 17.6949 22.462 17.6659 22.491C17.5489 22.608 17.5489 22.814 17.6659 22.931C17.7679 23.033 17.9159 23.048 18.0459 22.975C17.9299 23.019 17.7979 22.989 17.7099 22.901Z" fill="url(#paint13_linear_613_673)"/>
</g>
<path opacity="0.3" d="M17.9838 22.6102C18.0168 22.6102 18.0438 22.5832 18.0438 22.5502C18.0438 22.5182 18.0168 22.4922 17.9838 22.4922C17.9518 22.4922 17.9258 22.5182 17.9258 22.5512C17.9258 22.5832 17.9518 22.6092 17.9838 22.6092V22.6102Z" fill="white"/>
<path opacity="0.2" d="M13.1662 22.3441C13.5382 22.3441 13.8402 22.0421 13.8402 21.6701C13.8402 21.2981 13.5382 20.9961 13.1662 20.9961C12.7942 20.9961 12.4922 21.2981 12.4922 21.6701C12.4922 22.0421 12.7942 22.3441 13.1662 22.3441Z" fill="white"/>
<g opacity="0.4">
<path opacity="0.6" d="M12.7821 22.096C12.5181 21.832 12.5181 21.407 12.7821 21.143C12.8261 21.1 12.8691 21.07 12.9281 21.041C12.8401 21.071 12.7671 21.129 12.6941 21.187C12.4301 21.451 12.4301 21.876 12.6941 22.14C12.9141 22.36 13.2501 22.403 13.5141 22.242C13.2651 22.345 12.9721 22.301 12.7821 22.096V22.096Z" fill="url(#paint14_linear_613_673)"/>
</g>
<path opacity="0.3" d="M13.3999 21.4649C13.4809 21.4649 13.5469 21.3989 13.5469 21.3179C13.5469 21.2379 13.4809 21.1719 13.3999 21.1719C13.3199 21.1719 13.2539 21.2369 13.2539 21.3179C13.2539 21.3989 13.3199 21.4649 13.3999 21.4649Z" fill="white"/>
<path opacity="0.2" d="M19.1857 20.6898C19.5577 20.6898 19.8597 20.3878 19.8597 20.0158C19.8597 19.6438 19.5577 19.3418 19.1847 19.3418C18.8137 19.3418 18.5117 19.6438 18.5117 20.0158C18.5117 20.3878 18.8137 20.6888 19.1857 20.6888V20.6898Z" fill="white"/>
<g opacity="0.4">
<path opacity="0.6" d="M18.7899 20.4398C18.5259 20.1758 18.5259 19.7508 18.7899 19.4868C18.8339 19.4428 18.8779 19.4138 18.9359 19.3848C18.8479 19.4148 18.7749 19.4728 18.7019 19.5308C18.4379 19.7948 18.4379 20.2198 18.7019 20.4828C18.9219 20.7028 19.2579 20.7468 19.5219 20.5858C19.2729 20.6878 18.9949 20.6448 18.7899 20.4398V20.4398Z" fill="url(#paint15_linear_613_673)"/>
</g>
<path opacity="0.3" d="M19.4204 19.8096C19.5004 19.8096 19.5664 19.7446 19.5664 19.6636C19.5664 19.5836 19.5014 19.5176 19.4204 19.5176C19.3394 19.5176 19.2734 19.5826 19.2734 19.6636C19.2734 19.7446 19.3394 19.8096 19.4204 19.8096Z" fill="white"/>
</g>
<defs>
<linearGradient id="paint0_linear_613_673" x1="16" y1="0" x2="16" y2="32" gradientUnits="userSpaceOnUse">
<stop stop-color="#5E12A0"/>
<stop offset="1" stop-color="#0C0053"/>
</linearGradient>
<radialGradient id="paint1_radial_613_673" cx="0" cy="0" r="1" gradientUnits="userSpaceOnUse" gradientTransform="translate(24.5169 7.9465) scale(6.54716 6.54716)">
<stop stop-color="#FFEAFF" stop-opacity="0.6"/>
<stop offset="0.681" stop-color="#A087C9"/>
<stop offset="1" stop-color="#10002F"/>
</radialGradient>
<radialGradient id="paint2_radial_613_673" cx="0" cy="0" r="1" gradientUnits="userSpaceOnUse" gradientTransform="translate(20.8717 10.7368) scale(16.0185 16.0185)">
<stop stop-color="#FFEAFF" stop-opacity="0.6"/>
<stop offset="0.681" stop-color="#A087C9"/>
<stop offset="1" stop-color="#10002F"/>
</radialGradient>
<linearGradient id="paint3_linear_613_673" x1="14.1367" y1="24.4544" x2="16.7557" y2="8.29636" gradientUnits="userSpaceOnUse">
<stop stop-color="#81FFFF"/>
<stop offset="0.62" stop-color="white" stop-opacity="0"/>
</linearGradient>
<linearGradient id="paint4_linear_613_673" x1="21.2207" y1="10.8211" x2="14.4497" y2="17.0341" gradientUnits="userSpaceOnUse">
<stop offset="0.289" stop-color="white"/>
<stop offset="0.78" stop-color="white" stop-opacity="0"/>
</linearGradient>
<linearGradient id="paint5_linear_613_673" x1="7.66325" y1="20.1926" x2="23.2242" y2="20.1926" gradientUnits="userSpaceOnUse">
<stop stop-color="#0002E9"/>
<stop offset="0.995" stop-color="#FF00C7"/>
</linearGradient>
<linearGradient id="paint6_linear_613_673" x1="23.9635" y1="16.9906" x2="15.4935" y2="24.9956" gradientUnits="userSpaceOnUse">
<stop offset="0.289" stop-color="white"/>
<stop offset="0.78" stop-color="white" stop-opacity="0"/>
</linearGradient>
<linearGradient id="paint7_linear_613_673" x1="7.66325" y1="20.1926" x2="15.9883" y2="20.1926" gradientUnits="userSpaceOnUse">
<stop stop-color="#000292"/>
<stop offset="0.995" stop-color="#7D00C7"/>
</linearGradient>
<linearGradient id="paint8_linear_613_673" x1="7.67325" y1="17.0284" x2="23.2143" y2="17.0284" gradientUnits="userSpaceOnUse">
<stop stop-color="#000292"/>
<stop offset="0.995" stop-color="#BE00C7"/>
</linearGradient>
<linearGradient id="paint9_linear_613_673" x1="22.9617" y1="8.69282" x2="21.8457" y2="10.5078" gradientUnits="userSpaceOnUse">
<stop offset="0.289" stop-color="white"/>
<stop offset="0.78" stop-color="white" stop-opacity="0"/>
</linearGradient>
<linearGradient id="paint10_linear_613_673" x1="14.4958" y1="22.0916" x2="15.1158" y2="22.0916" gradientUnits="userSpaceOnUse">
<stop offset="0.289" stop-color="white"/>
<stop offset="0.78" stop-color="white" stop-opacity="0"/>
</linearGradient>
<linearGradient id="paint11_linear_613_673" x1="16.6306" y1="21.8855" x2="17.2506" y2="21.8855" gradientUnits="userSpaceOnUse">
<stop offset="0.289" stop-color="white"/>
<stop offset="0.78" stop-color="white" stop-opacity="0"/>
</linearGradient>
<linearGradient id="paint12_linear_613_673" x1="15.6823" y1="22.9327" x2="16.1473" y2="22.9327" gradientUnits="userSpaceOnUse">
<stop offset="0.289" stop-color="white"/>
<stop offset="0.78" stop-color="white" stop-opacity="0"/>
</linearGradient>
<linearGradient id="paint13_linear_613_673" x1="17.5699" y1="22.714" x2="18.0349" y2="22.714" gradientUnits="userSpaceOnUse">
<stop offset="0.289" stop-color="white"/>
<stop offset="0.78" stop-color="white" stop-opacity="0"/>
</linearGradient>
<linearGradient id="paint14_linear_613_673" x1="12.4891" y1="21.688" x2="13.5011" y2="21.688" gradientUnits="userSpaceOnUse">
<stop offset="0.289" stop-color="white"/>
<stop offset="0.78" stop-color="white" stop-opacity="0"/>
</linearGradient>
<linearGradient id="paint15_linear_613_673" x1="18.5029" y1="20.0308" x2="19.5149" y2="20.0308" gradientUnits="userSpaceOnUse">
<stop offset="0.289" stop-color="white"/>
<stop offset="0.78" stop-color="white" stop-opacity="0"/>
</linearGradient>
<clipPath id="clip0_613_673">
<rect width="32" height="32" fill="white"/>
</clipPath>
</defs>
</svg>
