<svg width="32" height="32" viewBox="0 0 32 32" fill="none" xmlns="http://www.w3.org/2000/svg">
<g clip-path="url(#clip0_613_471)">
<path d="M16 32C24.8365 32 32 24.8365 32 16C32 7.16344 24.8365 0 16 0C7.16344 0 0 7.16344 0 16C0 24.8365 7.16344 32 16 32Z" fill="url(#paint0_linear_613_471)"/>
<path d="M15.9987 5C9.92307 5 5 9.9256 5 16.0013C5 22.077 9.9251 27.0026 15.9987 27.0026C22.0723 27.0026 27 22.077 27 16.0038C27 9.93067 22.0744 5 15.9987 5ZM15.9987 20.9659C15.0169 20.9659 14.0572 20.6747 13.2408 20.1293C12.4245 19.5838 11.7882 18.8085 11.4125 17.9014C11.0368 16.9944 10.9384 15.9963 11.13 15.0333C11.3215 14.0704 11.7943 13.1859 12.4886 12.4916C13.1828 11.7974 14.0673 11.3246 15.0303 11.133C15.9932 10.9415 16.9914 11.0398 17.8984 11.4155C18.8054 11.7912 19.5808 12.4275 20.1262 13.2439C20.6717 14.0602 20.9629 15.02 20.9629 16.0018C20.9613 17.3179 20.4378 18.5795 19.5072 19.5102C18.5765 20.4408 17.3149 20.9643 15.9987 20.9659ZM6.21645 16.0018C6.21645 10.8116 10.2799 6.55402 15.3905 6.23875V9.85059C13.868 10.0072 12.4578 10.7228 11.4324 11.859C10.407 12.9952 9.83944 14.4713 9.83944 16.0018C9.83944 17.5323 10.407 19.0083 11.4324 20.1446C12.4578 21.2808 13.868 21.9963 15.3905 22.153V25.7648C10.2784 25.4501 6.21493 21.1925 6.21493 16.0022L6.21645 16.0018ZM16.6069 25.7648V22.1534C18.1294 21.997 19.5397 21.2813 20.5651 20.1451C21.5904 19.0088 22.1581 17.5328 22.1581 16.0022C22.1581 14.4718 21.5904 12.9957 20.5651 11.8595C19.5397 10.7232 18.1294 10.0077 16.6069 9.8511V6.23926C21.719 6.55453 25.781 10.8121 25.781 16.0022C25.781 21.1925 21.719 25.4501 16.6069 25.7653V25.7648Z" fill="url(#paint1_linear_613_471)"/>
<path d="M27.1371 27.1371C25.6746 28.5996 23.9383 29.7598 22.0274 30.5513C20.1165 31.3428 18.0684 31.7502 16.0001 31.7502C13.9318 31.7502 11.8837 31.3428 9.9728 30.5513C8.06191 29.7598 6.32563 28.5996 4.8631 27.1371C3.40057 25.6746 2.24042 23.9383 1.4489 22.0274C0.657388 20.1165 0.25 18.0684 0.25 16.0001C0.25 13.9318 0.657388 11.8837 1.4489 9.9728C2.24042 8.06191 3.40057 6.32563 4.8631 4.8631C7.81681 1.90938 11.8229 0.25 16.0001 0.25C20.1773 0.25 24.1834 1.90938 27.1371 4.8631C30.0908 7.81681 31.7502 11.8229 31.7502 16.0001C31.7502 20.1773 30.0908 24.1834 27.1371 27.1371Z" stroke="white" stroke-width="0.5"/>
</g>
<defs>
<linearGradient id="paint0_linear_613_471" x1="16" y1="0" x2="16" y2="32" gradientUnits="userSpaceOnUse">
<stop stop-color="#264785"/>
<stop offset="1" stop-color="#1B2650"/>
</linearGradient>
<linearGradient id="paint1_linear_613_471" x1="8.22005" y1="23.781" x2="23.7779" y2="8.22359" gradientUnits="userSpaceOnUse">
<stop stop-color="#4C80E9"/>
<stop offset="1" stop-color="#91D2F5"/>
</linearGradient>
<clipPath id="clip0_613_471">
<rect width="32" height="32" fill="white"/>
</clipPath>
</defs>
</svg>
