<svg width="32" height="32" viewBox="0 0 32 32" fill="none" xmlns="http://www.w3.org/2000/svg">
<g clip-path="url(#clip0_4996_70211)">
<path d="M16 32C24.8366 32 32 24.8366 32 16C32 7.16344 24.8366 0 16 0C7.16344 0 0 7.16344 0 16C0 24.8366 7.16344 32 16 32Z" fill="url(#paint0_linear_4996_70211)"/>
<path d="M16 31.75C24.6985 31.75 31.75 24.6985 31.75 16C31.75 7.30152 24.6985 0.25 16 0.25C7.30152 0.25 0.25 7.30152 0.25 16C0.25 24.6985 7.30152 31.75 16 31.75Z" fill="url(#paint1_linear_4996_70211)" stroke="white" stroke-width="0.5"/>
<path fill-rule="evenodd" clip-rule="evenodd" d="M24 7V25.3077H7L10.1875 25.3076V22.0768H7V10.2308H10.1875V7H24ZM12.8436 10.2309H20.8123V13.4617H12.8436V10.2309ZM20.8123 19.3848H12.8436V13.4617L9.65609 13.4618V19.3849L12.8436 19.3848V22.6155H20.8123V19.3848Z" fill="#06FC99"/>
</g>
<defs>
<linearGradient id="paint0_linear_4996_70211" x1="16" y1="0" x2="16" y2="32" gradientUnits="userSpaceOnUse">
<stop stop-color="#4E4E4E"/>
<stop offset="1" stop-color="#101010"/>
</linearGradient>
<linearGradient id="paint1_linear_4996_70211" x1="16" y1="0.25" x2="16" y2="31.75" gradientUnits="userSpaceOnUse">
<stop stop-color="#4E4E4E"/>
<stop offset="1" stop-color="#101010"/>
</linearGradient>
<clipPath id="clip0_4996_70211">
<rect width="32" height="32" fill="white"/>
</clipPath>
</defs>
</svg>
