<svg width="20" height="20" viewBox="0 0 20 20" fill="none" xmlns="http://www.w3.org/2000/svg">
<path d="M9.99991 19.285C15.1279 19.285 19.285 15.1279 19.285 9.99991C19.285 4.87191 15.1279 0.714844 9.99991 0.714844C4.87191 0.714844 0.714844 4.87191 0.714844 9.99991C0.714844 15.1279 4.87191 19.285 9.99991 19.285Z" fill="white"/>
<path d="M9.99934 19.9986C8.68565 20.0023 7.3843 19.7452 6.17057 19.2426C4.95684 18.7399 3.85486 18.0016 2.92841 17.0702C1.99702 16.1438 1.25863 15.042 0.755973 13.8282C0.253319 12.6145 -0.00361684 11.313 4.01675e-05 9.99934C-0.00369573 8.68564 0.253206 7.38418 0.755864 6.17044C1.25852 4.9567 1.99696 3.85488 2.92841 2.92848C3.85481 1.99702 4.95677 1.25844 6.1705 0.755777C7.38424 0.253118 8.68564 -0.00369572 9.99934 4.01809e-05C11.313 -0.00369572 12.6144 0.253118 13.8282 0.755777C15.0419 1.25844 16.1439 1.99702 17.0703 2.92848C18.0017 3.85488 18.7402 4.9567 19.2428 6.17044C19.7455 7.38418 20.0024 8.68564 19.9986 9.99934C20.0023 11.313 19.7454 12.6145 19.2427 13.8282C18.7401 15.042 18.0017 16.1438 17.0703 17.0702C16.1438 18.0016 15.0418 18.7399 13.8281 19.2426C12.6144 19.7452 11.313 20.0023 9.99934 19.9986ZM9.99934 1.42851C7.72697 1.43097 5.54838 2.33478 3.94157 3.94159C2.33476 5.5484 1.43097 7.72697 1.42851 9.99934C1.43097 12.2717 2.33476 14.4503 3.94157 16.0571C5.54838 17.6639 7.72697 18.5677 9.99934 18.5702C12.2717 18.5677 14.4503 17.6639 16.0571 16.0571C17.6639 14.4503 18.5677 12.2717 18.5702 9.99934C18.5677 7.72697 17.6639 5.5484 16.0571 3.94159C14.4503 2.33478 12.2717 1.43097 9.99934 1.42851V1.42851Z" fill="#EFCBAE"/>
<path opacity="0.7" d="M9.2863 19.9742V18.5408C9.52438 18.5608 9.76246 18.5708 10.0005 18.5708C10.2386 18.5708 10.4767 18.5611 10.7148 18.5415V19.9749C10.4767 19.9916 10.2386 20 10.0005 20C9.76246 20 9.52438 19.9913 9.2863 19.9742ZM15.533 16.5411C15.8967 16.2329 16.2343 15.8951 16.5422 15.5311L17.5586 16.5474C17.4034 16.7264 17.241 16.9004 17.0715 17.0695C16.902 17.2385 16.7279 17.401 16.5494 17.5567L15.533 16.5411ZM2.93102 17.0702C2.76151 16.9007 2.59891 16.7264 2.44321 16.5474L3.45957 15.5311C3.76776 15.8951 4.10555 16.2329 4.4695 16.5411L3.45314 17.5574C3.27411 17.4021 3.09959 17.2397 2.92961 17.0702H2.93102ZM18.5421 10.7135C18.5616 10.4755 18.5714 10.2374 18.5714 9.9993C18.5714 9.76122 18.5616 9.52315 18.5421 9.28507H19.9756C19.9922 9.52315 20.0006 9.76122 20.0006 9.9993C20.0006 10.2374 19.9922 10.4755 19.9756 10.7135H18.5421ZM0.026954 10.7135C0.0102885 10.4755 0.00195312 10.2374 0.00195312 9.9993C0.00195312 9.76122 0.0102885 9.52315 0.026954 9.28507H1.46042C1.44089 9.52315 1.43114 9.76122 1.43114 9.9993C1.43114 10.2374 1.44089 10.4755 1.46042 10.7135H0.026954ZM2.44321 3.45191C2.59891 3.27287 2.76151 3.09887 2.93102 2.92983C3.10053 2.7608 3.27483 2.59811 3.45386 2.44193L4.4695 3.45749C4.10562 3.76601 3.76783 4.10406 3.45957 4.46816L2.44321 3.45191ZM15.533 3.45749L16.5487 2.44193C16.7277 2.59764 16.902 2.76032 17.0715 2.92983C17.241 3.09934 17.4034 3.27335 17.5586 3.45191L16.5422 4.46816C16.2341 4.10396 15.8963 3.76589 15.5323 3.45749H15.533ZM9.2863 0.0251099C9.52438 0.00844435 9.76246 0 10.0005 0C10.2386 0 10.4767 0.00844435 10.7148 0.0251099V1.45707C10.4791 1.43755 10.241 1.42777 10.0005 1.42777C9.76008 1.42777 9.522 1.43777 9.2863 1.45777V0.0251099Z" fill="white"/>
<path d="M6.91797 12.8032C6.91797 11.0334 8.30103 9.58789 10.0957 9.58789C11.7414 9.58789 13.0627 11.0176 13.0627 12.7536C13.0608 12.9328 13.0482 13.1117 13.0251 13.2894H8.35145C8.55086 14.2743 9.34849 14.7853 10.271 14.7853C10.901 14.7876 11.5173 14.601 12.0401 14.2495L12.5887 15.2714C11.8978 15.7446 11.0813 16.0006 10.2439 16.0066C8.4884 16.0066 6.91797 14.8349 6.91797 12.8032V12.8032ZM11.7158 12.2712C11.6624 11.8603 11.4601 11.4832 11.1472 11.2115C10.8343 10.9398 10.4326 10.7924 10.0182 10.7971C9.22057 10.7971 8.52226 11.3826 8.33565 12.2675L11.7158 12.2712Z" fill="#636466"/>
<path d="M15.1007 6.90071C14.996 6.90046 14.8957 6.8588 14.8216 6.78483C14.1875 6.14912 13.4343 5.64475 12.605 5.30061C11.7757 4.95647 10.8866 4.77933 9.98875 4.77933C9.09088 4.77933 8.20184 4.95647 7.37254 5.30061C6.54324 5.64475 5.78999 6.14912 5.15593 6.78483C5.08047 6.85119 4.98256 6.8863 4.88213 6.88301C4.7817 6.87972 4.68629 6.83828 4.61533 6.76713C4.54437 6.69598 4.5032 6.60047 4.50018 6.50003C4.49716 6.39959 4.53253 6.30177 4.59909 6.22649C5.30656 5.5176 6.14689 4.9552 7.07197 4.57148C7.99706 4.18775 8.98874 3.99023 9.99025 3.99023C10.9918 3.99023 11.9834 4.18775 12.9085 4.57148C13.8336 4.9552 14.6739 5.5176 15.3814 6.22649C15.4376 6.28157 15.4761 6.35219 15.4919 6.4293C15.5078 6.5064 15.5002 6.58647 15.4702 6.65924C15.4402 6.73201 15.3891 6.79416 15.3236 6.83772C15.258 6.88128 15.181 6.90426 15.1022 6.90372L15.1007 6.90071Z" fill="#296FA8"/>
<path d="M13.9854 8.01103C13.9332 8.01134 13.8815 8.00118 13.8333 7.98114C13.7851 7.96111 13.7414 7.93161 13.7048 7.8944C13.217 7.40562 12.6377 7.01783 11.9999 6.75325C11.3621 6.48866 10.6784 6.35247 9.98788 6.35247C9.29738 6.35247 8.61366 6.48866 7.97586 6.75325C7.33807 7.01783 6.75872 7.40562 6.27099 7.8944C6.23433 7.93101 6.19082 7.96004 6.14294 7.97984C6.09505 7.99963 6.04374 8.00981 5.99193 8.00977C5.94012 8.00974 5.88882 7.9995 5.84097 7.97964C5.79311 7.95978 5.74964 7.93068 5.71303 7.89402C5.67642 7.85736 5.64738 7.81385 5.62759 7.76597C5.60779 7.71809 5.59762 7.66677 5.59766 7.61496C5.59769 7.56315 5.60793 7.51185 5.62779 7.464C5.64765 7.41614 5.67674 7.37267 5.7134 7.33606C6.27432 6.77386 6.94063 6.32782 7.67418 6.02349C8.40772 5.71915 9.19408 5.5625 9.98825 5.5625C10.7824 5.5625 11.5688 5.71915 12.3023 6.02349C13.0359 6.32782 13.7022 6.77386 14.2631 7.33606C14.3193 7.39114 14.3578 7.46176 14.3736 7.53887C14.3894 7.61597 14.3819 7.69604 14.3519 7.76881C14.3219 7.84158 14.2708 7.90373 14.2053 7.94729C14.1397 7.99085 14.0626 8.01383 13.9839 8.01329L13.9854 8.01103Z" fill="#296FA8"/>
<path d="M12.8725 9.12786C12.7679 9.12788 12.6675 9.08649 12.5933 9.01273C12.2522 8.67065 11.8469 8.39925 11.4007 8.21407C10.9545 8.02888 10.4762 7.93356 9.99309 7.93356C9.51 7.93356 9.03165 8.02888 8.58546 8.21407C8.13927 8.39925 7.73401 8.67065 7.39289 9.01273C7.318 9.08251 7.21895 9.1205 7.1166 9.11869C7.01426 9.11689 6.91661 9.07543 6.84423 9.00305C6.77185 8.93067 6.73038 8.83302 6.72858 8.73067C6.72677 8.62833 6.76476 8.52928 6.83454 8.45439C7.24914 8.03857 7.74171 7.70866 8.28404 7.48356C8.82637 7.25845 9.40778 7.14258 9.99497 7.14258C10.5822 7.14258 11.1636 7.25845 11.7059 7.48356C12.2482 7.70866 12.7408 8.03857 13.1554 8.45439C13.2107 8.50953 13.2484 8.57985 13.2636 8.65644C13.2789 8.73302 13.2711 8.81241 13.2412 8.88455C13.2113 8.95668 13.1606 9.01832 13.0957 9.06164C13.0307 9.10495 12.9543 9.128 12.8762 9.12786H12.8725Z" fill="#296FA8"/>
</svg>
