<svg width="33" height="32" viewBox="0 0 33 32" fill="none" xmlns="http://www.w3.org/2000/svg">
<g clip-path="url(#clip0_1234_24874)">
<path d="M16.1836 32C25.0201 32 32.1836 24.8366 32.1836 16C32.1836 7.16344 25.0201 0 16.1836 0C7.34704 0 0.183594 7.16344 0.183594 16C0.183594 24.8366 7.34704 32 16.1836 32Z" fill="url(#paint0_linear_1234_24874)"/>
<path d="M16.1836 31.75C24.8821 31.75 31.9336 24.6985 31.9336 16C31.9336 7.30152 24.8821 0.25 16.1836 0.25C7.48511 0.25 0.433594 7.30152 0.433594 16C0.433594 24.6985 7.48511 31.75 16.1836 31.75Z" stroke="white" stroke-width="0.5"/>
<path d="M10.7598 20.5988C10.7598 17.6245 13.1487 15.1953 16.2486 15.1953C19.0911 15.1953 21.3735 17.598 21.3735 20.5153C21.37 20.8165 21.3483 21.1171 21.3085 21.4157H13.2358C13.5802 23.071 14.9579 23.9297 16.5514 23.9297C17.6396 23.9336 18.704 23.62 19.6071 23.0293L20.5546 24.7466C19.3613 25.5418 17.951 25.972 16.5046 25.9821C13.4723 25.9821 10.7598 24.0131 10.7598 20.5988ZM19.0469 19.7048C18.9547 19.0142 18.6052 18.3805 18.0647 17.9239C17.5243 17.4673 16.8304 17.2195 16.1147 17.2275C14.737 17.2275 13.5308 18.2113 13.2085 19.6984L19.0469 19.7048Z" fill="white"/>
<path d="M24.8944 10.6919C24.7135 10.6915 24.5402 10.6215 24.4121 10.4972C23.317 9.42884 22.0159 8.58124 20.5835 8.0029C19.151 7.42457 17.6154 7.12688 16.0646 7.12688C14.5137 7.12688 12.9781 7.42457 11.5456 8.0029C10.1132 8.58124 8.81215 9.42884 7.71695 10.4972C7.58661 10.6087 7.4175 10.6677 7.24402 10.6622C7.07055 10.6566 6.90576 10.587 6.78319 10.4674C6.66063 10.3479 6.5895 10.1873 6.58429 10.0186C6.57908 9.84976 6.64018 9.68538 6.75515 9.55887C7.97713 8.36757 9.42861 7.42243 11.0265 6.77757C12.6244 6.13271 14.3373 5.80078 16.0671 5.80078C17.797 5.80078 19.5099 6.13271 21.1078 6.77757C22.7057 7.42243 24.1572 8.36757 25.3792 9.55887C25.4763 9.65144 25.5427 9.77012 25.5701 9.89969C25.5974 10.0293 25.5843 10.1638 25.5325 10.2861C25.4807 10.4084 25.3925 10.5128 25.2793 10.5861C25.166 10.6593 25.0329 10.6979 24.8969 10.697L24.8944 10.6919Z" fill="#296FA8"/>
<path d="M22.9645 12.568C22.8744 12.5685 22.785 12.5514 22.7017 12.5177C22.6185 12.4841 22.543 12.4345 22.4797 12.3719C21.6373 11.5505 20.6366 10.8989 19.535 10.4542C18.4333 10.0096 17.2523 9.78069 16.0597 9.78069C14.867 9.78069 13.686 10.0096 12.5844 10.4542C11.4827 10.8989 10.482 11.5505 9.63959 12.3719C9.57627 12.4335 9.50111 12.4823 9.41841 12.5155C9.3357 12.5488 9.24708 12.5659 9.15758 12.5658C9.06809 12.5658 8.97948 12.5486 8.89682 12.5152C8.81417 12.4818 8.73908 12.4329 8.67584 12.3713C8.6126 12.3097 8.56245 12.2366 8.52826 12.1561C8.49407 12.0756 8.4765 11.9894 8.47656 11.9023C8.47662 11.8153 8.49431 11.7291 8.52861 11.6486C8.56291 11.5682 8.61316 11.4952 8.67649 11.4336C9.64535 10.4888 10.7962 9.73926 12.0633 9.22782C13.3303 8.71638 14.6886 8.45313 16.0603 8.45312C17.4321 8.45313 18.7903 8.71638 20.0574 9.22782C21.3244 9.73926 22.4753 10.4888 23.4441 11.4336C23.5413 11.5262 23.6077 11.6449 23.635 11.7745C23.6624 11.904 23.6493 12.0386 23.5975 12.1609C23.5457 12.2832 23.4575 12.3876 23.3442 12.4608C23.231 12.534 23.0979 12.5727 22.9619 12.5717L22.9645 12.568Z" fill="#296FA8"/>
<path d="M21.0361 14.4457C20.8554 14.4457 20.682 14.3762 20.5539 14.2522C19.9647 13.6773 19.2647 13.2212 18.494 12.91C17.7233 12.5988 16.8971 12.4386 16.0626 12.4386C15.2282 12.4386 14.402 12.5988 13.6313 12.91C12.8606 13.2212 12.1606 13.6773 11.5714 14.2522C11.442 14.3695 11.2709 14.4333 11.0942 14.4303C10.9174 14.4273 10.7487 14.3576 10.6237 14.2359C10.4987 14.1143 10.4271 13.9502 10.4239 13.7782C10.4208 13.6062 10.4864 13.4398 10.607 13.3139C11.3231 12.6151 12.1739 12.0607 13.1106 11.6824C14.0474 11.3041 15.0517 11.1094 16.0659 11.1094C17.0801 11.1094 18.0844 11.3041 19.0211 11.6824C19.9579 12.0607 20.8087 12.6151 21.5248 13.3139C21.6203 13.4066 21.6854 13.5248 21.7118 13.6535C21.7381 13.7821 21.7247 13.9156 21.673 14.0368C21.6214 14.158 21.5339 14.2616 21.4216 14.3344C21.3094 14.4072 21.1775 14.4459 21.0426 14.4457H21.0361Z" fill="#296FA8"/>
</g>
<defs>
<linearGradient id="paint0_linear_1234_24874" x1="16.1836" y1="0" x2="16.1836" y2="32" gradientUnits="userSpaceOnUse">
<stop stop-color="#FFE9CF"/>
<stop offset="1" stop-color="#448CC9"/>
</linearGradient>
<clipPath id="clip0_1234_24874">
<rect width="32" height="32" fill="white" transform="translate(0.183594)"/>
</clipPath>
</defs>
</svg>
