<svg width="32" height="32" viewBox="0 0 32 32" fill="none" xmlns="http://www.w3.org/2000/svg">
<g clip-path="url(#clip0_613_895)">
<path d="M27.1371 27.1371C25.6746 28.5996 23.9383 29.7598 22.0274 30.5513C20.1165 31.3428 18.0684 31.7502 16.0001 31.7502C13.9318 31.7502 11.8837 31.3428 9.9728 30.5513C8.06191 29.7598 6.32563 28.5996 4.8631 27.1371C3.40057 25.6746 2.24042 23.9383 1.4489 22.0274C0.657388 20.1165 0.25 18.0684 0.25 16.0001C0.25 13.9318 0.657388 11.8837 1.4489 9.9728C2.24042 8.06191 3.40057 6.32563 4.8631 4.8631C7.81681 1.90938 11.8229 0.25 16.0001 0.25C20.1773 0.25 24.1834 1.90938 27.1371 4.8631C30.0908 7.81681 31.7502 11.8229 31.7502 16.0001C31.7502 20.1773 30.0908 24.1834 27.1371 27.1371Z" fill="url(#paint0_linear_613_895)" stroke="white" stroke-width="0.5"/>
<path d="M18.166 17.072L17.098 18.141L24.432 25.479L25.5 24.411L18.166 17.072V17.072ZM7.566 6.5L6.5 7.569L13.834 14.907L14.9 13.84L7.566 6.5ZM24.418 6.512L17.093 13.859L18.159 14.924L25.488 7.582L24.42 6.515L24.418 6.512ZM13.853 17.089L6.524 24.433L7.592 25.5L14.921 18.158L13.853 17.089V17.089Z" fill="white"/>
</g>
<defs>
<linearGradient id="paint0_linear_613_895" x1="16.0001" y1="9.62764e-05" x2="16.0001" y2="32.0001" gradientUnits="userSpaceOnUse">
<stop stop-color="#6CD2FF"/>
<stop offset="1" stop-color="#0089C6"/>
</linearGradient>
<clipPath id="clip0_613_895">
<rect width="32" height="32" fill="white"/>
</clipPath>
</defs>
</svg>
