<?xml version="1.0" encoding="UTF-8"?>
<svg id="Layer_2" data-name="Layer 2" xmlns="http://www.w3.org/2000/svg" xmlns:xlink="http://www.w3.org/1999/xlink" viewBox="0 0 280 280">
  <defs>
    <style>
      .cls-1 {
        fill: url(#linear-gradient);
      }

      .cls-1, .cls-2, .cls-3, .cls-4 {
        stroke-width: 0px;
      }

      .cls-2 {
        fill: url(#linear-gradient-4);
      }

      .cls-3 {
        fill: url(#linear-gradient-2);
      }

      .cls-4 {
        fill: url(#linear-gradient-3);
      }
    </style>
    <linearGradient id="linear-gradient" x1="145" y1="198.58" x2="227.84" y2="198.58" gradientUnits="userSpaceOnUse">
      <stop offset="0" stop-color="#1b1638"/>
      <stop offset=".02" stop-color="#1f1844"/>
      <stop offset=".1" stop-color="#2d1f70"/>
      <stop offset=".19" stop-color="#3a2696"/>
      <stop offset=".28" stop-color="#452bb7"/>
      <stop offset=".38" stop-color="#4d30d1"/>
      <stop offset=".49" stop-color="#5433e5"/>
      <stop offset=".61" stop-color="#5936f4"/>
      <stop offset=".75" stop-color="#5c37fc"/>
      <stop offset="1" stop-color="#5d38ff"/>
    </linearGradient>
    <linearGradient id="linear-gradient-2" x1="123.98" y1="61.02" x2="23.84" y2="161.16" xlink:href="#linear-gradient"/>
    <linearGradient id="linear-gradient-3" x1="11.85" y1="168.15" x2="764.04" y2="365.8" gradientUnits="userSpaceOnUse">
      <stop offset="0" stop-color="#7f73ff"/>
      <stop offset=".14" stop-color="#7c71fa"/>
      <stop offset=".28" stop-color="#766bee"/>
      <stop offset=".42" stop-color="#6c61d9"/>
      <stop offset=".57" stop-color="#5d54bc"/>
      <stop offset=".72" stop-color="#4a4297"/>
      <stop offset=".86" stop-color="#342d6a"/>
      <stop offset="1" stop-color="#1b1638"/>
    </linearGradient>
    <linearGradient id="linear-gradient-4" x1="44.44" y1="44.11" x2="796.63" y2="241.76" xlink:href="#linear-gradient-3"/>
  </defs>
  <polygon class="cls-1" points="186.42 157.16 145 198.58 186.42 240 186.42 240 227.84 198.58 186.42 157.16"/>
  <polygon class="cls-3" points="103.58 40 45 98.58 45 181.42 86.42 140 145 81.42 103.58 40"/>
  <polygon class="cls-4" points="145 198.58 114.24 167.82 86.42 140 45 181.42 103.58 240 186.42 240 145 198.58"/>
  <polygon class="cls-2" points="186.42 40 103.58 40 145 81.42 174.29 110.71 186.42 122.84 227.84 81.42 186.42 40"/>
</svg>