<svg width="32" height="32" viewBox="0 0 32 32" fill="none" xmlns="http://www.w3.org/2000/svg">
<g clip-path="url(#clip0_1691_38682)">
<path d="M16 32C24.8366 32 32 24.8366 32 16C32 7.16344 24.8366 0 16 0C7.16344 0 0 7.16344 0 16C0 24.8366 7.16344 32 16 32Z" fill="url(#paint0_linear_1691_38682)"/>
<path d="M16 31.75C24.6985 31.75 31.75 24.6985 31.75 16C31.75 7.30152 24.6985 0.25 16 0.25C7.30152 0.25 0.25 7.30152 0.25 16C0.25 24.6985 7.30152 31.75 16 31.75Z" fill="url(#paint1_linear_1691_38682)" stroke="white" stroke-width="0.5"/>
<path d="M15.9987 5C9.92307 5 5 9.92561 5 16.0013C5 22.0769 9.9251 27.0025 15.9987 27.0025C22.0724 27.0025 27 22.0769 27 16.0038C27 9.93068 22.0744 5 15.9987 5ZM15.9987 20.9659C15.0169 20.9659 14.0572 20.6748 13.2408 20.1293C12.4245 19.5838 11.7882 18.8085 11.4125 17.9015C11.0368 16.9944 10.9384 15.9963 11.13 15.0333C11.3215 14.0704 11.7943 13.1859 12.4886 12.4916C13.1828 11.7974 14.0673 11.3246 15.0303 11.133C15.9932 10.9415 16.9913 11.0398 17.8984 11.4155C18.8055 11.7912 19.5808 12.4275 20.1263 13.2439C20.6717 14.0602 20.9629 15.02 20.9629 16.0018C20.9613 17.3178 20.4377 18.5796 19.5071 19.5102C18.5765 20.4408 17.3148 20.9643 15.9987 20.9659ZM6.21645 16.0018C6.21645 10.8116 10.2799 6.55401 15.3905 6.23875V9.85059C13.8681 10.0072 12.4578 10.7227 11.4324 11.859C10.407 12.9952 9.83944 14.4713 9.83944 16.0018C9.83944 17.5323 10.407 19.0084 11.4324 20.1446C12.4578 21.2808 13.8681 21.9964 15.3905 22.153V25.7648C10.2784 25.45 6.21493 21.1925 6.21493 16.0023L6.21645 16.0018ZM16.607 25.7648V22.1535C18.1294 21.9969 19.5397 21.2813 20.5651 20.1451C21.5904 19.0089 22.158 17.5328 22.158 16.0023C22.158 14.4718 21.5904 12.9957 20.5651 11.8595C19.5397 10.7233 18.1294 10.0077 16.607 9.8511V6.23926C21.7191 6.55452 25.781 10.8121 25.781 16.0023C25.781 21.1925 21.7191 25.4495 16.607 25.7648Z" fill="url(#paint2_linear_1691_38682)"/>
</g>
<defs>
<linearGradient id="paint0_linear_1691_38682" x1="16" y1="0" x2="16" y2="32" gradientUnits="userSpaceOnUse">
<stop stop-color="#264785"/>
<stop offset="1" stop-color="#1B2650"/>
</linearGradient>
<linearGradient id="paint1_linear_1691_38682" x1="16" y1="0.25" x2="16" y2="31.75" gradientUnits="userSpaceOnUse">
<stop stop-color="#264785"/>
<stop offset="1" stop-color="#1B2650"/>
</linearGradient>
<linearGradient id="paint2_linear_1691_38682" x1="8.22004" y1="23.781" x2="23.7779" y2="8.22359" gradientUnits="userSpaceOnUse">
<stop stop-color="#4C80E9"/>
<stop offset="1" stop-color="#91D2F5"/>
</linearGradient>
<clipPath id="clip0_1691_38682">
<rect width="32" height="32" fill="white"/>
</clipPath>
</defs>
</svg>
