<svg width="32" height="32" viewBox="0 0 32 32" fill="none" xmlns="http://www.w3.org/2000/svg">
<g clip-path="url(#clip0_613_414)">
<path d="M16 32C24.837 32 32 24.837 32 16C32 7.163 24.837 0 16 0C7.163 0 0 7.163 0 16C0 24.837 7.163 32 16 32Z" fill="url(#paint0_linear_613_414)"/>
<path d="M16 31.75C24.698 31.75 31.75 24.698 31.75 16C31.75 7.302 24.698 0.25 16 0.25C7.302 0.25 0.25 7.302 0.25 16C0.25 24.698 7.302 31.75 16 31.75Z" stroke="white" stroke-width="0.5"/>
<path fill-rule="evenodd" clip-rule="evenodd" d="M21.1391 19.3657C21.1391 21.0877 19.7331 22.4877 18.0051 22.4877H11.9951L18.2401 16.2657C19.8571 16.3887 21.1401 17.7237 21.1401 19.3657H21.1391ZM11.1091 16.0017V8.78072H18.0191C18.1361 8.78072 18.2531 8.78672 18.3671 8.79972L11.1081 16.0017H11.1091ZM22.3961 11.8887C22.3961 10.4337 21.6761 9.14272 20.5721 8.34872L23.5521 5.38672L21.7701 5.39672L19.4021 7.75072C18.9631 7.60472 18.4951 7.52472 18.0071 7.52472H9.85513V19.0047L19.6701 9.24672C20.5541 9.79872 21.1431 10.7767 21.1431 11.8887C21.1431 13.6087 19.7361 15.0067 18.0071 15.0067H17.7471L6.82812 25.8627H8.60112L10.7411 23.7347H18.0071C20.4271 23.7347 22.3971 21.7767 22.3971 19.3707C22.3971 17.7837 21.5371 16.3967 20.2601 15.6327C21.5391 14.8687 22.3961 13.4767 22.3961 11.8887Z" fill="white"/>
</g>
<defs>
<linearGradient id="paint0_linear_613_414" x1="16" y1="0" x2="16" y2="32" gradientUnits="userSpaceOnUse">
<stop stop-color="#647FFF"/>
<stop offset="1" stop-color="#3C5CEC"/>
</linearGradient>
<clipPath id="clip0_613_414">
<rect width="32" height="32" fill="white"/>
</clipPath>
</defs>
</svg>
