<svg width="32" height="32" viewBox="0 0 32 32" fill="none" xmlns="http://www.w3.org/2000/svg">
<path d="M27.1369 27.1369C24.1832 30.0906 20.1772 31.75 16 31.75C11.8228 31.75 7.81677 30.0906 4.86307 27.1369C1.90937 24.1832 0.25 20.1772 0.25 16C0.25 11.8228 1.90937 7.81677 4.86307 4.86307C7.81677 1.90937 11.8228 0.25 16 0.25C20.1772 0.25 24.1832 1.90937 27.1369 4.86307C30.0906 7.81677 31.75 11.8228 31.75 16C31.75 20.1772 30.0906 24.1832 27.1369 27.1369Z" fill="url(#paint0_linear_4194_63612)" stroke="white" stroke-width="0.5"/>
<path fill-rule="evenodd" clip-rule="evenodd" d="M23.5 8.5H9.5625L13.5304 13.178C14.1901 12.6002 15.0541 12.25 16 12.25C18.0711 12.25 19.75 13.9289 19.75 16C19.75 16.9342 19.4084 17.7886 18.8433 18.4451L23.5 22.452V8.5ZM21.664 23.5L17.9763 19.1876C17.4024 19.5441 16.7253 19.75 16 19.75C13.9289 19.75 12.25 18.0711 12.25 16C12.25 15.2813 12.4522 14.6098 12.8028 14.0393L8.5 10.2923V23.5H21.664Z" fill="white"/>
<defs>
<linearGradient id="paint0_linear_4194_63612" x1="16" y1="0" x2="16" y2="32" gradientUnits="userSpaceOnUse">
<stop stop-color="#363A51"/>
<stop offset="1" stop-color="#1F212E"/>
</linearGradient>
</defs>
</svg>
