<svg width="22" height="22" viewBox="0 0 22 22" fill="none" xmlns="http://www.w3.org/2000/svg">
<path d="M10.9997 20.285C16.1275 20.285 20.2845 16.1279 20.2845 10.9999C20.2845 5.87191 16.1275 1.71484 10.9997 1.71484C5.87179 1.71484 1.71484 5.87191 1.71484 10.9999C1.71484 16.1279 5.87179 20.285 10.9997 20.285Z" fill="white"/>
<path d="M10.9991 20.9986C9.68541 21.0023 8.38409 20.7452 7.1704 20.2426C5.9567 19.7399 4.85475 19.0016 3.92833 18.0702C2.99697 17.1438 2.25859 16.042 1.75595 14.8282C1.25331 13.6145 0.996383 12.313 1.00004 10.9993C0.996304 9.68564 1.2532 8.38418 1.75584 7.17044C2.25849 5.9567 2.9969 4.85488 3.92833 3.92848C4.8547 2.99702 5.95663 2.25844 7.17033 1.75578C8.38403 1.25312 9.6854 0.996304 10.9991 1.00004C12.3127 0.996304 13.6141 1.25312 14.8278 1.75578C16.0415 2.25844 17.1434 2.99702 18.0698 3.92848C19.0012 4.85488 19.7396 5.9567 20.2423 7.17044C20.7449 8.38418 21.0018 9.68564 20.9981 10.9993C21.0017 12.313 20.7448 13.6145 20.2422 14.8282C19.7395 16.042 19.0012 17.1438 18.0698 18.0702C17.1434 19.0016 16.0414 19.7399 14.8277 20.2426C13.614 20.7452 12.3127 21.0023 10.9991 20.9986ZM10.9991 2.42851C8.72676 2.43097 6.54822 3.33478 4.94146 4.94159C3.33469 6.5484 2.43093 8.72697 2.42847 10.9993C2.43093 13.2717 3.33469 15.4503 4.94146 17.0571C6.54822 18.6639 8.72676 19.5677 10.9991 19.5702C13.2714 19.5677 15.4499 18.6639 17.0567 17.0571C18.6634 15.4503 19.5672 13.2717 19.5697 10.9993C19.5672 8.72697 18.6634 6.5484 17.0567 4.94159C15.4499 3.33478 13.2714 2.43097 10.9991 2.42851Z" fill="#0E3CA5"/>
<path opacity="0.41" d="M10.286 20.9742V19.5408C10.5241 19.5608 10.7622 19.5708 11.0003 19.5708C11.2383 19.5708 11.4764 19.5611 11.7145 19.5415V20.9749C11.4764 20.9916 11.2383 21 11.0003 21C10.7622 21 10.5241 20.9913 10.286 20.9742ZM16.5326 17.5411C16.8963 17.2329 17.2338 16.8951 17.5418 16.5311L18.5581 17.5474C18.4029 17.7264 18.2405 17.9004 18.071 18.0695C17.9015 18.2385 17.7275 18.401 17.5489 18.5567L16.5326 17.5411ZM3.93094 18.0702C3.76143 17.9007 3.59884 17.7264 3.44314 17.5474L4.45947 16.5311C4.76765 16.8951 5.10544 17.2329 5.46938 17.5411L4.45305 18.5574C4.27401 18.4021 4.09951 18.2397 3.92952 18.0702H3.93094ZM19.5416 11.7135C19.5611 11.4755 19.5708 11.2374 19.5708 10.9993C19.5708 10.7612 19.5611 10.5231 19.5416 10.2851H20.975C20.9917 10.5231 21 10.7612 21 10.9993C21 11.2374 20.9917 11.4755 20.975 11.7135H19.5416ZM1.02695 11.7135C1.01029 11.4755 1.00195 11.2374 1.00195 10.9993C1.00195 10.7612 1.01029 10.5231 1.02695 10.2851H2.46038C2.44085 10.5231 2.4311 10.7612 2.4311 10.9993C2.4311 11.2374 2.44085 11.4755 2.46038 11.7135H1.02695ZM3.44314 4.45191C3.59884 4.27287 3.76143 4.09887 3.93094 3.92983C4.10045 3.7608 4.27473 3.59811 4.45376 3.44193L5.46938 4.45749C5.10551 4.76601 4.76773 5.10406 4.45947 5.46816L3.44314 4.45191ZM16.5326 4.45749L17.5482 3.44193C17.7272 3.59764 17.9015 3.76032 18.071 3.92983C18.2405 4.09934 18.4029 4.27335 18.5581 4.45191L17.5418 5.46816C17.2336 5.10396 16.8958 4.76589 16.5319 4.45749H16.5326ZM10.286 1.02511C10.5241 1.00844 10.7622 1 11.0003 1C11.2383 1 11.4764 1.00844 11.7145 1.02511V2.45707C11.4788 2.43755 11.2407 2.42777 11.0003 2.42777C10.7598 2.42777 10.5217 2.43777 10.286 2.45777V1.02511Z" fill="white" stroke="white" stroke-width="0.1"/>
<path d="M10.1573 14.1907C10.4874 15.4096 11.6671 16.3399 12.2627 16.303C12.2835 16.303 14.5228 15.8828 15.7486 13.8305C16.7021 12.233 16.3789 10.6909 15.0814 10.6562C14.6197 10.6909 9.54088 11.8682 10.1573 14.1907Z" fill="url(#paint0_linear_2560_56652)"/>
<path d="M14.9588 6.35961C14.1422 5.66322 13.1452 5.21215 12.0831 5.05854C11.0209 4.90494 9.93697 5.05507 8.95655 5.49159C8.83222 5.54339 8.71118 5.60275 8.5941 5.66935C8.51561 5.7109 8.43481 5.75476 8.36325 5.80093H8.38402C8.15117 5.96033 7.94606 6.15686 7.77687 6.38269C6.14933 8.53659 11.6206 10.111 14.5502 10.1156C15.8984 11.0852 16.277 7.38692 14.9588 6.35961Z" fill="url(#paint1_linear_2560_56652)"/>
<path d="M9.29012 6.40319C8.53753 7.5367 6.03042 8.33546 5.61719 8.2108L5.66798 8.10691C5.8082 7.828 5.96949 7.5602 6.15047 7.30584C6.51791 6.81189 6.95761 6.37608 7.45481 6.01304C7.60836 5.89705 7.76787 5.78917 7.93268 5.68984C8.1855 5.5453 8.47032 5.46596 8.76146 5.45898C9.8788 5.47976 9.29474 6.38241 9.29012 6.38241" fill="url(#paint2_linear_2560_56652)"/>
<path d="M8.67063 14.4152C8.72603 14.7707 8.67063 16.1767 8.59675 16.2967C8.53442 16.2967 8.40514 16.3082 8.02654 16.0959C7.82818 15.9831 7.63697 15.8582 7.45401 15.7219C7.20819 15.5397 6.97666 15.3391 6.76144 15.1216C6.54341 14.907 6.34271 14.6754 6.16121 14.4291C5.7915 13.9275 5.50395 13.3704 5.30935 12.7784C5.20737 12.4774 5.13016 12.1686 5.07849 11.855C4.97384 11.209 4.97384 10.5503 5.07849 9.90428C5.1307 9.5908 5.2079 9.28201 5.30935 8.98085C5.32782 8.92083 5.3486 8.8608 5.37168 8.80078C5.80338 9.37792 6.29511 9.89966 6.73143 10.4814C7.16775 11.0632 7.6941 11.9404 7.80722 12.1344C8.49979 13.3325 8.62445 14.0736 8.67755 14.4291" fill="url(#paint3_linear_2560_56652)"/>
<path d="M16.9997 10.8688C17.0005 11.6249 16.8587 12.3744 16.5818 13.0781C15.8754 13.8376 11.1082 11.9653 11.062 11.9446C10.4087 11.6583 8.42564 10.7903 8.24558 9.41899C7.99625 7.44978 11.9739 6.07849 13.7261 6.02539C13.9362 6.02539 14.5757 6.02539 14.9473 6.33936C15.5932 6.90384 16.1106 7.60021 16.4646 8.38153C16.8186 9.16285 17.0011 10.011 16.9997 10.8688Z" fill="url(#paint4_linear_2560_56652)"/>
<path d="M13.769 16.2019C13.2495 16.4466 12.677 16.2688 12.8271 15.7609C13.111 14.789 15.5973 13.7894 16.1537 13.7363C16.2207 13.7363 16.2507 13.7756 16.2207 13.8287C15.6467 14.8375 14.7959 15.661 13.769 16.2019Z" fill="url(#paint5_linear_2560_56652)"/>
<defs>
<linearGradient id="paint0_linear_2560_56652" x1="13.2023" y1="16.303" x2="13.2023" y2="10.6563" gradientUnits="userSpaceOnUse">
<stop stop-color="#4366C2"/>
<stop offset="0.15" stop-color="#3458B8"/>
<stop offset="0.4" stop-color="#2348AC"/>
<stop offset="0.67" stop-color="#193FA5"/>
<stop offset="1" stop-color="#163CA3"/>
</linearGradient>
<linearGradient id="paint1_linear_2560_56652" x1="11.6276" y1="10.2749" x2="11.6276" y2="4.99755" gradientUnits="userSpaceOnUse">
<stop stop-color="#4366C2"/>
<stop offset="0.15" stop-color="#3458B8"/>
<stop offset="0.4" stop-color="#2348AC"/>
<stop offset="0.67" stop-color="#193FA5"/>
<stop offset="1" stop-color="#163CA3"/>
</linearGradient>
<linearGradient id="paint2_linear_2560_56652" x1="5.61488" y1="6.84874" x2="9.4471" y2="6.84874" gradientUnits="userSpaceOnUse">
<stop stop-color="#58C66B"/>
<stop offset="1" stop-color="#5491F6"/>
</linearGradient>
<linearGradient id="paint3_linear_2560_56652" x1="4.99539" y1="12.543" x2="8.69371" y2="12.543" gradientUnits="userSpaceOnUse">
<stop stop-color="#58C66B"/>
<stop offset="1" stop-color="#5491F6"/>
</linearGradient>
<linearGradient id="paint4_linear_2560_56652" x1="8.23403" y1="9.64292" x2="16.9997" y2="9.64292" gradientUnits="userSpaceOnUse">
<stop stop-color="#58C66B"/>
<stop offset="1" stop-color="#5491F6"/>
</linearGradient>
<linearGradient id="paint5_linear_2560_56652" x1="12.8063" y1="15.0222" x2="16.2368" y2="15.0222" gradientUnits="userSpaceOnUse">
<stop stop-color="#58C66B"/>
<stop offset="1" stop-color="#5491F6"/>
</linearGradient>
</defs>
</svg>
