<svg width="32" height="32" viewBox="0 0 32 32" fill="none" xmlns="http://www.w3.org/2000/svg">
<path d="M31.75 16C31.75 24.6985 24.6985 31.75 16 31.75C7.30151 31.75 0.25 24.6985 0.25 16C0.25 7.30151 7.30151 0.25 16 0.25C24.6985 0.25 31.75 7.30151 31.75 16Z" fill="url(#paint0_linear_5311_75927)" stroke="white" stroke-width="0.5"/>
<g clip-path="url(#clip0_5311_75927)">
<path d="M15.8871 26.9436C21.7068 26.9436 26.4246 22.2124 26.4246 16.3761C26.4246 10.5398 21.7068 5.80859 15.8871 5.80859C10.0674 5.80859 5.34961 10.5398 5.34961 16.3761C5.34961 22.2124 10.0674 26.9436 15.8871 26.9436Z" fill="#F2E373"/>
<path fill-rule="evenodd" clip-rule="evenodd" d="M20.1617 15.252L5.76172 19.5607C6.43672 21.6607 7.74922 23.5695 9.81172 25.032C14.8367 28.5532 21.0992 27.057 25.0367 22.857C25.1117 22.782 25.0367 22.632 24.9242 22.6695C24.1742 23.007 23.3492 23.1195 22.5617 22.9695C21.0242 22.6695 19.8617 21.507 19.5617 19.9732C19.1867 18.0232 20.3492 16.1145 22.2617 15.552L20.1617 15.252Z" fill="url(#paint1_linear_5311_75927)"/>
<path fill-rule="evenodd" clip-rule="evenodd" d="M18.5128 14.43C18.8128 14.3175 19.0753 14.1675 19.3378 14.0175C22.0003 12.48 25.3753 13.0425 27.4378 15.33C27.4753 15.3675 27.4753 15.4425 27.4378 15.48C27.4003 15.5175 27.3628 15.5175 27.3253 15.5175C25.5253 15.1425 23.5753 15.0675 22.1128 15.555C20.3503 16.155 19.0378 17.3925 18.1378 18.9637C16.8253 21.2512 16.2628 21.9225 14.1253 22.7475C10.4128 24.21 6.92531 22.86 5.76282 19.5637C4.22532 14.6512 6.43782 9.33375 11.0128 6.93375C12.2878 6.25875 13.8628 5.65875 15.1753 5.28375C16.4503 4.90875 18.5878 4.38375 19.1503 3.0375C19.1878 3 19.2628 3 19.3003 3C19.3378 3 19.3753 3.0375 19.3753 3.1125C19.6003 4.725 19.2253 5.43375 18.2878 6.33375C17.2753 7.27125 16.0378 7.72125 14.9503 8.3925C13.2628 9.5175 12.7378 11.5387 13.8628 13.2262C14.5378 14.2388 15.6628 14.7638 16.8628 14.7638C17.2378 14.7638 17.5753 14.7262 17.9503 14.6137C18.1378 14.5763 18.3253 14.5012 18.5128 14.4262V14.43Z" fill="url(#paint2_linear_5311_75927)"/>
</g>
<defs>
<linearGradient id="paint0_linear_5311_75927" x1="16" y1="0" x2="16" y2="32" gradientUnits="userSpaceOnUse">
<stop stop-color="#F9F9F9"/>
<stop offset="1" stop-color="#EAEAEA"/>
</linearGradient>
<linearGradient id="paint1_linear_5311_75927" x1="15.0754" y1="18.9016" x2="16.969" y2="23.3466" gradientUnits="userSpaceOnUse">
<stop stop-color="#F7D45C"/>
<stop offset="1" stop-color="#DE3633"/>
</linearGradient>
<linearGradient id="paint2_linear_5311_75927" x1="9.08786" y1="8.49172" x2="17.7632" y2="18.3995" gradientUnits="userSpaceOnUse">
<stop stop-color="#F7D45C"/>
<stop offset="1" stop-color="#DE3633"/>
</linearGradient>
<clipPath id="clip0_5311_75927">
<rect width="24" height="24" fill="white" transform="translate(4 3)"/>
</clipPath>
</defs>
</svg>
