<svg id="Layer_1" data-name="Layer 1" xmlns="http://www.w3.org/2000/svg" viewBox="0 0 64 64"><defs><style>.cls-1{fill:#4c5460;}.cls-2{fill:none;}.cls-3{fill:#fff;}</style></defs><circle class="cls-1" cx="32" cy="32" r="32"/><circle class="cls-2" cx="32" cy="32" r="31.88"/><path class="cls-3" d="M51.91,38.09a19.91,19.91,0,1,1-39.82,0,1.64,1.64,0,0,1,1.64-1.64h6.09a1.64,1.64,0,0,1,1.64,1.64h0a10.48,10.48,0,0,0,3.09,7.45l.07.09h0a10.52,10.52,0,0,0,7.36,3h.37v0a10.51,10.51,0,0,0,7.09-3.07h0a10.5,10.5,0,0,0,3.07-7.45,10.61,10.61,0,0,0-1-4.56,10.82,10.82,0,0,0-2.9-3.66A5.77,5.77,0,0,1,37.07,28a6,6,0,0,1-.62-2.34,4.47,4.47,0,0,0-7.6-2.91h0a4.48,4.48,0,0,0,0,6.3l.25.26,0,0A4.44,4.44,0,0,0,32,30.36h0a7.74,7.74,0,0,1,5.46,2.27h0a7.7,7.7,0,0,1,0,10.91h0a7.72,7.72,0,0,1-13.16-5,2.54,2.54,0,0,0-.27-1,2.58,2.58,0,0,0-.68-.81,13.79,13.79,0,0,1-1.11-20.52h0a13.8,13.8,0,0,1,19.52,0h0a13.82,13.82,0,0,1,3.9,7.8l0,.32h2.84l-.05-.41a16.63,16.63,0,0,0-33.14,2.05,16.92,16.92,0,0,0,.32,3.26,6.62,6.62,0,0,0,.58,2h0a1.58,1.58,0,0,1,.13.63,1.65,1.65,0,0,1-1,1.51,1.76,1.76,0,0,1-.63.12,1.63,1.63,0,0,1-1.51-1h0a9.55,9.55,0,0,1-.77-2.63,19.62,19.62,0,0,1-.39-3.9,19.91,19.91,0,1,1,39.82,0,1.64,1.64,0,0,1-1.64,1.64H44.18a1.64,1.64,0,0,1-1.64-1.64,10.47,10.47,0,0,0-3.08-7.45h0a10.56,10.56,0,0,0-14.9,0h0a10.47,10.47,0,0,0-3.08,7.45,10.61,10.61,0,0,0,1,4.56,10.82,10.82,0,0,0,2.9,3.66A5.88,5.88,0,0,1,26.93,36a6,6,0,0,1,.62,2.34,4.47,4.47,0,0,0,7.6,2.91h0a4.49,4.49,0,0,0,0-6.3h0A4.44,4.44,0,0,0,32,33.64h0a7.74,7.74,0,0,1-5.41-2.21l-.05-.06h0a7.7,7.7,0,0,1,0-10.91h0a7.72,7.72,0,0,1,13.17,5h0a2.54,2.54,0,0,0,.27,1,2.58,2.58,0,0,0,.68.81,13.8,13.8,0,0,1,1.12,20.52h0a13.79,13.79,0,0,1-9.45,4H32A13.77,13.77,0,0,1,22.34,48h0l-.1-.09a13.76,13.76,0,0,1-3.91-7.81l0-.32H15.44l.05.41a16.63,16.63,0,0,0,33.14-2,16.92,16.92,0,0,0-.32-3.26,6.56,6.56,0,0,0-.58-2h0a1.76,1.76,0,0,1-.12-.63,1.64,1.64,0,0,1,1-1.51,1.76,1.76,0,0,1,.63-.12,1.64,1.64,0,0,1,1.51,1h0a9.55,9.55,0,0,1,.77,2.63A19.69,19.69,0,0,1,51.91,38.09ZM32,39.74a1.64,1.64,0,1,0-1.17-.48A1.68,1.68,0,0,0,32,39.74Zm0-15.48a1.64,1.64,0,1,0,1.16.48A1.68,1.68,0,0,0,32,24.26Z"/></svg>