<svg id="Layer_1" data-name="Layer 1" xmlns="http://www.w3.org/2000/svg" xmlns:xlink="http://www.w3.org/1999/xlink" viewBox="0 0 20 20"><defs><style>.cls-1,.cls-6{fill:#fff;}.cls-2{fill:url(#linear-gradient);}.cls-3{fill:none;}.cls-4{fill:url(#linear-gradient-2);}.cls-5{fill:#292929;}.cls-6{opacity:0.41;isolation:isolate;}</style><linearGradient id="linear-gradient" x1="4.15" y1="18.08" x2="15.51" y2="6.27" gradientTransform="matrix(1, 0, 0, -1, 0, 22)" gradientUnits="userSpaceOnUse"><stop offset="0.29"/><stop offset="0.85" stop-color="#001119"/></linearGradient><linearGradient id="linear-gradient-2" x1="10.96" y1="16.86" x2="9.04" y2="3.14" gradientUnits="userSpaceOnUse"><stop offset="0" stop-color="#31a8fa"/><stop offset="0.38" stop-color="#31a8fa"/><stop offset="0.48" stop-color="#5b85fb"/><stop offset="0.7" stop-color="#c62dfd"/><stop offset="0.74" stop-color="#d81efd"/><stop offset="0.82" stop-color="#ae1cdb"/><stop offset="1" stop-color="#511790"/></linearGradient></defs><path class="cls-1" d="M10,20A10,10,0,1,0,0,10,10,10,0,0,0,10,20Z" transform="translate(0 0)"/><circle class="cls-2" cx="10" cy="10" r="8.54"/><circle class="cls-3" cx="10" cy="10" r="8.51"/><path class="cls-4" d="M15.31,11.63a5.31,5.31,0,1,1-10.62,0,.41.41,0,0,1,.12-.31.44.44,0,0,1,.31-.13H6.75a.44.44,0,0,1,.31.13.42.42,0,0,1,.13.31h0a2.81,2.81,0,0,0,.82,2l0,0H8a2.77,2.77,0,0,0,2,.8h.1A2.86,2.86,0,0,0,12,13.62h0a2.83,2.83,0,0,0,.55-3.2,2.82,2.82,0,0,0-.77-1,1.54,1.54,0,0,1-.42-.5,1.62,1.62,0,0,1-.16-.62,1.2,1.2,0,0,0-.37-.8,1.21,1.21,0,0,0-1.66,0h0a1.2,1.2,0,0,0,0,1.69l.07.06h0a1.18,1.18,0,0,0,.77.28h0a2,2,0,0,1,1.46.61h0a2.08,2.08,0,0,1,.6,1.46,2.06,2.06,0,0,1-.6,1.45h0a2,2,0,0,1-2.86,0,2,2,0,0,1-.65-1.38.68.68,0,0,0-.07-.28.6.6,0,0,0-.18-.21A3.66,3.66,0,0,1,6.31,8.37a3.67,3.67,0,0,1,1.08-2.6h0a3.69,3.69,0,0,1,5.21,0h0a3.66,3.66,0,0,1,1,2.08v.09h.76V7.83a4.52,4.52,0,0,0-1.27-2.6A4.44,4.44,0,0,0,5.56,8.37a4.31,4.31,0,0,0,.09.88,1.61,1.61,0,0,0,.15.53h0a.55.55,0,0,1,0,.17.44.44,0,0,1-.26.4.38.38,0,0,1-.17,0,.42.42,0,0,1-.4-.27H5a2.56,2.56,0,0,1-.21-.7,5.36,5.36,0,0,1,1.45-4.8,5.31,5.31,0,0,1,9.07,3.75.41.41,0,0,1-.12.31.44.44,0,0,1-.31.13H13.25a.44.44,0,0,1-.31-.13.42.42,0,0,1-.13-.31,2.81,2.81,0,0,0-.82-2h0a2.82,2.82,0,0,0-4,0H8a2.81,2.81,0,0,0-.82,2,2.76,2.76,0,0,0,.27,1.22,2.82,2.82,0,0,0,.77,1,1.54,1.54,0,0,1,.42.5,1.62,1.62,0,0,1,.16.62,1.2,1.2,0,0,0,.37.8,1.21,1.21,0,0,0,1.66,0h0a1.19,1.19,0,0,0,.35-.84,1.15,1.15,0,0,0-.35-.84h0a1.19,1.19,0,0,0-.84-.34h0a2.07,2.07,0,0,1-1.44-.59l0,0h0a2.06,2.06,0,0,1,0-2.91h0a2,2,0,0,1,2.87,0,2,2,0,0,1,.65,1.38h0a.68.68,0,0,0,.07.28.6.6,0,0,0,.18.21,3.66,3.66,0,0,1,1.38,2.88,3.67,3.67,0,0,1-1.08,2.6h0a3.67,3.67,0,0,1-2.53,1.08H10a3.7,3.7,0,0,1-2.58-1.05h0l0,0a3.63,3.63,0,0,1-1-2.08v-.09H5.58v.11a4.52,4.52,0,0,0,1.27,2.6,4.44,4.44,0,0,0,7.58-3.14,4.14,4.14,0,0,0-.09-.87,1.67,1.67,0,0,0-.15-.54h0a.51.51,0,0,1,0-.17.43.43,0,0,1,.27-.4.47.47,0,0,1,.16,0,.46.46,0,0,1,.41.27h0a3,3,0,0,1,.2.71A5.16,5.16,0,0,1,15.31,11.63ZM10,12.07a.44.44,0,1,0-.31-.13A.44.44,0,0,0,10,12.07Zm0-4.14a.44.44,0,1,0,.31.13A.44.44,0,0,0,10,7.93Z" transform="translate(0 0)"/><path class="cls-5" d="M10,20a10,10,0,0,1-7.07-2.93A10,10,0,0,1,.76,6.17,10,10,0,0,1,10,0,10,10,0,0,1,20,10,10,10,0,0,1,10,20ZM10,1.43a8.57,8.57,0,1,0,6.06,2.51A8.57,8.57,0,0,0,10,1.43Z" transform="translate(0 0)"/><path class="cls-6" d="M9.28,20V18.54q.36,0,.72,0c.24,0,.48,0,.71,0V20c-.23,0-.47,0-.71,0S9.52,20,9.28,20Zm6.25-3.43a8,8,0,0,0,1-1l1,1c-.16.18-.32.35-.49.52l-.52.49Zm-12.6.53c-.17-.17-.33-.34-.49-.52l1-1a8,8,0,0,0,1,1l-1,1-.52-.49Zm15.61-6.36c0-.23,0-.47,0-.71s0-.48,0-.71H20c0,.23,0,.47,0,.71s0,.48,0,.71ZM0,10.71c0-.23,0-.47,0-.71s0-.48,0-.71H1.46c0,.23,0,.47,0,.71s0,.48,0,.71ZM2.44,3.45c.16-.18.32-.35.49-.52l.52-.49,1,1a8,8,0,0,0-1,1Zm13.09,0,1-1,.52.49c.17.17.33.34.49.52l-1,1A8,8,0,0,0,15.53,3.46ZM9.28,0,10,0c.24,0,.48,0,.71,0V1.46c-.23,0-.47,0-.71,0s-.48,0-.72,0Z" transform="translate(0 0)"/></svg>