<svg id="Layer_1" data-name="Layer 1" xmlns="http://www.w3.org/2000/svg" xmlns:xlink="http://www.w3.org/1999/xlink" viewBox="0 0 32 32"><defs><style>.cls-1{fill:#d81efd;}.cls-2{fill:url(#linear-gradient);}.cls-3{fill:none;}.cls-4{fill:url(#linear-gradient-2);}</style><linearGradient id="linear-gradient" x1="5.39" y1="29.03" x2="26" y2="7.6" gradientTransform="matrix(1, 0, 0, -1, 0, 34)" gradientUnits="userSpaceOnUse"><stop offset="0.29"/><stop offset="0.85" stop-color="#001119"/></linearGradient><linearGradient id="linear-gradient-2" x1="17.75" y1="28.44" x2="14.25" y2="3.56" gradientUnits="userSpaceOnUse"><stop offset="0" stop-color="#31a8fa"/><stop offset="0.38" stop-color="#31a8fa"/><stop offset="0.48" stop-color="#5b85fb"/><stop offset="0.7" stop-color="#c62dfd"/><stop offset="0.74" stop-color="#d81efd"/><stop offset="0.82" stop-color="#ae1cdb"/><stop offset="1" stop-color="#511790"/></linearGradient></defs><circle class="cls-1" cx="16" cy="16" r="16"/><circle class="cls-2" cx="16" cy="16" r="15.5"/><circle class="cls-3" cx="16" cy="16" r="15.44"/><path class="cls-4" d="M25.64,19A9.64,9.64,0,1,1,6.36,19a.79.79,0,0,1,.79-.79H10.1a.79.79,0,0,1,.56.23.75.75,0,0,1,.23.56h0a5.1,5.1,0,0,0,1.5,3.61l0,0h0A5.06,5.06,0,0,0,16,24.06h.18a5,5,0,0,0,3.43-1.49h0A5.09,5.09,0,0,0,21.11,19a5.07,5.07,0,0,0-1.91-4,2.94,2.94,0,0,1-.74-.91,2.71,2.71,0,0,1-.3-1.13,2.2,2.2,0,0,0-.68-1.45,2.16,2.16,0,0,0-3,0h0a2.11,2.11,0,0,0-.63,1.52,2.15,2.15,0,0,0,.63,1.53l.13.12h0a2.13,2.13,0,0,0,1.39.52h0a3.75,3.75,0,0,1,2.64,1.09h0A3.71,3.71,0,0,1,19.74,19a3.75,3.75,0,0,1-1.09,2.64h0A3.71,3.71,0,0,1,16,22.69a3.73,3.73,0,0,1-3.73-3.53,1.37,1.37,0,0,0-.13-.5,1.38,1.38,0,0,0-.33-.4,6.68,6.68,0,0,1-.54-9.94h0a6.68,6.68,0,0,1,9.45,0h0a6.68,6.68,0,0,1,1.9,3.77l0,.16H24l0-.2a8.06,8.06,0,0,0-16.06,1,8.38,8.38,0,0,0,.16,1.58,3.34,3.34,0,0,0,.28,1h0a.8.8,0,0,1,.06.3.78.78,0,0,1-.49.73.8.8,0,0,1-.3.06.79.79,0,0,1-.73-.48h0a4.56,4.56,0,0,1-.37-1.28,9.25,9.25,0,0,1-.19-1.89,9.64,9.64,0,1,1,19.28,0,.79.79,0,0,1-.79.79h-3a.79.79,0,0,1-.56-.23.75.75,0,0,1-.23-.56,5.06,5.06,0,0,0-1.5-3.61h0a5.11,5.11,0,0,0-7.22,0h0a5.06,5.06,0,0,0-1.5,3.61,5.07,5.07,0,0,0,1.91,4,2.94,2.94,0,0,1,.74.91,2.71,2.71,0,0,1,.3,1.13,2.2,2.2,0,0,0,.68,1.45,2.16,2.16,0,0,0,3,0h0A2.11,2.11,0,0,0,18.16,19a2.15,2.15,0,0,0-.63-1.53h0A2.15,2.15,0,0,0,16,16.79h0a3.75,3.75,0,0,1-2.62-1.07l0,0h0a3.75,3.75,0,0,1-1.09-2.64,3.71,3.71,0,0,1,1.09-2.64h0a3.73,3.73,0,0,1,6.37,2.44h0a1.32,1.32,0,0,0,.13.5,1.38,1.38,0,0,0,.33.4,6.67,6.67,0,0,1,.54,9.93h0a6.68,6.68,0,0,1-4.58,2H16a6.68,6.68,0,0,1-4.68-1.91h0s0,0,0,0a6.68,6.68,0,0,1-1.9-3.78l0-.16H8l0,.2a8.06,8.06,0,0,0,16.06-1,8.38,8.38,0,0,0-.16-1.58,3.19,3.19,0,0,0-.28-1h0a.85.85,0,0,1-.06-.31.79.79,0,0,1,.49-.73.8.8,0,0,1,.3-.06.78.78,0,0,1,.73.49h0a4.5,4.5,0,0,1,.37,1.27A9.25,9.25,0,0,1,25.64,19Zm-9.64.8a.76.76,0,0,0,.56-.24.79.79,0,0,0-1.12-1.12A.8.8,0,0,0,16,19.75Zm0-7.5a.79.79,0,0,0-.56,1.36.79.79,0,0,0,1.12-1.12A.76.76,0,0,0,16,12.25Z" transform="translate(0 0)"/></svg>