<svg width="64" height="64" viewBox="0 0 64 64" fill="none" xmlns="http://www.w3.org/2000/svg">
<circle cx="32" cy="32" r="32" fill="url(#paint0_linear_609_11925)"/>
<path d="M35.1925 16.6605C35.6849 15.9023 36.86 16.2171 36.9073 17.12L37.4202 26.9062C37.4414 27.31 37.7201 27.6542 38.1107 27.7589L47.5764 30.2952C48.4497 30.5292 48.5134 31.7441 47.6693 32.0681L38.5206 35.5799C38.1431 35.7248 37.9018 36.0963 37.923 36.5001L38.4359 46.2863C38.4832 47.1892 37.3475 47.6252 36.7785 46.9225L30.6114 39.3068C30.3569 38.9926 29.9291 38.8779 29.5516 39.0228L20.4028 42.5347C19.5588 42.8587 18.7932 41.9133 19.2856 41.155L24.6229 32.9364C24.8431 32.5973 24.8199 32.1549 24.5654 31.8407L18.3983 24.2249C17.8293 23.5223 18.4919 22.502 19.3652 22.736L28.8309 25.2724C29.2215 25.377 29.635 25.2183 29.8553 24.8792L35.1925 16.6605Z" fill="white"/>
<path fill-rule="evenodd" clip-rule="evenodd" d="M26.9273 50.9322C37.3832 53.7338 48.1306 47.5288 50.9323 37.0729C53.7339 26.617 47.5289 15.8696 37.073 13.0679C26.617 10.2662 15.8696 16.4712 13.068 26.9272C10.2663 37.3831 16.4713 48.1305 26.9273 50.9322ZM26.5649 52.2845C37.7677 55.2863 49.2828 48.638 52.2846 37.4352C55.2863 26.2324 48.6381 14.7174 37.4353 11.7156C26.2325 8.71382 14.7175 15.362 11.7157 26.5648C8.7139 37.7676 15.3621 49.2827 26.5649 52.2845Z" fill="white"/>
<defs>
<linearGradient id="paint0_linear_609_11925" x1="12.2553" y1="7.14894" x2="54.8085" y2="51.4043" gradientUnits="userSpaceOnUse">
<stop stop-color="#FF60F9"/>
<stop offset="0.322917" stop-color="#C82CE1"/>
<stop offset="1" stop-color="#640950"/>
</linearGradient>
</defs>
</svg>
