<svg width="64" height="64" viewBox="0 0 64 64" fill="none" xmlns="http://www.w3.org/2000/svg">
<circle cx="32" cy="32" r="32" fill="url(#paint0_linear_1749_21903)"/>
<g clip-path="url(#clip0_1749_21903)">
<path d="M30.1066 26.9611C28.784 26.9611 27.5155 27.4865 26.5803 28.4217C25.645 29.357 25.1196 30.6254 25.1196 31.9481C25.1196 33.2707 25.645 34.5392 26.5803 35.4744C27.5155 36.4097 28.784 36.9351 30.1066 36.9351C31.4293 36.9351 32.6977 36.4097 33.633 35.4744C34.5682 34.5392 35.0937 33.2707 35.0937 31.9481C35.0937 30.6254 34.5682 29.357 33.633 28.4217C32.6977 27.4865 31.4293 26.9611 30.1066 26.9611Z" fill="white"/>
<path d="M30.1066 12C27.4863 11.9968 24.8912 12.5114 22.4703 13.5141C20.0495 14.5169 17.8506 15.9881 16 17.8431L23.0566 24.8998C24.451 23.5036 26.2282 22.5525 28.1633 22.1666C30.0984 21.7807 32.1045 21.9775 33.9277 22.7321C35.751 23.4866 37.3094 24.765 38.406 26.4055C39.5025 28.046 40.0877 29.9749 40.0877 31.9481C40.0877 33.9213 39.5025 35.8501 38.406 37.4906C37.3094 39.1311 35.751 40.4095 33.9277 41.1641C32.1045 41.9186 30.0984 42.1154 28.1633 41.7295C26.2282 41.3437 24.451 40.3925 23.0566 38.9964L16 46.0547C18.3197 48.374 21.1756 50.0855 24.3147 51.0375C27.4538 51.9895 30.7793 52.1528 33.9965 51.5127C37.2138 50.8726 40.2236 49.449 42.7592 47.368C45.2949 45.287 47.2783 42.6128 48.5337 39.5822C49.789 36.5516 50.2777 33.2582 49.9563 29.9937C49.6349 26.7291 48.5134 23.5943 46.6912 20.8667C44.8689 18.1391 42.4021 15.9029 39.5093 14.3563C36.6165 12.8097 33.3869 12.0004 30.1066 12Z" fill="white"/>
</g>
<defs>
<linearGradient id="paint0_linear_1749_21903" x1="12.2553" y1="7.14894" x2="54.8085" y2="51.4043" gradientUnits="userSpaceOnUse">
<stop stop-color="#21CB8C"/>
<stop offset="0.4375" stop-color="#0B905F"/>
<stop offset="1" stop-color="#066E47"/>
</linearGradient>
<clipPath id="clip0_1749_21903">
<rect width="34.9091" height="39.8961" fill="white" transform="translate(16 12)"/>
</clipPath>
</defs>
</svg>
