<svg width="64" height="64" viewBox="0 0 64 64" fill="none" xmlns="http://www.w3.org/2000/svg">
<circle cx="32" cy="32" r="32" fill="#4C5460"/>
<path d="M50.65 32C50.65 42.3001 42.3001 50.65 32 50.65C21.6999 50.65 13.35 42.3001 13.35 32C13.35 21.6999 21.6999 13.35 32 13.35C42.3001 13.35 50.65 21.6999 50.65 32Z" stroke="white" stroke-width="0.7"/>
<path fill-rule="evenodd" clip-rule="evenodd" d="M32.773 23.8879C32.773 23.4858 32.4829 23.1597 32.1249 23.1597C32.1249 23.1597 32.1245 23.1597 32.1241 23.1597C31.7665 23.1597 31.4763 23.4858 31.4763 23.8879C31.4763 26.8221 31.4763 37.7651 31.4763 40.6998C31.4763 41.102 31.7665 41.428 32.1241 41.428C32.1245 41.428 32.1249 41.428 32.1249 41.428C32.4829 41.428 32.773 41.102 32.773 40.6998C32.773 37.7651 32.773 26.8221 32.773 23.8879Z" fill="white"/>
<path fill-rule="evenodd" clip-rule="evenodd" d="M30.1505 37.7426C29.7927 37.7422 29.5023 38.068 29.502 38.4701C29.502 38.4701 29.502 38.4706 29.502 38.471C29.5017 38.8727 29.7917 39.199 30.1495 39.1993C31.145 39.2003 33.0396 39.202 34.0351 39.203C34.393 39.2033 34.6835 38.8776 34.6838 38.4758C34.6838 38.4754 34.6838 38.475 34.6838 38.475C34.6841 38.0728 34.3941 37.7465 34.0362 37.7462C33.0406 37.7453 31.1461 37.7435 30.1505 37.7426Z" fill="white"/>
<path fill-rule="evenodd" clip-rule="evenodd" d="M26.9487 28.222C26.5906 28.2216 26.3004 28.5474 26.3001 28.9496C26.3001 28.9496 26.3001 28.95 26.3001 28.9504C26.2998 29.3522 26.5895 29.6784 26.9476 29.6788C28.9822 29.6807 35.227 29.6865 37.2615 29.6884C37.6193 29.6887 37.9098 29.363 37.9101 28.9612C37.9101 28.9608 37.9101 28.9604 37.9101 28.9604C37.9104 28.5582 37.6204 28.2319 37.2626 28.2316C35.2281 28.2297 28.9832 28.2239 26.9487 28.222Z" fill="white"/>
<path fill-rule="evenodd" clip-rule="evenodd" d="M29.0835 24.5344C28.8301 24.2504 28.4197 24.2509 28.1669 24.5356C28.1669 24.5356 28.1666 24.5359 28.1663 24.5362C27.9137 24.8206 27.9141 25.2816 28.1675 25.5656C29.5631 27.13 33.7474 31.8205 35.143 33.3849C35.3963 33.6689 35.8067 33.6684 36.0593 33.384C36.0596 33.3837 36.0599 33.3834 36.0599 33.3834C36.3127 33.0987 36.3123 32.6377 36.0589 32.3537C34.6633 30.7893 30.4791 26.0988 29.0835 24.5344Z" fill="white"/>
<path fill-rule="evenodd" clip-rule="evenodd" d="M28.1803 32.3711C27.9276 32.656 27.9284 33.117 28.1819 33.4009C28.1819 33.4009 28.1822 33.4012 28.1825 33.4015C28.4358 33.685 28.8462 33.6843 29.0988 33.3994C30.4905 31.8306 34.663 27.1269 36.0546 25.5581C36.3073 25.2732 36.3065 24.8122 36.0532 24.5286C36.053 24.5283 36.0527 24.528 36.0527 24.528C35.7991 24.2441 35.3887 24.2449 35.1361 24.5298C33.7444 26.0986 29.5719 30.8023 28.1803 32.3711Z" fill="white"/>
</svg>
