<svg width="20" height="20" viewBox="0 0 20 20" fill="none" xmlns="http://www.w3.org/2000/svg">
<path d="M10 20C15.5228 20 20 15.5228 20 10C20 4.47715 15.5228 0 10 0C4.47715 0 0 4.47715 0 10C0 15.5228 4.47715 20 10 20Z" fill="white"/>
<path d="M9.99966 19.9986C8.68593 20.0023 7.38453 19.7452 6.17076 19.2426C4.957 18.7399 3.85498 18.0016 2.9285 17.0702C1.99708 16.1438 1.25867 15.042 0.755997 13.8282C0.253327 12.6145 -0.00361695 11.313 4.01687e-05 9.99934C-0.00369585 8.68564 0.253213 7.38418 0.755888 6.17044C1.25856 4.9567 1.99702 3.85488 2.9285 2.92848C3.85493 1.99702 4.95692 1.25844 6.1707 0.755777C7.38447 0.253118 8.68592 -0.00369572 9.99966 4.01809e-05C11.3134 -0.00369572 12.6148 0.253118 13.8286 0.755777C15.0424 1.25844 16.1444 1.99702 17.0708 2.92848C18.0023 3.85488 18.7408 4.9567 19.2434 6.17044C19.7461 7.38418 20.003 8.68564 19.9993 9.99934C20.0029 11.313 19.746 12.6145 19.2433 13.8282C18.7406 15.042 18.0022 16.1438 17.0708 17.0702C16.1443 18.0016 15.0423 18.7399 13.8286 19.2426C12.6148 19.7452 11.3134 20.0023 9.99966 19.9986ZM9.99966 1.42851C7.72722 1.43097 5.54855 2.33478 3.94169 3.94159C2.33483 5.5484 1.43101 7.72697 1.42856 9.99934C1.43101 12.2717 2.33483 14.4503 3.94169 16.0571C5.54855 17.6639 7.72722 18.5677 9.99966 18.5702C12.2721 18.5677 14.4508 17.6639 16.0576 16.0571C17.6645 14.4503 18.5683 12.2717 18.5708 9.99934C18.5683 7.72697 17.6645 5.5484 16.0576 3.94159C14.4508 2.33478 12.2721 1.43097 9.99966 1.42851Z" fill="#695AFF"/>
<path opacity="0.41" d="M9.28464 19.9742V18.5408C9.52273 18.5608 9.76081 18.5708 9.9989 18.5708C10.237 18.5708 10.4751 18.5611 10.7132 18.5415V19.9749C10.4751 19.9916 10.237 20 9.9989 20C9.76081 20 9.52273 19.9913 9.28464 19.9742ZM15.5315 16.5411C15.8953 16.2329 16.2328 15.8951 16.5408 15.5311L17.5572 16.5474C17.402 16.7264 17.2396 16.9004 17.0701 17.0695C16.9005 17.2385 16.7265 17.401 16.5479 17.5567L15.5315 16.5411ZM2.92916 17.0702C2.75964 16.9007 2.59704 16.7264 2.44133 16.5474L3.45773 15.5311C3.76592 15.8951 4.10373 16.2329 4.46769 16.5411L3.4513 17.5574C3.27226 17.4021 3.09774 17.2397 2.92774 17.0702H2.92916ZM18.5407 10.7135C18.5603 10.4755 18.57 10.2374 18.57 9.9993C18.57 9.76122 18.5603 9.52315 18.5407 9.28507H19.9742C19.9909 9.52315 19.9992 9.76122 19.9992 9.9993C19.9992 10.2374 19.9909 10.4755 19.9742 10.7135H18.5407ZM0.0250017 10.7135C0.00833563 10.4755 0 10.2374 0 9.9993C0 9.76122 0.00833563 9.52315 0.0250017 9.28507H1.45851C1.43899 9.52315 1.42924 9.76122 1.42924 9.9993C1.42924 10.2374 1.43899 10.4755 1.45851 10.7135H0.0250017ZM2.44133 3.45191C2.59704 3.27287 2.75964 3.09887 2.92916 2.92983C3.09868 2.7608 3.27298 2.59811 3.45202 2.44193L4.46769 3.45749C4.1038 3.76601 3.766 4.10406 3.45773 4.46816L2.44133 3.45191ZM15.5315 3.45749L16.5472 2.44193C16.7263 2.59764 16.9005 2.76032 17.0701 2.92983C17.2396 3.09934 17.402 3.27335 17.5572 3.45191L16.5408 4.46816C16.2326 4.10396 15.8955 3.76589 15.5315 3.45749ZM9.28464 0.0251099C9.52273 0.00844435 9.76081 0 9.9989 0C10.237 0 10.4751 0.00844435 10.7132 0.0251099V1.45707C10.4775 1.43755 10.2394 1.42777 9.9989 1.42777C9.75843 1.42777 9.52035 1.43777 9.28464 1.45777V0.0251099Z" fill="white"/>
<mask id="mask0_3815_55084" style="mask-type:alpha" maskUnits="userSpaceOnUse" x="1" y="1" width="18" height="18">
<path d="M10 19C14.9706 19 19 14.9706 19 10C19 5.02944 14.9706 1 10 1C5.02944 1 1 5.02944 1 10C1 14.9706 5.02944 19 10 19Z" fill="white"/>
</mask>
<g mask="url(#mask0_3815_55084)">
<path fill-rule="evenodd" clip-rule="evenodd" d="M10.3727 11.7667C13.8619 11.3383 16.5222 9.62135 16.3148 7.93181C16.1073 6.24227 13.1106 5.21994 9.62143 5.64835C6.13224 6.07677 3.47187 7.79371 3.67932 9.48325C3.88677 11.1728 6.88348 12.1951 10.3727 11.7667Z" fill="white"/>
<path fill-rule="evenodd" clip-rule="evenodd" d="M14.2568 5.83702C15.485 6.25601 16.371 6.96738 16.4872 7.91382C16.6035 8.86025 15.9158 9.76486 14.8255 10.4685C13.7242 11.1793 12.1609 11.7224 10.3964 11.939C8.63197 12.1557 6.98373 12.0069 5.74315 11.5837C4.51502 11.1647 3.62896 10.4533 3.51276 9.50689C3.39655 8.56045 4.08419 7.65585 5.17448 6.9522C6.27582 6.24142 7.8391 5.6983 9.60357 5.48165C11.368 5.265 13.0163 5.4138 14.2568 5.83702ZM14.1465 6.16031C12.9646 5.75709 11.3699 5.60892 9.6452 5.82069C7.92048 6.03246 6.40898 6.56202 5.3597 7.2392C4.29937 7.92352 3.76055 8.72216 3.85179 9.46526C3.94304 10.2084 4.65906 10.8529 5.85344 11.2604C7.03537 11.6636 8.63008 11.8118 10.3548 11.6L10.3756 11.7695L10.3548 11.6C12.0795 11.3883 13.591 10.8587 14.6403 10.1815C15.7006 9.49719 16.2395 8.69855 16.1482 7.95545C16.057 7.21235 15.3409 6.56778 14.1465 6.16031Z" fill="#979797"/>
<path fill-rule="evenodd" clip-rule="evenodd" d="M10.3084 11.2906C13.5854 10.8882 16.1007 9.41148 15.9264 7.99215C15.7521 6.57283 12.9543 5.74842 9.67732 6.15079C6.40031 6.55315 3.88504 8.02992 4.05932 9.44925C4.23359 10.8686 7.0314 11.693 10.3084 11.2906Z" fill="#000002"/>
<path fill-rule="evenodd" clip-rule="evenodd" d="M10.1257 15.2605C11.9205 15.386 13.5907 13.3479 14.3165 10.4227C14.3332 10.3555 14.2615 10.4318 14.1326 10.4924C13.9095 10.5972 13.4876 10.7773 12.8567 10.967C11.9937 11.2265 10.7648 11.4636 10.3469 11.5242C9.91407 11.5869 9.03854 11.6109 8.28485 11.6055C7.84078 11.6023 7.50747 11.6257 7.26407 11.5928C7.09438 11.5698 6.93032 11.4477 6.96323 11.5717C7.52831 13.7015 8.68382 15.1596 10.1257 15.2605Z" fill="#6758FF"/>
<path fill-rule="evenodd" clip-rule="evenodd" d="M11.5825 13.9898C12.5749 13.7789 13.0496 12.5267 13.0065 12.324C12.9634 12.1212 12.4032 12.9715 11.4109 13.1824C10.4185 13.3933 9.38594 13.4009 9.42904 13.6036C9.45622 13.7315 10.0393 14.0066 10.6845 14.0287C11.0625 14.0417 11.2159 14.0677 11.5825 13.9898Z" fill="#FF7FA7"/>
<g filter="url(#filter0_f_3815_55084)">
<path fill-rule="evenodd" clip-rule="evenodd" d="M10.2311 10.5629C12.8169 10.5629 15.3062 12.6926 15.3062 7.92386C15.3062 3.1551 12.445 6.79671 9.85916 6.79671C7.2733 6.79671 5.25 5.30173 5.25 10.0705C5.25 14.8392 7.64524 10.5629 10.2311 10.5629Z" fill="#FFD5E2" fill-opacity="0.101812"/>
</g>
</g>
<defs>
<filter id="filter0_f_3815_55084" x="-0.704631" y="-0.487834" width="21.9659" height="18.7686" filterUnits="userSpaceOnUse" color-interpolation-filters="sRGB">
<feFlood flood-opacity="0" result="BackgroundImageFix"/>
<feBlend mode="normal" in="SourceGraphic" in2="BackgroundImageFix" result="shape"/>
<feGaussianBlur stdDeviation="2.97732" result="effect1_foregroundBlur_3815_55084"/>
</filter>
</defs>
</svg>
