<svg width="32" height="32" viewBox="0 0 32 32" fill="none" xmlns="http://www.w3.org/2000/svg">
<path d="M31.75 16C31.75 24.6985 24.6985 31.75 16 31.75C7.30151 31.75 0.25 24.6985 0.25 16C0.25 7.30151 7.30151 0.25 16 0.25C24.6985 0.25 31.75 7.30151 31.75 16Z" fill="url(#paint0_linear_3804_54923)" stroke="white" stroke-width="0.5"/>
<path fill-rule="evenodd" clip-rule="evenodd" d="M16.4413 19.4176C22.2014 18.7104 26.5931 15.876 26.2507 13.0869C25.9082 10.2978 20.9611 8.61008 15.2012 9.31732C9.44112 10.0246 5.04933 12.8589 5.39179 15.6481C5.73425 18.4372 10.6813 20.1249 16.4413 19.4176Z" fill="white"/>
<path fill-rule="evenodd" clip-rule="evenodd" d="M22.8494 9.62482C24.8768 10.3165 26.3396 11.4908 26.5314 13.0532C26.7233 14.6156 25.5881 16.109 23.7882 17.2706C21.9701 18.444 19.3894 19.3406 16.4766 19.6982C13.5638 20.0558 10.8428 19.8102 8.79484 19.1116C6.76741 18.4199 5.30469 17.2455 5.11285 15.6831C4.92101 14.1207 6.05619 12.6274 7.85606 11.4658C9.67418 10.2924 12.2549 9.39582 15.1677 9.03817C18.0805 8.68052 20.8014 8.92615 22.8494 9.62482ZM22.6674 10.1585C20.7162 9.49287 18.0836 9.24827 15.2364 9.59786C12.3892 9.94745 9.89401 10.8217 8.16183 11.9396C6.41142 13.0693 5.52192 14.3877 5.67255 15.6144C5.82317 16.8411 7.0052 17.9052 8.97691 18.5779C10.9281 19.2435 13.5606 19.4881 16.4078 19.1385L16.4422 19.4183L16.4079 19.1385C19.2551 18.7889 21.7503 17.9147 23.4825 16.7968C25.2329 15.6671 26.1224 14.3487 25.9717 13.122C25.8211 11.8952 24.6391 10.8312 22.6674 10.1585Z" fill="#979797"/>
<path fill-rule="evenodd" clip-rule="evenodd" d="M16.3341 18.624C21.7439 17.9597 25.8962 15.5218 25.6085 13.1788C25.3207 10.8357 20.7021 9.47478 15.2923 10.139C9.88255 10.8032 5.7303 13.2411 6.018 15.5842C6.30568 17.9272 10.9244 19.2882 16.3341 18.624Z" fill="#000002"/>
<path fill-rule="evenodd" clip-rule="evenodd" d="M16.0285 25.1682C18.9913 25.3754 21.7485 22.011 22.9468 17.1819C22.9743 17.0709 22.8559 17.197 22.6431 17.297C22.2748 17.4701 21.5783 17.7674 20.5369 18.0805C19.1121 18.5089 17.0835 18.9004 16.3936 19.0003C15.6791 19.1038 14.2338 19.1434 12.9896 19.1345C12.2565 19.1292 11.7062 19.168 11.3044 19.1135C11.0243 19.0756 10.7535 18.8741 10.8078 19.0788C11.7406 22.5946 13.6482 25.0018 16.0285 25.1682Z" fill="#6758FF"/>
<path fill-rule="evenodd" clip-rule="evenodd" d="M18.4302 23.0746C20.0684 22.7264 20.8521 20.6594 20.7809 20.3246C20.7098 19.9899 19.785 21.3935 18.1469 21.7417C16.5086 22.0899 14.8041 22.1024 14.8752 22.4371C14.9201 22.6482 15.8826 23.1024 16.9478 23.1389C17.5718 23.1603 17.825 23.2033 18.4302 23.0746Z" fill="#FF7FA7"/>
<g filter="url(#filter0_f_3804_54923)">
<path fill-rule="evenodd" clip-rule="evenodd" d="M16.2053 17.4206C20.4741 17.4206 24.5835 20.9363 24.5835 13.064C24.5835 5.19162 19.8601 11.2033 15.5913 11.2033C11.3225 11.2033 7.98242 8.73532 7.98242 16.6077C7.98242 24.48 11.9365 17.4206 16.2053 17.4206Z" fill="#FFD5E2" fill-opacity="0.101812"/>
</g>
<g filter="url(#filter1_f_3804_54923)">
<path fill-rule="evenodd" clip-rule="evenodd" d="M24.6475 10.6602C24.7916 11.2779 24.8661 12.0685 24.8661 13.0644C24.8661 15.0457 24.6097 16.3642 24.1191 17.208C23.6116 18.0811 22.8704 18.4186 22.0148 18.4762C21.2019 18.5309 20.2646 18.3344 19.3098 18.1342L19.2581 18.1233C18.2684 17.9159 17.2393 17.703 16.206 17.703C15.2123 17.703 14.2166 18.1152 13.2571 18.6476C12.8052 18.8984 12.3694 19.171 11.9497 19.4337C11.9257 19.4487 11.9017 19.4637 11.8778 19.4786C11.4396 19.7527 11.0155 20.016 10.6225 20.2176C10.2327 20.4175 9.84699 20.5711 9.4861 20.6055C9.11 20.6414 8.75473 20.5472 8.46652 20.2539C8.19254 19.975 8.00632 19.5429 7.88531 18.9606C7.76331 18.3736 7.70117 17.6014 7.70117 16.6081C7.70117 14.628 7.90998 13.2596 8.31305 12.3303C8.7249 11.3808 9.34117 10.8887 10.1137 10.6815C10.8576 10.482 11.7271 10.5534 12.6354 10.6611C12.7973 10.6803 12.961 10.7008 13.1265 10.7215C13.9075 10.8191 14.7292 10.9218 15.592 10.9218C16.5992 10.9218 17.6506 10.5659 18.6882 10.1277C19.0087 9.99228 19.331 9.84743 19.6495 9.70425C20.3378 9.39481 21.0087 9.09321 21.6072 8.91207C22.4852 8.64636 23.3579 8.59072 23.9851 9.2597C24.2858 9.58043 24.5035 10.0436 24.6475 10.6602ZM18.9076 10.6471C17.859 11.09 16.7192 11.4857 15.592 11.4857C14.6907 11.4857 13.8277 11.3776 13.046 11.2798C12.8833 11.2594 12.7242 11.2395 12.569 11.2211C11.6505 11.1121 10.8846 11.0585 10.2598 11.2261C9.66374 11.386 9.17818 11.7529 8.83037 12.5547C8.47377 13.3769 8.26507 14.6521 8.26507 16.6081C8.26507 17.5829 8.32649 18.3122 8.43741 18.8459C8.54932 19.3844 8.70536 19.6924 8.86878 19.8587C9.01797 20.0106 9.19523 20.0668 9.43258 20.0442C9.68513 20.0201 9.99383 19.9063 10.3651 19.7159C10.7331 19.5271 11.1368 19.277 11.5788 19.0005C11.6036 18.985 11.6286 18.9694 11.6536 18.9537C12.0708 18.6927 12.5182 18.4128 12.9835 18.1545C13.9659 17.6094 15.0653 17.1391 16.206 17.1391C17.3071 17.1391 18.3925 17.3657 19.3738 17.5714C20.3723 17.7807 21.2436 17.9629 21.9769 17.9136C22.6823 17.8661 23.2353 17.6064 23.6316 16.9246C24.045 16.2135 24.3022 15.0193 24.3022 13.0644C24.3022 12.0923 24.2291 11.3487 24.0983 10.7883C23.9672 10.2268 23.7826 9.86811 23.5738 9.64538C23.1819 9.22745 22.607 9.19864 21.7706 9.45179C21.207 9.62234 20.593 9.89859 19.9254 10.1989C19.5991 10.3457 19.2599 10.4983 18.9076 10.6471Z" fill="#979797" fill-opacity="0.101812"/>
</g>
<defs>
<filter id="filter0_f_3804_54923" x="2.02779" y="3.05318" width="28.5108" height="23.2315" filterUnits="userSpaceOnUse" color-interpolation-filters="sRGB">
<feFlood flood-opacity="0" result="BackgroundImageFix"/>
<feBlend mode="normal" in="SourceGraphic" in2="BackgroundImageFix" result="shape"/>
<feGaussianBlur stdDeviation="2.97732" result="effect1_foregroundBlur_3804_54923"/>
</filter>
<filter id="filter1_f_3804_54923" x="1.74654" y="2.77193" width="29.0733" height="23.796" filterUnits="userSpaceOnUse" color-interpolation-filters="sRGB">
<feFlood flood-opacity="0" result="BackgroundImageFix"/>
<feBlend mode="normal" in="SourceGraphic" in2="BackgroundImageFix" result="shape"/>
<feGaussianBlur stdDeviation="2.97732" result="effect1_foregroundBlur_3804_54923"/>
</filter>
<linearGradient id="paint0_linear_3804_54923" x1="16" y1="0" x2="16" y2="32" gradientUnits="userSpaceOnUse">
<stop stop-color="#EDEDED"/>
<stop offset="1" stop-color="#E5E5E5"/>
</linearGradient>
</defs>
</svg>
