<svg width="64" height="64" viewBox="0 0 64 64" fill="none" xmlns="http://www.w3.org/2000/svg">
<circle cx="32" cy="32" r="32" fill="url(#paint0_linear_18_1471)"/>
<path d="M34.0921 28.8663L45.0803 18.0886L40.9123 14L32.0081 22.7334L23.1038 14L18.934 18.0886L29.9231 28.8663C30.4994 29.4312 31.2537 29.7137 32.0081 29.7137C32.7624 29.7137 33.5167 29.4312 34.0921 28.8663ZM50 40.3793L41.0957 31.6468L49.9991 22.9134L45.8311 18.8248L34.8428 29.6025C34.5692 29.8701 34.3521 30.1886 34.2039 30.5395C34.0557 30.8903 33.9794 31.2667 33.9794 31.6468C33.9794 32.0269 34.0557 32.4032 34.2039 32.7541C34.3521 33.105 34.5692 33.4234 34.8428 33.6911L45.8311 44.4688L50 40.3793ZM31.9928 40.5743L40.8962 49.3077L45.066 45.2191L34.0769 34.4414C33.5225 33.899 32.7732 33.5946 31.9924 33.5946C31.2115 33.5946 30.4623 33.899 29.9079 34.4414L18.9197 45.2191L23.0877 49.3077L31.9928 40.5743ZM29.1581 33.7052C29.4311 33.4373 29.6477 33.1188 29.7956 32.7681C29.9434 32.4173 30.0195 32.0412 30.0195 31.6613C30.0195 31.2815 29.9434 30.9054 29.7956 30.5546C29.6477 30.2038 29.4311 29.8854 29.1581 29.6175L18.1698 18.8398L14 22.9284L22.9051 31.6609L14.0009 40.3943L18.1689 44.4829L29.1581 33.7052Z" fill="white"/>
<defs>
<linearGradient id="paint0_linear_18_1471" x1="12.2553" y1="7.14894" x2="54.8085" y2="51.4043" gradientUnits="userSpaceOnUse">
<stop stop-color="#898989"/>
<stop offset="0.322917" stop-color="#575757"/>
<stop offset="0.660048" stop-color="#1D1D1D"/>
</linearGradient>
</defs>
</svg>
