<svg width="64" height="64" viewBox="0 0 64 64" fill="none" xmlns="http://www.w3.org/2000/svg">
<circle cx="32" cy="32" r="32" fill="url(#paint0_linear_1748_21864)"/>
<path fill-rule="evenodd" clip-rule="evenodd" d="M31.944 54C38.4795 54 44.3513 51.1646 48.3901 46.6598C46.5113 45.0311 43.68 44.9322 41.6798 46.5419L41.2977 46.8495C37.6356 49.797 32.2993 49.3618 29.1659 45.8599C27.4569 43.95 24.5301 43.755 22.5817 45.4212L18.1761 49.1885C21.9494 52.1995 26.7359 54 31.944 54ZM39.0952 43.347C42.5833 40.5394 47.4862 40.6402 50.841 43.3516C52.8463 40.0375 54 36.1531 54 32.0001C54 27.3851 52.5755 23.1022 50.1412 19.5647C48.5718 19.2314 46.8708 19.6207 45.5795 20.7621L45.212 21.0869C41.6901 24.1999 36.3395 24.0107 33.0473 20.6569C31.2519 18.8277 28.3191 18.7676 26.4498 20.5218L21.323 25.3327L18.5027 22.3426L23.6294 17.5316C27.1311 14.2456 32.6249 14.3581 35.9884 17.7847C37.7457 19.5751 40.6021 19.6761 42.4822 18.0142L42.8498 17.6894C43.991 16.6806 45.3113 16.0006 46.6939 15.6429C42.7862 12.1349 37.615 10 31.944 10C20.7474 10 11.4995 18.3216 10.0775 29.1025C13.4783 27.4746 17.6732 28.101 20.4461 30.9334C22.1966 32.7214 25.0153 32.9101 26.9897 31.3716L29.8562 29.1378C33.4588 26.3305 38.5513 26.4664 41.9982 29.4618L47.5789 34.3117L44.8752 37.4071L39.2945 32.5573C37.3345 30.854 34.4387 30.7767 32.3902 32.373L29.5237 34.6068C25.8961 37.4336 20.7175 37.0869 17.5013 33.8017C15.6311 31.8914 12.5724 31.8247 10.6203 33.6518L10 34.2324C10.4642 38.8273 12.346 43.0051 15.2026 46.3237L19.9027 42.3044C23.5527 39.1831 29.0354 39.5484 32.2367 43.1262C33.9095 44.9956 36.7581 45.2279 38.713 43.6544L39.0952 43.347Z" fill="white"/>
<defs>
<linearGradient id="paint0_linear_1748_21864" x1="12.2553" y1="7.14894" x2="54.8085" y2="51.4043" gradientUnits="userSpaceOnUse">
<stop stop-color="#8A2A50"/>
<stop offset="0.322917" stop-color="#9E2E4A"/>
<stop offset="1" stop-color="#D7363B"/>
</linearGradient>
</defs>
</svg>
