<svg width="64" height="64" viewBox="0 0 64 64" fill="none" xmlns="http://www.w3.org/2000/svg">
<path d="M32 64C49.6731 64 64 49.6731 64 32C64 14.3269 49.6731 0 32 0C14.3269 0 0 14.3269 0 32C0 49.6731 14.3269 64 32 64Z" fill="url(#paint0_linear_477_11324)"/>
<path d="M27.1154 18.9098C19.5111 21.829 18.8145 29.3048 16.634 32.7962C14.4277 36.329 9.37318 38.2783 10.0644 40.0786C10.7556 41.879 15.8161 39.9453 19.8197 41.0941C23.7759 42.2291 29.2959 47.319 36.9002 44.3999C40.7741 42.913 43.5791 39.8522 44.869 36.2269C45.0078 35.8378 44.7483 35.4216 44.337 35.3832C44.0812 35.3592 43.8355 35.4931 43.7202 35.7225C42.5534 38.0465 40.5519 39.9603 37.9325 40.9656C33.6082 42.6254 28.8767 41.3223 25.9708 38.0537C25.3109 37.3114 24.7464 36.4665 24.3008 35.5327C24.1783 35.2757 24.0618 35.0145 23.9585 34.7442C23.8546 34.474 23.7663 34.202 23.6853 33.9287C25.9708 32.8634 28.6083 31.7351 31.5982 30.5875C34.53 29.4621 37.198 28.5493 39.5737 27.8191C41.1807 27.3255 42.6537 26.9147 43.9839 26.579C44.08 26.555 44.1748 26.531 44.2691 26.5076C44.4703 26.4577 44.6769 26.5652 44.7513 26.7586L44.7525 26.7622C44.7964 26.8769 44.8342 26.9922 44.875 27.1075C45.1381 27.8515 45.335 28.6034 45.4653 29.357C45.5224 29.6867 45.8827 29.8662 46.1782 29.7077C47.2699 29.1216 48.2685 28.5499 49.1609 27.9998C52.486 25.9521 54.3295 24.2154 53.9512 23.2312C53.5735 22.2463 51.0417 22.1899 47.2002 22.8925C45.9794 23.1159 44.6258 23.4161 43.1672 23.7878C42.915 23.8521 42.6597 23.9187 42.4015 23.9872C41.1741 24.3127 39.8793 24.6856 38.5312 25.103C36.024 25.8794 33.3343 26.8096 30.5576 27.8755C27.9597 28.873 25.4976 29.9071 23.2397 30.9376C23.212 26.564 25.8561 22.4295 30.1804 20.7696C32.7993 19.7644 35.5676 19.8467 37.9901 20.7937C38.2291 20.8873 38.5012 20.8225 38.6759 20.6333C38.9558 20.3301 38.8699 19.8473 38.5066 19.6503C35.1221 17.8205 30.9893 17.423 27.1154 18.9098Z" fill="white"/>
<defs>
<linearGradient id="paint0_linear_477_11324" x1="32" y1="0" x2="32" y2="64" gradientUnits="userSpaceOnUse">
<stop stop-color="#FA5539"/>
<stop offset="1" stop-color="#BD3134"/>
</linearGradient>
</defs>
</svg>
