<svg width="200" height="200" viewBox="0 0 200 200" fill="none" xmlns="http://www.w3.org/2000/svg">
<path d="M200 100C200 155.228 155.228 200 100 200C44.7715 200 0 155.228 0 100C0 44.7715 44.7715 0 100 0C155.228 0 200 44.7715 200 100Z" fill="url(#paint0_linear_2714_872)"/>
<path fill-rule="evenodd" clip-rule="evenodd" d="M46 99.2885C46 68.7523 70.7904 44 101.376 44H149.674C152.064 44 154 45.9319 154 48.3199V99.6965C154 130.233 129.21 154.985 98.6243 154.985H74.4811C73.9121 154.985 73.3487 154.873 72.8231 154.656C72.2975 154.439 71.82 154.121 71.418 153.719C71.0159 153.318 70.6972 152.842 70.48 152.318C70.2628 151.794 70.1514 151.232 70.1522 150.665V104.058C70.1522 84.3969 86.1192 68.4523 105.813 68.4523H126.579C126.863 68.4523 127.146 68.5083 127.409 68.617C127.672 68.7258 127.911 68.8851 128.112 69.086C128.314 69.2869 128.473 69.5254 128.582 69.7878C128.691 70.0502 128.746 70.3314 128.746 70.6153V78.9251C128.746 79.209 128.691 79.4901 128.582 79.7526C128.473 80.015 128.314 80.2534 128.112 80.4543C127.911 80.6552 127.672 80.8146 127.409 80.9233C127.146 81.032 126.863 81.088 126.579 81.088H105.816C95.4784 81.088 86.7122 87.9338 83.8193 97.3266H125.405C125.979 97.3266 126.531 97.5541 126.937 97.9592C127.344 98.3643 127.572 98.9136 127.572 99.4865V107.796C127.573 108.08 127.517 108.362 127.409 108.625C127.3 108.887 127.141 109.126 126.939 109.327C126.738 109.529 126.499 109.688 126.235 109.797C125.972 109.906 125.69 109.962 125.405 109.962H82.8078V142.361H98.6303C122.226 142.361 141.356 123.261 141.356 99.7025V56.6297H101.379C77.7865 56.6297 58.6556 75.7301 58.6556 99.2885V152.837C58.656 153.121 58.6002 153.402 58.4915 153.665C58.3827 153.927 58.2231 154.165 58.0218 154.366C57.8205 154.567 57.5814 154.727 57.3183 154.835C57.0551 154.944 56.773 155 56.4881 155H48.1675C47.8826 155 47.6005 154.944 47.3373 154.835C47.0742 154.727 46.8351 154.567 46.6338 154.366C46.4325 154.165 46.2729 153.927 46.1641 153.665C46.0554 153.402 45.9996 153.121 46 152.837V99.2885Z" fill="white"/>
<defs>
<linearGradient id="paint0_linear_2714_872" x1="100" y1="0" x2="100" y2="200" gradientUnits="userSpaceOnUse">
<stop stop-color="#454545"/>
<stop offset="1" stop-color="#191919"/>
<stop offset="1" stop-color="#191919"/>
</linearGradient>
</defs>
</svg>
