<svg width="64" height="64" viewBox="0 0 64 64" fill="none" xmlns="http://www.w3.org/2000/svg">
<circle cx="32" cy="32" r="32" fill="url(#paint0_linear_642_11983)"/>
<g clip-path="url(#clip0_642_11983)">
<path fill-rule="evenodd" clip-rule="evenodd" d="M31.9219 22.6667C33.6814 22.6667 35.3688 21.9643 36.613 20.714C37.8571 19.4638 38.5561 17.7681 38.5561 16H25.2878C25.2878 17.7681 25.9867 19.4638 27.2309 20.714C28.475 21.9643 30.1625 22.6667 31.9219 22.6667ZM16 38.6667V25.3333C17.7595 25.3333 19.4469 26.0357 20.691 27.2859C21.9352 28.5362 22.6341 30.2319 22.6341 32C22.6341 33.7681 21.9352 35.4638 20.691 36.7141C19.4469 37.9643 17.7595 38.6667 16 38.6667ZM31.9219 38.6667C35.5858 38.6667 38.5561 35.6819 38.5561 32C38.5561 28.3181 35.5858 25.3333 31.9219 25.3333C28.258 25.3333 25.2878 28.3181 25.2878 32C25.2878 35.6819 28.258 38.6667 31.9219 38.6667ZM41.2097 32C41.2097 33.7681 41.9086 35.4638 43.1528 36.7141C44.3969 37.9643 46.0843 38.6667 47.8438 38.6667V25.3333C46.0843 25.3333 44.3969 26.0357 43.1528 27.2859C41.9086 28.5362 41.2097 30.2319 41.2097 32ZM47.8438 16V22.6667C46.0843 22.6667 44.3969 21.9643 43.1528 20.714C41.9086 19.4638 41.2097 17.7681 41.2097 16H47.8438ZM16 22.6667C17.7595 22.6667 19.4469 21.9643 20.691 20.714C21.9352 19.4638 22.6341 17.7681 22.6341 16H16V22.6667ZM27.2309 43.2859C28.475 42.0357 30.1625 41.3333 31.9219 41.3333C33.6814 41.3333 35.3688 42.0357 36.613 43.2859C37.8571 44.5362 38.5561 46.2319 38.5561 48H25.2878C25.2878 46.2319 25.9867 44.5362 27.2309 43.2859ZM41.2097 48H47.8438V41.3333C46.0843 41.3333 44.3969 42.0357 43.1528 43.2859C41.9086 44.5362 41.2097 46.2319 41.2097 48ZM16 48V41.3333C17.7595 41.3333 19.4469 42.0357 20.691 43.2859C21.9352 44.5362 22.6341 46.2319 22.6341 48H16Z" fill="white"/>
</g>
<defs>
<linearGradient id="paint0_linear_642_11983" x1="12.2553" y1="7.14894" x2="54.8085" y2="51.4043" gradientUnits="userSpaceOnUse">
<stop stop-color="#B92B79"/>
<stop offset="0.322917" stop-color="#A42470"/>
<stop offset="1" stop-color="#400C2B"/>
</linearGradient>
<clipPath id="clip0_642_11983">
<rect width="32" height="32" fill="white" transform="translate(16 16)"/>
</clipPath>
</defs>
</svg>
