<svg width="32" height="32" viewBox="0 0 32 32" fill="none" xmlns="http://www.w3.org/2000/svg">
<path d="M31.75 16C31.75 24.6985 24.6985 31.75 16 31.75C7.30152 31.75 0.25 24.6985 0.25 16C0.25 7.30152 7.30152 0.25 16 0.25C24.6985 0.25 31.75 7.30152 31.75 16Z" fill="url(#paint0_linear_3402_63283)" stroke="white" stroke-width="0.5"/>
<path fill-rule="evenodd" clip-rule="evenodd" d="M26.0025 16.2983C26.0004 16.3659 25.9084 16.3838 25.8818 16.3215C25.8704 16.2946 25.8587 16.2676 25.8468 16.2406C25.8252 16.1913 25.8312 16.1339 25.8636 16.0907C25.8703 16.0819 25.8839 16.064 25.9002 16.0427C25.944 15.9855 26.0071 15.9941 26.0071 16.0575C26.0071 16.1408 26.0051 16.213 26.0025 16.2983ZM25.5182 14.9758C25.4436 15.1101 25.2524 15.1163 25.1696 14.9868C25.1567 14.9668 25.1438 14.9467 25.1307 14.9266C24.8323 14.4683 24.4888 14.0185 24.1052 13.5813C24.011 13.474 24.088 13.3055 24.2309 13.3054H24.2343C25.1307 13.3054 25.6007 13.5269 25.7441 13.7973C25.8638 14.0234 25.8271 14.4189 25.5182 14.9758ZM25.3178 19.6637C25.2698 19.7861 25.2194 19.9076 25.1665 20.028C25.1583 20.0446 25.1506 20.0614 25.142 20.0778C24.8121 20.7129 24.2584 21.213 23.5186 21.561C23.3526 21.639 23.171 21.4871 23.2204 21.3105C23.4661 20.4312 23.652 19.4777 23.7725 18.478C23.795 18.2916 23.8869 18.1205 24.029 17.9977C24.3332 17.7345 24.6173 17.4716 24.8787 17.2106L24.8815 17.2077C25.0102 17.0794 25.2295 17.1346 25.2819 17.3087C25.5402 18.167 25.5545 18.9665 25.3178 19.6637ZM23.3068 22.8382C23.2315 22.9186 23.1547 22.9981 23.0764 23.0764C22.94 23.2126 22.8004 23.3443 22.6578 23.4716C22.5678 23.5517 22.4317 23.4515 22.4826 23.3422C22.4971 23.311 22.5116 23.2796 22.5259 23.2479C22.5858 23.1157 22.6437 22.9801 22.7 22.842C22.7134 22.8094 22.7414 22.7851 22.7756 22.7764C22.9175 22.7404 23.0558 22.7006 23.1905 22.6572C23.2997 22.622 23.3852 22.7544 23.3068 22.8382ZM21.8299 22.0445C21.5312 22.0877 21.2172 22.1157 20.8886 22.1273C20.087 22.1553 19.2393 22.0862 18.3685 21.9258C18.2624 21.9063 18.242 21.7628 18.3382 21.7141C18.5282 21.618 18.7182 21.5197 18.9082 21.419C20.2405 20.7128 21.4837 19.9409 22.5719 19.1494C22.6535 19.0901 22.766 19.1601 22.7494 19.2597C22.5985 20.1667 22.3895 21.0206 22.1271 21.7957C22.0823 21.9277 21.9679 22.0245 21.8299 22.0445ZM21.5219 23.2529C20.8076 24.6578 19.9278 25.4467 19.075 25.4308C18.1482 25.4143 17.224 24.4491 16.5396 22.7828L16.5388 22.781C16.4953 22.6752 16.5453 22.5542 16.65 22.5086C16.6573 22.5054 16.6646 22.5023 16.6718 22.499C16.7168 22.4795 16.7672 22.476 16.8145 22.4893C18.0947 22.8486 19.3561 23.0361 20.538 23.0361C20.6664 23.0361 20.7939 23.0339 20.9204 23.0295C21.0685 23.0242 21.2142 23.0159 21.3573 23.0045C21.49 22.994 21.5824 23.1342 21.5219 23.2529ZM17.2918 25.9247C16.8671 25.9792 16.4361 26.0072 16.0008 26.0072C14.0559 26.0072 12.1956 25.456 10.5985 24.4275C10.4886 24.3566 10.5353 24.1861 10.6659 24.1801C10.6929 24.1789 10.7183 24.1775 10.7405 24.1761C11.1464 24.1497 11.5914 24.0903 12.0737 23.9974C13.0994 23.8001 14.2397 23.4616 15.4336 23.0058C15.5406 22.9649 15.6601 23.018 15.7037 23.124L15.7044 23.1258C16.1671 24.2524 16.7366 25.1036 17.376 25.645C17.4816 25.7346 17.4291 25.907 17.2918 25.9247ZM11.5053 18.9137C12.387 18.1957 13.4201 17.4793 14.5534 16.801C14.5777 18.2505 14.7367 19.6421 15.018 20.8991C14.5977 20.7199 14.1786 20.5225 13.7632 20.3067C12.9586 19.8886 12.2016 19.4202 11.5053 18.9137ZM8.7632 22.7975C8.55285 22.4006 8.82472 21.4813 10.2058 20.0841L10.2065 20.0834C10.3507 19.9377 10.3369 19.6986 10.1759 19.5718C10.1206 19.5283 10.0656 19.4844 10.0111 19.4404C9.87352 19.3292 9.67446 19.3395 9.54956 19.4645C9.52219 19.4919 9.50178 19.5125 9.4958 19.5187C8.80539 20.2274 8.32219 20.8833 8.05151 21.4734C7.97478 21.6405 7.74305 21.6586 7.6416 21.5052C6.57013 19.8854 5.99461 17.9875 5.99461 16.0008C5.99461 15.2906 6.06839 14.5917 6.21193 13.9127C6.23361 13.81 6.37852 13.8035 6.40893 13.9039C6.61654 14.5893 6.95443 15.2983 7.42134 16.0152C8.04984 16.9804 8.87868 17.9082 9.86087 18.7593C10.1961 19.0498 10.5502 19.3308 10.9195 19.6019C11.6681 20.1512 12.4815 20.6582 13.3469 21.1078C13.7306 21.3072 14.1042 21.4974 14.4868 21.6697C14.6998 21.7655 14.9422 21.773 15.1596 21.6876C15.3401 21.617 15.5218 21.5435 15.7045 21.4671C15.9033 21.3842 16.0111 21.1675 15.9585 20.9586C15.9519 20.9325 15.9467 20.9115 15.9437 20.8991C15.6424 19.6311 15.475 18.2037 15.4552 16.7086L15.4547 16.7089C15.4545 16.6911 15.4546 16.6731 15.4544 16.6551C15.4535 16.5734 15.454 16.4911 15.4525 16.4096C15.452 16.3836 15.4528 16.3395 15.4531 16.3134C15.4533 16.303 15.4531 16.2927 15.4531 16.2824L15.4535 16.2823C15.454 16.1887 15.4547 16.0952 15.4563 16.0013C15.4609 15.7449 15.4702 15.4903 15.4834 15.2377L15.4829 15.238C15.5758 13.4339 15.8817 11.7386 16.3685 10.3126C16.4135 10.1806 16.3431 10.0374 16.2112 9.99233C16.0826 9.94838 15.954 9.90639 15.8257 9.86616C15.6959 9.82545 15.5572 9.8955 15.5133 10.0243C14.9858 11.573 14.6603 13.4103 14.5734 15.3546C14.5623 15.6012 14.4281 15.8257 14.2157 15.9516C13.0642 16.634 12.0066 17.3575 11.093 18.0868C10.9027 18.2387 10.6308 18.233 10.4468 18.0733C9.53112 17.2794 8.76046 16.4171 8.17787 15.5225C7.03302 13.7645 6.76096 12.1084 7.41202 10.86C7.41379 10.8571 7.41536 10.854 7.41702 10.8512C7.50003 10.7134 7.58636 10.5776 7.67623 10.4435C8.42433 9.45331 9.81672 8.87946 11.6634 8.81461C11.7802 8.81049 11.8978 8.80843 12.0166 8.80843C13.1492 8.80843 14.3648 8.99533 15.6011 9.35206L15.6014 9.35177C15.6285 9.35962 15.6556 9.36776 15.6827 9.37571C15.7036 9.38189 15.7245 9.38768 15.7454 9.39396C16.0311 9.47931 16.3175 9.57399 16.6044 9.6772C16.6111 9.67956 16.6179 9.68201 16.6245 9.68436C16.6993 9.71135 16.774 9.73901 16.8486 9.76717C16.872 9.776 16.8954 9.78493 16.9188 9.79395C16.9412 9.80259 16.9637 9.81093 16.9863 9.81966L16.986 9.82005C17.5897 10.0538 18.193 10.3255 18.7888 10.6352C19.9419 11.2342 20.9973 11.9365 21.9158 12.707C20.1629 13.1085 18.1253 13.8832 16.0767 14.9277C15.9822 14.976 15.92 15.0709 15.914 15.1769C15.9068 15.3039 15.8974 15.5591 15.8907 15.762C15.8864 15.8894 16.0211 15.9738 16.134 15.9145L16.1352 15.9138C18.1635 14.8487 20.1878 14.0527 21.9262 13.632C22.2512 13.5534 22.4615 13.2413 22.4159 12.9102C22.3839 12.6788 22.3479 12.4511 22.3081 12.2274C22.2581 11.9464 22.1042 11.6951 21.8772 11.5223C21.063 10.902 20.1656 10.3331 19.205 9.83389C18.5577 9.49756 17.9009 9.20284 17.2426 8.95148C17.1018 8.89771 17.0415 8.73132 17.115 8.59975C17.7931 7.38661 18.5997 6.70719 19.3855 6.70719C19.3936 6.70719 19.4018 6.70719 19.4099 6.70739C20.3367 6.72397 21.261 7.68909 21.9454 9.3553C22.2918 10.1988 22.5602 11.1714 22.7437 12.2285C22.7427 12.2276 22.7417 12.2268 22.7409 12.2259C22.8191 12.677 22.8822 13.1433 22.929 13.6216C22.925 13.6241 22.9207 13.6264 22.9167 13.6289C22.9222 13.6345 22.928 13.6401 22.9335 13.6458C23.0112 14.4483 23.0439 15.284 23.0286 16.1368C23.019 16.6762 22.9903 17.2082 22.9437 17.7287C21.7037 18.7308 20.1705 19.7281 18.4853 20.6212C17.9315 20.9147 17.3777 21.188 16.8294 21.4395C16.8208 21.4434 16.8124 21.4473 16.8039 21.4512C16.762 21.4703 16.72 21.4897 16.6781 21.5087L16.6771 21.5084C16.2228 21.7139 15.7727 21.9041 15.3302 22.0777L15.3303 22.0781C15.3053 22.0879 15.2805 22.0973 15.2556 22.1071C15.2245 22.1192 15.1934 22.1312 15.1624 22.1432C15.0881 22.1716 15.0141 22.1997 14.9404 22.2272C14.92 22.2348 14.8996 22.2427 14.8793 22.2502C14.7898 22.2835 14.7007 22.3157 14.6119 22.3475C14.6008 22.3515 14.5897 22.3557 14.5787 22.3596L14.5783 22.3594C13.6299 22.6972 12.7264 22.9524 11.903 23.1108C9.91345 23.4939 8.97659 23.2 8.7632 22.7975ZM10.1922 7.85116C11.8762 6.64528 13.8884 5.99461 16.0008 5.99461C16.5584 5.99461 17.1088 6.04023 17.6481 6.12922C17.7925 6.15306 17.841 6.33741 17.7258 6.42777C17.2032 6.83748 16.7176 7.44371 16.2879 8.22987C16.183 8.42168 15.9606 8.51547 15.7503 8.45621C14.3266 8.05543 12.9258 7.86686 11.6317 7.91229C11.1543 7.92906 10.7022 7.97743 10.2774 8.05573C10.1581 8.0777 10.0936 7.92171 10.1922 7.85116ZM23.9275 15.1437C23.9246 15.029 24.0717 14.9801 24.1382 15.0735C24.22 15.1882 24.2988 15.3035 24.3742 15.4193C24.4745 15.5734 24.5678 15.7265 24.6545 15.8787C24.7086 15.9736 24.6956 16.0926 24.622 16.1732C24.5052 16.3015 24.3784 16.4342 24.2408 16.5717C24.1905 16.6219 24.1393 16.6721 24.0871 16.7224C24.0224 16.785 23.9138 16.7374 23.9173 16.6473C23.9237 16.4832 23.9284 16.3184 23.9313 16.1529C23.9374 15.8138 23.9359 15.4772 23.9275 15.1437ZM22.8898 8.74358C22.9527 8.80323 23.0149 8.86386 23.0764 8.92538C24.0406 9.88961 24.7833 11.0163 25.28 12.2434C25.3301 12.3671 25.225 12.4966 25.0937 12.473C24.8063 12.4214 24.4829 12.3983 24.1249 12.4043C23.8768 12.4084 23.6611 12.2346 23.6176 11.9903C23.423 10.8994 23.1417 9.89167 22.7805 9.01221C22.7599 8.96207 22.7391 8.91253 22.718 8.86347C22.6721 8.75643 22.8053 8.66333 22.8898 8.74358ZM26.6743 13.7319C26.2432 11.6837 25.2295 9.80171 23.7147 8.28687C21.6543 6.22645 18.9148 5.0918 16.0008 5.0918C13.0869 5.0918 10.3474 6.22645 8.28697 8.28687C7.78582 8.78802 7.3401 9.3295 6.95149 9.90364C6.83591 10.0575 6.73241 10.22 6.64038 10.39C5.63092 12.0674 5.0918 13.9927 5.0918 16.0008C5.0918 18.9148 6.22655 21.6543 8.28697 23.7147C10.3474 25.7751 13.0869 26.91 16.0008 26.91C18.9148 26.91 21.6543 25.7751 23.7147 23.7147C24.6872 22.7423 25.4531 21.6186 25.9912 20.3967C26.0569 20.2613 26.1143 20.1227 26.1637 19.9813C26.6534 18.7298 26.91 17.3851 26.91 16.0008C26.91 15.2389 26.8317 14.4892 26.6803 13.7602C26.6782 13.7508 26.6764 13.7413 26.6743 13.7319Z" fill="white"/>
<defs>
<linearGradient id="paint0_linear_3402_63283" x1="16" y1="0" x2="16" y2="32" gradientUnits="userSpaceOnUse">
<stop stop-color="#CB32D5"/>
<stop offset="0.0001" stop-color="#7B2BF9"/>
<stop offset="1" stop-color="#7B2BF9"/>
</linearGradient>
</defs>
</svg>
