<svg width="64" height="64" viewBox="0 0 64 64" fill="none" xmlns="http://www.w3.org/2000/svg">
<circle cx="32" cy="32" r="32" fill="url(#paint0_linear_1162_21878)"/>
<g clip-path="url(#clip0_1162_21878)">
<path d="M41.5366 24.2565L44.7579 20.6318C50.6534 26.9367 50.6658 36.453 44.7828 42.7578L41.4371 38.9088C37.7306 34.6465 37.7679 28.4716 41.5241 24.2565H41.5366ZM23.6637 22.3438C28.1163 25.9095 34.6088 25.945 39.0988 22.4265L47.5564 15.8147C47.9046 15.5431 47.7056 15 47.2454 15H31.5989C27.395 15 23.1786 16.4286 19.8453 19.2741L23.6762 22.3438H23.6637ZM39.5092 41.2229C35.0566 37.6572 28.5641 37.6219 24.0741 41.1403L15.8155 47.5987C15.4673 47.8702 15.6663 48.4133 16.1265 48.4133H31.5989C35.7655 48.4133 39.9446 47.0083 43.2654 44.21L39.5217 41.2111L39.5092 41.2229ZM21.7358 24.6462L18.3279 20.7263C12.4947 27.0666 12.5444 36.5828 18.4772 42.8523L21.6363 39.2985C25.3925 35.0715 25.4298 28.9084 21.7234 24.6462H21.7358Z" fill="white"/>
</g>
<defs>
<linearGradient id="paint0_linear_1162_21878" x1="12.2553" y1="7.14894" x2="54.8085" y2="51.4043" gradientUnits="userSpaceOnUse">
<stop stop-color="#AFA7FF"/>
<stop offset="0.296875" stop-color="#5E4EFF"/>
<stop offset="0.666667" stop-color="#000076"/>
</linearGradient>
<clipPath id="clip0_1162_21878">
<rect width="36" height="34" fill="white" transform="translate(14 15)"/>
</clipPath>
</defs>
</svg>
