<svg width="64" height="64" viewBox="0 0 64 64" fill="none" xmlns="http://www.w3.org/2000/svg">
<circle cx="32" cy="32" r="32" fill="#4C5460"/>
<g clip-path="url(#clip0_1278_21856)">
<path d="M41.5368 24.2565L44.7582 20.6318C50.6536 26.9367 50.6661 36.453 44.783 42.7578L41.4373 38.9088C37.7309 34.6465 37.7682 28.4716 41.5244 24.2565H41.5368ZM23.6639 22.3438C28.1166 25.9095 34.609 25.945 39.0991 22.4265L47.5567 15.8147C47.9049 15.5431 47.7058 15 47.2457 15H31.5992C27.3952 15 23.1789 16.4286 19.8456 19.2741L23.6764 22.3438H23.6639ZM39.5095 41.2229C35.0568 37.6572 28.5644 37.6219 24.0743 41.1403L15.8158 47.5987C15.4675 47.8702 15.6665 48.4133 16.1267 48.4133H31.5992C35.7657 48.4133 39.9448 47.0083 43.2657 44.21L39.5219 41.2111L39.5095 41.2229ZM21.7361 24.6462L18.3282 20.7263C12.4949 27.0666 12.5447 36.5828 18.4774 42.8523L21.6366 39.2985C25.3928 35.0715 25.4301 28.9084 21.7237 24.6462H21.7361Z" fill="white"/>
</g>
<defs>
<clipPath id="clip0_1278_21856">
<rect width="36" height="34" fill="white" transform="translate(14 15)"/>
</clipPath>
</defs>
</svg>
