<svg width="32" height="32" viewBox="0 0 32 32" fill="none" xmlns="http://www.w3.org/2000/svg">
<path d="M16 32C24.8366 32 32 24.8366 32 16C32 7.16344 24.8366 0 16 0C7.16344 0 0 7.16344 0 16C0 24.8366 7.16344 32 16 32Z" fill="url(#paint0_linear_1453_34287)"/>
<path d="M16 31.75C24.6985 31.75 31.75 24.6985 31.75 16C31.75 7.30152 24.6985 0.25 16 0.25C7.30152 0.25 0.25 7.30152 0.25 16C0.25 24.6985 7.30152 31.75 16 31.75Z" stroke="white" stroke-width="0.5"/>
<circle cx="16.0017" cy="8.10519" r="2.10519" fill="white"/>
<circle cx="8.10519" cy="16.0017" r="2.10519" fill="white"/>
<circle cx="23.8962" cy="16.0017" r="2.10519" fill="white"/>
<circle cx="15.9983" cy="23.8948" r="2.10519" transform="rotate(180 15.9983 23.8948)" fill="white"/>
<circle cx="10.472" cy="9.95051" r="1.31575" fill="white"/>
<circle cx="21.528" cy="22.0495" r="1.31575" transform="rotate(180 21.528 22.0495)" fill="white"/>
<circle cx="21.5247" cy="9.95051" r="1.31575" fill="white"/>
<circle cx="10.4753" cy="22.0495" r="1.31575" transform="rotate(180 10.4753 22.0495)" fill="white"/>
<circle cx="15.9983" cy="16.0017" r="2.10519" transform="rotate(90 15.9983 16.0017)" fill="white"/>
<defs>
<linearGradient id="paint0_linear_1453_34287" x1="16" y1="0" x2="16" y2="32" gradientUnits="userSpaceOnUse">
<stop stop-color="#3286FF"/>
<stop offset="1" stop-color="#0F2478"/>
</linearGradient>
</defs>
</svg>
