<svg width="64" height="64" viewBox="0 0 64 64" fill="none" xmlns="http://www.w3.org/2000/svg">
<path d="M64 32C64 49.6731 49.6731 64 32 64C14.3269 64 0 49.6731 0 32C0 14.3269 14.3269 0 32 0C49.6731 0 64 14.3269 64 32Z" fill="#4C5460"/>
<path d="M23.8426 28.6499L31.9982 20.4943L40.1587 28.6548L44.9059 23.9076L31.9982 11L19.0955 23.9028L23.8426 28.6499Z" fill="white"/>
<path d="M20.4933 31.9972L15.7466 27.2505L10.9999 31.9972L15.7466 36.7439L20.4933 31.9972Z" fill="white"/>
<path d="M23.8449 35.3593L32.0005 43.515L40.1634 35.3593L44.9129 40.1017L32.0053 53.0093L19.1025 40.1065L23.8449 35.3593Z" fill="white"/>
<path d="M48.2533 36.7497L53 32.003L48.2533 27.2563L43.5066 32.003L48.2533 36.7497Z" fill="white"/>
<path d="M36.8165 32.0017L32.0015 27.1844L28.443 30.7429L28.0338 31.152L27.1914 31.9945L32.0039 36.807L36.8189 31.9896L36.8165 32.0017Z" fill="white"/>
</svg>
