<svg width="64" height="64" viewBox="0 0 64 64" fill="none" xmlns="http://www.w3.org/2000/svg">
<circle cx="32" cy="32" r="32" fill="url(#paint0_linear_1305_21917)"/>
<path d="M20.9481 17.5863L32 11L43.0519 17.5863L38.9887 20.0195L32 15.8663L25.0113 20.0195L20.9481 17.5863ZM43.0519 25.8927L38.9887 23.4595L32 27.6127L25.0113 23.4595L20.9481 25.8927V30.759L27.9368 34.9121V43.2185L32 45.6517L36.0633 43.2185V34.9121L43.0519 30.759V25.8927ZM43.0519 39.0654V34.199L38.9887 36.6321V41.4985L43.0519 39.0654ZM45.9367 40.7854L38.9481 44.9385V49.8048L50 43.2185V30.0458L45.9367 32.479V40.7854ZM41.8736 21.7395L45.9367 24.1727V29.039L50 26.6058V21.7395L45.9367 19.3063L41.8736 21.7395ZM27.9368 46.7006V51.5669L32 54L36.0633 51.5669V46.7006L32 49.1337L27.9368 46.7006ZM20.9481 39.0654L25.0113 41.4985V36.6321L20.9481 34.199V39.0654ZM27.9368 21.7395L32 24.1727L36.0633 21.7395L32 19.3063L27.9368 21.7395ZM18.0632 24.1727L22.1264 21.7395L18.0632 19.3063L14 21.7395V26.6058L18.0632 29.039V24.1727ZM18.0632 32.479L14 30.0458V43.2185L25.0519 49.8048V44.9385L18.0632 40.7854V32.479Z" fill="white"/>
<defs>
<linearGradient id="paint0_linear_1305_21917" x1="12.2553" y1="7.14894" x2="54.8085" y2="51.4043" gradientUnits="userSpaceOnUse">
<stop stop-color="#FFD552"/>
<stop offset="0.322917" stop-color="#F0B90B"/>
<stop offset="1" stop-color="#9A7501"/>
</linearGradient>
</defs>
</svg>
