<svg width="32" height="32" viewBox="0 0 32 32" fill="none" xmlns="http://www.w3.org/2000/svg">
<g clip-path="url(#clip0_613_725)">
<path d="M16 32C24.8365 32 32 24.8365 32 16C32 7.16344 24.8365 0 16 0C7.16344 0 0 7.16344 0 16C0 24.8365 7.16344 32 16 32Z" fill="url(#paint0_linear_613_725)"/>
<path fill-rule="evenodd" clip-rule="evenodd" d="M15.9974 7.21808L7.21612 15.9993L15.9998 24.783L24.7811 16.0019L15.9974 7.21808ZM5.71484 15.9991L16 26.2843L26.2824 16.002L15.9972 5.7168L5.71484 15.9991Z" fill="white"/>
<path fill-rule="evenodd" clip-rule="evenodd" d="M11.2427 10.498L14.847 14.1024L14.0965 14.8529L10.4922 11.2486L11.2427 10.498Z" fill="white"/>
<path fill-rule="evenodd" clip-rule="evenodd" d="M21.5292 11.2449L12.7351 20.0388L11.9844 19.2881L20.7783 10.4941L21.5292 11.2449Z" fill="white"/>
<path fill-rule="evenodd" clip-rule="evenodd" d="M20.5477 21.3002L15.6406 16.3932L16.3911 15.6426L21.2981 20.5497L20.5477 21.3002Z" fill="white"/>
<path d="M16 31.75C24.698 31.75 31.75 24.698 31.75 16C31.75 7.302 24.698 0.25 16 0.25C7.302 0.25 0.25 7.302 0.25 16C0.25 24.698 7.302 31.75 16 31.75Z" stroke="white" stroke-width="0.5"/>
</g>
<defs>
<linearGradient id="paint0_linear_613_725" x1="16" y1="0" x2="16" y2="32" gradientUnits="userSpaceOnUse">
<stop stop-color="#485F99"/>
<stop offset="1" stop-color="#0B1327"/>
</linearGradient>
<clipPath id="clip0_613_725">
<rect width="32" height="32" fill="white"/>
</clipPath>
</defs>
</svg>
