<svg width="32" height="32" viewBox="0 0 32 32" fill="none" xmlns="http://www.w3.org/2000/svg">
<circle cx="16" cy="16" r="16" fill="url(#paint0_linear_3514_64198)"/>
<circle cx="16" cy="16" r="15.75" stroke="white" stroke-width="0.5"/>
<path d="M16.3799 25C14.3217 25 12.6349 24.519 11.3194 23.5571C10.1112 22.6739 9.34144 21.4427 9.0102 19.864C8.9596 19.6228 9.10242 19.3877 9.32423 19.3258L12.1718 18.5309C12.4175 18.4623 12.6641 18.6314 12.7327 18.8952C12.8815 19.4675 13.0894 19.9337 13.3563 20.2939C13.717 20.7519 14.152 21.0839 14.6612 21.2901C15.1918 21.4732 15.7646 21.5649 16.3799 21.5649C17.3135 21.5649 18.0031 21.393 18.4488 21.0496C18.8943 20.6831 19.1171 20.2366 19.1171 19.7098C19.1171 19.1832 18.9049 18.7824 18.4806 18.5076C18.0562 18.2099 17.3772 17.9694 16.4436 17.7862L15.5525 17.6145C14.4491 17.3854 13.4412 17.0763 12.5288 16.687C11.6164 16.2749 10.8844 15.7138 10.3327 15.0037C9.78106 14.2938 9.50524 13.3779 9.50524 12.2557C9.50524 10.561 10.0781 9.2672 11.2239 8.374C12.3697 7.45799 13.8762 7 15.7434 7C17.5045 7 18.9686 7.42365 20.1356 8.27095C21.1743 9.02516 21.8937 9.98793 22.2936 11.1594C22.3767 11.4027 22.2437 11.664 22.014 11.7402L19.1662 12.686C18.9177 12.7685 18.6604 12.6011 18.576 12.3356C18.3822 11.7262 18.0746 11.2759 17.653 10.9847C17.1438 10.6183 16.5073 10.4351 15.7434 10.4351C14.9795 10.4351 14.396 10.584 13.9929 10.8816C13.5897 11.1564 13.3882 11.5458 13.3882 12.0496C13.3882 12.5992 13.6003 13.0114 14.0247 13.2862C14.4491 13.5381 15.0219 13.7329 15.7434 13.8703L16.6346 14.042C17.8228 14.2709 18.8943 14.5801 19.8491 14.9694C20.8252 15.3359 21.589 15.8741 22.1407 16.584C22.7136 17.2709 23 18.2099 23 19.4007C23 21.187 22.3953 22.5725 21.1859 23.5571C19.9976 24.519 18.3957 25 16.3799 25Z" fill="white"/>
<defs>
<linearGradient id="paint0_linear_3514_64198" x1="16" y1="0" x2="16" y2="32" gradientUnits="userSpaceOnUse">
<stop stop-color="#FF59A9"/>
<stop offset="1" stop-color="#E91179"/>
</linearGradient>
</defs>
</svg>
