<svg width="32" height="32" viewBox="0 0 32 32" fill="none" xmlns="http://www.w3.org/2000/svg">
<circle cx="16" cy="16" r="15.75" fill="url(#paint0_linear_7338_33789)" stroke="white" stroke-width="0.5"/>
<path d="M23.7177 21.1423C21.9199 21.1423 20.4654 19.6849 20.4654 17.8896V13.0188H24.6601V10.1857H20.4654V5.5L17.2512 7.21632V10.1857H11.1554C6.90615 10.1857 5.78937 15.3071 9.05801 17.214L12.3811 19.4478C13.1165 19.9927 12.8168 21.1368 11.7817 21.1368H7.26033V23.9972H11.7819C16.0584 23.9972 17.1478 18.8758 13.8793 16.9688L10.5834 14.735C9.84796 14.1901 10.1204 13.0188 11.1555 13.0188H17.2514V17.9278C17.2514 21.6327 19.8117 24 23.6796 24H24.6602V21.1423H23.7177Z" fill="white"/>
<defs>
<linearGradient id="paint0_linear_7338_33789" x1="16" y1="0" x2="16" y2="32" gradientUnits="userSpaceOnUse">
<stop stop-color="#FF59A9"/>
<stop offset="1" stop-color="#E91179"/>
</linearGradient>
</defs>
</svg>
