<svg width="64" height="64" viewBox="0 0 64 64" fill="none" xmlns="http://www.w3.org/2000/svg">
<circle cx="32" cy="32" r="32" fill="url(#paint0_linear_3929_2107)"/>
<path fill-rule="evenodd" clip-rule="evenodd" d="M15.4197 31.9349C15.4197 22.5361 23.0314 14.9175 32.4224 14.9175H47.2521C47.986 14.9175 48.5803 15.5121 48.5803 16.2471V32.0605C48.5803 41.4593 40.9686 49.078 31.5776 49.078H24.1646C23.9899 49.078 23.8169 49.0436 23.6555 48.9767C23.4941 48.9099 23.3475 48.8119 23.2241 48.6884C23.1006 48.5649 23.0028 48.4183 22.9361 48.257C22.8694 48.0957 22.8352 47.9229 22.8354 47.7483V33.4031C22.8354 27.3514 27.738 22.4438 33.7848 22.4438H40.1608C40.2482 22.4438 40.3348 22.461 40.4157 22.4944C40.4965 22.5279 40.5699 22.577 40.6317 22.6388C40.6935 22.7006 40.7425 22.774 40.7759 22.8548C40.8093 22.9356 40.8264 23.0221 40.8263 23.1095V25.6672C40.8264 25.7546 40.8093 25.8411 40.7759 25.9219C40.7425 26.0027 40.6935 26.0761 40.6317 26.1379C40.5699 26.1997 40.4965 26.2488 40.4157 26.2822C40.3348 26.3157 40.2482 26.3329 40.1608 26.3329H33.7858C30.6117 26.3329 27.9201 28.44 27.0318 31.3311H39.8003C39.9768 31.3311 40.1461 31.4011 40.2709 31.5258C40.3957 31.6505 40.4658 31.8196 40.4658 31.9959V34.5536C40.466 34.641 40.449 34.7277 40.4157 34.8086C40.3823 34.8894 40.3333 34.9629 40.2715 35.0249C40.2097 35.0868 40.1362 35.1359 40.0554 35.1694C39.9745 35.203 39.8878 35.2202 39.8003 35.2202H26.7213V45.1925H31.5794C38.8242 45.1925 44.6982 39.3135 44.6982 32.0624V18.8048H32.4233C25.1795 18.8048 19.3055 24.6838 19.3055 31.9349V48.4168C19.3056 48.5042 19.2885 48.5908 19.2551 48.6715C19.2217 48.7523 19.1727 48.8257 19.1109 48.8875C19.0491 48.9494 18.9757 48.9984 18.8949 49.0319C18.8141 49.0654 18.7275 49.0826 18.64 49.0826H16.0852C15.9977 49.0826 15.9111 49.0654 15.8303 49.0319C15.7495 48.9984 15.6761 48.9494 15.6143 48.8875C15.5525 48.8257 15.5035 48.7523 15.4701 48.6715C15.4367 48.5908 15.4196 48.5042 15.4197 48.4168V31.9349Z" fill="white"/>
<defs>
<linearGradient id="paint0_linear_3929_2107" x1="12.2553" y1="7.14894" x2="55.6465" y2="53.614" gradientUnits="userSpaceOnUse">
<stop stop-color="#787878"/>
<stop offset="0.322917" stop-color="#5D5D5D"/>
<stop offset="1" stop-color="#181818"/>
</linearGradient>
</defs>
</svg>
