<svg width="64" height="64" viewBox="0 0 64 64" fill="none" xmlns="http://www.w3.org/2000/svg">
<circle cx="32" cy="32" r="32" fill="#4C5460"/>
<path fill-rule="evenodd" clip-rule="evenodd" d="M15.4197 31.9349C15.4197 22.536 23.0314 14.9174 32.4224 14.9174H47.2521C47.986 14.9174 48.5803 15.5121 48.5803 16.2471V32.0604C48.5803 41.4593 40.9686 49.0779 31.5776 49.0779H24.1646C23.9899 49.0779 23.8169 49.0435 23.6555 48.9767C23.4941 48.9098 23.3475 48.8118 23.2241 48.6883C23.1006 48.5649 23.0028 48.4183 22.9361 48.257C22.8694 48.0956 22.8352 47.9228 22.8354 47.7483V33.403C22.8354 27.3513 27.738 22.4437 33.7848 22.4437H40.1608C40.2482 22.4437 40.3348 22.4609 40.4157 22.4944C40.4965 22.5279 40.5699 22.5769 40.6317 22.6387C40.6935 22.7006 40.7425 22.774 40.7759 22.8547C40.8093 22.9355 40.8264 23.0221 40.8263 23.1094V25.6671C40.8264 25.7545 40.8093 25.8411 40.7759 25.9218C40.7425 26.0026 40.6935 26.076 40.6317 26.1378C40.5699 26.1997 40.4965 26.2487 40.4157 26.2822C40.3348 26.3156 40.2482 26.3329 40.1608 26.3329H33.7858C30.6117 26.3329 27.9201 28.44 27.0318 31.331H39.8003C39.9768 31.331 40.1461 31.401 40.2709 31.5257C40.3957 31.6504 40.4658 31.8195 40.4658 31.9958V34.5535C40.466 34.641 40.449 34.7276 40.4157 34.8085C40.3823 34.8894 40.3333 34.9629 40.2715 35.0248C40.2097 35.0867 40.1362 35.1359 40.0554 35.1694C39.9745 35.2029 39.8878 35.2202 39.8003 35.2202H26.7213V45.1924H31.5794C38.8242 45.1924 44.6982 39.3134 44.6982 32.0623V18.8047H32.4233C25.1795 18.8047 19.3055 24.6838 19.3055 31.9349V48.4168C19.3056 48.5042 19.2885 48.5907 19.2551 48.6715C19.2217 48.7522 19.1727 48.8256 19.1109 48.8875C19.0491 48.9493 18.9757 48.9984 18.8949 49.0318C18.8141 49.0653 18.7275 49.0825 18.64 49.0825H16.0852C15.9977 49.0825 15.9111 49.0653 15.8303 49.0318C15.7495 48.9984 15.6761 48.9493 15.6143 48.8875C15.5525 48.8256 15.5035 48.7522 15.4701 48.6715C15.4367 48.5907 15.4196 48.5042 15.4197 48.4168V31.9349Z" fill="white"/>
</svg>
