<svg width="33" height="32" viewBox="0 0 33 32" fill="none" xmlns="http://www.w3.org/2000/svg">
<path d="M27.9533 27.1369C24.9996 30.0906 20.9936 31.75 16.8164 31.75C12.6392 31.75 8.63317 30.0906 5.67947 27.1369C2.72578 24.1832 1.06641 20.1772 1.06641 16C1.06641 11.8228 2.72578 7.81677 5.67947 4.86307C8.63317 1.90937 12.6392 0.25 16.8164 0.25C20.9936 0.25 24.9996 1.90937 27.9533 4.86307C30.907 7.81677 32.5664 11.8228 32.5664 16C32.5664 20.1772 30.907 24.1832 27.9533 27.1369Z" fill="url(#paint0_linear_4212_65797)" stroke="white" stroke-width="0.5"/>
<g clip-path="url(#clip0_4212_65797)">
<path d="M21.849 11.9005L23.5492 9.98157C26.6607 13.3194 26.6672 18.3575 23.5623 21.6953L21.7965 19.6576C19.8403 17.4011 19.86 14.132 21.8424 11.9005H21.849ZM12.4161 10.8879C14.7661 12.7756 18.1927 12.7944 20.5624 10.9317L25.0262 7.4313C25.2099 7.28753 25.1049 7 24.862 7H16.6041C14.3854 7 12.1601 7.75633 10.4009 9.26274L12.4227 10.8879H12.4161ZM20.779 20.8827C18.429 18.995 15.0024 18.9763 12.6327 20.839L8.27403 24.2581C8.09023 24.4019 8.19526 24.6894 8.43814 24.6894H16.6041C18.8032 24.6894 21.0088 23.9456 22.7615 22.4641L20.7856 20.8765L20.779 20.8827ZM11.3986 12.1068L9.60002 10.0316C6.52136 13.3882 6.54761 18.4262 9.67879 21.7453L11.3461 19.8639C13.3285 17.6261 13.3482 14.3633 11.3921 12.1068H11.3986Z" fill="url(#paint1_linear_4212_65797)"/>
</g>
<defs>
<linearGradient id="paint0_linear_4212_65797" x1="16.8164" y1="0" x2="16.8164" y2="32" gradientUnits="userSpaceOnUse">
<stop stop-color="#383838"/>
<stop offset="1"/>
</linearGradient>
<linearGradient id="paint1_linear_4212_65797" x1="7.82109" y1="24.2018" x2="24.5653" y2="6.61743" gradientUnits="userSpaceOnUse">
<stop offset="0.13" stop-color="#3838F4"/>
<stop offset="0.36" stop-color="#8B7FFF"/>
<stop offset="0.69" stop-color="#E6FF67"/>
</linearGradient>
<clipPath id="clip0_4212_65797">
<rect width="19" height="18" fill="white" transform="translate(7.31641 7)"/>
</clipPath>
</defs>
</svg>
