<svg width="32" height="32" viewBox="0 0 32 32" fill="none" xmlns="http://www.w3.org/2000/svg">
<circle cx="16" cy="16" r="15.75" fill="url(#paint0_linear_5261_74672)" stroke="white" stroke-width="0.5"/>
<g clip-path="url(#clip0_5261_74672)">
<path d="M15.1772 13.2422C14.4573 13.2422 13.7669 13.5282 13.2579 14.0372C12.7489 14.5462 12.4629 15.2366 12.4629 15.9565C12.4629 16.6763 12.7489 17.3667 13.2579 17.8758C13.7669 18.3848 14.4573 18.6708 15.1772 18.6708C15.897 18.6708 16.5874 18.3848 17.0965 17.8758C17.6055 17.3667 17.8915 16.6763 17.8915 15.9565C17.8915 15.2366 17.6055 14.5462 17.0965 14.0372C16.5874 13.5282 15.897 13.2422 15.1772 13.2422Z" fill="white"/>
<path d="M15.1778 5.09962C13.7517 5.09789 12.3392 5.37795 11.0216 5.92371C9.70401 6.46948 8.50722 7.27019 7.5 8.27986L11.3407 12.1206C12.0996 11.3607 13.0669 10.843 14.1201 10.633C15.1734 10.423 16.2652 10.5301 17.2575 10.9408C18.2499 11.3514 19.0981 12.0472 19.6949 12.9401C20.2917 13.833 20.6103 14.8828 20.6103 15.9568C20.6103 17.0307 20.2917 18.0805 19.6949 18.9734C19.0981 19.8663 18.2499 20.5621 17.2575 20.9728C16.2652 21.3834 15.1734 21.4905 14.1201 21.2805C13.0669 21.0705 12.0996 20.5528 11.3407 19.793L7.5 23.6346C8.76256 24.8969 10.3169 25.8284 12.0255 26.3466C13.734 26.8648 15.5439 26.9536 17.295 26.6052C19.046 26.2568 20.6842 25.482 22.0643 24.3494C23.4444 23.2167 24.5239 21.7612 25.2071 20.1118C25.8904 18.4623 26.1563 16.6698 25.9814 14.893C25.8065 13.1163 25.1961 11.41 24.2043 9.92547C23.2125 8.44092 21.8699 7.22387 20.2954 6.3821C18.721 5.54033 16.9632 5.09983 15.1778 5.09962Z" fill="white"/>
</g>
<defs>
<linearGradient id="paint0_linear_5261_74672" x1="16" y1="0" x2="16" y2="32" gradientUnits="userSpaceOnUse">
<stop stop-color="#22CE8F"/>
<stop offset="1" stop-color="#047E51"/>
</linearGradient>
<clipPath id="clip0_5261_74672">
<rect width="19" height="21.7143" fill="white" transform="translate(7.5 5.09961)"/>
</clipPath>
</defs>
</svg>
