<svg width="20" height="20" viewBox="0 0 20 20" fill="none" xmlns="http://www.w3.org/2000/svg">
<path d="M9.99991 19.285C15.1279 19.285 19.285 15.1279 19.285 9.99991C19.285 4.87191 15.1279 0.714844 9.99991 0.714844C4.87191 0.714844 0.714844 4.87191 0.714844 9.99991C0.714844 15.1279 4.87191 19.285 9.99991 19.285Z" fill="white"/>
<path d="M9.99934 19.9986C8.68565 20.0023 7.3843 19.7452 6.17057 19.2426C4.95684 18.7399 3.85486 18.0016 2.92841 17.0702C1.99702 16.1438 1.25863 15.042 0.755973 13.8282C0.253319 12.6145 -0.00361684 11.313 4.01675e-05 9.99934C-0.00369573 8.68564 0.253206 7.38418 0.755864 6.17044C1.25852 4.9567 1.99696 3.85488 2.92841 2.92848C3.85481 1.99702 4.95677 1.25844 6.1705 0.755777C7.38424 0.253118 8.68564 -0.00369572 9.99934 4.01809e-05C11.313 -0.00369572 12.6144 0.253118 13.8282 0.755777C15.0419 1.25844 16.1439 1.99702 17.0703 2.92848C18.0017 3.85488 18.7402 4.9567 19.2428 6.17044C19.7455 7.38418 20.0024 8.68564 19.9986 9.99934C20.0023 11.313 19.7454 12.6145 19.2427 13.8282C18.7401 15.042 18.0017 16.1438 17.0703 17.0702C16.1438 18.0016 15.0418 18.7399 13.8281 19.2426C12.6144 19.7452 11.313 20.0023 9.99934 19.9986ZM9.99934 1.42851C7.72697 1.43097 5.54838 2.33478 3.94157 3.94159C2.33476 5.5484 1.43097 7.72697 1.42851 9.99934C1.43097 12.2717 2.33476 14.4503 3.94157 16.0571C5.54838 17.6639 7.72697 18.5677 9.99934 18.5702C12.2717 18.5677 14.4503 17.6639 16.0571 16.0571C17.6639 14.4503 18.5677 12.2717 18.5702 9.99934C18.5677 7.72697 17.6639 5.5484 16.0571 3.94159C14.4503 2.33478 12.2717 1.43097 9.99934 1.42851V1.42851Z" fill="#1E1E1E"/>
<path opacity="0.7" d="M9.2863 19.9742V18.5408C9.52438 18.5608 9.76246 18.5708 10.0005 18.5708C10.2386 18.5708 10.4767 18.5611 10.7148 18.5415V19.9749C10.4767 19.9916 10.2386 20 10.0005 20C9.76246 20 9.52438 19.9913 9.2863 19.9742ZM15.533 16.5411C15.8967 16.2329 16.2343 15.8951 16.5422 15.5311L17.5586 16.5474C17.4034 16.7264 17.241 16.9004 17.0715 17.0695C16.902 17.2385 16.7279 17.401 16.5494 17.5567L15.533 16.5411ZM2.93102 17.0702C2.76151 16.9007 2.59891 16.7264 2.44321 16.5474L3.45957 15.5311C3.76776 15.8951 4.10555 16.2329 4.4695 16.5411L3.45314 17.5574C3.27411 17.4021 3.09959 17.2397 2.92961 17.0702H2.93102ZM18.5421 10.7135C18.5616 10.4755 18.5714 10.2374 18.5714 9.9993C18.5714 9.76122 18.5616 9.52315 18.5421 9.28507H19.9756C19.9922 9.52315 20.0006 9.76122 20.0006 9.9993C20.0006 10.2374 19.9922 10.4755 19.9756 10.7135H18.5421ZM0.026954 10.7135C0.0102885 10.4755 0.00195312 10.2374 0.00195312 9.9993C0.00195312 9.76122 0.0102885 9.52315 0.026954 9.28507H1.46042C1.44089 9.52315 1.43114 9.76122 1.43114 9.9993C1.43114 10.2374 1.44089 10.4755 1.46042 10.7135H0.026954ZM2.44321 3.45191C2.59891 3.27287 2.76151 3.09887 2.93102 2.92983C3.10053 2.7608 3.27483 2.59811 3.45386 2.44193L4.4695 3.45749C4.10562 3.76601 3.76783 4.10406 3.45957 4.46816L2.44321 3.45191ZM15.533 3.45749L16.5487 2.44193C16.7277 2.59764 16.902 2.76032 17.0715 2.92983C17.241 3.09934 17.4034 3.27335 17.5586 3.45191L16.5422 4.46816C16.2341 4.10396 15.8963 3.76589 15.5323 3.45749H15.533ZM9.2863 0.0251099C9.52438 0.00844435 9.76246 0 10.0005 0C10.2386 0 10.4767 0.00844435 10.7148 0.0251099V1.45707C10.4791 1.43755 10.241 1.42777 10.0005 1.42777C9.76008 1.42777 9.522 1.43777 9.2863 1.45777V0.0251099Z" fill="white"/>
<path d="M13.5714 5H6.42857C5.63959 5 5 5.63954 5 6.42844V13.5707C5 14.3596 5.63959 14.9991 6.42857 14.9991H13.5714C14.3604 14.9991 15 14.3596 15 13.5707V6.42844C15 5.63954 14.3604 5 13.5714 5Z" fill="url(#paint0_radial_4449_66812)"/>
<path opacity="0.95" d="M9.52297 7.61914H7.14202C6.95258 7.61914 6.7709 7.6944 6.63694 7.82834C6.50299 7.96228 6.42773 8.14395 6.42773 8.33336V11.6664C6.42801 11.8176 6.47624 11.9648 6.56549 12.0868C6.65475 12.2088 6.78042 12.2993 6.92441 12.3454C7.06841 12.3915 7.22331 12.3906 7.36681 12.3431C7.51031 12.2955 7.63502 12.2036 7.72297 12.0806L10.1039 8.74761C10.1799 8.64086 10.2251 8.51523 10.2345 8.3845C10.2439 8.25377 10.2171 8.123 10.1571 8.00646C10.0971 7.88995 10.0063 7.79217 9.8944 7.72385C9.78254 7.65554 9.65404 7.61931 9.52297 7.61914ZM7.61821 9.28566C7.52402 9.28566 7.43197 9.25773 7.35365 9.2054C7.27534 9.1531 7.21431 9.07872 7.17827 8.99173C7.14223 8.90472 7.1328 8.80899 7.15117 8.71661C7.16954 8.62426 7.2149 8.53942 7.28149 8.47283C7.34809 8.40624 7.43295 8.36088 7.52531 8.3425C7.61769 8.32415 7.71342 8.33358 7.80045 8.3696C7.88745 8.40564 7.96183 8.46668 8.01414 8.54499C8.06647 8.62329 8.0944 8.71533 8.0944 8.80951C8.0944 8.93578 8.04423 9.05689 7.95492 9.14619C7.86562 9.2355 7.7445 9.28566 7.61821 9.28566Z" fill="black"/>
<path opacity="0.95" d="M11.3101 12.1415C11.6388 12.1415 11.9053 11.8751 11.9053 11.5464C11.9053 11.2176 11.6388 10.9512 11.3101 10.9512C10.9813 10.9512 10.7148 11.2176 10.7148 11.5464C10.7148 11.8751 10.9813 12.1415 11.3101 12.1415Z" fill="black"/>
<path opacity="0.95" d="M13.5741 8.33336V11.6664C13.5743 11.8446 13.508 12.0165 13.388 12.1483C13.268 12.2801 13.103 12.3623 12.9255 12.3787C12.748 12.3951 12.5708 12.3446 12.4287 12.237C12.2866 12.1294 12.1898 11.9726 12.1574 11.7973C12.1498 11.7541 12.1458 11.7103 12.1455 11.6664V11.1236C12.1442 10.9728 12.0953 10.8263 12.0057 10.7051C11.916 10.5838 11.7903 10.4941 11.6466 10.4486C11.5028 10.4032 11.3483 10.4044 11.2053 10.4521C11.0622 10.4997 10.938 10.5915 10.8503 10.7141L10.4788 11.2355L9.88122 12.0735C9.76722 12.2184 9.60163 12.3136 9.41903 12.3393C9.23644 12.3649 9.05103 12.3189 8.90156 12.211C8.75208 12.103 8.65015 11.9415 8.61706 11.7601C8.58399 11.5788 8.62232 11.3916 8.72408 11.2379L11.105 7.90483C11.1708 7.81708 11.256 7.74568 11.3538 7.69613C11.4517 7.64659 11.5596 7.62024 11.6693 7.61914H12.8598C13.0492 7.61914 13.2309 7.6944 13.3649 7.82834C13.4988 7.96228 13.5741 8.14395 13.5741 8.33336Z" fill="white"/>
<defs>
<radialGradient id="paint0_radial_4449_66812" cx="0" cy="0" r="1" gradientUnits="userSpaceOnUse" gradientTransform="translate(27.3595 -4.03252) scale(4.5 4.4996)">
<stop stop-color="#FFC942"/>
<stop offset="0.28" stop-color="#FEC73E"/>
<stop offset="0.57" stop-color="#FBC131"/>
<stop offset="0.86" stop-color="#F5B71D"/>
<stop offset="1" stop-color="#F2B110"/>
</radialGradient>
</defs>
</svg>
