<svg width="32" height="32" viewBox="0 0 32 32" fill="none" xmlns="http://www.w3.org/2000/svg">
<path d="M16 32C24.8366 32 32 24.8366 32 16C32 7.16344 24.8366 0 16 0C7.16344 0 0 7.16344 0 16C0 24.8366 7.16344 32 16 32Z" fill="url(#paint0_linear_2549_50396)"/>
<path d="M16 31.75C24.6985 31.75 31.75 24.6985 31.75 16C31.75 7.30152 24.6985 0.25 16 0.25C7.30152 0.25 0.25 7.30152 0.25 16C0.25 24.6985 7.30152 31.75 16 31.75Z" fill="url(#paint1_linear_2549_50396)" stroke="white" stroke-width="0.5"/>
<path opacity="0.95" d="M14.7962 10H8.79912C8.32196 10 7.86435 10.1896 7.52695 10.527C7.18955 10.8644 7 11.322 7 11.7991V20.195C7.00068 20.5758 7.12217 20.9466 7.34698 21.2539C7.57179 21.5613 7.88832 21.7894 8.25102 21.9054C8.61372 22.0214 9.00386 22.0193 9.36531 21.8995C9.72675 21.7797 10.0409 21.5482 10.2624 21.2385L16.2595 12.8426C16.451 12.5737 16.5647 12.2572 16.5884 11.9279C16.612 11.5986 16.5446 11.2692 16.3935 10.9757C16.2424 10.6822 16.0135 10.4359 15.7317 10.2638C15.45 10.0917 15.1263 10.0004 14.7962 10ZM9.99853 14.1979C9.76129 14.1979 9.52944 14.1276 9.33218 13.9958C9.13493 13.864 8.9812 13.6767 8.89042 13.4576C8.79964 13.2384 8.77589 12.9972 8.82217 12.7645C8.86845 12.5319 8.98268 12.3182 9.15042 12.1504C9.31816 11.9827 9.5319 11.8684 9.76453 11.8221C9.99722 11.7759 10.2384 11.7997 10.4576 11.8904C10.6767 11.9812 10.864 12.135 10.9958 12.3322C11.1276 12.5294 11.1979 12.7613 11.1979 12.9985C11.1979 13.3166 11.0716 13.6217 10.8466 13.8466C10.6217 14.0716 10.3166 14.1979 9.99853 14.1979Z" fill="black"/>
<path opacity="0.95" d="M19.2981 21.3911C20.1261 21.3911 20.7974 20.7199 20.7974 19.8918C20.7974 19.0638 20.1261 18.3926 19.2981 18.3926C18.4701 18.3926 17.7988 19.0638 17.7988 19.8918C17.7988 20.7199 18.4701 21.3911 19.2981 21.3911Z" fill="black"/>
<path opacity="0.95" d="M24.9992 11.7991V20.195C24.9998 20.644 24.8326 21.0769 24.5304 21.4089C24.2281 21.7409 23.8127 21.9479 23.3656 21.9892C22.9185 22.0306 22.4722 21.9033 22.1142 21.6323C21.7562 21.3613 21.5125 20.9664 21.4309 20.5249C21.4117 20.4159 21.4017 20.3056 21.4009 20.195V18.8277C21.3977 18.4479 21.2744 18.0789 21.0487 17.7735C20.8229 17.468 20.5063 17.2419 20.1442 17.1274C19.7821 17.0129 19.393 17.016 19.0327 17.1361C18.6724 17.2562 18.3594 17.4873 18.1385 17.7962L17.203 19.1095L15.6977 21.2205C15.4106 21.5856 14.9935 21.8254 14.5336 21.89C14.0736 21.9546 13.6067 21.8388 13.2302 21.5668C12.8537 21.2949 12.5969 20.888 12.5136 20.4311C12.4303 19.9743 12.5268 19.5028 12.7831 19.1155L18.7802 10.7196C18.9459 10.4986 19.1604 10.3187 19.4068 10.1939C19.6533 10.0691 19.9252 10.0028 20.2015 10H23.2C23.6772 10 24.1348 10.1896 24.4722 10.527C24.8096 10.8644 24.9992 11.322 24.9992 11.7991Z" fill="white"/>
<defs>
<linearGradient id="paint0_linear_2549_50396" x1="16" y1="0" x2="16" y2="32" gradientUnits="userSpaceOnUse">
<stop stop-color="#FFD161"/>
<stop offset="1" stop-color="#FABA1C"/>
</linearGradient>
<linearGradient id="paint1_linear_2549_50396" x1="16" y1="0.25" x2="16" y2="31.75" gradientUnits="userSpaceOnUse">
<stop stop-color="#FFD161"/>
<stop offset="1" stop-color="#FABA1C"/>
</linearGradient>
</defs>
</svg>
