<svg width="33" height="32" viewBox="0 0 33 32" fill="none" xmlns="http://www.w3.org/2000/svg">
<path d="M27.9533 27.1369C24.9996 30.0906 20.9936 31.75 16.8164 31.75C12.6392 31.75 8.63317 30.0906 5.67947 27.1369C2.72578 24.1832 1.06641 20.1772 1.06641 16C1.06641 11.8228 2.72578 7.81677 5.67947 4.86307C8.63317 1.90937 12.6392 0.25 16.8164 0.25C20.9936 0.25 24.9996 1.90937 27.9533 4.86307C30.907 7.81677 32.5664 11.8228 32.5664 16C32.5664 20.1772 30.907 24.1832 27.9533 27.1369Z" fill="url(#paint0_linear_4194_63612)" stroke="white" stroke-width="0.5"/>
<path fill-rule="evenodd" clip-rule="evenodd" d="M24.3164 8.5H10.3789L14.3468 13.178C15.0065 12.6002 15.8706 12.25 16.8164 12.25C18.8875 12.25 20.5664 13.9289 20.5664 16C20.5664 16.9342 20.2248 17.7886 19.6597 18.4451L24.3164 22.452V8.5ZM22.4804 23.5L18.7927 19.1876C18.2189 19.5441 17.5417 19.75 16.8164 19.75C14.7453 19.75 13.0664 18.0711 13.0664 16C13.0664 15.2813 13.2686 14.6098 13.6192 14.0393L9.31641 10.2923V23.5H22.4804Z" fill="white"/>
<defs>
<linearGradient id="paint0_linear_4194_63612" x1="16.8164" y1="0" x2="16.8164" y2="32" gradientUnits="userSpaceOnUse">
<stop stop-color="#363A51"/>
<stop offset="1" stop-color="#1F212E"/>
</linearGradient>
</defs>
</svg>
