<svg width="200" height="200" viewBox="0 0 200 200" fill="none" xmlns="http://www.w3.org/2000/svg">
<g clip-path="url(#clip0_1548_2118)">
<path d="M199.987 100.266C199.987 113.374 197.406 126.354 192.392 138.464C187.378 150.574 180.028 161.578 170.763 170.847C161.498 180.116 150.499 187.468 138.394 192.484C126.288 197.501 113.314 200.082 100.211 200.082C87.1087 200.082 74.1343 197.501 62.029 192.484C49.9237 187.468 38.9245 180.116 29.6595 170.847C20.3945 161.578 13.0452 150.574 8.03097 138.464C3.0168 126.354 0.436033 113.374 0.436035 100.266C0.43604 73.7928 10.9481 48.4041 29.6596 29.6848C48.3711 10.9656 73.7493 0.44922 100.211 0.449219C126.673 0.449218 152.052 10.9656 170.763 29.6848C189.475 48.4041 199.987 73.7928 199.987 100.266Z" fill="#1E1E1E"/>
<path fill-rule="evenodd" clip-rule="evenodd" d="M100.299 18.2137C55.0497 18.2137 18.357 54.9795 18.357 100.354C18.357 145.729 55.0497 182.494 100.299 182.494C145.549 182.494 182.241 145.729 182.241 100.354C182.241 54.9958 145.549 18.2137 100.299 18.2137ZM10.048 100.354C10.048 50.3786 50.462 9.88477 100.299 9.88477C150.138 9.88477 190.552 50.3957 190.552 100.354C190.552 150.33 150.137 190.825 100.299 190.825C50.462 190.825 10.048 150.33 10.048 100.354Z" fill="#FF7B7C"/>
<path fill-rule="evenodd" clip-rule="evenodd" d="M135.928 78.7987L113.162 77.8493L128.633 61.0579L122.401 54.8277L105.634 70.2864L104.72 47.4648H95.9291L94.9818 70.2864L78.231 54.7778L72.016 61.0245L87.4538 77.8324L64.6709 78.732V87.5608L87.4372 88.5101L71.966 105.301L78.1978 111.532L94.6993 96.3063L95.4306 133.287L82.2526 134.253V142.465L95.63 143.482L95.8793 156.325H104.67L104.936 143.498L118.446 142.465V134.253L105.135 133.287L105.883 96.3228L122.368 111.565L128.583 105.335L113.162 88.5268L135.928 87.6109L135.928 78.7987Z" fill="#FF7B7C"/>
</g>
<defs>
<clipPath id="clip0_1548_2118">
<rect width="200" height="200" fill="white"/>
</clipPath>
</defs>
</svg>
