<svg width="32" height="32" viewBox="0 0 32 32" fill="none" xmlns="http://www.w3.org/2000/svg">
<g clip-path="url(#clip0_614_994)">
<path d="M16 32C24.8366 32 32 24.8366 32 16C32 7.16344 24.8366 0 16 0C7.16344 0 0 7.16344 0 16C0 24.8366 7.16344 32 16 32Z" fill="black"/>
<path fill-rule="evenodd" clip-rule="evenodd" d="M16 29.52C23.4669 29.52 29.52 23.4669 29.52 16C29.52 8.53311 23.4669 2.48 16 2.48C8.53311 2.48 2.48 8.53311 2.48 16C2.48 23.4669 8.53311 29.52 16 29.52ZM16 30C23.732 30 30 23.732 30 16C30 8.26801 23.732 2 16 2C8.26801 2 2 8.26801 2 16C2 23.732 8.26801 30 16 30Z" fill="#F0827D"/>
<path fill-rule="evenodd" clip-rule="evenodd" d="M16.4764 10.5231C16.4764 10.2342 16.2579 10 15.9883 10C15.9883 10 15.9881 10 15.9878 10C15.7185 10 15.5 10.2342 15.5 10.5231C15.5 12.631 15.5 20.4925 15.5 22.6008C15.5 22.8897 15.7185 23.1239 15.9878 23.1239C15.9881 23.1239 15.9883 23.1239 15.9883 23.1239C16.2579 23.1239 16.4764 22.8897 16.4764 22.6008C16.4764 20.4925 16.4764 12.631 16.4764 10.5231Z" fill="white"/>
<path fill-rule="evenodd" clip-rule="evenodd" d="M14.504 20.4766C14.2345 20.4763 14.0159 20.7103 14.0156 20.9993C14.0156 20.9993 14.0156 20.9996 14.0156 20.9999C14.0154 21.2885 14.2337 21.5229 14.5031 21.5231C15.2527 21.5238 16.6792 21.5251 17.4288 21.5257C17.6983 21.526 17.917 21.292 17.9172 21.0033C17.9172 21.003 17.9172 21.0027 17.9172 21.0027C17.9174 20.7138 17.6991 20.4794 17.4296 20.4792C16.68 20.4785 15.2535 20.4772 14.504 20.4766Z" fill="white"/>
<path fill-rule="evenodd" clip-rule="evenodd" d="M12.0899 13.6348C11.8203 13.6345 11.6018 13.8685 11.6016 14.1575C11.6016 14.1575 11.6016 14.1578 11.6016 14.1581C11.6014 14.4467 11.8195 14.6811 12.0891 14.6813C13.621 14.6827 18.323 14.6869 19.8549 14.6882C20.1243 14.6885 20.343 14.4545 20.3432 14.1658C20.3432 14.1655 20.3432 14.1652 20.3432 14.1652C20.3435 13.8763 20.1251 13.6419 19.8557 13.6417C18.3238 13.6403 13.6218 13.6361 12.0899 13.6348Z" fill="white"/>
<path fill-rule="evenodd" clip-rule="evenodd" d="M13.7002 10.9907C13.5094 10.7866 13.2004 10.787 13.01 10.9915C13.01 10.9915 13.0098 10.9918 13.0096 10.992C12.8194 11.1963 12.8197 11.5275 13.0105 11.7315C14.0613 12.8554 17.2118 16.225 18.2626 17.3488C18.4534 17.5529 18.7624 17.5525 18.9526 17.3482C18.9528 17.348 18.953 17.3478 18.953 17.3478C19.1434 17.1433 19.1431 16.8121 18.9523 16.608C17.9015 15.4842 14.7509 12.1146 13.7002 10.9907Z" fill="white"/>
<path fill-rule="evenodd" clip-rule="evenodd" d="M13.0173 16.6171C12.8271 16.8218 12.8276 17.1529 13.0186 17.3569C13.0186 17.3569 13.0188 17.3571 13.019 17.3573C13.2097 17.561 13.5187 17.5605 13.7089 17.3558C14.7568 16.2288 17.8984 12.8497 18.9462 11.7226C19.1365 11.518 19.1359 11.1868 18.9452 10.9831C18.945 10.9829 18.9448 10.9827 18.9448 10.9827C18.7538 10.7787 18.4449 10.7793 18.2546 10.9839C17.2068 12.1109 14.0652 15.4901 13.0173 16.6171Z" fill="white"/>
</g>
<path d="M16 31.75C24.698 31.75 31.75 24.698 31.75 16C31.75 7.302 24.698 0.25 16 0.25C7.302 0.25 0.25 7.302 0.25 16C0.25 24.698 7.302 31.75 16 31.75Z" stroke="white" stroke-width="0.5"/>
<defs>
<clipPath id="clip0_614_994">
<rect width="32" height="32" fill="white"/>
</clipPath>
</defs>
</svg>
