<svg width="20" height="20" viewBox="0 0 20 20" fill="none" xmlns="http://www.w3.org/2000/svg">
<path d="M10 20C15.5228 20 20 15.5228 20 10C20 4.47715 15.5228 0 10 0C4.47715 0 0 4.47715 0 10C0 15.5228 4.47715 20 10 20Z" fill="white"/>
<path d="M9.99966 19.9986C8.68593 20.0023 7.38453 19.7452 6.17076 19.2426C4.957 18.7399 3.85498 18.0016 2.9285 17.0702C1.99708 16.1438 1.25867 15.042 0.755997 13.8282C0.253327 12.6145 -0.00361695 11.313 4.01687e-05 9.99934C-0.00369585 8.68564 0.253213 7.38418 0.755888 6.17044C1.25856 4.9567 1.99702 3.85488 2.9285 2.92848C3.85493 1.99702 4.95692 1.25844 6.1707 0.755777C7.38447 0.253118 8.68592 -0.00369572 9.99966 4.01809e-05C11.3134 -0.00369572 12.6148 0.253118 13.8286 0.755777C15.0424 1.25844 16.1444 1.99702 17.0708 2.92848C18.0023 3.85488 18.7408 4.9567 19.2434 6.17044C19.7461 7.38418 20.003 8.68564 19.9993 9.99934C20.0029 11.313 19.746 12.6145 19.2433 13.8282C18.7406 15.042 18.0022 16.1438 17.0708 17.0702C16.1443 18.0016 15.0423 18.7399 13.8286 19.2426C12.6148 19.7452 11.3134 20.0023 9.99966 19.9986ZM9.99966 1.42851C7.72722 1.43097 5.54855 2.33478 3.94169 3.94159C2.33483 5.5484 1.43101 7.72697 1.42856 9.99934C1.43101 12.2717 2.33483 14.4503 3.94169 16.0571C5.54855 17.6639 7.72722 18.5677 9.99966 18.5702C12.2721 18.5677 14.4508 17.6639 16.0576 16.0571C17.6645 14.4503 18.5683 12.2717 18.5708 9.99934C18.5683 7.72697 17.6645 5.5484 16.0576 3.94159C14.4508 2.33478 12.2721 1.43097 9.99966 1.42851Z" fill="#185171"/>
<path opacity="0.41" d="M9.28464 19.9742V18.5408C9.52273 18.5608 9.76081 18.5708 9.9989 18.5708C10.237 18.5708 10.4751 18.5611 10.7132 18.5415V19.9749C10.4751 19.9916 10.237 20 9.9989 20C9.76081 20 9.52273 19.9913 9.28464 19.9742ZM15.5315 16.5411C15.8953 16.2329 16.2328 15.8951 16.5408 15.5311L17.5572 16.5474C17.402 16.7264 17.2396 16.9004 17.0701 17.0695C16.9005 17.2385 16.7265 17.401 16.5479 17.5567L15.5315 16.5411ZM2.92916 17.0702C2.75964 16.9007 2.59704 16.7264 2.44133 16.5474L3.45773 15.5311C3.76592 15.8951 4.10373 16.2329 4.46769 16.5411L3.4513 17.5574C3.27226 17.4021 3.09774 17.2397 2.92774 17.0702H2.92916ZM18.5407 10.7135C18.5603 10.4755 18.57 10.2374 18.57 9.9993C18.57 9.76122 18.5603 9.52315 18.5407 9.28507H19.9742C19.9909 9.52315 19.9992 9.76122 19.9992 9.9993C19.9992 10.2374 19.9909 10.4755 19.9742 10.7135H18.5407ZM0.0250017 10.7135C0.00833563 10.4755 0 10.2374 0 9.9993C0 9.76122 0.00833563 9.52315 0.0250017 9.28507H1.45851C1.43899 9.52315 1.42924 9.76122 1.42924 9.9993C1.42924 10.2374 1.43899 10.4755 1.45851 10.7135H0.0250017ZM2.44133 3.45191C2.59704 3.27287 2.75964 3.09887 2.92916 2.92983C3.09868 2.7608 3.27298 2.59811 3.45202 2.44193L4.46769 3.45749C4.1038 3.76601 3.766 4.10406 3.45773 4.46816L2.44133 3.45191ZM15.5315 3.45749L16.5472 2.44193C16.7263 2.59764 16.9005 2.76032 17.0701 2.92983C17.2396 3.09934 17.402 3.27335 17.5572 3.45191L16.5408 4.46816C16.2326 4.10396 15.8955 3.76589 15.5315 3.45749ZM9.28464 0.0251099C9.52273 0.00844435 9.76081 0 9.9989 0C10.237 0 10.4751 0.00844435 10.7132 0.0251099V1.45707C10.4775 1.43755 10.2394 1.42777 9.9989 1.42777C9.75843 1.42777 9.52035 1.43777 9.28464 1.45777V0.0251099Z" fill="white"/>
<path d="M5.6707 6.17677C5.74165 6.08542 5.81686 5.99789 5.89206 5.90994C5.89546 5.90569 5.90311 5.90484 5.90651 5.90059C5.91331 5.89209 5.92435 5.88657 5.93115 5.87807L5.93795 5.86958C5.99021 5.81986 6.04587 5.7659 6.11045 5.71874C6.32501 5.54826 6.5656 5.41341 6.82299 5.31935C7.62178 5.03297 8.51065 5.20972 9.20789 5.88275C10.1809 6.81538 10.0938 8.31863 9.31709 9.31754C8.33474 10.8064 6.64751 12.8841 8.98397 14.7451C9.40419 15.0799 9.71563 15.3556 11.0387 15.7465C10.1737 15.9097 9.37105 15.8591 8.47793 15.6259C7.84612 15.2609 6.85273 14.4804 6.51495 13.4258C6.00381 11.8269 7.41401 9.43651 8.09553 8.5162C9.03114 7.24154 7.51726 5.86278 6.40278 7.40257C5.81983 8.20476 4.80095 10.4758 5.15488 12.16C5.3618 13.1152 5.63798 13.8116 6.73249 14.768C6.52601 14.643 6.32852 14.5037 6.14147 14.3512C3.59809 11.9293 3.89339 8.18437 5.6707 6.17677V6.17677Z" fill="url(#paint0_linear_4446_66923)"/>
<path d="M14.3274 13.8212C14.2565 13.9126 14.1813 14.0001 14.1061 14.0881C14.1027 14.0923 14.095 14.0932 14.0916 14.0974C14.0848 14.1059 14.0738 14.1114 14.067 14.1199L14.0602 14.1284C14.0079 14.1781 13.9523 14.2321 13.8877 14.2793C13.6731 14.4497 13.4325 14.5846 13.1751 14.6786C12.3764 14.965 11.4875 14.7883 10.7903 14.1152C9.81726 13.1826 9.90436 11.6794 10.6811 10.6804C11.663 9.19164 13.3506 7.11394 11.0142 5.25293C10.594 4.91812 10.2825 4.64237 8.95898 4.25147C9.82448 4.08831 10.6271 4.13887 11.5202 4.37214C12.152 4.73712 13.1454 5.51764 13.4832 6.57221C13.9943 8.17106 12.5841 10.5615 11.9026 11.4818C10.967 12.7565 12.4809 14.1352 13.5954 12.5954C14.1783 11.7932 15.1972 9.52221 14.8433 7.83795C14.6359 6.8828 14.3602 6.18641 13.2656 5.22999C13.4683 5.35235 13.6655 5.49129 13.8567 5.6468C16.3996 8.06866 16.1048 11.8136 14.3274 13.8212V13.8212Z" fill="url(#paint1_linear_4446_66923)"/>
<defs>
<linearGradient id="paint0_linear_4446_66923" x1="4.28514" y1="9.99949" x2="15.7134" y2="9.99949" gradientUnits="userSpaceOnUse">
<stop stop-color="#0082FA"/>
<stop offset="1" stop-color="#00F2FE"/>
</linearGradient>
<linearGradient id="paint1_linear_4446_66923" x1="4.28479" y1="9.9985" x2="15.713" y2="9.9985" gradientUnits="userSpaceOnUse">
<stop stop-color="#0082FA"/>
<stop offset="1" stop-color="#00F2FE"/>
</linearGradient>
</defs>
</svg>
