<svg width="32" height="32" viewBox="0 0 32 32" fill="none" xmlns="http://www.w3.org/2000/svg">
<path d="M16 32C24.8366 32 32 24.8366 32 16C32 7.16344 24.8366 0 16 0C7.16344 0 0 7.16344 0 16C0 24.8366 7.16344 32 16 32Z" fill="url(#paint0_linear_1064_14311)"/>
<path d="M16 31.75C24.6985 31.75 31.75 24.6985 31.75 16C31.75 7.30152 24.6985 0.25 16 0.25C7.30152 0.25 0.25 7.30152 0.25 16C0.25 24.6985 7.30152 31.75 16 31.75Z" stroke="white" stroke-width="0.5"/>
<path d="M8.79261 9.54121C8.91002 9.39005 9.03445 9.24523 9.15889 9.0997C9.16452 9.09266 9.17717 9.09126 9.1828 9.08423C9.19405 9.07017 9.21233 9.06103 9.22357 9.04697L9.23482 9.03291C9.3213 8.95065 9.4134 8.86136 9.52026 8.78332C9.87529 8.50124 10.2734 8.2781 10.6993 8.12246C12.021 7.6486 13.4918 7.94107 14.6455 9.0547C16.2555 10.5979 16.1113 13.0853 14.8262 14.7381C13.2007 17.2016 10.4089 20.6395 14.275 23.7189C14.9703 24.2729 15.4856 24.7292 17.6749 25.376C16.2435 25.6459 14.9155 25.5623 13.4376 25.1763C12.3922 24.5724 10.7485 23.2809 10.1896 21.5359C9.3438 18.8903 11.6772 14.935 12.8049 13.4122C14.353 11.303 11.8481 9.02166 10.004 11.5695C9.03938 12.8969 7.35347 16.6546 7.93911 19.4415C8.28149 21.022 8.73847 22.1743 10.5495 23.7568C10.2079 23.55 9.88108 23.3196 9.57158 23.0672C5.36314 19.0598 5.85175 12.8631 8.79261 9.54121Z" fill="url(#paint1_linear_1064_14311)"/>
<path d="M23.1174 22.1915C23 22.3427 22.8755 22.4875 22.7511 22.633C22.7455 22.6401 22.7328 22.6415 22.7272 22.6485C22.7159 22.6626 22.6977 22.6717 22.6864 22.6858L22.6752 22.6998C22.5887 22.7821 22.4966 22.8714 22.3897 22.9494C22.0347 23.2315 21.6366 23.4546 21.2107 23.6103C19.889 24.0841 18.4182 23.7917 17.2645 22.678C15.6545 21.1348 15.7987 18.6475 17.0838 16.9946C18.7086 14.5311 21.5011 11.0932 17.635 8.01386C16.9397 7.45986 16.4244 7.00358 14.2344 6.35677C15.6665 6.0868 16.9945 6.17047 18.4724 6.55644C19.5178 7.16036 21.1615 8.45186 21.7204 10.1968C22.5662 12.8424 20.2328 16.7977 19.1051 18.3205C17.557 20.4297 20.0619 22.7111 21.906 20.1632C22.8706 18.8359 24.5565 15.0781 23.9709 12.2912C23.6278 10.7108 23.1715 9.55846 21.3605 7.97589C21.6958 8.17837 22.022 8.40827 22.3384 8.66559C26.5462 12.673 26.0582 18.8696 23.1174 22.1915Z" fill="url(#paint2_linear_1064_14311)"/>
<defs>
<linearGradient id="paint0_linear_1064_14311" x1="16" y1="0" x2="16" y2="32" gradientUnits="userSpaceOnUse">
<stop stop-color="#174C6A"/>
<stop offset="1" stop-color="#0C131A"/>
</linearGradient>
<linearGradient id="paint1_linear_1064_14311" x1="6.49997" y1="15.8665" x2="25.4099" y2="15.8665" gradientUnits="userSpaceOnUse">
<stop stop-color="#0082FA"/>
<stop offset="1" stop-color="#00F2FE"/>
</linearGradient>
<linearGradient id="paint2_linear_1064_14311" x1="6.50014" y1="15.8662" x2="25.41" y2="15.8662" gradientUnits="userSpaceOnUse">
<stop stop-color="#0082FA"/>
<stop offset="1" stop-color="#00F2FE"/>
</linearGradient>
</defs>
</svg>
