<svg width="20" height="20" viewBox="0 0 20 20" fill="none" xmlns="http://www.w3.org/2000/svg">
<path d="M10 20C15.5228 20 20 15.5228 20 10C20 4.47715 15.5228 0 10 0C4.47715 0 0 4.47715 0 10C0 15.5228 4.47715 20 10 20Z" fill="white"/>
<path d="M9.99966 19.9986C8.68593 20.0023 7.38453 19.7452 6.17076 19.2426C4.957 18.7399 3.85498 18.0016 2.9285 17.0702C1.99708 16.1438 1.25867 15.042 0.755997 13.8282C0.253327 12.6145 -0.00361695 11.313 4.01687e-05 9.99934C-0.00369585 8.68564 0.253213 7.38418 0.755888 6.17044C1.25856 4.9567 1.99702 3.85488 2.9285 2.92848C3.85493 1.99702 4.95692 1.25844 6.1707 0.755777C7.38447 0.253118 8.68592 -0.00369572 9.99966 4.01809e-05C11.3134 -0.00369572 12.6148 0.253118 13.8286 0.755777C15.0424 1.25844 16.1444 1.99702 17.0708 2.92848C18.0023 3.85488 18.7408 4.9567 19.2434 6.17044C19.7461 7.38418 20.003 8.68564 19.9993 9.99934C20.0029 11.313 19.746 12.6145 19.2433 13.8282C18.7406 15.042 18.0022 16.1438 17.0708 17.0702C16.1443 18.0016 15.0423 18.7399 13.8286 19.2426C12.6148 19.7452 11.3134 20.0023 9.99966 19.9986ZM9.99966 1.42851C7.72722 1.43097 5.54855 2.33478 3.94169 3.94159C2.33483 5.5484 1.43101 7.72697 1.42856 9.99934C1.43101 12.2717 2.33483 14.4503 3.94169 16.0571C5.54855 17.6639 7.72722 18.5677 9.99966 18.5702C12.2721 18.5677 14.4508 17.6639 16.0576 16.0571C17.6645 14.4503 18.5683 12.2717 18.5708 9.99934C18.5683 7.72697 17.6645 5.5484 16.0576 3.94159C14.4508 2.33478 12.2721 1.43097 9.99966 1.42851Z" fill="#122951"/>
<path opacity="0.41" d="M9.28464 19.9742V18.5408C9.52273 18.5608 9.76081 18.5708 9.9989 18.5708C10.237 18.5708 10.4751 18.5611 10.7132 18.5415V19.9749C10.4751 19.9916 10.237 20 9.9989 20C9.76081 20 9.52273 19.9913 9.28464 19.9742ZM15.5315 16.5411C15.8953 16.2329 16.2328 15.8951 16.5408 15.5311L17.5572 16.5474C17.402 16.7264 17.2396 16.9004 17.0701 17.0695C16.9005 17.2385 16.7265 17.401 16.5479 17.5567L15.5315 16.5411ZM2.92916 17.0702C2.75964 16.9007 2.59704 16.7264 2.44133 16.5474L3.45773 15.5311C3.76592 15.8951 4.10373 16.2329 4.46769 16.5411L3.4513 17.5574C3.27226 17.4021 3.09774 17.2397 2.92774 17.0702H2.92916ZM18.5407 10.7135C18.5603 10.4755 18.57 10.2374 18.57 9.9993C18.57 9.76122 18.5603 9.52315 18.5407 9.28507H19.9742C19.9909 9.52315 19.9992 9.76122 19.9992 9.9993C19.9992 10.2374 19.9909 10.4755 19.9742 10.7135H18.5407ZM0.0250017 10.7135C0.00833563 10.4755 0 10.2374 0 9.9993C0 9.76122 0.00833563 9.52315 0.0250017 9.28507H1.45851C1.43899 9.52315 1.42924 9.76122 1.42924 9.9993C1.42924 10.2374 1.43899 10.4755 1.45851 10.7135H0.0250017ZM2.44133 3.45191C2.59704 3.27287 2.75964 3.09887 2.92916 2.92983C3.09868 2.7608 3.27298 2.59811 3.45202 2.44193L4.46769 3.45749C4.1038 3.76601 3.766 4.10406 3.45773 4.46816L2.44133 3.45191ZM15.5315 3.45749L16.5472 2.44193C16.7263 2.59764 16.9005 2.76032 17.0701 2.92983C17.2396 3.09934 17.402 3.27335 17.5572 3.45191L16.5408 4.46816C16.2326 4.10396 15.8955 3.76589 15.5315 3.45749ZM9.28464 0.0251099C9.52273 0.00844435 9.76081 0 9.9989 0C10.237 0 10.4751 0.00844435 10.7132 0.0251099V1.45707C10.4775 1.43755 10.2394 1.42777 9.9989 1.42777C9.75843 1.42777 9.52035 1.43777 9.28464 1.45777V0.0251099Z" fill="white"/>
<path d="M10.6068 14.9647C13.0907 14.9647 15.1043 12.9552 15.1043 10.4765C15.1043 7.99772 13.0907 5.98828 10.6068 5.98828C8.12293 5.98828 6.10938 7.99772 6.10938 10.4765C6.10938 12.9552 8.12293 14.9647 10.6068 14.9647Z" fill="url(#paint0_linear_4446_67003)"/>
<path d="M12.5188 9.18585C12.8028 9.18585 13.0396 8.94965 13.0396 8.66618C13.0396 8.38272 12.8028 8.14648 12.5188 8.14648C12.2348 8.14648 11.998 8.38272 11.998 8.66618C11.998 8.94965 12.2348 9.18585 12.5188 9.18585Z" fill="white"/>
<path d="M13.1823 11.9869C13.5453 11.9869 13.8451 11.6877 13.8451 11.3255C13.8451 10.9633 13.5453 10.6641 13.1823 10.6641C12.8194 10.6641 12.5195 10.9633 12.5195 11.3255C12.5195 11.6877 12.8194 11.9869 13.1823 11.9869Z" fill="white"/>
<path d="M15.136 10.6457C15.4202 10.5669 15.6411 10.3149 15.6411 9.99999C15.6411 9.68503 15.4359 9.43306 15.136 9.35433C14.9467 7.73227 14.0156 6.33071 12.7059 5.49606L12.9268 5.25984C13.0057 5.29134 13.1004 5.30709 13.1951 5.30709C13.558 5.30709 13.8578 5.00787 13.8578 4.64567C13.8578 4.28346 13.558 4 13.1793 4C12.8005 4 12.5165 4.29921 12.5165 4.66142C12.5165 4.7874 12.5481 4.89764 12.6112 5.00787L12.3271 5.30709C11.5855 4.91339 10.7333 4.69291 9.8338 4.69291C6.89864 4.69291 4.5 7.08661 4.5 10.0157C4.5 12.9449 6.89864 15.3386 9.8338 15.3386C10.7333 15.3386 11.5855 15.1181 12.3271 14.7244L12.6112 15.0079C12.5481 15.1023 12.5165 15.2126 12.5165 15.3386C12.5165 15.7008 12.8163 16 13.1793 16C13.5422 16 13.8421 15.7008 13.8421 15.3386C13.8421 14.9764 13.5422 14.6772 13.1793 14.6772C13.0846 14.6772 12.9899 14.6929 12.911 14.7402L12.6901 14.5197C13.9999 13.6535 14.9309 12.2677 15.136 10.6457ZM14.7258 9.38583C14.4733 9.48032 14.2997 9.71652 14.2997 9.99999C14.2997 10.2835 14.4733 10.5197 14.71 10.6142C14.5206 12.126 13.6369 13.4173 12.3903 14.1732L8.71339 10.3307C8.76074 10.2362 8.79229 10.126 8.79229 9.99999C8.79229 9.874 8.76074 9.76378 8.69763 9.66929L12.3903 5.81102C13.6527 6.56692 14.5364 7.87402 14.7258 9.38583ZM9.8338 14.8976C7.11957 14.8976 4.91028 12.6929 4.91028 9.98425C4.91028 7.27559 7.11957 5.07087 9.8338 5.07087C10.6228 5.07087 11.3645 5.25984 12.0273 5.59055L8.3978 9.38583C8.38201 9.38583 8.36622 9.37007 8.35044 9.37007V7.29133C8.61872 7.19684 8.79229 6.96063 8.79229 6.6614C8.79229 6.29921 8.49246 6 8.12951 6C7.76656 6 7.46673 6.29921 7.46673 6.6614C7.46673 6.96063 7.67187 7.2126 7.94016 7.29133V9.35433C7.67187 9.43306 7.46673 9.68503 7.46673 9.98425C7.46673 10.2835 7.67187 10.5354 7.94016 10.6142V12.6614C7.67187 12.7401 7.46673 12.9921 7.46673 13.2913C7.46673 13.6535 7.76656 13.9528 8.12951 13.9528C8.49246 13.9528 8.79229 13.6535 8.79229 13.2913C8.79229 13.0079 8.60294 12.7559 8.35044 12.6614V10.6299C8.36622 10.6299 8.38201 10.6142 8.3978 10.6142L12.0115 14.3937C11.3645 14.7244 10.6228 14.8976 9.8338 14.8976Z" fill="#122951"/>
<defs>
<linearGradient id="paint0_linear_4446_67003" x1="6.3906" y1="9.55166" x2="14.4601" y2="11.0647" gradientUnits="userSpaceOnUse">
<stop stop-color="#9AC9EF"/>
<stop offset="1" stop-color="#7398BF"/>
</linearGradient>
</defs>
</svg>
