<svg width="32" height="32" viewBox="0 0 32 32" fill="none" xmlns="http://www.w3.org/2000/svg">
<g clip-path="url(#clip0_4446_67004)">
<path d="M16 32C24.8365 32 32 24.8365 32 16C32 7.16344 24.8365 0 16 0C7.16344 0 0 7.16344 0 16C0 24.8365 7.16344 32 16 32Z" fill="url(#paint0_linear_4446_67004)"/>
<path d="M10.2461 5.982V14.0105C10.2461 14.282 10.5041 14.5027 10.7757 14.5027C11.0472 14.5027 11.3052 14.282 11.3052 14.0105V6.39275C11.7941 6.30789 12.344 6.26376 12.8804 6.26376C18.0335 6.26376 22.2532 10.1303 22.7148 15.2529C22.7386 15.5245 22.9729 15.7248 23.241 15.6976C23.5125 15.6739 23.7095 15.4362 23.6823 15.1647C23.4413 12.4727 22.2057 9.97757 20.2061 8.14442C18.1965 6.29771 15.5826 5.2793 12.8532 5.2793C12.1166 5.2793 11.3663 5.35399 10.6501 5.49995C10.4226 5.54747 10.2461 5.74776 10.2461 5.982Z" fill="white"/>
<path d="M13.1094 26.5043C13.1094 26.5146 13.1094 26.5282 13.1094 26.5383C13.1297 26.8099 13.364 27.0136 13.6356 26.9933C16.2121 26.8099 18.6496 25.7032 20.4929 23.8837C22.3361 22.0642 23.47 19.6437 23.6838 17.0739C23.7076 16.8023 23.5073 16.5647 23.2358 16.541C22.9641 16.5171 22.7265 16.7175 22.7028 16.989C22.2988 21.7891 18.3712 25.6693 13.5643 26.0122C13.3097 26.0325 13.1094 26.2498 13.1094 26.5043Z" fill="white"/>
<path d="M12.3672 7.90629V15.8804C12.3672 16.1521 12.5845 16.3727 12.856 16.3727C13.1276 16.3727 13.3449 16.1521 13.3449 15.8804V8.4155C17.337 8.67009 20.6061 12.041 20.6061 16.1486C20.6061 17.9953 19.9475 19.7809 18.7493 21.183C18.5727 21.39 18.5965 21.699 18.8035 21.8755C19.0106 22.0519 19.3195 22.0283 19.496 21.8212C20.8472 20.2427 21.5872 18.2295 21.5872 16.1486C21.5872 13.8165 20.6775 11.6235 19.0275 9.97366C17.3778 8.32384 15.1848 7.41406 12.8526 7.41406C12.5878 7.41406 12.3672 7.63472 12.3672 7.90629Z" fill="#99D7FD"/>
<path d="M13.1094 22.1765C13.1094 22.1968 13.1094 22.2172 13.1128 22.2375C13.1467 22.5058 13.3911 22.6992 13.6593 22.6653C16.942 22.2613 19.4168 19.4607 19.4168 16.1509C19.4168 14.7896 19.0025 13.4826 18.2217 12.3726C17.458 11.2896 16.3988 10.4681 15.1632 10.003C15.0138 9.94534 14.8339 9.96571 14.7015 10.0574C14.5691 10.149 14.4808 10.3018 14.4808 10.4613V17.4069C14.4808 17.6784 14.6981 17.8991 14.9697 17.8991C15.2412 17.8991 15.4585 17.6784 15.4585 17.4069V11.2285C17.2508 12.1892 18.422 14.0869 18.422 16.1509C18.422 18.965 16.3241 21.3447 13.5371 21.6876C13.2859 21.7215 13.1094 21.932 13.1094 22.1765Z" fill="white"/>
<path d="M10.7456 15.7021C11.3774 15.7021 11.8896 15.1899 11.8896 14.5581C11.8896 13.9263 11.3774 13.4141 10.7456 13.4141C10.1138 13.4141 9.60156 13.9263 9.60156 14.5581C9.60156 15.1899 10.1138 15.7021 10.7456 15.7021Z" fill="white"/>
<path d="M13.1128 27.6319C13.7446 27.6319 14.2568 27.1196 14.2568 26.4879C14.2568 25.8561 13.7446 25.3438 13.1128 25.3438C12.4809 25.3438 11.9688 25.8561 11.9688 26.4879C11.9688 27.1196 12.4809 27.6319 13.1128 27.6319Z" fill="white"/>
<path d="M16 31.75C24.698 31.75 31.75 24.698 31.75 16C31.75 7.302 24.698 0.25 16 0.25C7.302 0.25 0.25 7.302 0.25 16C0.25 24.698 7.302 31.75 16 31.75Z" stroke="white" stroke-width="0.5"/>
</g>
<defs>
<linearGradient id="paint0_linear_4446_67004" x1="16" y1="0" x2="16" y2="32" gradientUnits="userSpaceOnUse">
<stop stop-color="#2C4A91"/>
<stop offset="1" stop-color="#040D21"/>
</linearGradient>
<clipPath id="clip0_4446_67004">
<rect width="32" height="32" fill="white"/>
</clipPath>
</defs>
</svg>
