<svg width="200" height="200" viewBox="0 0 200 200" fill="none" xmlns="http://www.w3.org/2000/svg">
<circle cx="100" cy="100" r="100" fill="url(#paint0_linear_2857_877)"/>
<mask id="mask0_2857_877" style="mask-type:luminance" maskUnits="userSpaceOnUse" x="30" y="30" width="140" height="140">
<path d="M169.337 30.8818H30.6633V169.118H169.337V30.8818Z" fill="white"/>
</mask>
<g mask="url(#mask0_2857_877)">
<path d="M38.1859 117.092C35.0839 113.999 33.0035 110.427 31.9449 106.377C30.9109 102.303 30.9109 98.2279 31.9449 94.1531C33.0035 90.0539 35.0716 86.4701 38.1489 83.4019C41.2756 80.2845 44.8823 78.2103 48.9691 77.1795C53.0559 76.1484 57.1427 76.1484 61.2295 77.1795C65.3162 78.2103 68.9106 80.2721 72.0128 83.3651L79.6938 91.0237L91.0681 79.683L83.3868 72.0247C80.2846 68.9318 78.2044 65.3602 77.1456 61.3101C76.1117 57.2354 76.0996 53.1729 77.1088 49.1227C78.143 45.048 80.2233 41.452 83.3499 38.3346C86.4517 35.2417 90.0462 33.1798 94.1331 32.1489C98.2199 31.1179 102.294 31.1302 106.356 32.1857C110.443 33.2166 114.038 35.2786 117.14 38.3714C120.242 41.4643 122.31 45.048 123.344 49.1227C124.402 53.1729 124.415 57.2354 123.381 61.3101C122.371 65.4093 120.316 69.0055 117.214 72.0981L109.569 79.7199L120.907 91.0237L128.551 83.4019C131.653 80.309 135.235 78.2347 139.297 77.1795C143.384 76.1484 147.458 76.1605 151.521 77.216C155.607 78.2471 159.214 80.3214 162.34 83.4388C165.443 86.5317 167.511 90.1152 168.544 94.19C169.603 98.2403 169.603 102.29 168.544 106.341C167.511 110.415 165.443 113.999 162.34 117.092C159.214 120.209 155.607 122.283 151.521 123.315C147.458 124.321 143.384 124.308 139.297 123.278C135.259 122.247 131.69 120.185 128.588 117.092L120.943 109.47L109.569 120.811L117.214 128.432C120.316 131.525 122.371 135.097 123.381 139.147C124.415 143.222 124.415 147.296 123.381 151.371C122.347 155.446 120.266 159.042 117.14 162.159C114.062 165.227 110.468 167.29 106.356 168.345C102.269 169.376 98.183 169.376 94.0962 168.345C90.0586 167.314 86.4886 165.252 83.3868 162.159C80.2602 159.042 78.1675 155.458 77.1088 151.408C76.0748 147.333 76.0748 143.258 77.1088 139.184C78.1923 135.109 80.2726 131.537 83.3499 128.469L91.0681 120.774L79.731 109.47L72.0128 117.166C68.9355 120.234 65.3286 122.283 61.1925 123.315C57.1057 124.345 53.019 124.345 48.9322 123.315C44.87 122.259 41.2879 120.185 38.1859 117.092ZM47.4181 107.887C48.8214 109.286 50.4462 110.219 52.2927 110.685C54.1638 111.176 56.0225 111.188 57.869 110.722C59.7154 110.256 61.3403 109.323 62.7436 107.924L70.4617 100.228L62.7805 92.5702C61.3772 91.1708 59.74 90.2503 57.869 89.8086C56.0225 89.3422 54.1761 89.3422 52.3297 89.8086C50.4832 90.2751 48.846 91.2201 47.4181 92.6435C46.0148 94.0429 45.067 95.6507 44.5746 97.4669C44.1068 99.3079 44.1068 101.149 44.5746 102.99C45.067 104.855 46.0148 106.488 47.4181 107.887ZM92.6188 62.8197L100.3 70.4783L107.944 62.8565C109.372 61.4328 110.308 59.8128 110.751 57.9963C111.219 56.1553 111.207 54.3021 110.714 52.4365C110.246 50.5955 109.311 48.9755 107.907 47.5763C106.504 46.1772 104.879 45.2444 103.033 44.778C101.186 44.3116 99.3399 44.3116 97.4936 44.778C95.6717 45.2198 94.0469 46.1526 92.6188 47.5763C91.2156 48.9755 90.2557 50.5955 89.7386 52.4365C89.2707 54.2775 89.2707 56.1185 89.7386 57.9595C90.2557 59.8005 91.2156 61.4205 92.6188 62.8197ZM128.013 100.265L135.657 107.887C137.06 109.286 138.673 110.231 140.495 110.722C142.341 111.188 146.338 111.176 148.16 110.685C150.006 110.219 151.644 109.274 153.072 107.85C154.499 106.426 155.435 104.807 155.878 102.99C156.37 101.173 156.383 99.3448 155.915 97.5038C155.447 95.6627 154.512 94.0429 153.108 92.6435C151.68 91.2201 150.043 90.2751 148.197 89.8086C146.35 89.3422 142.341 89.3422 140.495 89.8086C138.698 90.2751 137.085 91.2201 135.657 92.6435L128.013 100.265ZM92.6188 152.954C94.0225 154.354 95.6473 155.286 97.4936 155.753C99.3399 156.219 101.174 156.207 102.996 155.716C104.842 155.249 106.467 154.317 107.871 152.917C109.298 151.494 110.246 149.862 110.714 148.021C111.207 146.204 111.219 144.375 110.751 142.534C110.308 140.669 109.385 139.037 107.981 137.637L100.337 130.015L92.6188 137.711C91.2156 139.11 90.2678 140.718 89.7754 142.534C89.3076 144.375 89.3076 146.216 89.7754 148.057C90.2433 149.898 91.1911 151.531 92.6188 152.954ZM88.963 100.265L100.3 111.569L111.674 100.228L100.337 88.925L88.963 100.265Z" fill="#F1E1D2"/>
</g>
<defs>
<linearGradient id="paint0_linear_2857_877" x1="100" y1="-2.25231e-06" x2="100" y2="200" gradientUnits="userSpaceOnUse">
<stop stop-color="#4A4443"/>
<stop offset="1" stop-color="#100E0E"/>
</linearGradient>
</defs>
</svg>
