<svg width="20" height="20" viewBox="0 0 20 20" fill="none" xmlns="http://www.w3.org/2000/svg">
<path d="M9.99991 19.285C15.1279 19.285 19.285 15.1279 19.285 9.99991C19.285 4.87191 15.1279 0.714844 9.99991 0.714844C4.87191 0.714844 0.714844 4.87191 0.714844 9.99991C0.714844 15.1279 4.87191 19.285 9.99991 19.285Z" fill="white"/>
<path d="M9.99934 19.9986C8.68565 20.0023 7.3843 19.7452 6.17057 19.2426C4.95684 18.7399 3.85486 18.0016 2.92841 17.0702C1.99702 16.1438 1.25863 15.042 0.755973 13.8282C0.253319 12.6145 -0.00361684 11.313 4.01675e-05 9.99934C-0.00369573 8.68564 0.253206 7.38418 0.755864 6.17044C1.25852 4.9567 1.99696 3.85488 2.92841 2.92848C3.85481 1.99702 4.95677 1.25844 6.1705 0.755777C7.38424 0.253118 8.68564 -0.00369572 9.99934 4.01809e-05C11.313 -0.00369572 12.6144 0.253118 13.8282 0.755777C15.0419 1.25844 16.1439 1.99702 17.0703 2.92848C18.0017 3.85488 18.7402 4.9567 19.2428 6.17044C19.7455 7.38418 20.0024 8.68564 19.9986 9.99934C20.0023 11.313 19.7454 12.6145 19.2427 13.8282C18.7401 15.042 18.0017 16.1438 17.0703 17.0702C16.1438 18.0016 15.0418 18.7399 13.8281 19.2426C12.6144 19.7452 11.313 20.0023 9.99934 19.9986ZM9.99934 1.42851C7.72697 1.43097 5.54838 2.33478 3.94157 3.94159C2.33476 5.5484 1.43097 7.72697 1.42851 9.99934C1.43097 12.2717 2.33476 14.4503 3.94157 16.0571C5.54838 17.6639 7.72697 18.5677 9.99934 18.5702C12.2717 18.5677 14.4503 17.6639 16.0571 16.0571C17.6639 14.4503 18.5677 12.2717 18.5702 9.99934C18.5677 7.72697 17.6639 5.5484 16.0571 3.94159C14.4503 2.33478 12.2717 1.43097 9.99934 1.42851Z" fill="#E53935"/>
<path opacity="0.7" d="M9.2863 19.9742V18.5408C9.52438 18.5608 9.76246 18.5708 10.0005 18.5708C10.2386 18.5708 10.4767 18.5611 10.7148 18.5415V19.9749C10.4767 19.9916 10.2386 20 10.0005 20C9.76246 20 9.52438 19.9913 9.2863 19.9742ZM15.533 16.5411C15.8967 16.2329 16.2343 15.8951 16.5422 15.5311L17.5586 16.5474C17.4034 16.7264 17.241 16.9004 17.0715 17.0695C16.902 17.2385 16.7279 17.401 16.5494 17.5567L15.533 16.5411ZM2.93102 17.0702C2.76151 16.9007 2.59891 16.7264 2.44321 16.5474L3.45957 15.5311C3.76776 15.8951 4.10556 16.2329 4.4695 16.5411L3.45314 17.5574C3.27411 17.4021 3.09959 17.2397 2.92961 17.0702H2.93102ZM18.5421 10.7135C18.5616 10.4755 18.5714 10.2374 18.5714 9.9993C18.5714 9.76122 18.5616 9.52315 18.5421 9.28507H19.9756C19.9922 9.52315 20.0006 9.76122 20.0006 9.9993C20.0006 10.2374 19.9922 10.4755 19.9756 10.7135H18.5421ZM0.026954 10.7135C0.0102885 10.4755 0.00195312 10.2374 0.00195312 9.9993C0.00195312 9.76122 0.0102885 9.52315 0.026954 9.28507H1.46042C1.44089 9.52315 1.43114 9.76122 1.43114 9.9993C1.43114 10.2374 1.44089 10.4755 1.46042 10.7135H0.026954ZM2.44321 3.45191C2.59891 3.27287 2.76151 3.09887 2.93102 2.92983C3.10053 2.7608 3.27483 2.59811 3.45386 2.44193L4.4695 3.45749C4.10562 3.76601 3.76783 4.10406 3.45957 4.46816L2.44321 3.45191ZM15.533 3.45749L16.5487 2.44193C16.7277 2.59764 16.902 2.76032 17.0715 2.92983C17.241 3.09934 17.4034 3.27335 17.5586 3.45191L16.5422 4.46816C16.2341 4.10396 15.8963 3.76589 15.5323 3.45749H15.533ZM9.2863 0.0251099C9.52438 0.00844435 9.76246 0 10.0005 0C10.2386 0 10.4767 0.00844435 10.7148 0.0251099V1.45707C10.4791 1.43755 10.241 1.42777 10.0005 1.42777C9.76008 1.42777 9.522 1.43777 9.2863 1.45777V0.0251099Z" fill="white"/>
<path d="M14.901 6.93466V6.22825H12.6632C12.543 5.77161 12.423 5.36956 12.292 5L11.5387 5.13041C11.6827 5.49035 11.8102 5.85668 11.9208 6.22825H9.55218V6.93466H14.901ZM9.16992 12.1843V7.67377H8.06729C8.29644 7.33671 8.5258 6.92382 8.75516 6.42386V5.90202H6.95382C7.05215 5.68474 7.13943 5.46726 7.22672 5.23915L6.52823 5.02167C6.20075 6.0868 5.68766 6.94549 5 7.60857L5.16373 8.38018C5.30539 8.24977 5.44747 8.11937 5.57829 7.97813V12.1843H9.16992ZM7.31422 7.67377H5.8514C6.14663 7.31113 6.41304 6.92595 6.64822 6.52177H8.02374C7.78355 6.95632 7.55441 7.34775 7.31422 7.67377ZM11.8118 14.9993C12.3576 14.9993 12.6413 14.6952 12.6413 14.0973V10.9996H14.3771V7.91292H10.1305V10.9996H11.8772V13.9125C11.8772 14.1842 11.7681 14.3254 11.5497 14.3254C11.2985 14.3254 11.0367 14.3037 10.7748 14.2712L10.9275 14.9993H11.8116H11.8118ZM7.06298 9.60843H6.25533V8.31498H7.06298V9.60843ZM8.49309 9.60843H7.69627V8.31498H8.49309V9.60843ZM13.6346 10.3148H10.8729V8.6085H13.6346V10.3148ZM8.49329 11.5323H7.69627V10.2386H8.49309V11.5323H8.49329ZM7.06298 11.5323H6.25533V10.2386H7.06298V11.5323ZM14.4208 14.4993L14.9993 14.0973C14.7045 13.4015 14.2896 12.5974 13.7438 11.6735L13.1653 12.0214C13.6892 12.9234 14.115 13.7494 14.4206 14.4993H14.4208ZM9.84674 14.6841C10.3271 13.9342 10.7419 13.043 11.0912 12.0212L10.4579 11.717C10.1196 12.6951 9.71571 13.5429 9.2572 14.2602L9.84674 14.6841ZM8.94056 13.945L9.47552 13.8146C9.32283 13.293 9.16991 12.8363 8.99534 12.4451L8.48226 12.5972C8.65945 13.0378 8.81245 13.4877 8.94056 13.945ZM7.78356 14.5754L8.35123 14.5102C8.28561 13.6842 8.16582 13.0321 7.99083 12.5538L7.44504 12.6191C7.61982 13.0755 7.72898 13.7277 7.78356 14.5754ZM5.69849 14.8689C5.92764 14.2277 6.06972 13.4994 6.13513 12.6732L5.54558 12.5974C5.49121 13.3798 5.33831 14.0754 5.09812 14.6841L5.69849 14.8689ZM6.61551 14.7385L7.18318 14.6733C7.1613 13.8146 7.10673 13.1299 7.03028 12.6299L6.50635 12.6951C6.56093 13.1734 6.59385 13.8581 6.61551 14.7385Z" fill="#E53935"/>
</svg>
