<svg width="33" height="32" viewBox="0 0 33 32" fill="none" xmlns="http://www.w3.org/2000/svg">
<circle cx="16.1836" cy="16" r="16" fill="black"/>
<path d="M16.1836 0C25.0196 0 32.1836 7.1636 32.1836 16C32.1836 24.8364 25.0196 32 16.1836 32C7.34679 32 0.183594 24.8364 0.183594 16C0.183594 7.1636 7.34679 0 16.1836 0ZM16.1836 1.4932C8.17159 1.4932 1.67679 7.988 1.67679 16C1.67679 24.012 8.17159 30.5068 16.1836 30.5068C24.1956 30.5068 30.69 24.012 30.69 16C30.69 7.988 24.1952 1.4932 16.1836 1.4932Z" fill="#E53935"/>
<path d="M24.7399 10.6505V9.41744H20.8338C20.6239 8.62035 20.4145 7.91853 20.1858 7.27344L18.8708 7.50107C19.1222 8.12938 19.3447 8.76883 19.5378 9.41744H15.4032V10.6505H24.7399ZM14.7359 19.8142V11.9407H12.8112C13.2112 11.3523 13.6116 10.6316 14.0119 9.75889V8.84798H10.8676C11.0392 8.46871 11.1916 8.08907 11.3439 7.69089L10.1247 7.31126C9.55303 9.17053 8.6574 10.6694 7.45703 11.8269L7.74284 13.1738C7.99011 12.9462 8.23812 12.7185 8.46649 12.472V19.8142H14.7359ZM11.4967 11.9407H8.94322C9.45855 11.3077 9.9236 10.6353 10.3341 9.9298H12.7352C12.3159 10.6883 11.9159 11.3716 11.4967 11.9407ZM19.3476 24.728C20.3003 24.728 20.7956 24.1971 20.7956 23.1534V17.7462H23.8254V12.3582H16.4127V17.7462H19.4618V22.8309C19.4618 23.3051 19.2712 23.5516 18.8901 23.5516C18.4516 23.5516 17.9945 23.5138 17.5374 23.4571L17.8039 24.728H19.3472H19.3476ZM11.0581 15.3178H9.6483V13.06H11.0581V15.3178ZM13.5545 15.3178H12.1636V13.06H13.5545V15.3178ZM22.5294 16.5509H17.7087V13.5723H22.5294V16.5509ZM13.5548 18.676H12.1636V16.4178H13.5545V18.676H13.5548ZM11.0581 18.676H9.6483V16.4178H11.0581V18.676ZM23.9018 23.8553L24.9116 23.1534C24.397 21.9389 23.6727 20.5353 22.7199 18.9225L21.7101 19.5298C22.6247 21.1043 23.3679 22.5462 23.9014 23.8553H23.9018ZM15.9174 24.1778C16.7559 22.8687 17.4799 21.3131 18.0898 19.5294L16.9843 18.9985C16.3938 20.7058 15.6887 22.1858 14.8883 23.4378L15.9174 24.1778ZM14.3356 22.8876L15.2694 22.66C15.0029 21.7494 14.7359 20.9523 14.4312 20.2694L13.5356 20.5349C13.8449 21.304 14.1119 22.0894 14.3356 22.8876ZM12.3159 23.988L13.3069 23.8742C13.1923 22.4323 12.9832 21.2942 12.6778 20.4593L11.725 20.5731C12.0301 21.3698 12.2207 22.5083 12.3159 23.988ZM8.6763 24.5003C9.0763 23.3811 9.32431 22.1098 9.43849 20.6676L8.40939 20.5353C8.31448 21.9011 8.04758 23.1153 7.62831 24.1778L8.6763 24.5003ZM10.277 24.2727L11.2679 24.1589C11.2298 22.66 11.1345 21.4647 11.001 20.592L10.0865 20.7058C10.1818 21.5407 10.2392 22.736 10.277 24.2727Z" fill="#E53935"/>
<circle cx="16.1836" cy="16" r="15.75" stroke="white" stroke-width="0.5"/>
</svg>
