<svg width="32" height="32" viewBox="0 0 32 32" fill="none" xmlns="http://www.w3.org/2000/svg">
<g clip-path="url(#clip0_613_798)">
<path d="M31.75 16C31.75 24.698 24.698 31.75 16 31.75C7.302 31.75 0.25 24.698 0.25 16C0.25 7.302 7.302 0.25 16 0.25C24.698 0.25 31.75 7.302 31.75 16Z" fill="url(#paint0_linear_613_798)" stroke="white" stroke-width="0.5"/>
<path d="M10.0629 20.0564C9.66494 19.2744 9.46794 18.4064 9.48994 17.5284C9.47494 16.7034 9.62994 15.8844 9.94194 15.1214C10.1939 14.5054 10.5319 13.9284 10.9439 13.4074C11.3119 12.9714 11.7679 12.6174 12.2829 12.3694C12.8059 12.1054 13.3829 11.9694 13.9679 11.9704C14.7019 11.9334 15.4209 12.1894 15.9669 12.6804L18.2469 10.7764C18.2019 10.3804 18.1779 9.98135 18.1769 9.58235C18.1769 7.01935 18.8559 5.73735 20.2109 5.73735C20.3659 5.73035 20.5209 5.75935 20.6629 5.82235C20.8049 5.88535 20.9299 5.98135 21.0289 6.10235C21.2349 6.37035 21.3509 6.69835 21.3589 7.03635C21.3569 7.63335 21.1689 8.21435 20.8209 8.69935C20.3619 9.36735 19.8249 9.97735 19.2209 10.5174C19.5009 12.1324 19.6799 13.7634 19.7589 15.4004C19.7609 16.2424 19.6489 17.0804 19.4289 17.8934C19.2169 18.6724 18.8759 19.4094 18.4209 20.0754C17.9509 20.7474 17.3089 21.2794 16.5609 21.6154C15.6989 22.0014 14.7609 22.1904 13.8159 22.1704C13.1689 22.2104 12.5229 22.0944 11.9319 21.8284C11.3419 21.5634 10.8249 21.1584 10.4269 20.6474C10.2079 21.4524 10.1029 22.2854 10.1139 23.1194C10.0999 24.0104 10.3539 24.8844 10.8409 25.6294C11.0339 25.9694 11.3109 26.2504 11.6469 26.4484C11.9819 26.6454 12.3629 26.7514 12.7519 26.7564C12.8109 26.7564 12.8399 26.8134 12.8399 26.9294C12.8399 27.0444 12.8099 27.1024 12.7519 27.1024C12.2969 27.0984 11.8509 26.9784 11.4559 26.7524C11.0609 26.5254 10.7309 26.2014 10.4979 25.8104C9.91294 24.9734 9.60294 23.9754 9.61194 22.9534C9.59994 21.9694 9.75194 20.9904 10.0629 20.0564V20.0564ZM16.2669 13.0104C16.5879 13.4404 16.7599 13.9634 16.7539 14.5004C16.7609 15.0024 16.6729 15.5024 16.4939 15.9724C16.3099 16.4274 16.0039 16.8234 15.6079 17.1154C15.1919 17.4374 14.6789 17.6084 14.1529 17.5994C14.0529 17.6044 13.9549 17.5734 13.8749 17.5124C13.8079 17.4344 13.7649 17.3384 13.7529 17.2364C14.0179 17.2264 14.2789 17.1604 14.5159 17.0404C14.7529 16.9204 14.9609 16.7514 15.1259 16.5434C15.7019 15.9634 16.0259 15.1794 16.0289 14.3624C16.0299 14.0294 15.9659 13.6994 15.8389 13.3924C14.6529 14.3844 13.5509 15.4724 12.5439 16.6474C11.6779 17.6664 11.0139 18.8404 10.5849 20.1074C10.9099 20.6314 11.3709 21.0574 11.9189 21.3384C12.4669 21.6204 13.0809 21.7484 13.6959 21.7074C14.4909 21.7254 15.2759 21.5344 15.9729 21.1534C16.6139 20.8124 17.1489 20.3004 17.5189 19.6754C18.2829 18.3194 18.6619 16.7814 18.6139 15.2254C18.6139 14.7994 18.5099 13.5004 18.3009 11.3304L16.2669 13.0104V13.0104ZM15.5709 13.0284C15.3709 12.8284 15.1329 12.6744 14.8689 12.5734C14.6059 12.4734 14.3239 12.4304 14.0429 12.4464C13.4259 12.4374 12.8179 12.5994 12.2869 12.9134C11.2539 13.5864 10.5149 14.6254 10.2189 15.8224C10.0349 16.3964 9.94094 16.9954 9.94194 17.5984C9.93494 18.2434 10.0469 18.8844 10.2719 19.4884C11.5029 16.9464 13.3189 14.7314 15.5719 13.0264V13.0284H15.5709ZM19.0619 8.69835C19.0689 9.11635 19.0989 9.53235 19.1489 9.94535C20.0599 9.24935 20.6749 8.23535 20.8719 7.10535C20.8719 6.50535 20.6519 6.20535 20.2119 6.20535C19.4469 6.20535 19.0649 7.03535 19.0649 8.69735L19.0619 8.69935V8.69835Z" fill="white"/>
</g>
<defs>
<linearGradient id="paint0_linear_613_798" x1="16" y1="0" x2="16" y2="32" gradientUnits="userSpaceOnUse">
<stop stop-color="#BF9E32"/>
<stop offset="1" stop-color="#9B7D1C"/>
</linearGradient>
<clipPath id="clip0_613_798">
<rect width="32" height="32" fill="white"/>
</clipPath>
</defs>
</svg>
