<svg width="200" height="200" viewBox="0 0 200 200" fill="none" xmlns="http://www.w3.org/2000/svg">
<circle cx="100" cy="100" r="100" fill="url(#paint0_linear_2918_875)"/>
<path d="M148.234 132.139C136.998 132.139 127.908 123.031 127.908 111.81V81.3675H154.124V63.6604H127.908V34.375L107.819 45.102V63.6604H69.72C43.1624 63.6604 36.1826 95.6691 56.6116 107.588L77.3807 121.549C81.9771 124.955 80.1042 132.105 73.6349 132.105H45.3761V149.982H73.6362C100.364 149.982 107.173 117.974 86.7446 106.055L66.1452 92.0938C61.5488 88.6884 63.2513 81.3675 69.7206 81.3675H107.82V112.049C107.82 135.204 123.822 150 147.996 150H154.125V132.139H148.234Z" fill="white"/>
<defs>
<linearGradient id="paint0_linear_2918_875" x1="100" y1="0" x2="100" y2="200" gradientUnits="userSpaceOnUse">
<stop stop-color="#FF59A9"/>
<stop offset="1" stop-color="#E91179"/>
</linearGradient>
</defs>
</svg>
