<svg width="32" height="32" viewBox="0 0 32 32" fill="none" xmlns="http://www.w3.org/2000/svg">
<g clip-path="url(#clip0_613_851)">
<path d="M16 32C24.8366 32 32 24.8366 32 16C32 7.16344 24.8366 0 16 0C7.16344 0 0 7.16344 0 16C0 24.8366 7.16344 32 16 32Z" fill="url(#paint0_linear_613_851)"/>
<path d="M16 31.75C24.6985 31.75 31.75 24.6985 31.75 16C31.75 7.30152 24.6985 0.25 16 0.25C7.30152 0.25 0.25 7.30152 0.25 16C0.25 24.6985 7.30152 31.75 16 31.75Z" stroke="white" stroke-width="0.5"/>
<path d="M16.381 25C14.323 25 12.636 24.519 11.321 23.557C10.112 22.674 9.34199 21.443 9.01099 19.864C8.98584 19.7513 9.00421 19.6332 9.06244 19.5334C9.12067 19.4336 9.21445 19.3595 9.32499 19.326L12.173 18.531C12.418 18.462 12.665 18.631 12.733 18.895C12.883 19.468 13.09 19.934 13.357 20.294C13.718 20.752 14.153 21.084 14.662 21.29C15.192 21.473 15.766 21.565 16.381 21.565C17.315 21.565 18.004 21.393 18.45 21.05C18.895 20.683 19.118 20.237 19.118 19.71C19.118 19.183 18.906 18.782 18.482 18.508C18.057 18.21 17.378 17.969 16.445 17.786L15.554 17.614C14.5178 17.4059 13.5048 17.0953 12.53 16.687C11.617 16.275 10.885 15.714 10.334 15.004C9.78199 14.294 9.50599 13.378 9.50599 12.256C9.50599 10.561 10.079 9.267 11.225 8.374C12.371 7.458 13.877 7 15.745 7C17.505 7 18.97 7.424 20.137 8.27C21.175 9.025 21.895 9.988 22.295 11.16C22.3343 11.2741 22.327 11.399 22.2745 11.5077C22.2221 11.6164 22.1288 11.6999 22.015 11.74L19.167 12.686C18.919 12.768 18.661 12.601 18.577 12.336C18.383 11.726 18.076 11.276 17.654 10.985C17.144 10.618 16.508 10.435 15.744 10.435C14.98 10.435 14.397 10.584 13.994 10.882C13.591 11.156 13.389 11.546 13.389 12.05C13.389 12.6 13.601 13.011 14.026 13.286C14.45 13.538 15.023 13.733 15.744 13.87L16.636 14.042C17.824 14.271 18.896 14.58 19.85 14.969C20.826 15.336 21.59 15.874 22.142 16.584C22.715 17.271 23.001 18.21 23.001 19.401C23.001 21.187 22.396 22.573 21.187 23.557C19.999 24.52 18.397 25 16.381 25Z" fill="white"/>
</g>
<defs>
<linearGradient id="paint0_linear_613_851" x1="16" y1="0" x2="16" y2="32" gradientUnits="userSpaceOnUse">
<stop stop-color="#FF59A9"/>
<stop offset="1" stop-color="#E91179"/>
</linearGradient>
<clipPath id="clip0_613_851">
<rect width="32" height="32" fill="white"/>
</clipPath>
</defs>
</svg>
