<svg width="20" height="20" viewBox="0 0 20 20" fill="none" xmlns="http://www.w3.org/2000/svg">
<path d="M9.99991 19.285C15.1279 19.285 19.285 15.1279 19.285 9.99991C19.285 4.87191 15.1279 0.714844 9.99991 0.714844C4.87191 0.714844 0.714844 4.87191 0.714844 9.99991C0.714844 15.1279 4.87191 19.285 9.99991 19.285Z" fill="white"/>
<path d="M9.99934 19.9986C8.68565 20.0023 7.3843 19.7452 6.17057 19.2426C4.95684 18.7399 3.85486 18.0016 2.92841 17.0702C1.99702 16.1438 1.25863 15.042 0.755973 13.8282C0.253319 12.6145 -0.00361684 11.313 4.01675e-05 9.99934C-0.00369573 8.68564 0.253206 7.38418 0.755864 6.17044C1.25852 4.9567 1.99696 3.85488 2.92841 2.92848C3.85481 1.99702 4.95677 1.25844 6.1705 0.755777C7.38424 0.253118 8.68564 -0.00369572 9.99934 4.01809e-05C11.313 -0.00369572 12.6144 0.253118 13.8282 0.755777C15.0419 1.25844 16.1439 1.99702 17.0703 2.92848C18.0017 3.85488 18.7402 4.9567 19.2428 6.17044C19.7455 7.38418 20.0024 8.68564 19.9986 9.99934C20.0023 11.313 19.7454 12.6145 19.2427 13.8282C18.7401 15.042 18.0017 16.1438 17.0703 17.0702C16.1438 18.0016 15.0418 18.7399 13.8281 19.2426C12.6144 19.7452 11.313 20.0023 9.99934 19.9986ZM9.99934 1.42851C7.72697 1.43097 5.54838 2.33478 3.94157 3.94159C2.33476 5.5484 1.43097 7.72697 1.42851 9.99934C1.43097 12.2717 2.33476 14.4503 3.94157 16.0571C5.54838 17.6639 7.72697 18.5677 9.99934 18.5702C12.2717 18.5677 14.4503 17.6639 16.0571 16.0571C17.6639 14.4503 18.5677 12.2717 18.5702 9.99934C18.5677 7.72697 17.6639 5.5484 16.0571 3.94159C14.4503 2.33478 12.2717 1.43097 9.99934 1.42851V1.42851Z" fill="#163669"/>
<path opacity="0.7" d="M9.2863 19.9742V18.5408C9.52438 18.5608 9.76246 18.5708 10.0005 18.5708C10.2386 18.5708 10.4767 18.5611 10.7148 18.5415V19.9749C10.4767 19.9916 10.2386 20 10.0005 20C9.76246 20 9.52438 19.9913 9.2863 19.9742ZM15.533 16.5411C15.8967 16.2329 16.2343 15.8951 16.5422 15.5311L17.5586 16.5474C17.4034 16.7264 17.241 16.9004 17.0715 17.0695C16.902 17.2385 16.7279 17.401 16.5494 17.5567L15.533 16.5411ZM2.93102 17.0702C2.76151 16.9007 2.59891 16.7264 2.44321 16.5474L3.45957 15.5311C3.76776 15.8951 4.10555 16.2329 4.4695 16.5411L3.45314 17.5574C3.27411 17.4021 3.09959 17.2397 2.92961 17.0702H2.93102ZM18.5421 10.7135C18.5616 10.4755 18.5714 10.2374 18.5714 9.9993C18.5714 9.76122 18.5616 9.52315 18.5421 9.28507H19.9756C19.9922 9.52315 20.0006 9.76122 20.0006 9.9993C20.0006 10.2374 19.9922 10.4755 19.9756 10.7135H18.5421ZM0.026954 10.7135C0.0102885 10.4755 0.00195312 10.2374 0.00195312 9.9993C0.00195312 9.76122 0.0102885 9.52315 0.026954 9.28507H1.46042C1.44089 9.52315 1.43114 9.76122 1.43114 9.9993C1.43114 10.2374 1.44089 10.4755 1.46042 10.7135H0.026954ZM2.44321 3.45191C2.59891 3.27287 2.76151 3.09887 2.93102 2.92983C3.10053 2.7608 3.27483 2.59811 3.45386 2.44193L4.4695 3.45749C4.10562 3.76601 3.76783 4.10406 3.45957 4.46816L2.44321 3.45191ZM15.533 3.45749L16.5487 2.44193C16.7277 2.59764 16.902 2.76032 17.0715 2.92983C17.241 3.09934 17.4034 3.27335 17.5586 3.45191L16.5422 4.46816C16.2341 4.10396 15.8963 3.76589 15.5323 3.45749H15.533ZM9.2863 0.0251099C9.52438 0.00844435 9.76246 0 10.0005 0C10.2386 0 10.4767 0.00844435 10.7148 0.0251099V1.45707C10.4791 1.43755 10.241 1.42777 10.0005 1.42777C9.76008 1.42777 9.522 1.43777 9.2863 1.45777V0.0251099Z" fill="white"/>
<path d="M14.5061 11.6158H8.18295V8.17641H7.22609V12.0893C7.22694 12.1522 7.24023 12.2143 7.2652 12.2721C7.29016 12.3298 7.3263 12.382 7.37153 12.4257C7.41677 12.4694 7.47021 12.5038 7.52876 12.5267C7.58732 12.5497 7.64985 12.5608 7.71274 12.5595H13.2401L12.0992 13.5624H5.97001V7.89034H12.28C12.4003 7.89174 12.517 7.84971 12.6088 7.77197L14.8349 5.82537C14.9085 5.76345 14.961 5.68019 14.9851 5.5871C15.0093 5.49402 15.0039 5.39573 14.9697 5.30585C14.9325 5.21526 14.8692 5.1378 14.7878 5.08334C14.7064 5.02888 14.6106 4.99988 14.5127 5.00005H7.71274C7.64969 4.99918 7.58709 5.01073 7.52851 5.03406C7.46994 5.05739 7.41653 5.09202 7.37134 5.13599C7.32615 5.17996 7.29006 5.2324 7.26514 5.29032C7.24021 5.34824 7.22695 5.4105 7.22609 5.47354V6.65071H8.18295V5.94704H13.2401L12.0992 6.93349H5.48665C5.4236 6.93262 5.361 6.94418 5.30243 6.9675C5.24385 6.99083 5.19044 7.02546 5.14525 7.06943C5.10006 7.1134 5.06397 7.16584 5.03905 7.22376C5.01413 7.28168 5.00086 7.34394 5 7.40698V14.0195C5.00086 14.0825 5.01413 14.1448 5.03905 14.2027C5.06397 14.2606 5.10006 14.3131 5.14525 14.357C5.19044 14.401 5.24385 14.4356 5.30243 14.459C5.361 14.4823 5.4236 14.4939 5.48665 14.493H12.28C12.4009 14.4947 12.5181 14.4513 12.6088 14.3713L14.8283 12.451C14.9011 12.3885 14.953 12.3053 14.9771 12.2124C15.0012 12.1195 14.9964 12.0215 14.9631 11.9315C14.9275 11.8391 14.8648 11.7595 14.7833 11.7032C14.7018 11.6469 14.6052 11.6165 14.5061 11.6158V11.6158Z" fill="#FE4350"/>
</svg>
