<svg width="32" height="32" viewBox="0 0 32 32" fill="none" xmlns="http://www.w3.org/2000/svg">
<path d="M16 32C24.8366 32 32 24.8366 32 16C32 7.16344 24.8366 0 16 0C7.16344 0 0 7.16344 0 16C0 24.8366 7.16344 32 16 32Z" fill="url(#paint0_linear_1329_28171)"/>
<path d="M16 31.75C24.6985 31.75 31.75 24.6985 31.75 16C31.75 7.30152 24.6985 0.25 16 0.25C7.30152 0.25 0.25 7.30152 0.25 16C0.25 24.6985 7.30152 31.75 16 31.75Z" stroke="white" stroke-width="0.5"/>
<path d="M23.2097 18.5853H13.0927V13.0823H11.5617V19.3429C11.5631 19.4436 11.5844 19.5429 11.6243 19.6353C11.6643 19.7277 11.7221 19.8113 11.7945 19.8812C11.8668 19.9511 11.9523 20.006 12.046 20.0428C12.1397 20.0795 12.2398 20.0974 12.3404 20.0953H21.1842L19.3586 21.6999H9.55201V12.6246H19.648C19.8404 12.6268 20.0272 12.5595 20.1741 12.4352L23.7359 9.3206C23.8536 9.22153 23.9376 9.0883 23.9762 8.93936C24.0149 8.79043 24.0062 8.63317 23.9516 8.48935C23.892 8.34441 23.7907 8.22047 23.6604 8.13334C23.5302 8.0462 23.377 7.99981 23.2203 8.00007H12.3404C12.2395 7.99868 12.1393 8.01718 12.0456 8.0545C11.9519 8.09182 11.8664 8.14724 11.7941 8.21759C11.7218 8.28794 11.6641 8.37184 11.6242 8.46451C11.5843 8.55718 11.5631 8.65679 11.5617 8.75767V10.6411H13.0927V9.51526H21.1842L19.3586 11.0936H8.77864C8.67776 11.0922 8.57761 11.1107 8.48388 11.148C8.39016 11.1853 8.3047 11.2407 8.2324 11.3111C8.16009 11.3814 8.10235 11.4654 8.06248 11.558C8.0226 11.6507 8.00137 11.7503 8 11.8512V22.4312C8.00137 22.5321 8.0226 22.6317 8.06248 22.7243C8.10235 22.817 8.16009 22.9009 8.2324 22.9713C8.3047 23.0416 8.39016 23.097 8.48388 23.1344C8.57761 23.1717 8.67776 23.1902 8.77864 23.1888H19.648C19.8415 23.1915 20.029 23.1221 20.1741 22.9941L23.7253 19.9217C23.8418 19.8216 23.9249 19.6884 23.9634 19.5398C24.002 19.3912 23.9942 19.2344 23.941 19.0904C23.884 18.9425 23.7837 18.8152 23.6532 18.7251C23.5228 18.6351 23.3683 18.5863 23.2097 18.5853Z" fill="#FE4350"/>
<defs>
<linearGradient id="paint0_linear_1329_28171" x1="16" y1="0" x2="16" y2="32" gradientUnits="userSpaceOnUse">
<stop stop-color="#183C74"/>
<stop offset="1" stop-color="#050516"/>
</linearGradient>
</defs>
</svg>
