<svg width="20" height="20" viewBox="0 0 20 20" fill="none" xmlns="http://www.w3.org/2000/svg">
<path d="M9.99991 19.285C15.1279 19.285 19.285 15.1279 19.285 9.99991C19.285 4.87191 15.1279 0.714844 9.99991 0.714844C4.87191 0.714844 0.714844 4.87191 0.714844 9.99991C0.714844 15.1279 4.87191 19.285 9.99991 19.285Z" fill="white"/>
<path d="M9.99934 19.9986C8.68565 20.0023 7.3843 19.7452 6.17057 19.2426C4.95684 18.7399 3.85486 18.0016 2.92841 17.0702C1.99702 16.1438 1.25863 15.042 0.755973 13.8282C0.253319 12.6145 -0.00361684 11.313 4.01675e-05 9.99934C-0.00369573 8.68564 0.253206 7.38418 0.755864 6.17044C1.25852 4.9567 1.99696 3.85488 2.92841 2.92848C3.85481 1.99702 4.95677 1.25844 6.1705 0.755777C7.38424 0.253118 8.68564 -0.00369572 9.99934 4.01809e-05C11.313 -0.00369572 12.6144 0.253118 13.8282 0.755777C15.0419 1.25844 16.1439 1.99702 17.0703 2.92848C18.0017 3.85488 18.7402 4.9567 19.2428 6.17044C19.7455 7.38418 20.0024 8.68564 19.9986 9.99934C20.0023 11.313 19.7454 12.6145 19.2427 13.8282C18.7401 15.042 18.0017 16.1438 17.0703 17.0702C16.1438 18.0016 15.0418 18.7399 13.8281 19.2426C12.6144 19.7452 11.313 20.0023 9.99934 19.9986ZM9.99934 1.42851C7.72697 1.43097 5.54838 2.33478 3.94157 3.94159C2.33476 5.5484 1.43097 7.72697 1.42851 9.99934C1.43097 12.2717 2.33476 14.4503 3.94157 16.0571C5.54838 17.6639 7.72697 18.5677 9.99934 18.5702C12.2717 18.5677 14.4503 17.6639 16.0571 16.0571C17.6639 14.4503 18.5677 12.2717 18.5702 9.99934C18.5677 7.72697 17.6639 5.5484 16.0571 3.94159C14.4503 2.33478 12.2717 1.43097 9.99934 1.42851V1.42851Z" fill="#FF005C"/>
<path d="M9.98893 4.00014C9.53393 3.99693 9.08026 4.0505 8.63805 4.15964V11.628C8.63691 11.7004 8.60802 11.7696 8.55755 11.8206C8.50708 11.8717 8.43901 11.9007 8.36787 11.9013H7.82701C7.80046 11.9015 7.77414 11.8964 7.74956 11.8862C7.72497 11.876 7.70262 11.8609 7.68377 11.8419C7.66493 11.8228 7.64998 11.8002 7.63977 11.7752C7.62957 11.7503 7.62431 11.7235 7.62431 11.6964V4.47838C6.55454 4.93105 5.63986 5.69549 4.99507 6.67574C4.35029 7.656 4.00411 8.80841 4 9.98834C4.00589 10.7855 4.16619 11.5736 4.47172 12.3075C4.77726 13.0414 5.22201 13.7067 5.78048 14.2651C6.33895 14.8236 7.00015 15.2643 7.72617 15.5619C8.4522 15.8596 9.22876 16.0083 10.0113 15.9996C10.791 16.0084 11.5646 15.8602 12.2879 15.5637C13.0112 15.2673 13.6699 14.8283 14.2263 14.2719C14.7827 13.7155 15.2258 13.0528 15.5301 12.3216C15.8345 11.5905 15.9942 10.8053 16 10.0112C15.9805 8.40372 15.3375 6.86942 14.2112 5.74321C13.085 4.61701 11.5671 3.99038 9.98893 4.00014V4.00014ZM9.87637 12.4932C9.87556 12.5597 9.84914 12.6232 9.8028 12.6701C9.75646 12.7169 9.6939 12.7434 9.62861 12.7437H9.08774C9.02244 12.7434 8.95989 12.7169 8.91354 12.6701C8.8672 12.6232 8.84078 12.5597 8.83997 12.4932V8.69054C8.84078 8.62403 8.8672 8.56051 8.91354 8.51365C8.95989 8.46679 9.02244 8.44034 9.08774 8.44H9.62861C9.6939 8.44034 9.75646 8.46679 9.8028 8.51365C9.84914 8.56051 9.87556 8.62403 9.87637 8.69054V12.4932ZM11.092 12.8576C11.0912 12.9241 11.0648 12.9876 11.0185 13.0345C10.9721 13.0813 10.9096 13.1078 10.8443 13.1081H10.3034C10.2381 13.1078 10.1755 13.0813 10.1292 13.0345C10.0829 12.9876 10.0564 12.9241 10.0556 12.8576V8.32641C10.0564 8.2599 10.0829 8.19638 10.1292 8.14952C10.1755 8.10266 10.2381 8.07621 10.3034 8.07587H10.8443C10.9096 8.07621 10.9721 8.10266 11.0185 8.14952C11.0648 8.19638 11.0912 8.2599 11.092 8.32641V12.8576ZM12.3077 12.1755C12.3069 12.242 12.2805 12.3055 12.2341 12.3524C12.1878 12.3992 12.1252 12.4257 12.0599 12.426H11.5206C11.4553 12.4257 11.3928 12.3992 11.3464 12.3524C11.3001 12.3055 11.2736 12.242 11.2728 12.1755V9.05493C11.2736 8.98842 11.3001 8.9249 11.3464 8.87804C11.3928 8.83118 11.4553 8.80473 11.5206 8.8044H12.0615C12.1268 8.80473 12.1893 8.83118 12.2357 8.87804C12.282 8.9249 12.3084 8.98842 12.3092 9.05493L12.3077 12.1755Z" fill="#FF005C"/>
<path opacity="0.7" d="M9.2863 19.9742V18.5408C9.52438 18.5608 9.76246 18.5708 10.0005 18.5708C10.2386 18.5708 10.4767 18.5611 10.7148 18.5415V19.9749C10.4767 19.9916 10.2386 20 10.0005 20C9.76246 20 9.52438 19.9913 9.2863 19.9742ZM15.533 16.5411C15.8967 16.2329 16.2343 15.8951 16.5422 15.5311L17.5586 16.5474C17.4034 16.7264 17.241 16.9004 17.0715 17.0695C16.902 17.2385 16.7279 17.401 16.5494 17.5567L15.533 16.5411ZM2.93102 17.0702C2.76151 16.9007 2.59891 16.7264 2.44321 16.5474L3.45957 15.5311C3.76776 15.8951 4.10555 16.2329 4.4695 16.5411L3.45314 17.5574C3.27411 17.4021 3.09959 17.2397 2.92961 17.0702H2.93102ZM18.5421 10.7135C18.5616 10.4755 18.5714 10.2374 18.5714 9.9993C18.5714 9.76122 18.5616 9.52315 18.5421 9.28507H19.9756C19.9922 9.52315 20.0006 9.76122 20.0006 9.9993C20.0006 10.2374 19.9922 10.4755 19.9756 10.7135H18.5421ZM0.026954 10.7135C0.0102885 10.4755 0.00195312 10.2374 0.00195312 9.9993C0.00195312 9.76122 0.0102885 9.52315 0.026954 9.28507H1.46042C1.44089 9.52315 1.43114 9.76122 1.43114 9.9993C1.43114 10.2374 1.44089 10.4755 1.46042 10.7135H0.026954ZM2.44321 3.45191C2.59891 3.27287 2.76151 3.09887 2.93102 2.92983C3.10053 2.7608 3.27483 2.59811 3.45386 2.44193L4.4695 3.45749C4.10562 3.76601 3.76783 4.10406 3.45957 4.46816L2.44321 3.45191ZM15.533 3.45749L16.5487 2.44193C16.7277 2.59764 16.902 2.76032 17.0715 2.92983C17.241 3.09934 17.4034 3.27335 17.5586 3.45191L16.5422 4.46816C16.2341 4.10396 15.8963 3.76589 15.5323 3.45749H15.533ZM9.2863 0.0251099C9.52438 0.00844435 9.76246 0 10.0005 0C10.2386 0 10.4767 0.00844435 10.7148 0.0251099V1.45707C10.4791 1.43755 10.241 1.42777 10.0005 1.42777C9.76008 1.42777 9.522 1.43777 9.2863 1.45777V0.0251099Z" fill="white"/>
</svg>
