<svg width="32" height="32" viewBox="0 0 32 32" fill="none" xmlns="http://www.w3.org/2000/svg">
<g clip-path="url(#clip0_1380_28644)">
<path d="M16 32C24.8366 32 32 24.8366 32 16C32 7.16344 24.8366 0 16 0C7.16344 0 0 7.16344 0 16C0 24.8366 7.16344 32 16 32Z" fill="white"/>
<path d="M15.9701 0.0999669C14.7719 0.0915263 13.5772 0.232585 12.4127 0.519993V20.1866C12.4097 20.3774 12.3337 20.5595 12.2008 20.6939C12.0679 20.8284 11.8886 20.9047 11.7013 20.9065H10.277C10.2071 20.907 10.1378 20.8935 10.0731 20.8666C10.0083 20.8397 9.94944 20.8001 9.89982 20.7499C9.85021 20.6998 9.81082 20.6401 9.78395 20.5744C9.75708 20.5086 9.74324 20.4381 9.74324 20.3669V1.35935C6.92618 2.55139 4.51753 4.56439 2.81958 7.14574C1.12164 9.72708 0.210047 12.7618 0.199219 15.8689C0.214717 17.9681 0.636854 20.0434 1.44143 21.9761C2.246 23.9087 3.41718 25.6605 4.88782 27.1312C6.35845 28.6018 8.09962 29.7623 10.0115 30.5461C11.9233 31.3298 13.9683 31.7215 16.0291 31.6987C18.0821 31.7216 20.1194 31.3316 22.0241 30.5508C23.9288 29.7701 25.6634 28.614 27.1285 27.1489C28.5937 25.6839 29.7604 23.9386 30.5619 22.0132C31.3634 20.0879 31.7839 18.0203 31.7992 15.929C31.7479 11.6961 30.0545 7.65574 27.0888 4.69007C24.1231 1.7244 20.126 0.0742808 15.9701 0.0999669ZM15.6737 22.465C15.6715 22.6401 15.602 22.8074 15.4799 22.9308C15.3579 23.0542 15.1932 23.1238 15.0212 23.1247H13.5969C13.425 23.1238 13.2603 23.0542 13.1382 22.9308C13.0162 22.8074 12.9466 22.6401 12.9445 22.465V12.4514C12.9466 12.2762 13.0162 12.1089 13.1382 11.9856C13.2603 11.8622 13.425 11.7925 13.5969 11.7916H15.0212C15.1932 11.7925 15.3579 11.8622 15.4799 11.9856C15.602 12.1089 15.6715 12.2762 15.6737 12.4514V22.465ZM18.8749 23.4245C18.8728 23.5997 18.8032 23.767 18.6812 23.8904C18.5591 24.0138 18.3944 24.0834 18.2225 24.0843H16.7982C16.6262 24.0834 16.4615 24.0138 16.3395 23.8904C16.2174 23.767 16.1478 23.5997 16.1457 23.4245V11.4925C16.1478 11.3173 16.2174 11.1501 16.3395 11.0267C16.4615 10.9033 16.6262 10.8336 16.7982 10.8327H18.2225C18.3944 10.8336 18.5591 10.9033 18.6812 11.0267C18.8032 11.1501 18.8728 11.3173 18.8749 11.4925V23.4245ZM22.0761 21.6284C22.074 21.8035 22.0044 21.9708 21.8824 22.0942C21.7604 22.2176 21.5956 22.2872 21.4237 22.2881H20.0035C19.8315 22.2872 19.6668 22.2176 19.5448 22.0942C19.4227 21.9708 19.3532 21.8035 19.351 21.6284V13.4109C19.3532 13.2358 19.4227 13.0685 19.5448 12.9451C19.6668 12.8217 19.8315 12.7521 20.0035 12.7512H21.4278C21.5997 12.7521 21.7644 12.8217 21.8865 12.9451C22.0085 13.0685 22.0781 13.2358 22.0802 13.4109L22.0761 21.6284Z" fill="url(#paint0_linear_1380_28644)"/>
<path d="M16 31.75C24.6985 31.75 31.75 24.6985 31.75 16C31.75 7.30152 24.6985 0.25 16 0.25C7.30152 0.25 0.25 7.30152 0.25 16C0.25 24.6985 7.30152 31.75 16 31.75Z" stroke="white" stroke-width="0.5"/>
</g>
<defs>
<linearGradient id="paint0_linear_1380_28644" x1="15.9992" y1="0.0996094" x2="15.9992" y2="31.6996" gradientUnits="userSpaceOnUse">
<stop stop-color="#FF005C"/>
<stop offset="1" stop-color="#C70048"/>
</linearGradient>
<clipPath id="clip0_1380_28644">
<rect width="32" height="32" fill="white"/>
</clipPath>
</defs>
</svg>
