<svg width="20" height="20" viewBox="0 0 20 20" fill="none" xmlns="http://www.w3.org/2000/svg">
<path d="M10.0002 19.2856C15.1284 19.2856 19.2856 15.1284 19.2856 10.0002C19.2856 4.87204 15.1284 0.714844 10.0002 0.714844C4.87204 0.714844 0.714844 4.87204 0.714844 10.0002C0.714844 15.1284 4.87204 19.2856 10.0002 19.2856Z" fill="white"/>
<path d="M9.99966 19.9993C8.68593 20.0029 7.38453 19.7458 6.17076 19.2432C4.957 18.7405 3.85498 18.0022 2.9285 17.0707C1.99708 16.1443 1.25867 15.0424 0.755997 13.8287C0.253327 12.6149 -0.00361695 11.3134 4.01688e-05 9.99966C-0.00369585 8.68592 0.253213 7.38441 0.755888 6.17063C1.25856 4.95686 1.99702 3.855 2.9285 2.92857C3.85493 1.99709 4.95692 1.25848 6.1707 0.755801C7.38447 0.253126 8.68592 -0.00369584 9.99966 4.01821e-05C11.3134 -0.00369584 12.6148 0.253126 13.8286 0.755801C15.0424 1.25848 16.1444 1.99709 17.0708 2.92857C18.0023 3.855 18.7408 4.95686 19.2434 6.17063C19.7461 7.38441 20.003 8.68592 19.9993 9.99966C20.0029 11.3134 19.746 12.6149 19.2433 13.8287C18.7406 15.0424 18.0022 16.1443 17.0708 17.0707C16.1443 18.0022 15.0423 18.7405 13.8286 19.2432C12.6148 19.7458 11.3134 20.0029 9.99966 19.9993ZM9.99966 1.42856C7.72722 1.43101 5.54855 2.33485 3.94169 3.94171C2.33483 5.54858 1.43101 7.72722 1.42856 9.99966C1.43101 12.2721 2.33483 14.4507 3.94169 16.0576C5.54855 17.6645 7.72722 18.5683 9.99966 18.5708C12.2721 18.5683 14.4508 17.6645 16.0576 16.0576C17.6645 14.4507 18.5683 12.2721 18.5708 9.99966C18.5683 7.72722 17.6645 5.54858 16.0576 3.94171C14.4508 2.33485 12.2721 1.43101 9.99966 1.42856Z" fill="#7B2BF9"/>
<path opacity="0.41" d="M9.28464 19.9748V18.5414C9.52273 18.5614 9.76081 18.5714 9.9989 18.5714C10.237 18.5714 10.4751 18.5616 10.7132 18.5421V19.9755C10.4751 19.9922 10.237 20.0006 9.9989 20.0006C9.76081 20.0006 9.52273 19.992 9.28464 19.9748ZM15.5315 16.5416C15.8953 16.2334 16.2328 15.8956 16.5408 15.5316L17.5572 16.5479C17.402 16.727 17.2396 16.901 17.0701 17.07C16.9005 17.239 16.7265 17.4015 16.5479 17.5572L15.5315 16.5416ZM2.92916 17.0707C2.75964 16.9012 2.59704 16.727 2.44133 16.5479L3.45773 15.5316C3.76592 15.8956 4.10373 16.2334 4.46769 16.5416L3.4513 17.5579C3.27226 17.4027 3.09774 17.2402 2.92774 17.0707H2.92916ZM18.5407 10.7139C18.5603 10.4758 18.57 10.2377 18.57 9.99962C18.57 9.76153 18.5603 9.52345 18.5407 9.28536H19.9742C19.9909 9.52345 19.9992 9.76153 19.9992 9.99962C19.9992 10.2377 19.9909 10.4758 19.9742 10.7139H18.5407ZM0.0250017 10.7139C0.00833563 10.4758 0 10.2377 0 9.99962C0 9.76153 0.00833563 9.52345 0.0250017 9.28536H1.45851C1.43899 9.52345 1.42924 9.76153 1.42924 9.99962C1.42924 10.2377 1.43899 10.4758 1.45851 10.7139H0.0250017ZM2.44133 3.45202C2.59704 3.27298 2.75964 3.09897 2.92916 2.92992C3.09868 2.76088 3.27298 2.5982 3.45202 2.44201L4.46769 3.4576C4.1038 3.76612 3.766 4.10419 3.45773 4.4683L2.44133 3.45202ZM15.5315 3.4576L16.5472 2.44201C16.7263 2.59772 16.9005 2.76041 17.0701 2.92992C17.2396 3.09944 17.402 3.27345 17.5572 3.45202L16.5408 4.4683C16.2326 4.10409 15.8948 3.76601 15.5308 3.4576H15.5315ZM9.28464 0.0251106C9.52273 0.00844462 9.76081 0 9.9989 0C10.237 0 10.4751 0.00844462 10.7132 0.0251106V1.45712C10.4775 1.43759 10.2394 1.42782 9.9989 1.42782C9.75843 1.42782 9.52035 1.43781 9.28464 1.45781V0.0251106Z" fill="white"/>
<path fill-rule="evenodd" clip-rule="evenodd" d="M15.5651 10.1645C15.5639 10.2021 15.5127 10.212 15.4979 10.1773C15.4916 10.1624 15.4851 10.1474 15.4785 10.1323C15.4664 10.1049 15.4698 10.0729 15.4878 10.0489C15.4915 10.044 15.4991 10.0341 15.5082 10.0222C15.5325 9.99039 15.5676 9.99514 15.5676 10.0305C15.5676 10.0768 15.5665 10.117 15.5651 10.1645ZM15.2956 9.42843C15.2541 9.50318 15.1476 9.50662 15.1016 9.43454C15.0944 9.42341 15.0872 9.41227 15.0799 9.40107C14.9138 9.14603 14.7227 8.89568 14.5092 8.65238C14.4568 8.59265 14.4996 8.4989 14.5791 8.49884H14.581C15.0799 8.49884 15.3415 8.62208 15.4213 8.77256C15.4879 8.89841 15.4675 9.11851 15.2956 9.42843ZM15.1841 12.0374C15.1573 12.1055 15.1293 12.1731 15.0999 12.2401C15.0953 12.2493 15.091 12.2587 15.0862 12.2679C14.9026 12.6213 14.5945 12.8996 14.1827 13.0933C14.0903 13.1367 13.9893 13.0522 14.0168 12.9539C14.1535 12.4645 14.257 11.9339 14.324 11.3775C14.3365 11.2738 14.3877 11.1786 14.4668 11.1102C14.6361 10.9637 14.7942 10.8174 14.9397 10.6722L14.9412 10.6706C15.0128 10.5991 15.1349 10.6299 15.1641 10.7267C15.3078 11.2044 15.3158 11.6494 15.1841 12.0374ZM14.0648 13.8041C14.023 13.8488 13.9802 13.8931 13.9366 13.9366C13.8607 14.0124 13.783 14.0858 13.7037 14.1566C13.6536 14.2012 13.5779 14.1454 13.6062 14.0846C13.6143 14.0672 13.6223 14.0497 13.6303 14.0321C13.6636 13.9585 13.6958 13.8831 13.7272 13.8062C13.7346 13.7881 13.7502 13.7745 13.7692 13.7697C13.8482 13.7496 13.9252 13.7275 14.0001 13.7033C14.0609 13.6838 14.1085 13.7574 14.0648 13.8041ZM13.2429 13.3623C13.0767 13.3864 12.9019 13.402 12.7191 13.4084C12.2729 13.424 11.8012 13.3855 11.3166 13.2963C11.2575 13.2855 11.2462 13.2056 11.2997 13.1785C11.4054 13.125 11.5112 13.0703 11.6169 13.0143C12.3584 12.6212 13.0502 12.1916 13.6559 11.7512C13.7013 11.7181 13.7639 11.7571 13.7547 11.8125C13.6707 12.3173 13.5544 12.7925 13.4083 13.2239C13.3834 13.2974 13.3198 13.3512 13.2429 13.3623ZM13.0715 14.0349C12.674 14.8168 12.1844 15.2557 11.7098 15.2469C11.194 15.2377 10.6796 14.7006 10.2987 13.7733L10.2983 13.7722C10.2741 13.7134 10.3019 13.646 10.3602 13.6207C10.3642 13.6189 10.3683 13.6171 10.3723 13.6153C10.3973 13.6044 10.4254 13.6025 10.4517 13.6099C11.1642 13.8099 11.8662 13.9142 12.5239 13.9142C12.5954 13.9142 12.6664 13.913 12.7368 13.9105C12.8192 13.9076 12.9003 13.9029 12.9799 13.8966C13.0538 13.8908 13.1052 13.9688 13.0715 14.0349ZM10.7173 15.5218C10.481 15.5521 10.2411 15.5677 9.9989 15.5677C8.91649 15.5677 7.88119 15.2609 6.99234 14.6886C6.93119 14.6491 6.95718 14.5542 7.02985 14.5509C7.04492 14.5502 7.05901 14.5494 7.0714 14.5487C7.29729 14.534 7.54496 14.5009 7.81332 14.4492C8.38418 14.3394 9.01876 14.151 9.6832 13.8973C9.74277 13.8746 9.80927 13.9041 9.83352 13.9631L9.83395 13.9642C10.0915 14.5911 10.4084 15.0648 10.7642 15.3662C10.823 15.416 10.7938 15.5119 10.7173 15.5218ZM7.49702 11.62C7.98772 11.2204 8.56267 10.8217 9.19337 10.4442C9.20691 11.2509 9.29537 12.0254 9.45191 12.7249C9.218 12.6252 8.98479 12.5153 8.75361 12.3952C8.30583 12.1625 7.88452 11.9019 7.49702 11.62ZM5.97097 13.7814C5.8539 13.5605 6.0052 13.0489 6.77383 12.2714L6.77421 12.271C6.85447 12.1899 6.84677 12.0568 6.75717 11.9862C6.72638 11.962 6.6958 11.9376 6.66544 11.9131C6.58889 11.8513 6.4781 11.8569 6.4086 11.9265C6.39336 11.9418 6.38201 11.9532 6.37868 11.9567C5.99445 12.3511 5.72554 12.7161 5.57489 13.0445C5.53219 13.1375 5.40322 13.1476 5.34677 13.0622C4.75047 12.1608 4.43018 11.1045 4.43018 9.9989C4.43018 9.60364 4.47124 9.21467 4.55112 8.83682C4.56318 8.77966 4.64383 8.776 4.66076 8.83191C4.77629 9.21336 4.96434 9.6079 5.22419 10.0069C5.57396 10.544 6.03523 11.0604 6.58185 11.5341C6.76842 11.6957 6.96548 11.8521 7.17099 12.003C7.5876 12.3087 8.0403 12.5908 8.52194 12.8411C8.73543 12.952 8.94335 13.0579 9.1563 13.1538C9.27484 13.2071 9.40976 13.2113 9.53075 13.1638C9.63116 13.1244 9.73229 13.0835 9.83401 13.041C9.94463 12.9949 10.0046 12.8743 9.97532 12.758C9.97166 12.7435 9.96876 12.7318 9.96713 12.7249C9.79945 12.0193 9.70624 11.2249 9.69527 10.3928L9.69494 10.393C9.69483 10.3831 9.69488 10.373 9.69477 10.363C9.69428 10.3176 9.69456 10.2717 9.69374 10.2264C9.69346 10.2119 9.6939 10.1874 9.69407 10.1729C9.69417 10.1671 9.69407 10.1613 9.69407 10.1556L9.69428 10.1556C9.69456 10.1035 9.69494 10.0514 9.69587 9.99918C9.69843 9.85645 9.70357 9.71476 9.71094 9.57421L9.71066 9.57438C9.76237 8.57032 9.93262 7.62686 10.2035 6.83323C10.2286 6.75979 10.1894 6.68007 10.116 6.65501C10.0444 6.63055 9.97286 6.60718 9.90144 6.5848C9.8292 6.56214 9.752 6.60112 9.72759 6.67281C9.434 7.53469 9.25283 8.55721 9.20451 9.63924C9.19834 9.77651 9.12365 9.90144 9.00543 9.97149C8.36458 10.3513 7.77603 10.7539 7.26758 11.1598C7.16166 11.2444 7.01036 11.2411 6.90793 11.1523C6.39833 10.7105 5.96944 10.2306 5.64522 9.73267C5.00807 8.75432 4.85667 7.83265 5.219 7.13791C5.21998 7.13627 5.22086 7.13458 5.22178 7.13299C5.26798 7.05633 5.31603 6.98071 5.36604 6.90612C5.78238 6.35503 6.55728 6.03567 7.58498 5.99958C7.65001 5.99729 7.71548 5.99614 7.78155 5.99614C8.41192 5.99614 9.08843 6.10015 9.77646 6.29869L9.77662 6.29852C9.79169 6.30289 9.80676 6.30742 9.82183 6.31184C9.83346 6.31528 9.84509 6.31851 9.85672 6.322C10.0157 6.3695 10.1752 6.42219 10.3348 6.47963C10.3385 6.48094 10.3423 6.48231 10.346 6.48362C10.3876 6.49863 10.4292 6.51403 10.4707 6.5297C10.4837 6.53462 10.4968 6.53959 10.5098 6.54461C10.5223 6.54941 10.5348 6.55405 10.5473 6.55891L10.5472 6.55913C10.8832 6.68919 11.2189 6.84044 11.5505 7.01276C12.1922 7.34616 12.7796 7.73699 13.2908 8.16578C12.3152 8.38926 11.1812 8.82039 10.0411 9.40167C9.98853 9.42854 9.95391 9.48139 9.95058 9.54036C9.9466 9.61102 9.94135 9.75309 9.93759 9.866C9.93524 9.93688 10.0102 9.98383 10.073 9.95085L10.0737 9.95047C11.2025 9.35772 12.3291 8.91469 13.2965 8.68056C13.4774 8.63682 13.5945 8.46313 13.5691 8.27885C13.5513 8.1501 13.5312 8.02338 13.5091 7.89888C13.4812 7.74251 13.3956 7.60267 13.2692 7.50646C12.8161 7.16128 12.3167 6.84464 11.7821 6.56683C11.4219 6.37966 11.0563 6.21564 10.69 6.07575C10.6116 6.04583 10.5781 5.95322 10.619 5.88C10.9964 5.20486 11.4452 4.82674 11.8825 4.82674C11.8871 4.82674 11.8916 4.82674 11.8961 4.82685C12.412 4.83608 12.9263 5.37319 13.3072 6.30049C13.5 6.76989 13.6494 7.31121 13.7515 7.89948C13.7509 7.89899 13.7504 7.89856 13.7499 7.89807C13.7935 8.14912 13.8286 8.40859 13.8546 8.67477C13.8524 8.67619 13.85 8.67744 13.8477 8.67886C13.8508 8.68198 13.854 8.68509 13.8571 8.68825C13.9003 9.13489 13.9186 9.59999 13.91 10.0746C13.9047 10.3748 13.8887 10.6708 13.8628 10.9605C13.1727 11.5182 12.3195 12.0732 11.3816 12.5702C11.0733 12.7336 10.7652 12.8857 10.46 13.0257C10.4553 13.0279 10.4506 13.03 10.4458 13.0322C10.4225 13.0428 10.3991 13.0536 10.3758 13.0642L10.3753 13.064C10.1224 13.1784 9.87196 13.2842 9.62565 13.3809L9.62576 13.3811C9.61184 13.3865 9.59802 13.3918 9.58415 13.3972C9.56684 13.4039 9.54954 13.4106 9.53228 13.4173C9.49095 13.4331 9.44978 13.4487 9.40872 13.4641C9.39742 13.4683 9.38606 13.4727 9.37476 13.4768C9.32491 13.4953 9.27533 13.5133 9.22591 13.531C9.21974 13.5332 9.21357 13.5355 9.20746 13.5377L9.20724 13.5376C8.67941 13.7256 8.17659 13.8676 7.71837 13.9558C6.61111 14.169 6.08973 14.0054 5.97097 13.7814ZM6.76624 5.46339C7.70341 4.79229 8.82328 4.43018 9.9989 4.43018C10.3092 4.43018 10.6155 4.45556 10.9157 4.50509C10.996 4.51836 11.023 4.62095 10.9589 4.67124C10.668 4.89925 10.3978 5.23664 10.1587 5.67416C10.1003 5.7809 9.97652 5.8331 9.85945 5.80012C9.06713 5.57707 8.28759 5.47213 7.56735 5.49741C7.30166 5.50675 7.05005 5.53367 6.81368 5.57724C6.74729 5.58947 6.71136 5.50265 6.76624 5.46339ZM14.4103 9.52191C14.4087 9.45808 14.4906 9.43083 14.5276 9.48281C14.5731 9.54664 14.6169 9.6108 14.6589 9.67528C14.7147 9.76101 14.7666 9.84624 14.8149 9.93092C14.845 9.98372 14.8378 10.05 14.7968 10.0948C14.7318 10.1663 14.6613 10.2401 14.5846 10.3166C14.5567 10.3445 14.5282 10.3725 14.4991 10.4005C14.4631 10.4353 14.4027 10.4088 14.4046 10.3587C14.4082 10.2673 14.4108 10.1756 14.4124 10.0835C14.4158 9.89483 14.415 9.7075 14.4103 9.52191ZM13.8328 5.96005C13.8678 5.99325 13.9024 6.02699 13.9366 6.06122C14.4733 6.59785 14.8866 7.22489 15.163 7.90778C15.1909 7.97664 15.1324 8.04871 15.0593 8.03555C14.8994 8.00683 14.7194 7.994 14.5202 7.99733C14.3821 7.99962 14.2621 7.90287 14.2378 7.76691C14.1295 7.1598 13.973 6.59899 13.772 6.10955C13.7605 6.08165 13.7489 6.05407 13.7372 6.02677C13.7116 5.9672 13.7858 5.91538 13.8328 5.96005ZM15.939 8.73619C15.6991 7.59628 15.1349 6.54892 14.2919 5.70588C13.1452 4.5592 11.6206 3.92773 9.9989 3.92773C8.37725 3.92773 6.85262 4.5592 5.70593 5.70588C5.42703 5.98478 5.17898 6.28613 4.9627 6.60565C4.89838 6.69127 4.84078 6.78169 4.78956 6.87631C4.22777 7.80983 3.92773 8.88132 3.92773 9.9989C3.92773 11.6206 4.55925 13.1452 5.70593 14.2919C6.85262 15.4386 8.37725 16.0701 9.9989 16.0701C11.6206 16.0701 13.1452 15.4386 14.2919 14.2919C14.8331 13.7507 15.2594 13.1253 15.5588 12.4453C15.5954 12.37 15.6273 12.2928 15.6548 12.2141C15.9273 11.5176 16.0701 10.7693 16.0701 9.9989C16.0701 9.57487 16.0266 9.15766 15.9423 8.75192C15.9412 8.74668 15.9401 8.74144 15.939 8.73619Z" fill="black"/>
</svg>
