<svg width="32" height="32" viewBox="0 0 32 32" fill="none" xmlns="http://www.w3.org/2000/svg">
<path d="M31.75 16C31.75 24.6985 24.6985 31.75 16 31.75C7.30152 31.75 0.25 24.6985 0.25 16C0.25 7.30152 7.30152 0.25 16 0.25C24.6985 0.25 31.75 7.30152 31.75 16Z" fill="url(#paint0_linear_4446_66825)" stroke="white" stroke-width="0.5"/>
<path d="M9.80299 7.76758H7.76953V9.80103H9.80299V7.76758Z" fill="white"/>
<path d="M14.8889 7.76758H12.8555V9.80103H14.8889V7.76758Z" fill="white"/>
<path d="M19.9729 7.76758H17.9395V9.80103H19.9729V7.76758Z" fill="white"/>
<path d="M9.80299 12.8535H7.76953V14.887H9.80299V12.8535Z" fill="white"/>
<path d="M14.8889 12.8535H12.8555V14.887H14.8889V12.8535Z" fill="white"/>
<path d="M9.80299 17.9336H7.76953V19.967H9.80299V17.9336Z" fill="white"/>
<path d="M24.0423 9.29553C24.3235 9.29553 24.5514 9.0676 24.5514 8.78643C24.5514 8.50527 24.3235 8.27734 24.0423 8.27734C23.7611 8.27734 23.5332 8.50527 23.5332 8.78643C23.5332 9.0676 23.7611 9.29553 24.0423 9.29553Z" fill="white"/>
<path d="M24.0423 14.3795C24.3235 14.3795 24.5514 14.1516 24.5514 13.8704C24.5514 13.5893 24.3235 13.3613 24.0423 13.3613C23.7611 13.3613 23.5332 13.5893 23.5332 13.8704C23.5332 14.1516 23.7611 14.3795 24.0423 14.3795Z" fill="white"/>
<path d="M24.0423 19.4596C24.3235 19.4596 24.5514 19.2317 24.5514 18.9505C24.5514 18.6693 24.3235 18.4414 24.0423 18.4414C23.7611 18.4414 23.5332 18.6693 23.5332 18.9505C23.5332 19.2317 23.7611 19.4596 24.0423 19.4596Z" fill="white"/>
<path d="M24.0423 24.5436C24.3235 24.5436 24.5514 24.3156 24.5514 24.0345C24.5514 23.7533 24.3235 23.5254 24.0423 23.5254C23.7611 23.5254 23.5332 23.7533 23.5332 24.0345C23.5332 24.3156 23.7611 24.5436 24.0423 24.5436Z" fill="white"/>
<path d="M18.9564 14.3795C19.2375 14.3795 19.4654 14.1516 19.4654 13.8704C19.4654 13.5893 19.2375 13.3613 18.9564 13.3613C18.6752 13.3613 18.4473 13.5893 18.4473 13.8704C18.4473 14.1516 18.6752 14.3795 18.9564 14.3795Z" fill="white"/>
<path d="M18.9564 19.4596C19.2375 19.4596 19.4654 19.2317 19.4654 18.9505C19.4654 18.6693 19.2375 18.4414 18.9564 18.4414C18.6752 18.4414 18.4473 18.6693 18.4473 18.9505C18.4473 19.2317 18.6752 19.4596 18.9564 19.4596Z" fill="white"/>
<path d="M18.9564 24.5436C19.2375 24.5436 19.4654 24.3156 19.4654 24.0345C19.4654 23.7533 19.2375 23.5254 18.9564 23.5254C18.6752 23.5254 18.4473 23.7533 18.4473 24.0345C18.4473 24.3156 18.6752 24.5436 18.9564 24.5436Z" fill="white"/>
<path d="M13.8704 19.4596C14.1516 19.4596 14.3795 19.2317 14.3795 18.9505C14.3795 18.6693 14.1516 18.4414 13.8704 18.4414C13.5893 18.4414 13.3613 18.6693 13.3613 18.9505C13.3613 19.2317 13.5893 19.4596 13.8704 19.4596Z" fill="white"/>
<path d="M13.8704 24.5436C14.1516 24.5436 14.3795 24.3156 14.3795 24.0345C14.3795 23.7533 14.1516 23.5254 13.8704 23.5254C13.5893 23.5254 13.3613 23.7533 13.3613 24.0345C13.3613 24.3156 13.5893 24.5436 13.8704 24.5436Z" fill="white"/>
<path d="M8.78643 24.5436C9.0676 24.5436 9.29553 24.3156 9.29553 24.0345C9.29553 23.7533 9.0676 23.5254 8.78643 23.5254C8.50527 23.5254 8.27734 23.7533 8.27734 24.0345C8.27734 24.3156 8.50527 24.5436 8.78643 24.5436Z" fill="white"/>
<defs>
<linearGradient id="paint0_linear_4446_66825" x1="16" y1="0" x2="16" y2="32" gradientUnits="userSpaceOnUse">
<stop stop-color="#222D53"/>
<stop offset="1" stop-color="#151D37"/>
</linearGradient>
</defs>
</svg>
