<svg width="20" height="20" viewBox="0 0 20 20" fill="none" xmlns="http://www.w3.org/2000/svg">
<path d="M10 20C15.5228 20 20 15.5228 20 10C20 4.47715 15.5228 0 10 0C4.47715 0 0 4.47715 0 10C0 15.5228 4.47715 20 10 20Z" fill="white"/>
<path d="M9.99966 19.9986C8.68593 20.0023 7.38453 19.7452 6.17076 19.2426C4.957 18.7399 3.85498 18.0016 2.9285 17.0702C1.99708 16.1438 1.25867 15.042 0.755997 13.8282C0.253327 12.6145 -0.00361695 11.313 4.01687e-05 9.99934C-0.00369585 8.68564 0.253213 7.38418 0.755888 6.17044C1.25856 4.9567 1.99702 3.85488 2.9285 2.92848C3.85493 1.99702 4.95692 1.25844 6.1707 0.755777C7.38447 0.253118 8.68592 -0.00369572 9.99966 4.01809e-05C11.3134 -0.00369572 12.6148 0.253118 13.8286 0.755777C15.0424 1.25844 16.1444 1.99702 17.0708 2.92848C18.0023 3.85488 18.7408 4.9567 19.2434 6.17044C19.7461 7.38418 20.003 8.68564 19.9993 9.99934C20.0029 11.313 19.746 12.6145 19.2433 13.8282C18.7406 15.042 18.0022 16.1438 17.0708 17.0702C16.1443 18.0016 15.0423 18.7399 13.8286 19.2426C12.6148 19.7452 11.3134 20.0023 9.99966 19.9986ZM9.99966 1.42851C7.72722 1.43097 5.54855 2.33478 3.94169 3.94159C2.33483 5.5484 1.43101 7.72697 1.42856 9.99934C1.43101 12.2717 2.33483 14.4503 3.94169 16.0571C5.54855 17.6639 7.72722 18.5677 9.99966 18.5702C12.2721 18.5677 14.4508 17.6639 16.0576 16.0571C17.6645 14.4503 18.5683 12.2717 18.5708 9.99934C18.5683 7.72697 17.6645 5.5484 16.0576 3.94159C14.4508 2.33478 12.2721 1.43097 9.99966 1.42851Z" fill="#353130"/>
<path opacity="0.41" d="M9.28464 19.9742V18.5408C9.52273 18.5608 9.76081 18.5708 9.9989 18.5708C10.237 18.5708 10.4751 18.5611 10.7132 18.5415V19.9749C10.4751 19.9916 10.237 20 9.9989 20C9.76081 20 9.52273 19.9913 9.28464 19.9742ZM15.5315 16.5411C15.8953 16.2329 16.2328 15.8951 16.5408 15.5311L17.5572 16.5474C17.402 16.7264 17.2396 16.9004 17.0701 17.0695C16.9005 17.2385 16.7265 17.401 16.5479 17.5567L15.5315 16.5411ZM2.92916 17.0702C2.75964 16.9007 2.59704 16.7264 2.44133 16.5474L3.45773 15.5311C3.76592 15.8951 4.10373 16.2329 4.46769 16.5411L3.4513 17.5574C3.27226 17.4021 3.09774 17.2397 2.92774 17.0702H2.92916ZM18.5407 10.7135C18.5603 10.4755 18.57 10.2374 18.57 9.9993C18.57 9.76122 18.5603 9.52315 18.5407 9.28507H19.9742C19.9909 9.52315 19.9992 9.76122 19.9992 9.9993C19.9992 10.2374 19.9909 10.4755 19.9742 10.7135H18.5407ZM0.0250017 10.7135C0.00833563 10.4755 0 10.2374 0 9.9993C0 9.76122 0.00833563 9.52315 0.0250017 9.28507H1.45851C1.43899 9.52315 1.42924 9.76122 1.42924 9.9993C1.42924 10.2374 1.43899 10.4755 1.45851 10.7135H0.0250017ZM2.44133 3.45191C2.59704 3.27287 2.75964 3.09887 2.92916 2.92983C3.09868 2.7608 3.27298 2.59811 3.45202 2.44193L4.46769 3.45749C4.1038 3.76601 3.766 4.10406 3.45773 4.46816L2.44133 3.45191ZM15.5315 3.45749L16.5472 2.44193C16.7263 2.59764 16.9005 2.76032 17.0701 2.92983C17.2396 3.09934 17.402 3.27335 17.5572 3.45191L16.5408 4.46816C16.2326 4.10396 15.8955 3.76589 15.5315 3.45749ZM9.28464 0.0251099C9.52273 0.00844435 9.76081 0 9.9989 0C10.237 0 10.4751 0.00844435 10.7132 0.0251099V1.45707C10.4775 1.43755 10.2394 1.42777 9.9989 1.42777C9.75843 1.42777 9.52035 1.43777 9.28464 1.45777V0.0251099Z" fill="white"/>
<mask id="mask0_7298_1333" style="mask-type:luminance" maskUnits="userSpaceOnUse" x="3" y="3" width="14" height="14">
<path d="M16.4569 3.5625H3.54297V16.4357H16.4569V3.5625Z" fill="white"/>
</mask>
<g mask="url(#mask0_7298_1333)">
<path d="M4.2452 11.5908C3.95633 11.3028 3.7626 10.9702 3.66402 10.593C3.56772 10.2136 3.56772 9.83411 3.66402 9.45465C3.7626 9.07291 3.95518 8.73917 4.24176 8.45345C4.53293 8.16314 4.8688 7.96998 5.24938 7.87399C5.62997 7.77797 6.01055 7.77797 6.39113 7.87399C6.77169 7.96998 7.10643 8.16199 7.39532 8.45002L8.1106 9.16322L9.16983 8.10713L8.45451 7.39395C8.16563 7.10592 7.9719 6.77333 7.87331 6.39615C7.77702 6.0167 7.7759 5.63839 7.86987 5.26122C7.96619 4.88176 8.15992 4.54688 8.45108 4.25657C8.73994 3.96855 9.07467 3.77654 9.45526 3.68053C9.83584 3.58453 10.2153 3.58567 10.5935 3.68396C10.9741 3.77997 11.3089 3.97199 11.5977 4.26C11.8866 4.54803 12.0792 4.88176 12.1755 5.26122C12.2741 5.63839 12.2752 6.0167 12.1789 6.39615C12.0849 6.7779 11.8935 7.11279 11.6046 7.40079L10.8928 8.11056L11.9485 9.16322L12.6604 8.45345C12.9493 8.16542 13.2828 7.97226 13.6611 7.87399C14.0417 7.77797 14.4211 7.77909 14.7994 7.87739C15.18 7.97341 15.5159 8.16657 15.807 8.45688C16.0959 8.74491 16.2885 9.07862 16.3848 9.45808C16.4834 9.83527 16.4834 10.2124 16.3848 10.5896C16.2885 10.9691 16.0959 11.3028 15.807 11.5908C15.5159 11.8811 15.18 12.0743 14.7994 12.1703C14.4211 12.264 14.0417 12.2628 13.6611 12.1669C13.2851 12.0708 12.9527 11.8788 12.6638 11.5908L11.952 10.8811L10.8928 11.9371L11.6046 12.6469C11.8935 12.9349 12.0849 13.2675 12.1789 13.6447C12.2752 14.0241 12.2752 14.4036 12.1789 14.7831C12.0826 15.1625 11.8889 15.4974 11.5977 15.7877C11.3112 16.0734 10.9764 16.2654 10.5935 16.3637C10.213 16.4597 9.83241 16.4597 9.45182 16.3637C9.07583 16.2677 8.74337 16.0757 8.45451 15.7877C8.16335 15.4974 7.96847 15.1636 7.86987 14.7865C7.77359 14.407 7.77359 14.0276 7.86987 13.6481C7.97078 13.2686 8.16451 12.9361 8.45108 12.6503L9.16983 11.9337L8.11407 10.8811L7.39532 11.5977C7.10874 11.8834 6.77285 12.0743 6.38768 12.1703C6.0071 12.2663 5.62653 12.2663 5.24595 12.1703C4.86766 12.072 4.53408 11.8788 4.2452 11.5908ZM5.10495 10.7336C5.23563 10.8639 5.38694 10.9508 5.55889 10.9942C5.73313 11.0399 5.90623 11.0411 6.07818 10.9976C6.25013 10.9542 6.40144 10.8673 6.53212 10.737L7.25087 10.0204L6.53556 9.30724C6.40488 9.17692 6.25242 9.0912 6.07818 9.05007C5.90623 9.00663 5.73428 9.00663 5.56233 9.05007C5.39038 9.09351 5.23792 9.18151 5.10495 9.31407C4.97426 9.44439 4.886 9.59411 4.84015 9.76324C4.79659 9.93469 4.79659 10.1061 4.84015 10.2776C4.886 10.4513 4.97426 10.6033 5.10495 10.7336ZM9.31424 6.53674L10.0296 7.24994L10.7414 6.54017C10.8744 6.40759 10.9615 6.25672 11.0028 6.08756C11.0463 5.91612 11.0452 5.74354 10.9993 5.56981C10.9558 5.39837 10.8687 5.2475 10.738 5.11721C10.6073 4.98691 10.456 4.90005 10.2841 4.85662C10.1121 4.81318 9.94014 4.81318 9.7682 4.85662C9.59854 4.89776 9.44723 4.98462 9.31424 5.11721C9.18357 5.2475 9.09418 5.39837 9.04602 5.56981C9.00245 5.74125 9.00245 5.91269 9.04602 6.08413C9.09418 6.25557 9.18357 6.40644 9.31424 6.53674ZM12.6103 10.0238L13.3222 10.7336C13.4528 10.8639 13.603 10.9519 13.7727 10.9976C13.9446 11.0411 14.3168 11.0399 14.4865 10.9942C14.6584 10.9508 14.8109 10.8628 14.9439 10.7302C15.0768 10.5976 15.164 10.4467 15.2052 10.2776C15.2511 10.1084 15.2522 9.93812 15.2087 9.76668C15.1651 9.59523 15.078 9.44439 14.9473 9.31407C14.8143 9.18151 14.6619 9.09351 14.4899 9.05007C14.318 9.00663 13.9446 9.00663 13.7727 9.05007C13.6053 9.09351 13.4551 9.18151 13.3222 9.31407L12.6103 10.0238ZM9.31424 14.9305C9.44496 15.0608 9.59627 15.1476 9.7682 15.1911C9.94014 15.2345 10.111 15.2334 10.2806 15.1876C10.4526 15.1442 10.6039 15.0574 10.7346 14.927C10.8675 14.7945 10.9558 14.6425 10.9993 14.471C11.0452 14.3019 11.0463 14.1316 11.0028 13.9601C10.9615 13.7864 10.8756 13.6344 10.7449 13.5041L10.033 12.7943L9.31424 13.511C9.18357 13.6412 9.0953 13.791 9.04945 13.9601C9.00588 14.1316 9.00588 14.303 9.04945 14.4745C9.09302 14.6459 9.18129 14.7979 9.31424 14.9305ZM8.9738 10.0238L10.0296 11.0765L11.0888 10.0204L10.033 8.96778L8.9738 10.0238Z" fill="#E1C5AF"/>
</g>
</svg>
