<svg width="32" height="32" viewBox="0 0 32 32" fill="none" xmlns="http://www.w3.org/2000/svg">
<circle cx="16" cy="16" r="15.75" fill="url(#paint0_linear_7298_1369)" stroke="white" stroke-width="0.5"/>
<mask id="mask0_7298_1369" style="mask-type:luminance" maskUnits="userSpaceOnUse" x="4" y="4" width="24" height="24">
<path d="M27.094 4.94141H4.90625V27.0592H27.094V4.94141Z" fill="white"/>
</mask>
<g mask="url(#mask0_7298_1369)">
<path d="M6.10896 18.7346C5.61264 18.2398 5.27979 17.6683 5.11041 17.0203C4.94497 16.3684 4.94497 15.7164 5.11041 15.0644C5.27979 14.4085 5.61067 13.8351 6.10305 13.3442C6.60331 12.8454 7.18039 12.5136 7.83428 12.3486C8.48817 12.1837 9.14205 12.1837 9.79594 12.3486C10.4498 12.5136 11.0249 12.8435 11.5213 13.3383L12.7502 14.5637L14.5701 12.7492L13.3411 11.5239C12.8448 11.029 12.5119 10.4576 12.3425 9.80953C12.1771 9.15758 12.1752 8.50759 12.3366 7.85956C12.5021 7.20761 12.8349 6.63224 13.3352 6.13346C13.8315 5.6386 14.4066 5.3087 15.0605 5.14375C15.7144 4.97879 16.3663 4.98075 17.0162 5.14963C17.6701 5.31458 18.2452 5.6445 18.7416 6.13935C19.2379 6.63421 19.5688 7.20761 19.7342 7.85956C19.9036 8.50759 19.9055 9.15758 19.7401 9.80953C19.5786 10.4654 19.2497 11.0408 18.7534 11.5356L17.5303 12.7551L19.3443 14.5637L20.5673 13.3442C21.0637 12.8494 21.6368 12.5175 22.2867 12.3486C22.9406 12.1837 23.5925 12.1856 24.2425 12.3545C24.8964 12.5195 25.4734 12.8513 25.9737 13.3501C26.47 13.845 26.8009 14.4184 26.9663 15.0703C27.1357 15.7184 27.1357 16.3664 26.9663 17.0144C26.8009 17.6664 26.47 18.2398 25.9737 18.7346C25.4734 19.2334 24.8964 19.5653 24.2425 19.7303C23.5925 19.8913 22.9406 19.8893 22.2867 19.7244C21.6407 19.5594 21.0696 19.2295 20.5732 18.7346L19.3502 17.5152L17.5303 19.3296L18.7534 20.5491C19.2497 21.0439 19.5786 21.6154 19.7401 22.2634C19.9055 22.9154 19.9055 23.5673 19.7401 24.2193C19.5747 24.8713 19.2418 25.4466 18.7416 25.9454C18.2492 26.4363 17.6741 26.7663 17.0162 26.9351C16.3623 27.1001 15.7085 27.1001 15.0546 26.9351C14.4086 26.7702 13.8374 26.4403 13.3411 25.9454C12.8408 25.4466 12.506 24.8732 12.3366 24.2252C12.1712 23.5732 12.1712 22.9213 12.3366 22.2693C12.51 21.6174 12.8428 21.0459 13.3352 20.555L14.5701 19.3237L12.7562 17.5152L11.5213 18.7464C11.0289 19.2374 10.4518 19.5653 9.79002 19.7303C9.13614 19.8952 8.48226 19.8952 7.82838 19.7303C7.17843 19.5614 6.60529 19.2295 6.10896 18.7346ZM7.58611 17.2619C7.81064 17.4857 8.07062 17.635 8.36605 17.7095C8.66542 17.7881 8.96283 17.7901 9.25825 17.7154C9.55368 17.6409 9.81366 17.4916 10.0382 17.2678L11.2731 16.0365L10.0441 14.8111C9.81957 14.5872 9.55762 14.44 9.25825 14.3693C8.96283 14.2947 8.66739 14.2947 8.37196 14.3693C8.07653 14.4439 7.81458 14.5951 7.58611 14.8229C7.36158 15.0468 7.20994 15.304 7.13116 15.5946C7.05631 15.8892 7.05631 16.1838 7.13116 16.4783C7.20994 16.7768 7.36158 17.038 7.58611 17.2619ZM14.8182 10.0511L16.0472 11.2764L17.2703 10.057C17.4988 9.82917 17.6485 9.56996 17.7194 9.27933C17.7942 8.98477 17.7923 8.68825 17.7134 8.38976C17.6386 8.09521 17.4889 7.836 17.2644 7.61213C17.0399 7.38827 16.7799 7.23903 16.4845 7.16441C16.189 7.08978 15.8936 7.08978 15.5982 7.16441C15.3067 7.2351 15.0467 7.38434 14.8182 7.61213C14.5937 7.836 14.4401 8.09521 14.3574 8.38976C14.2825 8.68432 14.2825 8.97888 14.3574 9.27344C14.4401 9.56799 14.5937 9.8272 14.8182 10.0511ZM20.4813 16.0424L21.7043 17.2619C21.9289 17.4857 22.1869 17.6369 22.4784 17.7154C22.7738 17.7901 23.4133 17.7881 23.7048 17.7095C24.0002 17.635 24.2622 17.4838 24.4907 17.256C24.7191 17.0281 24.8688 16.769 24.9397 16.4783C25.0185 16.1877 25.0205 15.8951 24.9456 15.6005C24.8708 15.306 24.7211 15.0468 24.4966 14.8229C24.2681 14.5951 24.0061 14.4439 23.7107 14.3693C23.4153 14.2947 22.7738 14.2947 22.4784 14.3693C22.1908 14.4439 21.9328 14.5951 21.7043 14.8229L20.4813 16.0424ZM14.8182 24.4726C15.0428 24.6965 15.3028 24.8457 15.5982 24.9203C15.8936 24.995 16.1871 24.993 16.4786 24.9144C16.774 24.8398 17.034 24.6906 17.2585 24.4667C17.4869 24.2389 17.6386 23.9778 17.7134 23.6832C17.7923 23.3926 17.7942 23.1 17.7194 22.8054C17.6485 22.5069 17.5008 22.2458 17.2763 22.0219L16.0531 20.8024L14.8182 22.0337C14.5937 22.2575 14.4421 22.5148 14.3633 22.8054C14.2884 23.1 14.2884 23.3945 14.3633 23.6891C14.4381 23.9836 14.5898 24.2448 14.8182 24.4726ZM14.2333 16.0424L16.0472 17.851L17.8671 16.0365L16.0531 14.2279L14.2333 16.0424Z" fill="#F1E1D2"/>
</g>
<defs>
<linearGradient id="paint0_linear_7298_1369" x1="16" y1="-3.6037e-07" x2="16" y2="32" gradientUnits="userSpaceOnUse">
<stop stop-color="#4A4443"/>
<stop offset="1" stop-color="#100E0E"/>
</linearGradient>
</defs>
</svg>
