<svg width="64" height="64" viewBox="0 0 64 64" fill="none" xmlns="http://www.w3.org/2000/svg">
<circle cx="32" cy="32" r="32" fill="#4C5460"/>
<path d="M31.9656 17.5332C23.1467 17.5332 16 24.6803 16 33.4992C16 42.3181 23.1471 49.4648 31.9656 49.4648C40.7849 49.4648 47.9316 42.3181 47.9316 33.4992C47.9316 24.6803 40.7576 17.5332 31.9656 17.5332ZM31.9656 48.575C23.6323 48.575 16.8898 41.8325 16.8898 33.4988C16.8898 25.1655 23.6323 18.4234 31.966 18.4234C40.2993 18.4234 47.0418 25.1658 47.0418 33.4992C47.0418 41.8329 40.2721 48.575 31.9656 48.575Z" fill="white"/>
<path fill-rule="evenodd" clip-rule="evenodd" d="M46.1253 14.9959C48.3095 16.5872 49.5234 18.0166 49.9008 19.4456H49.9012C50.1435 20.2549 49.928 21.226 49.3888 21.9539C48.8491 22.6822 47.9862 23.0868 46.9882 23.0868C46.6108 23.0868 46.2331 23.0328 45.8553 22.925C45.4779 23.9766 45.2083 25.0014 45.1277 25.8916L45.1005 26.2153C43.1587 22.8441 40.0571 20.2552 36.3357 19.0141C36.4435 18.9873 37.2523 18.7445 38.6817 17.8816C38.5216 17.6414 38.3881 17.3749 38.2806 17.1602L38.2771 17.1532C37.9807 16.4525 38.0884 15.2924 38.5471 14.4294C38.9245 13.7015 39.5178 13.2159 40.1917 13.0809C40.4617 13.0272 40.7313 13 41.0282 13C42.5113 13 44.3722 13.7283 46.1253 14.9959ZM49.1461 19.6643C49.4702 20.9319 48.4722 22.8196 46.018 22.1454C45.8021 22.0644 45.5865 22.0108 45.3975 21.9839C45.1551 22.55 44.8851 23.1974 44.6964 23.9257C43.0783 21.768 40.9209 20.0421 38.4395 18.936C38.5351 18.8787 38.6352 18.8199 38.7391 18.7589C39.075 18.5616 39.4507 18.3409 39.842 18.0734C39.4374 17.5879 39.1406 17.1564 39.0059 16.8596C38.6822 16.1044 39.06 14.1357 40.3544 13.8661C41.6488 13.5961 43.6716 14.1894 45.6675 15.6461C47.663 17.1023 48.7959 18.3967 49.1461 19.6643Z" fill="white"/>
<path d="M42.0262 16.5361C42.5654 16.7517 43.2665 17.129 44.1294 17.6955C45.1542 18.3698 46.0444 19.1249 46.6105 19.7183C45.6666 20.959 45.0465 22.6576 44.6691 23.8447C44.8578 24.1143 45.0737 24.3839 45.262 24.6539C45.4511 23.9793 45.7744 22.9813 46.2063 21.9838C46.314 22.0106 46.4486 22.0106 46.5836 22.0106C46.9074 22.0106 47.2847 21.9565 47.5816 21.7138C47.7971 21.5519 48.0399 21.2555 48.0131 20.7162C48.0131 20.2034 47.6084 19.5564 46.7723 18.7744C46.179 18.2079 45.3702 17.5878 44.5609 17.0213C42.2417 15.4841 40.6236 15.0526 39.8953 15.7806C39.4097 16.2661 39.4634 16.8594 39.6256 17.2909C38.7627 17.8574 38.0344 18.262 37.5488 18.5316C37.8725 18.6394 38.1694 18.7744 38.4927 18.909C39.356 18.4507 40.5964 17.6687 42.0258 16.5357L42.0262 16.5361ZM47.1229 20.3925C47.2038 20.5271 47.231 20.6621 47.231 20.7427C47.231 20.9858 47.1501 21.0668 47.096 21.1204C46.9883 21.2014 46.7723 21.2555 46.5836 21.2555C46.7455 20.9317 46.9342 20.6621 47.1229 20.3925ZM40.4621 16.3739C40.5431 16.2929 40.7586 16.2393 41.1091 16.2929C40.8395 16.5089 40.5699 16.6976 40.2999 16.8863C40.273 16.6976 40.2999 16.5089 40.4621 16.3739Z" fill="white"/>
<path d="M36.6591 26.6991C37.9998 26.6991 39.0864 25.6124 39.0864 24.2721C39.0864 22.9314 37.9998 21.8444 36.6591 21.8444C35.3187 21.8444 34.2317 22.9314 34.2317 24.2721C34.2317 25.6124 35.3187 26.6991 36.6594 26.6991H36.6591ZM40.6236 28.5063C41.1897 28.5063 41.6484 28.0472 41.6484 27.4815C41.6484 26.9154 41.1893 26.4563 40.6236 26.4563C40.0575 26.4563 39.5988 26.9154 39.5988 27.4815C39.5988 28.0472 40.0579 28.5063 40.6236 28.5063Z" fill="white"/>
<path fill-rule="evenodd" clip-rule="evenodd" d="M46.3423 33.3629C46.3423 41.2648 39.9236 47.6839 32.0213 47.6839C24.1194 47.6839 17.6738 41.2652 17.6738 33.3629L20.4067 36.0448L25.8724 38.2311L33.5243 37.6845L46.3423 33.3629ZM30.969 44.7463C31.3857 44.7463 31.7238 44.4078 31.7238 43.9911C31.7238 43.574 31.3857 43.236 30.969 43.236C30.5516 43.236 30.2135 43.574 30.2135 43.9907C30.2135 44.4082 30.5519 44.7463 30.9686 44.7463H30.969ZM35.6594 43.6123C35.6594 44.029 35.3216 44.3671 34.9046 44.3671H34.9042C34.4875 44.3671 34.1494 44.029 34.1494 43.6119C34.1494 43.1952 34.4875 42.8567 34.9046 42.8567C35.3216 42.8567 35.6594 43.1948 35.6594 43.6123ZM32.9635 46.1174C33.2764 46.1174 33.53 45.8637 33.53 45.5509C33.53 45.2381 33.2764 44.9848 32.9635 44.9848C32.6507 44.9848 32.3971 45.2381 32.3971 45.5509C32.3971 45.8637 32.6507 46.1174 32.9635 46.1174ZM37.0108 45.1474C37.0108 45.4606 36.7571 45.7139 36.4443 45.7139C36.1315 45.7139 35.8782 45.4602 35.8782 45.1478C35.8782 44.835 36.1315 44.5813 36.4443 44.5813C36.7571 44.5813 37.0108 44.835 37.0108 45.1474ZM27.7586 44.4733C28.4437 44.4733 28.9993 43.9182 28.9993 43.233C28.9993 42.5479 28.4437 41.9923 27.7586 41.9923C27.0738 41.9923 26.5182 42.5479 26.5182 43.233C26.5182 43.9178 27.0734 44.4733 27.7586 44.4733ZM40.0837 40.1858C40.0837 40.8709 39.5281 41.4261 38.843 41.4261C38.1579 41.4261 37.6023 40.8705 37.6023 40.1858C37.6023 39.5006 38.1579 38.9451 38.8426 38.9451C39.5281 38.9451 40.0837 39.5006 40.0837 40.1858Z" fill="white"/>
<path d="M31.0839 32.0883L31.084 32.0883L31.0887 32.0869C34.2129 31.134 36.9277 30.8719 39.6132 31.0822C41.4931 31.2423 43.1007 31.5534 44.223 32.008C45.3909 32.4811 45.8155 33.0115 45.8155 33.4964C45.8155 33.6909 45.7473 33.8246 45.5807 33.9578C45.3873 34.1125 45.0735 34.2523 44.6094 34.3933C44.2324 34.5079 43.7991 34.6115 43.3072 34.7291C43.2004 34.7546 43.0909 34.7808 42.9785 34.8079C42.3574 34.9577 41.6686 35.1318 40.9539 35.3676L40.951 35.3686C40.2399 35.6082 39.5656 35.8724 38.8762 36.1426C37.0068 36.8752 35.026 37.6515 31.8978 38.098C27.6881 38.6938 24.2087 38.1269 21.8022 37.0924C20.5976 36.5745 19.6762 35.946 19.0634 35.302C18.4466 34.6538 18.1738 34.0259 18.1738 33.4964C18.1738 33.1124 18.2791 32.8944 18.4295 32.7492C18.5955 32.589 18.8824 32.4535 19.3624 32.3753C20.336 32.2167 21.8198 32.3327 23.846 32.564C25.6823 32.7829 28.2405 32.9248 31.0839 32.0883Z" stroke="white"/>
</svg>
