<svg width="32" height="32" viewBox="0 0 32 32" fill="none" xmlns="http://www.w3.org/2000/svg">
<g clip-path="url(#clip0_615_1094)">
<path d="M16 32C24.8366 32 32 24.8366 32 16C32 7.16344 24.8366 0 16 0C7.16344 0 0 7.16344 0 16C0 24.8366 7.16344 32 16 32Z" fill="url(#paint0_linear_615_1094)"/>
<rect x="7.27344" y="7.27344" width="5.81818" height="5.81818" fill="white"/>
<rect x="7.27344" y="18.9102" width="5.81818" height="5.81818" fill="white"/>
<rect x="18.9102" y="7.27344" width="5.81818" height="5.81818" fill="white"/>
<rect x="13.0898" y="13.0918" width="5.81818" height="5.81818" fill="white"/>
<rect x="18.9102" y="18.9102" width="5.81818" height="5.81818" fill="white"/>
</g>
<path d="M16 31.75C24.698 31.75 31.75 24.698 31.75 16C31.75 7.302 24.698 0.25 16 0.25C7.302 0.25 0.25 7.302 0.25 16C0.25 24.698 7.302 31.75 16 31.75Z" stroke="white" stroke-width="0.5"/>
<defs>
<linearGradient id="paint0_linear_615_1094" x1="16" y1="0" x2="16" y2="32" gradientUnits="userSpaceOnUse">
<stop stop-color="#494949"/>
<stop offset="1"/>
</linearGradient>
<clipPath id="clip0_615_1094">
<rect width="32" height="32" fill="white"/>
</clipPath>
</defs>
</svg>
