<svg width="20" height="20" viewBox="0 0 20 20" fill="none" xmlns="http://www.w3.org/2000/svg">
<circle cx="10" cy="10" r="9.9609375" fill="#FFFFFF"/>
<path fill-rule="evenodd" clip-rule="evenodd" d="M10 18.66666015625C14.78646484375 18.66666015625 18.66666015625 14.78646484375 18.66666015625 10C18.66666015625 5.21353515625 14.78646484375 1.333333984375 10 1.333333984375C5.21353515625 1.333333984375 1.333333984375 5.21353515625 1.333333984375 10C1.333333984375 14.78646484375 5.21353515625 18.66666015625 10 18.66666015625ZM10 20C15.5228515625 20 20 15.5228515625 20 10C20 4.4771484375 15.5228515625 0 10 0C4.4771484375 0 0 4.4771484375 0 10C0 15.5228515625 4.4771484375 20 10 20Z" fill="#27201D"/>
<path d="M11.86763671875 5.63267578125C11.94318359375 5.5398828125 12.0383203125 5.46494140625 12.14623046875 5.41318359375C12.25412109375 5.3614453125 12.37212890625 5.33419921875 12.49177734375 5.333359375C12.59115234375 5.33380859375 12.689453125 5.35392578125 12.78099609375 5.39255859375C12.87255859375 5.431171875 12.95556640625 5.4875390625 13.025234375 5.5583984375C13.09490234375 5.6292578125 13.14986328125 5.713203125 13.18693359375 5.805390625C13.22400390625 5.89759765625 13.2424609375 5.9962109375 13.24123046875 6.0955859375V13.85109375C13.24939453125 13.955078125 13.23595703125 14.0596484375 13.2017578125 14.158203125C13.167578125 14.25677734375 13.113359375 14.34720703125 13.0425390625 14.4237890625C12.97171875 14.500390625 12.8858203125 14.5615234375 12.790234375 14.6033203125C12.6946484375 14.6451171875 12.59146484375 14.66669921875 12.4871484375 14.66669921875C12.38283203125 14.66669921875 12.27962890625 14.6451171875 12.18404296875 14.6033203125C12.0884765625 14.5615234375 12.002578125 14.500390625 11.9317578125 14.4237890625C11.8609375 14.34720703125 11.80671875 14.25677734375 11.77251953125 14.158203125C11.7383203125 14.0596484375 11.72490234375 13.955078125 11.73306640625 13.85109375V8.02373046875L6.4335546875 14.35806640625C6.364296875 14.4378125 6.2790234375 14.50205078125 6.18326171875 14.546640625C6.08751953125 14.5912109375 5.98345703125 14.6151171875 5.8778515625 14.61677734375C5.6898046875 14.6149609375 5.5099609375 14.539453125 5.3769921875 14.406484375C5.24400390625 14.27349609375 5.16849609375 14.093671875 5.1666796875 13.90560546875C5.16544921875 13.73578125 5.22513671875 13.57115234375 5.33490234375 13.4415625L11.86763671875 5.63267578125Z" fill="#27201D"/>
</svg>
