<svg width="32" height="32" viewBox="0 0 32 32" fill="none" xmlns="http://www.w3.org/2000/svg">
<circle cx="16" cy="16" r="15.9375" fill="#FFFFFF"/>
<path fill-rule="evenodd" clip-rule="evenodd" d="M16 29.86665625C23.65834375 29.86665625 29.86665625 23.65834375 29.86665625 16C29.86665625 8.34165625 23.65834375 2.133334375 16 2.133334375C8.34165625 2.133334375 2.133334375 8.34165625 2.133334375 16C2.133334375 23.65834375 8.34165625 29.86665625 16 29.86665625ZM16 32C24.8365625 32 32 24.8365625 32 16C32 7.1634375 24.8365625 0 16 0C7.1634375 0 0 7.1634375 0 16C0 24.8365625 7.1634375 32 16 32Z" fill="#27201D"/>
<path d="M18.98821875 9.01228125C19.10909375 8.8638125 19.2613125 8.74390625 19.43396875 8.66109375C19.60659375 8.5783125 19.79540625 8.53471875 19.98684375 8.533375C20.14584375 8.53409375 20.303125 8.56628125 20.44959375 8.62809375C20.59609375 8.689875 20.72890625 8.7800625 20.840375 8.8934375C20.95184375 9.0068125 21.03978125 9.141125 21.09909375 9.288625C21.15840625 9.43615625 21.1879375 9.5939375 21.18596875 9.7529375V22.16175C21.19903125 22.328125 21.17753125 22.4954375 21.1228125 22.653125C21.068125 22.81084375 20.981375 22.95553125 20.8680625 23.0780625C20.75475 23.200625 20.6173125 23.2984375 20.464375 23.3653125C20.3114375 23.4321875 20.14634375 23.46671875 19.9794375 23.46671875C19.81253125 23.46671875 19.64740625 23.4321875 19.49446875 23.3653125C19.3415625 23.2984375 19.204125 23.200625 19.0908125 23.0780625C18.9775 22.95553125 18.89075 22.81084375 18.83603125 22.653125C18.7813125 22.4954375 18.75984375 22.328125 18.77290625 22.16175V12.83796875L10.2936875 22.97290625C10.182875 23.1005 10.0464375 23.20328125 9.89321875 23.274625C9.74003125 23.3459375 9.57353125 23.3841875 9.4045625 23.38684375C9.1036875 23.3839375 8.8159375 23.263125 8.6031875 23.050375C8.39040625 22.83759375 8.26959375 22.549875 8.2666875 22.24896875C8.26471875 21.97725 8.36021875 21.71384375 8.53584375 21.5065L18.98821875 9.01228125Z" fill="#27201D"/>
</svg>
