<svg width="200" height="200" viewBox="0 0 200 200" fill="none" xmlns="http://www.w3.org/2000/svg">
<circle cx="100" cy="100" r="100" fill="url(#paint0_linear_2570_900)"/>
<path d="M161.386 96.7537L151.804 80.1779C151.804 80.1779 151.679 79.9901 151.616 79.9066H151.428L150.781 78.7792C149.007 76.7125 146.418 75.4808 143.662 75.4808H70.992L78.3614 62.7253H141.512L130.636 43.874H72.9335C69.5724 43.874 66.4619 45.6694 64.7917 48.5712L38.6337 93.8519C36.9427 96.7746 36.9427 100.344 38.6337 103.267L48.2159 119.843C49.9069 122.766 52.9966 124.54 56.3577 124.54H129.007L121.638 137.296H58.0487L68.9253 156.126H127.087C130.448 156.126 133.558 154.331 135.228 151.429L161.366 106.148C163.057 103.225 163.057 99.6555 161.366 96.7329L161.386 96.7537ZM139.905 105.731H61.8064L57.6729 98.57L60.1363 94.2903H138.214L142.347 101.451L139.884 105.731H139.905Z" fill="white"/>
<defs>
<linearGradient id="paint0_linear_2570_900" x1="100" y1="0" x2="100" y2="200" gradientUnits="userSpaceOnUse">
<stop stop-color="#3C7DFF"/>
<stop offset="1" stop-color="#000894"/>
</linearGradient>
</defs>
</svg>
