<svg width="20" height="20" viewBox="0 0 20 20" fill="none" xmlns="http://www.w3.org/2000/svg">
<path d="M9.99991 19.285C15.1279 19.285 19.285 15.1279 19.285 9.99991C19.285 4.87191 15.1279 0.714844 9.99991 0.714844C4.87191 0.714844 0.714844 4.87191 0.714844 9.99991C0.714844 15.1279 4.87191 19.285 9.99991 19.285Z" fill="white"/>
<path d="M9.99934 19.9986C8.68565 20.0023 7.3843 19.7452 6.17057 19.2426C4.95684 18.7399 3.85486 18.0016 2.92841 17.0702C1.99702 16.1438 1.25863 15.042 0.755973 13.8282C0.253319 12.6145 -0.00361684 11.313 4.01675e-05 9.99934C-0.00369573 8.68564 0.253206 7.38418 0.755864 6.17044C1.25852 4.9567 1.99696 3.85488 2.92841 2.92848C3.85481 1.99702 4.95677 1.25844 6.1705 0.755777C7.38424 0.253118 8.68564 -0.00369572 9.99934 4.01809e-05C11.313 -0.00369572 12.6144 0.253118 13.8282 0.755777C15.0419 1.25844 16.1439 1.99702 17.0703 2.92848C18.0017 3.85488 18.7402 4.9567 19.2428 6.17044C19.7455 7.38418 20.0024 8.68564 19.9986 9.99934C20.0023 11.313 19.7454 12.6145 19.2427 13.8282C18.7401 15.042 18.0017 16.1438 17.0703 17.0702C16.1438 18.0016 15.0418 18.7399 13.8281 19.2426C12.6144 19.7452 11.313 20.0023 9.99934 19.9986ZM9.99934 1.42851C7.72697 1.43097 5.54838 2.33478 3.94157 3.94159C2.33476 5.5484 1.43097 7.72697 1.42851 9.99934C1.43097 12.2717 2.33476 14.4503 3.94157 16.0571C5.54838 17.6639 7.72697 18.5677 9.99934 18.5702C12.2717 18.5677 14.4503 17.6639 16.0571 16.0571C17.6639 14.4503 18.5677 12.2717 18.5702 9.99934C18.5677 7.72697 17.6639 5.5484 16.0571 3.94159C14.4503 2.33478 12.2717 1.43097 9.99934 1.42851Z" fill="black"/>
<path opacity="0.7" d="M9.2863 19.9742V18.5408C9.52438 18.5608 9.76246 18.5708 10.0005 18.5708C10.2386 18.5708 10.4767 18.5611 10.7148 18.5415V19.9749C10.4767 19.9916 10.2386 20 10.0005 20C9.76246 20 9.52438 19.9913 9.2863 19.9742ZM15.533 16.5411C15.8967 16.2329 16.2343 15.8951 16.5422 15.5311L17.5586 16.5474C17.4034 16.7264 17.241 16.9004 17.0715 17.0695C16.902 17.2385 16.7279 17.401 16.5494 17.5567L15.533 16.5411ZM2.93102 17.0702C2.76151 16.9007 2.59891 16.7264 2.44321 16.5474L3.45957 15.5311C3.76776 15.8951 4.10556 16.2329 4.4695 16.5411L3.45314 17.5574C3.27411 17.4021 3.09959 17.2397 2.92961 17.0702H2.93102ZM18.5421 10.7135C18.5616 10.4755 18.5714 10.2374 18.5714 9.9993C18.5714 9.76122 18.5616 9.52315 18.5421 9.28507H19.9756C19.9922 9.52315 20.0006 9.76122 20.0006 9.9993C20.0006 10.2374 19.9922 10.4755 19.9756 10.7135H18.5421ZM0.026954 10.7135C0.0102885 10.4755 0.00195312 10.2374 0.00195312 9.9993C0.00195312 9.76122 0.0102885 9.52315 0.026954 9.28507H1.46042C1.44089 9.52315 1.43114 9.76122 1.43114 9.9993C1.43114 10.2374 1.44089 10.4755 1.46042 10.7135H0.026954ZM2.44321 3.45191C2.59891 3.27287 2.76151 3.09887 2.93102 2.92983C3.10053 2.7608 3.27483 2.59811 3.45386 2.44193L4.4695 3.45749C4.10562 3.76601 3.76783 4.10406 3.45957 4.46816L2.44321 3.45191ZM15.533 3.45749L16.5487 2.44193C16.7277 2.59764 16.902 2.76032 17.0715 2.92983C17.241 3.09934 17.4034 3.27335 17.5586 3.45191L16.5422 4.46816C16.2341 4.10396 15.8963 3.76589 15.5323 3.45749H15.533ZM9.2863 0.0251099C9.52438 0.00844435 9.76246 0 10.0005 0C10.2386 0 10.4767 0.00844435 10.7148 0.0251099V1.45707C10.4791 1.43755 10.241 1.42777 10.0005 1.42777C9.76008 1.42777 9.522 1.43777 9.2863 1.45777V0.0251099Z" fill="white"/>
<path d="M8.31936 14.841C8.27217 14.7993 8.24262 14.7412 8.23672 14.6786L7.76758 9.6875H9.43721V15.279C9.43721 15.4923 9.18561 15.6058 9.02573 15.4647L8.31936 14.841Z" fill="url(#paint0_linear_3941_58618)"/>
<path d="M9.43645 9.58697V8.89023L7.67773 8.73828L7.75751 9.58697H9.43645Z" fill="url(#paint1_linear_3941_58618)"/>
<path d="M9.43623 8.79132L7.66809 8.63856L7.39173 5.69851C7.37808 5.55325 7.49235 5.42773 7.63825 5.42773H9.18864C9.32538 5.42773 9.43623 5.53859 9.43623 5.67534V8.79132Z" fill="url(#paint2_linear_3941_58618)"/>
<path d="M12.6992 9.58664H13.9714C14.0397 9.58664 14.0951 9.53126 14.0951 9.4629V8.73313C14.0951 8.66003 14.0321 8.60287 13.9593 8.60997L12.778 8.72532L12.6992 9.58664Z" fill="url(#paint3_linear_3941_58618)"/>
<path d="M12.6772 8.73438L10.916 8.90635V9.58629H12.5992L12.6772 8.73438Z" fill="url(#paint4_linear_3941_58618)"/>
<path d="M10.8173 8.9165V9.58677H6.12771C6.05933 9.58677 6.00391 9.53137 6.00391 9.46298V8.73123C6.00391 8.6587 6.06599 8.6017 6.13826 8.60788L10.3061 8.96435C10.3136 8.96499 10.3211 8.96495 10.3287 8.96421L10.8173 8.9165Z" fill="url(#paint5_linear_3941_58618)"/>
<path d="M11.3399 15.4468C11.1844 15.6044 10.916 15.4943 10.916 15.2729V7.5918H12.7842L12.1343 14.5618C12.129 14.6187 12.1042 14.6721 12.064 14.7127L11.3399 15.4468Z" fill="url(#paint6_linear_3941_58618)"/>
<path d="M12.7934 7.49236H10.916V6.42483L12.9045 6.30078L12.7934 7.49236Z" fill="url(#paint7_linear_3941_58618)"/>
<path d="M10.916 5.67533V6.32596L12.9139 6.20133L12.9607 5.69832C12.9743 5.55312 12.86 5.42773 12.7142 5.42773H11.1637C11.0269 5.42773 10.916 5.53859 10.916 5.67533Z" fill="url(#paint8_linear_3941_58618)"/>
<path d="M9.43526 7.49224V6.42782L7.44922 6.33008L7.55788 7.49224H9.43526Z" fill="url(#paint9_linear_3941_58618)"/>
<path d="M9.53516 7.49368H14.5416C14.5963 7.49368 14.6407 7.44934 14.6407 7.39464V6.29436C14.6407 6.23719 14.5924 6.19189 14.5354 6.19552L10.2359 6.46862L9.53516 6.43413V7.49368Z" fill="url(#paint10_linear_3941_58618)"/>
<path d="M7.34179 6.32518L7.46042 7.49267H5.45451C5.39981 7.49267 5.35547 7.44833 5.35547 7.39363V6.33147C5.35547 6.27486 5.40284 6.22976 5.45938 6.23254L7.34179 6.32518Z" fill="url(#paint11_linear_3941_58618)"/>
<defs>
<linearGradient id="paint0_linear_3941_58618" x1="5.35676" y1="10.4779" x2="14.6418" y2="10.4779" gradientUnits="userSpaceOnUse">
<stop stop-color="#5433FF"/>
<stop offset="0.5" stop-color="#20BDFF"/>
<stop offset="1" stop-color="#A5FECB"/>
</linearGradient>
<linearGradient id="paint1_linear_3941_58618" x1="5.356" y1="10.4764" x2="14.641" y2="10.4764" gradientUnits="userSpaceOnUse">
<stop stop-color="#5433FF"/>
<stop offset="0.5" stop-color="#20BDFF"/>
<stop offset="1" stop-color="#A5FECB"/>
</linearGradient>
<linearGradient id="paint2_linear_3941_58618" x1="5.35578" y1="10.4769" x2="14.6408" y2="10.4769" gradientUnits="userSpaceOnUse">
<stop stop-color="#5433FF"/>
<stop offset="0.5" stop-color="#20BDFF"/>
<stop offset="1" stop-color="#A5FECB"/>
</linearGradient>
<linearGradient id="paint3_linear_3941_58618" x1="5.35885" y1="10.4757" x2="14.6396" y2="10.4757" gradientUnits="userSpaceOnUse">
<stop stop-color="#5433FF"/>
<stop offset="0.5" stop-color="#20BDFF"/>
<stop offset="1" stop-color="#A5FECB"/>
</linearGradient>
<linearGradient id="paint4_linear_3941_58618" x1="5.35493" y1="10.4758" x2="14.6399" y2="10.4758" gradientUnits="userSpaceOnUse">
<stop stop-color="#5433FF"/>
<stop offset="0.5" stop-color="#20BDFF"/>
<stop offset="1" stop-color="#A5FECB"/>
</linearGradient>
<linearGradient id="paint5_linear_3941_58618" x1="5.35519" y1="10.4763" x2="14.6402" y2="10.4763" gradientUnits="userSpaceOnUse">
<stop stop-color="#5433FF"/>
<stop offset="0.5" stop-color="#20BDFF"/>
<stop offset="1" stop-color="#A5FECB"/>
</linearGradient>
<linearGradient id="paint6_linear_3941_58618" x1="5.35493" y1="10.4769" x2="14.6399" y2="10.4769" gradientUnits="userSpaceOnUse">
<stop stop-color="#5433FF"/>
<stop offset="0.5" stop-color="#20BDFF"/>
<stop offset="1" stop-color="#A5FECB"/>
</linearGradient>
<linearGradient id="paint7_linear_3941_58618" x1="5.35492" y1="10.4765" x2="14.6399" y2="10.4765" gradientUnits="userSpaceOnUse">
<stop stop-color="#5433FF"/>
<stop offset="0.5" stop-color="#20BDFF"/>
<stop offset="1" stop-color="#A5FECB"/>
</linearGradient>
<linearGradient id="paint8_linear_3941_58618" x1="5.35493" y1="10.4769" x2="14.6399" y2="10.4769" gradientUnits="userSpaceOnUse">
<stop stop-color="#5433FF"/>
<stop offset="0.5" stop-color="#20BDFF"/>
<stop offset="1" stop-color="#A5FECB"/>
</linearGradient>
<linearGradient id="paint9_linear_3941_58618" x1="5.35481" y1="10.4764" x2="14.6398" y2="10.4764" gradientUnits="userSpaceOnUse">
<stop stop-color="#5433FF"/>
<stop offset="0.5" stop-color="#20BDFF"/>
<stop offset="1" stop-color="#A5FECB"/>
</linearGradient>
<linearGradient id="paint10_linear_3941_58618" x1="5.35565" y1="10.4778" x2="14.6407" y2="10.4778" gradientUnits="userSpaceOnUse">
<stop stop-color="#5433FF"/>
<stop offset="0.5" stop-color="#20BDFF"/>
<stop offset="1" stop-color="#A5FECB"/>
</linearGradient>
<linearGradient id="paint11_linear_3941_58618" x1="5.35547" y1="10.4768" x2="14.6405" y2="10.4768" gradientUnits="userSpaceOnUse">
<stop stop-color="#5433FF"/>
<stop offset="0.5" stop-color="#20BDFF"/>
<stop offset="1" stop-color="#A5FECB"/>
</linearGradient>
</defs>
</svg>
