<svg width="33" height="32" viewBox="0 0 33 32" fill="none" xmlns="http://www.w3.org/2000/svg">
<path d="M27.9533 27.1369C24.9996 30.0906 20.9936 31.75 16.8164 31.75C12.6392 31.75 8.63317 30.0906 5.67947 27.1369C2.72578 24.1832 1.06641 20.1772 1.06641 16C1.06641 11.8228 2.72578 7.81677 5.67947 4.86307C8.63317 1.90937 12.6392 0.25 16.8164 0.25C20.9936 0.25 24.9996 1.90937 27.9533 4.86307C30.907 7.81677 32.5664 11.8228 32.5664 16C32.5664 20.1772 30.907 24.1832 27.9533 27.1369Z" fill="url(#paint0_linear_3941_58619)" stroke="white" stroke-width="0.5"/>
<g opacity="0.25">
<path d="M13.6584 25.0062C13.5696 24.9278 13.5141 24.8186 13.503 24.7008L12.6211 15.3184H15.7598V25.8296C15.7598 26.2305 15.2868 26.4439 14.9862 26.1786L13.6584 25.0062Z" fill="black"/>
<path d="M15.7612 15.1325V13.8228L12.4551 13.5371L12.605 15.1325H15.7612Z" fill="black"/>
<path d="M15.7614 13.6355L12.4376 13.3484L11.9181 7.82151C11.8924 7.54845 12.1072 7.3125 12.3815 7.3125H15.296C15.5531 7.3125 15.7614 7.52089 15.7614 7.77795V13.6355Z" fill="black"/>
<path d="M21.8945 15.1321H24.286C24.4144 15.1321 24.5186 15.0279 24.5186 14.8995V13.5276C24.5186 13.3902 24.4001 13.2827 24.2633 13.296L22.0426 13.5129L21.8945 15.1321Z" fill="black"/>
<path d="M21.8537 13.5312L18.543 13.8545V15.1328H21.7072L21.8537 13.5312Z" fill="black"/>
<path d="M18.357 13.872V15.1321H9.54132C9.41279 15.1321 9.30859 15.0279 9.30859 14.8994V13.5238C9.30859 13.3874 9.4253 13.2803 9.56116 13.2919L17.396 13.962C17.4101 13.9632 17.4243 13.9631 17.4385 13.9617L18.357 13.872Z" fill="black"/>
<path d="M19.3398 26.1471C19.0475 26.4435 18.543 26.2365 18.543 25.8203V11.3809H22.0548L20.8331 24.4835C20.8232 24.5905 20.7765 24.6907 20.7011 24.7672L19.3398 26.1471Z" fill="black"/>
<path d="M22.0723 11.1951H18.543V9.18826L22.2811 8.95508L22.0723 11.1951Z" fill="black"/>
<path d="M18.543 7.77795V9.00102L22.2986 8.76674L22.3867 7.82116C22.4122 7.54821 22.1974 7.3125 21.9233 7.3125H19.0085C18.7514 7.3125 18.543 7.52089 18.543 7.77795Z" fill="black"/>
<path d="M15.7608 11.1945V9.1935L12.0273 9.00977L12.2316 11.1945H15.7608Z" fill="black"/>
<path d="M15.9473 11.1946H25.3587C25.4615 11.1946 25.5448 11.1113 25.5448 11.0085V8.9401C25.5448 8.83263 25.4542 8.74747 25.3469 8.75429L17.2645 9.26767L15.9473 9.20285V11.1946Z" fill="black"/>
<path d="M11.8238 9.00055L12.0468 11.1952H8.27603C8.1732 11.1952 8.08984 11.1119 8.08984 11.0091V9.01236C8.08984 8.90594 8.17889 8.82117 8.28517 8.8264L11.8238 9.00055Z" fill="black"/>
</g>
<path d="M13.6584 24.9671C13.5696 24.8888 13.5141 24.7796 13.503 24.6617L12.6211 15.2793H15.7598V25.7906C15.7598 26.1914 15.2868 26.4048 14.9862 26.1395L13.6584 24.9671Z" fill="url(#paint1_linear_3941_58619)"/>
<path d="M15.7612 15.0935V13.7837L12.4551 13.498L12.605 15.0935H15.7612Z" fill="url(#paint2_linear_3941_58619)"/>
<path d="M15.7614 13.5965L12.4376 13.3093L11.9181 7.78245C11.8924 7.50938 12.1072 7.27344 12.3815 7.27344H15.296C15.5531 7.27344 15.7614 7.48183 15.7614 7.73889V13.5965Z" fill="url(#paint3_linear_3941_58619)"/>
<path d="M21.8945 15.093H24.286C24.4144 15.093 24.5186 14.9889 24.5186 14.8604V13.4885C24.5186 13.3511 24.4001 13.2436 24.2633 13.257L22.0426 13.4738L21.8945 15.093Z" fill="url(#paint4_linear_3941_58619)"/>
<path d="M21.8537 13.4922L18.543 13.8155V15.0937H21.7072L21.8537 13.4922Z" fill="url(#paint5_linear_3941_58619)"/>
<path d="M18.357 13.833V15.093H9.54132C9.41279 15.093 9.30859 14.9888 9.30859 14.8603V13.4847C9.30859 13.3483 9.4253 13.2412 9.56116 13.2528L17.396 13.9229C17.4101 13.9241 17.4243 13.924 17.4385 13.9227L18.357 13.833Z" fill="url(#paint6_linear_3941_58619)"/>
<path d="M19.3398 26.1081C19.0475 26.4044 18.543 26.1974 18.543 25.7812V11.3418H22.0548L20.8331 24.4444C20.8232 24.5514 20.7765 24.6517 20.7011 24.7281L19.3398 26.1081Z" fill="url(#paint7_linear_3941_58619)"/>
<path d="M22.0723 11.156H18.543V9.1492L22.2811 8.91602L22.0723 11.156Z" fill="url(#paint8_linear_3941_58619)"/>
<path d="M18.543 7.73888V8.96196L22.2986 8.72768L22.3867 7.7821C22.4122 7.50915 22.1974 7.27344 21.9233 7.27344H19.0085C18.7514 7.27344 18.543 7.48183 18.543 7.73888Z" fill="url(#paint9_linear_3941_58619)"/>
<path d="M15.7608 11.1554V9.15444L12.0273 8.9707L12.2316 11.1554H15.7608Z" fill="url(#paint10_linear_3941_58619)"/>
<path d="M15.9473 11.1556H25.3587C25.4615 11.1556 25.5448 11.0722 25.5448 10.9694V8.90104C25.5448 8.79357 25.4542 8.70841 25.3469 8.71523L17.2645 9.22862L15.9473 9.16379V11.1556Z" fill="url(#paint11_linear_3941_58619)"/>
<path d="M11.8238 8.96149L12.0468 11.1562H8.27603C8.1732 11.1562 8.08984 11.0728 8.08984 10.97V8.9733C8.08984 8.86688 8.17889 8.78211 8.28517 8.78734L11.8238 8.96149Z" fill="url(#paint12_linear_3941_58619)"/>
<path d="M12.6152 13.3247L12.4376 13.3093L12.2351 11.1554H12.2323L12.028 8.97069L12.0298 8.97077L11.9181 7.78245C11.8924 7.50938 12.1072 7.27344 12.3815 7.27344H15.296C15.4746 7.27344 15.6297 7.37402 15.7077 7.52161C15.6428 7.48731 15.5689 7.46789 15.4905 7.46789H12.576C12.3017 7.46789 12.0869 7.70384 12.1126 7.9769L12.2243 9.16522L12.2224 9.16514L12.4267 11.3498H12.4296L12.6152 13.3247Z" fill="white"/>
<path d="M15.9551 11.1556L16.1413 11.1556V9.35824L17.4585 9.42307L25.5409 8.90968L25.5444 8.90949V8.90104C25.5444 8.79357 25.4537 8.70841 25.3465 8.71523L22.4965 8.89625H22.4941L18.7385 9.13496L17.264 9.22862L15.9551 9.16419V11.1556Z" fill="white"/>
<path d="M22.335 7.52153C22.2704 7.48734 22.1965 7.46789 22.1178 7.46789H19.2029C18.9459 7.46789 18.7374 7.67628 18.7374 7.93334V8.94984L18.543 8.96196V7.73888C18.543 7.48183 18.7514 7.27344 19.0085 7.27344H21.9233C22.1031 7.27344 22.2573 7.37479 22.335 7.52153Z" fill="white"/>
<path d="M18.543 11.3496H22.0541L22.0367 11.5358H18.7374V25.9752C18.7374 26.0557 18.7564 26.1286 18.789 26.1913C18.6475 26.1163 18.543 25.9702 18.543 25.7807V15.2873H18.5513V14.0273L18.543 14.0281V11.3496Z" fill="white"/>
<path d="M18.357 14.0464V13.833L17.4385 13.9227C17.4243 13.924 17.4101 13.9241 17.396 13.9229L12.4536 13.4977L12.4539 13.5002L9.56116 13.2528C9.4253 13.2412 9.30859 13.3483 9.30859 13.4847V14.8603C9.30859 14.9767 9.39411 15.0732 9.50575 15.0903C9.50397 15.0788 9.50305 15.0669 9.50305 15.0547V13.6791C9.50305 13.5428 9.61975 13.4357 9.75561 13.4473L12.6483 13.6947L12.6481 13.6921L17.5905 14.1174C17.6046 14.1186 17.6188 14.1185 17.6329 14.1171L18.357 14.0464Z" fill="white"/>
<path d="M12.623 15.2871L13.5042 24.6614C13.5153 24.7792 13.5708 24.8884 13.6595 24.9667L13.7717 25.0657C13.7311 25.0032 13.7057 24.9313 13.6986 24.8558L12.8167 15.4734H15.7609V15.2872L12.623 15.2871Z" fill="white"/>
<path d="M21.9199 15.093H22.1067L22.2371 13.6682L24.4578 13.4513C24.4777 13.4494 24.4972 13.45 24.516 13.4529C24.4976 13.3331 24.3882 13.2448 24.2635 13.257L22.0693 13.4712L22.0113 14.0937L21.9199 15.093Z" fill="white"/>
<path d="M11.8427 9.1473L11.8238 8.96149L8.28517 8.78734C8.17889 8.78211 8.08984 8.86688 8.08984 8.9733V10.97C8.08984 11.0728 8.1732 11.1562 8.27603 11.1562H8.2843V9.16775C8.2843 9.06133 8.37334 8.97656 8.47963 8.98179L11.8427 9.1473Z" fill="white"/>
<defs>
<linearGradient id="paint0_linear_3941_58619" x1="16.8164" y1="0" x2="16.8164" y2="32" gradientUnits="userSpaceOnUse">
<stop stop-color="#424242"/>
<stop offset="1"/>
</linearGradient>
<linearGradient id="paint1_linear_3941_58619" x1="8.08911" y1="16.7651" x2="25.5435" y2="16.7651" gradientUnits="userSpaceOnUse">
<stop stop-color="#5433FF"/>
<stop offset="0.5" stop-color="#20BDFF"/>
<stop offset="1" stop-color="#A5FECB"/>
</linearGradient>
<linearGradient id="paint2_linear_3941_58619" x1="8.09056" y1="16.7655" x2="25.545" y2="16.7655" gradientUnits="userSpaceOnUse">
<stop stop-color="#5433FF"/>
<stop offset="0.5" stop-color="#20BDFF"/>
<stop offset="1" stop-color="#A5FECB"/>
</linearGradient>
<linearGradient id="paint3_linear_3941_58619" x1="8.0908" y1="16.7652" x2="25.5452" y2="16.7652" gradientUnits="userSpaceOnUse">
<stop stop-color="#5433FF"/>
<stop offset="0.5" stop-color="#20BDFF"/>
<stop offset="1" stop-color="#A5FECB"/>
</linearGradient>
<linearGradient id="paint4_linear_3941_58619" x1="8.09573" y1="16.7643" x2="25.5421" y2="16.7643" gradientUnits="userSpaceOnUse">
<stop stop-color="#5433FF"/>
<stop offset="0.5" stop-color="#20BDFF"/>
<stop offset="1" stop-color="#A5FECB"/>
</linearGradient>
<linearGradient id="paint5_linear_3941_58619" x1="8.08895" y1="16.7658" x2="25.5434" y2="16.7658" gradientUnits="userSpaceOnUse">
<stop stop-color="#5433FF"/>
<stop offset="0.5" stop-color="#20BDFF"/>
<stop offset="1" stop-color="#A5FECB"/>
</linearGradient>
<linearGradient id="paint6_linear_3941_58619" x1="8.08911" y1="16.7651" x2="25.5435" y2="16.7651" gradientUnits="userSpaceOnUse">
<stop stop-color="#5433FF"/>
<stop offset="0.5" stop-color="#20BDFF"/>
<stop offset="1" stop-color="#A5FECB"/>
</linearGradient>
<linearGradient id="paint7_linear_3941_58619" x1="8.08895" y1="16.7654" x2="25.5434" y2="16.7654" gradientUnits="userSpaceOnUse">
<stop stop-color="#5433FF"/>
<stop offset="0.5" stop-color="#20BDFF"/>
<stop offset="1" stop-color="#A5FECB"/>
</linearGradient>
<linearGradient id="paint8_linear_3941_58619" x1="8.08894" y1="16.7658" x2="25.5434" y2="16.7658" gradientUnits="userSpaceOnUse">
<stop stop-color="#5433FF"/>
<stop offset="0.5" stop-color="#20BDFF"/>
<stop offset="1" stop-color="#A5FECB"/>
</linearGradient>
<linearGradient id="paint9_linear_3941_58619" x1="8.08895" y1="16.7651" x2="25.5434" y2="16.7651" gradientUnits="userSpaceOnUse">
<stop stop-color="#5433FF"/>
<stop offset="0.5" stop-color="#20BDFF"/>
<stop offset="1" stop-color="#A5FECB"/>
</linearGradient>
<linearGradient id="paint10_linear_3941_58619" x1="8.09016" y1="16.7652" x2="25.5446" y2="16.7652" gradientUnits="userSpaceOnUse">
<stop stop-color="#5433FF"/>
<stop offset="0.5" stop-color="#20BDFF"/>
<stop offset="1" stop-color="#A5FECB"/>
</linearGradient>
<linearGradient id="paint11_linear_3941_58619" x1="8.09041" y1="16.7654" x2="25.5448" y2="16.7654" gradientUnits="userSpaceOnUse">
<stop stop-color="#5433FF"/>
<stop offset="0.5" stop-color="#20BDFF"/>
<stop offset="1" stop-color="#A5FECB"/>
</linearGradient>
<linearGradient id="paint12_linear_3941_58619" x1="8.08984" y1="16.766" x2="25.5443" y2="16.766" gradientUnits="userSpaceOnUse">
<stop stop-color="#5433FF"/>
<stop offset="0.5" stop-color="#20BDFF"/>
<stop offset="1" stop-color="#A5FECB"/>
</linearGradient>
</defs>
</svg>
