<svg width="33" height="33" viewBox="0 0 33 33" fill="none" xmlns="http://www.w3.org/2000/svg">
<g clip-path="url(#clip0_613_828)">
<path d="M16.0002 31.3286C23.9136 31.3286 30.3286 24.9136 30.3286 17.0002C30.3286 9.0869 23.9136 2.67188 16.0002 2.67188C8.0869 2.67188 1.67188 9.0869 1.67188 17.0002C1.67188 24.9136 8.0869 31.3286 16.0002 31.3286Z" fill="white"/>
<path d="M16.0022 32.9209C12.8535 32.9209 9.77548 31.9872 7.15744 30.2379C4.53937 28.4885 2.49886 26.0021 1.29389 23.0931C0.0889349 20.184 -0.226342 16.983 0.387933 13.8947C1.00221 10.8065 2.51845 7.96977 4.74491 5.74328C6.21801 4.24185 7.97404 3.04725 9.91152 2.22844C11.849 1.40964 13.9295 0.982883 16.0329 0.972838C18.1363 0.962792 20.2208 1.36965 22.1661 2.16991C24.1112 2.97017 25.8785 4.14797 27.3659 5.63523C28.8534 7.12251 30.0313 8.88979 30.8317 10.8349C31.632 12.7801 32.039 14.8646 32.0291 16.968C32.0193 19.0713 31.5926 21.1518 30.7741 23.0894C29.9553 25.027 28.7608 26.783 27.2595 28.2563C25.7848 29.7397 24.0305 30.9157 22.0982 31.7163C20.1659 32.5171 18.0939 32.9265 16.0022 32.9209ZM16.0022 3.35361C13.3035 3.35361 10.6654 4.15387 8.42142 5.65317C6.17748 7.15248 4.42852 9.2835 3.39569 11.7768C2.36286 14.27 2.09254 17.0136 2.61893 19.6605C3.14531 22.3073 4.44475 24.7387 6.35292 26.6472C8.2611 28.5555 10.6923 29.8553 13.3392 30.3821C15.986 30.9086 18.7296 30.6387 21.223 29.6061C23.7163 28.5736 25.8477 26.8249 27.3472 24.5811C28.8467 22.3374 29.6473 19.6993 29.6477 17.0006C29.6438 13.3826 28.2049 9.9139 25.6469 7.35547C23.0888 4.79704 19.6201 3.35784 16.0022 3.35361Z" fill="#05C3CD"/>
<path opacity="0.41" d="M14.8641 32.883V30.6C15.2398 30.6309 15.6193 30.6462 16.0024 30.6462C16.3856 30.6462 16.7645 30.6309 17.1392 30.6V32.883C16.7624 32.9096 16.3835 32.9229 16.0024 32.9229C15.6214 32.9229 15.242 32.9096 14.8641 32.883ZM24.8096 27.416C25.3885 26.9251 25.9257 26.3873 26.416 25.808L28.0334 27.4272C27.7862 27.7126 27.5277 27.9896 27.2582 28.2582C26.9886 28.5267 26.7115 28.7851 26.4272 29.0334L24.8096 27.416ZM4.74989 28.2582C4.4803 27.9886 4.22134 27.7115 3.97297 27.4272L5.59049 25.808C6.08125 26.3873 6.61905 26.9253 7.19845 27.416L5.57776 29.0334C5.29225 28.7872 5.0147 28.5288 4.74512 28.2582H4.74989ZM29.6048 18.1392C29.6366 17.7635 29.6526 17.3845 29.6526 17.0008C29.6526 16.6171 29.6366 16.2398 29.6064 15.8641H31.8894C31.9117 16.2398 31.9229 16.6193 31.9229 17.0024C31.9229 17.3856 31.9096 17.7649 31.883 18.1408L29.6048 18.1392ZM0.126608 18.1392C0.0968904 17.7624 0.0820312 17.3835 0.0820312 17.0024C0.0820312 16.6214 0.0952983 16.2425 0.121832 15.8657H2.40481C2.37405 16.2414 2.35865 16.6203 2.35865 17.0024C2.35865 17.3861 2.37457 17.7649 2.40641 18.1408L0.126608 18.1392ZM3.96979 6.57776C4.21709 6.29225 4.47606 6.01523 4.7467 5.7467C5.01736 5.47819 5.29489 5.21921 5.57934 4.96979L7.19526 6.58571C6.61605 7.07665 6.07825 7.61446 5.58731 8.19368L3.96979 6.57776ZM24.8096 6.58731L26.4272 4.96979C26.7115 5.21816 26.9891 5.47712 27.2597 5.7467C27.5304 6.0163 27.7888 6.29331 28.035 6.57776L26.4176 8.19368C25.9267 7.6148 25.3889 7.07752 24.8096 6.58731ZM14.8641 1.12183C15.2409 1.0953 15.6203 1.08203 16.0024 1.08203C16.3845 1.08203 16.7635 1.0953 17.1392 1.12183V3.40163C16.7645 3.37086 16.3856 3.35547 16.0024 3.35547C15.6193 3.35547 15.2398 3.37139 14.8641 3.40323V1.12183Z" fill="white" stroke="white" stroke-width="0.1"/>
<path fill-rule="evenodd" clip-rule="evenodd" d="M16.185 20.7043L20.0284 16.8608L14.5903 11.4226C14.1613 10.9936 13.4658 10.9936 13.0368 11.4226L10.7468 13.7125C10.3178 14.1415 10.3178 14.8371 10.7468 15.2661L16.185 20.7043ZM20.9279 16.8608L15.04 10.9729C14.3626 10.2955 13.2644 10.2955 12.5871 10.9729L10.2971 13.2628C9.61972 13.9402 9.61972 15.0384 10.2971 15.7158L16.185 21.6036L20.9279 16.8608Z" fill="#05C3CD"/>
<path fill-rule="evenodd" clip-rule="evenodd" d="M22.3906 11.1073L19.9023 8.61891L17.4138 11.1073L19.9023 13.5957L22.3906 11.1073ZM22.8811 11.5161C23.1069 11.2903 23.1069 10.9243 22.8811 10.6985L20.3111 8.12832C20.0853 7.90254 19.7192 7.90254 19.4935 8.12832L16.9232 10.6985C16.6975 10.9243 16.6975 11.2903 16.9232 11.5161L19.4935 14.0863C19.7192 14.312 20.0853 14.312 20.3111 14.0863L22.8811 11.5161Z" fill="#05C3CD"/>
<path fill-rule="evenodd" clip-rule="evenodd" d="M17.1484 13.502L18.3048 12.3457L18.7545 12.7954L17.5982 13.9517L17.1484 13.502Z" fill="#05C3CD"/>
<path fill-rule="evenodd" clip-rule="evenodd" d="M7.93336 20.5857L10.4217 23.0742L12.9101 20.5857L10.4217 18.0974L7.93336 20.5857ZM7.44277 20.1769C7.21699 20.4027 7.21699 20.7687 7.44277 20.9945L10.0129 23.5647C10.2387 23.7905 10.6048 23.7905 10.8306 23.5647L13.4007 20.9945C13.6265 20.7687 13.6265 20.4027 13.4007 20.1769L10.8306 17.6068C10.6048 17.3811 10.2387 17.3811 10.0129 17.6068L7.44277 20.1769Z" fill="#05C3CD"/>
<path fill-rule="evenodd" clip-rule="evenodd" d="M13.2662 18.2818L12.1099 19.4381L11.6602 18.9884L12.8165 17.832L13.2662 18.2818Z" fill="#05C3CD"/>
<path fill-rule="evenodd" clip-rule="evenodd" d="M19.334 20.0313C18.2396 21.1259 18.1045 22.8164 18.929 24.0579L23.3607 19.6263C22.1191 18.8019 20.4285 18.9369 19.334 20.0313ZM23.818 19.1691C22.3208 18.1004 20.2279 18.238 18.8844 19.5815C17.5407 20.9252 17.4032 23.0182 18.4717 24.5153C18.5936 24.6859 18.7311 24.8489 18.8844 25.002L24.3048 19.5815C24.1516 19.4284 23.9887 19.2908 23.818 19.1691Z" fill="#05C3CD"/>
<path fill-rule="evenodd" clip-rule="evenodd" d="M22.3828 23.076C22.2569 23.2019 22.2569 23.4059 22.3828 23.5318C22.5085 23.6576 22.7125 23.6576 22.8385 23.5318C22.9642 23.4059 22.9642 23.2019 22.8385 23.076C22.7125 22.9502 22.5085 22.9502 22.3828 23.076ZM21.933 22.6264C21.5588 23.0006 21.5588 23.6072 21.933 23.9814C22.3073 24.3557 22.914 24.3557 23.2881 23.9814C23.6623 23.6072 23.6623 23.0006 23.2881 22.6264C22.914 22.2521 22.3073 22.2521 21.933 22.6264Z" fill="#05C3CD"/>
<path fill-rule="evenodd" clip-rule="evenodd" d="M18.2194 20.0344L19.3527 18.9011L19.2358 18.7841L18.1025 19.9174L18.2194 20.0344ZM20.2521 18.9011L19.2358 17.8848L17.2031 19.9174L18.2194 20.9337L20.2521 18.9011Z" fill="#05C3CD"/>
<path fill-rule="evenodd" clip-rule="evenodd" d="M10.7495 12.5781L11.8828 11.4448L11.7658 11.3279L10.6326 12.4612L10.7495 12.5781ZM12.7822 11.4448L12.1747 10.8373C11.9489 10.6115 11.5828 10.6115 11.357 10.8373L10.142 12.0523C9.91621 12.2781 9.91621 12.6442 10.142 12.87L10.7495 13.4775L12.7822 11.4448Z" fill="#05C3CD"/>
<path fill-rule="evenodd" clip-rule="evenodd" d="M21.649 21.9004L22.4959 22.7473L22.0461 23.197L21.1992 22.35L21.649 21.9004Z" fill="#05C3CD"/>
<path fill-rule="evenodd" clip-rule="evenodd" d="M21.762 12.2194L18.8711 9.3286L19.3209 8.87891L22.2116 11.7697L21.762 12.2194Z" fill="#05C3CD"/>
<path fill-rule="evenodd" clip-rule="evenodd" d="M12.1643 21.7506L9.27344 18.8598L9.72315 18.4102L12.6139 21.3009L12.1643 21.7506Z" fill="#05C3CD"/>
<path fill-rule="evenodd" clip-rule="evenodd" d="M11.2502 22.9167L8.35938 20.0258L8.80907 19.5762L11.6999 22.4669L11.2502 22.9167Z" fill="#05C3CD"/>
<path fill-rule="evenodd" clip-rule="evenodd" d="M20.6212 13.0827L17.7305 10.1919L18.1801 9.74219L21.0709 12.633L20.6212 13.0827Z" fill="#05C3CD"/>
<path d="M7.5879 14.1014C7.64678 14.16 7.72641 14.1929 7.80948 14.1932C7.87116 14.1928 7.93135 14.1742 7.98252 14.1397C8.03369 14.1052 8.07354 14.0565 8.0971 13.9994C8.12065 13.9424 8.12686 13.8797 8.11494 13.8192C8.10302 13.7587 8.07348 13.703 8.03006 13.6592L7.70367 13.3328L8.03006 13.0064C8.0887 12.9478 8.12164 12.8682 8.12164 12.7853C8.12164 12.7024 8.0887 12.6229 8.03006 12.5642C7.97143 12.5056 7.8919 12.4727 7.80897 12.4727C7.72604 12.4727 7.64654 12.5056 7.5879 12.5642L7.2615 12.8906L6.9361 12.5642C6.87748 12.5056 6.79794 12.4727 6.71502 12.4727C6.63209 12.4727 6.55255 12.5056 6.49393 12.5642C6.43529 12.6229 6.40234 12.7024 6.40234 12.7853C6.40234 12.8682 6.43529 12.9478 6.49393 13.0064L6.81932 13.3328L6.49393 13.6592C6.4505 13.703 6.421 13.7587 6.40906 13.8192C6.39714 13.8797 6.40334 13.9424 6.42689 13.9994C6.45044 14.0565 6.4903 14.1052 6.54146 14.1397C6.59263 14.1742 6.65284 14.1928 6.71454 14.1932C6.79761 14.1929 6.87722 14.16 6.9361 14.1014L7.2615 13.775L7.5879 14.1014Z" fill="#05C3CD"/>
<path d="M6.92487 17.3477C6.86181 17.3475 6.8001 17.3661 6.74759 17.4009C6.69508 17.4358 6.65412 17.4856 6.62989 17.5438C6.60567 17.6019 6.59929 17.6661 6.61154 17.728C6.6238 17.7897 6.65415 17.8467 6.69874 17.8912C6.74332 17.9358 6.80015 17.9662 6.86201 17.9784C6.92386 17.9907 6.98796 17.9843 7.04618 17.96C7.10441 17.9358 7.15412 17.8949 7.18903 17.8424C7.22394 17.7899 7.24247 17.7281 7.24228 17.6651C7.24228 17.5809 7.20884 17.5001 7.1493 17.4406C7.08978 17.3811 7.00906 17.3477 6.92487 17.3477Z" fill="#05C3CD"/>
<path d="M25.5077 15.1541C25.449 15.0956 25.3695 15.0628 25.2866 15.0628C25.2037 15.0628 25.1242 15.0956 25.0655 15.1541L24.7391 15.4805L24.4127 15.1541C24.3837 15.125 24.3491 15.102 24.3112 15.0863C24.2733 15.0706 24.2327 15.0625 24.1915 15.0625C24.1506 15.0625 24.1099 15.0706 24.072 15.0863C24.0339 15.102 23.9995 15.125 23.9706 15.1541C23.9415 15.1831 23.9184 15.2176 23.9027 15.2555C23.8871 15.2934 23.8789 15.3341 23.8789 15.3752C23.8789 15.4162 23.8871 15.4569 23.9027 15.4948C23.9184 15.5328 23.9415 15.5672 23.9706 15.5963L24.297 15.9226L23.9706 16.249C23.9119 16.3077 23.8789 16.3872 23.8789 16.4701C23.8789 16.553 23.9119 16.6326 23.9706 16.6912C24.0291 16.7498 24.1087 16.7828 24.1915 16.7828C24.2746 16.7828 24.3541 16.7498 24.4127 16.6912L24.7391 16.3648L25.0655 16.6912C25.1242 16.7498 25.2037 16.7828 25.2866 16.7828C25.3695 16.7828 25.449 16.7498 25.5077 16.6912C25.5663 16.6326 25.5992 16.553 25.5992 16.4701C25.5992 16.3872 25.5663 16.3077 25.5077 16.249L25.1813 15.9226L25.5077 15.5963C25.5661 15.5375 25.5989 15.458 25.5989 15.3752C25.5989 15.2923 25.5661 15.2128 25.5077 15.1541Z" fill="#05C3CD"/>
<path d="M15.5479 25.1972C15.7232 25.1972 15.8653 25.0551 15.8653 24.8798C15.8653 24.7046 15.7232 24.5625 15.5479 24.5625C15.3726 24.5625 15.2305 24.7046 15.2305 24.8798C15.2305 25.0551 15.3726 25.1972 15.5479 25.1972Z" fill="#05C3CD"/>
</g>
<defs>
<clipPath id="clip0_613_828">
<rect width="33" height="33" fill="white"/>
</clipPath>
</defs>
</svg>
