<svg width="32" height="32" viewBox="0 0 32 32" fill="none" xmlns="http://www.w3.org/2000/svg">
<g clip-path="url(#clip0_613_640)">
<path d="M16 32C24.8365 32 32 24.8365 32 16C32 7.16344 24.8365 0 16 0C7.16344 0 0 7.16344 0 16C0 24.8365 7.16344 32 16 32Z" fill="url(#paint0_linear_613_640)"/>
<path d="M12.679 21.1265L12.4492 21.2591V20.9961C12.4492 20.9961 12.447 21.131 12.5078 21.1647C12.5686 21.1963 12.679 21.1265 12.679 21.1265Z" fill="#8E3315"/>
<path d="M6.80859 20.8539C8.09719 23.2869 10.3027 25.1106 12.9384 25.9202C15.5742 26.7319 18.4262 26.4643 20.8638 25.1759C23.3035 23.8896 25.1283 21.6882 25.9416 19.0573C26.7548 16.4263 26.48 13.5818 25.1913 11.1465C26.3537 14.805 22.3056 16.089 22.3056 16.089L17.408 18.6458L12.3144 21.2968C12.3144 21.2968 8.84511 23.5253 6.80859 20.8539Z" fill="#473ADE"/>
<path d="M6.77734 20.8715C8.06594 23.3045 10.2714 25.1282 12.9072 25.9376C15.5429 26.7494 18.3949 26.4819 20.8325 25.1934C23.2722 23.9072 25.097 21.7058 25.9103 19.0749C26.7236 16.4438 26.4554 13.5993 25.1645 11.1641C26.3271 14.8226 22.2743 16.1066 22.2743 16.1066L17.3767 18.6634L12.2854 21.3144C12.2832 21.3144 8.81387 23.5429 6.77734 20.8715Z" fill="url(#paint1_linear_613_640)"/>
<path d="M22.3341 15.9043L22.5435 16.0167L22.2461 16.1247C22.2461 16.1247 22.3994 16.073 22.4197 16.0144C22.4421 15.956 22.3341 15.9043 22.3341 15.9043Z" fill="#292282"/>
<path d="M25.255 20.7468C26.5143 18.298 26.7463 15.449 25.9015 12.8271C25.0567 10.2074 23.2026 8.02849 20.7494 6.7715C18.2938 5.51449 15.4419 5.28289 12.8151 6.12614C10.1883 6.96937 8.00541 8.81777 6.74609 11.2688C9.08224 8.22187 12.4614 10.8011 12.4614 10.8011L17.3679 13.3443L22.4638 15.9887C22.4638 15.9887 26.2823 17.5492 25.255 20.7468Z" fill="#D71D6A"/>
<path d="M25.2299 20.7356C26.4848 18.2935 26.7168 15.4535 25.8742 12.8406C25.0316 10.2276 23.1844 8.05542 20.7379 6.80292C18.2913 5.55043 15.4461 5.31883 12.8283 6.15982C10.2084 6.99856 8.03216 8.8447 6.77734 11.2867C9.10674 8.24881 12.4747 10.819 12.4747 10.819L17.3654 13.3532L22.4456 15.9909C22.4456 15.9909 26.255 17.5469 25.2299 20.7356Z" fill="url(#paint2_linear_613_640)"/>
<path d="M12.4537 11.0461L12.4492 10.7695L12.6903 10.9044C12.6903 10.9044 12.5686 10.8325 12.5055 10.8707C12.447 10.9089 12.4537 11.0461 12.4537 11.0461Z" fill="#741039"/>
<path d="M16.0027 5.625C13.2453 5.625 10.5983 6.71785 8.64734 8.66518C6.69641 10.6125 5.60156 13.2524 5.60156 16.0047C5.60156 18.7571 6.69641 21.3993 8.64734 23.3444C10.5983 25.2916 13.243 26.3846 16.0027 26.3846C12.4636 25.7908 12.4636 21.2126 12.4636 21.2126V16.0047V10.7025C12.4613 10.7025 12.4613 6.25687 16.0027 5.625Z" fill="#FF5B25"/>
<path d="M16.0027 5.59961C13.243 5.59961 10.5983 6.69246 8.64734 8.63979C6.69641 10.5871 5.60156 13.227 5.60156 15.9816C5.60156 18.734 6.69641 21.3761 8.64734 23.3212C10.5983 25.2686 13.243 26.3614 16.0027 26.3614C12.4636 25.2326 12.4636 21.221 12.4636 21.221V15.9929V10.7985C12.4613 10.7985 12.3329 6.27196 16.0027 5.59961Z" fill="url(#paint3_linear_613_640)"/>
<path d="M15.975 26.3817C12.4629 24.7851 12.4674 21.2187 12.4674 21.2187C12.4674 21.2187 8.11276 23.6697 6.64844 20.5352C6.64618 20.5352 9.10173 26.4019 15.975 26.3817Z" fill="#473ADE"/>
<path d="M27.1371 27.1371C25.6746 28.5996 23.9383 29.7598 22.0274 30.5513C20.1165 31.3428 18.0684 31.7502 16.0001 31.7502C13.9318 31.7502 11.8837 31.3428 9.9728 30.5513C8.06191 29.7598 6.32563 28.5996 4.8631 27.1371C3.40057 25.6746 2.24042 23.9383 1.4489 22.0274C0.657388 20.1165 0.25 18.0684 0.25 16.0001C0.25 13.9318 0.657388 11.8837 1.4489 9.9728C2.24042 8.06191 3.40057 6.32563 4.8631 4.8631C7.81681 1.90938 11.8229 0.25 16.0001 0.25C20.1773 0.25 24.1834 1.90938 27.1371 4.8631C30.0908 7.81681 31.7502 11.8229 31.7502 16.0001C31.7502 20.1773 30.0908 24.1834 27.1371 27.1371Z" stroke="white" stroke-width="0.5"/>
</g>
<defs>
<linearGradient id="paint0_linear_613_640" x1="16" y1="0" x2="16" y2="32" gradientUnits="userSpaceOnUse">
<stop stop-color="#100951"/>
<stop offset="1" stop-color="#060322"/>
</linearGradient>
<linearGradient id="paint1_linear_613_640" x1="23.8266" y1="13.4656" x2="8.7225" y2="28.4072" gradientUnits="userSpaceOnUse">
<stop stop-opacity="0.6"/>
<stop offset="0.6555" stop-opacity="0"/>
</linearGradient>
<linearGradient id="paint2_linear_613_640" x1="9.42571" y1="11.0624" x2="30.2779" y2="14.8955" gradientUnits="userSpaceOnUse">
<stop stop-opacity="0.6"/>
<stop offset="0.6458" stop-opacity="0"/>
</linearGradient>
<linearGradient id="paint3_linear_613_640" x1="14.7986" y1="23.9006" x2="8.63297" y2="4.87318" gradientUnits="userSpaceOnUse">
<stop stop-opacity="0.6"/>
<stop offset="0.6755" stop-opacity="0"/>
</linearGradient>
<clipPath id="clip0_613_640">
<rect width="32" height="32" fill="white"/>
</clipPath>
</defs>
</svg>
