<svg width="64" height="64" viewBox="0 0 64 64" fill="none" xmlns="http://www.w3.org/2000/svg">
<circle cx="32" cy="32" r="32" fill="url(#paint0_linear_1768_21866)"/>
<path d="M20.8056 36.8736C20.4124 36.1959 18.463 33.0417 17.0406 31.1006C15.6183 29.1596 13.8028 27.2436 12.2884 25.244C12.2131 25.4532 12.1378 25.6623 12.0709 25.8715C11.7167 26.9241 11.4509 28.0043 11.276 29.101C10.908 31.359 10.908 33.6618 11.276 35.9198C11.4645 37.0177 11.7444 38.098 12.1127 39.1493C12.4463 40.168 12.8546 41.1607 13.3342 42.1194C13.8226 43.0774 14.382 43.9975 15.0075 44.872C15.6484 45.738 16.3502 46.5572 17.1076 47.3235C18.4343 48.6514 19.9343 49.794 21.567 50.7203C22.8889 51.4649 23.3407 51.4398 23.5666 51.4231C23.8176 51.0131 24.01 46.0936 23.8259 44.8553C23.3833 42.0141 22.3548 39.296 20.8056 36.8736ZM45.8217 16.685C45.7338 16.6126 45.6416 16.5456 45.5456 16.4842C42.6909 14.1563 39.2469 12.6652 35.5959 12.1763C31.945 11.6874 28.23 12.22 24.8634 13.7148C24.6626 13.7148 24.4283 13.7148 24.1773 13.6646C23.1609 13.685 22.1645 13.952 21.2741 14.4427C20.6968 14.7858 20.1446 15.1539 19.6008 15.5471C18.7279 16.1826 17.9055 16.8847 17.141 17.6471C16.3837 18.4133 15.6819 19.2326 15.041 20.0985C14.4028 20.9801 13.8323 21.9086 13.3342 22.8763L13.1585 23.2277C13.9952 23.4787 17.0741 22.7089 20.1112 21.2866C20.8063 22.5101 21.8028 23.5354 23.006 24.2651C22.4529 25.2273 22.2269 26.3429 22.3618 27.4444C22.9893 32.2217 29.8917 35.2672 32.2093 36.2712L32.4017 36.3381C31.2452 37.1008 30.229 38.0575 29.3981 39.166C28.8464 39.8838 28.4686 40.7198 28.2944 41.6082C28.1202 42.4966 28.1543 43.4134 28.3941 44.2864C29.5654 48.5533 33.7153 52.1593 36.3005 52.1593H36.4679C37.4064 51.9654 38.325 51.6853 39.2121 51.3227C40.0462 51.5773 40.9468 51.4963 41.7221 51.0968C45.3172 49.2227 48.2993 46.3568 50.3146 42.839C50.415 42.6549 50.3146 42.4959 50.0803 42.5127C49.9055 42.5353 49.7323 42.5689 49.5616 42.6131C49.8798 42.0095 50.1593 41.3864 50.3983 40.7473C50.8253 40.6932 51.2255 40.5092 51.5445 40.2202C53.1277 36.1851 53.4277 31.7598 52.4035 27.548C51.3794 23.3361 49.081 19.5426 45.8217 16.685ZM23.7674 23.1356C22.7614 22.5349 21.9216 21.6922 21.3243 20.6842C23.1731 19.8129 24.7921 18.5206 26.0515 16.9109C26.0515 16.9109 26.9634 15.4969 26.428 14.5431C28.5204 13.7482 30.7406 13.3428 32.979 13.3467C36.0625 13.3523 39.0961 14.1257 41.8058 15.5973H41.5464C36.7942 15.7312 27.3566 18.6428 23.7674 23.1356ZM48.0305 42.5043C47.8883 42.7469 47.7293 42.9812 47.5787 43.2155C44.2321 44.4286 39.1452 47.0306 38.3755 49.5908C38.3115 49.7992 38.286 50.0175 38.3002 50.235C37.6516 50.4678 36.9894 50.6606 36.3173 50.8123H36.2587C34.5854 50.8123 30.7786 48.0095 29.6742 43.935C29.4917 43.2507 29.4724 42.5331 29.6177 41.84C29.763 41.1469 30.0689 40.4975 30.5109 39.9441C31.454 38.721 32.628 37.6948 33.9663 36.9238C37.3129 38.162 44.7508 40.7138 48.8923 40.8477C48.6438 41.4162 48.3617 41.9694 48.0472 42.5043H48.0305Z" fill="white"/>
<defs>
<linearGradient id="paint0_linear_1768_21866" x1="12.2553" y1="7.14894" x2="54.8085" y2="51.4043" gradientUnits="userSpaceOnUse">
<stop stop-color="#5595EC"/>
<stop offset="0.4375" stop-color="#3C64CF"/>
<stop offset="1" stop-color="#183EA4"/>
</linearGradient>
</defs>
</svg>
