<svg width="64" height="64" viewBox="0 0 64 64" fill="none" xmlns="http://www.w3.org/2000/svg">
<circle cx="32" cy="32" r="32" fill="#4C5460"/>
<path d="M20.8056 36.7749C20.4124 36.0999 18.463 32.9582 17.0406 31.0248C15.6183 29.0915 13.8028 27.1831 12.2884 25.1915C12.2131 25.3998 12.1378 25.6081 12.0709 25.8165C11.7167 26.8649 11.4509 27.9408 11.276 29.0332C10.908 31.2822 10.908 33.5758 11.276 35.8249C11.4645 36.9184 11.7444 37.9944 12.1127 39.0416C12.4463 40.0562 12.8546 41.045 13.3342 41.9999C13.8226 42.9541 14.382 43.8705 15.0075 44.7416C15.6484 45.6042 16.3502 46.4201 17.1076 47.1833C18.4343 48.506 19.9343 49.644 21.567 50.5667C22.8889 51.3083 23.3407 51.2833 23.5666 51.2667C23.8176 50.8583 24.01 45.9583 23.8259 44.7249C23.3833 41.895 22.3548 39.1877 20.8056 36.7749ZM45.8217 16.6664C45.7338 16.5943 45.6416 16.5275 45.5456 16.4664C42.6909 14.1478 39.2469 12.6625 35.5959 12.1756C31.945 11.6887 28.23 12.2191 24.8634 13.708C24.6626 13.708 24.4283 13.708 24.1773 13.658C23.1609 13.6783 22.1645 13.9443 21.2741 14.433C20.6968 14.7747 20.1446 15.1414 19.6008 15.533C18.7279 16.166 17.9055 16.8653 17.141 17.6247C16.3837 18.3879 15.6819 19.2039 15.041 20.0664C14.4028 20.9445 13.8323 21.8693 13.3342 22.8331L13.1585 23.1831C13.9952 23.4331 17.0741 22.6664 20.1112 21.2498C20.8063 22.4684 21.8028 23.4896 23.006 24.2164C22.4529 25.1748 22.2269 26.2859 22.3618 27.3831C22.9893 32.1415 29.8917 35.1749 32.2093 36.1749L32.4017 36.2415C31.2452 37.0012 30.229 37.9541 29.3981 39.0582C28.8464 39.7732 28.4686 40.6058 28.2944 41.4907C28.1202 42.3756 28.1543 43.2887 28.3941 44.1583C29.5654 48.4083 33.7153 52 36.3005 52H36.4679C37.4064 51.8068 38.325 51.5279 39.2121 51.1667C40.0462 51.4203 40.9468 51.3395 41.7221 50.9417C45.3172 49.075 48.2993 46.2205 50.3146 42.7166C50.415 42.5333 50.3146 42.3749 50.0803 42.3916C49.9055 42.4142 49.7323 42.4476 49.5616 42.4916C49.8798 41.8905 50.1593 41.2698 50.3983 40.6332C50.8253 40.5794 51.2255 40.3961 51.5445 40.1082C53.1277 36.0891 53.4277 31.6814 52.4035 27.4863C51.3794 23.2911 49.081 19.5127 45.8217 16.6664ZM23.7674 23.0914C22.7614 22.4931 21.9216 21.6538 21.3243 20.6498C23.1731 19.7819 24.7921 18.4947 26.0515 16.8914C26.0515 16.8914 26.9634 15.483 26.428 14.533C28.5204 13.7413 30.7406 13.3374 32.979 13.3414C36.0625 13.3469 39.0961 14.1173 41.8058 15.583H41.5464C36.7942 15.7164 27.3566 18.6164 23.7674 23.0914ZM48.0305 42.3833C47.8883 42.6249 47.7293 42.8583 47.5787 43.0916C44.2321 44.2999 39.1452 46.8916 38.3755 49.4416C38.3115 49.6492 38.286 49.8667 38.3002 50.0833C37.6516 50.3151 36.9894 50.5072 36.3173 50.6583H36.2587C34.5854 50.6583 30.7786 47.8666 29.6742 43.8083C29.4917 43.1267 29.4724 42.412 29.6177 41.7216C29.763 41.0312 30.0689 40.3844 30.5109 39.8332C31.454 38.615 32.628 37.5929 33.9663 36.8249C37.3129 38.0582 44.7508 40.5999 48.8923 40.7332C48.6438 41.2995 48.3617 41.8505 48.0472 42.3833H48.0305Z" fill="white"/>
</svg>
