<svg width="20" height="20" viewBox="0 0 20 20" fill="none" xmlns="http://www.w3.org/2000/svg">
<path d="M10 20C15.5228 20 20 15.5228 20 10C20 4.47715 15.5228 0 10 0C4.47715 0 0 4.47715 0 10C0 15.5228 4.47715 20 10 20Z" fill="white"/>
<path d="M9.99966 19.9986C8.68593 20.0023 7.38453 19.7452 6.17076 19.2426C4.957 18.7399 3.85498 18.0016 2.9285 17.0702C1.99708 16.1438 1.25867 15.042 0.755997 13.8282C0.253327 12.6145 -0.00361695 11.313 4.01687e-05 9.99934C-0.00369585 8.68564 0.253213 7.38418 0.755888 6.17044C1.25856 4.9567 1.99702 3.85488 2.9285 2.92848C3.85493 1.99702 4.95692 1.25844 6.1707 0.755777C7.38447 0.253118 8.68592 -0.00369572 9.99966 4.01809e-05C11.3134 -0.00369572 12.6148 0.253118 13.8286 0.755777C15.0424 1.25844 16.1444 1.99702 17.0708 2.92848C18.0023 3.85488 18.7408 4.9567 19.2434 6.17044C19.7461 7.38418 20.003 8.68564 19.9993 9.99934C20.0029 11.313 19.746 12.6145 19.2433 13.8282C18.7406 15.042 18.0022 16.1438 17.0708 17.0702C16.1443 18.0016 15.0423 18.7399 13.8286 19.2426C12.6148 19.7452 11.3134 20.0023 9.99966 19.9986ZM9.99966 1.42851C7.72722 1.43097 5.54855 2.33478 3.94169 3.94159C2.33483 5.5484 1.43101 7.72697 1.42856 9.99934C1.43101 12.2717 2.33483 14.4503 3.94169 16.0571C5.54855 17.6639 7.72722 18.5677 9.99966 18.5702C12.2721 18.5677 14.4508 17.6639 16.0576 16.0571C17.6645 14.4503 18.5683 12.2717 18.5708 9.99934C18.5683 7.72697 17.6645 5.5484 16.0576 3.94159C14.4508 2.33478 12.2721 1.43097 9.99966 1.42851Z" fill="#353340"/>
<path opacity="0.41" d="M9.28464 19.9742V18.5408C9.52273 18.5608 9.76081 18.5708 9.9989 18.5708C10.237 18.5708 10.4751 18.5611 10.7132 18.5415V19.9749C10.4751 19.9916 10.237 20 9.9989 20C9.76081 20 9.52273 19.9913 9.28464 19.9742ZM15.5315 16.5411C15.8953 16.2329 16.2328 15.8951 16.5408 15.5311L17.5572 16.5474C17.402 16.7264 17.2396 16.9004 17.0701 17.0695C16.9005 17.2385 16.7265 17.401 16.5479 17.5567L15.5315 16.5411ZM2.92916 17.0702C2.75964 16.9007 2.59704 16.7264 2.44133 16.5474L3.45773 15.5311C3.76592 15.8951 4.10373 16.2329 4.46769 16.5411L3.4513 17.5574C3.27226 17.4021 3.09774 17.2397 2.92774 17.0702H2.92916ZM18.5407 10.7135C18.5603 10.4755 18.57 10.2374 18.57 9.9993C18.57 9.76122 18.5603 9.52315 18.5407 9.28507H19.9742C19.9909 9.52315 19.9992 9.76122 19.9992 9.9993C19.9992 10.2374 19.9909 10.4755 19.9742 10.7135H18.5407ZM0.0250017 10.7135C0.00833563 10.4755 0 10.2374 0 9.9993C0 9.76122 0.00833563 9.52315 0.0250017 9.28507H1.45851C1.43899 9.52315 1.42924 9.76122 1.42924 9.9993C1.42924 10.2374 1.43899 10.4755 1.45851 10.7135H0.0250017ZM2.44133 3.45191C2.59704 3.27287 2.75964 3.09887 2.92916 2.92983C3.09868 2.7608 3.27298 2.59811 3.45202 2.44193L4.46769 3.45749C4.1038 3.76601 3.766 4.10406 3.45773 4.46816L2.44133 3.45191ZM15.5315 3.45749L16.5472 2.44193C16.7263 2.59764 16.9005 2.76032 17.0701 2.92983C17.2396 3.09934 17.402 3.27335 17.5572 3.45191L16.5408 4.46816C16.2326 4.10396 15.8955 3.76589 15.5315 3.45749ZM9.28464 0.0251099C9.52273 0.00844435 9.76081 0 9.9989 0C10.237 0 10.4751 0.00844435 10.7132 0.0251099V1.45707C10.4775 1.43755 10.2394 1.42777 9.9989 1.42777C9.75843 1.42777 9.52035 1.43777 9.28464 1.45777V0.0251099Z" fill="white"/>
<path d="M7.8047 7.7727C6.00164 6.76712 5.29953 7.55273 5.14025 8.94978C4.7258 6.26252 5.57121 5.2467 7.07637 5.92799C7.72559 6.22581 8.32653 6.61924 8.85913 7.09519C9.17026 7.36778 9.57162 7.51498 9.98521 7.5082" fill="#353340"/>
<path d="M9.97852 7.50892C10.3947 7.50314 10.7958 7.35187 11.1121 7.08136C11.6577 6.61388 12.2663 6.22561 12.9202 5.92799C14.427 5.2467 15.2744 6.26252 14.8596 8.94978C14.6717 9.08284 14.4879 9.2177 14.2938 9.36494C14.3117 8.9417 14.2533 8.45094 14.2469 8.08138C14.2257 6.87827 12.5354 7.3148 11.6611 8.32757C11.154 8.91566 11.8442 9.72013 12.6331 10.2545C12.7743 10.2947 12.9184 10.3239 13.0641 10.3418C12.7453 10.6025 12.3792 10.9053 11.9428 11.2673C11.3948 10.7527 10.6936 10.0929 9.99252 9.47376" fill="#353340"/>
<path d="M9.99978 7.5085C9.58898 7.49951 9.19398 7.34849 8.88196 7.08113C8.33725 6.61384 7.72942 6.22563 7.07639 5.92794C5.57178 5.24683 4.72565 6.26229 5.14027 8.94955C5.32774 9.08261 5.51127 9.21711 5.70538 9.36454C5.68742 8.94129 5.74596 8.45071 5.75207 8.08079C5.77308 6.87768 7.46121 7.31439 8.33284 8.3268C8.8394 8.91507 8.15004 9.71954 7.36316 10.2538C7.22196 10.2938 7.07788 10.323 6.9322 10.341C7.25022 10.6019 7.616 10.9045 8.05164 11.2667C8.59914 10.7519 9.29982 10.0916 10.0001 9.47228C10.7005 8.85294 9.99978 7.5085 9.99978 7.5085Z" fill="#353340"/>
<path d="M10.661 12.9581C10.9988 13.7321 11.5642 14.3849 12.282 14.8298C14.0016 15.6797 15.0003 14.3577 14.5643 12.9369C14.3686 12.2994 13.636 11.0382 12.4966 10.574C12.2105 10.4571 10.3444 12.1989 10.661 12.9581ZM11.4416 11.6991C11.5226 11.2439 11.7424 11.2815 11.8636 11.3334C12.356 11.5444 12.9482 12.0628 13.1576 12.5851C13.4567 13.3318 12.9435 13.8008 12.2739 13.3656C11.6636 12.9687 11.329 12.3323 11.4416 11.6993V11.6991Z" fill="#353340"/>
<path d="M7.50359 10.574C6.36422 11.0382 5.63157 12.2995 5.43602 12.9369C5.00003 14.3575 5.99861 15.6797 7.71835 14.8298C8.4362 14.385 9.0016 13.7321 9.33932 12.9581C9.65537 12.1987 7.78946 10.4569 7.50359 10.574ZM7.72607 13.3657C7.05663 13.801 6.54325 13.3318 6.84259 12.5853C7.05197 12.0628 7.64437 11.5438 8.13657 11.3336C8.25778 11.2817 8.47775 11.2438 8.55856 11.6993C8.67079 12.3321 8.33678 12.9685 7.72589 13.3659L7.72607 13.3657Z" fill="#353340"/>
<path d="M12.9232 5.92757C16.2093 4.78963 14.2685 10.6177 9.99996 10.6177C5.73142 10.6177 3.79045 4.78963 7.07693 5.92757C3.49506 4.06687 2.56668 8.72885 6.86145 11.2787C8.13729 12.0363 9.42283 13.4318 7.71853 14.8297C8.79793 14.2924 9.0653 13.3213 10.0001 13.3213C10.935 13.3213 11.2033 14.2926 12.2818 14.8297C10.5775 13.4318 11.8628 12.0363 13.1388 11.2787C17.4332 8.72939 16.5049 4.06687 12.9232 5.92757Z" fill="#00000E"/>
</svg>
