<svg width="32" height="32" viewBox="0 0 32 32" fill="none" xmlns="http://www.w3.org/2000/svg">
<g clip-path="url(#clip0_2549_50386)">
<path d="M16 32C24.8366 32 32 24.8366 32 16C32 7.16344 24.8366 0 16 0C7.16344 0 0 7.16344 0 16C0 24.8366 7.16344 32 16 32Z" fill="url(#paint0_linear_2549_50386)"/>
<path d="M16 31.75C24.6985 31.75 31.75 24.6985 31.75 16C31.75 7.30152 24.6985 0.25 16 0.25C7.30152 0.25 0.25 7.30152 0.25 16C0.25 24.6985 7.30152 31.75 16 31.75Z" fill="url(#paint1_linear_2549_50386)" stroke="white" stroke-width="0.5"/>
<path d="M11.9759 11.7643C8.67033 9.9207 7.38312 11.361 7.09111 13.9223C6.33129 8.99562 7.88121 7.13327 10.6407 8.3823C11.8309 8.9283 12.9326 9.6496 13.9091 10.5222C14.4795 11.0219 15.2153 11.2918 15.9735 11.2794" fill="#E1DFEB"/>
<path d="M15.959 11.2807C16.722 11.2701 17.4573 10.9928 18.0373 10.4968C19.0374 9.63977 20.1533 8.92793 21.3521 8.3823C24.1145 7.13327 25.6681 8.99562 24.9076 13.9223C24.5632 14.1662 24.2261 14.4134 23.8702 14.6834C23.9032 13.9074 23.7962 13.0077 23.7843 12.3302C23.7455 10.1245 20.6466 10.9248 19.0437 12.7815C18.114 13.8597 19.3795 15.3346 20.8257 16.3143C21.0845 16.388 21.3487 16.4415 21.6158 16.4743C21.0315 16.9523 20.3602 17.5074 19.5602 18.171C18.5555 17.2275 17.2699 16.018 15.9847 14.8829" fill="#E1DFEB"/>
<path d="M16.0003 11.2799C15.2471 11.2634 14.523 10.9866 13.9509 10.4964C12.9523 9.6397 11.8379 8.92797 10.6407 8.3822C7.88225 7.13351 6.33101 8.99519 7.09115 13.9218C7.43485 14.1658 7.7713 14.4124 8.12718 14.6826C8.09426 13.9067 8.20159 13.0073 8.21278 12.3291C8.2513 10.1234 11.3462 10.924 12.9442 12.7801C13.8729 13.8586 12.6091 15.3335 11.1665 16.3129C10.9076 16.3864 10.6434 16.4399 10.3763 16.4729C10.9594 16.9512 11.63 17.5059 12.4287 18.17C13.4324 17.2261 14.717 16.0156 16.0009 14.8802C17.2848 13.7447 16.0003 11.2799 16.0003 11.2799Z" fill="#E1DFEB"/>
<path d="M17.2125 21.2738C17.8317 22.6928 18.8683 23.8897 20.1843 24.7051C23.3368 26.2633 25.1679 23.8397 24.3686 21.2349C24.0097 20.0662 22.6666 17.7539 20.5777 16.9029C20.0533 16.6885 16.6321 19.8819 17.2125 21.2738ZM18.6436 18.9657C18.7921 18.1311 19.195 18.1999 19.4173 18.2951C20.32 18.6819 21.4057 19.6323 21.7896 20.59C22.338 21.9589 21.3971 22.8188 20.1695 22.0208C19.0505 21.2932 18.4372 20.1265 18.6436 18.966V18.9657Z" fill="#E1DFEB"/>
<path d="M11.4249 16.9029C9.33603 17.7539 7.99284 20.0663 7.63433 21.235C6.83501 23.8394 8.66575 26.2633 11.8186 24.7052C13.1347 23.8897 14.1712 22.6928 14.7904 21.2738C15.3698 19.8816 11.949 16.6882 11.4249 16.9029ZM11.8328 22.0211C10.6055 22.8191 9.66425 21.9589 10.213 20.5904C10.5969 19.6324 11.683 18.6809 12.5853 18.2954C12.8076 18.2003 13.2108 18.1308 13.359 18.966C13.5647 20.1262 12.9524 21.2929 11.8324 22.0214L11.8328 22.0211Z" fill="#E1DFEB"/>
<path d="M21.3591 8.38348C27.3837 6.29727 23.8256 16.9821 15.9999 16.9821C8.17426 16.9821 4.61583 6.29727 10.641 8.38348C4.07428 4.9722 2.37226 13.5192 10.246 18.194C12.585 19.5829 14.9419 22.1412 11.8173 24.7041C13.7962 23.7191 14.2864 21.9387 16.0003 21.9387C17.7141 21.9387 18.206 23.7194 20.1832 24.7041C17.0587 22.1412 19.4152 19.5829 21.7545 18.194C29.6276 13.5202 27.9256 4.9722 21.3591 8.38348Z" fill="white"/>
</g>
<defs>
<linearGradient id="paint0_linear_2549_50386" x1="16" y1="0" x2="16" y2="32" gradientUnits="userSpaceOnUse">
<stop stop-color="#353340"/>
<stop offset="1" stop-color="#00000E"/>
</linearGradient>
<linearGradient id="paint1_linear_2549_50386" x1="16" y1="0.25" x2="16" y2="31.75" gradientUnits="userSpaceOnUse">
<stop stop-color="#353340"/>
<stop offset="1" stop-color="#00000E"/>
</linearGradient>
<clipPath id="clip0_2549_50386">
<rect width="32" height="32" fill="white"/>
</clipPath>
</defs>
</svg>
