<svg width="20" height="20" viewBox="0 0 20 20" fill="none" xmlns="http://www.w3.org/2000/svg">
<path d="M9.99991 19.285C15.1279 19.285 19.285 15.1279 19.285 9.99991C19.285 4.87191 15.1279 0.714844 9.99991 0.714844C4.87191 0.714844 0.714844 4.87191 0.714844 9.99991C0.714844 15.1279 4.87191 19.285 9.99991 19.285Z" fill="white"/>
<path d="M9.99934 19.9986C8.68565 20.0023 7.3843 19.7452 6.17057 19.2426C4.95684 18.7399 3.85486 18.0016 2.92841 17.0702C1.99702 16.1438 1.25863 15.042 0.755973 13.8282C0.253319 12.6145 -0.00361684 11.313 4.01675e-05 9.99934C-0.00369573 8.68564 0.253206 7.38418 0.755864 6.17044C1.25852 4.9567 1.99696 3.85488 2.92841 2.92848C3.85481 1.99702 4.95677 1.25844 6.1705 0.755777C7.38424 0.253118 8.68564 -0.00369572 9.99934 4.01809e-05C11.313 -0.00369572 12.6144 0.253118 13.8282 0.755777C15.0419 1.25844 16.1439 1.99702 17.0703 2.92848C18.0017 3.85488 18.7402 4.9567 19.2428 6.17044C19.7455 7.38418 20.0024 8.68564 19.9986 9.99934C20.0023 11.313 19.7454 12.6145 19.2427 13.8282C18.7401 15.042 18.0017 16.1438 17.0703 17.0702C16.1438 18.0016 15.0418 18.7399 13.8281 19.2426C12.6144 19.7452 11.313 20.0023 9.99934 19.9986ZM9.99934 1.42851C7.72697 1.43097 5.54838 2.33478 3.94157 3.94159C2.33476 5.5484 1.43097 7.72697 1.42851 9.99934C1.43097 12.2717 2.33476 14.4503 3.94157 16.0571C5.54838 17.6639 7.72697 18.5677 9.99934 18.5702C12.2717 18.5677 14.4503 17.6639 16.0571 16.0571C17.6639 14.4503 18.5677 12.2717 18.5702 9.99934C18.5677 7.72697 17.6639 5.5484 16.0571 3.94159C14.4503 2.33478 12.2717 1.43097 9.99934 1.42851V1.42851Z" fill="#132F3C"/>
<path opacity="0.7" d="M9.2863 19.9742V18.5408C9.52438 18.5608 9.76246 18.5708 10.0005 18.5708C10.2386 18.5708 10.4767 18.5611 10.7148 18.5415V19.9749C10.4767 19.9916 10.2386 20 10.0005 20C9.76246 20 9.52438 19.9913 9.2863 19.9742ZM15.533 16.5411C15.8967 16.2329 16.2343 15.8951 16.5422 15.5311L17.5586 16.5474C17.4034 16.7264 17.241 16.9004 17.0715 17.0695C16.902 17.2385 16.7279 17.401 16.5494 17.5567L15.533 16.5411ZM2.93102 17.0702C2.76151 16.9007 2.59891 16.7264 2.44321 16.5474L3.45957 15.5311C3.76776 15.8951 4.10555 16.2329 4.4695 16.5411L3.45314 17.5574C3.27411 17.4021 3.09959 17.2397 2.92961 17.0702H2.93102ZM18.5421 10.7135C18.5616 10.4755 18.5714 10.2374 18.5714 9.9993C18.5714 9.76122 18.5616 9.52315 18.5421 9.28507H19.9756C19.9922 9.52315 20.0006 9.76122 20.0006 9.9993C20.0006 10.2374 19.9922 10.4755 19.9756 10.7135H18.5421ZM0.026954 10.7135C0.0102885 10.4755 0.00195312 10.2374 0.00195312 9.9993C0.00195312 9.76122 0.0102885 9.52315 0.026954 9.28507H1.46042C1.44089 9.52315 1.43114 9.76122 1.43114 9.9993C1.43114 10.2374 1.44089 10.4755 1.46042 10.7135H0.026954ZM2.44321 3.45191C2.59891 3.27287 2.76151 3.09887 2.93102 2.92983C3.10053 2.7608 3.27483 2.59811 3.45386 2.44193L4.4695 3.45749C4.10562 3.76601 3.76783 4.10406 3.45957 4.46816L2.44321 3.45191ZM15.533 3.45749L16.5487 2.44193C16.7277 2.59764 16.902 2.76032 17.0715 2.92983C17.241 3.09934 17.4034 3.27335 17.5586 3.45191L16.5422 4.46816C16.2341 4.10396 15.8963 3.76589 15.5323 3.45749H15.533ZM9.2863 0.0251099C9.52438 0.00844435 9.76246 0 10.0005 0C10.2386 0 10.4767 0.00844435 10.7148 0.0251099V1.45707C10.4791 1.43755 10.241 1.42777 10.0005 1.42777C9.76008 1.42777 9.522 1.43777 9.2863 1.45777V0.0251099Z" fill="white"/>
<path fill-rule="evenodd" clip-rule="evenodd" d="M9.98345 16.5331C11.9144 16.5331 13.6492 15.6933 14.8425 14.3589C14.2874 13.8765 13.4509 13.8472 12.86 14.324L12.7471 14.4151C11.6651 15.2882 10.0884 15.1593 9.16266 14.122C8.65773 13.5563 7.79298 13.4985 7.21731 13.992L5.91568 15.1079C7.03052 15.9998 8.44471 16.5331 9.98345 16.5331ZM12.0963 13.3776C13.1269 12.546 14.5755 12.5758 15.5667 13.379C16.1591 12.3973 16.5 11.2468 16.5 10.0166C16.5 8.64961 16.0791 7.38096 15.3599 6.33315C14.8962 6.2344 14.3936 6.34973 14.0121 6.6878L13.9035 6.78402C12.863 7.70611 11.2821 7.65008 10.3094 6.65665C9.77897 6.11482 8.91245 6.09703 8.36016 6.61662L6.84543 8.04167L6.01216 7.15597L7.52688 5.73091C8.56145 4.75758 10.1846 4.79091 11.1784 5.80589C11.6976 6.33621 12.5415 6.36612 13.097 5.87388L13.2056 5.77766C13.5428 5.47886 13.9329 5.27742 14.3414 5.17148C13.1868 4.13238 11.659 3.5 9.98345 3.5C6.67538 3.5 3.94303 5.96493 3.52289 9.15829C4.52768 8.67612 5.76709 8.86166 6.58634 9.70063C7.10355 10.2303 7.93634 10.2862 8.51968 9.83042L9.36659 9.16877C10.431 8.33723 11.9356 8.37747 12.954 9.26473L14.6029 10.7013L13.804 11.6182L12.1552 10.1817C11.5761 9.6771 10.7205 9.65421 10.1153 10.127L9.26838 10.7887C8.19658 11.626 6.66653 11.5233 5.71629 10.5502C5.16373 9.98439 4.26001 9.96465 3.68327 10.5058L3.5 10.6778C3.63716 12.0389 4.19314 13.2763 5.03712 14.2594L6.42581 13.0688C7.50419 12.1443 9.12408 12.2525 10.0699 13.3122C10.5642 13.866 11.4058 13.9348 11.9834 13.4687L12.0963 13.3776Z" fill="url(#paint0_linear_5265_76534)"/>
<defs>
<linearGradient id="paint0_linear_5265_76534" x1="10" y1="3.5" x2="10" y2="16.5331" gradientUnits="userSpaceOnUse">
<stop stop-color="#882950"/>
<stop offset="0.505208" stop-color="#A32E48"/>
<stop offset="1" stop-color="#DD3639"/>
</linearGradient>
</defs>
</svg>
