<svg width="32" height="32" viewBox="0 0 32 32" fill="none" xmlns="http://www.w3.org/2000/svg">
<circle cx="16" cy="16" r="15.75" fill="url(#paint0_linear_5265_76536)" stroke="white" stroke-width="0.5"/>
<path fill-rule="evenodd" clip-rule="evenodd" d="M15.972 27C19.2398 27 22.1756 25.5823 24.1951 23.3299C23.2557 22.5156 21.84 22.4661 20.8399 23.271L20.6489 23.4248C18.8178 24.8985 16.1497 24.6809 14.583 22.93C13.7285 21.975 12.2651 21.8775 11.2908 22.7106L9.08807 24.5943C10.9747 26.0998 13.368 27 15.972 27ZM19.5476 21.6735C21.2917 20.2697 23.7431 20.3201 25.4205 21.6758C26.4231 20.0188 27 18.0766 27 16C27 13.6926 26.2878 11.5511 25.0706 9.78237C24.2859 9.61569 23.4354 9.81037 22.7898 10.381L22.606 10.5435C20.845 12.0999 18.1697 12.0054 16.5237 10.3284C15.6259 9.41384 14.1595 9.38381 13.2249 10.2609L10.6615 12.6664L9.25134 11.1713L11.8147 8.76578C13.5655 7.12281 16.3125 7.17907 17.9942 8.89235C18.8729 9.78754 20.3011 9.83803 21.2411 9.00712L21.4249 8.84471C21.9955 8.34032 22.6557 8.0003 23.347 7.82146C21.3931 6.06745 18.8075 5 15.972 5C10.3737 5 5.74974 9.16081 5.03873 14.5512C6.73915 13.7373 8.83661 14.0505 10.223 15.4667C11.0983 16.3607 12.5077 16.4551 13.4948 15.6858L14.9281 14.5689C16.7294 13.1653 19.2756 13.2332 20.9991 14.7309L23.7895 17.1558L22.4376 18.7036L19.6472 16.2787C18.6673 15.427 17.2193 15.3883 16.1951 16.1865L14.7619 17.3034C12.9481 18.7168 10.3587 18.5434 8.75065 16.9009C7.81555 15.9457 6.28618 15.9124 5.31015 16.8259L5 17.1162C5.23211 19.4136 6.17301 21.5025 7.60128 23.1619L9.95137 21.1522C11.7763 19.5915 14.5177 19.7742 16.1184 21.5631C16.9547 22.4978 18.379 22.6139 19.3565 21.8272L19.5476 21.6735Z" fill="url(#paint1_linear_5265_76536)"/>
<defs>
<linearGradient id="paint0_linear_5265_76536" x1="16" y1="0" x2="16" y2="32" gradientUnits="userSpaceOnUse">
<stop stop-color="#F3E3CC"/>
<stop offset="1" stop-color="#F8DDB8"/>
</linearGradient>
<linearGradient id="paint1_linear_5265_76536" x1="16" y1="5" x2="16" y2="27" gradientUnits="userSpaceOnUse">
<stop stop-color="#882950"/>
<stop offset="0.505208" stop-color="#A32E48"/>
<stop offset="1" stop-color="#DD3639"/>
</linearGradient>
</defs>
</svg>
