<svg width="20" height="20" viewBox="0 0 20 20" fill="none" xmlns="http://www.w3.org/2000/svg">
<path d="M10 20C15.5228 20 20 15.5228 20 10C20 4.47715 15.5228 0 10 0C4.47715 0 0 4.47715 0 10C0 15.5228 4.47715 20 10 20Z" fill="white"/>
<path d="M9.99966 19.9986C8.68593 20.0023 7.38453 19.7452 6.17076 19.2426C4.957 18.7399 3.85498 18.0016 2.9285 17.0702C1.99708 16.1438 1.25867 15.042 0.755997 13.8282C0.253327 12.6145 -0.00361695 11.313 4.01687e-05 9.99934C-0.00369585 8.68564 0.253213 7.38418 0.755888 6.17044C1.25856 4.9567 1.99702 3.85488 2.9285 2.92848C3.85493 1.99702 4.95692 1.25844 6.1707 0.755777C7.38447 0.253118 8.68592 -0.00369572 9.99966 4.01809e-05C11.3134 -0.00369572 12.6148 0.253118 13.8286 0.755777C15.0424 1.25844 16.1444 1.99702 17.0708 2.92848C18.0023 3.85488 18.7408 4.9567 19.2434 6.17044C19.7461 7.38418 20.003 8.68564 19.9993 9.99934C20.0029 11.313 19.746 12.6145 19.2433 13.8282C18.7406 15.042 18.0022 16.1438 17.0708 17.0702C16.1443 18.0016 15.0423 18.7399 13.8286 19.2426C12.6148 19.7452 11.3134 20.0023 9.99966 19.9986ZM9.99966 1.42851C7.72722 1.43097 5.54855 2.33478 3.94169 3.94159C2.33483 5.5484 1.43101 7.72697 1.42856 9.99934C1.43101 12.2717 2.33483 14.4503 3.94169 16.0571C5.54855 17.6639 7.72722 18.5677 9.99966 18.5702C12.2721 18.5677 14.4508 17.6639 16.0576 16.0571C17.6645 14.4503 18.5683 12.2717 18.5708 9.99934C18.5683 7.72697 17.6645 5.5484 16.0576 3.94159C14.4508 2.33478 12.2721 1.43097 9.99966 1.42851Z" fill="#5E12A0"/>
<path opacity="0.41" d="M9.28464 19.9742V18.5408C9.52273 18.5608 9.76081 18.5708 9.9989 18.5708C10.237 18.5708 10.4751 18.5611 10.7132 18.5415V19.9749C10.4751 19.9916 10.237 20 9.9989 20C9.76081 20 9.52273 19.9913 9.28464 19.9742ZM15.5315 16.5411C15.8953 16.2329 16.2328 15.8951 16.5408 15.5311L17.5572 16.5474C17.402 16.7264 17.2396 16.9004 17.0701 17.0695C16.9005 17.2385 16.7265 17.401 16.5479 17.5567L15.5315 16.5411ZM2.92916 17.0702C2.75964 16.9007 2.59704 16.7264 2.44133 16.5474L3.45773 15.5311C3.76592 15.8951 4.10373 16.2329 4.46769 16.5411L3.4513 17.5574C3.27226 17.4021 3.09774 17.2397 2.92774 17.0702H2.92916ZM18.5407 10.7135C18.5603 10.4755 18.57 10.2374 18.57 9.9993C18.57 9.76122 18.5603 9.52315 18.5407 9.28507H19.9742C19.9909 9.52315 19.9992 9.76122 19.9992 9.9993C19.9992 10.2374 19.9909 10.4755 19.9742 10.7135H18.5407ZM0.0250017 10.7135C0.00833563 10.4755 0 10.2374 0 9.9993C0 9.76122 0.00833563 9.52315 0.0250017 9.28507H1.45851C1.43899 9.52315 1.42924 9.76122 1.42924 9.9993C1.42924 10.2374 1.43899 10.4755 1.45851 10.7135H0.0250017ZM2.44133 3.45191C2.59704 3.27287 2.75964 3.09887 2.92916 2.92983C3.09868 2.7608 3.27298 2.59811 3.45202 2.44193L4.46769 3.45749C4.1038 3.76601 3.766 4.10406 3.45773 4.46816L2.44133 3.45191ZM15.5315 3.45749L16.5472 2.44193C16.7263 2.59764 16.9005 2.76032 17.0701 2.92983C17.2396 3.09934 17.402 3.27335 17.5572 3.45191L16.5408 4.46816C16.2326 4.10396 15.8955 3.76589 15.5315 3.45749ZM9.28464 0.0251099C9.52273 0.00844435 9.76081 0 9.9989 0C10.237 0 10.4751 0.00844435 10.7132 0.0251099V1.45707C10.4775 1.43755 10.2394 1.42777 9.9989 1.42777C9.75843 1.42777 9.52035 1.43777 9.28464 1.45777V0.0251099Z" fill="white"/>
<path d="M15.3243 6.16752C15.2056 5.71815 14.8239 5.26865 14.1371 4.76826C13.5858 4.36966 13.0006 4.14062 12.5342 4.14062C12.4409 4.14062 12.3561 4.14919 12.2712 4.16607C12.0593 4.20853 11.8727 4.36121 11.754 4.59012C11.6098 4.86148 11.5759 5.22632 11.6691 5.44666C11.7031 5.51456 11.7454 5.59935 11.7963 5.67569C11.3468 5.94706 11.0925 6.0234 11.0586 6.03184C12.2288 6.42212 13.2042 7.23621 13.8148 8.29633L13.8234 8.19454C13.8487 7.91462 13.9335 7.59236 14.0521 7.26166C14.1709 7.29555 14.2897 7.31255 14.4084 7.31255C14.7222 7.31255 14.9936 7.18531 15.1633 6.95628C15.3329 6.72738 15.4006 6.422 15.3244 6.16752H15.3243Z" fill="#5E12A0"/>
<path d="M14.1 7.02187C14.8717 7.23389 15.1855 6.64027 15.0836 6.24167C14.9735 5.84307 14.6172 5.43602 13.9897 4.97808C13.3621 4.52002 12.726 4.33345 12.319 4.41835C11.9119 4.50314 11.7931 5.12221 11.8949 5.35968C11.9373 5.45303 12.0306 5.58871 12.1579 5.7414C11.9967 5.85151 11.844 5.93642 11.7168 6.01264C12.4971 6.36047 13.1755 6.90319 13.6844 7.58172C13.7437 7.35269 13.8286 7.1491 13.9048 6.97109C13.9643 6.97953 14.0321 6.99642 14.1 7.02187Z" fill="url(#paint0_radial_2607_53996)"/>
<path d="M9.68229 15.3311C12.3005 15.3311 14.4231 13.2086 14.4231 10.5903C14.4231 7.97206 12.3005 5.84961 9.68217 5.84961C7.06398 5.84961 4.94141 7.97206 4.94141 10.5904C4.94141 13.2086 7.0641 15.3311 9.68229 15.3311Z" fill="url(#paint1_radial_2607_53996)"/>
<path opacity="0.6" d="M14.6971 5.85125C14.0526 5.17284 13.5098 4.99483 12.8569 4.85046C12.3479 4.73179 12.4837 4.44354 13.1028 4.50288C12.806 4.40109 12.5261 4.37564 12.3225 4.41809C11.9154 4.50288 11.7968 5.12195 11.8986 5.35942C11.9409 5.45277 12.0342 5.58845 12.1614 5.74114C11.9324 5.8937 11.7373 6.00394 11.5762 6.08872C11.6525 6.12273 11.7459 6.16507 11.8561 6.22452C12.1445 6.37709 12.4583 6.63157 12.4583 6.63157C11.9833 6.2244 12.0851 6.03795 12.7381 5.57989C12.9417 5.43576 13.3148 5.45265 13.6625 5.63078C14.0102 5.80892 14.4174 6.25841 14.4174 6.25841L14.0271 7.00472L14.1035 7.03017C14.3494 7.09795 14.5445 7.08107 14.6972 7.02161C14.8752 6.91149 15.3417 6.53834 14.6972 5.85125H14.6971Z" fill="#A98698"/>
<path d="M12.8435 5.25998C13.0131 5.32776 13.2335 5.44643 13.5049 5.62457C13.8272 5.83659 14.1071 6.07406 14.2851 6.26064C13.9883 6.6508 13.7933 7.18496 13.6746 7.55824C13.7339 7.64302 13.8018 7.72781 13.861 7.81271C13.9205 7.60057 14.0222 7.28675 14.158 6.97306C14.1919 6.9815 14.2342 6.9815 14.2767 6.9815C14.3784 6.9815 14.4971 6.96449 14.5905 6.88815C14.6582 6.83725 14.7346 6.74403 14.7261 6.57446C14.7261 6.4132 14.5989 6.20974 14.336 5.96383C14.1494 5.78569 13.8951 5.59068 13.6406 5.41254C12.9113 4.92915 12.4024 4.79347 12.1734 5.02238C12.0207 5.17507 12.0376 5.36165 12.0886 5.49733C11.8173 5.67546 11.5882 5.8027 11.4355 5.88749C11.5373 5.92138 11.6307 5.96383 11.7324 6.00616C12.0038 5.86204 12.3939 5.61612 12.8434 5.25985L12.8435 5.25998ZM14.4462 6.47266C14.4717 6.515 14.4802 6.55745 14.4802 6.58278C14.4802 6.65924 14.4548 6.68469 14.4378 6.70157C14.4039 6.72702 14.336 6.74403 14.2767 6.74403C14.3275 6.64224 14.3869 6.55745 14.4462 6.47266ZM12.3517 5.20896C12.3771 5.18351 12.4449 5.16663 12.5551 5.18351C12.4703 5.25141 12.3856 5.31075 12.3007 5.37009C12.2922 5.31075 12.3007 5.25141 12.3517 5.20896Z" fill="#5E12A0"/>
<path d="M9.68072 5.57031C6.90752 5.57031 4.66016 7.8178 4.66016 10.591C4.66016 13.3642 6.90764 15.6116 9.68072 15.6116C12.4541 15.6116 14.7014 13.3642 14.7014 10.591C14.7014 7.8178 12.4455 5.57031 9.68072 5.57031ZM9.68072 15.3318C7.06021 15.3318 4.93996 13.2115 4.93996 10.5909C4.93996 7.97036 7.06021 5.85024 9.68085 5.85024C12.3014 5.85024 14.4216 7.97049 14.4216 10.591C14.4216 13.2116 12.2928 15.3318 9.68072 15.3318Z" fill="#5E12A0"/>
<path opacity="0.6" d="M9.68229 15.3311C12.3005 15.3311 14.4232 13.2086 14.4232 10.5903C14.4232 7.97206 12.3005 5.84961 9.68229 5.84961C7.0641 5.84961 4.94141 7.97206 4.94141 10.5903C4.94141 13.2084 7.0641 15.331 9.68229 15.331V15.3311Z" fill="url(#paint2_linear_2607_53996)"/>
<path opacity="0.6" d="M9.64973 14.7544C7.0631 14.3389 5.30756 11.905 5.73161 9.31824C5.91819 8.17333 6.4948 7.19799 7.30901 6.49414C6.12177 7.18111 5.23966 8.37691 5.00231 9.83539C4.5867 12.4223 6.34224 14.8562 8.92043 15.2718C10.3621 15.5092 11.753 15.0598 12.7792 14.1778C11.8718 14.7035 10.7692 14.9326 9.64973 14.7544Z" fill="#A98698"/>
<path opacity="0.6" d="M10.4357 5.92183C9.23988 5.72682 8.07809 5.99818 7.1282 6.60036L7.09418 6.63425C7.4589 6.41379 7.99318 6.21864 7.99318 6.21864C6.61924 7.01585 6.19531 7.92328 6.19531 7.92328C6.7296 6.88861 8.29843 6.15931 9.52825 6.10841C10.7579 6.05752 11.5636 6.42223 12.5474 7.21099C13.5311 8.00807 14.1249 9.63649 14.0656 10.9255C14.0147 12.2147 13.3361 13.2578 13.3361 13.2578C13.8026 12.6556 14.0824 12.2147 14.2606 11.7652C14.2945 11.6294 14.3283 11.4938 14.3454 11.3496C14.7694 8.77138 13.0223 6.33744 10.4357 5.92183Z" fill="url(#paint3_linear_2607_53996)"/>
<path d="M14.189 10.543C14.189 13.0278 12.1705 15.0464 9.68556 15.0464C7.20072 15.0464 5.17383 13.0279 5.17383 10.543H14.189Z" fill="url(#paint4_linear_2607_53996)"/>
<path opacity="0.6" d="M13.8271 10.543C13.8271 12.9685 11.9104 14.953 9.50195 15.0464H9.67997C12.1648 15.0464 14.1834 13.0279 14.1834 10.543H13.8271Z" fill="url(#paint5_linear_2607_53996)"/>
<path opacity="0.7" d="M5.80807 10.543H5.17188C5.17188 13.0278 7.19033 15.0464 9.67529 15.0464C9.78552 15.0464 9.88731 15.0464 9.9891 15.0378C7.65683 14.8682 5.80807 12.9176 5.80807 10.543Z" fill="url(#paint6_linear_2607_53996)"/>
<path d="M14.1805 10.5901C14.1805 10.0728 13.2815 9.77603 12.0857 9.67423C11.2208 9.60645 10.3472 9.69124 9.34642 9.99649C8.48144 10.251 7.70112 10.2085 7.13295 10.1407C5.86936 9.99649 5.17383 9.97961 5.17383 10.5901C5.17383 11.4721 6.97182 12.5746 9.6688 12.1928C11.0342 11.9979 11.738 11.5993 12.5438 11.3279C13.4173 11.0396 14.1805 11.0481 14.1805 10.5901Z" fill="url(#paint7_linear_2607_53996)"/>
<path d="M11.1618 8.45436C11.5834 8.45436 11.9251 8.11265 11.9251 7.69117C11.9251 7.26957 11.5834 6.92773 11.1618 6.92773C10.7403 6.92773 10.3984 7.26957 10.3984 7.69117C10.3984 8.11265 10.7403 8.45436 11.1619 8.45436H11.1618ZM12.4085 9.02266C12.5865 9.02266 12.7307 8.87829 12.7307 8.7004C12.7307 8.52239 12.5863 8.37802 12.4085 8.37802C12.2304 8.37802 12.0862 8.52239 12.0862 8.7004C12.0862 8.87829 12.2306 9.02266 12.4085 9.02266Z" fill="white"/>
<path opacity="0.6" d="M13.5613 7.07653H13.5444C13.4935 7.06796 13.4596 7.01719 13.4681 6.95785C13.5444 6.56757 13.8667 6.19442 13.8837 6.17753C13.9176 6.13508 13.9855 6.13508 14.0194 6.16897C14.0617 6.20298 14.0617 6.27076 14.0279 6.30477C14.0194 6.31334 13.7226 6.66092 13.6547 7.00018C13.6461 7.05108 13.6038 7.07653 13.5613 7.07653Z" fill="url(#paint8_linear_2607_53996)"/>
<path d="M12.5314 4.14412C13.0063 4.14412 13.5915 4.37315 14.1342 4.77176C14.8212 5.27215 15.2028 5.71308 15.3216 6.17114C15.3894 6.43406 15.3301 6.73087 15.1604 6.95134C14.9823 7.18037 14.7194 7.30749 14.4056 7.30749C14.2955 7.30749 14.1767 7.2906 14.0494 7.25659C13.9731 7.45173 13.9136 7.64687 13.8713 7.83333C14.3887 8.62209 14.6939 9.57186 14.6939 10.5896C14.6939 13.3629 12.4465 15.6102 9.67338 15.6102C6.90005 15.6102 4.66113 13.3629 4.66113 10.5896C4.66113 7.81644 6.90862 5.56896 9.68182 5.56896C10.2923 5.56896 10.8776 5.67919 11.4203 5.88277C11.5221 5.83188 11.6494 5.7641 11.7935 5.67919C11.7426 5.60285 11.6917 5.5265 11.6663 5.45028C11.573 5.22125 11.6069 4.8651 11.7512 4.59362C11.8698 4.37315 12.048 4.22047 12.2684 4.16957C12.3448 4.15269 12.438 4.14412 12.5314 4.14412ZM12.5314 4C12.4296 4 12.3278 4.00856 12.2346 4.03389C11.9801 4.09335 11.7596 4.26292 11.6155 4.53428C11.4544 4.8481 11.4119 5.25514 11.5221 5.51806C11.5391 5.55195 11.556 5.59441 11.5815 5.63674C11.5221 5.67075 11.4628 5.70464 11.4033 5.73009C10.8436 5.53507 10.267 5.43328 9.67338 5.43328C8.97784 5.43328 8.29944 5.56896 7.66324 5.84032C7.04417 6.10336 6.49301 6.47652 6.01806 6.95134C5.54312 7.42628 5.16996 7.97745 4.90717 8.59664C4.63556 9.23272 4.5 9.91112 4.5 10.6065C4.5 11.3019 4.6358 11.9805 4.90704 12.6165C5.17009 13.2356 5.54324 13.7869 6.01806 14.2618C6.49301 14.7368 7.0443 15.1099 7.66336 15.3727C8.29944 15.6442 8.97784 15.7799 9.67326 15.7799C10.3688 15.7799 11.0472 15.6441 11.6834 15.3729C12.3025 15.1098 12.8536 14.7367 13.3286 14.2618C13.8035 13.7869 14.1767 13.2356 14.4395 12.6165C14.711 11.9805 14.8466 11.3021 14.8466 10.6065C14.8466 9.61431 14.5667 8.65598 14.0324 7.82489C14.0579 7.69765 14.1003 7.57041 14.1427 7.44317C14.2276 7.4603 14.3208 7.46862 14.4057 7.46862C14.7617 7.46862 15.0757 7.32449 15.2792 7.05313C15.4743 6.79865 15.5505 6.4425 15.4657 6.14569C15.33 5.65387 14.94 5.18736 14.219 4.66996C13.6508 4.23747 13.0318 4 12.5314 4Z" fill="white"/>
<path opacity="0.2" d="M9.3665 14.1312C9.49753 14.1312 9.60385 14.0248 9.60385 13.8937C9.60385 13.7626 9.49753 13.6562 9.3665 13.6562C9.23522 13.6562 9.12891 13.7626 9.12891 13.8936C9.12891 14.0249 9.23535 14.1312 9.36638 14.1312H9.3665Z" fill="white"/>
<g opacity="0.4">
<path opacity="0.6" d="M9.23281 14.038C9.13946 13.9446 9.13946 13.7921 9.23281 13.6987C9.24981 13.6817 9.2667 13.6733 9.2837 13.6562C9.24981 13.6648 9.22437 13.6817 9.19892 13.7071C9.10557 13.8005 9.10557 13.9531 9.19892 14.0464C9.27526 14.1228 9.39394 14.1396 9.48729 14.0889C9.40238 14.1228 9.30059 14.1057 9.23281 14.038Z" fill="url(#paint9_linear_2607_53996)"/>
</g>
<path opacity="0.3" d="M9.45519 13.8244C9.48333 13.8244 9.50609 13.8017 9.50609 13.7736C9.50609 13.7454 9.48333 13.7227 9.45519 13.7227C9.42705 13.7227 9.4043 13.7455 9.4043 13.7736C9.4043 13.8017 9.42718 13.8244 9.45519 13.8244Z" fill="white"/>
<path opacity="0.2" d="M10.6086 14.0023C10.7397 14.0023 10.8459 13.896 10.8459 13.7649C10.8459 13.6337 10.7397 13.5273 10.6086 13.5273C10.4774 13.5273 10.3711 13.6338 10.3711 13.7648C10.3711 13.896 10.4774 14.0023 10.6084 14.0023H10.6086Z" fill="white"/>
<g opacity="0.4">
<path opacity="0.6" d="M10.4711 13.9246C10.3778 13.8313 10.3778 13.6786 10.4711 13.5853C10.488 13.5684 10.505 13.5599 10.522 13.543C10.488 13.5514 10.4626 13.5684 10.4371 13.5939C10.3439 13.6871 10.3439 13.8398 10.4371 13.933C10.5135 14.0093 10.6322 14.0264 10.7255 13.9755C10.6407 14.0093 10.5389 13.9923 10.471 13.9246H10.4711Z" fill="url(#paint10_linear_2607_53996)"/>
</g>
<path opacity="0.3" d="M10.6875 13.6993C10.7156 13.6993 10.7384 13.6767 10.7384 13.6486C10.7384 13.6204 10.7156 13.5977 10.6875 13.5977C10.6594 13.5977 10.6367 13.6204 10.6367 13.6486C10.6367 13.6767 10.6595 13.6994 10.6875 13.6994V13.6993Z" fill="white"/>
<path opacity="0.2" d="M9.99454 14.5554C10.0929 14.5554 10.1727 14.4756 10.1727 14.3772C10.1727 14.2789 10.0929 14.1992 9.99454 14.1992C9.89618 14.1992 9.81641 14.2789 9.81641 14.3772C9.81641 14.4756 9.89618 14.5554 9.99454 14.5554Z" fill="white"/>
<g opacity="0.4">
<path opacity="0.6" d="M9.89269 14.4948C9.82491 14.4269 9.82491 14.3082 9.89269 14.2403C9.90125 14.2317 9.91814 14.2233 9.9267 14.2148C9.90125 14.2234 9.88425 14.2403 9.86724 14.2573C9.79946 14.3251 9.79946 14.4439 9.86724 14.5118C9.9267 14.5711 10.0115 14.5796 10.0878 14.5371C10.0199 14.5625 9.94358 14.5457 9.89269 14.4948Z" fill="url(#paint11_linear_2607_53996)"/>
</g>
<path opacity="0.3" d="M10.0534 14.3257C10.0721 14.3257 10.0873 14.3105 10.0873 14.2918C10.0873 14.2731 10.0721 14.2578 10.0534 14.2578C10.0347 14.2578 10.0195 14.2731 10.0195 14.2918C10.0195 14.3105 10.0347 14.3257 10.0534 14.3257Z" fill="white"/>
<path opacity="0.2" d="M11.0921 14.4304C11.1904 14.4304 11.2702 14.3507 11.2702 14.2522C11.2702 14.154 11.1904 14.0742 11.0921 14.0742C10.9937 14.0742 10.9141 14.154 10.9141 14.2524C10.9141 14.3506 10.9937 14.4304 11.0921 14.4304Z" fill="white"/>
<g opacity="0.4">
<path opacity="0.6" d="M10.9903 14.3659C10.9226 14.298 10.9226 14.1793 10.9903 14.1114C10.9989 14.1028 11.0158 14.0945 11.0242 14.0859C10.9988 14.0945 10.9819 14.1114 10.9649 14.1284C10.8971 14.1962 10.8971 14.315 10.9649 14.3829C11.0242 14.4422 11.1091 14.4506 11.1854 14.4082C11.1176 14.4336 11.0412 14.4168 10.9903 14.3659Z" fill="url(#paint12_linear_2607_53996)"/>
</g>
<path opacity="0.3" d="M11.1472 14.1967C11.1659 14.1967 11.1812 14.1815 11.1812 14.1628C11.1812 14.1441 11.1659 14.1289 11.1472 14.1289C11.1285 14.1289 11.1133 14.1441 11.1133 14.1628C11.1133 14.1815 11.1285 14.1967 11.1472 14.1967Z" fill="white"/>
<path opacity="0.2" d="M8.35879 14.0419C8.57424 14.0419 8.74895 13.8673 8.74895 13.6519C8.74895 13.4364 8.57424 13.2617 8.35879 13.2617C8.14346 13.2617 7.96875 13.4364 7.96875 13.6519C7.96875 13.8672 8.14334 14.0419 8.35879 14.0419Z" fill="white"/>
<g opacity="0.4">
<path opacity="0.6" d="M8.13407 13.9016C7.9815 13.749 7.9815 13.503 8.13407 13.3504C8.15952 13.3249 8.18497 13.308 8.21898 13.291C8.16808 13.308 8.12563 13.3419 8.08317 13.3758C7.93061 13.5285 7.93061 13.7744 8.08317 13.9271C8.21041 14.0543 8.40543 14.0798 8.55812 13.9864C8.414 14.0458 8.2443 14.0204 8.13407 13.9016Z" fill="url(#paint13_linear_2607_53996)"/>
</g>
<path opacity="0.3" d="M8.49299 13.5289C8.53985 13.5289 8.57777 13.491 8.57777 13.4442C8.57777 13.3973 8.53985 13.3594 8.49299 13.3594C8.44613 13.3594 8.4082 13.3973 8.4082 13.4442C8.4082 13.491 8.44613 13.5289 8.49299 13.5289Z" fill="white"/>
<path opacity="0.2" d="M11.8394 13.0849C12.0548 13.0849 12.2295 12.9103 12.2295 12.6948C12.2295 12.4794 12.0548 12.3047 11.8393 12.3047C11.6239 12.3047 11.4492 12.4794 11.4492 12.6948C11.4492 12.9102 11.6239 13.0849 11.8394 13.0849Z" fill="white"/>
<g opacity="0.4">
<path opacity="0.6" d="M11.6146 12.9348C11.4619 12.7822 11.4619 12.5362 11.6146 12.3836C11.6401 12.3581 11.6655 12.3412 11.6994 12.3242C11.6485 12.3412 11.6062 12.3751 11.5637 12.409C11.411 12.5617 11.411 12.8076 11.5637 12.9603C11.691 13.0875 11.886 13.113 12.0387 13.0196C11.8946 13.079 11.7333 13.0536 11.6146 12.9348Z" fill="url(#paint14_linear_2607_53996)"/>
</g>
<path opacity="0.3" d="M11.9852 12.5778C12.032 12.5778 12.07 12.5398 12.07 12.493C12.07 12.4461 12.032 12.4082 11.9852 12.4082C11.9383 12.4082 11.9004 12.4461 11.9004 12.493C11.9004 12.5398 11.9383 12.5778 11.9852 12.5778Z" fill="white"/>
<defs>
<radialGradient id="paint0_radial_2607_53996" cx="0" cy="0" r="1" gradientUnits="userSpaceOnUse" gradientTransform="translate(14.929 5.70739) scale(3.79046 3.79046)">
<stop stop-color="#FFEAFF" stop-opacity="0.6"/>
<stop offset="0.681" stop-color="#A087C9"/>
<stop offset="1" stop-color="#10002F"/>
</radialGradient>
<radialGradient id="paint1_radial_2607_53996" cx="0" cy="0" r="1" gradientUnits="userSpaceOnUse" gradientTransform="translate(12.8211 7.32191) scale(9.27389 9.2739)">
<stop stop-color="#FFEAFF" stop-opacity="0.6"/>
<stop offset="0.681" stop-color="#A087C9"/>
<stop offset="1" stop-color="#10002F"/>
</radialGradient>
<linearGradient id="paint2_linear_2607_53996" x1="8.92179" y1="15.2638" x2="10.4381" y2="5.90895" gradientUnits="userSpaceOnUse">
<stop stop-color="#81FFFF"/>
<stop offset="0.62" stop-color="white" stop-opacity="0"/>
</linearGradient>
<linearGradient id="paint3_linear_2607_53996" x1="13.0219" y1="7.37518" x2="9.10175" y2="10.972" gradientUnits="userSpaceOnUse">
<stop offset="0.289" stop-color="white"/>
<stop offset="0.78" stop-color="white" stop-opacity="0"/>
</linearGradient>
<linearGradient id="paint4_linear_2607_53996" x1="5.17762" y1="12.792" x2="14.1868" y2="12.792" gradientUnits="userSpaceOnUse">
<stop stop-color="#0002E9"/>
<stop offset="0.995" stop-color="#FF00C7"/>
</linearGradient>
<linearGradient id="paint5_linear_2607_53996" x1="14.6077" y1="10.9381" x2="9.70395" y2="15.5723" gradientUnits="userSpaceOnUse">
<stop offset="0.289" stop-color="white"/>
<stop offset="0.78" stop-color="white" stop-opacity="0"/>
</linearGradient>
<linearGradient id="paint6_linear_2607_53996" x1="5.17579" y1="12.792" x2="9.99559" y2="12.792" gradientUnits="userSpaceOnUse">
<stop stop-color="#000292"/>
<stop offset="0.995" stop-color="#7D00C7"/>
</linearGradient>
<linearGradient id="paint7_linear_2607_53996" x1="5.18374" y1="10.9644" x2="14.1808" y2="10.9644" gradientUnits="userSpaceOnUse">
<stop stop-color="#000292"/>
<stop offset="0.995" stop-color="#BE00C7"/>
</linearGradient>
<linearGradient id="paint8_linear_2607_53996" x1="14.0331" y1="6.13618" x2="13.3865" y2="7.18701" gradientUnits="userSpaceOnUse">
<stop offset="0.289" stop-color="white"/>
<stop offset="0.78" stop-color="white" stop-opacity="0"/>
</linearGradient>
<linearGradient id="paint9_linear_2607_53996" x1="9.12869" y1="13.8925" x2="9.48753" y2="13.8925" gradientUnits="userSpaceOnUse">
<stop offset="0.289" stop-color="white"/>
<stop offset="0.78" stop-color="white" stop-opacity="0"/>
</linearGradient>
<linearGradient id="paint10_linear_2607_53996" x1="10.366" y1="13.7776" x2="10.7249" y2="13.7776" gradientUnits="userSpaceOnUse">
<stop offset="0.289" stop-color="white"/>
<stop offset="0.78" stop-color="white" stop-opacity="0"/>
</linearGradient>
<linearGradient id="paint11_linear_2607_53996" x1="9.81537" y1="14.3865" x2="10.0846" y2="14.3865" gradientUnits="userSpaceOnUse">
<stop offset="0.289" stop-color="white"/>
<stop offset="0.78" stop-color="white" stop-opacity="0"/>
</linearGradient>
<linearGradient id="paint12_linear_2607_53996" x1="10.9092" y1="14.2572" x2="11.1786" y2="14.2572" gradientUnits="userSpaceOnUse">
<stop offset="0.289" stop-color="white"/>
<stop offset="0.78" stop-color="white" stop-opacity="0"/>
</linearGradient>
<linearGradient id="paint13_linear_2607_53996" x1="7.96487" y1="13.6656" x2="8.55078" y2="13.6656" gradientUnits="userSpaceOnUse">
<stop offset="0.289" stop-color="white"/>
<stop offset="0.78" stop-color="white" stop-opacity="0"/>
</linearGradient>
<linearGradient id="paint14_linear_2607_53996" x1="11.4486" y1="12.6986" x2="12.0346" y2="12.6986" gradientUnits="userSpaceOnUse">
<stop offset="0.289" stop-color="white"/>
<stop offset="0.78" stop-color="white" stop-opacity="0"/>
</linearGradient>
</defs>
</svg>
