<svg width="32" height="32" viewBox="0 0 32 32" fill="none" xmlns="http://www.w3.org/2000/svg">
<path d="M16 32C24.8366 32 32 24.8366 32 16C32 7.16344 24.8366 0 16 0C7.16344 0 0 7.16344 0 16C0 24.8366 7.16344 32 16 32Z" fill="url(#paint0_linear_651_7014)"/>
<path d="M16 31.75C24.6985 31.75 31.75 24.6985 31.75 16C31.75 7.30152 24.6985 0.25 16 0.25C7.30152 0.25 0.25 7.30152 0.25 16C0.25 24.6985 7.30152 31.75 16 31.75Z" stroke="white" stroke-width="0.5"/>
<path d="M25.1922 8.74905C24.9873 7.97286 24.3279 7.19645 23.1416 6.33214C22.1893 5.64365 21.1786 5.24805 20.373 5.24805C20.2118 5.24805 20.0653 5.26284 19.9187 5.292C19.5526 5.36533 19.2304 5.62906 19.0254 6.02445C18.7762 6.49317 18.7177 7.12334 18.8787 7.50393C18.9375 7.62121 19.0106 7.76766 19.0985 7.89953C18.3221 8.36825 17.8828 8.50011 17.8242 8.51469C19.8455 9.18882 21.5302 10.595 22.5849 12.4261L22.5997 12.2503C22.6435 11.7668 22.7899 11.2101 22.9949 10.6389C23.2001 10.6975 23.4053 10.7268 23.6103 10.7268C24.1523 10.7268 24.621 10.5071 24.9141 10.1115C25.207 9.71607 25.3241 9.18861 25.1925 8.74905H25.1922Z" fill="#5E12A0"/>
<path d="M23.0832 10.2169C24.4162 10.5831 24.9583 9.5578 24.7822 8.86931C24.592 8.18082 23.9767 7.47774 22.8928 6.68676C21.8087 5.89556 20.71 5.57329 20.0069 5.71995C19.3039 5.8664 19.0987 6.93569 19.2745 7.34587C19.3476 7.50711 19.5088 7.74147 19.7286 8.00521C19.4503 8.1954 19.1866 8.34206 18.9668 8.47371C20.3146 9.0745 21.4864 10.0119 22.3653 11.1839C22.4678 10.7883 22.6145 10.4367 22.7461 10.1292C22.8488 10.1438 22.9659 10.173 23.0832 10.2169Z" fill="url(#paint1_radial_651_7014)"/>
<path d="M15.4505 24.5705C19.9729 24.5705 23.6391 20.9043 23.6391 16.3817C23.6391 11.8594 19.9729 8.19336 15.4503 8.19336C10.928 8.19336 7.26172 11.8594 7.26172 16.382C7.26172 20.9043 10.9282 24.5705 15.4505 24.5705Z" fill="url(#paint2_radial_651_7014)"/>
<path opacity="0.6" d="M24.1075 8.19495C22.9942 7.02316 22.0568 6.71568 20.9289 6.46632C20.0498 6.26133 20.2844 5.76345 21.3537 5.86595C20.841 5.69013 20.3575 5.64617 20.0059 5.7195C19.3028 5.86595 19.0978 6.93525 19.2736 7.34543C19.3468 7.50667 19.508 7.74102 19.7276 8.00476C19.3322 8.26828 18.9951 8.45868 18.7168 8.60513C18.8487 8.66388 19.0099 8.73699 19.2003 8.8397C19.6984 9.10322 20.2404 9.54277 20.2404 9.54277C19.4201 8.83949 19.5959 8.51743 20.7237 7.72623C21.0754 7.47729 21.7199 7.50645 22.3205 7.81414C22.9211 8.12183 23.6244 8.89823 23.6244 8.89823L22.9503 10.1873L23.0821 10.2313C23.5069 10.3483 23.8439 10.3192 24.1077 10.2165C24.4151 10.0263 25.2209 9.38174 24.1077 8.19495H24.1075Z" fill="#A98698"/>
<path d="M20.9143 7.16975C21.2072 7.28683 21.588 7.49181 22.0568 7.7995C22.6134 8.16572 23.0969 8.5759 23.4044 8.89817C22.8917 9.57208 22.5548 10.4947 22.3499 11.1395C22.4524 11.2859 22.5696 11.4324 22.6719 11.579C22.7746 11.2126 22.9502 10.6705 23.1848 10.1287C23.2433 10.1433 23.3165 10.1433 23.3898 10.1433C23.5656 10.1433 23.7706 10.1139 23.9318 9.98205C24.0489 9.89414 24.1808 9.73311 24.1662 9.44022C24.1662 9.16169 23.9464 8.81026 23.4923 8.3855C23.17 8.07781 22.7307 7.74096 22.2911 7.43327C21.0314 6.59833 20.1525 6.36397 19.7569 6.75936C19.4932 7.02309 19.5223 7.34536 19.6105 7.57972C19.1418 7.88741 18.7462 8.10719 18.4824 8.25363C18.6582 8.31217 18.8195 8.3855 18.9951 8.45862C19.464 8.20968 20.1377 7.78492 20.9141 7.16954L20.9143 7.16975ZM23.6827 9.2644C23.7266 9.33751 23.7414 9.41084 23.7414 9.45459C23.7414 9.58666 23.6975 9.63062 23.6681 9.65978C23.6096 9.70374 23.4923 9.73311 23.3898 9.73311C23.4777 9.55729 23.5802 9.41084 23.6827 9.2644ZM20.0648 7.08163C20.1088 7.03768 20.2258 7.00851 20.4162 7.03768C20.2698 7.15496 20.1234 7.25745 19.9767 7.35994C19.9621 7.25745 19.9767 7.15496 20.0648 7.08163Z" fill="#5E12A0"/>
<path d="M15.4492 7.71094C10.6592 7.71094 6.77734 11.593 6.77734 16.383C6.77734 21.1731 10.6594 25.0549 15.4492 25.0549C20.2395 25.0549 24.1213 21.1731 24.1213 16.383C24.1213 11.593 20.2247 7.71094 15.4492 7.71094ZM15.4492 24.5716C10.9229 24.5716 7.26064 20.9094 7.26064 16.3828C7.26064 11.8565 10.9229 8.19445 15.4494 8.19445C19.9758 8.19445 23.638 11.8567 23.638 16.383C23.638 20.9096 19.961 24.5716 15.4492 24.5716Z" fill="#5E12A0"/>
<path opacity="0.6" d="M15.4505 24.5705C19.9729 24.5705 23.6393 20.9043 23.6393 16.3817C23.6393 11.8594 19.9729 8.19336 15.4505 8.19336C10.9282 8.19336 7.26172 11.8594 7.26172 16.3817C7.26172 20.9041 10.9282 24.5703 15.4505 24.5703V24.5705Z" fill="url(#paint3_linear_651_7014)"/>
<path opacity="0.6" d="M15.3923 23.5744C10.9245 22.8567 7.89222 18.6527 8.62467 14.1846C8.94694 12.2071 9.94291 10.5224 11.3493 9.30664C9.29858 10.4932 7.77494 12.5587 7.36497 15.0779C6.6471 19.5461 9.67939 23.7502 14.1326 24.4681C16.6229 24.878 19.0252 24.1019 20.7978 22.5784C19.2304 23.4865 17.3259 23.8821 15.3923 23.5744Z" fill="#A98698"/>
<path opacity="0.6" d="M16.754 8.31101C14.6885 7.97416 12.6818 8.44288 11.041 9.48301L10.9823 9.54155C11.6122 9.16074 12.5351 8.82368 12.5351 8.82368C10.1619 10.2007 9.42969 11.7681 9.42969 11.7681C10.3525 9.98089 13.0623 8.72119 15.1866 8.63328C17.3106 8.54537 18.7022 9.17532 20.4014 10.5377C22.1007 11.9145 23.1262 14.7272 23.0237 16.9537C22.9358 19.1805 21.7638 20.9822 21.7638 20.9822C22.5696 19.9421 23.0529 19.1805 23.3606 18.4041C23.4191 18.1695 23.4777 17.9353 23.507 17.6862C24.2395 13.233 21.2218 9.02888 16.754 8.31101Z" fill="url(#paint4_linear_651_7014)"/>
<path d="M23.2298 16.3086C23.2298 20.6006 19.7434 24.0872 15.4512 24.0872C11.1592 24.0872 7.6582 20.6008 7.6582 16.3086H23.2298Z" fill="url(#paint5_linear_651_7014)"/>
<path opacity="0.6" d="M22.6133 16.3086C22.6133 20.4981 19.3027 23.926 15.1426 24.0872H15.4501C19.742 24.0872 23.2287 20.6008 23.2287 16.3086H22.6133Z" fill="url(#paint6_linear_651_7014)"/>
<path opacity="0.7" d="M8.75513 16.3086H7.65625C7.65625 20.6006 11.1427 24.0872 15.4349 24.0872C15.6253 24.0872 15.8011 24.0872 15.9769 24.0724C11.9485 23.7795 8.75513 20.4102 8.75513 16.3086Z" fill="url(#paint7_linear_651_7014)"/>
<path d="M23.2152 16.3815C23.2152 15.488 21.6624 14.9754 19.597 14.7995C18.1029 14.6825 16.594 14.8289 14.8654 15.3562C13.3713 15.7957 12.0235 15.7224 11.0421 15.6053C8.85958 15.3562 7.6582 15.327 7.6582 16.3815C7.6582 17.9049 10.7638 19.8092 15.4222 19.1498C17.7806 18.8132 18.9964 18.1247 20.3881 17.6558C21.897 17.1579 23.2152 17.1725 23.2152 16.3815Z" fill="url(#paint8_linear_651_7014)"/>
<path d="M18.0001 12.6896C18.7283 12.6896 19.3185 12.0994 19.3185 11.3714C19.3185 10.6432 18.7283 10.0527 18.0001 10.0527C17.2721 10.0527 16.6816 10.6432 16.6816 11.3714C16.6816 12.0994 17.2721 12.6896 18.0003 12.6896H18.0001ZM20.1535 13.6712C20.461 13.6712 20.7101 13.4219 20.7101 13.1146C20.7101 12.8071 20.4607 12.5578 20.1535 12.5578C19.846 12.5578 19.5969 12.8071 19.5969 13.1146C19.5969 13.4219 19.8462 13.6712 20.1535 13.6712Z" fill="white"/>
<path opacity="0.6" d="M22.1457 10.3168H22.1165C22.0286 10.302 21.9701 10.2143 21.9846 10.1119C22.1165 9.43773 22.6731 8.7932 22.7025 8.76403C22.7611 8.6907 22.8783 8.6907 22.9369 8.74924C23.01 8.80799 23.01 8.92506 22.9517 8.98381C22.9369 8.9986 22.4242 9.59897 22.3069 10.185C22.2921 10.2729 22.219 10.3168 22.1457 10.3168Z" fill="url(#paint9_linear_651_7014)"/>
<path d="M20.3724 5.24894C21.1927 5.24894 22.2035 5.64454 23.1409 6.33303C24.3275 7.19735 24.9866 7.95896 25.1918 8.75016C25.3089 9.20429 25.2066 9.71696 24.9135 10.0978C24.6058 10.4934 24.1517 10.7129 23.6096 10.7129C23.4194 10.7129 23.2142 10.6838 22.9945 10.625C22.8626 10.9621 22.7599 11.2991 22.6868 11.6212C23.5805 12.9836 24.1077 14.6241 24.1077 16.3821C24.1077 21.1722 20.2257 25.054 15.4358 25.054C10.6455 25.054 6.77831 21.1722 6.77831 16.3821C6.77831 11.592 10.6603 7.71002 15.4504 7.71002C16.5049 7.71002 17.5159 7.90042 18.4533 8.25206C18.6292 8.16415 18.8489 8.04708 19.0979 7.90042C19.01 7.76856 18.922 7.63669 18.8781 7.50503C18.7171 7.10944 18.7756 6.49427 19.0247 6.02534C19.2297 5.64454 19.5374 5.38081 19.9182 5.2929C20.0501 5.26373 20.2111 5.24894 20.3724 5.24894ZM20.3724 5C20.1965 5 20.0207 5.01479 19.8597 5.05854C19.4201 5.16124 19.0393 5.45414 18.7904 5.92285C18.5121 6.4649 18.4387 7.16797 18.6292 7.62211C18.6585 7.68064 18.6877 7.75397 18.7316 7.82709C18.6292 7.88584 18.5267 7.94438 18.424 7.98833C17.4571 7.65148 16.4612 7.47566 15.4358 7.47566C14.2345 7.47566 13.0627 7.71002 11.9638 8.17874C10.8945 8.63308 9.94247 9.27762 9.12211 10.0978C8.30175 10.9181 7.65721 11.8701 7.20329 12.9397C6.73415 14.0383 6.5 15.2101 6.5 16.4113C6.5 17.6124 6.73457 18.7845 7.20307 19.8831C7.65742 20.9524 8.30196 21.9046 9.12211 22.725C9.94247 23.5454 10.8947 24.1899 11.964 24.6438C13.0627 25.1128 14.2345 25.3471 15.4356 25.3471C16.637 25.3471 17.8088 25.1125 18.9077 24.644C19.977 24.1897 20.929 23.5452 21.7493 22.725C22.5697 21.9046 23.2142 20.9524 23.6682 19.8831C24.1371 18.7845 24.3715 17.6127 24.3715 16.4113C24.3715 14.6974 23.8879 13.0421 22.9651 11.6066C23.0091 11.3868 23.0824 11.1671 23.1555 10.9473C23.3022 10.9769 23.4632 10.9912 23.6098 10.9912C24.2248 10.9912 24.7671 10.7423 25.1187 10.2736C25.4555 9.83404 25.5872 9.21887 25.4408 8.7062C25.2064 7.85668 24.5327 7.0509 23.2874 6.15721C22.306 5.41018 21.2367 5 20.3724 5Z" fill="white"/>
<path opacity="0.2" d="M14.9084 22.4922C15.1348 22.4922 15.3184 22.3084 15.3184 22.0821C15.3184 21.8555 15.1348 21.6719 14.9084 21.6719C14.6817 21.6719 14.498 21.8555 14.498 22.0818C14.498 22.3086 14.6819 22.4922 14.9082 22.4922H14.9084Z" fill="white"/>
<g opacity="0.4">
<path opacity="0.6" d="M14.6756 22.3429C14.5143 22.1817 14.5143 21.9182 14.6756 21.7569C14.7049 21.7275 14.7341 21.713 14.7635 21.6836C14.7049 21.6984 14.661 21.7275 14.617 21.7715C14.4558 21.9327 14.4558 22.1963 14.617 22.3575C14.7489 22.4894 14.9539 22.5185 15.1151 22.4308C14.9685 22.4894 14.7926 22.46 14.6756 22.3429Z" fill="url(#paint10_linear_651_7014)"/>
</g>
<path opacity="0.3" d="M15.0547 21.9629C15.1033 21.9629 15.1426 21.9236 15.1426 21.875C15.1426 21.8264 15.1033 21.7871 15.0547 21.7871C15.0061 21.7871 14.9668 21.8266 14.9668 21.875C14.9668 21.9236 15.0063 21.9629 15.0547 21.9629Z" fill="white"/>
<path opacity="0.2" d="M17.0469 22.2852C17.2734 22.2852 17.4569 22.1016 17.4569 21.8752C17.4569 21.6485 17.2734 21.4648 17.0469 21.4648C16.8204 21.4648 16.6367 21.6487 16.6367 21.875C16.6367 22.1016 16.8206 22.2852 17.0469 22.2852Z" fill="white"/>
<g opacity="0.4">
<path opacity="0.6" d="M16.8123 22.1396C16.6511 21.9786 16.6511 21.7148 16.8123 21.5536C16.8415 21.5244 16.8709 21.5096 16.9002 21.4805C16.8415 21.4951 16.7975 21.5244 16.7536 21.5684C16.5926 21.7294 16.5926 21.9931 16.7536 22.1542C16.8855 22.286 17.0906 22.3154 17.2517 22.2275C17.1052 22.286 16.9294 22.2567 16.8121 22.1396H16.8123Z" fill="url(#paint11_linear_651_7014)"/>
</g>
<path opacity="0.3" d="M17.1932 21.7576C17.2418 21.7576 17.2811 21.7185 17.2811 21.6699C17.2811 21.6213 17.2418 21.582 17.1932 21.582C17.1446 21.582 17.1055 21.6213 17.1055 21.6699C17.1055 21.7185 17.1448 21.7576 17.1932 21.7576Z" fill="white"/>
<path opacity="0.2" d="M15.9913 23.2363C16.1612 23.2363 16.299 23.0985 16.299 22.9286C16.299 22.7587 16.1612 22.6211 15.9913 22.6211C15.8214 22.6211 15.6836 22.7587 15.6836 22.9286C15.6836 23.0985 15.8214 23.2363 15.9913 23.2363Z" fill="white"/>
<g opacity="0.4">
<path opacity="0.6" d="M15.8154 23.1202C15.6983 23.0029 15.6983 22.798 15.8154 22.6807C15.8301 22.6659 15.8593 22.6513 15.8741 22.6367C15.8301 22.6515 15.8008 22.6807 15.7714 22.71C15.6543 22.8271 15.6543 23.0323 15.7714 23.1496C15.8741 23.2521 16.0205 23.2667 16.1524 23.1933C16.0351 23.2373 15.9033 23.2081 15.8154 23.1202Z" fill="url(#paint12_linear_651_7014)"/>
</g>
<path opacity="0.3" d="M16.0937 22.8282C16.126 22.8282 16.1522 22.802 16.1522 22.7697C16.1522 22.7374 16.126 22.7109 16.0937 22.7109C16.0614 22.7109 16.0352 22.7374 16.0352 22.7697C16.0352 22.802 16.0614 22.8282 16.0937 22.8282Z" fill="white"/>
<path opacity="0.2" d="M17.8836 23.0175C18.0536 23.0175 18.1913 22.8799 18.1913 22.7098C18.1913 22.5401 18.0536 22.4023 17.8836 22.4023C17.7137 22.4023 17.5762 22.5401 17.5762 22.71C17.5762 22.8797 17.7137 23.0175 17.8836 23.0175Z" fill="white"/>
<g opacity="0.4">
<path opacity="0.6" d="M17.7079 22.9015C17.5909 22.7842 17.5909 22.5792 17.7079 22.4619C17.7227 22.4471 17.7519 22.4328 17.7665 22.418C17.7225 22.4328 17.6934 22.4619 17.664 22.4913C17.5469 22.6084 17.5469 22.8136 17.664 22.9309C17.7665 23.0333 17.9131 23.0479 18.0448 22.9746C17.9277 23.0186 17.7958 22.9894 17.7079 22.9015Z" fill="url(#paint13_linear_651_7014)"/>
</g>
<path opacity="0.3" d="M17.9843 22.6093C18.0167 22.6093 18.0431 22.5831 18.0431 22.5507C18.0431 22.5184 18.0167 22.4922 17.9843 22.4922C17.952 22.4922 17.9258 22.5184 17.9258 22.5507C17.9258 22.5831 17.952 22.6093 17.9843 22.6093Z" fill="white"/>
<path opacity="0.2" d="M13.1659 22.3437C13.538 22.3437 13.8398 22.0421 13.8398 21.67C13.8398 21.2979 13.538 20.9961 13.1659 20.9961C12.794 20.9961 12.4922 21.2979 12.4922 21.67C12.4922 22.0419 12.7937 22.3437 13.1659 22.3437Z" fill="white"/>
<g opacity="0.4">
<path opacity="0.6" d="M12.7836 22.0957C12.5201 21.832 12.5201 21.4072 12.7836 21.1435C12.8276 21.0996 12.8715 21.0704 12.9303 21.041C12.8423 21.0704 12.769 21.1289 12.6957 21.1875C12.4322 21.4512 12.4322 21.876 12.6957 22.1397C12.9155 22.3595 13.2523 22.4034 13.516 22.2422C13.2671 22.3447 12.974 22.3009 12.7836 22.0957Z" fill="url(#paint14_linear_651_7014)"/>
</g>
<path opacity="0.3" d="M13.3984 21.4648C13.4793 21.4648 13.5448 21.3993 13.5448 21.3183C13.5448 21.2374 13.4793 21.1719 13.3984 21.1719C13.3175 21.1719 13.252 21.2374 13.252 21.3183C13.252 21.3993 13.3175 21.4648 13.3984 21.4648Z" fill="white"/>
<path opacity="0.2" d="M19.1856 20.6894C19.5578 20.6894 19.8595 20.3879 19.8595 20.0157C19.8595 19.6436 19.5578 19.3418 19.1854 19.3418C18.8135 19.3418 18.5117 19.6436 18.5117 20.0157C18.5117 20.3876 18.8135 20.6894 19.1856 20.6894Z" fill="white"/>
<g opacity="0.4">
<path opacity="0.6" d="M18.7896 20.4395C18.5259 20.1758 18.5259 19.751 18.7896 19.4873C18.8336 19.4433 18.8775 19.4141 18.9361 19.3848C18.8482 19.4141 18.775 19.4727 18.7017 19.5312C18.438 19.7949 18.438 20.2197 18.7017 20.4834C18.9215 20.7032 19.2583 20.7472 19.5221 20.5859C19.2731 20.6884 18.9946 20.6447 18.7896 20.4395Z" fill="url(#paint15_linear_651_7014)"/>
</g>
<path opacity="0.3" d="M19.4218 19.8105C19.5028 19.8105 19.5683 19.745 19.5683 19.664C19.5683 19.5831 19.5028 19.5176 19.4218 19.5176C19.3409 19.5176 19.2754 19.5831 19.2754 19.664C19.2754 19.745 19.3409 19.8105 19.4218 19.8105Z" fill="white"/>
<defs>
<linearGradient id="paint0_linear_651_7014" x1="16" y1="0" x2="16" y2="32" gradientUnits="userSpaceOnUse">
<stop stop-color="#5E12A0"/>
<stop offset="1" stop-color="#0C0053"/>
</linearGradient>
<radialGradient id="paint1_radial_651_7014" cx="0" cy="0" r="1" gradientUnits="userSpaceOnUse" gradientTransform="translate(24.5151 7.94646) scale(6.54716)">
<stop stop-color="#FFEAFF" stop-opacity="0.6"/>
<stop offset="0.681" stop-color="#A087C9"/>
<stop offset="1" stop-color="#10002F"/>
</radialGradient>
<radialGradient id="paint2_radial_651_7014" cx="0" cy="0" r="1" gradientUnits="userSpaceOnUse" gradientTransform="translate(20.872 10.7364) scale(16.0185 16.0185)">
<stop stop-color="#FFEAFF" stop-opacity="0.6"/>
<stop offset="0.681" stop-color="#A087C9"/>
<stop offset="1" stop-color="#10002F"/>
</radialGradient>
<linearGradient id="paint3_linear_651_7014" x1="14.1369" y1="24.4543" x2="16.7561" y2="8.29585" gradientUnits="userSpaceOnUse">
<stop stop-color="#81FFFF"/>
<stop offset="0.62" stop-color="white" stop-opacity="0"/>
</linearGradient>
<linearGradient id="paint4_linear_651_7014" x1="21.2211" y1="10.8213" x2="14.4499" y2="17.034" gradientUnits="userSpaceOnUse">
<stop offset="0.289" stop-color="white"/>
<stop offset="0.78" stop-color="white" stop-opacity="0"/>
</linearGradient>
<linearGradient id="paint5_linear_651_7014" x1="7.66475" y1="20.1934" x2="23.226" y2="20.1934" gradientUnits="userSpaceOnUse">
<stop stop-color="#0002E9"/>
<stop offset="0.995" stop-color="#FF00C7"/>
</linearGradient>
<linearGradient id="paint6_linear_651_7014" x1="23.9616" y1="16.9912" x2="15.4915" y2="24.9957" gradientUnits="userSpaceOnUse">
<stop offset="0.289" stop-color="white"/>
<stop offset="0.78" stop-color="white" stop-opacity="0"/>
</linearGradient>
<linearGradient id="paint7_linear_651_7014" x1="7.66301" y1="20.1934" x2="15.9881" y2="20.1934" gradientUnits="userSpaceOnUse">
<stop stop-color="#000292"/>
<stop offset="0.995" stop-color="#7D00C7"/>
</linearGradient>
<linearGradient id="paint8_linear_651_7014" x1="7.67532" y1="17.0279" x2="23.2157" y2="17.0279" gradientUnits="userSpaceOnUse">
<stop stop-color="#000292"/>
<stop offset="0.995" stop-color="#BE00C7"/>
</linearGradient>
<linearGradient id="paint9_linear_651_7014" x1="22.9605" y1="8.69261" x2="21.8437" y2="10.5077" gradientUnits="userSpaceOnUse">
<stop offset="0.289" stop-color="white"/>
<stop offset="0.78" stop-color="white" stop-opacity="0"/>
</linearGradient>
<linearGradient id="paint10_linear_651_7014" x1="14.4957" y1="22.0917" x2="15.1155" y2="22.0917" gradientUnits="userSpaceOnUse">
<stop offset="0.289" stop-color="white"/>
<stop offset="0.78" stop-color="white" stop-opacity="0"/>
</linearGradient>
<linearGradient id="paint11_linear_651_7014" x1="16.6308" y1="21.8858" x2="17.2506" y2="21.8858" gradientUnits="userSpaceOnUse">
<stop offset="0.289" stop-color="white"/>
<stop offset="0.78" stop-color="white" stop-opacity="0"/>
</linearGradient>
<linearGradient id="paint12_linear_651_7014" x1="15.6818" y1="22.9332" x2="16.1469" y2="22.9332" gradientUnits="userSpaceOnUse">
<stop offset="0.289" stop-color="white"/>
<stop offset="0.78" stop-color="white" stop-opacity="0"/>
</linearGradient>
<linearGradient id="paint13_linear_651_7014" x1="17.5678" y1="22.7138" x2="18.0332" y2="22.7138" gradientUnits="userSpaceOnUse">
<stop offset="0.289" stop-color="white"/>
<stop offset="0.78" stop-color="white" stop-opacity="0"/>
</linearGradient>
<linearGradient id="paint14_linear_651_7014" x1="12.4913" y1="21.6881" x2="13.5034" y2="21.6881" gradientUnits="userSpaceOnUse">
<stop offset="0.289" stop-color="white"/>
<stop offset="0.78" stop-color="white" stop-opacity="0"/>
</linearGradient>
<linearGradient id="paint15_linear_651_7014" x1="18.5028" y1="20.0314" x2="19.5151" y2="20.0314" gradientUnits="userSpaceOnUse">
<stop offset="0.289" stop-color="white"/>
<stop offset="0.78" stop-color="white" stop-opacity="0"/>
</linearGradient>
</defs>
</svg>
