<svg width="32" height="32" viewBox="0 0 32 32" fill="none" xmlns="http://www.w3.org/2000/svg">
<g clip-path="url(#clip0_613_658)">
<path d="M31.75 16C31.75 24.698 24.698 31.75 16 31.75C7.302 31.75 0.25 24.698 0.25 16C0.25 7.302 7.302 0.25 16 0.25C24.698 0.25 31.75 7.302 31.75 16Z" fill="url(#paint0_linear_613_658)" stroke="white" stroke-width="0.5"/>
<path d="M28 16C28 22.627 22.627 28 16 28C9.373 28 4 22.627 4 16C4 9.373 9.373 4 16 4C22.627 4 28 9.373 28 16Z" fill="white"/>
<path d="M28 16C28 22.627 22.627 28 16 28C9.373 28 4 22.627 4 16C4 9.373 9.373 4 16 4C22.627 4 28 9.373 28 16Z" fill="white"/>
<path fill-rule="evenodd" clip-rule="evenodd" d="M16 27.368C22.279 27.368 27.368 22.278 27.368 16C27.368 9.721 22.278 4.632 16 4.632C9.721 4.632 4.632 9.722 4.632 16C4.632 22.279 9.722 27.368 16 27.368V27.368ZM16 28C22.627 28 28 22.627 28 16C28 9.373 22.627 4 16 4C9.373 4 4 9.373 4 16C4 22.627 9.373 28 16 28Z" fill="black"/>
<path d="M26.1045 15.9995C26.1045 21.5795 21.5805 26.1045 15.9995 26.1045C10.4185 26.1045 5.89453 21.5805 5.89453 15.9995C5.89453 10.4185 10.4185 5.89453 15.9995 5.89453C21.5795 5.89453 26.1045 10.4185 26.1045 15.9995Z" fill="black"/>
<path d="M16.0002 7.4707C13.7387 7.47057 11.5697 8.36882 9.97051 9.96785C8.37129 11.5669 7.47279 13.7357 7.47266 15.9972C7.47252 18.2587 8.37077 20.4276 9.9698 22.0268C11.5688 23.6261 13.7377 24.5246 15.9992 24.5247C18.2605 24.5247 20.4293 23.6264 22.0283 22.0273C23.6273 20.4283 24.5257 18.2596 24.5257 15.9982C24.5257 13.7368 23.6273 11.5681 22.0283 9.96906C20.4293 8.37003 18.2605 7.4717 15.9992 7.4717M13.5472 14.9717L12.2372 16.2797H13.5472V17.6967C13.536 18.1764 13.3376 18.6326 12.9944 18.9679C12.6512 19.3031 12.1904 19.4908 11.7107 19.4908C11.2309 19.4908 10.7701 19.3031 10.4269 18.9679C10.0838 18.6326 9.88535 18.1764 9.87416 17.6967V14.2967C9.87416 13.8096 10.0676 13.3425 10.4121 12.9981C10.7565 12.6537 11.2236 12.4602 11.7107 12.4602C12.1977 12.4602 12.6648 12.6537 13.0093 12.9981C13.3537 13.3425 13.5472 13.8096 13.5472 14.2967V14.9707V14.9717ZM22.1242 16.2797V17.6967C22.1242 18.1838 21.9307 18.6509 21.5863 18.9953C21.2418 19.3397 20.7747 19.5332 20.2877 19.5332C19.8006 19.5332 19.3335 19.3397 18.9891 18.9953C18.6446 18.6509 18.4512 18.1838 18.4512 17.6967V14.2967C18.4623 13.8171 18.6608 13.3608 19.0039 13.0255C19.3471 12.6903 19.8079 12.5026 20.2877 12.5026C20.7674 12.5026 21.2282 12.6903 21.5714 13.0255C21.9146 13.3608 22.113 13.8171 22.1242 14.2967V14.9707L20.8142 16.2807H22.1242V16.2797Z" fill="white"/>
</g>
<defs>
<linearGradient id="paint0_linear_613_658" x1="16" y1="0" x2="16" y2="32" gradientUnits="userSpaceOnUse">
<stop stop-color="#EDEDED"/>
<stop offset="1" stop-color="#E5E5E5"/>
</linearGradient>
<clipPath id="clip0_613_658">
<rect width="32" height="32" fill="white"/>
</clipPath>
</defs>
</svg>
