<svg width="64" height="64" viewBox="0 0 64 64" fill="none" xmlns="http://www.w3.org/2000/svg">
<circle cx="32" cy="32" r="32" fill="url(#paint0_linear_3604_2217)"/>
<path d="M51.8387 30.9509L48.7419 25.594C48.7419 25.594 48.7015 25.5333 48.6812 25.5063H48.6205L48.4114 25.142C47.8379 24.4741 47.0013 24.076 46.1107 24.076H22.6254L25.0069 19.9537H45.4158L41.9008 13.8615H23.2528C22.1666 13.8615 21.1613 14.4417 20.6216 15.3795L12.1679 30.0131C11.6214 30.9577 11.6214 32.1114 12.1679 33.0559L15.2647 38.4128C15.8112 39.3573 16.8097 39.9308 17.8959 39.9308H41.3745L38.9929 44.0531H18.4424L21.9574 50.1386H40.7538C41.84 50.1386 42.8453 49.5584 43.385 48.6206L51.8319 33.9869C52.3784 33.0424 52.3784 31.8887 51.8319 30.9442L51.8387 30.9509ZM44.8963 33.852H19.6568L18.3209 31.5379L19.1171 30.1548H44.3498L45.6857 32.4689L44.8896 33.852H44.8963Z" fill="white"/>
<defs>
<linearGradient id="paint0_linear_3604_2217" x1="12.2553" y1="7.14894" x2="54.8085" y2="51.4043" gradientUnits="userSpaceOnUse">
<stop stop-color="#70A0FF"/>
<stop offset="0.322917" stop-color="#286DF8"/>
<stop offset="1" stop-color="#02098A"/>
</linearGradient>
</defs>
</svg>
