<svg width="200" height="200" viewBox="0 0 200 200" fill="none" xmlns="http://www.w3.org/2000/svg">
<path d="M100 200C126.522 200 151.957 189.464 170.711 170.711C189.464 151.957 200 126.522 200 100C200 73.4783 189.464 48.043 170.711 29.2893C151.957 10.5357 126.522 0 100 0C73.4783 0 48.043 10.5357 29.2893 29.2893C10.5357 48.043 0 73.4783 0 100C0 126.522 10.5357 151.957 29.2893 170.711C48.043 189.464 73.4783 200 100 200Z" fill="url(#paint0_linear_1660_2130)"/>
<g clip-path="url(#clip0_1660_2130)">
<path d="M94.0831 83.1162C89.9498 83.1162 85.9859 84.7581 83.0632 87.6808C80.1406 90.6034 78.4987 94.5674 78.4987 98.7006C78.4987 102.834 80.1406 106.798 83.0632 109.72C85.9859 112.643 89.9498 114.285 94.0831 114.285C98.2163 114.285 102.18 112.643 105.103 109.72C108.026 106.798 109.667 102.834 109.667 98.7006C109.667 94.5674 108.026 90.6034 105.103 87.6808C102.18 84.7581 98.2163 83.1162 94.0831 83.1162Z" fill="white"/>
<path d="M94.0831 36.3633C85.8947 36.3534 77.7849 37.9614 70.2198 41.095C62.6546 44.2285 55.7831 48.8259 50 54.6231L72.0519 76.675C76.4094 72.3121 81.9631 69.3397 88.0103 68.1339C94.0576 66.9281 100.327 67.5431 106.024 69.901C111.722 72.259 116.592 76.254 120.019 81.3805C123.445 86.507 125.274 92.5347 125.274 98.701C125.274 104.867 123.445 110.895 120.019 116.021C116.592 121.148 111.722 125.143 106.024 127.501C100.327 129.859 94.0576 130.474 88.0103 129.268C81.9631 128.062 76.4094 125.09 72.0519 120.727L50 142.784C57.2491 150.032 66.1738 155.38 75.9835 158.355C85.7932 161.331 96.1853 161.841 106.239 159.84C116.293 157.84 125.699 153.392 133.623 146.888C141.547 140.385 147.745 132.028 151.668 122.558C155.591 113.087 157.118 102.795 156.113 92.5935C155.109 82.3919 151.604 72.5953 145.91 64.0716C140.215 55.5479 132.507 48.56 123.467 43.7268C114.427 38.8937 104.334 36.3646 94.0831 36.3633Z" fill="white"/>
</g>
<defs>
<linearGradient id="paint0_linear_1660_2130" x1="100" y1="0" x2="100" y2="200" gradientUnits="userSpaceOnUse">
<stop stop-color="#25D695"/>
<stop offset="1" stop-color="#047E51"/>
</linearGradient>
<clipPath id="clip0_1660_2130">
<rect width="109.091" height="124.675" fill="white" transform="translate(50 36.3633)"/>
</clipPath>
</defs>
</svg>
