<svg width="20" height="20" viewBox="0 0 20 20" fill="none" xmlns="http://www.w3.org/2000/svg">
<path d="M9.99991 19.285C15.1279 19.285 19.285 15.1279 19.285 9.99991C19.285 4.87191 15.1279 0.714844 9.99991 0.714844C4.87191 0.714844 0.714844 4.87191 0.714844 9.99991C0.714844 15.1279 4.87191 19.285 9.99991 19.285Z" fill="white"/>
<path d="M9.99934 19.9986C8.68565 20.0023 7.3843 19.7452 6.17057 19.2426C4.95684 18.7399 3.85486 18.0016 2.92841 17.0702C1.99702 16.1438 1.25863 15.042 0.755973 13.8282C0.253319 12.6145 -0.00361684 11.313 4.01675e-05 9.99934C-0.00369573 8.68564 0.253206 7.38418 0.755864 6.17044C1.25852 4.9567 1.99696 3.85488 2.92841 2.92848C3.85481 1.99702 4.95677 1.25844 6.1705 0.755777C7.38424 0.253118 8.68564 -0.00369572 9.99934 4.01809e-05C11.313 -0.00369572 12.6144 0.253118 13.8282 0.755777C15.0419 1.25844 16.1439 1.99702 17.0703 2.92848C18.0017 3.85488 18.7402 4.9567 19.2428 6.17044C19.7455 7.38418 20.0024 8.68564 19.9986 9.99934C20.0023 11.313 19.7454 12.6145 19.2427 13.8282C18.7401 15.042 18.0017 16.1438 17.0703 17.0702C16.1438 18.0016 15.0418 18.7399 13.8281 19.2426C12.6144 19.7452 11.313 20.0023 9.99934 19.9986ZM9.99934 1.42851C7.72697 1.43097 5.54838 2.33478 3.94157 3.94159C2.33476 5.5484 1.43097 7.72697 1.42851 9.99934C1.43097 12.2717 2.33476 14.4503 3.94157 16.0571C5.54838 17.6639 7.72697 18.5677 9.99934 18.5702C12.2717 18.5677 14.4503 17.6639 16.0571 16.0571C17.6639 14.4503 18.5677 12.2717 18.5702 9.99934C18.5677 7.72697 17.6639 5.5484 16.0571 3.94159C14.4503 2.33478 12.2717 1.43097 9.99934 1.42851V1.42851Z" fill="#ED6C53"/>
<path opacity="0.7" d="M9.2863 19.9742V18.5408C9.52438 18.5608 9.76246 18.5708 10.0005 18.5708C10.2386 18.5708 10.4767 18.5611 10.7148 18.5415V19.9749C10.4767 19.9916 10.2386 20 10.0005 20C9.76246 20 9.52438 19.9913 9.2863 19.9742ZM15.533 16.5411C15.8967 16.2329 16.2343 15.8951 16.5422 15.5311L17.5586 16.5474C17.4034 16.7264 17.241 16.9004 17.0715 17.0695C16.902 17.2385 16.7279 17.401 16.5494 17.5567L15.533 16.5411ZM2.93102 17.0702C2.76151 16.9007 2.59891 16.7264 2.44321 16.5474L3.45957 15.5311C3.76776 15.8951 4.10555 16.2329 4.4695 16.5411L3.45314 17.5574C3.27411 17.4021 3.09959 17.2397 2.92961 17.0702H2.93102ZM18.5421 10.7135C18.5616 10.4755 18.5714 10.2374 18.5714 9.9993C18.5714 9.76122 18.5616 9.52315 18.5421 9.28507H19.9756C19.9922 9.52315 20.0006 9.76122 20.0006 9.9993C20.0006 10.2374 19.9922 10.4755 19.9756 10.7135H18.5421ZM0.026954 10.7135C0.0102885 10.4755 0.00195312 10.2374 0.00195312 9.9993C0.00195312 9.76122 0.0102885 9.52315 0.026954 9.28507H1.46042C1.44089 9.52315 1.43114 9.76122 1.43114 9.9993C1.43114 10.2374 1.44089 10.4755 1.46042 10.7135H0.026954ZM2.44321 3.45191C2.59891 3.27287 2.76151 3.09887 2.93102 2.92983C3.10053 2.7608 3.27483 2.59811 3.45386 2.44193L4.4695 3.45749C4.10562 3.76601 3.76783 4.10406 3.45957 4.46816L2.44321 3.45191ZM15.533 3.45749L16.5487 2.44193C16.7277 2.59764 16.902 2.76032 17.0715 2.92983C17.241 3.09934 17.4034 3.27335 17.5586 3.45191L16.5422 4.46816C16.2341 4.10396 15.8963 3.76589 15.5323 3.45749H15.533ZM9.2863 0.0251099C9.52438 0.00844435 9.76246 0 10.0005 0C10.2386 0 10.4767 0.00844435 10.7148 0.0251099V1.45707C10.4791 1.43755 10.241 1.42777 10.0005 1.42777C9.76008 1.42777 9.522 1.43777 9.2863 1.45777V0.0251099Z" fill="white"/>
<path fill-rule="evenodd" clip-rule="evenodd" d="M11.7106 5.2575C12.4361 5.70893 13.1657 6.2938 13.7535 6.96103C14.9937 8.04458 15.9665 9.47739 15.7761 10.9651C15.6179 12.1781 14.5236 13.8465 11.905 14.8945C11.5112 15.0536 11.1063 15.1836 10.6934 15.2833H10.693C10.6322 15.311 10.5717 15.3385 10.5109 15.3621C9.58243 15.7305 8.67058 15.9269 7.8762 15.9269C7.17476 15.9269 6.59934 15.7699 6.2143 15.4755C5.37109 14.8319 4.9658 13.1831 5.00226 10.5726C5.03871 8.07609 5.37132 6.52941 6.0399 5.78364C6.27101 5.00636 6.60339 4.50003 7.04514 4.23696C7.95721 3.69125 9.8743 4.11139 11.7106 5.2575ZM7.61673 14.6001C7.67749 14.667 7.73825 14.7216 7.80306 14.773C8.37061 15.2046 9.40015 15.2752 10.5919 14.9966C12.1361 14.3373 13.0928 13.4619 13.6074 12.6257C13.0037 13.1831 12.1929 13.709 11.135 14.1329C10.2067 14.502 9.29483 14.6982 8.50023 14.6982C8.17617 14.6982 7.88025 14.6629 7.61673 14.6001ZM7.32486 14.1802C8.14354 14.5569 9.53787 14.443 11.0175 13.8503C12.4645 13.2695 13.4209 12.5001 13.9965 11.7386C14.0292 11.6168 14.0535 11.5029 14.0656 11.3931C14.3005 9.55975 12.5941 7.78557 10.9162 6.73735C9.74873 6.00733 8.56526 5.57953 7.66534 5.5244C7.06134 6.21143 6.74944 7.71873 6.71254 10.1097C6.68418 12.0174 6.89099 13.3795 7.32464 14.1804L7.32486 14.1802ZM14.402 11.0869C14.5641 10.7651 14.6572 10.4509 14.6939 10.1642C14.8276 9.10833 14.3168 8.06821 13.5426 7.18494C13.16 6.84974 12.7506 6.54643 12.3184 6.27805C11.0985 5.51675 9.80972 5.0615 8.86524 5.0615C8.50068 5.0615 8.20453 5.12833 7.98579 5.25773L7.97769 5.26178C8.89359 5.3833 10.0044 5.80727 11.0866 6.4826C12.7404 7.51485 14.4225 9.24223 14.4023 11.0871L14.402 11.0869ZM7.2722 5.52845C7.00058 5.54803 6.76947 5.61081 6.58719 5.72085C6.49071 5.77845 6.40213 5.84835 6.32367 5.92879C6.08851 6.74522 5.96294 7.87986 5.94269 9.34394C5.91028 11.6206 6.21025 13.1241 6.83428 13.819C6.52238 12.9515 6.37633 11.7111 6.40063 10.1055C6.43304 7.82472 6.71276 6.33723 7.2722 5.52845ZM7.52739 5.22622C7.61538 5.13908 7.71335 5.06264 7.81927 4.99849C8.55289 4.55494 9.95149 4.74735 11.4349 5.44609C10.2474 4.72372 9.00679 4.29592 8.09494 4.29592C7.73015 4.29592 7.43423 4.36253 7.21549 4.49621C6.93172 4.66498 6.69251 4.97103 6.50595 5.41841C6.77757 5.28113 7.12615 5.21812 7.52762 5.22622H7.52739ZM6.84238 14.243C5.99939 13.5992 5.59005 11.9505 5.63056 9.34012C5.64271 8.34298 5.70752 7.49504 5.82094 6.78843C5.50904 7.62061 5.34274 8.87294 5.31843 10.5726C5.28198 13.0847 5.64676 14.651 6.40874 15.2361C6.97223 15.6639 7.9975 15.7386 9.18524 15.4598C8.52453 15.444 7.98129 15.291 7.61268 15.0083C7.41803 14.8591 7.2479 14.6591 7.10185 14.4077C7.00868 14.3569 6.92362 14.302 6.84238 14.243ZM15.002 10.2036C14.937 10.7061 14.7139 11.2871 14.2843 11.868C14.0575 12.6569 13.4535 13.5715 12.3468 14.3686C14.4304 13.3717 15.3263 11.9661 15.4599 10.93C15.5693 10.0938 15.2693 9.26541 14.7506 8.51559C14.9734 9.05747 15.0747 9.62659 15.002 10.2036Z" fill="#ED6C53"/>
</svg>
