<svg width="32" height="32" viewBox="0 0 32 32" fill="none" xmlns="http://www.w3.org/2000/svg">
<g clip-path="url(#clip0_1378_29043)">
<path d="M16 32C24.8366 32 32 24.8366 32 16C32 7.16344 24.8366 0 16 0C7.16344 0 0 7.16344 0 16C0 24.8366 7.16344 32 16 32Z" fill="url(#paint0_linear_1378_29043)"/>
<path d="M16 31.75C24.6985 31.75 31.75 24.6985 31.75 16C31.75 7.30152 24.6985 0.25 16 0.25C7.30152 0.25 0.25 7.30152 0.25 16C0.25 24.6985 7.30152 31.75 16 31.75Z" stroke="white" stroke-width="0.5"/>
<path fill-rule="evenodd" clip-rule="evenodd" d="M19.1496 7.70169C20.4199 8.49206 21.6972 9.51608 22.7264 10.6843C24.8977 12.5814 26.601 15.09 26.2677 17.6948C25.9907 19.8185 24.0746 22.7396 19.49 24.5745C18.8005 24.8531 18.0915 25.0807 17.3687 25.2553H17.3679C17.2615 25.3038 17.1555 25.3519 17.0492 25.3932C15.4235 26.0382 13.827 26.3822 12.4362 26.3822C11.2081 26.3822 10.2006 26.1072 9.52645 25.5918C8.05011 24.465 7.34051 21.5781 7.40434 17.0077C7.46817 12.6366 8.05051 9.9286 9.22109 8.62287C9.62573 7.26198 10.2077 6.37547 10.9811 5.91488C12.578 4.95943 15.9345 5.69503 19.1496 7.70169ZM11.9819 24.0591C12.0883 24.1762 12.1946 24.2719 12.3081 24.3617C13.3018 25.1174 15.1044 25.2412 17.191 24.7534C19.8947 23.5989 21.5696 22.0663 22.4706 20.6022C21.4135 21.5781 19.9939 22.4989 18.1417 23.2412C16.5165 23.8874 14.92 24.2309 13.5287 24.2309C12.9614 24.2309 12.4433 24.1691 11.9819 24.0591ZM11.4709 23.3239C12.9042 23.9835 15.3455 23.7841 17.9361 22.7463C20.4695 21.7294 22.144 20.3823 23.1519 19.049C23.209 18.8358 23.2516 18.6365 23.2728 18.4442C23.6842 15.2343 20.6964 12.1279 17.7588 10.2927C15.7147 9.01451 13.6426 8.26551 12.067 8.16898C11.0095 9.37187 10.4634 12.0109 10.3988 16.1972C10.3491 19.5372 10.7112 21.9221 11.4705 23.3243L11.4709 23.3239ZM23.8619 17.908C24.1456 17.3445 24.3087 16.7945 24.3729 16.2925C24.6069 14.4439 23.7125 12.6228 22.3572 11.0763C21.6872 10.4894 20.9704 9.95839 20.2138 9.4885C18.0779 8.15558 15.8214 7.35851 14.1678 7.35851C13.5295 7.35851 13.011 7.47553 12.628 7.70209L12.6139 7.70918C14.2175 7.92194 16.1623 8.66424 18.057 9.84665C20.9526 11.6539 23.8977 14.6783 23.8623 17.9084L23.8619 17.908ZM11.3787 8.17607C10.9031 8.21035 10.4985 8.32028 10.1793 8.51294C10.0104 8.61379 9.85529 8.73617 9.71793 8.877C9.3062 10.3064 9.08634 12.293 9.05088 14.8564C8.99415 18.8425 9.51935 21.4749 10.6119 22.6916C10.0658 21.1727 9.81013 19.0009 9.85268 16.1897C9.90942 12.1965 10.3992 9.59212 11.3787 8.17607ZM11.8255 7.64692C11.9795 7.49435 12.151 7.36052 12.3365 7.24819C13.6209 6.47161 16.0697 6.80848 18.6669 8.03187C16.5878 6.76711 14.4156 6.01811 12.8191 6.01811C12.1805 6.01811 11.6623 6.13474 11.2794 6.36878C10.7825 6.66428 10.3637 7.20012 10.0371 7.9834C10.5126 7.74306 11.1229 7.63274 11.8259 7.64692H11.8255ZM10.6261 23.4339C9.15017 22.3066 8.43348 19.4201 8.5044 14.8497C8.52568 13.1039 8.63915 11.6193 8.83773 10.3821C8.29164 11.8391 8.00047 14.0318 7.95792 17.0077C7.89409 21.4059 8.53277 24.1482 9.86686 25.1726C10.8534 25.9216 12.6485 26.0524 14.7281 25.5642C13.5713 25.5367 12.6202 25.2687 11.9748 24.7739C11.634 24.5126 11.3361 24.1624 11.0804 23.7223C10.9173 23.6332 10.7683 23.5371 10.6261 23.4339ZM24.9123 16.3615C24.7984 17.2413 24.408 18.2586 23.6558 19.2755C23.2587 20.6569 22.2011 22.2582 20.2634 23.6537C23.9115 21.9083 25.48 19.4473 25.7141 17.6333C25.9056 16.1692 25.3804 14.7189 24.4722 13.4061C24.8622 14.3548 25.0396 15.3513 24.9123 16.3615Z" fill="white"/>
</g>
<defs>
<linearGradient id="paint0_linear_1378_29043" x1="16" y1="0" x2="16" y2="32" gradientUnits="userSpaceOnUse">
<stop stop-color="#FF7B61"/>
<stop offset="1" stop-color="#E05A41"/>
</linearGradient>
<clipPath id="clip0_1378_29043">
<rect width="32" height="32" fill="white"/>
</clipPath>
</defs>
</svg>
