<svg width="32" height="32" viewBox="0 0 32 32" fill="none" xmlns="http://www.w3.org/2000/svg">
<g clip-path="url(#clip0_613_449)">
<path d="M16 32C24.837 32 32 24.837 32 16C32 7.163 24.837 0 16 0C7.163 0 0 7.163 0 16C0 24.837 7.163 32 16 32Z" fill="url(#paint0_linear_613_449)"/>
<path d="M16 31.75C24.698 31.75 31.75 24.698 31.75 16C31.75 7.302 24.698 0.25 16 0.25C7.302 0.25 0.25 7.302 0.25 16C0.25 24.698 7.302 31.75 16 31.75Z" stroke="white" stroke-width="0.5"/>
<path d="M15.9669 28.7581C13.3669 28.7581 13.3359 16.5581 13.3359 16.0431C13.3359 15.5281 13.3659 3.32812 15.9669 3.32812C18.5679 3.32812 18.5979 15.5281 18.5979 16.0431C18.5979 16.5581 18.5679 28.7581 15.9669 28.7581ZM15.9599 4.20512C15.3599 4.37012 14.2129 8.58212 14.2129 16.0431C14.2129 23.5041 15.3589 27.7171 15.9739 27.8811C16.5739 27.7161 17.7209 23.5041 17.7209 16.0431C17.7209 8.58312 16.5739 4.37413 15.9609 4.20913L15.9599 4.20512V4.20512Z" fill="white"/>
<path d="M25.766 22.9043C22.625 22.9043 15.029 18.5443 14.65 18.3253C12.096 16.8853 9.668 15.2313 7.39 13.3853C4.635 11.0623 4.681 10.1633 4.954 9.68934C6.254 7.43734 16.832 13.5093 17.281 13.7693C19.835 15.2093 22.263 16.8623 24.541 18.7093C27.296 21.0313 27.25 21.9303 26.977 22.4043C26.838 22.5883 26.652 22.7313 26.439 22.8193C26.227 22.9073 25.994 22.9363 25.766 22.9043ZM6.105 10.0403C5.965 10.0233 5.823 10.0563 5.705 10.1343C5.548 10.7343 8.622 13.8343 15.085 17.5663C21.548 21.2983 25.767 22.4103 26.218 21.9613C26.375 21.3613 23.301 18.2613 16.838 14.5293C11.268 11.3113 7.362 10.0403 6.105 10.0403Z" fill="white"/>
<path d="M6.16152 22.9053C5.93352 22.9373 5.70152 22.9073 5.48852 22.8203C5.27552 22.7323 5.08952 22.5883 4.95052 22.4053C4.67652 21.9313 4.63152 21.0323 7.38652 18.7103C9.66452 16.8633 12.0935 15.2103 14.6465 13.7693C15.0965 13.5093 25.6715 7.43734 26.9735 9.68934C27.2465 10.1643 27.2935 11.0633 24.5375 13.3853C22.2605 15.2323 19.8315 16.8853 17.2775 18.3253C16.8985 18.5453 9.30352 22.9053 6.16152 22.9053V22.9053ZM25.8315 10.0333C24.5915 10.0333 20.6765 11.3013 15.0855 14.5333C8.62352 18.2633 5.54952 21.3623 5.71252 21.9773C6.15652 22.4133 10.3775 21.3013 16.8385 17.5703C23.3005 13.8393 26.3765 10.7403 26.2115 10.1263C26.0995 10.0513 25.9645 10.0183 25.8315 10.0333Z" fill="white"/>
<path d="M15.9611 17.3616C16.6881 17.3616 17.2761 16.7736 17.2761 16.0466C17.2761 15.3206 16.6881 14.7316 15.9611 14.7316C15.2351 14.7316 14.6461 15.3216 14.6461 16.0466C14.6461 16.7736 15.2361 17.3616 15.9611 17.3616ZM21.7181 11.9366C22.4441 11.9366 23.0321 11.3466 23.0321 10.6216C23.0321 9.89464 22.4441 9.30664 21.7171 9.30664C20.9911 9.30664 20.4021 9.89464 20.4021 10.6216C20.4021 11.3476 20.9911 11.9366 21.7171 11.9366H21.7181ZM7.68609 14.5676C8.41209 14.5676 9.00109 13.9776 9.00109 13.2516C9.00109 12.5256 8.41209 11.9366 7.68609 11.9366C6.96009 11.9366 6.37109 12.5266 6.37109 13.2526C6.37109 13.9786 6.96009 14.5676 7.68609 14.5676V14.5676ZM14.2621 25.5276C14.9891 25.5276 15.5771 24.9396 15.5771 24.2126C15.5771 23.4866 14.9891 22.8976 14.2621 22.8976C13.5361 22.8976 12.9471 23.4876 12.9471 24.2126C12.9471 24.9396 13.5361 25.5276 14.2621 25.5276Z" fill="white"/>
</g>
<defs>
<linearGradient id="paint0_linear_613_449" x1="16" y1="0" x2="16" y2="32" gradientUnits="userSpaceOnUse">
<stop stop-color="#9C6CFF"/>
<stop offset="1" stop-color="#4E3680"/>
</linearGradient>
<clipPath id="clip0_613_449">
<rect width="32" height="32" fill="white"/>
</clipPath>
</defs>
</svg>
