<svg width="32" height="32" viewBox="0 0 32 32" fill="none" xmlns="http://www.w3.org/2000/svg">
<g clip-path="url(#clip0_3681_71934)">
<path d="M31.75 16C31.75 24.6985 24.6985 31.75 16 31.75C7.30151 31.75 0.25 24.6985 0.25 16C0.25 7.30151 7.30151 0.25 16 0.25C24.6985 0.25 31.75 7.30151 31.75 16Z" fill="url(#paint0_linear_3681_71934)" stroke="white" stroke-width="0.5"/>
<path d="M28 16C28 22.6274 22.6274 28 16 28C9.37258 28 4 22.6274 4 16C4 9.37258 9.37258 4 16 4C22.6274 4 28 9.37258 28 16Z" fill="white"/>
<path d="M28 16C28 22.6274 22.6274 28 16 28C9.37258 28 4 22.6274 4 16C4 9.37258 9.37258 4 16 4C22.6274 4 28 9.37258 28 16Z" fill="white"/>
<path fill-rule="evenodd" clip-rule="evenodd" d="M16 27.3684C22.2786 27.3684 27.3684 22.2786 27.3684 16C27.3684 9.72139 22.2786 4.63158 16 4.63158C9.72139 4.63158 4.63158 9.72139 4.63158 16C4.63158 22.2786 9.72139 27.3684 16 27.3684ZM16 28C22.6274 28 28 22.6274 28 16C28 9.37258 22.6274 4 16 4C9.37258 4 4 9.37258 4 16C4 22.6274 9.37258 28 16 28Z" fill="black"/>
<path d="M26.1051 15.9998C26.1051 21.5808 21.5808 26.1051 15.9998 26.1051C10.4188 26.1051 5.89453 21.5808 5.89453 15.9998C5.89453 10.4188 10.4188 5.89453 15.9998 5.89453C21.5808 5.89453 26.1051 10.4188 26.1051 15.9998Z" fill="black"/>
<path d="M15.9991 7.4707C14.3128 7.47067 12.6643 7.9707 11.2621 8.90757C9.85995 9.84444 8.76708 11.1761 8.12172 12.7341C7.47636 14.292 7.3075 16.0064 7.63648 17.6604C7.96547 19.3143 8.77752 20.8336 9.96996 22.026C11.1624 23.2185 12.6817 24.0305 14.3356 24.3595C15.9896 24.6885 17.7039 24.5196 19.2619 23.8743C20.8199 23.2289 22.1515 22.136 23.0884 20.7339C24.0253 19.3317 24.5253 17.6832 24.5253 15.9968C24.5252 13.7356 23.6269 11.567 22.028 9.968C20.429 8.36905 18.2604 7.47075 15.9991 7.4707ZM13.5466 14.9702L12.2375 16.2793H13.5466V17.6959C13.5466 18.1829 13.3531 18.6499 13.0088 18.9943C12.6644 19.3386 12.1974 19.5321 11.7104 19.5321C11.2234 19.5321 10.7564 19.3386 10.4121 18.9943C10.0677 18.6499 9.87429 18.1829 9.87429 17.6959V14.2966C9.87429 13.8096 10.0677 13.3426 10.4121 12.9982C10.7564 12.6539 11.2234 12.4604 11.7104 12.4604C12.1974 12.4604 12.6644 12.6539 13.0088 12.9982C13.3531 13.3426 13.5466 13.8096 13.5466 14.2966V14.9702ZM22.1238 16.2793V17.6959C22.1238 18.1829 21.9304 18.65 21.586 18.9943C21.2417 19.3387 20.7746 19.5321 20.2876 19.5321C19.8006 19.5321 19.3336 19.3387 18.9892 18.9943C18.6449 18.65 18.4514 18.1829 18.4514 17.6959V14.2966C18.4514 13.8096 18.6449 13.3425 18.9892 12.9981C19.3336 12.6538 19.8006 12.4603 20.2876 12.4603C20.7746 12.4603 21.2417 12.6538 21.586 12.9981C21.9304 13.3425 22.1238 13.8096 22.1238 14.2966V14.9702L20.8147 16.2793H22.1238Z" fill="white"/>
</g>
<defs>
<linearGradient id="paint0_linear_3681_71934" x1="16" y1="0" x2="16" y2="32" gradientUnits="userSpaceOnUse">
<stop stop-color="#EDEDED"/>
<stop offset="1" stop-color="#E5E5E5"/>
</linearGradient>
<clipPath id="clip0_3681_71934">
<rect width="32" height="32" fill="white"/>
</clipPath>
</defs>
</svg>
