<svg width="64" height="64" viewBox="0 0 64 64" fill="none" xmlns="http://www.w3.org/2000/svg">
<circle cx="32" cy="32" r="32" fill="#4C5460"/>
<path d="M20.2303 31.2126L18.3569 28.6983C18.7171 28.3815 19.0047 28.2256 19.3804 28.7555C19.8675 29.4425 20.4829 29.4113 21.0646 28.836C21.2512 28.6516 21.5932 28.6243 21.864 28.5256L21.9935 28.6906C21.9067 28.8334 21.8238 29.097 21.7344 29.0996C20.8716 29.1295 20.6436 29.7555 20.4389 30.4152C20.3676 30.658 20.3106 30.9061 20.2303 31.2126Z" fill="white"/>
<path fill-rule="evenodd" clip-rule="evenodd" d="M10.1456 29.2113C10.0482 29.2429 9.94218 29.2773 9.82331 29.3153C10.3325 29.9218 10.0086 30.1296 9.52922 30.2543C9.20168 30.3303 8.87242 30.399 8.54326 30.4677C8.11339 30.5574 7.68368 30.6471 7.25813 30.753C6.31886 30.9867 5.64517 31.5231 5.34461 32.4906C5.17878 33.0217 5.29668 33.4009 5.74105 33.7282C5.78696 33.7617 5.83454 33.7953 5.88274 33.8294C6.15827 34.0241 6.45428 34.2333 6.57667 34.5074C7.1208 35.723 8.09246 36.5424 9.07319 37.345C10.1187 38.2008 11.3313 38.3606 12.7409 38.0372L11.7265 37.1281L11.7744 36.9866H15.5082C15.4762 37.1163 15.4568 37.2627 15.4377 37.4067C15.3965 37.7181 15.3567 38.0183 15.1946 38.1151C14.8174 38.3432 14.807 38.6366 14.7966 38.9302C14.7928 39.0379 14.789 39.1456 14.7671 39.2501C14.746 39.3506 14.736 39.4532 14.7236 39.5783C14.717 39.6458 14.7097 39.7197 14.6997 39.8034L13.5545 38.7748C13.5419 39.0127 13.5244 39.2338 13.5078 39.4432C13.4732 39.8797 13.4427 40.2653 13.469 40.6462C13.5338 41.5722 13.8706 42.3682 14.8034 42.7695C15.9979 43.2825 17.2546 43.3604 18.5501 43.3825C18.9245 41.9033 19.7161 40.7215 20.7383 39.6735C21.3977 40.2579 21.5091 40.7904 21.193 41.5955C21.1347 41.7449 21.092 42.0085 21.1723 42.0903C22.2095 43.1597 23.3966 44.0718 24.6962 44.798C25.2882 42.9293 25.8518 41.1501 26.414 39.3709L26.2845 39.2281C26.2178 39.256 26.14 39.2784 26.0622 39.3009C25.8906 39.3503 25.7184 39.4 25.6613 39.5099C25.3465 40.1112 24.8516 40.2215 24.1481 40.1267C24.2343 40.3114 24.3146 40.4887 24.3923 40.6604C24.5601 41.031 24.716 41.3752 24.8931 41.7098C25.1911 42.2773 24.9462 42.6306 24.3891 43.0319C24.0082 42.3384 23.6481 41.6825 23.2918 41.0332C23.2416 40.9411 23.1989 40.8407 23.1562 40.7403C23.0676 40.5321 22.9793 40.3244 22.8254 40.193C22.2042 39.6587 21.5585 39.153 20.909 38.6444C20.6618 38.4508 20.4141 38.2568 20.1669 38.0606C18.7975 39.1709 18.0565 40.7631 17.5383 42.5475L15.9149 41.8747C15.9543 41.8382 15.9929 41.8024 16.0307 41.7673C17.7869 40.1379 17.82 40.1073 18.3273 38.2969C18.4365 37.9034 18.5005 37.4961 18.5645 37.0896C18.6447 36.5796 18.7247 36.0708 18.8934 35.5918C19.1411 34.8783 18.755 34.6424 18.342 34.39C18.3099 34.3705 18.2777 34.3508 18.2456 34.3308C17.2507 33.71 16.1313 33.5035 14.9822 33.4217C14.8951 33.412 14.8086 33.3977 14.7231 33.3789L14.8526 32.6412C14.6709 32.7224 14.4964 32.7906 14.3307 32.8554C13.9874 32.9897 13.6818 33.1091 13.4275 33.2983C12.9322 33.6754 12.4846 34.1115 12.0944 34.597C11.615 35.1788 11.1176 35.297 10.3998 35.049C8.66768 34.4477 8.36064 33.8217 9.17554 32.1568C9.3038 31.8919 9.6497 31.5828 9.91529 31.562C10.8455 31.4932 11.7964 31.44 12.7163 31.5698C13.6607 31.6984 14.5611 31.6841 15.4486 31.3685C15.6792 31.2867 15.9499 31.14 16.0678 30.9426C16.4065 30.3743 16.7169 29.7895 17.0332 29.1937C17.1514 28.9712 17.2703 28.7472 17.3919 28.5219C16.529 28.453 15.674 28.4102 14.9174 29.0322C14.4877 29.3927 14.0208 29.7061 13.5247 29.9673C13.277 30.0931 12.9996 30.1557 12.7105 30.221C12.5609 30.2548 12.4083 30.2892 12.255 30.3335C12.1579 29.7036 12.3937 29.4556 12.7966 29.2946C12.9157 29.2456 13.0368 29.1998 13.158 29.154C13.4836 29.031 13.8088 28.9081 14.0921 28.7244C14.9373 28.1513 15.9548 27.8901 16.9708 27.9855C17.1997 28.0066 17.4321 27.9866 17.6736 27.9659C17.789 27.956 17.9065 27.9459 18.0267 27.94C17.9124 27.7911 17.8044 27.6491 17.7006 27.5126C17.4287 27.1553 17.1851 26.8352 16.932 26.5232C16.8361 26.4037 16.6586 26.2271 16.5627 26.2518C16.3537 26.3038 16.1364 26.338 15.9186 26.3723C15.2998 26.4697 14.6773 26.5676 14.2307 27.0777C13.2707 28.1725 11.9998 28.6582 10.6641 29.0478C10.5024 29.0955 10.3412 29.1478 10.1456 29.2113ZM13.0259 35.2386L13.8537 36.7736L12.2797 36.2736L10.6706 37.1411L11.1487 37.5307C10.3312 37.606 9.94897 37.3879 9.65229 36.6736C9.74098 36.6581 9.83101 36.6497 9.91995 36.6414C10.0922 36.6253 10.2602 36.6097 10.4063 36.5437C10.5476 36.4809 10.6959 36.4226 10.8451 36.3639C11.3032 36.1837 11.7701 36.0002 12.0711 35.671C13.1801 34.4581 14.5235 34.3269 16.0121 34.6048C15.6161 34.625 15.2216 34.6683 14.8306 34.7347C14.4092 34.8299 13.9947 34.9532 13.5801 35.0764C13.3956 35.1313 13.2111 35.1862 13.0259 35.2386ZM14.0766 40.3137L14.3098 40.1501L14.552 40.6982C15.1402 40.5579 15.3268 40.293 15.1104 39.7605C15.0528 39.6187 15.0505 39.4544 15.048 39.2732C15.0467 39.1857 15.0455 39.0943 15.0379 38.9995C15.1661 39.1049 15.2858 39.2247 15.3992 39.3381C15.6364 39.5753 15.8459 39.7848 16.0484 39.7787C16.2966 39.7706 16.5387 39.5714 16.7967 39.359C16.913 39.2632 17.0326 39.1648 17.1574 39.08C17.1574 39.1188 17.1617 39.1568 17.1658 39.1927C17.1733 39.2591 17.1801 39.3185 17.1574 39.3631C16.6262 40.393 15.7582 41.0332 14.6959 41.4124C14.578 41.454 14.2813 41.2501 14.2061 41.0929C14.1337 40.936 14.118 40.7481 14.1025 40.5613C14.0955 40.4776 14.0886 40.3941 14.0766 40.3137ZM16.6647 36.7485C16.7359 36.6472 16.8131 36.5375 16.8892 36.4126V36.4061C16.8892 36.6753 16.8942 36.9171 16.8988 37.1409C16.9071 37.5422 16.9142 37.8858 16.8892 38.2268C16.8503 38.7579 16.5368 39.0618 16.1119 39.1359C16.1306 38.9848 16.1478 38.834 16.165 38.6838C16.2191 38.21 16.2726 37.7411 16.371 37.2827C16.4144 37.1045 16.5286 36.942 16.6647 36.7485ZM7.9453 33.3741L7.31772 32.9075C7.96298 32.9994 8.1211 32.6294 8.30364 32.2022C8.35053 32.0924 8.39902 31.9789 8.4578 31.8685C8.34355 31.9291 8.23832 31.9841 8.13981 32.0356C7.89429 32.1638 7.69049 32.2703 7.49263 32.388C7.32957 32.485 7.17905 32.5829 7.01578 32.6891C6.90145 32.7635 6.78086 32.8419 6.64534 32.9269C6.76565 32.992 6.87049 33.075 6.97238 33.1556C7.24101 33.368 7.489 33.5642 7.9453 33.3741ZM8.8063 35.7515C8.10411 35.9541 7.85538 35.7126 7.71546 34.749L7.71805 34.7425C8.36583 34.7931 8.59642 35.236 8.8063 35.7515ZM16.2467 29.0297C15.5769 29.0882 13.9665 30.257 13.6945 30.4583C13.6882 30.4614 13.683 30.4663 13.6795 30.4724C13.6761 30.4785 13.6745 30.4855 13.6751 30.4925C13.6756 30.4995 13.6783 30.5061 13.6827 30.5116C13.687 30.5171 13.6929 30.5211 13.6996 30.5232C14.0157 30.6323 14.613 30.5933 15.0172 30.5141C15.287 30.4706 15.5353 30.3402 15.7246 30.1427C15.9714 29.8232 16.1604 29.4628 16.283 29.0778C16.2852 29.0722 16.286 29.066 16.2852 29.06C16.2844 29.054 16.2821 29.0483 16.2784 29.0434C16.2748 29.0386 16.2699 29.0348 16.2644 29.0324C16.2588 29.03 16.2527 29.0291 16.2467 29.0297Z" fill="white"/>
<path fill-rule="evenodd" clip-rule="evenodd" d="M43.3182 38.2331C43.1631 38.4666 43.0109 38.6897 42.8623 38.9076C42.5978 39.2956 42.3445 39.667 42.1056 40.0512C40.63 42.4174 38.7126 44.3005 36.1267 45.3978C32.8101 46.8056 29.4572 46.7147 26.1095 45.477C25.9684 45.4247 25.8324 45.3528 25.6787 45.2715C25.6151 45.238 25.5486 45.2028 25.4773 45.1667C25.5406 44.9784 25.6063 44.7932 25.6715 44.6096L25.6715 44.6096C25.809 44.222 25.944 43.8415 26.0486 43.4537L26.2059 42.8728C26.7333 40.9244 27.2615 38.9734 27.7329 37.0149C27.8262 36.6213 27.8022 36.2002 27.7773 35.7616C27.7655 35.5548 27.7536 35.3441 27.7536 35.1306C26.9464 35.2604 26.6718 35.7292 26.5617 36.2994C26.4778 36.7223 26.4629 37.156 26.5176 37.5837C26.5967 38.1655 26.3116 38.3915 25.8206 38.4435C25.4509 38.4656 25.0803 38.4682 24.7103 38.4513C24.7302 38.58 24.7501 38.7071 24.7738 38.8584L24.7739 38.8585C24.798 39.0125 24.826 39.1915 24.8619 39.4227L23.0365 38.4097V39.1889C21.2499 38.4552 19.9078 36.2201 20.1319 34.4072C20.1546 34.2364 20.1932 34.0682 20.2472 33.9046C20.4499 33.2852 20.6557 32.6664 20.8613 32.0481C20.9803 31.6901 21.0993 31.3324 21.2176 30.9748C21.2933 30.7471 21.3684 30.5199 21.4654 30.2266L21.5946 29.8359C21.895 30.1787 22.1191 30.4362 22.3622 30.7155L22.5235 30.9008C22.6193 30.5593 22.7023 30.2632 22.8538 29.719L23.3371 30.6346L23.5353 30.5125C23.5528 30.3897 23.5713 30.2669 23.5898 30.144C23.634 29.8499 23.6782 29.5556 23.7102 29.2606C23.8022 28.2944 23.7102 28.1983 22.7515 28.2217C22.7236 28.1027 22.6956 27.9814 22.6649 27.848L22.6649 27.8479C22.6443 27.7585 22.6225 27.6638 22.5986 27.5606L22.1063 27.5866C22.0909 27.5156 22.076 27.4476 22.0617 27.3829L22.0617 27.3827C22.0281 27.2297 21.9986 27.0953 21.9767 26.984L20.5879 26.4931C20.5704 26.6463 20.5519 26.8121 20.5324 26.9869C20.4858 27.4049 20.4335 27.8743 20.3742 28.345L20.1682 28.3957L19.0022 26.4152C18.8597 26.6944 18.769 26.8723 18.6355 27.136C17.9178 26.5152 17.3568 25.8854 17.34 24.9178C17.3309 24.4607 17.3154 24.049 17.0809 23.5867C16.9045 23.2416 17.0868 22.6651 17.2341 22.1993L17.2623 22.1101C17.4098 21.6451 17.6118 21.192 17.8136 20.7395C17.8935 20.5602 17.9735 20.381 18.05 20.2011C18.4244 19.3284 19.4077 19.018 20.242 19.4479C21.408 20.0491 22.5921 20.6167 23.7853 21.166C23.9593 21.2457 24.2031 21.2021 24.4207 21.1632L24.4208 21.1632C24.4478 21.1583 24.4744 21.1536 24.5005 21.1491C25.2553 21.0192 26.0089 20.8764 26.7612 20.7206C26.9846 20.6832 27.2006 20.6104 27.4012 20.505C27.9816 20.1738 28.6047 20.0375 29.1942 20.3465C30.3498 20.9517 31.4899 21.5946 32.5899 22.2945C33.1858 22.6724 33.3516 22.7231 33.695 22.0932C33.93 21.662 34.1328 21.2235 34.3526 20.7486L34.3526 20.7484C34.4538 20.5296 34.5586 20.3031 34.6718 20.066C35.1889 20.7976 35.3712 21.6237 35.5516 22.441L35.5516 22.441C35.636 22.8236 35.72 23.2043 35.8378 23.5724C36.7887 23.4426 37.8368 22.6335 38.2138 21.7543L38.6025 22.014V20.0686L41.5822 22.4893C41.6726 22.1206 41.734 21.8524 41.7866 21.6225L41.7866 21.6224C41.8094 21.5228 41.8305 21.4303 41.8517 21.34C42.1413 21.4413 42.4344 21.5354 42.7274 21.6294L42.7274 21.6294C43.411 21.8488 44.0942 22.0681 44.7317 22.3789C45.3141 22.6868 45.8126 23.1326 46.184 23.6776C46.6646 24.3659 47.2114 24.8127 48.0483 24.8893C48.9164 24.969 49.5471 25.4506 50.2294 25.9717L50.2507 25.9879C50.8726 26.4639 51.6036 26.8019 52.3319 27.1386L52.3321 27.1387C52.5595 27.2439 52.7867 27.3489 53.0102 27.458C53.228 27.5641 53.4671 27.6258 53.7247 27.6923C53.8486 27.7243 53.9767 27.7573 54.1088 27.797C53.6658 28.5515 54.1464 28.7061 54.7048 28.8164C54.8143 28.839 54.9238 28.8614 55.0334 28.8837L55.0334 28.8837C55.6617 29.012 56.2906 29.1404 56.9072 29.3073C57.3079 29.4017 57.6774 29.5984 57.9798 29.8783C58.2822 30.1582 58.5072 30.5118 58.6329 30.9047C58.8376 31.4826 58.7106 31.867 58.2442 32.2579C57.8526 32.6098 57.507 33.0099 57.2156 33.4488C55.9939 35.1721 54.1944 36.9734 52.0567 36.6734C51.83 36.6422 51.6046 36.6059 51.2301 36.5435L52.4363 35.5202H48.5173C48.5721 35.6647 48.5794 35.8214 48.5866 35.976C48.6018 36.3034 48.6165 36.6209 49.0821 36.7903C49.1561 36.8172 49.1709 37.0182 49.1848 37.2051C49.1896 37.2703 49.1943 37.3339 49.2013 37.3876C49.2265 37.5764 49.2449 37.7663 49.2659 37.9842C49.2751 38.0796 49.2848 38.1805 49.2959 38.2889L50.3129 37.4175C50.9024 39.0499 50.572 41.2031 48.2905 41.5733C47.8261 41.6501 47.3585 41.7033 46.8907 41.7565C46.5677 41.7932 46.2446 41.83 45.9223 41.8745C45.5466 41.9265 45.4041 41.7642 45.303 41.4122C44.9558 40.2071 44.2212 39.2344 43.3182 38.2331ZM48.0444 40.272C46.7333 39.5084 45.9715 38.324 45.6645 36.8461C45.599 36.533 45.547 36.2155 45.4949 35.8982C45.3935 35.2798 45.2922 34.6618 45.0919 34.0773C44.8522 33.3774 45.2214 33.1163 45.6632 32.9021C46.318 32.5862 46.9979 32.3256 47.6959 32.1229C48.0287 32.0238 48.3798 31.9861 48.7442 31.9469L48.7442 31.9469C48.9104 31.9291 49.0793 31.9109 49.2505 31.8865C49.2278 31.737 49.2083 31.6055 49.1807 31.42L49.1804 31.418L49.1404 31.1489C49.3215 31.2297 49.4955 31.2976 49.6606 31.3621C50.0072 31.4973 50.3146 31.6173 50.5655 31.8099C50.8681 32.0442 51.1389 32.325 51.4104 32.6066L51.4105 32.6066L51.4106 32.6067C51.604 32.8073 51.7977 33.0082 52.0036 33.193L52.0236 33.2109C52.2652 33.4277 52.5671 33.6985 52.847 33.7124C54.8331 33.7657 55.6765 32.4436 54.8201 30.6657C54.7165 30.4515 54.513 30.1839 54.3122 30.1398C54.2389 30.1234 54.1656 30.1067 54.0922 30.09L54.0916 30.0898C53.2456 29.897 52.3939 29.7029 51.5191 30.0099C50.5681 30.3437 49.6029 30.2463 48.6689 29.9385C48.3955 29.8502 48.0716 29.6917 47.9317 29.4658C47.5848 28.9003 47.276 28.3171 46.955 27.7106L46.955 27.7105L46.9549 27.7104C46.8336 27.4812 46.7106 27.2487 46.583 27.0126C46.7535 27.021 46.9246 27.021 47.0953 27.0209H47.0953C47.7391 27.0207 48.3774 27.0204 48.9591 27.4762C49.4432 27.8711 49.9638 28.219 50.5137 28.5152C50.765 28.6447 51.0554 28.697 51.3458 28.7492C51.4747 28.7724 51.6035 28.7956 51.7289 28.8255L51.8909 28.5307C51.8175 28.4576 51.7478 28.3782 51.6781 28.2989C51.5261 28.1259 51.3744 27.9532 51.1861 27.8463C50.625 27.5318 50.0427 27.2567 49.4436 27.023C49.3288 26.9775 49.212 26.9265 49.094 26.875L49.0939 26.875C48.6632 26.6871 48.2173 26.4926 47.8034 26.5334C46.0346 26.7098 44.5302 26.0065 43.0248 25.3028L42.8208 25.2074C42.392 25.0074 42.0231 24.6545 41.6691 24.316L41.5732 24.2244C41.3062 23.9703 41.0486 23.674 40.7917 23.3786L40.7917 23.3785L40.7916 23.3784C40.6795 23.2495 40.5676 23.1208 40.4551 22.9958C40.766 24.4244 41.6755 25.3087 43.0151 25.823L42.5953 26.3931C42.9883 26.5318 43.3983 26.5928 43.8079 26.6539C44.4651 26.7518 45.1212 26.8495 45.7046 27.2671C44.4829 28.5567 43.51 29.9034 43.2936 31.7462L42.2974 30.9047C42.2443 30.9658 42.1911 31.0268 42.1379 31.0877C41.0312 32.356 39.9401 33.6065 40.1688 35.4293C40.345 36.8331 40.2349 38.1292 39.521 39.3577C39.432 39.5092 39.3611 39.6712 39.2903 39.833C39.2312 39.968 39.1721 40.103 39.1026 40.2317C38.802 40.7889 39.043 41.1551 39.477 41.4823C39.5059 41.4651 39.5346 41.4517 39.5608 41.4395C39.6097 41.4167 39.6496 41.3981 39.6648 41.3668C39.7831 41.1193 39.9017 40.8721 40.0203 40.6248C40.5604 39.4991 41.1004 38.3735 41.6081 37.2331C41.704 37.0188 41.6716 36.5838 41.5213 36.4539C40.744 35.7487 40.9565 34.9526 41.1897 34.1267C41.2846 33.7893 41.3658 33.4482 41.4472 33.1068L41.4472 33.1067C41.4836 32.954 41.52 32.8013 41.5576 32.6488C41.7221 32.7631 41.7649 32.8475 41.7532 32.9241C41.5757 34.2228 42.1898 35.076 43.1434 35.8942C44.3663 36.9448 45.4546 38.1461 46.0026 39.7421C46.5105 41.2174 46.6025 41.2278 47.9822 40.4135L47.9843 40.4067C47.9923 40.3797 48.0001 40.3535 48.0444 40.272ZM26.8869 30.5515C27.0786 32.1267 26.1186 33.0189 25.0912 33.8384C24.0185 34.6955 22.7178 34.8773 21.2849 34.8773C21.3303 35.6007 21.3704 36.2487 21.4145 36.9929C22.3816 36.389 22.3849 36.3915 23.242 37.0407L23.2645 37.0578C23.5122 37.2164 23.7722 37.3549 24.0419 37.4721L24.1416 37.3266L23.8268 36.2253L25.3698 37.2474C25.3806 37.1179 25.394 37.0107 25.4055 36.9182C25.4257 36.7558 25.4403 36.6387 25.4255 36.5253C25.3413 35.876 25.4916 35.3332 25.9903 34.8903C26.1176 34.7725 26.2187 34.6291 26.287 34.4695C26.4406 34.0994 26.6802 33.7714 26.9857 33.5128C27.2913 33.2541 27.654 33.0724 28.0438 32.9826C28.562 32.841 28.8742 32.4735 29.0193 31.9566C29.0526 31.7659 29.1221 31.5834 29.224 31.419C29.3329 31.2813 29.5401 31.1307 29.6878 31.1463C29.8174 31.1579 29.9754 31.3852 30.013 31.5359C30.0187 31.5591 30.0243 31.5827 30.03 31.6064C30.0993 31.8989 30.1723 32.2063 30.539 32.0826C30.745 32.0125 30.9458 31.6696 30.9899 31.4216C31.2386 30.0515 31.249 28.6944 30.6828 27.3593C31.9188 28.4048 32.7026 29.684 32.7855 31.3696C33.6924 30.5099 33.9968 29.5229 33.5719 28.5892C32.8169 26.9334 31.5855 25.6287 30.3536 24.3235L30.3532 24.323C30.247 24.2106 30.1409 24.0981 30.035 23.9854C30.1233 24.1969 30.2062 24.409 30.2889 24.6208L30.289 24.6211C30.3277 24.7201 30.3664 24.819 30.4056 24.9178L30.276 25.0386C29.4184 23.9997 28.3495 23.5477 26.9762 23.7685C27.3131 24.1244 27.6149 24.4451 27.9155 24.7646L27.7989 24.8854L27.7883 24.8811C26.7554 24.4657 25.7239 24.0508 25.0964 23.0478C24.4668 22.0413 23.5664 21.6023 22.4056 21.5296C22.0532 21.5075 21.7063 21.4056 21.3293 21.2949C21.1518 21.2427 20.9677 21.1887 20.7732 21.14C20.5141 21.5478 19.9959 21.5075 19.4336 21.3998C19.2315 21.3621 18.8208 21.5023 18.7858 21.6309C18.5371 22.6556 19.2224 23.4205 20.0697 23.3101C20.3329 23.2758 20.5961 23.2838 20.8838 23.2925H20.8838C21.021 23.2967 21.1637 23.301 21.3147 23.301C21.255 23.4305 21.2037 23.5395 21.1583 23.6358L21.1583 23.6358C21.0826 23.7965 21.0236 23.9219 20.9701 24.0477L21.066 24.2062C21.1591 24.1724 21.2546 24.1427 21.35 24.113L21.35 24.113C21.5626 24.0469 21.7748 23.981 21.9599 23.8698L22.0008 23.8453C23.0442 23.2203 23.0467 23.2188 23.8333 24.0971C23.8662 24.1239 23.9035 24.145 23.9434 24.1594L23.9965 24.0049C24.0868 24.0284 24.1864 24.0431 24.2859 24.0578L24.2859 24.0578C24.5049 24.09 24.724 24.1223 24.8451 24.249L24.951 24.3587L24.9511 24.3587C25.3925 24.8149 25.8617 25.2997 26.0823 25.8646C26.5392 27.0375 26.8998 28.2492 27.2601 29.4597L27.2601 29.4597C27.3422 29.7356 27.4242 30.0113 27.5074 30.2865C27.5607 30.4645 27.5464 30.662 27.5322 30.8594C27.5256 30.9501 27.5191 31.0407 27.5191 31.1294L27.3727 31.1553L26.8869 30.5515ZM37.281 40.8291C39.4407 37.911 38.035 31.4696 35.7678 29.0463C36.3691 30.468 36.473 31.8955 36.5758 33.3074V33.3074C36.6112 33.7939 36.6465 34.2785 36.7019 34.7604C36.7939 35.5682 36.505 36.189 35.8119 36.6305C35.3557 36.9208 34.9044 37.2201 34.453 37.5194L34.4527 37.5196L34.4523 37.5199C34.0962 37.756 33.7401 37.9921 33.3814 38.224C33.2242 38.3258 33.0585 38.4138 32.8925 38.5019L32.8925 38.5019C32.8151 38.543 32.7377 38.584 32.6611 38.6266L32.9954 38.7915C33.1664 39.0759 33.3374 39.3616 33.5473 39.7149L35.1291 39.3824C35.1416 39.4765 35.1571 39.5913 35.1744 39.7188L35.1744 39.7189C35.2002 39.9099 35.2299 40.129 35.2587 40.3486L35.4672 40.4291L36.9584 38.4694C37.0364 38.998 37.1053 39.5138 37.1775 40.0547L37.1776 40.0548C37.2109 40.3046 37.245 40.5597 37.281 40.8239V40.8291ZM23.2567 31.9216C24.0453 32.9959 24.047 32.9981 25.4399 32.602C24.4788 33.4368 23.4895 34.2339 22.0972 34.0449C21.877 34.015 21.5389 33.6942 21.5298 33.4955C21.5034 32.9459 21.5373 32.3942 21.5712 31.8424C21.584 31.6354 21.5967 31.4284 21.6062 31.2216H21.7876C21.8446 31.3625 21.9 31.5043 21.9553 31.6462C22.0999 32.0168 22.2446 32.3877 22.4198 32.7436C22.4796 32.8581 22.6024 32.9367 22.7262 33.016L22.7262 33.016C22.785 33.0536 22.844 33.0914 22.8966 33.1332C22.9386 33.0692 22.9858 33.0066 23.0332 32.9439L23.0332 32.9439L23.0332 32.9439C23.1318 32.8133 23.231 32.6819 23.2852 32.5345C23.3244 32.4282 23.3057 32.3009 23.2842 32.1533C23.2736 32.0809 23.2623 32.0036 23.2567 31.9216ZM53.303 35.6474L52.8224 36.1007C53.8316 36.0539 54.1801 35.8228 54.3045 35.1345C53.2084 35.1513 52.286 34.7851 51.5929 33.9059C51.4492 33.7451 51.2834 33.6057 51.1006 33.4916C50.3492 32.9618 48.7272 32.7657 48.0548 33.1436L48.468 33.1968C48.6766 33.2236 48.8858 33.2474 49.0951 33.2712C49.5878 33.3273 50.0808 33.3835 50.5655 33.4774C50.9801 33.5579 51.142 33.8332 50.8246 34.2306C50.6749 34.4216 50.5311 34.6181 50.3876 34.8142C50.3214 34.9048 50.2552 34.9953 50.1885 35.0851L50.2611 35.2422L51.7004 34.7942L53.303 35.6474ZM37.3678 24.714C37.1268 25.4204 36.8863 26.1265 36.6462 26.8321C37.6959 26.0396 37.7759 24.9256 37.861 23.739V23.7389C37.8686 23.6324 37.8763 23.5254 37.8847 23.4179L34.5034 25.236C35.5281 25.4607 36.4078 25.1347 37.3587 24.7075L37.3678 24.714ZM48.0512 38.2086C48.2801 38.1713 48.4791 37.9515 48.8396 37.553C49.0372 37.7373 48.965 37.9986 48.8919 38.2626C48.7844 38.6514 48.6752 39.0463 49.4229 39.211C49.4967 39.0759 49.6055 38.8733 49.7144 38.6707L49.9735 38.8214C49.9453 38.9175 49.9217 39.0179 49.8981 39.1184C49.8336 39.3929 49.7687 39.6691 49.6094 39.8668C49.5252 39.9785 48.9798 39.859 48.7479 39.6954C48.1599 39.2681 47.602 38.8007 47.0779 38.2967C46.9713 38.1976 46.9158 38.0433 46.8453 37.8473C46.8086 37.7454 46.7679 37.6323 46.7139 37.5097C47.4426 38.0239 47.7695 38.2546 48.0512 38.2086ZM18.6731 24.9101L18.8428 24.8984C19.1322 25.5529 19.4202 26.207 19.7069 26.8607L19.9155 26.7853C20.0451 26.149 20.1746 25.5126 20.2731 25.036L18.1588 24.1633C17.8997 25.1373 17.9839 25.636 18.528 26.0165L18.6731 24.9101ZM38.8551 24.075L38.7618 24.088V25.5061C38.7618 25.5991 38.7409 25.6941 38.7201 25.7889C38.6652 26.0382 38.6107 26.2856 38.9393 26.4879C39.1359 26.6093 39.3143 26.7603 39.4931 26.9117L39.4931 26.9117C39.609 27.0097 39.725 27.1079 39.8462 27.1983C39.8705 27.2157 39.9279 27.1877 39.9873 27.1587C40.0166 27.1444 40.0464 27.1298 40.0729 27.1204L38.8551 24.075ZM47.885 37.6552C47.8605 37.4645 47.8357 37.2771 47.8112 37.0919L47.8112 37.0918C47.7543 36.6616 47.6989 36.2435 47.6519 35.8241C47.6065 35.4215 47.4122 35.1942 47.0429 35.1111C47.0518 35.2845 47.0611 35.4509 47.0702 35.6123L47.0702 35.6125C47.0903 35.9721 47.1091 36.3075 47.1181 36.6435C47.1233 37.2123 47.4148 37.5357 47.876 37.65L47.885 37.6552ZM43.8961 23.3815C43.8494 24.4023 44.4389 24.9945 45.6165 25.0698L43.8961 23.3815ZM57.2633 31.411V31.4109C57.2601 31.3847 57.2567 31.3584 57.2544 31.332C56.7163 31.0333 56.1783 30.735 55.6402 30.4372L55.4977 30.6424L56.5548 31.5255L56.1545 31.8514L56.262 32.0462L57.2751 31.5514C57.2751 31.5047 57.2693 31.458 57.2633 31.411ZM56.4201 33.3774L56.161 33.1475C56.0855 33.2193 56.0091 33.2901 55.9326 33.3609L55.9326 33.361C55.7255 33.5528 55.5186 33.7444 55.3331 33.954C55.2846 34.0088 55.2914 34.1131 55.2982 34.2176V34.2176C55.3013 34.2665 55.3045 34.3153 55.302 34.3592C55.3478 34.3592 55.4006 34.3657 55.4531 34.3722C55.5627 34.3858 55.6711 34.3992 55.7114 34.3527C55.8873 34.1366 56.0449 33.9055 56.2027 33.6742L56.2027 33.6741C56.2716 33.5731 56.3405 33.472 56.411 33.3722L56.4201 33.3774ZM18.5785 20.4478L19.865 19.6037C19.1279 19.6063 18.7366 19.8193 18.5695 20.4426L18.5785 20.4478ZM26.3439 22.919C26.3352 22.913 26.3281 22.905 26.3229 22.8958C26.3178 22.8866 26.3147 22.8763 26.3141 22.8658C26.3051 22.7569 26.4524 22.6783 26.5336 22.6351L26.5369 22.6333L26.6768 22.5632C26.7611 22.5231 26.8476 22.488 26.936 22.458C27.0298 22.425 27.1265 22.4011 27.2249 22.3865C27.322 22.3729 27.4205 22.3729 27.5177 22.3865C27.6131 22.3968 27.7056 22.4259 27.7897 22.4723C27.8774 22.5222 27.9531 22.5909 28.0113 22.6736C28.0113 22.6736 28.3053 23.0904 27.6718 23.0982H27.5954H27.3972C27.3182 23.0982 27.2402 23.0925 27.1623 23.0867L27.1238 23.0839C27.0331 23.0774 26.9256 23.067 26.8258 23.0541C26.7261 23.0411 26.6406 23.0281 26.5499 23.0073L26.5136 22.9985C26.4894 22.9927 26.4652 22.987 26.441 22.98C26.4049 22.9663 26.3719 22.9456 26.3439 22.919ZM50.0098 28.8033C50.042 28.8254 50.0705 28.8526 50.094 28.8838C50.1037 28.9002 50.1078 28.9194 50.1056 28.9384C50.0971 29.029 49.9802 29.0515 49.906 29.0658C49.9016 29.0666 49.8973 29.0674 49.8932 29.0683C49.7989 29.0848 49.7037 29.0961 49.6082 29.102C49.4464 29.1144 49.284 29.1144 49.1223 29.102C48.9836 29.0919 48.8455 29.0732 48.709 29.0462C48.6561 29.0387 48.6041 29.0261 48.5536 29.0085C47.9796 28.7722 47.6804 27.9397 47.6001 27.6904C47.5968 27.6816 47.5957 27.6721 47.5967 27.6628C47.5977 27.6535 47.6008 27.6445 47.6058 27.6366C47.6108 27.6287 47.6176 27.6221 47.6256 27.6172C47.6336 27.6123 47.6426 27.6094 47.6519 27.6086C47.8076 27.5983 47.9638 27.6164 48.1131 27.6618C48.393 27.7457 48.6611 27.8649 48.9111 28.0163C49.1602 28.1629 49.4003 28.3242 49.6302 28.4994C49.7222 28.5696 49.8141 28.641 49.9035 28.715L50.0098 28.8033Z" fill="white"/>
</svg>
