<svg width="20" height="20" viewBox="0 0 20 20" fill="none" xmlns="http://www.w3.org/2000/svg">
<path d="M9.99991 19.285C15.1279 19.285 19.285 15.1279 19.285 9.99991C19.285 4.87191 15.1279 0.714844 9.99991 0.714844C4.87191 0.714844 0.714844 4.87191 0.714844 9.99991C0.714844 15.1279 4.87191 19.285 9.99991 19.285Z" fill="white"/>
<path d="M9.99934 19.9986C8.68565 20.0023 7.3843 19.7452 6.17057 19.2426C4.95684 18.7399 3.85486 18.0016 2.92841 17.0702C1.99702 16.1438 1.25863 15.042 0.755973 13.8282C0.253319 12.6145 -0.00361684 11.313 4.01675e-05 9.99934C-0.00369573 8.68564 0.253206 7.38418 0.755864 6.17044C1.25852 4.9567 1.99696 3.85488 2.92841 2.92848C3.85481 1.99702 4.95677 1.25844 6.1705 0.755777C7.38424 0.253118 8.68564 -0.00369572 9.99934 4.01809e-05C11.313 -0.00369572 12.6144 0.253118 13.8282 0.755777C15.0419 1.25844 16.1439 1.99702 17.0703 2.92848C18.0017 3.85488 18.7402 4.9567 19.2428 6.17044C19.7455 7.38418 20.0024 8.68564 19.9986 9.99934C20.0023 11.313 19.7454 12.6145 19.2427 13.8282C18.7401 15.042 18.0017 16.1438 17.0703 17.0702C16.1438 18.0016 15.0418 18.7399 13.8281 19.2426C12.6144 19.7452 11.313 20.0023 9.99934 19.9986ZM9.99934 1.42851C7.72697 1.43097 5.54838 2.33478 3.94157 3.94159C2.33476 5.5484 1.43097 7.72697 1.42851 9.99934C1.43097 12.2717 2.33476 14.4503 3.94157 16.0571C5.54838 17.6639 7.72697 18.5677 9.99934 18.5702C12.2717 18.5677 14.4503 17.6639 16.0571 16.0571C17.6639 14.4503 18.5677 12.2717 18.5702 9.99934C18.5677 7.72697 17.6639 5.5484 16.0571 3.94159C14.4503 2.33478 12.2717 1.43097 9.99934 1.42851Z" fill="#213575"/>
<path opacity="0.7" d="M9.2863 19.9742V18.5408C9.52438 18.5608 9.76246 18.5708 10.0005 18.5708C10.2386 18.5708 10.4767 18.5611 10.7148 18.5415V19.9749C10.4767 19.9916 10.2386 20 10.0005 20C9.76246 20 9.52438 19.9913 9.2863 19.9742ZM15.533 16.5411C15.8967 16.2329 16.2343 15.8951 16.5422 15.5311L17.5586 16.5474C17.4034 16.7264 17.241 16.9004 17.0715 17.0695C16.902 17.2385 16.7279 17.401 16.5494 17.5567L15.533 16.5411ZM2.93102 17.0702C2.76151 16.9007 2.59891 16.7264 2.44321 16.5474L3.45957 15.5311C3.76776 15.8951 4.10556 16.2329 4.4695 16.5411L3.45314 17.5574C3.27411 17.4021 3.09959 17.2397 2.92961 17.0702H2.93102ZM18.5421 10.7135C18.5616 10.4755 18.5714 10.2374 18.5714 9.9993C18.5714 9.76122 18.5616 9.52315 18.5421 9.28507H19.9756C19.9922 9.52315 20.0006 9.76122 20.0006 9.9993C20.0006 10.2374 19.9922 10.4755 19.9756 10.7135H18.5421ZM0.026954 10.7135C0.0102885 10.4755 0.00195312 10.2374 0.00195312 9.9993C0.00195312 9.76122 0.0102885 9.52315 0.026954 9.28507H1.46042C1.44089 9.52315 1.43114 9.76122 1.43114 9.9993C1.43114 10.2374 1.44089 10.4755 1.46042 10.7135H0.026954ZM2.44321 3.45191C2.59891 3.27287 2.76151 3.09887 2.93102 2.92983C3.10053 2.7608 3.27483 2.59811 3.45386 2.44193L4.4695 3.45749C4.10562 3.76601 3.76783 4.10406 3.45957 4.46816L2.44321 3.45191ZM15.533 3.45749L16.5487 2.44193C16.7277 2.59764 16.902 2.76032 17.0715 2.92983C17.241 3.09934 17.4034 3.27335 17.5586 3.45191L16.5422 4.46816C16.2341 4.10396 15.8963 3.76589 15.5323 3.45749H15.533ZM9.2863 0.0251099C9.52438 0.00844435 9.76246 0 10.0005 0C10.2386 0 10.4767 0.00844435 10.7148 0.0251099V1.45707C10.4791 1.43755 10.241 1.42777 10.0005 1.42777C9.76008 1.42777 9.522 1.43777 9.2863 1.45777V0.0251099Z" fill="white"/>
<path d="M14.3262 4.00026C13.883 4.00141 13.4584 4.17814 13.1452 4.49174C12.8321 4.80534 12.656 5.23025 12.6555 5.67341V6.55326C12.1626 5.54948 11.3185 4.76149 10.2831 4.33877C9.24783 3.91605 8.09338 3.88799 7.03875 4.25992C6.15047 4.57484 5.38145 5.15705 4.83735 5.92658C4.29324 6.69612 4.00074 7.61523 4 8.55769V14.3262C4 14.7702 4.17635 15.1959 4.49025 15.5098C4.80415 15.8237 5.22989 16 5.67381 16C6.11773 16 6.54348 15.8237 6.85738 15.5098C7.17127 15.1959 7.34764 14.7702 7.34764 14.3262V13.4482C7.84038 14.4517 8.6843 15.2393 9.71931 15.6617C10.7543 16.0841 11.9084 16.1118 12.9625 15.7397C13.8505 15.4249 14.6193 14.8429 15.1632 14.0735C15.707 13.3042 15.9994 12.3854 16 11.4432V5.67341C15.9994 5.22976 15.8228 4.80447 15.509 4.49082C15.1952 4.17717 14.7699 4.00075 14.3262 4.00026ZM11.4425 15.5367C10.5675 15.5404 9.71453 15.2621 9.00997 14.7432C8.30543 14.2243 7.78673 13.4923 7.5307 12.6556L7.52386 12.6313C7.40633 12.2462 7.34696 11.8458 7.34764 11.4432V8.55769C7.34796 8.23662 7.47567 7.92883 7.70277 7.70188C7.92984 7.47493 8.23772 7.34734 8.55878 7.3472C8.87952 7.34802 9.18687 7.47582 9.41361 7.70268C9.64036 7.92954 9.76801 8.23695 9.76868 8.55769V11.442C9.76921 11.8858 9.94591 12.3114 10.26 12.6251C10.4943 12.8584 10.7924 13.0171 11.1168 13.0813C11.4412 13.1454 11.7773 13.1122 12.0828 12.9857C12.3882 12.8591 12.6495 12.645 12.8335 12.3703C13.0175 12.0956 13.1161 11.7726 13.1169 11.442V5.67341C13.1169 5.51453 13.1482 5.3572 13.209 5.21041C13.2698 5.06362 13.3589 4.93025 13.4713 4.8179C13.5836 4.70555 13.717 4.61643 13.8638 4.55563C14.0106 4.49483 14.1679 4.46353 14.3268 4.46353C14.4857 4.46353 14.643 4.49483 14.7898 4.55563C14.9366 4.61643 15.07 4.70555 15.1824 4.8179C15.2947 4.93025 15.3838 5.06362 15.4446 5.21041C15.5054 5.3572 15.5367 5.51453 15.5367 5.67341V11.442C15.5371 11.9798 15.4315 12.5124 15.2259 13.0093C15.0203 13.5063 14.7188 13.9578 14.3385 14.3381C13.9582 14.7184 13.5067 15.02 13.0098 15.2257C12.5129 15.4314 11.9803 15.5371 11.4425 15.5367ZM12.6555 11.442C12.6553 11.6812 12.5842 11.915 12.4512 12.114C12.3183 12.3129 12.1294 12.468 11.9085 12.5598C11.6875 12.6515 11.4444 12.6758 11.2096 12.6296C10.9749 12.5834 10.7591 12.4687 10.5894 12.3C10.4651 12.1769 10.3693 12.0282 10.3086 11.8642C10.2974 11.8349 10.2874 11.8019 10.2774 11.7689L10.2737 11.752L10.27 11.7365C10.2643 11.7147 10.2587 11.6929 10.255 11.6699C10.255 11.6618 10.255 11.653 10.2506 11.6443V11.6312C10.2506 11.6107 10.2444 11.5902 10.2426 11.569C10.2407 11.5478 10.2426 11.5434 10.2426 11.5266C10.2426 11.5098 10.2426 11.4849 10.2426 11.4644V8.55769C10.2421 8.33714 10.1982 8.11883 10.1134 7.91524C10.0285 7.71167 9.90429 7.52684 9.74789 7.37132C9.59152 7.2158 9.40597 7.09264 9.20194 7.00888C8.99788 6.92515 8.77933 6.88247 8.55878 6.88329C8.11485 6.88378 7.68923 7.06034 7.3753 7.37424C7.0614 7.68817 6.88483 8.11376 6.88434 8.55769V14.3262C6.88434 14.6473 6.7568 14.9552 6.52978 15.1822C6.30276 15.4092 5.99486 15.5367 5.67381 15.5367C5.35276 15.5367 5.04486 15.4092 4.81784 15.1822C4.59082 14.9552 4.46329 14.6473 4.46329 14.3262V8.55769C4.46401 7.57603 4.8173 6.62732 5.45882 5.8843C6.10035 5.14128 6.98744 4.6534 7.95847 4.50952C8.92954 4.36564 9.91998 4.57533 10.7494 5.1004C11.5788 5.62546 12.1921 6.43097 12.4774 7.37023L12.4942 7.42503C12.6008 7.79316 12.6551 8.17445 12.6555 8.55769V11.442Z" fill="url(#paint0_linear_5231_72224)"/>
<defs>
<linearGradient id="paint0_linear_5231_72224" x1="4.82291" y1="15.1603" x2="19.123" y2="0.838376" gradientUnits="userSpaceOnUse">
<stop offset="0.05" stop-color="#B0BDFF"/>
<stop offset="0.38" stop-color="#8293FF"/>
<stop offset="1" stop-color="#3479FD"/>
</linearGradient>
</defs>
</svg>
