<svg width="32" height="32" viewBox="0 0 32 32" fill="none" xmlns="http://www.w3.org/2000/svg">
<circle cx="16" cy="16" r="15.75" fill="url(#paint0_linear_5231_72225)" stroke="white" stroke-width="0.5"/>
<path fill-rule="evenodd" clip-rule="evenodd" d="M9.65318 7.83984C8.6517 7.83984 7.83984 8.6517 7.83984 9.65318V22.3465C7.83984 23.348 8.6517 24.1598 9.65318 24.1598H22.3465C23.348 24.1598 24.1598 23.348 24.1598 22.3465V9.65318C24.1598 8.6517 23.348 7.83984 22.3465 7.83984H9.65318ZM21.591 9.19984C21.424 9.19984 21.2887 9.33515 21.2887 9.50207V10.4087C21.2887 10.5756 21.424 10.711 21.591 10.711H22.4976C22.6645 10.711 22.7998 10.5756 22.7998 10.4087V9.50207C22.7998 9.33515 22.6645 9.19984 22.4976 9.19984H21.591Z" fill="white"/>
<path d="M14.3375 20.1926H12.373V11.8438H15.5086L17.7375 18.4549V11.8438H19.6642V20.1926H16.5664L14.3375 13.6571V20.1926Z" fill="#9C64EB"/>
<defs>
<linearGradient id="paint0_linear_5231_72225" x1="16" y1="0" x2="16" y2="32" gradientUnits="userSpaceOnUse">
<stop stop-color="#C1B0F7"/>
<stop offset="1" stop-color="#854EE8"/>
</linearGradient>
</defs>
</svg>
