<svg width="20" height="20" viewBox="0 0 20 20" fill="none" xmlns="http://www.w3.org/2000/svg">
<path d="M9.99991 19.285C15.1279 19.285 19.285 15.1279 19.285 9.99991C19.285 4.87191 15.1279 0.714844 9.99991 0.714844C4.87191 0.714844 0.714844 4.87191 0.714844 9.99991C0.714844 15.1279 4.87191 19.285 9.99991 19.285Z" fill="white"/>
<path d="M9.99934 19.9986C8.68565 20.0023 7.3843 19.7452 6.17057 19.2426C4.95684 18.7399 3.85486 18.0016 2.92841 17.0702C1.99702 16.1438 1.25863 15.042 0.755973 13.8282C0.253319 12.6145 -0.00361684 11.313 4.01675e-05 9.99934C-0.00369573 8.68564 0.253206 7.38418 0.755864 6.17044C1.25852 4.9567 1.99696 3.85488 2.92841 2.92848C3.85481 1.99702 4.95677 1.25844 6.1705 0.755777C7.38424 0.253118 8.68564 -0.00369572 9.99934 4.01809e-05C11.313 -0.00369572 12.6144 0.253118 13.8282 0.755777C15.0419 1.25844 16.1439 1.99702 17.0703 2.92848C18.0017 3.85488 18.7402 4.9567 19.2428 6.17044C19.7455 7.38418 20.0024 8.68564 19.9986 9.99934C20.0023 11.313 19.7454 12.6145 19.2427 13.8282C18.7401 15.042 18.0017 16.1438 17.0703 17.0702C16.1438 18.0016 15.0418 18.7399 13.8281 19.2426C12.6144 19.7452 11.313 20.0023 9.99934 19.9986ZM9.99934 1.42851C7.72697 1.43097 5.54838 2.33478 3.94157 3.94159C2.33476 5.5484 1.43097 7.72697 1.42851 9.99934C1.43097 12.2717 2.33476 14.4503 3.94157 16.0571C5.54838 17.6639 7.72697 18.5677 9.99934 18.5702C12.2717 18.5677 14.4503 17.6639 16.0571 16.0571C17.6639 14.4503 18.5677 12.2717 18.5702 9.99934C18.5677 7.72697 17.6639 5.5484 16.0571 3.94159C14.4503 2.33478 12.2717 1.43097 9.99934 1.42851V1.42851Z" fill="#291D51"/>
<path opacity="0.7" d="M9.2863 19.9742V18.5408C9.52438 18.5608 9.76246 18.5708 10.0005 18.5708C10.2386 18.5708 10.4767 18.5611 10.7148 18.5415V19.9749C10.4767 19.9916 10.2386 20 10.0005 20C9.76246 20 9.52438 19.9913 9.2863 19.9742ZM15.533 16.5411C15.8967 16.2329 16.2343 15.8951 16.5422 15.5311L17.5586 16.5474C17.4034 16.7264 17.241 16.9004 17.0715 17.0695C16.902 17.2385 16.7279 17.401 16.5494 17.5567L15.533 16.5411ZM2.93102 17.0702C2.76151 16.9007 2.59891 16.7264 2.44321 16.5474L3.45957 15.5311C3.76776 15.8951 4.10555 16.2329 4.4695 16.5411L3.45314 17.5574C3.27411 17.4021 3.09959 17.2397 2.92961 17.0702H2.93102ZM18.5421 10.7135C18.5616 10.4755 18.5714 10.2374 18.5714 9.9993C18.5714 9.76122 18.5616 9.52315 18.5421 9.28507H19.9756C19.9922 9.52315 20.0006 9.76122 20.0006 9.9993C20.0006 10.2374 19.9922 10.4755 19.9756 10.7135H18.5421ZM0.026954 10.7135C0.0102885 10.4755 0.00195312 10.2374 0.00195312 9.9993C0.00195312 9.76122 0.0102885 9.52315 0.026954 9.28507H1.46042C1.44089 9.52315 1.43114 9.76122 1.43114 9.9993C1.43114 10.2374 1.44089 10.4755 1.46042 10.7135H0.026954ZM2.44321 3.45191C2.59891 3.27287 2.76151 3.09887 2.93102 2.92983C3.10053 2.7608 3.27483 2.59811 3.45386 2.44193L4.4695 3.45749C4.10562 3.76601 3.76783 4.10406 3.45957 4.46816L2.44321 3.45191ZM15.533 3.45749L16.5487 2.44193C16.7277 2.59764 16.902 2.76032 17.0715 2.92983C17.241 3.09934 17.4034 3.27335 17.5586 3.45191L16.5422 4.46816C16.2341 4.10396 15.8963 3.76589 15.5323 3.45749H15.533ZM9.2863 0.0251099C9.52438 0.00844435 9.76246 0 10.0005 0C10.2386 0 10.4767 0.00844435 10.7148 0.0251099V1.45707C10.4791 1.43755 10.241 1.42777 10.0005 1.42777C9.76008 1.42777 9.522 1.43777 9.2863 1.45777V0.0251099Z" fill="white"/>
<path d="M17.572 9.918C17.572 9.34662 15.426 8.86825 12.4461 8.69758C14.2101 8.53895 15.4214 8.21256 15.4214 7.83718C15.4214 7.45764 13.6142 7.01456 11.1987 6.90203C12.0815 6.79905 12.689 6.58934 12.689 6.38379C12.689 6.15582 11.5014 5.80078 10.036 5.80078C8.57098 5.80078 7.38294 6.13257 7.38294 6.38379C7.38294 6.62132 7.94353 6.80777 8.76947 6.90078C6.40669 7.00003 4.651 7.37168 4.651 7.83676C4.651 8.21007 5.84361 8.53438 7.58683 8.69384C4.62692 8.85454 2.5 9.30592 2.5 9.918C2.5 10.5342 4.63522 10.9848 7.60386 11.143C5.85191 11.3058 4.65059 11.6351 4.65059 11.9988C4.65059 12.4622 6.39174 12.8322 8.73957 12.9336C7.92983 13.0282 7.38253 13.2126 7.38253 13.4472C7.38253 13.6989 8.57056 14.0307 10.0356 14.0307C11.501 14.0307 12.6886 13.6756 12.6886 13.4472C12.6886 13.2442 12.094 13.037 11.2269 12.9327C13.6279 12.8185 15.421 12.3771 15.421 11.9988C15.421 11.6355 14.2226 11.3062 12.4735 11.1442C15.4392 10.9869 17.572 10.5405 17.572 9.918ZM8.06064 8.50864C8.08929 8.48372 8.12168 8.46047 8.1632 8.43514L9.68801 7.5548C9.79597 7.49293 9.91639 7.4622 10.0372 7.4622C10.1577 7.4622 10.2781 7.49293 10.3848 7.5548L11.91 8.43514C11.9976 8.4858 12.0745 8.55681 12.1305 8.63903L12.1318 8.64318L12.1359 8.64609C12.1583 8.67931 12.1783 8.71253 12.1924 8.74284C12.1928 8.74533 12.1936 8.74741 12.197 8.7553C12.2148 8.79433 12.2281 8.83503 12.2389 8.87572C12.2414 8.88776 12.2377 8.89441 12.2347 8.89897C12.2165 8.92181 12.1575 8.93759 12.0753 8.9405C12.0201 8.94299 11.9611 8.94008 11.8884 8.93219C11.3079 8.87032 10.7274 8.82257 10.1469 8.7607C9.45297 8.68678 8.76739 8.62366 8.0652 8.52566C8.06022 8.52442 8.05773 8.52068 8.05731 8.5186C8.05648 8.51611 8.05648 8.51237 8.06064 8.50864ZM12.1882 11.099C12.1745 11.1289 12.1575 11.1584 12.138 11.1874L12.1255 11.2053C12.0769 11.273 12.0159 11.3315 11.9449 11.3789L10.384 12.2812C10.1693 12.4049 9.90269 12.4049 9.68759 12.2812L8.32847 11.4964L8.32598 11.4951C8.29733 11.4764 8.26618 11.4528 8.24501 11.4241C8.22715 11.4013 8.22881 11.3926 8.22923 11.3909C8.22964 11.3897 8.23255 11.3834 8.25663 11.3764C8.27075 11.3718 8.28736 11.3668 8.30439 11.3643C8.36543 11.3539 8.42689 11.3398 8.48876 11.3303L8.50579 11.3274C8.60503 11.3132 8.70427 11.2983 8.8031 11.2838C9.00699 11.2559 9.19635 11.2314 9.38197 11.2094C9.57423 11.1866 9.76234 11.1667 9.94089 11.1505C10.1261 11.133 10.3076 11.1185 10.4811 11.1069C10.651 11.0965 10.8266 11.0865 11.0027 11.0803C11.1742 11.0741 11.344 11.0703 11.5081 11.0691C11.5409 11.0691 11.5741 11.0682 11.6069 11.0682C11.7393 11.0682 11.8697 11.0658 11.9976 11.0691C12.0363 11.0699 12.0753 11.077 12.1139 11.0782L12.1795 11.0861C12.1841 11.0861 12.187 11.0894 12.1878 11.0907C12.1895 11.0923 12.1903 11.0957 12.1882 11.099ZM12.2572 10.3532C12.2572 10.5484 11.9989 10.5795 11.996 10.5799C10.9279 10.7086 9.79348 10.778 8.62372 10.7979C8.37623 10.8021 8.12874 10.8025 7.88166 10.7904C7.86381 10.7896 7.8472 10.7838 7.83432 10.7713C7.82187 10.7589 7.81439 10.7419 7.81439 10.724V9.39811L7.81522 9.26564C7.81605 9.26398 7.81605 9.26024 7.81605 9.25568C7.81273 9.15643 7.90575 9.05677 8.09178 9.05054C8.2093 9.04639 8.32806 9.04182 8.44765 9.04514C9.61658 9.07795 11.1173 9.2154 12.2497 9.61528C12.2538 9.61653 12.2572 9.61985 12.2572 9.624V10.3532V10.3532Z" fill="#291D51"/>
</svg>
