<svg width="32" height="32" viewBox="0 0 32 32" fill="none" xmlns="http://www.w3.org/2000/svg">
<g clip-path="url(#clip0_628_100)">
<path d="M16 32C24.8366 32 32 24.8366 32 16C32 7.16344 24.8366 0 16 0C7.16344 0 0 7.16344 0 16C0 24.8366 7.16344 32 16 32Z" fill="url(#paint0_linear_628_100)"/>
<path d="M16 31.75C24.6985 31.75 31.75 24.6985 31.75 16C31.75 7.30152 24.6985 0.25 16 0.25C7.30152 0.25 0.25 7.30152 0.25 16C0.25 24.6985 7.30152 31.75 16 31.75Z" stroke="white" stroke-width="0.5"/>
<g clip-path="url(#clip1_628_100)">
<path d="M24.6073 20.9315L24.602 20.9396C24.5751 20.988 24.5455 21.0363 24.5187 21.0793L24.4623 21.1545C24.2634 21.4393 24.0163 21.6757 23.7234 21.8692L17.4315 25.5068C16.9936 25.7566 16.502 25.8829 16.0076 25.8829C15.5133 25.8829 15.0243 25.7566 14.5784 25.5068L9.09778 22.342C9.03061 22.2936 8.96882 22.2506 8.92315 22.2103L8.90972 22.205C8.83987 22.1271 8.81031 22.0492 8.83449 21.9739C8.90166 21.7617 9.36912 21.665 9.39061 21.6623C9.51688 21.6408 9.63509 21.6247 9.75867 21.6032L9.83658 21.5924C10.0381 21.5656 10.2342 21.5333 10.4357 21.5038C10.6345 21.4742 10.8333 21.45 11.0348 21.4205C11.8246 21.3077 12.5876 21.2109 13.3667 21.1196C14.0975 21.0309 14.8551 20.9503 15.6208 20.8832C16.424 20.808 17.1387 20.7489 17.7942 20.7086C18.5088 20.6656 19.2154 20.6253 19.9005 20.6011C20.5855 20.5689 21.2706 20.5581 21.9369 20.5554C22.0014 20.5554 22.0712 20.5527 22.1357 20.5527H22.3345C22.8369 20.5527 23.3688 20.5581 23.9088 20.5689C23.9733 20.5742 24.0405 20.5769 24.1049 20.5796L24.2151 20.585C24.4166 20.6038 24.5428 20.6629 24.5966 20.7489C24.6315 20.7999 24.6315 20.8617 24.6073 20.9315Z" fill="url(#paint1_linear_628_100)"/>
<path d="M24.9998 15.3814V17.4555C24.9998 18.2238 25.0078 18.2399 23.4201 18.4388L22.3831 18.5274C22.2487 18.5408 22.1037 18.5516 21.9613 18.5704L21.6335 18.5973C19.0007 18.8632 16.3678 19.0916 13.7296 19.2555C12.5637 19.3253 11.3977 19.3871 10.229 19.4328C9.68365 19.4516 9.14097 19.4704 8.5956 19.4838C8.335 19.4865 8.07171 19.4919 7.81112 19.4973C7.60425 19.5026 7.28186 19.5698 7.1153 19.4167C6.95679 19.2689 7.00783 18.9761 7.00783 18.7719V13.5438C7.00783 12.8185 7.23619 12.6599 8.74336 12.5686C8.99321 12.5659 9.25918 12.5605 9.60843 12.5605C14.0225 12.5605 18.7186 13.2161 24.3846 14.6292C24.3926 14.6292 24.4007 14.6292 24.406 14.6319C24.4087 14.6319 24.4141 14.6346 24.4168 14.6346C24.4625 14.648 24.5135 14.6588 24.5592 14.6695L24.5699 14.6722C24.7714 14.7528 24.9998 14.7098 24.9998 15.3814Z" fill="url(#paint2_linear_628_100)"/>
<path d="M24.6065 11.9507C24.5823 11.9749 24.5527 11.9937 24.5124 12.0018C24.3405 12.0501 24.1229 12.0179 23.9483 12.0125C23.7441 12.0072 23.5453 11.9964 23.3438 11.9857C22.9489 11.9588 22.5512 11.9212 22.1536 11.8782C21.6271 11.8218 21.1032 11.7654 20.5793 11.709C19.7895 11.6284 18.9996 11.5424 18.2124 11.4591C17.2883 11.3597 16.3695 11.263 15.4506 11.1663C14.5318 11.0642 13.6157 10.9701 12.6942 10.8707C11.9124 10.7875 11.128 10.7042 10.3462 10.6236C9.83035 10.5672 9.31722 10.5161 8.80139 10.4597C8.67244 10.4463 8.54348 10.4328 8.41184 10.4194C8.38229 10.414 8.35274 10.4087 8.32587 10.4087C8.22916 10.3925 8.1405 10.3818 8.1002 10.3119C8.08408 10.2851 8.07065 10.2233 8.12438 10.14L8.15393 10.1158C8.19423 10.089 8.23184 10.0594 8.28557 10.0245C8.33393 9.98955 8.38498 9.96 8.43602 9.92507L14.5775 6.37881C15.0181 6.13164 15.5071 6 16.0095 6C16.5092 6 17.0035 6.13164 17.4333 6.37881C17.4333 6.37881 23.4862 9.86866 23.5775 9.92239C24.0826 10.2152 24.4856 10.7149 24.6145 11.3033C24.6495 11.4591 24.7462 11.8084 24.6065 11.9507Z" fill="url(#paint3_linear_628_100)"/>
</g>
</g>
<defs>
<linearGradient id="paint0_linear_628_100" x1="16" y1="0" x2="16" y2="32" gradientUnits="userSpaceOnUse">
<stop stop-color="#59588D"/>
<stop offset="1" stop-color="#1E1433"/>
<stop offset="1" stop-color="#1E1433"/>
</linearGradient>
<linearGradient id="paint1_linear_628_100" x1="27.3331" y1="5.87126" x2="13.0244" y2="26.8776" gradientUnits="userSpaceOnUse">
<stop offset="0.0403" stop-color="#5FF19D"/>
<stop offset="0.205" stop-color="#59EEA3"/>
<stop offset="0.4266" stop-color="#49E5B4"/>
<stop offset="0.6806" stop-color="#2FD6D0"/>
<stop offset="0.9567" stop-color="#0AC2F7"/>
<stop offset="1" stop-color="#04BEFE"/>
</linearGradient>
<linearGradient id="paint2_linear_628_100" x1="24.0954" y1="3.66608" x2="9.78667" y2="24.6725" gradientUnits="userSpaceOnUse">
<stop offset="0.0403" stop-color="#5FF19D"/>
<stop offset="0.205" stop-color="#59EEA3"/>
<stop offset="0.4266" stop-color="#49E5B4"/>
<stop offset="0.6806" stop-color="#2FD6D0"/>
<stop offset="0.9567" stop-color="#0AC2F7"/>
<stop offset="1" stop-color="#04BEFE"/>
</linearGradient>
<linearGradient id="paint3_linear_628_100" x1="22.2496" y1="2.40779" x2="7.94089" y2="23.4142" gradientUnits="userSpaceOnUse">
<stop offset="0.0403" stop-color="#5FF19D"/>
<stop offset="0.205" stop-color="#59EEA3"/>
<stop offset="0.4266" stop-color="#49E5B4"/>
<stop offset="0.6806" stop-color="#2FD6D0"/>
<stop offset="0.9567" stop-color="#0AC2F7"/>
<stop offset="1" stop-color="#04BEFE"/>
</linearGradient>
<clipPath id="clip0_628_100">
<rect width="32" height="32" fill="white"/>
</clipPath>
<clipPath id="clip1_628_100">
<rect width="18" height="19.886" fill="white" transform="translate(7 6)"/>
</clipPath>
</defs>
</svg>
