<svg width="32" height="32" viewBox="0 0 32 32" fill="none" xmlns="http://www.w3.org/2000/svg">
<g clip-path="url(#clip0_615_1034)">
<path d="M16 32C24.8366 32 32 24.8366 32 16C32 7.16344 24.8366 0 16 0C7.16344 0 0 7.16344 0 16C0 24.8366 7.16344 32 16 32Z" fill="url(#paint0_linear_615_1034)"/>
<path d="M16 31.75C24.6985 31.75 31.75 24.6985 31.75 16C31.75 7.30152 24.6985 0.25 16 0.25C7.30152 0.25 0.25 7.30152 0.25 16C0.25 24.6985 7.30152 31.75 16 31.75Z" stroke="white" stroke-width="0.5"/>
<path d="M10.5742 20.5988C10.5742 17.6245 12.9631 15.1953 16.063 15.1953C18.9056 15.1953 21.1879 17.598 21.1879 20.5153C21.1845 20.8165 21.1628 21.1171 21.1229 21.4157H13.0502C13.3947 23.071 14.7724 23.9297 16.3659 23.9297C17.4541 23.9336 18.5185 23.62 19.4216 23.0293L20.3691 24.7466C19.1757 25.5418 17.7654 25.972 16.3191 25.9821C13.2868 25.9821 10.5742 24.0131 10.5742 20.5988V20.5988ZM18.8614 19.7048C18.7691 19.0142 18.4196 18.3805 17.8792 17.9239C17.3387 17.4673 16.6449 17.2195 15.9292 17.2275C14.5514 17.2275 13.3453 18.2113 13.0229 19.6984L18.8614 19.7048Z" fill="white"/>
<path d="M24.7088 10.6919C24.5279 10.6915 24.3546 10.6215 24.2266 10.4972C23.1314 9.42884 21.8303 8.58124 20.3979 8.0029C18.9655 7.42457 17.4299 7.12688 15.879 7.12688C14.3281 7.12688 12.7925 7.42457 11.3601 8.0029C9.92768 8.58124 8.6266 9.42884 7.53141 10.4972C7.40107 10.6087 7.23195 10.6677 7.05848 10.6622C6.885 10.6566 6.72021 10.587 6.59765 10.4674C6.47508 10.3479 6.40396 10.1873 6.39875 10.0186C6.39353 9.84976 6.45463 9.68538 6.5696 9.55887C7.79159 8.36757 9.24306 7.42243 10.8409 6.77757C12.4388 6.13271 14.1517 5.80078 15.8816 5.80078C17.6115 5.80078 19.3244 6.13271 20.9223 6.77757C22.5201 7.42243 23.9716 8.36757 25.1936 9.55887C25.2907 9.65144 25.3572 9.77012 25.3845 9.89969C25.4118 10.0293 25.3987 10.1638 25.3469 10.2861C25.2951 10.4084 25.2069 10.5128 25.0937 10.5861C24.9805 10.6593 24.8474 10.6979 24.7114 10.697L24.7088 10.6919Z" fill="#296FA8"/>
<path d="M22.777 12.568C22.6869 12.5685 22.5975 12.5514 22.5142 12.5177C22.431 12.4841 22.3555 12.4345 22.2922 12.3719C21.4498 11.5505 20.4491 10.8989 19.3475 10.4542C18.2458 10.0096 17.0648 9.78069 15.8722 9.78069C14.6795 9.78069 13.4985 10.0096 12.3969 10.4542C11.2952 10.8989 10.2945 11.5505 9.45209 12.3719C9.38877 12.4335 9.31361 12.4823 9.23091 12.5155C9.1482 12.5488 9.05958 12.5659 8.97008 12.5658C8.88059 12.5658 8.79198 12.5486 8.70932 12.5152C8.62667 12.4818 8.55158 12.4329 8.48834 12.3713C8.4251 12.3097 8.37495 12.2366 8.34076 12.1561C8.30657 12.0756 8.289 11.9894 8.28906 11.9023C8.28912 11.8153 8.30681 11.7291 8.34111 11.6486C8.37541 11.5682 8.42566 11.4952 8.48899 11.4336C9.45785 10.4888 10.6087 9.73926 11.8758 9.22782C13.1428 8.71638 14.5011 8.45313 15.8728 8.45312C17.2446 8.45313 18.6028 8.71638 19.8699 9.22782C21.1369 9.73926 22.2878 10.4888 23.2566 11.4336C23.3538 11.5262 23.4202 11.6449 23.4475 11.7745C23.4749 11.904 23.4618 12.0386 23.41 12.1609C23.3582 12.2832 23.27 12.3876 23.1567 12.4608C23.0435 12.534 22.9104 12.5727 22.7744 12.5717L22.777 12.568Z" fill="#296FA8"/>
<path d="M20.8506 14.4457C20.6699 14.4457 20.4965 14.3762 20.3684 14.2522C19.7792 13.6773 19.0791 13.2212 18.3085 12.91C17.5378 12.5988 16.7115 12.4386 15.8771 12.4386C15.0427 12.4386 14.2164 12.5988 13.4457 12.91C12.675 13.2212 11.975 13.6773 11.3858 14.2522C11.2565 14.3695 11.0854 14.4333 10.9086 14.4303C10.7318 14.4273 10.5632 14.3576 10.4381 14.2359C10.3131 14.1143 10.2415 13.9502 10.2384 13.7782C10.2353 13.6062 10.3009 13.4398 10.4214 13.3139C11.1375 12.6151 11.9884 12.0607 12.9251 11.6824C13.8618 11.3041 14.8661 11.1094 15.8803 11.1094C16.8946 11.1094 17.8988 11.3041 18.8356 11.6824C19.7723 12.0607 20.6231 12.6151 21.3393 13.3139C21.4348 13.4066 21.4998 13.5248 21.5262 13.6535C21.5526 13.7821 21.5391 13.9156 21.4875 14.0368C21.4358 14.158 21.3483 14.2616 21.2361 14.3344C21.1239 14.4072 20.9919 14.4459 20.8571 14.4457H20.8506Z" fill="#296FA8"/>
</g>
<defs>
<linearGradient id="paint0_linear_615_1034" x1="16" y1="0" x2="16" y2="32" gradientUnits="userSpaceOnUse">
<stop stop-color="#FFE9CF"/>
<stop offset="1" stop-color="#448CC9"/>
</linearGradient>
<clipPath id="clip0_615_1034">
<rect width="32" height="32" fill="white"/>
</clipPath>
</defs>
</svg>
