<svg width="32" height="32" viewBox="0 0 32 32" fill="none" xmlns="http://www.w3.org/2000/svg">
<g clip-path="url(#clip0_613_812)">
<path d="M16 32C24.837 32 32 24.837 32 16C32 7.163 24.837 0 16 0C7.163 0 0 7.163 0 16C0 24.837 7.163 32 16 32Z" fill="url(#paint0_linear_613_812)"/>
<path d="M17.9763 6.50379C18.2813 6.03479 19.0093 6.22979 19.0383 6.78879L19.3563 12.8468C19.3693 13.0968 19.5413 13.3098 19.7833 13.3748L25.6433 14.9448C26.1833 15.0898 26.2233 15.8418 25.7003 16.0428L20.0373 18.2168C19.9234 18.2606 19.8262 18.3393 19.7597 18.4417C19.6933 18.5441 19.6609 18.6649 19.6673 18.7868L19.9843 24.8438C20.0143 25.4038 19.3103 25.6728 18.9583 25.2378L15.1403 20.5238C15.0636 20.429 14.9588 20.3609 14.8409 20.3293C14.7231 20.2977 14.5983 20.3041 14.4843 20.3478L8.82134 22.5218C8.29834 22.7218 7.82434 22.1368 8.12934 21.6678L11.4333 16.5798C11.4998 16.4775 11.5322 16.3569 11.5259 16.2351C11.5196 16.1133 11.4749 15.9967 11.3983 15.9018L7.58034 11.1868C7.22834 10.7518 7.63834 10.1208 8.17934 10.2658L14.0393 11.8358C14.1571 11.867 14.2817 11.8602 14.3954 11.8164C14.5091 11.7726 14.606 11.694 14.6723 11.5918L17.9763 6.50379V6.50379Z" fill="url(#paint1_linear_613_812)"/>
<path fill-rule="evenodd" clip-rule="evenodd" d="M12.8592 27.7198C19.3312 29.4538 25.9852 25.6128 27.7192 19.1398C29.4532 12.6668 25.6122 6.01381 19.1392 4.27981C12.6672 2.54581 6.01323 6.38681 4.28023 12.8598C2.54623 19.3318 6.38722 25.9848 12.8602 27.7198H12.8592ZM12.6342 28.5568C19.5692 30.4148 26.6982 26.2988 28.5562 19.3648C30.4142 12.4278 26.3002 5.29981 19.3642 3.44181C12.4292 1.58481 5.30022 5.69981 3.44222 12.6348C1.58422 19.5698 5.69922 26.6998 12.6342 28.5568Z" fill="url(#paint2_linear_613_812)"/>
<path d="M31.75 16C31.75 24.698 24.698 31.75 16 31.75C7.302 31.75 0.25 24.698 0.25 16C0.25 7.302 7.302 0.25 16 0.25C24.698 0.25 31.75 7.302 31.75 16Z" stroke="white" stroke-width="0.5"/>
</g>
<defs>
<linearGradient id="paint0_linear_613_812" x1="16" y1="0" x2="16" y2="32" gradientUnits="userSpaceOnUse">
<stop stop-color="#3E3E3E"/>
<stop offset="1"/>
</linearGradient>
<linearGradient id="paint1_linear_613_812" x1="10.4563" y1="8.93579" x2="19.8833" y2="26.9568" gradientUnits="userSpaceOnUse">
<stop stop-color="#CD7176"/>
<stop offset="0.229" stop-color="#D9AE29"/>
<stop offset="0.495" stop-color="#AFE38F"/>
<stop offset="0.724" stop-color="#65C7D1"/>
<stop offset="1" stop-color="#187DD0"/>
</linearGradient>
<linearGradient id="paint2_linear_613_812" x1="9.10523" y1="4.05881" x2="23.6782" y2="28.1508" gradientUnits="userSpaceOnUse">
<stop stop-color="#A63C00"/>
<stop offset="0.168" stop-color="#775AA8"/>
<stop offset="0.337" stop-color="#DFC136"/>
<stop offset="0.589" stop-color="#AADFBD"/>
<stop offset="0.859" stop-color="#3596DD"/>
<stop offset="0.974" stop-color="#003390"/>
</linearGradient>
<clipPath id="clip0_613_812">
<rect width="32" height="32" fill="white"/>
</clipPath>
</defs>
</svg>
