<svg width="64" height="64" viewBox="0 0 64 64" fill="none" xmlns="http://www.w3.org/2000/svg">
<circle cx="32" cy="32" r="32" fill="#4C5460"/>
<path d="M32.7599 50.6897C28.6435 50.6897 25.2699 49.7093 22.6387 47.7486C20.2223 45.9483 18.6829 43.4388 18.0204 40.2208C17.9192 39.7293 18.2048 39.25 18.6485 39.1238L24.3436 37.5035C24.8351 37.3637 25.3281 37.7085 25.4654 38.2461C25.7631 39.4127 26.1788 40.363 26.7127 41.0971C27.4341 42.0307 28.304 42.7074 29.3224 43.1277C30.3835 43.5009 31.5293 43.6878 32.7599 43.6878C34.6271 43.6878 36.0062 43.3375 36.8975 42.6375C37.7887 41.8905 38.2342 40.9804 38.2342 39.9066C38.2342 38.8332 37.8099 38.0162 36.9612 37.4561C36.1123 36.8493 34.7544 36.3591 32.8872 35.9856L31.1049 35.6356C28.8981 35.1687 26.8824 34.5386 25.0577 33.7452C23.2328 32.9051 21.7688 31.7614 20.6654 30.3141C19.5621 28.8671 19.0105 27.0002 19.0105 24.7129C19.0105 21.2585 20.1562 18.6213 22.4477 16.8006C24.7394 14.9335 27.7524 14 31.4868 14C35.009 14 37.9372 14.8635 40.2711 16.5906C42.3485 18.1279 43.7874 20.0903 44.5872 22.4781C44.7534 22.9741 44.4873 23.5066 44.028 23.6621L38.3323 25.5898C37.8353 25.7581 37.3207 25.4168 37.152 24.8757C36.7645 23.6335 36.1492 22.7156 35.306 22.1221C34.2876 21.3752 33.0145 21.0018 31.4868 21.0018C29.959 21.0018 28.792 21.3052 27.9857 21.912C27.1795 22.4721 26.7763 23.2657 26.7763 24.2928C26.7763 25.413 27.2007 26.2532 28.0494 26.8133C28.8981 27.3267 30.0438 27.7237 31.4868 28.0037L33.2691 28.3537C35.6455 28.8204 37.7887 29.4507 39.6982 30.2441C41.6503 30.9911 43.178 32.0881 44.2814 33.5351C45.4272 34.9354 46 36.8493 46 39.2766C46 42.9176 44.7906 45.7416 42.3717 47.7486C39.9953 49.7093 36.7914 50.6897 32.7599 50.6897Z" fill="white"/>
</svg>
