<svg width="64" height="64" viewBox="0 0 64 64" fill="none" xmlns="http://www.w3.org/2000/svg">
<circle cx="32" cy="32" r="32" fill="#4C5460"/>
<path d="M47.115 42.2846C43.5195 42.2846 40.6104 39.3698 40.6104 35.7792V26.0376H48.9998V20.3713H40.6104V11L34.1822 14.4326V20.3713H21.9904C13.492 20.3713 11.2584 30.6141 17.7957 34.428L24.4418 38.8957C25.9127 39.9854 25.3133 42.2736 23.2432 42.2736H14.2004V47.9944H23.2436C31.7965 47.9944 33.9753 37.7516 27.4383 33.9377L20.8465 29.47C19.3756 28.3803 19.9204 26.0376 21.9906 26.0376H34.1824V35.8556C34.1824 43.2653 39.3031 48 47.0389 48H49V42.2846H47.115Z" fill="white"/>
</svg>
