<svg width="20" height="20" viewBox="0 0 20 20" fill="none" xmlns="http://www.w3.org/2000/svg">
<path d="M9.99991 19.285C15.1279 19.285 19.285 15.1279 19.285 9.99991C19.285 4.87191 15.1279 0.714844 9.99991 0.714844C4.87191 0.714844 0.714844 4.87191 0.714844 9.99991C0.714844 15.1279 4.87191 19.285 9.99991 19.285Z" fill="white"/>
<path d="M9.99934 19.9986C8.68565 20.0023 7.3843 19.7452 6.17057 19.2426C4.95684 18.7399 3.85486 18.0016 2.92841 17.0702C1.99702 16.1438 1.25863 15.042 0.755973 13.8282C0.253319 12.6145 -0.00361684 11.313 4.01675e-05 9.99934C-0.00369573 8.68564 0.253206 7.38418 0.755864 6.17044C1.25852 4.9567 1.99696 3.85488 2.92841 2.92848C3.85481 1.99702 4.95677 1.25844 6.1705 0.755777C7.38424 0.253118 8.68564 -0.00369572 9.99934 4.01809e-05C11.313 -0.00369572 12.6144 0.253118 13.8282 0.755777C15.0419 1.25844 16.1439 1.99702 17.0703 2.92848C18.0017 3.85488 18.7402 4.9567 19.2428 6.17044C19.7455 7.38418 20.0024 8.68564 19.9986 9.99934C20.0023 11.313 19.7454 12.6145 19.2427 13.8282C18.7401 15.042 18.0017 16.1438 17.0703 17.0702C16.1438 18.0016 15.0418 18.7399 13.8281 19.2426C12.6144 19.7452 11.313 20.0023 9.99934 19.9986ZM9.99934 1.42851C7.72697 1.43097 5.54838 2.33478 3.94157 3.94159C2.33476 5.5484 1.43097 7.72697 1.42851 9.99934C1.43097 12.2717 2.33476 14.4503 3.94157 16.0571C5.54838 17.6639 7.72697 18.5677 9.99934 18.5702C12.2717 18.5677 14.4503 17.6639 16.0571 16.0571C17.6639 14.4503 18.5677 12.2717 18.5702 9.99934C18.5677 7.72697 17.6639 5.5484 16.0571 3.94159C14.4503 2.33478 12.2717 1.43097 9.99934 1.42851Z" fill="#DA3A14"/>
<path opacity="0.7" d="M9.2863 19.9742V18.5408C9.52438 18.5608 9.76246 18.5708 10.0005 18.5708C10.2386 18.5708 10.4767 18.5611 10.7148 18.5415V19.9749C10.4767 19.9916 10.2386 20 10.0005 20C9.76246 20 9.52438 19.9913 9.2863 19.9742ZM15.533 16.5411C15.8967 16.2329 16.2343 15.8951 16.5422 15.5311L17.5586 16.5474C17.4034 16.7264 17.241 16.9004 17.0715 17.0695C16.902 17.2385 16.7279 17.401 16.5494 17.5567L15.533 16.5411ZM2.93102 17.0702C2.76151 16.9007 2.59891 16.7264 2.44321 16.5474L3.45957 15.5311C3.76776 15.8951 4.10556 16.2329 4.4695 16.5411L3.45314 17.5574C3.27411 17.4021 3.09959 17.2397 2.92961 17.0702H2.93102ZM18.5421 10.7135C18.5616 10.4755 18.5714 10.2374 18.5714 9.9993C18.5714 9.76122 18.5616 9.52315 18.5421 9.28507H19.9756C19.9922 9.52315 20.0006 9.76122 20.0006 9.9993C20.0006 10.2374 19.9922 10.4755 19.9756 10.7135H18.5421ZM0.026954 10.7135C0.0102885 10.4755 0.00195312 10.2374 0.00195312 9.9993C0.00195312 9.76122 0.0102885 9.52315 0.026954 9.28507H1.46042C1.44089 9.52315 1.43114 9.76122 1.43114 9.9993C1.43114 10.2374 1.44089 10.4755 1.46042 10.7135H0.026954ZM2.44321 3.45191C2.59891 3.27287 2.76151 3.09887 2.93102 2.92983C3.10053 2.7608 3.27483 2.59811 3.45386 2.44193L4.4695 3.45749C4.10562 3.76601 3.76783 4.10406 3.45957 4.46816L2.44321 3.45191ZM15.533 3.45749L16.5487 2.44193C16.7277 2.59764 16.902 2.76032 17.0715 2.92983C17.241 3.09934 17.4034 3.27335 17.5586 3.45191L16.5422 4.46816C16.2341 4.10396 15.8963 3.76589 15.5323 3.45749H15.533ZM9.2863 0.0251099C9.52438 0.00844435 9.76246 0 10.0005 0C10.2386 0 10.4767 0.00844435 10.7148 0.0251099V1.45707C10.4791 1.43755 10.241 1.42777 10.0005 1.42777C9.76008 1.42777 9.522 1.43777 9.2863 1.45777V0.0251099Z" fill="white"/>
<circle cx="10.0007" cy="10.0007" r="5.99877" fill="url(#paint0_linear_4899_68716)"/>
<path fill-rule="evenodd" clip-rule="evenodd" d="M10.0007 15.8195C13.2144 15.8195 15.8195 13.2144 15.8195 10.0007C15.8195 6.78709 13.2144 4.18192 10.0007 4.18192C6.78709 4.18192 4.18192 6.78709 4.18192 10.0007C4.18192 13.2144 6.78709 15.8195 10.0007 15.8195ZM10.0007 15.9995C13.3138 15.9995 15.9995 13.3138 15.9995 10.0007C15.9995 6.6877 13.3138 4.00195 10.0007 4.00195C6.6877 4.00195 4.00195 6.6877 4.00195 10.0007C4.00195 13.3138 6.6877 15.9995 10.0007 15.9995Z" fill="white"/>
<path fill-rule="evenodd" clip-rule="evenodd" d="M10.0597 4.07169V4.03125L9.9826 4.06489L8.16439 4.35324L6.50864 5.19644L5.1948 6.51027L4.37899 8.11219L4.33995 8.09949L4.34841 8.186L4.06055 10.0013L4.35158 11.8367L5.1948 13.4924L6.46563 14.7632L6.44198 14.7958L6.52347 14.8138L8.16437 15.6502L9.9997 15.9413L11.835 15.6502L13.4358 14.8343L13.4596 14.8671L13.502 14.795L14.8046 13.4924L15.6485 11.8367L15.9396 10.0013L15.6582 8.22674L15.6964 8.21429L15.6417 8.15262L14.8046 6.51026L13.4908 5.19644L11.835 4.35324L10.0597 4.07169ZM15.3252 7.79575L14.7462 6.65994L14.5511 6.92314L15.3252 7.79575ZM13.871 7.63916L14.3856 6.94491L13.0537 6.17715L13.871 7.63916ZM12.1766 7.25367L13.7663 7.78028L12.9039 8.94365L12.1766 7.25367ZM12.055 7.27452L12.7897 8.98179L11.0668 8.63467L12.055 7.27452ZM13.7628 5.63819L14.4789 6.81902L14.6768 6.55214L13.7628 5.63819ZM14.3016 6.75802L13.4503 5.35415L12.9827 5.99772L14.3016 6.75802ZM13.7362 7.64389L12.8885 6.1274L12.1648 7.12337L13.7362 7.64389ZM11.0526 8.75421L11.5846 10.3926L12.7737 9.10095L11.0526 8.75421ZM13.2651 10.9991L12.8568 9.18781L11.6673 10.48L13.2651 10.9991ZM12.9717 9.15164L14.3521 9.58543L13.3761 10.9456L12.9717 9.15164ZM14.5203 9.63828L14.7188 11.3008L15.3447 9.89735L14.5203 9.63828ZM15.4943 9.94439L15.6088 11.321L15.8113 10.044L15.4943 9.94439ZM15.5227 11.7326L15.3867 10.0977L14.7671 11.4871L15.5227 11.7326ZM14.6144 11.4375L13.4437 11.0571L14.4083 9.71284L14.6144 11.4375ZM12.9982 9.03422L14.3568 9.46115L13.8428 7.87867L12.9944 9.02303L13.0063 9.02543L12.9982 9.03422ZM15.8046 9.91613L15.4915 9.81772L15.6049 8.65698L15.8046 9.91613ZM15.0265 8.43217L15.5221 8.27099L15.3953 9.56787L15.0265 8.43217ZM15.3343 9.76833L14.9429 8.56325L14.5309 9.51585L15.3343 9.76833ZM13.9517 7.73173L14.8447 8.26099L14.4529 7.05564L13.9517 7.73173ZM13.7437 14.3837L14.6439 13.4835L14.3337 13.3794L13.7437 14.3837ZM13.442 12.9534L14.262 13.2287L14.5806 11.7242L13.442 12.9534ZM13.2861 11.2225L13.2756 12.8975L11.9038 12.4369L13.2861 11.2225ZM13.2285 11.1134L11.8323 12.3401L11.6295 10.5939L13.2285 11.1134ZM14.577 11.5515L13.4064 11.1712L13.396 12.8265L14.577 11.5515ZM14.4138 13.0911L14.7293 11.601L15.4864 11.847L14.4138 13.0911ZM14.7251 13.3842L15.3117 12.2333L14.4105 13.2786L14.7251 13.3842ZM11.5115 10.6176L10.118 11.63L11.714 12.3618L11.5115 10.6176ZM10.0597 13.4157V11.7352L11.6567 12.4675L10.0597 13.4157ZM11.7269 12.5654L11.7409 14.0128L10.1452 13.5045L11.7269 12.5654ZM11.7426 14.1883L10.2222 14.8913L11.751 15.0531L11.7426 14.1883ZM11.7525 15.2098L10.4812 15.7434L11.7557 15.5413L11.7525 15.2098ZM10.0597 15.7902L11.5732 15.155L10.0597 14.9948V15.7902ZM10.0597 14.8343L11.6362 14.1053L10.0597 13.6032V14.8343ZM11.8468 12.5547L11.8606 13.9778L13.2054 13.0005L11.8563 12.5476L11.8578 12.5597L11.8468 12.5547ZM11.8753 15.495L11.8721 15.1679L13.0082 14.9175L11.8753 15.495ZM13.0456 14.2973L13.352 14.7189L12.079 14.9995L13.0456 14.2973ZM11.8705 15.0026L12.8952 14.2582L11.8623 14.1609L11.8705 15.0026ZM13.379 13.0588L13.1521 14.0715L14.1773 13.3268L13.379 13.0588ZM6.98887 14.9164L8.12329 15.4946L8.12647 15.1671L6.98887 14.9164ZM9.77717 14.8906L8.24756 15.0525L8.25595 14.1874L9.77717 14.8906ZM9.85415 13.5044L8.25765 14.0121L8.27168 12.5646L9.85415 13.5044ZM9.9397 11.7352L8.342 12.4668L9.9397 13.4156V11.7352ZM8.3626 14.1046L9.9397 13.6031V14.8335L8.3626 14.1046ZM8.42617 15.1542L9.9397 14.994V15.7894L8.42617 15.1542ZM8.24282 15.5412L9.52119 15.7439L8.24605 15.2087L8.24282 15.5412ZM9.88137 11.6299L8.28472 12.3611L8.48785 10.6176L9.88137 11.6299ZM8.09417 12.4364L6.71317 11.2225L6.72299 12.8966L8.09417 12.4364ZM8.16638 12.3401L8.36982 10.5939L6.77091 11.1135L8.16638 12.3401ZM6.59289 11.1713L6.6026 12.8265L5.42189 11.5519L6.59289 11.1713ZM5.26933 11.6014L5.58479 13.0903L4.51301 11.8472L5.26933 11.6014ZM4.68925 12.2353L5.58789 13.2776L5.27376 13.3831L4.68925 12.2353ZM5.73655 13.2277L5.41798 11.7242L6.55592 12.9527L5.73655 13.2277ZM8.1423 12.5468L6.7924 12.9999L8.138 13.9771L8.1518 12.5539L8.14088 12.5589L8.1423 12.5468ZM5.35457 13.4825L5.66414 13.3786L6.25438 14.3823L5.35457 13.4825ZM6.85522 14.226L6.54953 14.6475L5.8888 13.5239L6.85522 14.226ZM5.82055 13.3261L6.8458 14.0708L6.61937 13.0579L5.82055 13.3261ZM8.13623 14.1602L7.10282 14.2575L8.12807 15.0018L8.13623 14.1602ZM4.39473 8.65992L4.19571 9.91501L4.50782 9.81693L4.39473 8.65992ZM4.39037 11.3152L4.50498 9.94358L4.18863 10.043L4.39037 11.3152ZM5.28114 11.3007L4.65466 9.89654L5.47922 9.63742L5.28114 11.3007ZM6.62328 10.9456L5.64678 9.58477L7.02787 9.15076L6.62328 10.9456ZM6.73416 10.9993L7.14263 9.18725L8.33214 10.48L6.73416 10.9993ZM5.59106 9.7129L6.55575 11.0573L5.38567 11.4375L5.59106 9.7129ZM4.61258 10.0967L5.23293 11.4871L4.47585 11.7331L4.61258 10.0967ZM8.41474 10.3926L8.94678 8.75415L7.22561 9.10023L8.41474 10.3926ZM7.83406 7.12273L6.26322 7.64375L7.11063 6.12706L7.83406 7.12273ZM7.9441 7.27419L7.20882 8.98123L8.93255 8.63464L7.9441 7.27419ZM7.09499 8.94221L7.82262 7.25293L6.23344 7.78003L7.09499 8.94221ZM6.12864 7.63865L5.61375 6.9441L6.94571 6.17627L6.12864 7.63865ZM5.52043 6.81821L6.23523 5.63952L5.32294 6.55181L5.52043 6.81821ZM6.54881 5.3538L5.69774 6.7572L7.01623 5.99713L6.54881 5.3538ZM7.00496 9.02222L6.1568 7.87811L5.64284 9.46025L7.00109 9.03341L6.993 9.02463L7.00496 9.02222ZM5.25344 6.65952L5.44826 6.92232L4.67653 7.79232L5.25344 6.65952ZM5.00985 8.31737L4.51417 8.15616L5.37933 7.18083L5.00985 8.31737ZM5.54646 7.05479L5.15451 8.26046L6.04811 7.73149L5.54646 7.05479ZM5.46818 9.51513L5.05637 8.56262L4.6651 9.7675L5.46818 9.51513ZM9.54566 4.25566L8.28815 4.45508L8.47805 4.72178L9.54566 4.25566ZM7.01443 5.07349L8.3567 4.75819L8.16426 4.48794L7.01443 5.07349ZM7.30589 5.91533L8.44768 4.88597L8.94888 5.58986L7.30589 5.91533ZM8.05879 7.08188L9.05086 5.73307L9.89033 6.91202L8.05879 7.08188ZM8.04139 7.20398L9.89126 7.03242L9.02931 8.56369L8.04139 7.20398ZM8.91192 5.71949L7.93139 7.05259L7.20805 6.05702L8.91192 5.71949ZM8.24423 4.90785L7.11365 5.92711L6.64589 5.28331L8.24423 4.90785ZM9.13801 8.61516H10.8613L9.99964 7.08448L9.13801 8.61516ZM13.3535 5.2833L11.7557 4.90785L12.8857 5.92709L13.3535 5.2833ZM12.7913 6.05702L11.0875 5.7195L12.0683 7.05211L12.7913 6.05702ZM11.958 7.20392L10.108 7.03241L10.97 8.56375L11.958 7.20392ZM10.109 6.91201L11.9412 7.08187L10.9485 5.73302L10.109 6.91201ZM11.0504 5.58985L11.5519 4.88556L12.6936 5.91535L11.0504 5.58985ZM11.6427 4.75804L11.8351 4.4879L12.9849 5.07344L11.6427 4.75804ZM10.0056 6.85041L10.8314 5.69063H9.16792L9.99373 6.85039L9.99964 6.83989L10.0056 6.85041ZM11.7112 4.45507L11.5214 4.72153L10.454 4.2557L11.7112 4.45507ZM10.0597 4.73607V4.21452L11.2548 4.73607H10.0597ZM11.4256 4.85605H10.1586L10.9374 5.54176L11.4256 4.85605ZM9.06192 5.54176L9.84075 4.85604H8.57365L9.06192 5.54176ZM9.21067 5.57065L9.99967 4.87598L10.7886 5.57065H9.21067ZM8.74517 4.73607H9.93968V4.21454L8.74517 4.73607ZM8.53377 10.4145L9.05639 8.80508L9.90258 9.96973L8.53377 10.4145ZM9.9397 11.524L8.56994 10.5289L9.9397 10.0838V11.524ZM11.4295 10.5289L10.0597 11.524V10.0838L11.4295 10.5289ZM10.943 8.80505L11.4656 10.4145L10.0968 9.96972L10.943 8.80505ZM10.8455 8.73513L9.99967 9.89924L9.15387 8.73513H10.8455ZM4.47719 8.27029L4.97282 8.43149L4.60397 9.56729L4.47719 8.27029ZM6.02939 7.88199L5.12442 8.41769L5.54177 9.38304L6.02939 7.88199ZM6.64658 14.7181L6.9523 14.2965L7.91942 14.9986L6.64658 14.7181ZM6.75668 13.1222L6.98598 14.148L8.03335 14.0493L6.75668 13.1222ZM13.449 14.6484L13.1426 14.2267L14.1093 13.5245L13.449 14.6484ZM11.9651 14.0501L13.0119 14.1487L13.2418 13.1224L11.9651 14.0501ZM13.97 7.88205L14.8749 8.41834L14.4576 9.38306L13.97 7.88205ZM14.62 7.18159L14.9894 8.31807L15.4851 8.15686L14.62 7.18159Z" fill="white"/>
<defs>
<linearGradient id="paint0_linear_4899_68716" x1="4.00195" y1="4.00195" x2="15.9995" y2="15.9995" gradientUnits="userSpaceOnUse">
<stop stop-color="#FF8887"/>
<stop offset="1" stop-color="#970615"/>
</linearGradient>
</defs>
</svg>
