<svg width="32" height="32" viewBox="0 0 32 32" fill="none" xmlns="http://www.w3.org/2000/svg">
<path d="M27.1369 27.1369C24.1832 30.0906 20.1772 31.75 16 31.75C11.8228 31.75 7.81677 30.0906 4.86307 27.1369C1.90937 24.1832 0.25 20.1772 0.25 16C0.25 11.8228 1.90937 7.81677 4.86307 4.86307C7.81677 1.90937 11.8228 0.25 16 0.25C20.1772 0.25 24.1832 1.90937 27.1369 4.86307C30.0906 7.81677 31.75 11.8228 31.75 16C31.75 20.1772 30.0906 24.1832 27.1369 27.1369Z" fill="url(#paint0_linear_4899_68744)" stroke="white" stroke-width="0.5"/>
<circle cx="15.997" cy="15.997" r="12.0009" fill="url(#paint1_linear_4899_68744)"/>
<path fill-rule="evenodd" clip-rule="evenodd" d="M15.997 27.6378C22.426 27.6378 27.6378 22.426 27.6378 15.997C27.6378 9.5679 22.426 4.35612 15.997 4.35612C9.5679 4.35612 4.35612 9.5679 4.35612 15.997C4.35612 22.426 9.5679 27.6378 15.997 27.6378ZM15.997 27.9978C22.6248 27.9978 27.9978 22.6248 27.9978 15.997C27.9978 9.36906 22.6248 3.99609 15.997 3.99609C9.36906 3.99609 3.99609 9.36906 3.99609 15.997C3.99609 22.6248 9.36906 27.9978 15.997 27.9978Z" fill="white"/>
<path fill-rule="evenodd" clip-rule="evenodd" d="M16.1168 4.13559V4.05469L15.9626 4.12199L12.3252 4.69884L9.01276 6.38571L6.38438 9.0141L4.7523 12.2188L4.6742 12.1934L4.69112 12.3665L4.11523 15.9981L4.69745 19.6698L6.38438 22.9822L8.92672 25.5246L8.87942 25.5898L9.04243 25.6257L12.3252 27.299L15.9968 27.8813L19.6685 27.299L22.8708 25.6667L22.9186 25.7324L23.0033 25.5882L25.6092 22.9822L27.2976 19.6698L27.8799 15.9981L27.3169 12.448L27.3934 12.4231L27.2839 12.2997L25.6092 9.01408L22.9809 6.38571L19.6685 4.69884L16.1168 4.13559ZM26.6507 11.5858L25.4925 9.31352L25.1021 9.84007L26.6507 11.5858ZM23.7415 11.2725L24.7711 9.88362L22.1065 8.34766L23.7415 11.2725ZM20.3519 10.5013L23.5322 11.5548L21.8068 13.8822L20.3519 10.5013ZM20.1086 10.543L21.5784 13.9585L18.1315 13.2641L20.1086 10.543ZM23.5252 7.26945L24.9578 9.63177L25.3536 9.09785L23.5252 7.26945ZM24.6031 9.50974L22.8999 6.70122L21.9644 7.98871L24.6031 9.50974ZM23.4718 11.282L21.7759 8.24815L20.3283 10.2406L23.4718 11.282ZM18.1032 13.5032L19.1676 16.7809L21.5464 14.1969L18.1032 13.5032ZM22.5295 17.9943L21.7127 14.3707L19.3329 16.9557L22.5295 17.9943ZM21.9424 14.2983L24.704 15.1661L22.7514 17.8872L21.9424 14.2983ZM25.0404 15.2718L25.4377 18.5977L26.6897 15.7901L25.0404 15.2718ZM26.9891 15.8842L27.2182 18.6382L27.6233 16.0835L26.9891 15.8842ZM27.0458 19.4616L26.7738 16.1909L25.5343 18.9705L27.0458 19.4616ZM25.2287 18.8712L22.8867 18.1103L24.8165 15.421L25.2287 18.8712ZM21.9955 14.0634L24.7134 14.9175L23.685 11.7516L21.9879 14.041L22.0117 14.0458L21.9955 14.0634ZM27.6098 15.8277L26.9834 15.6308L27.2104 13.3087L27.6098 15.8277ZM26.0532 12.859L27.0447 12.5365L26.7911 15.131L26.0532 12.859ZM26.6689 15.532L25.886 13.1212L25.0616 15.0269L26.6689 15.532ZM23.903 11.4577L25.6896 12.5165L24.9056 10.1051L23.903 11.4577ZM23.4868 24.7652L25.2877 22.9643L24.6673 22.756L23.4868 24.7652ZM22.8833 21.9039L24.5237 22.4547L25.1612 19.4448L22.8833 21.9039ZM22.5714 18.4411L22.5505 21.7921L19.8061 20.8707L22.5714 18.4411ZM22.4562 18.2228L19.6629 20.6769L19.2574 17.1836L22.4562 18.2228ZM25.154 19.0993L22.8121 18.3385L22.7914 21.65L25.154 19.0993ZM24.8274 22.1793L25.4587 19.1984L26.9732 19.6904L24.8274 22.1793ZM25.4502 22.7657L26.6237 20.4634L24.8209 22.5544L25.4502 22.7657ZM19.0213 17.231L16.2334 19.2563L19.4264 20.7204L19.0213 17.231ZM16.1168 22.8288V19.4669L19.3118 20.9319L16.1168 22.8288ZM19.4522 21.1277L19.4802 24.0232L16.2879 23.0064L19.4522 21.1277ZM19.4836 24.3744L16.4419 25.7809L19.5004 26.1046L19.4836 24.3744ZM19.5034 26.418L16.9601 27.4855L19.5099 27.0811L19.5034 26.418ZM16.1168 27.5791L19.1448 26.3083L16.1168 25.9878V27.5791ZM16.1168 25.6667L19.2707 24.2084L16.1168 23.2038V25.6667ZM19.692 21.1063L19.7196 23.9532L22.41 21.9982L19.7111 21.092L19.714 21.1164L19.692 21.1063ZM19.749 26.9885L19.7427 26.3341L22.0156 25.8332L19.749 26.9885ZM22.0903 24.5924L22.7032 25.4359L20.1565 25.9972L22.0903 24.5924ZM19.7395 26.0034L21.7894 24.5143L19.7231 24.3196L19.7395 26.0034ZM22.7573 22.1148L22.3034 24.1408L24.3543 22.651L22.7573 22.1148ZM9.9735 25.8309L12.243 26.9877L12.2493 26.3324L9.9735 25.8309ZM15.5516 25.7793L12.4916 26.1032L12.5083 24.3727L15.5516 25.7793ZM15.7056 23.0062L12.5117 24.0218L12.5398 21.1261L15.7056 23.0062ZM15.8768 19.4668L12.6805 20.9305L15.8768 22.8286V19.4668ZM12.7217 24.2069L15.8768 23.2036V25.6652L12.7217 24.2069ZM12.8489 26.3067L15.8768 25.9862V27.5775L12.8489 26.3067ZM12.4821 27.0809L15.0395 27.4864L12.4885 26.4158L12.4821 27.0809ZM15.7601 19.2562L12.5659 20.719L12.9723 17.231L15.7601 19.2562ZM12.1847 20.8695L9.42195 18.4411L9.44158 21.7903L12.1847 20.8695ZM12.3292 20.677L12.7362 17.1837L9.53746 18.2231L12.3292 20.677ZM9.18132 18.3388L9.20074 21.6501L6.83867 19.1L9.18132 18.3388ZM6.53347 19.1992L7.16457 22.1778L5.02042 19.6909L6.53347 19.1992ZM5.37299 20.4674L7.17077 22.5525L6.54233 22.7635L5.37299 20.4674ZM7.46817 22.4527L6.83085 19.4448L9.10736 21.9025L7.46817 22.4527ZM12.281 21.0904L9.58044 21.9969L12.2724 23.9518L12.3 21.1047L12.2782 21.1147L12.281 21.0904ZM6.70399 22.9624L7.3233 22.7545L8.50411 24.7625L6.70399 22.9624ZM9.70613 24.4497L9.09456 25.2931L7.77276 23.0453L9.70613 24.4497ZM7.63621 22.6495L9.68728 24.1394L9.2343 22.1131L7.63621 22.6495ZM12.2688 24.3181L10.2015 24.5128L12.2525 26.0018L12.2688 24.3181ZM4.78379 13.3146L4.38564 15.8254L5.01004 15.6292L4.78379 13.3146ZM4.77506 18.6267L5.00434 15.8826L4.37147 16.0815L4.77506 18.6267ZM6.55709 18.5976L5.30378 15.7885L6.95337 15.2701L6.55709 18.5976ZM9.24212 17.8872L7.28857 15.1648L10.0515 14.2965L9.24212 17.8872ZM9.46393 17.9946L10.2811 14.3695L12.6608 16.9558L9.46393 17.9946ZM7.1771 15.4211L9.10703 18.1106L6.76622 18.8712L7.1771 15.4211ZM5.2196 16.1889L6.46065 18.9705L4.94606 19.4627L5.2196 16.1889ZM12.826 16.7809L13.8904 13.5031L10.4471 14.1955L12.826 16.7809ZM11.6643 10.2394L8.5218 11.2817L10.2171 8.24746L11.6643 10.2394ZM11.8845 10.5424L10.4135 13.9574L13.8619 13.264L11.8845 10.5424ZM10.1858 13.8793L11.6415 10.4998L8.46222 11.5543L10.1858 13.8793ZM8.25255 11.2715L7.22249 9.88199L9.88715 8.3459L8.25255 11.2715ZM7.0358 9.63015L8.4658 7.27211L6.64071 9.0972L7.0358 9.63015ZM9.09313 6.70052L7.39053 9.50808L10.0282 7.98753L9.09313 6.70052ZM10.0057 14.0394L8.3089 11.7505L7.2807 14.9157L9.99794 14.0618L9.98177 14.0442L10.0057 14.0394ZM6.50167 9.31267L6.89143 9.83843L5.34753 11.5789L6.50167 9.31267ZM6.01436 12.6293L5.02272 12.3068L6.75353 10.3556L6.01436 12.6293ZM7.08788 10.1034L6.30376 12.5154L8.09146 11.4572L7.08788 10.1034ZM6.93127 15.0255L6.10744 13.1199L5.32467 15.5304L6.93127 15.0255ZM15.0885 4.50363L12.5728 4.90259L12.9527 5.43613L15.0885 4.50363ZM10.0246 6.13975L12.7099 5.50897L12.3249 4.96831L10.0246 6.13975ZM10.6077 7.82389L12.8919 5.7646L13.8946 7.17276L10.6077 7.82389ZM12.1139 10.1576L14.0986 7.45927L15.778 9.81782L12.1139 10.1576ZM12.0791 10.4019L15.7799 10.0587L14.0555 13.1221L12.0791 10.4019ZM13.8206 7.4321L11.8591 10.099L10.412 8.10735L13.8206 7.4321ZM12.4849 5.80837L10.2231 7.84744L9.28735 6.55949L12.4849 5.80837ZM14.273 13.225H17.7204L15.9967 10.1628L14.273 13.225ZM22.7062 6.55948L19.5099 5.80836L21.7704 7.84742L22.7062 6.55948ZM21.5815 8.10735L18.173 7.43212L20.1351 10.0981L21.5815 8.10735ZM19.9145 10.4018L16.2135 10.0587L17.9379 13.1222L19.9145 10.4018ZM16.2154 9.8178L19.8809 10.1576L17.8949 7.45917L16.2154 9.8178ZM18.0988 7.17275L19.1021 5.76377L21.386 7.82394L18.0988 7.17275ZM19.2837 5.50867L19.6686 4.96824L21.9688 6.13964L19.2837 5.50867ZM16.0085 9.69456L17.6606 7.37435H14.3328L15.9849 9.69452L15.9967 9.67353L16.0085 9.69456ZM19.4207 4.90256L19.0411 5.43562L16.9056 4.50371L19.4207 4.90256ZM16.1168 5.46473V4.42133L18.5077 5.46473H16.1168ZM18.8495 5.70474H16.3147L17.8727 7.07653L18.8495 5.70474ZM14.1207 7.07655L15.6788 5.70473H13.1439L14.1207 7.07655ZM14.4183 7.13434L15.9967 5.74462L17.5751 7.13434H14.4183ZM13.4871 5.46471H15.8767V4.42137L13.4871 5.46471ZM13.0641 16.8247L14.1097 13.605L15.8025 15.9349L13.0641 16.8247ZM15.8768 19.0443L13.1365 17.0536L15.8768 16.1632V19.0443ZM18.8572 17.0535L16.1168 19.0444V16.1632L18.8572 17.0535ZM17.8839 13.6049L18.9294 16.8246L16.191 15.9349L17.8839 13.6049ZM17.6888 13.465L15.9968 15.7939L14.3047 13.465H17.6888ZM4.94876 12.5351L5.94027 12.8576L5.20238 15.1298L4.94876 12.5351ZM8.05402 11.7583L6.24357 12.83L7.07851 14.7612L8.05402 11.7583ZM9.28872 25.4342L9.90034 24.5908L11.8351 25.9954L9.28872 25.4342ZM9.50898 22.2416L9.96772 24.2937L12.063 24.0964L9.50898 22.2416ZM22.8973 25.2948L22.2844 24.4512L24.2183 23.0465L22.8973 25.2948ZM19.9288 24.0979L22.0228 24.2952L22.4828 22.2419L19.9288 24.0979ZM23.9396 11.7584L25.7499 12.8313L24.915 14.7613L23.9396 11.7584ZM25.2399 10.3571L25.9791 12.6307L26.9706 12.3082L25.2399 10.3571Z" fill="white"/>
<defs>
<linearGradient id="paint0_linear_4899_68744" x1="16" y1="0" x2="16" y2="32" gradientUnits="userSpaceOnUse">
<stop stop-color="#F9F9F9"/>
<stop offset="1" stop-color="#E6E6E6"/>
</linearGradient>
<linearGradient id="paint1_linear_4899_68744" x1="3.99609" y1="3.99609" x2="27.9978" y2="27.9978" gradientUnits="userSpaceOnUse">
<stop stop-color="#FF8887"/>
<stop offset="1" stop-color="#970615"/>
</linearGradient>
</defs>
</svg>
