<svg width="64" height="64" viewBox="0 0 64 64" fill="none" xmlns="http://www.w3.org/2000/svg">
<path d="M64 32C64 49.6731 49.6731 64 32 64C14.3269 64 0 49.6731 0 32C0 14.3269 14.3269 0 32 0C49.6731 0 64 14.3269 64 32Z" fill="url(#paint0_linear_714_10992)"/>
<path fill-rule="evenodd" clip-rule="evenodd" d="M46.4186 17.8934C50.6907 19.3508 53.7729 21.8254 54.1772 25.1177C54.5815 28.4099 52.1895 31.5567 48.3968 34.0044C44.5657 36.4769 39.1277 38.3662 32.9898 39.1198C26.852 39.8734 21.1184 39.3559 16.803 37.8836C12.5308 36.4262 9.44861 33.9516 9.04437 30.6593C8.64013 27.367 11.0321 24.2203 14.8248 21.7726C18.6559 19.3001 24.0939 17.4108 30.2318 16.6572C36.3696 15.9036 42.1031 16.4211 46.4186 17.8934ZM46.0349 19.018C41.9234 17.6153 36.3761 17.0999 30.3766 17.8366C24.377 18.5732 19.1191 20.4153 15.4691 22.771C11.7807 25.1514 9.90635 27.9295 10.2237 30.5145C10.5411 33.0995 13.0319 35.3416 17.1866 36.759C21.2981 38.1617 26.8454 38.6771 32.845 37.9404L32.9174 38.5301L32.845 37.9404C38.8446 37.2038 44.1025 35.3617 47.7525 33.006C51.4409 30.6256 53.3152 27.8474 52.9978 25.2625C52.6804 22.6775 50.1897 20.4354 46.0349 19.018Z" fill="white"/>
<path fill-rule="evenodd" clip-rule="evenodd" d="M46.6247 33.8178C44.0998 43.9935 38.2899 51.083 32.0467 50.6464C27.0309 50.2957 22.9657 45.2966 21 37.8881C21 37.7535 21.1282 37.784 21.3317 37.8322C21.53 37.8793 21.7999 37.9433 22.0922 37.8881C22.7558 37.9203 23.5213 37.9231 24.4886 37.9265C24.8444 37.9278 25.2276 37.9292 25.643 37.9322C28.2648 37.951 31.3104 37.8676 32.816 37.6495C34.2697 37.4389 38.5444 36.614 41.5467 35.7113C43.7412 35.0515 45.2088 34.425 45.9848 34.0604C46.1473 33.984 46.2837 33.9004 46.3888 33.836C46.5737 33.7227 46.6616 33.6687 46.6247 33.8178ZM42.06 40.438C42.2099 41.1434 40.5585 45.499 37.1065 46.2328C36.0471 46.458 35.4995 46.4336 34.5906 46.393C34.4055 46.3847 34.2053 46.3758 33.9829 46.3682C31.7384 46.2913 29.7101 45.3343 29.6155 44.8895C29.5229 44.4537 30.8586 44.2771 32.7072 44.0328C33.8506 43.8816 35.1902 43.7046 36.5095 43.4241C38.6371 42.9719 40.1936 41.6748 41.1099 40.9113C41.6802 40.436 42.0025 40.1674 42.06 40.438Z" fill="white"/>
<g filter="url(#filter0_f_714_10992)">
<path fill-rule="evenodd" clip-rule="evenodd" d="M50.207 20.0744C50.5108 21.3761 50.6677 23.042 50.6677 25.1407C50.6677 29.3156 50.1273 32.0939 49.0937 33.8719C48.0241 35.7118 46.4625 36.4228 44.6595 36.5442C42.9465 36.6596 40.9715 36.2454 38.9595 35.8235L38.8507 35.8007C36.7651 35.3635 34.5967 34.915 32.4193 34.915C30.3255 34.915 28.2273 35.7835 26.2054 36.9055C25.2531 37.4339 24.3349 38.0084 23.4504 38.5618C23.3998 38.5934 23.3493 38.625 23.299 38.6565C22.3756 39.234 21.4819 39.7888 20.6537 40.2137C19.8323 40.635 19.0197 40.9587 18.2592 41.0312C17.4667 41.1067 16.7181 40.9083 16.1108 40.2902C15.5334 39.7025 15.141 38.792 14.8861 37.5651C14.629 36.3281 14.498 34.7009 14.498 32.6079C14.498 28.4353 14.938 25.5519 15.7874 23.5938C16.6552 21.593 17.9538 20.5559 19.5818 20.1193C21.1492 19.6989 22.9815 19.8494 24.8955 20.0765C25.2365 20.1169 25.5814 20.16 25.9302 20.2036C27.5758 20.4093 29.3075 20.6257 31.1255 20.6257C33.2478 20.6257 35.4633 19.8759 37.6498 18.9524C38.3252 18.6671 39.0042 18.3619 39.6753 18.0602C41.1257 17.4081 42.5394 16.7726 43.8006 16.3909C45.6507 15.831 47.4897 15.7137 48.8113 17.1234C49.445 17.7993 49.9037 18.7753 50.207 20.0744ZM38.1121 20.047C35.9025 20.9802 33.5007 21.8139 31.1255 21.8139C29.2263 21.8139 27.4079 21.5863 25.7605 21.3801C25.4178 21.3372 25.0825 21.2952 24.7555 21.2564C22.8199 21.0268 21.2061 20.9139 19.8896 21.267C18.6335 21.6039 17.6104 22.377 16.8775 24.0667C16.1261 25.799 15.6863 28.4862 15.6863 32.6079C15.6863 34.662 15.8157 36.1987 16.0494 37.3233C16.2852 38.458 16.6141 39.1069 16.9584 39.4574C17.2728 39.7774 17.6463 39.896 18.1464 39.8483C18.6786 39.7976 19.3291 39.5577 20.1114 39.1564C20.8869 38.7586 21.7375 38.2316 22.6689 37.6491C22.7212 37.6164 22.7738 37.5835 22.8265 37.5505C23.7057 37.0004 24.6484 36.4106 25.6288 35.8665C27.6991 34.7177 30.0155 33.7268 32.4193 33.7268C34.7394 33.7268 37.0265 34.2043 39.0944 34.6377C41.1984 35.0788 43.0344 35.4627 44.5797 35.3587C46.0659 35.2586 47.2313 34.7113 48.0664 33.2747C48.9375 31.7763 49.4795 29.26 49.4795 25.1407C49.4795 23.0923 49.3254 21.5253 49.0498 20.3445C48.7736 19.1613 48.3845 18.4054 47.9445 17.9361C47.1188 17.0555 45.9074 16.9948 44.1448 17.5282C42.9574 17.8876 41.6635 18.4697 40.2568 19.1025C39.5691 19.4119 38.8545 19.7334 38.1121 20.047Z" fill="#979797" fill-opacity="0.101812"/>
</g>
<defs>
<filter id="filter0_f_714_10992" x="8.54342" y="10.0454" width="48.0789" height="36.9556" filterUnits="userSpaceOnUse" color-interpolation-filters="sRGB">
<feFlood flood-opacity="0" result="BackgroundImageFix"/>
<feBlend mode="normal" in="SourceGraphic" in2="BackgroundImageFix" result="shape"/>
<feGaussianBlur stdDeviation="2.97732" result="effect1_foregroundBlur_714_10992"/>
</filter>
<linearGradient id="paint0_linear_714_10992" x1="12.2553" y1="7.14894" x2="54.8085" y2="51.4043" gradientUnits="userSpaceOnUse">
<stop stop-color="#6A5BFF"/>
<stop offset="0.526042" stop-color="#3E1DD9"/>
<stop offset="1" stop-color="#1D1451"/>
</linearGradient>
</defs>
</svg>
