<svg width="32" height="32" viewBox="0 0 32 32" fill="none" xmlns="http://www.w3.org/2000/svg">
<g clip-path="url(#clip0_613_855)">
<path d="M27.1371 27.1371C25.6746 28.5996 23.9383 29.7598 22.0274 30.5513C20.1165 31.3428 18.0684 31.7502 16.0001 31.7502C13.9318 31.7502 11.8837 31.3428 9.9728 30.5513C8.06191 29.7598 6.32563 28.5996 4.8631 27.1371C3.40057 25.6746 2.24042 23.9383 1.4489 22.0274C0.657388 20.1165 0.25 18.0684 0.25 16.0001C0.25 13.9318 0.657388 11.8837 1.4489 9.9728C2.24042 8.06191 3.40057 6.32563 4.8631 4.8631C7.81681 1.90938 11.8229 0.25 16.0001 0.25C20.1773 0.25 24.1834 1.90938 27.1371 4.8631C30.0908 7.81681 31.7502 11.8229 31.7502 16.0001C31.7502 20.1773 30.0908 24.1834 27.1371 27.1371Z" fill="url(#paint0_linear_613_855)" stroke="white" stroke-width="0.5"/>
<g opacity="0.25">
<path d="M12.8427 25.0065C12.7543 24.9282 12.6989 24.8191 12.6877 24.7015L11.8057 15.3185H14.9437V25.8305C14.9437 26.2305 14.4707 26.4445 14.1707 26.1795L12.8427 25.0065V25.0065ZM14.9437 15.1335V13.8235L11.6377 13.5375L11.7877 15.1325H14.9437V15.1335ZM14.9437 13.6365L11.6197 13.3485L11.0997 7.8225C11.0936 7.75788 11.101 7.69269 11.1216 7.63111C11.1421 7.56953 11.1753 7.51291 11.219 7.4649C11.2627 7.41689 11.3159 7.37853 11.3753 7.35228C11.4346 7.32604 11.4988 7.31249 11.5637 7.3125H14.4787C14.7357 7.3125 14.9437 7.5215 14.9437 7.7785V13.6365V13.6365ZM21.0787 15.1325H23.4707C23.5322 15.1322 23.591 15.1077 23.6345 15.0643C23.6779 15.0208 23.7025 14.9619 23.7027 14.9005V13.5285C23.7027 13.496 23.696 13.4639 23.6828 13.4343C23.6697 13.4046 23.6505 13.378 23.6265 13.3561C23.6025 13.3343 23.5742 13.3177 23.5434 13.3074C23.5126 13.2972 23.4801 13.2934 23.4477 13.2965L21.2277 13.5135L21.0787 15.1335V15.1325ZM21.0377 13.5315L17.7277 13.8545V15.1335H20.8917L21.0377 13.5315V13.5315Z" fill="black"/>
<path d="M17.5392 13.8725V15.1325H8.72519C8.69459 15.1325 8.66429 15.1265 8.63602 15.1148C8.60775 15.1031 8.58207 15.0859 8.56043 15.0643C8.5388 15.0426 8.52163 15.0169 8.50992 14.9887C8.49821 14.9604 8.49219 14.9301 8.49219 14.8995V13.5245C8.49219 13.3875 8.60919 13.2805 8.74519 13.2925L16.5802 13.9625C16.5942 13.9638 16.6082 13.9638 16.6222 13.9625L17.5412 13.8725H17.5392ZM18.5222 26.1475C18.4574 26.2132 18.3745 26.2581 18.2841 26.2765C18.1937 26.295 18.0998 26.2861 18.0145 26.251C17.9291 26.216 17.8562 26.1563 17.8048 26.0796C17.7535 26.003 17.7261 25.9128 17.7262 25.8205V11.3805H21.2372L20.0162 24.4835C20.0063 24.5906 19.9597 24.6909 19.8842 24.7675L18.5222 26.1475V26.1475ZM21.2552 11.1955H17.7252V9.1885L21.4642 8.9555L21.2542 11.1955H21.2552ZM17.7262 7.7785V9.0005L21.4812 8.7665L21.5692 7.8205C21.5752 7.75609 21.5676 7.69114 21.5471 7.6298C21.5266 7.56846 21.4934 7.51208 21.4499 7.46427C21.4063 7.41646 21.3532 7.37827 21.294 7.35213C21.2349 7.326 21.1709 7.3125 21.1062 7.3125H18.1912C18.0679 7.3125 17.9496 7.36149 17.8624 7.4487C17.7752 7.5359 17.7262 7.65417 17.7262 7.7775V7.7785ZM14.9432 11.1945V9.1945L11.2102 9.0105L11.4142 11.1945H14.9442H14.9432Z" fill="black"/>
<path d="M15.1294 11.1953H24.5404C24.565 11.1954 24.5894 11.1907 24.6122 11.1813C24.6349 11.172 24.6556 11.1582 24.673 11.1408C24.6904 11.1234 24.7041 11.1028 24.7135 11.08C24.7228 11.0573 24.7276 11.0329 24.7274 11.0083V8.94029C24.7275 8.91482 24.7223 8.88962 24.7122 8.86623C24.7021 8.84284 24.6874 8.82178 24.6688 8.80434C24.6502 8.7869 24.6283 8.77346 24.6043 8.76485C24.5803 8.75625 24.5549 8.75265 24.5294 8.75429L16.4464 9.26829L15.1294 9.20329V11.1953V11.1953ZM11.0074 9.00029L11.2304 11.1953H7.46044C7.43593 11.1954 7.41163 11.1907 7.38895 11.1814C7.36627 11.1721 7.34565 11.1585 7.32827 11.1412C7.31089 11.1239 7.2971 11.1033 7.28769 11.0807C7.27828 11.0581 7.27344 11.0338 7.27344 11.0093V9.01229C7.27344 8.90629 7.36344 8.82229 7.46944 8.82629L11.0074 9.00129V9.00029Z" fill="black"/>
</g>
<path d="M12.8417 24.9673C12.7531 24.889 12.6977 24.78 12.6867 24.6623L11.8047 15.2793H14.9427V25.7913C14.9427 26.1913 14.4697 26.4053 14.1697 26.1403L12.8417 24.9673V24.9673Z" fill="url(#paint1_linear_613_855)"/>
<path d="M14.9427 15.094V13.784L11.6367 13.498L11.7867 15.094H14.9427V15.094Z" fill="url(#paint2_linear_613_855)"/>
<path d="M14.9436 13.5974L11.6196 13.3094L11.0996 7.78244C11.0937 7.71789 11.1012 7.65281 11.1218 7.59135C11.1424 7.52989 11.1756 7.4734 11.2193 7.4255C11.2629 7.3776 11.3161 7.33933 11.3754 7.31315C11.4347 7.28696 11.4988 7.27344 11.5636 7.27344H14.4786C14.7356 7.27344 14.9436 7.48244 14.9436 7.73944V13.5974V13.5974Z" fill="url(#paint3_linear_613_855)"/>
<path d="M21.0781 15.0939H23.4701C23.5317 15.0936 23.5908 15.0689 23.6342 15.0253C23.6777 14.9816 23.7021 14.9225 23.7021 14.8609V13.4909C23.7021 13.4584 23.6954 13.4263 23.6822 13.3966C23.6691 13.3669 23.6499 13.3403 23.6259 13.3185C23.6019 13.2966 23.5736 13.28 23.5428 13.2698C23.512 13.2595 23.4794 13.2558 23.4471 13.2589L21.2271 13.4759L21.0781 15.0949V15.0939Z" fill="url(#paint4_linear_613_855)"/>
<path d="M21.0366 13.4922L17.7266 13.8152V15.0942H20.8906L21.0366 13.4922V13.4922Z" fill="url(#paint5_linear_613_855)"/>
<path d="M17.5392 13.8329V15.0929H8.72519C8.69459 15.0929 8.66429 15.0868 8.63602 15.0751C8.60775 15.0634 8.58207 15.0463 8.56043 15.0246C8.5388 15.003 8.52163 14.9773 8.50992 14.949C8.49821 14.9208 8.49219 14.8905 8.49219 14.8599V13.4849C8.49219 13.3479 8.60919 13.2409 8.74519 13.2529L16.5802 13.9229C16.5942 13.9241 16.6082 13.9241 16.6222 13.9229L17.5412 13.8329H17.5392Z" fill="url(#paint6_linear_613_855)"/>
<path d="M18.5226 26.1088C18.4578 26.1745 18.3749 26.2194 18.2845 26.2378C18.1941 26.2563 18.1002 26.2474 18.0149 26.2123C17.9295 26.1773 17.8565 26.1176 17.8052 26.0409C17.7539 25.9643 17.7265 25.8741 17.7266 25.7818V11.3418H21.2376L20.0166 24.4448C20.0067 24.5519 19.9601 24.6522 19.8846 24.7288L18.5226 26.1088V26.1088Z" fill="url(#paint7_linear_613_855)"/>
<path d="M21.2566 11.156H17.7266V9.14902L21.4656 8.91602L21.2556 11.156H21.2566Z" fill="url(#paint8_linear_613_855)"/>
<path d="M17.7266 7.73944V8.96244L21.4816 8.72844L21.5696 7.78244C21.5757 7.71795 21.5683 7.65289 21.5478 7.59143C21.5273 7.52997 21.4942 7.47347 21.4506 7.42554C21.407 7.37762 21.3539 7.33934 21.2947 7.31314C21.2354 7.28695 21.1713 7.27343 21.1066 7.27344H18.1916C18.1304 7.27344 18.0699 7.2855 18.0134 7.30893C17.9569 7.33236 17.9056 7.3667 17.8624 7.40999C17.8192 7.45327 17.785 7.50465 17.7617 7.56118C17.7384 7.61771 17.7264 7.67829 17.7266 7.73944V7.73944Z" fill="url(#paint9_linear_613_855)"/>
<path d="M14.9439 11.1547V9.1547L11.2109 8.9707L11.4149 11.1547H14.9449H14.9439Z" fill="url(#paint10_linear_613_855)"/>
<path d="M15.1289 11.1562H24.5399C24.5645 11.1564 24.5889 11.1516 24.6116 11.1423C24.6344 11.1329 24.655 11.1191 24.6724 11.1018C24.6898 11.0844 24.7036 11.0637 24.7129 11.0409C24.7223 11.0182 24.727 10.9938 24.7269 10.9692V8.90123C24.727 8.87576 24.7218 8.85055 24.7117 8.82717C24.7016 8.80378 24.6868 8.78272 24.6683 8.76528C24.6497 8.74784 24.6277 8.7344 24.6038 8.72579C24.5798 8.71718 24.5543 8.71359 24.5289 8.71523L16.4459 9.22923L15.1289 9.16423V11.1562V11.1562Z" fill="url(#paint11_linear_613_855)"/>
<path d="M11.0074 8.96125L11.2304 11.1562H7.46044C7.43593 11.1564 7.41163 11.1517 7.38895 11.1424C7.36627 11.1331 7.34565 11.1194 7.32827 11.1021C7.31089 11.0848 7.2971 11.0643 7.28769 11.0417C7.27828 11.019 7.27344 10.9948 7.27344 10.9702V8.97325C7.27344 8.86725 7.36344 8.78325 7.46944 8.78725L11.0074 8.96125Z" fill="url(#paint12_linear_613_855)"/>
<path d="M11.7974 13.3254L11.6194 13.3094L11.4174 11.1554H11.4144L11.2104 8.97144H11.2114L11.1004 7.78244C11.0945 7.71798 11.102 7.65298 11.1225 7.59159C11.1431 7.5302 11.1762 7.47376 11.2197 7.42587C11.2633 7.37798 11.3163 7.3397 11.3755 7.31345C11.4347 7.28721 11.4987 7.27358 11.5634 7.27344H14.4784C14.6564 7.27344 14.8114 7.37444 14.8894 7.52244C14.8226 7.48698 14.7481 7.46844 14.6724 7.46844H11.7584C11.6936 7.46829 11.6294 7.48171 11.57 7.50784C11.5107 7.53397 11.4574 7.57224 11.4137 7.62017C11.37 7.66811 11.3368 7.72466 11.3163 7.78619C11.2957 7.84772 11.2883 7.91286 11.2944 7.97744L11.4064 9.16544H11.4044L11.6084 11.3504H11.6114L11.7974 13.3254V13.3254ZM15.1374 11.1564H15.3234V9.35844L16.6404 9.42344L24.7234 8.91044H24.7264V8.90044C24.7265 8.87497 24.7213 8.84976 24.7112 8.82637C24.7011 8.80299 24.6864 8.78192 24.6678 8.76448C24.6492 8.74705 24.6273 8.73361 24.6033 8.725C24.5793 8.71639 24.5539 8.71279 24.5284 8.71444L21.6784 8.89544H21.6764L17.9204 9.13444L16.4464 9.22844L15.1364 9.16344V11.1554L15.1374 11.1564ZM21.5194 7.52244C21.4523 7.48682 21.3774 7.46827 21.3014 7.46844H18.3874C18.264 7.46844 18.1456 7.5174 18.0583 7.60457C17.9709 7.69175 17.9217 7.81002 17.9214 7.93344V8.95044L17.7274 8.96244V7.73944C17.7274 7.48244 17.9354 7.27344 18.1924 7.27344H21.1074C21.2874 7.27344 21.4414 7.37544 21.5194 7.52244V7.52244ZM17.7274 11.3504H21.2374L21.2204 11.5364H17.9214V25.9764C17.9214 26.0564 17.9404 26.1294 17.9734 26.1914C17.8986 26.1525 17.836 26.0935 17.7925 26.0212C17.7491 25.9488 17.7266 25.8658 17.7274 25.7814V15.2874H17.7354V14.0274L17.7274 14.0284V11.3504V11.3504ZM17.5404 14.0464V13.8334L16.6224 13.9234C16.6085 13.9247 16.5944 13.9247 16.5804 13.9234L11.6374 13.4984V13.5004L8.74544 13.2534C8.71328 13.2507 8.68091 13.2546 8.65036 13.265C8.61981 13.2754 8.59175 13.292 8.56796 13.3138C8.54418 13.3357 8.52518 13.3622 8.51218 13.3917C8.49918 13.4212 8.49246 13.4532 8.49244 13.4854V14.8604C8.49244 14.9774 8.57844 15.0734 8.68944 15.0904C8.68789 15.0788 8.68722 15.0671 8.68744 15.0554V13.6794C8.68744 13.5434 8.80344 13.4364 8.93944 13.4474L11.8324 13.6954V13.6924L16.7744 14.1174C16.7887 14.1188 16.8031 14.1188 16.8174 14.1174L17.5414 14.0474L17.5404 14.0464ZM11.8054 15.2874L12.6854 24.6614C12.6966 24.7796 12.7524 24.889 12.8414 24.9674L12.9534 25.0664C12.9125 25.0034 12.8874 24.9313 12.8804 24.8564L11.9984 15.4734H14.9434V15.2874H11.8054V15.2874ZM21.1054 15.0934H21.2924L21.4224 13.6684L23.6434 13.4514C23.6628 13.4497 23.6823 13.4504 23.7014 13.4534C23.6923 13.3948 23.6611 13.3419 23.6143 13.3055C23.5675 13.2691 23.5085 13.2519 23.4494 13.2574L21.2554 13.4714L21.1974 14.0944L21.1064 15.0934H21.1054ZM11.0264 9.14744L11.0074 8.96144L7.46944 8.78744C7.44418 8.78608 7.41892 8.78988 7.39518 8.79862C7.37145 8.80736 7.34975 8.82084 7.3314 8.83825C7.31306 8.85566 7.29846 8.87663 7.28849 8.89987C7.27852 8.92311 7.2734 8.94815 7.27344 8.97344V10.9704C7.27344 11.0734 7.35744 11.1564 7.46044 11.1564H7.46844V9.16844C7.46844 9.06144 7.55744 8.97744 7.66344 8.98244L11.0264 9.14744V9.14744Z" fill="white"/>
</g>
<defs>
<linearGradient id="paint0_linear_613_855" x1="16.0001" y1="9.62764e-05" x2="16.0001" y2="32.0001" gradientUnits="userSpaceOnUse">
<stop stop-color="#424242"/>
<stop offset="1"/>
</linearGradient>
<linearGradient id="paint1_linear_613_855" x1="7.27269" y1="16.7653" x2="24.7267" y2="16.7653" gradientUnits="userSpaceOnUse">
<stop stop-color="#5433FF"/>
<stop offset="0.5" stop-color="#20BDFF"/>
<stop offset="1" stop-color="#A5FECB"/>
</linearGradient>
<linearGradient id="paint2_linear_613_855" x1="7.27172" y1="16.765" x2="24.7267" y2="16.765" gradientUnits="userSpaceOnUse">
<stop stop-color="#5433FF"/>
<stop offset="0.5" stop-color="#20BDFF"/>
<stop offset="1" stop-color="#A5FECB"/>
</linearGradient>
<linearGradient id="paint3_linear_613_855" x1="7.27264" y1="16.7654" x2="24.7276" y2="16.7654" gradientUnits="userSpaceOnUse">
<stop stop-color="#5433FF"/>
<stop offset="0.5" stop-color="#20BDFF"/>
<stop offset="1" stop-color="#A5FECB"/>
</linearGradient>
<linearGradient id="paint4_linear_613_855" x1="7.27912" y1="16.7649" x2="24.7261" y2="16.7649" gradientUnits="userSpaceOnUse">
<stop stop-color="#5433FF"/>
<stop offset="0.5" stop-color="#20BDFF"/>
<stop offset="1" stop-color="#A5FECB"/>
</linearGradient>
<linearGradient id="paint5_linear_613_855" x1="7.27256" y1="16.7662" x2="24.7266" y2="16.7662" gradientUnits="userSpaceOnUse">
<stop stop-color="#5433FF"/>
<stop offset="0.5" stop-color="#20BDFF"/>
<stop offset="1" stop-color="#A5FECB"/>
</linearGradient>
<linearGradient id="paint6_linear_613_855" x1="7.27219" y1="16.7649" x2="24.7262" y2="16.7649" gradientUnits="userSpaceOnUse">
<stop stop-color="#5433FF"/>
<stop offset="0.5" stop-color="#20BDFF"/>
<stop offset="1" stop-color="#A5FECB"/>
</linearGradient>
<linearGradient id="paint7_linear_613_855" x1="7.27256" y1="16.7658" x2="24.7266" y2="16.7658" gradientUnits="userSpaceOnUse">
<stop stop-color="#5433FF"/>
<stop offset="0.5" stop-color="#20BDFF"/>
<stop offset="1" stop-color="#A5FECB"/>
</linearGradient>
<linearGradient id="paint8_linear_613_855" x1="7.27356" y1="16.766" x2="24.7276" y2="16.766" gradientUnits="userSpaceOnUse">
<stop stop-color="#5433FF"/>
<stop offset="0.5" stop-color="#20BDFF"/>
<stop offset="1" stop-color="#A5FECB"/>
</linearGradient>
<linearGradient id="paint9_linear_613_855" x1="7.27256" y1="16.7654" x2="24.7266" y2="16.7654" gradientUnits="userSpaceOnUse">
<stop stop-color="#5433FF"/>
<stop offset="0.5" stop-color="#20BDFF"/>
<stop offset="1" stop-color="#A5FECB"/>
</linearGradient>
<linearGradient id="paint10_linear_613_855" x1="7.27394" y1="16.7647" x2="24.7279" y2="16.7647" gradientUnits="userSpaceOnUse">
<stop stop-color="#5433FF"/>
<stop offset="0.5" stop-color="#20BDFF"/>
<stop offset="1" stop-color="#A5FECB"/>
</linearGradient>
<linearGradient id="paint11_linear_613_855" x1="7.27191" y1="16.7652" x2="24.7269" y2="16.7652" gradientUnits="userSpaceOnUse">
<stop stop-color="#5433FF"/>
<stop offset="0.5" stop-color="#20BDFF"/>
<stop offset="1" stop-color="#A5FECB"/>
</linearGradient>
<linearGradient id="paint12_linear_613_855" x1="7.27344" y1="16.7662" x2="24.7284" y2="16.7662" gradientUnits="userSpaceOnUse">
<stop stop-color="#5433FF"/>
<stop offset="0.5" stop-color="#20BDFF"/>
<stop offset="1" stop-color="#A5FECB"/>
</linearGradient>
<clipPath id="clip0_613_855">
<rect width="32" height="32" fill="white"/>
</clipPath>
</defs>
</svg>
