<svg width="20" height="20" viewBox="0 0 20 20" fill="none" xmlns="http://www.w3.org/2000/svg">
<path d="M9.99991 19.285C15.1279 19.285 19.285 15.1279 19.285 9.99991C19.285 4.87191 15.1279 0.714844 9.99991 0.714844C4.87191 0.714844 0.714844 4.87191 0.714844 9.99991C0.714844 15.1279 4.87191 19.285 9.99991 19.285Z" fill="white"/>
<path d="M9.99934 19.9986C8.68565 20.0023 7.3843 19.7452 6.17057 19.2426C4.95684 18.7399 3.85486 18.0016 2.92841 17.0702C1.99702 16.1438 1.25863 15.042 0.755973 13.8282C0.253319 12.6145 -0.00361684 11.313 4.01675e-05 9.99934C-0.00369573 8.68564 0.253206 7.38418 0.755864 6.17044C1.25852 4.9567 1.99696 3.85488 2.92841 2.92848C3.85481 1.99702 4.95677 1.25844 6.1705 0.755777C7.38424 0.253118 8.68564 -0.00369572 9.99934 4.01809e-05C11.313 -0.00369572 12.6144 0.253118 13.8282 0.755777C15.0419 1.25844 16.1439 1.99702 17.0703 2.92848C18.0017 3.85488 18.7402 4.9567 19.2428 6.17044C19.7455 7.38418 20.0024 8.68564 19.9986 9.99934C20.0023 11.313 19.7454 12.6145 19.2427 13.8282C18.7401 15.042 18.0017 16.1438 17.0703 17.0702C16.1438 18.0016 15.0418 18.7399 13.8281 19.2426C12.6144 19.7452 11.313 20.0023 9.99934 19.9986ZM9.99934 1.42851C7.72697 1.43097 5.54838 2.33478 3.94157 3.94159C2.33476 5.5484 1.43097 7.72697 1.42851 9.99934C1.43097 12.2717 2.33476 14.4503 3.94157 16.0571C5.54838 17.6639 7.72697 18.5677 9.99934 18.5702C12.2717 18.5677 14.4503 17.6639 16.0571 16.0571C17.6639 14.4503 18.5677 12.2717 18.5702 9.99934C18.5677 7.72697 17.6639 5.5484 16.0571 3.94159C14.4503 2.33478 12.2717 1.43097 9.99934 1.42851Z" fill="#292929"/>
<path opacity="0.7" d="M9.2863 19.9742V18.5408C9.52438 18.5608 9.76246 18.5708 10.0005 18.5708C10.2386 18.5708 10.4767 18.5611 10.7148 18.5415V19.9749C10.4767 19.9916 10.2386 20 10.0005 20C9.76246 20 9.52438 19.9913 9.2863 19.9742ZM15.533 16.5411C15.8967 16.2329 16.2343 15.8951 16.5422 15.5311L17.5586 16.5474C17.4034 16.7264 17.241 16.9004 17.0715 17.0695C16.902 17.2385 16.7279 17.401 16.5494 17.5567L15.533 16.5411ZM2.93102 17.0702C2.76151 16.9007 2.59891 16.7264 2.44321 16.5474L3.45957 15.5311C3.76776 15.8951 4.10556 16.2329 4.4695 16.5411L3.45314 17.5574C3.27411 17.4021 3.09959 17.2397 2.92961 17.0702H2.93102ZM18.5421 10.7135C18.5616 10.4755 18.5714 10.2374 18.5714 9.9993C18.5714 9.76122 18.5616 9.52315 18.5421 9.28507H19.9756C19.9922 9.52315 20.0006 9.76122 20.0006 9.9993C20.0006 10.2374 19.9922 10.4755 19.9756 10.7135H18.5421ZM0.026954 10.7135C0.0102885 10.4755 0.00195312 10.2374 0.00195312 9.9993C0.00195312 9.76122 0.0102885 9.52315 0.026954 9.28507H1.46042C1.44089 9.52315 1.43114 9.76122 1.43114 9.9993C1.43114 10.2374 1.44089 10.4755 1.46042 10.7135H0.026954ZM2.44321 3.45191C2.59891 3.27287 2.76151 3.09887 2.93102 2.92983C3.10053 2.7608 3.27483 2.59811 3.45386 2.44193L4.4695 3.45749C4.10562 3.76601 3.76783 4.10406 3.45957 4.46816L2.44321 3.45191ZM15.533 3.45749L16.5487 2.44193C16.7277 2.59764 16.902 2.76032 17.0715 2.92983C17.241 3.09934 17.4034 3.27335 17.5586 3.45191L16.5422 4.46816C16.2341 4.10396 15.8963 3.76589 15.5323 3.45749H15.533ZM9.2863 0.0251099C9.52438 0.00844435 9.76246 0 10.0005 0C10.2386 0 10.4767 0.00844435 10.7148 0.0251099V1.45707C10.4791 1.43755 10.241 1.42777 10.0005 1.42777C9.76008 1.42777 9.522 1.43777 9.2863 1.45777V0.0251099Z" fill="white"/>
<path fill-rule="evenodd" clip-rule="evenodd" d="M14.8519 10.6641C15.6149 11.0192 16.1462 11.8121 16.1462 12.7322C16.1462 13.9842 15.1625 15.0007 13.9508 15.0007C13.2504 15.0007 12.6261 14.661 12.2245 14.1319C12.0933 13.9408 12.0055 13.5403 12.3397 13.133C12.5267 12.905 12.9586 12.6382 13.5714 12.3477C14.0468 12.1255 14.515 11.8606 14.8143 11.548C14.9262 11.4311 15.0001 11.2996 15.0383 11.1744C15.0942 10.9911 15.0336 10.7558 14.8519 10.6641Z" fill="#949494"/>
<path fill-rule="evenodd" clip-rule="evenodd" d="M15.0018 11.2813C15.6471 11.7041 15.6998 12.3533 15.724 12.7345C15.7497 13.139 15.4736 14.3206 14.2536 14.5068C13.0589 14.6891 12.5079 13.7901 12.3223 13.1596C12.3295 13.1502 12.337 13.1408 12.3448 13.1314C12.5318 12.9034 12.9637 12.6366 13.5765 12.3461C14.0519 12.1239 14.5201 11.859 14.8194 11.5464C14.8943 11.4686 14.956 11.3791 15.0018 11.2812V11.2813Z" fill="url(#paint0_linear_3763_73001)"/>
<path fill-rule="evenodd" clip-rule="evenodd" d="M14.2753 11.9746C14.3008 12.0169 14.325 12.0545 14.3503 12.0833C14.852 12.6533 15.1298 12.1487 15.4415 12.4664C15.6003 12.6282 15.6861 12.7527 15.7161 12.9396C15.6572 13.4433 15.3078 14.3474 14.2536 14.5084C13.0589 14.6907 12.5079 13.7916 12.3223 13.1611C12.3295 13.1518 12.337 13.1424 12.3448 13.133C12.5318 12.905 12.9637 12.6382 13.5765 12.3477C13.8184 12.2346 14.0584 12.1105 14.2752 11.9746H14.2753Z" fill="url(#paint1_linear_3763_73001)"/>
<path fill-rule="evenodd" clip-rule="evenodd" d="M14.0921 12.084C14.3218 12.2185 14.5659 12.4339 14.7993 12.8583C15.0019 13.2266 15.2488 13.447 15.5303 13.5656C15.3271 13.9845 14.9395 14.4039 14.2536 14.5086C13.0589 14.6909 12.5079 13.7919 12.3223 13.1614C12.3295 13.152 12.337 13.1427 12.3448 13.1332C12.5318 12.9053 12.9637 12.6384 13.5765 12.3479C13.7521 12.2659 13.9266 12.178 14.0921 12.084Z" fill="url(#paint2_linear_3763_73001)"/>
<path fill-rule="evenodd" clip-rule="evenodd" d="M12.6099 12.8926C12.8139 13.0497 12.8428 13.2135 12.9244 13.5956C13.0136 14.0138 13.7467 14.7418 14.7748 14.3462C14.624 14.421 14.4511 14.4773 14.2536 14.5075C13.0589 14.6898 12.5079 13.7907 12.3223 13.1602C12.3295 13.1508 12.337 13.1415 12.3448 13.1321C12.4069 13.0563 12.4961 12.9763 12.6099 12.8926Z" fill="url(#paint3_linear_3763_73001)"/>
<path fill-rule="evenodd" clip-rule="evenodd" d="M13.9854 12.2684C14.1849 12.1459 14.255 12.2512 14.2894 12.2914C14.3238 12.3315 14.2464 12.5667 14.0858 12.647C13.9252 12.7273 13.7962 12.6957 13.7503 12.647C13.7043 12.5982 13.822 12.3688 13.9854 12.2684Z" fill="#F1F0F1"/>
<path fill-rule="evenodd" clip-rule="evenodd" d="M14.4667 12.3374C14.5638 12.2589 14.7333 12.4665 14.7592 12.6472C14.785 12.8278 14.7047 12.9082 14.6387 12.9253C14.5728 12.9425 14.4584 12.7767 14.4294 12.5984C14.4093 12.4751 14.3921 12.3976 14.4667 12.3374Z" fill="url(#paint4_linear_3763_73001)"/>
<path fill-rule="evenodd" clip-rule="evenodd" d="M13.5393 12.3592L13.5391 12.3589C13.5555 11.896 13.6842 11.4061 13.8727 11.0516C14.0582 10.7024 14.5111 10.5224 14.8195 10.6428L14.8552 10.6584C15.0369 10.7502 15.0974 10.9855 15.0415 11.1687C15.0034 11.2939 14.9295 11.4254 14.8175 11.5423C14.5182 11.855 14.0501 12.1199 13.5747 12.3421L13.5393 12.3593V12.3592Z" fill="url(#paint5_linear_3763_73001)"/>
<path fill-rule="evenodd" clip-rule="evenodd" d="M6.76692 14.8466C4.79493 13.9582 3.42188 11.9751 3.42188 9.67379C3.42188 6.54231 5.96424 4 9.09567 4C10.9059 4 12.5194 4.84965 13.5575 6.17289C13.8965 6.65074 14.1233 7.65267 13.2598 8.67135C12.7764 9.24162 11.6602 9.90897 10.0763 10.6355C8.84767 11.1912 7.63779 11.8539 6.86417 12.6357C6.5748 12.9281 6.38394 13.2571 6.28527 13.5703C6.14087 14.0285 6.29718 14.6171 6.76697 14.8466H6.76692Z" fill="url(#paint6_linear_3763_73001)"/>
<path fill-rule="evenodd" clip-rule="evenodd" d="M6.36347 13.3527C5.76522 12.9471 5.31569 12.33 4.82927 11.1667C4.13231 9.50011 4.63483 5.2219 8.93506 4.75795C10.8925 4.54683 12.977 6.25061 13.4882 8.35763C13.4178 8.46645 13.3403 8.57054 13.2563 8.66924C12.7729 9.23951 11.6567 9.90686 10.0728 10.6334C8.84416 11.1891 7.63428 11.8518 6.86066 12.6336C6.63711 12.8596 6.47229 13.1073 6.36347 13.3527Z" fill="url(#paint7_linear_3763_73001)"/>
<path fill-rule="evenodd" clip-rule="evenodd" d="M4.61133 10.2628C4.82058 9.33182 5.32895 8.43377 6.44164 7.94367C6.71273 7.82418 8.08845 7.46605 9.13249 7.68012C10.1461 7.88795 10.1411 8.58163 11.0883 8.58436C11.7735 8.5864 12.2435 8.55139 12.4763 8.67814C12.6254 8.75939 12.781 8.87446 12.9277 9.00183C12.3471 9.4942 11.368 10.0462 10.0792 10.6374C8.85056 11.1931 7.64068 11.8558 6.86706 12.6377C6.64351 12.8636 6.47869 13.1114 6.36986 13.3568C5.77162 12.9511 5.32208 12.334 4.83567 11.1708C4.73071 10.9199 4.65303 10.61 4.61133 10.2628Z" fill="url(#paint8_linear_3763_73001)"/>
<path fill-rule="evenodd" clip-rule="evenodd" d="M9.49533 7.78906C10.1588 8.06453 10.2679 8.5801 11.0843 8.58249C11.7694 8.58453 12.2395 8.54952 12.4723 8.67627C12.6214 8.75752 12.7769 8.87259 12.9237 8.99996C12.3431 9.49233 11.364 10.0443 10.0752 10.6355C8.84653 11.1912 7.63665 11.8539 6.86303 12.6358C6.79482 12.7046 6.73053 12.7773 6.67046 12.8533C6.16237 12.108 5.62733 10.7915 6.33491 9.59253C7.08272 8.32541 8.17396 7.81777 9.49533 7.78906Z" fill="url(#paint9_linear_3763_73001)"/>
<path fill-rule="evenodd" clip-rule="evenodd" d="M10.1668 10.5918L10.1674 10.5928C10.125 11.7507 9.79226 12.9759 9.30528 13.8626C8.82567 14.7359 7.65511 15.1863 6.858 14.885L6.76592 14.8461C6.29624 14.6165 6.13987 14.028 6.28421 13.5697C6.38294 13.2566 6.57386 12.9276 6.86317 12.6352C7.63679 11.8534 8.84667 11.1907 10.0753 10.635L10.1668 10.5919V10.5918Z" fill="url(#paint10_linear_3763_73001)"/>
<path fill-rule="evenodd" clip-rule="evenodd" d="M8.35992 9.38488C8.13608 9.049 8.48116 8.56644 8.85705 8.40275C9.23294 8.23906 9.59067 8.22692 9.76645 8.40275C9.94222 8.57858 9.86347 9.10596 9.34205 9.38488C8.82063 9.66375 8.52968 9.63947 8.35992 9.38488Z" fill="#F1F0F1"/>
<path fill-rule="evenodd" clip-rule="evenodd" d="M9.55273 7.81055C10.1644 8.091 10.291 8.57583 11.0826 8.57821C11.7677 8.5802 12.2378 8.54519 12.4705 8.67194C12.6196 8.75319 12.7752 8.86826 12.922 8.99563C12.5214 9.33538 11.9311 9.70349 11.1801 10.0933C10.6603 9.12006 10.0808 8.65498 9.55273 7.81055Z" fill="url(#paint11_linear_3763_73001)"/>
<path fill-rule="evenodd" clip-rule="evenodd" d="M10.2497 8.58132C10.4678 8.502 10.765 8.70858 10.9166 9.07233C11.0682 9.43613 11.1027 9.88413 10.6438 10.012C10.274 10.1151 10.1527 9.52096 10.1163 9.26024C10.08 8.99959 10.0497 8.65406 10.2497 8.58132Z" fill="url(#paint12_linear_3763_73001)"/>
<defs>
<linearGradient id="paint0_linear_3763_73001" x1="15.787" y1="12.1054" x2="14.7198" y2="12.8835" gradientUnits="userSpaceOnUse">
<stop stop-color="#C8C8C8"/>
<stop offset="1" stop-color="#B8B8B8"/>
</linearGradient>
<linearGradient id="paint1_linear_3763_73001" x1="14.2609" y1="13.2761" x2="15.6838" y2="12.4313" gradientUnits="userSpaceOnUse">
<stop stop-color="#6B6A6B"/>
<stop offset="1" stop-color="#6B6A6B"/>
</linearGradient>
<linearGradient id="paint2_linear_3763_73001" x1="12.9839" y1="13.8228" x2="15.007" y2="12.978" gradientUnits="userSpaceOnUse">
<stop offset="0.005" stop-color="#030303"/>
<stop offset="1" stop-color="#494949"/>
</linearGradient>
<linearGradient id="paint3_linear_3763_73001" x1="12.158" y1="13.3901" x2="14.4615" y2="14.1395" gradientUnits="userSpaceOnUse">
<stop stop-color="#686868"/>
<stop offset="1" stop-color="#282828"/>
</linearGradient>
<linearGradient id="paint4_linear_3763_73001" x1="14.4798" y1="12.3217" x2="14.7" y2="12.9069" gradientUnits="userSpaceOnUse">
<stop stop-color="#F0EFF0"/>
<stop offset="1" stop-color="#DCDBDC"/>
</linearGradient>
<linearGradient id="paint5_linear_3763_73001" x1="13.7726" y1="10.9848" x2="14.5181" y2="11.8678" gradientUnits="userSpaceOnUse">
<stop stop-color="#C4C4C4"/>
<stop offset="0.995" stop-color="#8E8E8E"/>
</linearGradient>
<linearGradient id="paint6_linear_3763_73001" x1="3.41824" y1="11.5777" x2="13.5516" y2="5.76727" gradientUnits="userSpaceOnUse">
<stop stop-color="#BCBCBC"/>
<stop offset="0.995" stop-color="#989898"/>
</linearGradient>
<linearGradient id="paint7_linear_3763_73001" x1="4.19591" y1="9.80394" x2="13.4495" y2="7.74407" gradientUnits="userSpaceOnUse">
<stop stop-color="#C8C8C8"/>
<stop offset="1" stop-color="#B8B8B8"/>
</linearGradient>
<linearGradient id="paint8_linear_3763_73001" x1="4.59561" y1="10.485" x2="8.47569" y2="10.485" gradientUnits="userSpaceOnUse">
<stop stop-color="#919191"/>
<stop offset="1" stop-color="#323232"/>
</linearGradient>
<linearGradient id="paint9_linear_3763_73001" x1="5.76679" y1="11.0311" x2="12.8765" y2="8.46855" gradientUnits="userSpaceOnUse">
<stop offset="0.005" stop-color="#030303"/>
<stop offset="1" stop-color="#494949"/>
</linearGradient>
<linearGradient id="paint10_linear_3763_73001" x1="9.49773" y1="13.9748" x2="7.69982" y2="11.8817" gradientUnits="userSpaceOnUse">
<stop stop-color="#C4C4C4"/>
<stop offset="0.995" stop-color="#8E8E8E"/>
</linearGradient>
<linearGradient id="paint11_linear_3763_73001" x1="12.9927" y1="8.75296" x2="9.9621" y2="8.98253" gradientUnits="userSpaceOnUse">
<stop stop-color="#919191"/>
<stop offset="1" stop-color="#323232"/>
</linearGradient>
<linearGradient id="paint12_linear_3763_73001" x1="10.2222" y1="8.48095" x2="10.8095" y2="10.0078" gradientUnits="userSpaceOnUse">
<stop stop-color="#F0EFF0"/>
<stop offset="1" stop-color="#DCDBDC"/>
</linearGradient>
</defs>
</svg>
