<svg width="33" height="32" viewBox="0 0 33 32" fill="none" xmlns="http://www.w3.org/2000/svg">
<path d="M31.9336 16C31.9336 24.6985 24.8821 31.75 16.1836 31.75C7.48511 31.75 0.433594 24.6985 0.433594 16C0.433594 7.30151 7.48511 0.25 16.1836 0.25C24.8821 0.25 31.9336 7.30151 31.9336 16Z" fill="url(#paint0_linear_3763_72971)" stroke="white" stroke-width="0.5"/>
<path fill-rule="evenodd" clip-rule="evenodd" d="M24.8746 17.2383C26.1826 17.8471 27.0933 19.2063 27.0933 20.7835C27.0933 22.9298 25.407 24.6723 23.33 24.6723C22.1293 24.6723 21.0591 24.0899 20.3706 23.183C20.1457 22.8554 19.9952 22.1689 20.568 21.4706C20.8887 21.0798 21.6291 20.6224 22.6796 20.1244C23.4945 19.7436 24.297 19.2893 24.8101 18.7535C25.002 18.5532 25.1286 18.3277 25.1941 18.1131C25.2899 17.7989 25.1861 17.3956 24.8746 17.2383Z" fill="#949494"/>
<path fill-rule="evenodd" clip-rule="evenodd" d="M25.1226 18.2989C26.2288 19.0237 26.3192 20.1366 26.3607 20.79C26.4048 21.4835 25.9314 23.509 23.84 23.8282C21.792 24.1407 20.8475 22.5996 20.5293 21.5187C20.5417 21.5026 20.5546 21.4866 20.5679 21.4704C20.8885 21.0796 21.6288 20.6222 22.6794 20.1242C23.4943 19.7434 24.2968 19.2891 24.8099 18.7533C24.9384 18.6201 25.0441 18.4665 25.1226 18.2988V18.2989Z" fill="url(#paint1_linear_3763_72971)"/>
<path fill-rule="evenodd" clip-rule="evenodd" d="M23.8772 19.4863C23.921 19.5588 23.9624 19.6233 24.0058 19.6726C24.8658 20.6498 25.342 19.7847 25.8764 20.3293C26.1486 20.6068 26.2958 20.8201 26.3471 21.1406C26.2462 22.0041 25.6472 23.5538 23.84 23.8298C21.792 24.1423 20.8475 22.6011 20.5293 21.5203C20.5417 21.5042 20.5546 21.4882 20.5679 21.472C20.8885 21.0812 21.6288 20.6238 22.6794 20.1258C23.094 19.9321 23.5054 19.7193 23.8771 19.4863H23.8772Z" fill="url(#paint2_linear_3763_72971)"/>
<path fill-rule="evenodd" clip-rule="evenodd" d="M23.5633 19.6719C23.9569 19.9024 24.3754 20.2718 24.7756 20.9993C25.1228 21.6305 25.5461 22.0084 26.0287 22.2118C25.6803 22.9299 25.0159 23.6487 23.84 23.8283C21.792 24.1408 20.8475 22.5997 20.5293 21.5188C20.5417 21.5027 20.5546 21.4867 20.5679 21.4705C20.8885 21.0797 21.6288 20.6223 22.6794 20.1243C22.9803 19.9837 23.2796 19.833 23.5633 19.6719Z" fill="url(#paint3_linear_3763_72971)"/>
<path fill-rule="evenodd" clip-rule="evenodd" d="M21.0223 21.0605C21.3721 21.33 21.4217 21.6108 21.5614 22.2656C21.7143 22.9825 22.9711 24.2305 24.7334 23.5524C24.4749 23.6807 24.1787 23.7771 23.84 23.8288C21.792 24.1413 20.8475 22.6002 20.5293 21.5193C20.5417 21.5033 20.5546 21.4872 20.5679 21.4711C20.6744 21.3412 20.8272 21.2041 21.0223 21.0605Z" fill="url(#paint4_linear_3763_72971)"/>
<path fill-rule="evenodd" clip-rule="evenodd" d="M23.391 19.9891C23.733 19.7792 23.8531 19.9596 23.9122 20.0285C23.9711 20.0974 23.8384 20.5004 23.5631 20.6381C23.2878 20.7758 23.0666 20.7217 22.9879 20.6381C22.9092 20.5545 23.1108 20.1613 23.391 19.9891Z" fill="#F1F0F1"/>
<path fill-rule="evenodd" clip-rule="evenodd" d="M24.2126 20.1074C24.3792 19.9729 24.6698 20.3286 24.7141 20.6384C24.7584 20.9481 24.6207 21.0858 24.5076 21.1153C24.3946 21.1448 24.1985 20.8605 24.1487 20.5548C24.1143 20.3434 24.0848 20.2107 24.2126 20.1074Z" fill="url(#paint5_linear_3763_72971)"/>
<path fill-rule="evenodd" clip-rule="evenodd" d="M22.6195 20.1548L22.6191 20.1542C22.6472 19.3607 22.8679 18.5209 23.191 17.9132C23.5091 17.3147 24.2854 17.006 24.8141 17.2125L24.8752 17.2392C25.1868 17.3965 25.2905 17.7998 25.1947 18.114C25.1293 18.3286 25.0026 18.554 24.8107 18.7544C24.2977 19.2904 23.4952 19.7446 22.6802 20.1253L22.6195 20.1549V20.1548Z" fill="url(#paint6_linear_3763_72971)"/>
<path fill-rule="evenodd" clip-rule="evenodd" d="M11.0096 24.4119C7.62913 22.8891 5.27539 19.4895 5.27539 15.5446C5.27539 10.1765 9.6336 5.81836 15.0016 5.81836C18.1048 5.81836 20.8707 7.27486 22.6503 9.5432C23.2314 10.3623 23.6202 12.0799 22.1399 13.8261C21.3113 14.8037 19.3978 15.9477 16.6827 17.1931C14.5765 18.1457 12.5024 19.2817 11.1763 20.622C10.6802 21.1232 10.353 21.6872 10.1839 22.224C9.93638 23.0096 10.2043 24.0185 11.0097 24.4119H11.0096Z" fill="url(#paint7_linear_3763_72971)"/>
<path fill-rule="evenodd" clip-rule="evenodd" d="M10.3239 21.8556C9.29835 21.1602 8.52775 20.1024 7.69392 18.1083C6.49915 15.2513 7.3606 7.91748 14.7322 7.12217C18.0877 6.76026 21.6609 9.68094 22.5373 13.2929C22.4166 13.4794 22.2838 13.6578 22.1398 13.827C21.3112 14.8046 19.3977 15.9486 16.6826 17.194C14.5764 18.1466 12.5024 19.2826 11.1762 20.6229C10.793 21.0102 10.5104 21.4349 10.3239 21.8556Z" fill="url(#paint8_linear_3763_72971)"/>
<path fill-rule="evenodd" clip-rule="evenodd" d="M7.30859 16.5517C7.6673 14.9557 8.53876 13.4163 10.4462 12.5761C10.9109 12.3713 13.2692 11.7574 15.0589 12.1243C16.7965 12.4806 16.7879 13.6697 18.4116 13.6744C19.5862 13.6779 20.392 13.6179 20.7909 13.8352C21.0465 13.9745 21.3132 14.1717 21.5649 14.3901C20.5696 15.2341 18.8911 16.1804 16.6818 17.1938C14.5756 18.1464 12.5016 19.2824 11.1754 20.6227C10.7922 21.01 10.5097 21.4347 10.3231 21.8554C9.2976 21.16 8.52699 20.1022 7.69317 18.1081C7.51323 17.6781 7.38008 17.1468 7.30859 16.5517Z" fill="url(#paint9_linear_3763_72971)"/>
<path fill-rule="evenodd" clip-rule="evenodd" d="M15.6893 12.3145C16.8267 12.7867 17.0138 13.6705 18.4132 13.6746C19.5877 13.6781 20.3935 13.6181 20.7925 13.8353C21.0481 13.9746 21.3148 14.1719 21.5664 14.3902C20.5711 15.2343 18.8927 16.1805 16.6834 17.194C14.5772 18.1466 12.5031 19.2826 11.177 20.6229C11.06 20.7409 10.9498 20.8654 10.8469 20.9958C9.97589 19.718 9.05871 17.4613 10.2717 15.406C11.5536 13.2339 13.4242 12.3637 15.6893 12.3145Z" fill="url(#paint10_linear_3763_72971)"/>
<path fill-rule="evenodd" clip-rule="evenodd" d="M16.8402 17.1191L16.8412 17.1209C16.7685 19.1058 16.1981 21.206 15.3633 22.7261C14.5411 24.2232 12.5345 24.9951 11.1681 24.4788L11.0102 24.4119C10.2051 24.0184 9.93705 23.0096 10.1845 22.224C10.3537 21.6871 10.681 21.1232 11.1769 20.622C12.5031 19.2818 14.5771 18.1457 16.6833 17.1932L16.8402 17.1192V17.1191Z" fill="url(#paint11_linear_3763_72971)"/>
<path fill-rule="evenodd" clip-rule="evenodd" d="M13.7465 15.0504C13.3628 14.4746 13.9543 13.6474 14.5987 13.3668C15.243 13.0862 15.8563 13.0653 16.1576 13.3668C16.4589 13.6682 16.3239 14.5722 15.4301 15.0504C14.5362 15.5284 14.0375 15.4868 13.7465 15.0504Z" fill="#F1F0F1"/>
<path fill-rule="evenodd" clip-rule="evenodd" d="M15.7891 12.3574C16.8375 12.8382 17.0546 13.6693 18.4115 13.6734C19.5861 13.6768 20.3919 13.6168 20.7909 13.8341C21.0465 13.9733 21.3132 14.1706 21.5648 14.3889C20.8781 14.9713 19.8661 15.6024 18.5788 16.2706C17.6876 14.6022 16.6943 13.805 15.7891 12.3574Z" fill="url(#paint12_linear_3763_72971)"/>
<path fill-rule="evenodd" clip-rule="evenodd" d="M16.9792 13.6773C17.353 13.5414 17.8625 13.8955 18.1223 14.5191C18.3822 15.1427 18.4413 15.9107 17.6547 16.1299C17.0207 16.3066 16.8129 15.2881 16.7505 14.8412C16.6883 14.3944 16.6362 13.802 16.9792 13.6773Z" fill="url(#paint13_linear_3763_72971)"/>
<defs>
<linearGradient id="paint0_linear_3763_72971" x1="16.1836" y1="0" x2="16.1836" y2="32" gradientUnits="userSpaceOnUse">
<stop stop-color="#EDEDED"/>
<stop offset="1" stop-color="#E5E5E5"/>
</linearGradient>
<linearGradient id="paint1_linear_3763_72971" x1="26.4687" y1="19.7116" x2="24.6393" y2="21.0455" gradientUnits="userSpaceOnUse">
<stop stop-color="#C8C8C8"/>
<stop offset="1" stop-color="#B8B8B8"/>
</linearGradient>
<linearGradient id="paint2_linear_3763_72971" x1="23.8526" y1="21.7174" x2="26.2918" y2="20.2692" gradientUnits="userSpaceOnUse">
<stop stop-color="#6B6A6B"/>
<stop offset="1" stop-color="#6B6A6B"/>
</linearGradient>
<linearGradient id="paint3_linear_3763_72971" x1="21.6636" y1="22.6527" x2="25.1316" y2="21.2044" gradientUnits="userSpaceOnUse">
<stop offset="0.005" stop-color="#030303"/>
<stop offset="1" stop-color="#494949"/>
</linearGradient>
<linearGradient id="paint4_linear_3763_72971" x1="20.2477" y1="21.9134" x2="24.1965" y2="23.198" gradientUnits="userSpaceOnUse">
<stop stop-color="#686868"/>
<stop offset="1" stop-color="#282828"/>
</linearGradient>
<linearGradient id="paint5_linear_3763_72971" x1="24.2352" y1="20.0804" x2="24.6126" y2="21.0836" gradientUnits="userSpaceOnUse">
<stop stop-color="#F0EFF0"/>
<stop offset="1" stop-color="#DCDBDC"/>
</linearGradient>
<linearGradient id="paint6_linear_3763_72971" x1="23.0195" y1="17.7987" x2="24.2974" y2="19.3124" gradientUnits="userSpaceOnUse">
<stop stop-color="#C4C4C4"/>
<stop offset="0.995" stop-color="#8E8E8E"/>
</linearGradient>
<linearGradient id="paint7_linear_3763_72971" x1="5.26917" y1="18.8084" x2="22.64" y2="8.84787" gradientUnits="userSpaceOnUse">
<stop stop-color="#BCBCBC"/>
<stop offset="0.995" stop-color="#989898"/>
</linearGradient>
<linearGradient id="paint8_linear_3763_72971" x1="6.60818" y1="15.7722" x2="22.4709" y2="12.2411" gradientUnits="userSpaceOnUse">
<stop stop-color="#C8C8C8"/>
<stop offset="1" stop-color="#B8B8B8"/>
</linearGradient>
<linearGradient id="paint9_linear_3763_72971" x1="7.28165" y1="16.9326" x2="13.933" y2="16.9326" gradientUnits="userSpaceOnUse">
<stop stop-color="#919191"/>
<stop offset="1" stop-color="#323232"/>
</linearGradient>
<linearGradient id="paint10_linear_3763_72971" x1="9.29778" y1="17.872" x2="21.4854" y2="13.4793" gradientUnits="userSpaceOnUse">
<stop offset="0.005" stop-color="#030303"/>
<stop offset="1" stop-color="#494949"/>
</linearGradient>
<linearGradient id="paint11_linear_3763_72971" x1="15.6932" y1="22.9184" x2="12.6112" y2="19.3303" gradientUnits="userSpaceOnUse">
<stop stop-color="#C4C4C4"/>
<stop offset="0.995" stop-color="#8E8E8E"/>
</linearGradient>
<linearGradient id="paint12_linear_3763_72971" x1="21.686" y1="13.9729" x2="16.4908" y2="14.3665" gradientUnits="userSpaceOnUse">
<stop stop-color="#919191"/>
<stop offset="1" stop-color="#323232"/>
</linearGradient>
<linearGradient id="paint13_linear_3763_72971" x1="16.932" y1="13.5053" x2="17.9387" y2="16.1226" gradientUnits="userSpaceOnUse">
<stop stop-color="#F0EFF0"/>
<stop offset="1" stop-color="#DCDBDC"/>
</linearGradient>
</defs>
</svg>
