<svg width="64" height="64" viewBox="0 0 64 64" fill="none" xmlns="http://www.w3.org/2000/svg">
<circle cx="32" cy="32" r="32" fill="url(#paint0_linear_442_11417)"/>
<path fill-rule="evenodd" clip-rule="evenodd" d="M29.3755 41.5285L29.3564 41.5644C28.7034 42.7391 28.3722 43.3346 27.9134 43.7828C27.4134 44.2737 26.8146 44.6303 26.1554 44.8298C25.5534 45 24.8813 45 23.5341 45H17.8168C16.6161 45 16.0204 45 15.6605 44.7612C15.2687 44.4994 15.0298 44.0708 15.0012 43.5931C14.9789 43.1547 15.2751 42.618 15.8706 41.5481L29.9869 15.991C30.589 14.9047 30.8915 14.3615 31.2738 14.162C31.6846 13.946 32.1783 13.946 32.5924 14.162C32.9747 14.3615 33.2804 14.9047 33.8792 15.991L36.7808 21.1934L36.7967 21.2196C37.4465 22.3843 37.7745 22.9733 37.9179 23.595C38.0771 24.2723 38.0771 24.9856 37.9179 25.6628C37.7745 26.2878 37.4465 26.8832 36.7872 28.0644L29.3723 41.5285H29.3755ZM48.3427 44.7546C47.9796 45 47.3744 45 46.1641 45H37.972C36.7649 45 36.1565 45 35.7997 44.7612C35.408 44.4994 35.1692 44.061 35.1405 43.5865C35.1181 43.1513 35.4176 42.6213 36.0163 41.5578L36.0291 41.5317L40.1188 34.3204C40.7207 33.257 41.0234 32.7302 41.3992 32.5274C41.8132 32.3114 42.2974 32.3114 42.7082 32.5274C43.0809 32.7236 43.3739 33.2276 43.9504 34.2321L43.9982 34.3139L48.1006 41.5253C48.1197 41.5612 48.142 41.5939 48.1611 41.6299C48.7312 42.6377 49.0211 43.1513 48.9988 43.5767C48.9765 44.0512 48.7312 44.4896 48.3394 44.7514L48.3427 44.7546Z" fill="white"/>
<defs>
<linearGradient id="paint0_linear_442_11417" x1="12.2553" y1="7.14894" x2="54.8085" y2="51.4043" gradientUnits="userSpaceOnUse">
<stop stop-color="#FF9696"/>
<stop offset="0.0001" stop-color="#FF7879"/>
<stop offset="0.322917" stop-color="#E84142"/>
<stop offset="1" stop-color="#AA0001"/>
</linearGradient>
</defs>
</svg>
