<svg width="400" height="400" viewBox="0 0 400 400" fill="none" xmlns="http://www.w3.org/2000/svg">
<path d="M200.001 0C89.5451 0 0 89.5256 0 199.958C0 303.369 78.5168 388.445 179.2 398.846V115.892L90.7859 81.4638H179.197L199.999 69.4547L220.8 81.4638H309.211L220.8 115.892V398.849C321.483 388.439 400 303.369 400 199.958C400.003 89.5256 310.461 0 200.001 0ZM142.384 138.1V341.146L100.779 290.316V163.601L69.6723 151.358L60.8218 168.034L46.398 100.262L142.384 138.1ZM339.181 168.034L330.331 151.358L299.224 163.601V290.316L257.622 341.146V138.1L353.602 100.262L339.181 168.034Z" fill="#939393"/>
</svg>
