<svg width="64" height="64" viewBox="0 0 64 64" fill="none" xmlns="http://www.w3.org/2000/svg">
<circle cx="32" cy="32" r="32" fill="url(#paint0_linear_18_1469)"/>
<path d="M36.4579 27.9426L36.5314 26.3848L31.726 23.4017L26.9793 26.3848L27.1557 29.5297H40.4404L39.6468 42.447H23.8786L23.4377 35.2609H27.5084L27.6994 38.3911H35.8113L36.1199 33.6003H23.3348L22.7617 24.2246L31.726 18.5815L40.749 24.2246L40.5139 27.9426H36.4579Z" fill="white"/>
<path d="M47.5975 19.5215L32.902 10.3221C32.5701 10.1117 32.1853 10 31.7925 10C31.3996 10 31.0148 10.1117 30.6829 10.3221L15.9874 19.5215C15.6687 19.7275 15.4098 20.014 15.237 20.352C15.0641 20.6899 14.9834 21.0675 15.0029 21.4466L16.6194 48.016C16.6529 48.5515 16.8886 49.0542 17.2787 49.4226C17.6688 49.7909 18.1843 49.9972 18.7208 49.9999H44.8788C45.4126 50.0047 45.928 49.8048 46.3188 49.4413C46.7097 49.0777 46.9464 48.5782 46.9802 48.0454L48.5968 21.4172C48.6204 21.0399 48.5397 20.6634 48.3634 20.3289C48.1871 19.9945 47.9221 19.7151 47.5975 19.5215ZM44.1146 45.9733C44.1032 46.2463 43.9868 46.5042 43.7896 46.6932C43.5924 46.8822 43.3297 46.9876 43.0566 46.9873H20.4696C20.196 46.9843 19.9336 46.8782 19.7348 46.6902C19.536 46.5023 19.4153 46.2463 19.3968 45.9733L17.9566 22.3577C17.946 22.1641 17.9866 21.9712 18.0743 21.7983C18.162 21.6254 18.2938 21.4788 18.4563 21.3731L31.1679 13.3934C31.3422 13.2854 31.5433 13.2282 31.7484 13.2282C31.9535 13.2282 32.1545 13.2854 32.3288 13.3934L45.0551 21.3584C45.2198 21.4582 45.3537 21.6017 45.4418 21.7728C45.53 21.944 45.5691 22.1363 45.5548 22.3283L44.1146 45.9733Z" fill="white"/>
<defs>
<linearGradient id="paint0_linear_18_1469" x1="12.2553" y1="7.14894" x2="54.8085" y2="51.4043" gradientUnits="userSpaceOnUse">
<stop stop-color="#DDA547"/>
<stop offset="0.322917" stop-color="#CF9331"/>
<stop offset="1" stop-color="#533402"/>
</linearGradient>
</defs>
</svg>
