<svg width="32" height="32" viewBox="0 0 32 32" fill="none" xmlns="http://www.w3.org/2000/svg">
<g clip-path="url(#clip0_613_490)">
<path d="M16 32C24.8366 32 32 24.8366 32 16C32 7.16344 24.8366 0 16 0C7.16344 0 0 7.16344 0 16C0 24.8366 7.16344 32 16 32Z" fill="url(#paint0_linear_613_490)"/>
<path d="M16 31.75C24.6985 31.75 31.75 24.6985 31.75 16C31.75 7.30152 24.6985 0.25 16 0.25C7.30152 0.25 0.25 7.30152 0.25 16C0.25 24.6985 7.30152 31.75 16 31.75Z" stroke="white" stroke-width="0.5"/>
<path d="M7.76953 7.76953H9.80353V9.80353H7.76953V7.76953Z" fill="white"/>
<path d="M12.8555 7.76953H14.8895V9.80353H12.8555V7.76953Z" fill="white"/>
<path d="M17.9375 7.76953H19.9715V9.80353H17.9375V7.76953Z" fill="white"/>
<path d="M7.76953 12.8555H9.80353V14.8895H7.76953V12.8555Z" fill="white"/>
<path d="M12.8555 12.8555H14.8895V14.8895H12.8555V12.8555Z" fill="white"/>
<path d="M7.76953 17.9336H9.80353V19.9676H7.76953V17.9336Z" fill="white"/>
<path d="M24.0393 9.29334C24.3198 9.29334 24.5473 9.0659 24.5473 8.78534C24.5473 8.50478 24.3198 8.27734 24.0393 8.27734C23.7587 8.27734 23.5312 8.50478 23.5312 8.78534C23.5312 9.0659 23.7587 9.29334 24.0393 9.29334Z" fill="white"/>
<path d="M24.0393 14.3793C24.3198 14.3793 24.5473 14.1518 24.5473 13.8713C24.5473 13.5907 24.3198 13.3633 24.0393 13.3633C23.7587 13.3633 23.5312 13.5907 23.5312 13.8713C23.5312 14.1518 23.7587 14.3793 24.0393 14.3793Z" fill="white"/>
<path d="M24.0393 19.4594C24.3198 19.4594 24.5473 19.2319 24.5473 18.9514C24.5473 18.6708 24.3198 18.4434 24.0393 18.4434C23.7587 18.4434 23.5312 18.6708 23.5312 18.9514C23.5312 19.2319 23.7587 19.4594 24.0393 19.4594Z" fill="white"/>
<path d="M24.0393 24.5433C24.3198 24.5433 24.5473 24.3159 24.5473 24.0353C24.5473 23.7548 24.3198 23.5273 24.0393 23.5273C23.7587 23.5273 23.5312 23.7548 23.5312 24.0353C23.5312 24.3159 23.7587 24.5433 24.0393 24.5433Z" fill="white"/>
<path d="M18.9572 14.3793C19.2378 14.3793 19.4652 14.1518 19.4652 13.8713C19.4652 13.5907 19.2378 13.3633 18.9572 13.3633C18.6767 13.3633 18.4492 13.5907 18.4492 13.8713C18.4492 14.1518 18.6767 14.3793 18.9572 14.3793Z" fill="white"/>
<path d="M18.9572 19.4594C19.2378 19.4594 19.4652 19.2319 19.4652 18.9514C19.4652 18.6708 19.2378 18.4434 18.9572 18.4434C18.6767 18.4434 18.4492 18.6708 18.4492 18.9514C18.4492 19.2319 18.6767 19.4594 18.9572 19.4594Z" fill="white"/>
<path d="M18.9572 24.5433C19.2378 24.5433 19.4652 24.3159 19.4652 24.0353C19.4652 23.7548 19.2378 23.5273 18.9572 23.5273C18.6767 23.5273 18.4492 23.7548 18.4492 24.0353C18.4492 24.3159 18.6767 24.5433 18.9572 24.5433Z" fill="white"/>
<path d="M13.8713 19.4594C14.1518 19.4594 14.3793 19.2319 14.3793 18.9514C14.3793 18.6708 14.1518 18.4434 13.8713 18.4434C13.5907 18.4434 13.3633 18.6708 13.3633 18.9514C13.3633 19.2319 13.5907 19.4594 13.8713 19.4594Z" fill="white"/>
<path d="M13.8713 24.5433C14.1518 24.5433 14.3793 24.3159 14.3793 24.0353C14.3793 23.7548 14.1518 23.5273 13.8713 23.5273C13.5907 23.5273 13.3633 23.7548 13.3633 24.0353C13.3633 24.3159 13.5907 24.5433 13.8713 24.5433Z" fill="white"/>
<path d="M8.78534 24.5433C9.0659 24.5433 9.29334 24.3159 9.29334 24.0353C9.29334 23.7548 9.0659 23.5273 8.78534 23.5273C8.50478 23.5273 8.27734 23.7548 8.27734 24.0353C8.27734 24.3159 8.50478 24.5433 8.78534 24.5433Z" fill="white"/>
</g>
<defs>
<linearGradient id="paint0_linear_613_490" x1="16" y1="0" x2="16" y2="32" gradientUnits="userSpaceOnUse">
<stop stop-color="#222D53"/>
<stop offset="1" stop-color="#151D37"/>
</linearGradient>
<clipPath id="clip0_613_490">
<rect width="32" height="32" fill="white"/>
</clipPath>
</defs>
</svg>
