<svg width="20" height="20" viewBox="0 0 20 20" fill="none" xmlns="http://www.w3.org/2000/svg">
<path d="M9.99991 19.285C15.1279 19.285 19.285 15.1279 19.285 9.99991C19.285 4.87191 15.1279 0.714844 9.99991 0.714844C4.87191 0.714844 0.714844 4.87191 0.714844 9.99991C0.714844 15.1279 4.87191 19.285 9.99991 19.285Z" fill="white"/>
<path d="M9.99934 19.9986C8.68565 20.0023 7.3843 19.7452 6.17057 19.2426C4.95684 18.7399 3.85486 18.0016 2.92841 17.0702C1.99702 16.1438 1.25863 15.042 0.755973 13.8282C0.253319 12.6145 -0.00361684 11.313 4.01675e-05 9.99934C-0.00369573 8.68564 0.253206 7.38418 0.755864 6.17044C1.25852 4.9567 1.99696 3.85488 2.92841 2.92848C3.85481 1.99702 4.95677 1.25844 6.1705 0.755777C7.38424 0.253118 8.68564 -0.00369572 9.99934 4.01809e-05C11.313 -0.00369572 12.6144 0.253118 13.8282 0.755777C15.0419 1.25844 16.1439 1.99702 17.0703 2.92848C18.0017 3.85488 18.7402 4.9567 19.2428 6.17044C19.7455 7.38418 20.0024 8.68564 19.9986 9.99934C20.0023 11.313 19.7454 12.6145 19.2427 13.8282C18.7401 15.042 18.0017 16.1438 17.0703 17.0702C16.1438 18.0016 15.0418 18.7399 13.8281 19.2426C12.6144 19.7452 11.313 20.0023 9.99934 19.9986ZM9.99934 1.42851C7.72697 1.43097 5.54838 2.33478 3.94157 3.94159C2.33476 5.5484 1.43097 7.72697 1.42851 9.99934C1.43097 12.2717 2.33476 14.4503 3.94157 16.0571C5.54838 17.6639 7.72697 18.5677 9.99934 18.5702C12.2717 18.5677 14.4503 17.6639 16.0571 16.0571C17.6639 14.4503 18.5677 12.2717 18.5702 9.99934C18.5677 7.72697 17.6639 5.5484 16.0571 3.94159C14.4503 2.33478 12.2717 1.43097 9.99934 1.42851V1.42851Z" fill="#00B786"/>
<path opacity="0.7" d="M9.2863 19.9742V18.5408C9.52438 18.5608 9.76246 18.5708 10.0005 18.5708C10.2386 18.5708 10.4767 18.5611 10.7148 18.5415V19.9749C10.4767 19.9916 10.2386 20 10.0005 20C9.76246 20 9.52438 19.9913 9.2863 19.9742ZM15.533 16.5411C15.8967 16.2329 16.2343 15.8951 16.5422 15.5311L17.5586 16.5474C17.4034 16.7264 17.241 16.9004 17.0715 17.0695C16.902 17.2385 16.7279 17.401 16.5494 17.5567L15.533 16.5411ZM2.93102 17.0702C2.76151 16.9007 2.59891 16.7264 2.44321 16.5474L3.45957 15.5311C3.76776 15.8951 4.10555 16.2329 4.4695 16.5411L3.45314 17.5574C3.27411 17.4021 3.09959 17.2397 2.92961 17.0702H2.93102ZM18.5421 10.7135C18.5616 10.4755 18.5714 10.2374 18.5714 9.9993C18.5714 9.76122 18.5616 9.52315 18.5421 9.28507H19.9756C19.9922 9.52315 20.0006 9.76122 20.0006 9.9993C20.0006 10.2374 19.9922 10.4755 19.9756 10.7135H18.5421ZM0.026954 10.7135C0.0102885 10.4755 0.00195312 10.2374 0.00195312 9.9993C0.00195312 9.76122 0.0102885 9.52315 0.026954 9.28507H1.46042C1.44089 9.52315 1.43114 9.76122 1.43114 9.9993C1.43114 10.2374 1.44089 10.4755 1.46042 10.7135H0.026954ZM2.44321 3.45191C2.59891 3.27287 2.76151 3.09887 2.93102 2.92983C3.10053 2.7608 3.27483 2.59811 3.45386 2.44193L4.4695 3.45749C4.10562 3.76601 3.76783 4.10406 3.45957 4.46816L2.44321 3.45191ZM15.533 3.45749L16.5487 2.44193C16.7277 2.59764 16.902 2.76032 17.0715 2.92983C17.241 3.09934 17.4034 3.27335 17.5586 3.45191L16.5422 4.46816C16.2341 4.10396 15.8963 3.76589 15.5323 3.45749H15.533ZM9.2863 0.0251099C9.52438 0.00844435 9.76246 0 10.0005 0C10.2386 0 10.4767 0.00844435 10.7148 0.0251099V1.45707C10.4791 1.43755 10.241 1.42777 10.0005 1.42777C9.76008 1.42777 9.522 1.43777 9.2863 1.45777V0.0251099Z" fill="white"/>
<path d="M14.283 11.9918H14.2224C14.0707 12.1738 13.8584 12.2951 13.6461 12.3861H13.6158C13.4338 12.4771 13.2215 12.5074 13.0092 12.5074C12.7059 12.5378 12.4026 12.4468 12.0993 12.3255H12.0387C11.7657 12.1738 11.5534 11.9615 11.4017 11.7189V11.6582L10.8255 12.2345C10.8255 12.2345 10.7042 12.8107 10.6738 13.114H10.7042C11.2804 13.7509 12.1296 14.1452 13.0092 14.1452H13.1002C13.6764 14.1452 14.2224 13.9936 14.738 13.7206C15.0109 13.569 15.2536 13.4173 15.4962 13.205H15.5265L14.283 11.9918Z" fill="#00B786"/>
<path d="M6.09375 9.11033L6.33639 9.98989L6.39704 9.92923C6.63968 9.56528 7.03396 9.29231 7.45857 9.23165H7.4889C7.64055 9.20132 7.7922 9.17099 7.97417 9.17099C8.21681 9.20132 8.45945 9.26198 8.67175 9.3833C8.97505 9.53495 9.21768 9.74725 9.42999 10.0202L9.49065 10.0809L10.0366 9.29231L10.1882 8.47342L10.1276 8.41276C9.76361 8.07913 9.339 7.8365 8.88406 7.68485C8.64142 7.59386 8.36846 7.56353 8.09549 7.5332H8.06516C7.45857 7.5332 6.88232 7.68485 6.36672 7.98814L6.12408 9.01935L6.09375 9.11033Z" fill="#00B786"/>
<path d="M11.2794 11.3847V10.8388C11.2794 10.4445 11.4007 10.0806 11.6434 9.77726H11.6737L11.7647 9.65594C12.0983 9.32232 12.5229 9.14034 13.0082 9.14034H13.2508C13.6148 9.201 13.9787 9.38298 14.2517 9.62561H14.2214L15.4042 8.44277H15.3436C14.7673 7.86651 13.9788 7.50255 13.1599 7.47222H12.9172C12.4319 7.47222 11.9467 7.56321 11.4614 7.74519C11.1581 7.86651 10.8851 8.07881 10.6728 8.29112H10.6122L10.3695 8.56408L10.1876 9.38298L9.55065 10.2322V10.8388C9.55065 11.506 9.15637 12.1126 8.54978 12.3856C7.63989 12.7799 6.60869 12.3553 6.21441 11.4454C6.12342 11.2634 6.09309 11.0511 6.06276 10.8388V10.2625L5.75947 9.04935L6.03243 7.92716V6.16806L4.33398 5.5918L4.39464 9.5043V10.8691C4.39464 10.9298 4.39464 10.9601 4.42497 11.0208H4.4553C4.51596 11.9913 4.9709 12.8709 5.72914 13.4471C6.36606 13.9324 7.12429 14.175 7.91286 14.175H8.06451C8.85307 14.175 9.64164 13.8717 10.2179 13.3561L10.4605 13.0832L10.6425 12.1126L11.2794 11.3847Z" fill="#00B786"/>
</svg>
