<svg width="32" height="32" viewBox="0 0 32 32" fill="none" xmlns="http://www.w3.org/2000/svg">
<g clip-path="url(#clip0_1251_23183)">
<path d="M16 32C24.8366 32 32 24.8366 32 16C32 7.16344 24.8366 0 16 0C7.16344 0 0 7.16344 0 16C0 24.8366 7.16344 32 16 32Z" fill="url(#paint0_linear_1251_23183)"/>
<path d="M16 31.75C24.6985 31.75 31.75 24.6985 31.75 16C31.75 7.30152 24.6985 0.25 16 0.25C7.30152 0.25 0.25 7.30152 0.25 16C0.25 24.6985 7.30152 31.75 16 31.75Z" stroke="white" stroke-width="0.5"/>
<path d="M23.3295 18.9681H23.2245C22.962 19.2831 22.5945 19.4931 22.227 19.6506H22.1745C21.8595 19.8081 21.492 19.8606 21.1245 19.8606C20.5995 19.9131 20.0745 19.7556 19.5495 19.5456H19.4445C18.972 19.2831 18.6045 18.9156 18.342 18.4956V18.3906L17.3445 19.3881C17.3445 19.3881 17.1345 20.3856 17.082 20.9106H17.1345C18.132 22.0131 19.602 22.6956 21.1245 22.6956H21.282C22.2795 22.6956 23.2245 22.4331 24.117 21.9606C24.5895 21.6981 25.0095 21.4356 25.4295 21.0681H25.482L23.3295 18.9681Z" fill="white"/>
<path d="M9.15625 13.98L9.57625 15.5025L9.68125 15.3975C10.1012 14.7675 10.7837 14.295 11.5187 14.19H11.5712C11.8337 14.1375 12.0962 14.085 12.4112 14.085C12.8312 14.1375 13.2512 14.2425 13.6187 14.4525C14.1437 14.715 14.5637 15.0825 14.9312 15.555L15.0362 15.66L15.9812 14.295L16.2437 12.8775L16.1387 12.7725C15.5087 12.195 14.7737 11.775 13.9862 11.5125C13.5662 11.355 13.0937 11.3025 12.6212 11.25H12.5687C11.5187 11.25 10.5212 11.5125 9.62875 12.0375L9.20875 13.8225L9.15625 13.98Z" fill="white"/>
<path d="M18.1337 17.918V16.973C18.1337 16.2905 18.3437 15.6606 18.7637 15.1356H18.8162L18.9737 14.9256C19.5512 14.3481 20.2862 14.0331 21.1262 14.0331H21.5462C22.1762 14.1381 22.8062 14.4531 23.2787 14.8731H23.2262L25.2736 12.8256H25.1686C24.1712 11.8281 22.8062 11.1981 21.3887 11.1456H20.9687C20.1287 11.1456 19.2887 11.3031 18.4487 11.6181C17.9237 11.8281 17.4512 12.1956 17.0837 12.5631H16.9787L16.5587 13.0356L16.2437 14.4531L15.1412 15.9231V16.973C15.1412 18.128 14.4587 19.178 13.4088 19.6505C11.8338 20.333 10.0488 19.598 9.3663 18.023C9.2088 17.708 9.1563 17.3405 9.1038 16.973V15.9756L8.57881 13.8756L9.0513 11.9331V8.88812L6.11133 7.89062L6.21633 14.6631V17.0255C6.21633 17.1305 6.21633 17.183 6.26883 17.288H6.32133C6.42633 18.968 7.21382 20.4905 8.52631 21.488C9.6288 22.328 10.9413 22.748 12.3063 22.748H12.5688C13.9338 22.748 15.2987 22.223 16.2962 21.3305L16.7162 20.858L17.0312 19.178L18.1337 17.918Z" fill="white"/>
</g>
<defs>
<linearGradient id="paint0_linear_1251_23183" x1="16" y1="0" x2="16" y2="32" gradientUnits="userSpaceOnUse">
<stop stop-color="#00CC95"/>
<stop offset="1" stop-color="#009D73"/>
</linearGradient>
<clipPath id="clip0_1251_23183">
<rect width="32" height="32" fill="white"/>
</clipPath>
</defs>
</svg>
