<svg width="64" height="64" viewBox="0 0 64 64" fill="none" xmlns="http://www.w3.org/2000/svg">
<circle cx="32" cy="32" r="32" fill="#4C5460"/>
<path d="M29.7436 25.6V25.6232L27.5575 14.0817L25.7436 13.5L24.604 15.0358L29.7436 25.6Z" fill="white"/>
<path d="M30.9321 20.7805L31.8624 25.2481L32.8624 20.7106L31.8856 20.0591L30.9321 20.7805Z" fill="white"/>
<path d="M37.838 21.5772L36.6519 21.6936L35.2566 26.1147L38.3264 22.6476L37.838 21.5772Z" fill="white"/>
<path d="M47.9766 22.5056V20.6208L46.1394 20.0391L37.5347 28.1135L47.9766 22.5056Z" fill="white"/>
<path d="M26.9531 27.2745L24.395 23.4351L24.4415 23.5282L24.395 23.4351L23.2322 23.6213L23.0461 24.7847L26.9531 27.2745Z" fill="white"/>
<path d="M43.4208 31.1866L38.8394 32.0941L43.4208 33.0946L44.1184 32.1406L43.4208 31.1866Z" fill="white"/>
<path d="M24.9071 32.1166L13.1395 30.6274L12 32.1632L13.1395 33.6989L24.9071 32.1166Z" fill="white"/>
<path d="M20.5598 34.6739L20.2109 35.7676L21.1644 36.4656L25.2342 34.1852L20.5598 34.6739Z" fill="white"/>
<path d="M21.9078 37.9118L21.8613 39.0752L22.9776 39.4708L26.2334 36.0502L21.9078 37.9118Z" fill="white"/>
<path d="M27.7664 37.6313L24.3013 40.6795L24.6036 41.7965L25.7896 41.843L27.7664 37.6313Z" fill="white"/>
<path d="M31.8853 38.9766L30.9551 43.4908L31.9086 44.1656L32.8621 43.4675L31.8853 38.9766Z" fill="white"/>
<path d="M47.9999 41.7254L37.5347 36.1641L46.1859 44.1919L47.9999 43.6102V41.7254Z" fill="white"/>
<path d="M36.4673 42.589L34.1184 38.6564L34.6533 43.1707L35.7696 43.5197L36.4673 42.589Z" fill="white"/>
<path d="M29.7669 38.6552L24.6738 49.2427L25.8133 50.7784L27.6273 50.1967L29.7669 38.6552Z" fill="white"/>
</svg>
