<svg width="20" height="20" viewBox="0 0 20 20" fill="none" xmlns="http://www.w3.org/2000/svg">
<path d="M9.99991 19.285C15.1279 19.285 19.285 15.1279 19.285 9.99991C19.285 4.87191 15.1279 0.714844 9.99991 0.714844C4.87191 0.714844 0.714844 4.87191 0.714844 9.99991C0.714844 15.1279 4.87191 19.285 9.99991 19.285Z" fill="white"/>
<path d="M9.99934 19.9986C8.68565 20.0023 7.3843 19.7452 6.17057 19.2426C4.95684 18.7399 3.85486 18.0016 2.92841 17.0702C1.99702 16.1438 1.25863 15.042 0.755973 13.8282C0.253319 12.6145 -0.00361684 11.313 4.01675e-05 9.99934C-0.00369573 8.68564 0.253206 7.38418 0.755864 6.17044C1.25852 4.9567 1.99696 3.85488 2.92841 2.92848C3.85481 1.99702 4.95677 1.25844 6.1705 0.755777C7.38424 0.253118 8.68564 -0.00369572 9.99934 4.01809e-05C11.313 -0.00369572 12.6144 0.253118 13.8282 0.755777C15.0419 1.25844 16.1439 1.99702 17.0703 2.92848C18.0017 3.85488 18.7402 4.9567 19.2428 6.17044C19.7455 7.38418 20.0024 8.68564 19.9986 9.99934C20.0023 11.313 19.7454 12.6145 19.2427 13.8282C18.7401 15.042 18.0017 16.1438 17.0703 17.0702C16.1438 18.0016 15.0418 18.7399 13.8281 19.2426C12.6144 19.7452 11.313 20.0023 9.99934 19.9986ZM9.99934 1.42851C7.72697 1.43097 5.54838 2.33478 3.94157 3.94159C2.33476 5.5484 1.43097 7.72697 1.42851 9.99934C1.43097 12.2717 2.33476 14.4503 3.94157 16.0571C5.54838 17.6639 7.72697 18.5677 9.99934 18.5702C12.2717 18.5677 14.4503 17.6639 16.0571 16.0571C17.6639 14.4503 18.5677 12.2717 18.5702 9.99934C18.5677 7.72697 17.6639 5.5484 16.0571 3.94159C14.4503 2.33478 12.2717 1.43097 9.99934 1.42851Z" fill="#1C1C1C"/>
<path opacity="0.7" d="M9.2863 19.9742V18.5408C9.52438 18.5608 9.76246 18.5708 10.0005 18.5708C10.2386 18.5708 10.4767 18.5611 10.7148 18.5415V19.9749C10.4767 19.9916 10.2386 20 10.0005 20C9.76246 20 9.52438 19.9913 9.2863 19.9742ZM15.533 16.5411C15.8967 16.2329 16.2343 15.8951 16.5422 15.5311L17.5586 16.5474C17.4034 16.7264 17.241 16.9004 17.0715 17.0695C16.902 17.2385 16.7279 17.401 16.5494 17.5567L15.533 16.5411ZM2.93102 17.0702C2.76151 16.9007 2.59891 16.7264 2.44321 16.5474L3.45957 15.5311C3.76776 15.8951 4.10556 16.2329 4.4695 16.5411L3.45314 17.5574C3.27411 17.4021 3.09959 17.2397 2.92961 17.0702H2.93102ZM18.5421 10.7135C18.5616 10.4755 18.5714 10.2374 18.5714 9.9993C18.5714 9.76122 18.5616 9.52315 18.5421 9.28507H19.9756C19.9922 9.52315 20.0006 9.76122 20.0006 9.9993C20.0006 10.2374 19.9922 10.4755 19.9756 10.7135H18.5421ZM0.026954 10.7135C0.0102885 10.4755 0.00195312 10.2374 0.00195312 9.9993C0.00195312 9.76122 0.0102885 9.52315 0.026954 9.28507H1.46042C1.44089 9.52315 1.43114 9.76122 1.43114 9.9993C1.43114 10.2374 1.44089 10.4755 1.46042 10.7135H0.026954ZM2.44321 3.45191C2.59891 3.27287 2.76151 3.09887 2.93102 2.92983C3.10053 2.7608 3.27483 2.59811 3.45386 2.44193L4.4695 3.45749C4.10562 3.76601 3.76783 4.10406 3.45957 4.46816L2.44321 3.45191ZM15.533 3.45749L16.5487 2.44193C16.7277 2.59764 16.902 2.76032 17.0715 2.92983C17.241 3.09934 17.4034 3.27335 17.5586 3.45191L16.5422 4.46816C16.2341 4.10396 15.8963 3.76589 15.5323 3.45749H15.533ZM9.2863 0.0251099C9.52438 0.00844435 9.76246 0 10.0005 0C10.2386 0 10.4767 0.00844435 10.7148 0.0251099V1.45707C10.4791 1.43755 10.241 1.42777 10.0005 1.42777C9.76008 1.42777 9.522 1.43777 9.2863 1.45777V0.0251099Z" fill="white"/>
<g clip-path="url(#clip0_4212_65893)">
<path d="M12.9131 7.7844L13.8974 6.67344C15.6988 8.60588 15.7026 11.5226 13.905 13.4551L12.8827 12.2753C11.7502 10.969 11.7616 9.07633 12.9093 7.7844H12.9131ZM7.45195 7.19816C8.81248 8.29105 10.7963 8.30191 12.1682 7.22349L14.7525 5.19696C14.8589 5.11373 14.7981 4.94727 14.6575 4.94727H9.8766C8.59205 4.94727 7.30373 5.38514 6.28522 6.25727L7.45575 7.19816H7.45195ZM12.2936 12.9846C10.9331 11.8917 8.9493 11.8809 7.57735 12.9593L5.0539 14.9388C4.94749 15.022 5.00829 15.1885 5.14891 15.1885H9.8766C11.1497 15.1885 12.4267 14.7579 13.4414 13.9002L12.2974 12.981L12.2936 12.9846ZM6.86288 7.90383L5.82158 6.70239C4.03919 8.6457 4.05439 11.5624 5.86718 13.484L6.83248 12.3948C7.9802 11.0992 7.9916 9.21022 6.85908 7.90383H6.86288Z" fill="url(#paint0_linear_4212_65893)"/>
</g>
<defs>
<linearGradient id="paint0_linear_4212_65893" x1="4.79167" y1="14.9062" x2="14.4857" y2="4.72578" gradientUnits="userSpaceOnUse">
<stop offset="0.13" stop-color="#3838F4"/>
<stop offset="0.36" stop-color="#8B7FFF"/>
<stop offset="0.69" stop-color="#E6FF67"/>
</linearGradient>
<clipPath id="clip0_4212_65893">
<rect width="11" height="10.4211" fill="white" transform="translate(4.5 4.94727)"/>
</clipPath>
</defs>
</svg>
