<svg width="32" height="32" viewBox="0 0 32 32" fill="none" xmlns="http://www.w3.org/2000/svg">
<g clip-path="url(#clip0_613_419)">
<path d="M16 32C24.837 32 32 24.837 32 16C32 7.163 24.837 0 16 0C7.163 0 0 7.163 0 16C0 24.837 7.163 32 16 32Z" fill="url(#paint0_linear_613_419)"/>
<path d="M16 31.75C24.698 31.75 31.75 24.698 31.75 16C31.75 7.302 24.698 0.25 16 0.25C7.302 0.25 0.25 7.302 0.25 16C0.25 24.698 7.302 31.75 16 31.75Z" stroke="white" stroke-width="0.5"/>
<path d="M23.3302 18.968H23.2253C22.9623 19.283 22.5952 19.493 22.2272 19.651H22.1742C21.8602 19.808 21.4923 19.861 21.1243 19.861C20.6003 19.913 20.0742 19.756 19.5492 19.546H19.4452C18.9942 19.2955 18.6146 18.9341 18.3422 18.496V18.391L17.3452 19.388C17.3452 19.388 17.1353 20.386 17.0823 20.911H17.1343C18.1323 22.013 19.6023 22.696 21.1243 22.696H21.2822C22.2792 22.696 23.2243 22.433 24.1173 21.961C24.5903 21.698 25.0093 21.436 25.4303 21.068H25.4823L23.3302 18.968V18.968ZM9.15625 13.98L9.57625 15.502L9.68125 15.398C10.1012 14.768 10.7842 14.295 11.5192 14.19H11.5712C11.8469 14.126 12.1284 14.0908 12.4113 14.085C12.8313 14.137 13.2513 14.242 13.6193 14.452C14.1443 14.715 14.5642 15.082 14.9312 15.555L15.0363 15.66L15.9812 14.295L16.2442 12.877L16.1392 12.773C15.5184 12.206 14.7847 11.7766 13.9862 11.513C13.5662 11.355 13.0943 11.303 12.6213 11.25H12.5693C11.5193 11.25 10.5212 11.512 9.62925 12.037L9.20925 13.822L9.15625 13.98V13.98Z" fill="white"/>
<path d="M18.1324 17.9176V16.9726C18.1324 16.2906 18.3424 15.6606 18.7624 15.1356H18.8144L18.9724 14.9256C19.2525 14.6395 19.5875 14.413 19.9573 14.2595C20.327 14.1061 20.724 14.0289 21.1244 14.0326H21.5444C22.1744 14.1376 22.8044 14.4526 23.2774 14.8726H23.2244L25.2724 12.8256H25.1674C24.1694 11.8276 22.8044 11.1976 21.3874 11.1456H20.9674C20.1274 11.1456 19.2874 11.3026 18.4474 11.6176C17.9224 11.8276 17.4494 12.1956 17.0824 12.5626H16.9774L16.5574 13.0356L16.2424 14.4526L15.1394 15.9226V16.9726C15.1387 17.5383 14.9749 18.0917 14.6677 18.5667C14.3606 19.0416 13.923 19.418 13.4074 19.6506C11.8324 20.3326 10.0474 19.5976 9.36438 18.0226C9.20738 17.7076 9.15438 17.3396 9.10238 16.9726V15.9756L8.57737 13.8756L9.04937 11.9326V8.88762L6.10938 7.89062L6.21438 14.6626V17.0256C6.21438 17.1306 6.21437 17.1826 6.26737 17.2876H6.31937C6.42437 18.9676 7.21237 20.4906 8.52437 21.4876C9.61071 22.3134 10.9398 22.7565 12.3044 22.7476H12.5674C13.9324 22.7476 15.2974 22.2226 16.2944 21.3296L16.7144 20.8576L17.0294 19.1776L18.1324 17.9176V17.9176Z" fill="white"/>
</g>
<defs>
<linearGradient id="paint0_linear_613_419" x1="16" y1="0" x2="16" y2="32" gradientUnits="userSpaceOnUse">
<stop stop-color="#00CC95"/>
<stop offset="1" stop-color="#009D73"/>
</linearGradient>
<clipPath id="clip0_613_419">
<rect width="32" height="32" fill="white"/>
</clipPath>
</defs>
</svg>
