<svg width="20" height="20" viewBox="0 0 20 20" fill="none" xmlns="http://www.w3.org/2000/svg">
<path d="M10 20C15.5228 20 20 15.5228 20 10C20 4.47715 15.5228 0 10 0C4.47715 0 0 4.47715 0 10C0 15.5228 4.47715 20 10 20Z" fill="white"/>
<path d="M9.99966 19.9986C8.68593 20.0023 7.38453 19.7452 6.17076 19.2426C4.957 18.7399 3.85498 18.0016 2.9285 17.0702C1.99708 16.1438 1.25867 15.042 0.755997 13.8282C0.253327 12.6145 -0.00361695 11.313 4.01687e-05 9.99934C-0.00369585 8.68564 0.253213 7.38418 0.755888 6.17044C1.25856 4.9567 1.99702 3.85488 2.9285 2.92848C3.85493 1.99702 4.95692 1.25844 6.1707 0.755777C7.38447 0.253118 8.68592 -0.00369572 9.99966 4.01809e-05C11.3134 -0.00369572 12.6148 0.253118 13.8286 0.755777C15.0424 1.25844 16.1444 1.99702 17.0708 2.92848C18.0023 3.85488 18.7408 4.9567 19.2434 6.17044C19.7461 7.38418 20.003 8.68564 19.9993 9.99934C20.0029 11.313 19.746 12.6145 19.2433 13.8282C18.7406 15.042 18.0022 16.1438 17.0708 17.0702C16.1443 18.0016 15.0423 18.7399 13.8286 19.2426C12.6148 19.7452 11.3134 20.0023 9.99966 19.9986ZM9.99966 1.42851C7.72722 1.43097 5.54855 2.33478 3.94169 3.94159C2.33483 5.5484 1.43101 7.72697 1.42856 9.99934C1.43101 12.2717 2.33483 14.4503 3.94169 16.0571C5.54855 17.6639 7.72722 18.5677 9.99966 18.5702C12.2721 18.5677 14.4508 17.6639 16.0576 16.0571C17.6645 14.4503 18.5683 12.2717 18.5708 9.99934C18.5683 7.72697 17.6645 5.5484 16.0576 3.94159C14.4508 2.33478 12.2721 1.43097 9.99966 1.42851Z" fill="#0C063B"/>
<path opacity="0.41" d="M9.28464 19.9742V18.5408C9.52273 18.5608 9.76081 18.5708 9.9989 18.5708C10.237 18.5708 10.4751 18.5611 10.7132 18.5415V19.9749C10.4751 19.9916 10.237 20 9.9989 20C9.76081 20 9.52273 19.9913 9.28464 19.9742ZM15.5315 16.5411C15.8953 16.2329 16.2328 15.8951 16.5408 15.5311L17.5572 16.5474C17.402 16.7264 17.2396 16.9004 17.0701 17.0695C16.9005 17.2385 16.7265 17.401 16.5479 17.5567L15.5315 16.5411ZM2.92916 17.0702C2.75964 16.9007 2.59704 16.7264 2.44133 16.5474L3.45773 15.5311C3.76592 15.8951 4.10373 16.2329 4.46769 16.5411L3.4513 17.5574C3.27226 17.4021 3.09774 17.2397 2.92774 17.0702H2.92916ZM18.5407 10.7135C18.5603 10.4755 18.57 10.2374 18.57 9.9993C18.57 9.76122 18.5603 9.52315 18.5407 9.28507H19.9742C19.9909 9.52315 19.9992 9.76122 19.9992 9.9993C19.9992 10.2374 19.9909 10.4755 19.9742 10.7135H18.5407ZM0.0250017 10.7135C0.00833563 10.4755 0 10.2374 0 9.9993C0 9.76122 0.00833563 9.52315 0.0250017 9.28507H1.45851C1.43899 9.52315 1.42924 9.76122 1.42924 9.9993C1.42924 10.2374 1.43899 10.4755 1.45851 10.7135H0.0250017ZM2.44133 3.45191C2.59704 3.27287 2.75964 3.09887 2.92916 2.92983C3.09868 2.7608 3.27298 2.59811 3.45202 2.44193L4.46769 3.45749C4.1038 3.76601 3.766 4.10406 3.45773 4.46816L2.44133 3.45191ZM15.5315 3.45749L16.5472 2.44193C16.7263 2.59764 16.9005 2.76032 17.0701 2.92983C17.2396 3.09934 17.402 3.27335 17.5572 3.45191L16.5408 4.46816C16.2326 4.10396 15.8955 3.76589 15.5315 3.45749ZM9.28464 0.0251099C9.52273 0.00844435 9.76081 0 9.9989 0C10.237 0 10.4751 0.00844435 10.7132 0.0251099V1.45707C10.4775 1.43755 10.2394 1.42777 9.9989 1.42777C9.75843 1.42777 9.52035 1.43777 9.28464 1.45777V0.0251099Z" fill="white"/>
<g clip-path="url(#clip0_4446_67141)">
<path d="M8.08375 12.9581L7.95118 13.0346V12.8828C7.95118 12.8828 7.94988 12.9606 7.98497 12.9801C8.02006 12.9983 8.08375 12.9581 8.08375 12.9581Z" fill="#8E3315"/>
<path d="M4.69727 12.8016C5.44069 14.2053 6.71308 15.2574 8.23371 15.7244C9.75434 16.1927 11.3997 16.0384 12.806 15.295C14.2136 14.553 15.2663 13.2829 15.7355 11.7651C16.2047 10.2472 16.0461 8.60614 15.3027 7.20117C15.9733 9.31187 13.6378 10.0526 13.6378 10.0526L10.8123 11.5277L7.8737 13.0572C7.8737 13.0572 5.87218 14.3428 4.69727 12.8016Z" fill="#473ADE"/>
<path d="M4.67969 12.8114C5.42311 14.215 6.6955 15.2672 8.21613 15.7342C9.73677 16.2025 11.3822 16.0481 12.7884 15.3048C14.196 14.5627 15.2487 13.2927 15.7179 11.7748C16.1871 10.257 16.0324 8.61591 15.2877 7.21094C15.9584 9.32164 13.6202 10.0624 13.6202 10.0624L10.7947 11.5374L7.85742 13.0669C7.85612 13.0669 5.8546 14.3526 4.67969 12.8114Z" fill="url(#paint0_linear_4446_67141)"/>
<path d="M13.6523 9.94531L13.7731 10.0102L13.6016 10.0724C13.6016 10.0724 13.6899 10.0426 13.7016 10.0089C13.7146 9.97515 13.6523 9.94531 13.6523 9.94531Z" fill="#292282"/>
<path d="M15.3384 12.7386C16.0649 11.3259 16.1988 9.68221 15.7114 8.16956C15.224 6.65821 14.1544 5.40113 12.739 4.67594C11.3223 3.95075 9.67694 3.81713 8.16151 4.30361C6.64608 4.7901 5.38668 5.85648 4.66016 7.27053C6.00793 5.5127 7.95746 7.00069 7.95746 7.00069L10.7882 8.46794L13.7281 9.99356C13.7281 9.99356 15.931 10.8939 15.3384 12.7386Z" fill="#D71D6A"/>
<path d="M15.3235 12.7314C16.0474 11.3225 16.1813 9.68402 15.6952 8.17656C15.2091 6.66911 14.1433 5.41592 12.7319 4.69332C11.3204 3.97073 9.67893 3.83711 8.16869 4.3223C6.65716 4.80619 5.40166 5.87127 4.67773 7.28013C6.02161 5.52748 7.96464 7.01029 7.96464 7.01029L10.7863 8.47235L13.7171 9.99408C13.7171 9.99408 15.9148 10.8918 15.3235 12.7314Z" fill="url(#paint1_linear_4446_67141)"/>
<path d="M7.95182 7.14199L7.94922 6.98242L8.08828 7.06026C8.08828 7.06026 8.0181 7.01875 7.98171 7.0408C7.94792 7.06285 7.95182 7.14199 7.95182 7.14199Z" fill="#741039"/>
<path d="M10.0006 4.01367C8.40983 4.01367 6.8827 4.64416 5.75718 5.76762C4.63165 6.89108 4 8.41411 4 10.002C4 11.5899 4.63165 13.1142 5.75718 14.2364C6.8827 15.3598 8.40853 15.9903 10.0006 15.9903C7.95884 15.6478 7.95884 13.0065 7.95884 13.0065V10.002V6.94297C7.95754 6.94297 7.95754 4.37821 10.0006 4.01367Z" fill="#FF5B25"/>
<path d="M10.0006 4C8.40853 4 6.8827 4.63049 5.75718 5.75395C4.63165 6.87741 4 8.40043 4 9.98962C4 11.5775 4.63165 13.1018 5.75718 14.224C6.8827 15.3475 8.40853 15.9779 10.0006 15.9779C7.95884 15.3267 7.95884 13.0123 7.95884 13.0123V9.99611V6.99935C7.95754 6.99935 7.88346 4.38789 10.0006 4Z" fill="url(#paint2_linear_4446_67141)"/>
<path d="M9.98422 15.9902C7.95801 15.0691 7.96061 13.0116 7.96061 13.0116C7.96061 13.0116 5.44831 14.4256 4.60352 12.6172C4.60222 12.6172 6.01888 16.0018 9.98422 15.9902Z" fill="#473ADE"/>
</g>
<defs>
<linearGradient id="paint0_linear_4446_67141" x1="14.5159" y1="8.53875" x2="5.80189" y2="17.1589" gradientUnits="userSpaceOnUse">
<stop stop-opacity="0.6"/>
<stop offset="0.6555" stop-opacity="0"/>
</linearGradient>
<linearGradient id="paint1_linear_4446_67141" x1="6.20563" y1="7.15071" x2="18.2357" y2="9.36208" gradientUnits="userSpaceOnUse">
<stop stop-opacity="0.6"/>
<stop offset="0.6458" stop-opacity="0"/>
</linearGradient>
<linearGradient id="paint2_linear_4446_67141" x1="9.30597" y1="14.5583" x2="5.74889" y2="3.5809" gradientUnits="userSpaceOnUse">
<stop stop-opacity="0.6"/>
<stop offset="0.6755" stop-opacity="0"/>
</linearGradient>
<clipPath id="clip0_4446_67141">
<rect width="12" height="12" fill="white" transform="translate(4 4)"/>
</clipPath>
</defs>
</svg>
