<svg width="32" height="32" viewBox="0 0 32 32" fill="none" xmlns="http://www.w3.org/2000/svg">
<g clip-path="url(#clip0_2549_50397)">
<path d="M16 32C24.8366 32 32 24.8366 32 16C32 7.16344 24.8366 0 16 0C7.16344 0 0 7.16344 0 16C0 24.8366 7.16344 32 16 32Z" fill="url(#paint0_linear_2549_50397)"/>
<path d="M16 31.75C24.6985 31.75 31.75 24.6985 31.75 16C31.75 7.30152 24.6985 0.25 16 0.25C7.30152 0.25 0.25 7.30152 0.25 16C0.25 24.6985 7.30152 31.75 16 31.75Z" fill="url(#paint1_linear_2549_50397)" stroke="white" stroke-width="0.5"/>
<g clip-path="url(#clip1_2549_50397)">
<path d="M12.7484 21.0203L12.5234 21.1501V20.8926C12.5234 20.8926 12.5212 21.0247 12.5808 21.0577C12.6403 21.0885 12.7484 21.0203 12.7484 21.0203Z" fill="#8E3315"/>
<path d="M7 20.7538C8.26156 23.1358 10.4208 24.9212 13.0012 25.7137C15.5817 26.5084 18.3739 26.2464 20.7603 24.985C23.1489 23.7257 24.9354 21.5705 25.7315 18.9948C26.5277 16.4191 26.2587 13.6342 24.9971 11.25C26.1352 14.8318 22.1718 16.0888 22.1718 16.0888L17.377 18.5919L12.3903 21.1875C12.3903 21.1875 8.9938 23.3691 7 20.7538Z" fill="#473ADE"/>
<path d="M6.9707 20.7713C8.23227 23.1533 10.3915 24.9387 12.9719 25.7313C15.5524 26.526 18.3446 26.264 20.731 25.0026C23.1196 23.7433 24.9061 21.5881 25.7023 19.0124C26.4985 16.4366 26.236 13.6518 24.9722 11.2676C26.1103 14.8494 22.1425 16.1064 22.1425 16.1064L17.3477 18.6095L12.3632 21.205C12.361 21.205 8.9645 23.3867 6.9707 20.7713Z" fill="url(#paint2_linear_2549_50397)"/>
<path d="M22.1993 15.9082L22.4044 16.0183L22.1133 16.1239C22.1133 16.1239 22.2633 16.0733 22.2831 16.0161C22.3052 15.9588 22.1993 15.9082 22.1993 15.9082Z" fill="#292282"/>
<path d="M25.0601 20.6484C26.293 18.251 26.5201 15.4617 25.6931 12.8948C24.866 10.3301 23.0508 8.19686 20.649 6.96624C18.245 5.73561 15.4528 5.50886 12.8811 6.33441C10.3095 7.15997 8.17234 8.96958 6.93945 11.3692C9.22659 8.38619 12.5349 10.9113 12.5349 10.9113L17.3385 13.4011L22.3274 15.9901C22.3274 15.9901 26.0658 17.5179 25.0601 20.6484Z" fill="#D71D6A"/>
<path d="M25.0342 20.6361C26.2627 18.2453 26.4899 15.4649 25.665 12.9068C24.8401 10.3486 23.0316 8.22202 20.6364 6.99579C18.2412 5.76957 15.4556 5.54282 12.8928 6.36617C10.3278 7.18732 8.19723 8.99473 6.96875 11.3855C9.24927 8.41134 12.5465 10.9276 12.5465 10.9276L17.3347 13.4087L22.3082 15.991C22.3082 15.991 26.0377 17.5144 25.0342 20.6361Z" fill="url(#paint3_linear_2549_50397)"/>
<path d="M12.5259 11.1497L12.5215 10.8789L12.7575 11.011C12.7575 11.011 12.6384 10.9405 12.5766 10.978C12.5193 11.0154 12.5259 11.1497 12.5259 11.1497Z" fill="#741039"/>
<path d="M16.0013 5.8418C13.3017 5.8418 10.7102 6.91171 8.80023 8.81819C6.89025 10.7247 5.81836 13.3092 5.81836 16.0038C5.81836 18.6984 6.89025 21.2851 8.80023 23.1894C10.7102 25.0959 13.2995 26.1658 16.0013 26.1658C12.5364 25.5846 12.5364 21.1024 12.5364 21.1024V16.0038V10.8127C12.5342 10.8127 12.5342 6.46041 16.0013 5.8418Z" fill="#FF5B25"/>
<path d="M16.0013 5.81836C13.2995 5.81836 10.7102 6.88828 8.80023 8.79475C6.89025 10.7012 5.81836 13.2858 5.81836 15.9826C5.81836 18.6772 6.89025 21.2639 8.80023 23.1682C10.7102 25.0747 13.2995 26.1446 16.0013 26.1446C12.5364 25.0394 12.5364 21.112 12.5364 21.112V15.9936V10.9082C12.5342 10.9082 12.4085 6.4766 16.0013 5.81836Z" fill="url(#paint4_linear_2549_50397)"/>
<path d="M15.9746 26.1652C12.5362 24.6022 12.5406 21.1107 12.5406 21.1107C12.5406 21.1107 8.27735 23.5103 6.84375 20.4414C6.84155 20.4414 9.24557 26.185 15.9746 26.1652Z" fill="#473ADE"/>
</g>
</g>
<defs>
<linearGradient id="paint0_linear_2549_50397" x1="16" y1="0" x2="16" y2="32" gradientUnits="userSpaceOnUse">
<stop stop-color="#100951"/>
<stop offset="1" stop-color="#060322"/>
</linearGradient>
<linearGradient id="paint1_linear_2549_50397" x1="16" y1="0.25" x2="16" y2="31.75" gradientUnits="userSpaceOnUse">
<stop stop-color="#100951"/>
<stop offset="1" stop-color="#060322"/>
</linearGradient>
<linearGradient id="paint2_linear_2549_50397" x1="23.6624" y1="13.5208" x2="8.87505" y2="28.149" gradientUnits="userSpaceOnUse">
<stop stop-opacity="0.6"/>
<stop offset="0.6555" stop-opacity="0"/>
</linearGradient>
<linearGradient id="paint3_linear_2549_50397" x1="9.56155" y1="11.1659" x2="29.9763" y2="14.9185" gradientUnits="userSpaceOnUse">
<stop stop-opacity="0.6"/>
<stop offset="0.6458" stop-opacity="0"/>
</linearGradient>
<linearGradient id="paint4_linear_2549_50397" x1="14.8224" y1="23.7354" x2="8.78617" y2="5.10717" gradientUnits="userSpaceOnUse">
<stop stop-opacity="0.6"/>
<stop offset="0.6755" stop-opacity="0"/>
</linearGradient>
<clipPath id="clip0_2549_50397">
<rect width="32" height="32" fill="white"/>
</clipPath>
<clipPath id="clip1_2549_50397">
<rect width="20.3636" height="20.3636" fill="white" transform="translate(5.81836 5.81836)"/>
</clipPath>
</defs>
</svg>
