<svg width="64" height="64" viewBox="0 0 64 64" fill="none" xmlns="http://www.w3.org/2000/svg">
<circle cx="32" cy="32" r="32" fill="url(#paint0_linear_4985_7139)"/>
<mask id="mask0_4985_7139" style="mask-type:luminance" maskUnits="userSpaceOnUse" x="9" y="9" width="46" height="46">
<path d="M54.1878 9.88232H9.81226V54.1179H54.1878V9.88232Z" fill="white"/>
</mask>
<g mask="url(#mask0_4985_7139)">
<path d="M12.2194 37.4695C11.2267 36.4798 10.561 35.3369 10.2223 34.0409C9.8914 32.7369 9.8914 31.433 10.2223 30.1291C10.561 28.8173 11.2228 27.6705 12.2076 26.6887C13.2081 25.6911 14.3622 25.0274 15.67 24.6975C16.9778 24.3676 18.2856 24.3676 19.5933 24.6975C20.9011 25.0274 22.0513 25.6872 23.044 26.6769L25.5019 29.1277L29.1417 25.4987L26.6837 23.048C25.691 22.0583 25.0253 20.9154 24.6865 19.6193C24.3556 18.3154 24.3518 17.0154 24.6747 15.7194C25.0057 14.4155 25.6714 13.2647 26.6719 12.2672C27.6645 11.2774 28.8147 10.6176 30.1225 10.2877C31.4303 9.95783 32.7341 9.96175 34.0339 10.2995C35.3417 10.6294 36.4919 11.2892 37.4846 12.2789C38.4773 13.2687 39.139 14.4155 39.4699 15.7194C39.8087 17.0154 39.8126 18.3154 39.4817 19.6193C39.1587 20.9311 38.5009 22.0819 37.5082 23.0715L35.0621 25.5104L38.69 29.1277L41.1361 26.6887C42.1288 25.699 43.2751 25.0352 44.5749 24.6975C45.8827 24.3676 47.1865 24.3714 48.4865 24.7092C49.7943 25.0392 50.9483 25.7029 51.9489 26.7005C52.9416 27.6902 53.6033 28.837 53.9341 30.1409C54.2729 31.437 54.2729 32.733 53.9341 34.0291C53.6033 35.333 52.9416 36.4798 51.9489 37.4695C50.9483 38.467 49.7943 39.1308 48.4865 39.4607C47.1865 39.7828 45.8827 39.7788 44.5749 39.449C43.2829 39.119 42.1406 38.4592 41.1479 37.4695L38.7018 35.0306L35.0621 38.6595L37.5082 41.0985C38.5009 42.0881 39.1587 43.2311 39.4817 44.5271C39.8126 45.831 39.8126 47.1349 39.4817 48.4389C39.1508 49.7428 38.4852 50.8935 37.4846 51.891C36.4999 52.8728 35.3496 53.5328 34.0339 53.8704C32.7261 54.2004 31.4185 54.2004 30.1107 53.8704C28.8187 53.5406 27.6763 52.8808 26.6837 51.891C25.6832 50.8935 25.0135 49.7466 24.6747 48.4507C24.3438 47.1467 24.3438 45.8428 24.6747 44.5389C25.0214 43.2349 25.6871 42.0921 26.6719 41.1103L29.1417 38.6477L25.5138 35.0306L23.044 37.4931C22.0592 38.475 20.905 39.1308 19.5815 39.4607C18.2737 39.7906 16.966 39.7906 15.6582 39.4607C14.3583 39.123 13.212 38.4592 12.2194 37.4695ZM15.1737 34.5239C15.6227 34.9716 16.1427 35.2702 16.7336 35.4193C17.3323 35.5765 17.9271 35.5804 18.518 35.4311C19.1088 35.282 19.6288 34.9834 20.0778 34.5357L22.5477 32.0732L20.0897 29.6225C19.6406 29.1747 19.1167 28.8802 18.518 28.7388C17.9271 28.5896 17.3363 28.5896 16.7454 28.7388C16.1545 28.8881 15.6306 29.1905 15.1737 29.646C14.7246 30.0938 14.4213 30.6083 14.2638 31.1895C14.1141 31.7786 14.1141 32.3678 14.2638 32.9569C14.4213 33.5538 14.7246 34.0761 15.1737 34.5239ZM29.6379 20.1024L32.096 22.5531L34.5421 20.1142C34.9991 19.6586 35.2985 19.1402 35.4403 18.5589C35.5899 17.9698 35.586 17.3767 35.4284 16.7798C35.2788 16.1907 34.9793 15.6722 34.5303 15.2245C34.0812 14.7768 33.5613 14.4783 32.9705 14.3291C32.3795 14.1798 31.7887 14.1798 31.1979 14.3291C30.6149 14.4704 30.0949 14.7689 29.6379 15.2245C29.1889 15.6722 28.8817 16.1907 28.7162 16.7798C28.5665 17.3689 28.5665 17.958 28.7162 18.5471C28.8817 19.1362 29.1889 19.6547 29.6379 20.1024ZM40.964 32.085L43.4102 34.5239C43.8592 34.9716 44.3753 35.274 44.9583 35.4311C45.5491 35.5804 46.8281 35.5765 47.4111 35.4193C48.0019 35.2702 48.5258 34.9678 48.9828 34.5122C49.4397 34.0565 49.7391 33.5382 49.8809 32.9569C50.0385 32.3756 50.0424 31.7904 49.8927 31.2013C49.743 30.6122 49.4437 30.0938 48.9946 29.646C48.5376 29.1905 48.0137 28.8881 47.4229 28.7388C46.8321 28.5896 45.5491 28.5896 44.9583 28.7388C44.3831 28.8881 43.867 29.1905 43.4102 29.646L40.964 32.085ZM29.6379 48.9454C30.0871 49.3932 30.607 49.6916 31.1979 49.8409C31.7887 49.9902 32.3757 49.9862 32.9587 49.8291C33.5495 49.6798 34.0694 49.3814 34.5185 48.9336C34.9753 48.4781 35.2788 47.9558 35.4284 47.3667C35.586 46.7854 35.5899 46.2002 35.4403 45.6111C35.2985 45.0141 35.003 44.4918 34.554 44.044L32.1077 41.605L29.6379 44.0676C29.1889 44.5153 28.8856 45.0298 28.728 45.6111C28.5783 46.2002 28.5783 46.7893 28.728 47.3785C28.8778 47.9675 29.1811 48.4899 29.6379 48.9454ZM28.4681 32.085L32.096 35.7022L35.7356 32.0732L32.1077 28.4561L28.4681 32.085Z" fill="white"/>
</g>
<defs>
<linearGradient id="paint0_linear_4985_7139" x1="12.2553" y1="7.14893" x2="56.184" y2="53.9973" gradientUnits="userSpaceOnUse">
<stop stop-color="#69605E"/>
<stop offset="0.286458" stop-color="#4D4442"/>
<stop offset="1" stop-color="#090707"/>
</linearGradient>
</defs>
</svg>
