<svg width="64" height="64" viewBox="0 0 64 64" fill="none" xmlns="http://www.w3.org/2000/svg">
<circle cx="32" cy="32" r="32" fill="#4C5460"/>
<path d="M23.0322 39.9282C23.0322 34.9189 27.0557 30.8276 32.2765 30.8276C37.064 30.8276 40.9079 34.8742 40.9079 39.7877C40.9022 40.2948 40.8656 40.8011 40.7985 41.3041H27.2023C27.7824 44.092 30.1028 45.5381 32.7866 45.5381C34.6193 45.5448 36.412 45.0165 37.933 44.0217L39.5288 46.914C37.519 48.2532 35.1438 48.9778 32.7078 48.9948C27.6008 48.9948 23.0322 45.6787 23.0322 39.9282V39.9282ZM36.9895 38.4225C36.8342 37.2594 36.2456 36.1921 35.3353 35.4231C34.4251 34.6541 33.2565 34.2368 32.0511 34.2502C29.7307 34.2502 27.6993 35.9072 27.1564 38.4118L36.9895 38.4225Z" fill="white"/>
<path d="M46.8385 23.243C46.5339 23.2422 46.242 23.1243 46.0264 22.915C44.1818 21.1157 41.9906 19.6881 39.5781 18.7141C37.1656 17.7401 34.5792 17.2387 31.9673 17.2387C29.3553 17.2387 26.769 17.7401 24.3565 18.7141C21.944 19.6881 19.7527 21.1157 17.9082 22.915C17.6886 23.1028 17.4038 23.2021 17.1116 23.1928C16.8195 23.1835 16.5419 23.0663 16.3355 22.8649C16.1291 22.6635 16.0093 22.3931 16.0005 22.1089C15.9917 21.8246 16.0946 21.5477 16.2883 21.3347C18.3464 19.3283 20.7909 17.7365 23.4821 16.6504C26.1733 15.5643 29.0582 15.0052 31.9716 15.0052C34.8851 15.0052 37.77 15.5643 40.4612 16.6504C43.1524 17.7365 45.5969 19.3283 47.655 21.3347C47.8186 21.4906 47.9305 21.6904 47.9766 21.9087C48.0226 22.1269 48.0005 22.3535 47.9133 22.5595C47.826 22.7655 47.6775 22.9414 47.4868 23.0647C47.2961 23.1879 47.0719 23.253 46.8429 23.2515L46.8385 23.243Z" fill="white"/>
<path d="M43.5883 26.4011C43.4364 26.4019 43.2859 26.3732 43.1457 26.3165C43.0054 26.2598 42.8783 26.1763 42.7718 26.0709C41.3529 24.6875 39.6676 23.5899 37.8122 22.8411C35.9568 22.0922 33.9678 21.7067 31.959 21.7067C29.9503 21.7067 27.9613 22.0922 26.1059 22.8411C24.2505 23.5899 22.5651 24.6875 21.1463 26.0709C21.0396 26.1746 20.9131 26.2567 20.7738 26.3128C20.6345 26.3688 20.4852 26.3976 20.3345 26.3975C20.1838 26.3974 20.0345 26.3684 19.8953 26.3122C19.7561 26.256 19.6296 26.1736 19.5231 26.0699C19.4166 25.9661 19.3322 25.843 19.2746 25.7074C19.217 25.5719 19.1874 25.4267 19.1875 25.28C19.1876 25.1334 19.2174 24.9882 19.2752 24.8528C19.3329 24.7173 19.4176 24.5943 19.5242 24.4906C21.156 22.8994 23.0943 21.637 25.2283 20.7756C27.3622 19.9142 29.6498 19.4708 31.9601 19.4708C34.2704 19.4708 36.5581 19.9142 38.692 20.7756C40.8259 21.637 42.7643 22.8994 44.3961 24.4906C44.5596 24.6465 44.6716 24.8464 44.7176 25.0647C44.7636 25.2829 44.7416 25.5095 44.6543 25.7155C44.567 25.9214 44.4185 26.0973 44.2278 26.2206C44.0371 26.3439 43.8129 26.409 43.5839 26.4075L43.5883 26.4011Z" fill="white"/>
<path d="M40.3399 29.5651C40.0355 29.5652 39.7435 29.448 39.5277 29.2392C38.5354 28.271 37.3564 27.5029 36.0584 26.9787C34.7604 26.4546 33.3689 26.1848 31.9635 26.1848C30.5581 26.1848 29.1666 26.4546 27.8686 26.9787C26.5706 27.5029 25.3916 28.271 24.3993 29.2392C24.1814 29.4367 23.8933 29.5443 23.5955 29.5392C23.2978 29.5341 23.0137 29.4167 22.8032 29.2118C22.5926 29.007 22.472 28.7306 22.4667 28.4409C22.4615 28.1512 22.572 27.8709 22.775 27.6589C23.9811 26.482 25.414 25.5483 26.9917 24.9111C28.5694 24.274 30.2608 23.946 31.969 23.946C33.6772 23.946 35.3686 24.274 36.9462 24.9111C38.5239 25.5483 39.9569 26.482 41.1629 27.6589C41.3238 27.815 41.4334 28.0141 41.4778 28.2308C41.5222 28.4476 41.4995 28.6723 41.4125 28.8764C41.3255 29.0806 41.1782 29.2551 40.9892 29.3777C40.8002 29.5003 40.578 29.5655 40.3508 29.5651H40.3399Z" fill="white"/>
</svg>
