<svg width="64" height="64" viewBox="0 0 64 64" fill="none" xmlns="http://www.w3.org/2000/svg">
<circle cx="32" cy="32" r="32" fill="url(#paint0_linear_1676_21867)"/>
<path d="M22.0322 39.9283C22.0322 34.919 26.0557 30.8276 31.2765 30.8276C36.064 30.8276 39.9079 34.8743 39.9079 39.7877C39.9022 40.2948 39.8656 40.8012 39.7985 41.3041H26.2023C26.7824 44.092 29.1028 45.5381 31.7866 45.5381C33.6193 45.5448 35.412 45.0166 36.933 44.0217L38.5288 46.914C36.519 48.2533 34.1438 48.9779 31.7078 48.9948C26.6008 48.9948 22.0322 45.6787 22.0322 39.9283V39.9283ZM35.9895 38.4225C35.8342 37.2594 35.2456 36.1922 34.3353 35.4232C33.4251 34.6541 32.2565 34.2368 31.0511 34.2502C28.7307 34.2502 26.6993 35.9072 26.1564 38.4118L35.9895 38.4225Z" fill="white"/>
<path d="M45.8385 23.243C45.5339 23.2422 45.242 23.1243 45.0264 22.915C43.1818 21.1157 40.9906 19.6881 38.5781 18.7141C36.1656 17.7401 33.5792 17.2387 30.9673 17.2387C28.3553 17.2387 25.769 17.7401 23.3565 18.7141C20.944 19.6881 18.7527 21.1157 16.9082 22.915C16.6886 23.1028 16.4038 23.2021 16.1116 23.1928C15.8195 23.1835 15.5419 23.0663 15.3355 22.8649C15.1291 22.6635 15.0093 22.3931 15.0005 22.1089C14.9917 21.8246 15.0946 21.5477 15.2883 21.3347C17.3464 19.3283 19.7909 17.7365 22.4821 16.6504C25.1733 15.5643 28.0582 15.0052 30.9716 15.0052C33.8851 15.0052 36.77 15.5643 39.4612 16.6504C42.1524 17.7365 44.5969 19.3283 46.655 21.3347C46.8186 21.4906 46.9305 21.6904 46.9766 21.9087C47.0226 22.1269 47.0005 22.3535 46.9133 22.5595C46.826 22.7655 46.6775 22.9414 46.4868 23.0647C46.2961 23.1879 46.0719 23.253 45.8429 23.2515L45.8385 23.243Z" fill="white"/>
<path d="M42.5883 26.4011C42.4364 26.4019 42.2859 26.3732 42.1457 26.3165C42.0054 26.2598 41.8783 26.1763 41.7718 26.0709C40.3529 24.6875 38.6676 23.5899 36.8122 22.8411C34.9568 22.0922 32.9678 21.7067 30.959 21.7067C28.9503 21.7067 26.9613 22.0922 25.1059 22.8411C23.2505 23.5899 21.5651 24.6875 20.1463 26.0709C20.0396 26.1746 19.9131 26.2567 19.7738 26.3128C19.6345 26.3688 19.4852 26.3976 19.3345 26.3975C19.1838 26.3974 19.0345 26.3684 18.8953 26.3122C18.7561 26.256 18.6296 26.1736 18.5231 26.0699C18.4166 25.9661 18.3322 25.843 18.2746 25.7074C18.217 25.5719 18.1874 25.4267 18.1875 25.28C18.1876 25.1334 18.2174 24.9882 18.2752 24.8528C18.3329 24.7173 18.4176 24.5943 18.5242 24.4906C20.156 22.8994 22.0943 21.637 24.2283 20.7756C26.3622 19.9142 28.6498 19.4708 30.9601 19.4708C33.2704 19.4708 35.5581 19.9142 37.692 20.7756C39.8259 21.637 41.7643 22.8994 43.3961 24.4906C43.5596 24.6465 43.6716 24.8464 43.7176 25.0647C43.7636 25.2829 43.7416 25.5095 43.6543 25.7155C43.567 25.9214 43.4185 26.0973 43.2278 26.2206C43.0371 26.3439 42.8129 26.409 42.5839 26.4075L42.5883 26.4011Z" fill="white"/>
<path d="M39.3399 29.5651C39.0355 29.5652 38.7435 29.448 38.5277 29.2392C37.5354 28.271 36.3564 27.5029 35.0584 26.9787C33.7604 26.4546 32.3689 26.1848 30.9635 26.1848C29.5581 26.1848 28.1666 26.4546 26.8686 26.9787C25.5706 27.5029 24.3916 28.271 23.3993 29.2392C23.1814 29.4367 22.8933 29.5443 22.5955 29.5392C22.2978 29.5341 22.0137 29.4167 21.8032 29.2118C21.5926 29.007 21.472 28.7306 21.4667 28.4409C21.4615 28.1512 21.572 27.8709 21.775 27.6589C22.9811 26.482 24.414 25.5483 25.9917 24.9111C27.5694 24.274 29.2608 23.946 30.969 23.946C32.6772 23.946 34.3686 24.274 35.9462 24.9111C37.5239 25.5483 38.9569 26.482 40.1629 27.6589C40.3238 27.815 40.4334 28.0141 40.4778 28.2308C40.5222 28.4476 40.4995 28.6723 40.4125 28.8764C40.3255 29.0806 40.1782 29.2551 39.9892 29.3777C39.8002 29.5003 39.578 29.5655 39.3508 29.5651H39.3399Z" fill="white"/>
<defs>
<linearGradient id="paint0_linear_1676_21867" x1="12.2553" y1="7.14894" x2="54.8085" y2="51.4043" gradientUnits="userSpaceOnUse">
<stop stop-color="#80BEF2"/>
<stop offset="0.286458" stop-color="#5699D2"/>
<stop offset="1" stop-color="#2F74AD"/>
</linearGradient>
</defs>
</svg>
