<svg width="64" height="64" viewBox="0 0 64 64" fill="none" xmlns="http://www.w3.org/2000/svg">
<circle cx="32" cy="32" r="32" fill="#4C5460"/>
<path d="M20.6365 17H17V20.6365H20.6365V17Z" fill="white"/>
<path d="M29.7302 17H26.0938V20.6365H29.7302V17Z" fill="white"/>
<path d="M38.8211 17H35.1846V20.6365H38.8211V17Z" fill="white"/>
<path d="M20.6365 26.0938H17V29.7303H20.6365V26.0938Z" fill="white"/>
<path d="M29.7302 26.0938H26.0938V29.7303H29.7302V26.0938Z" fill="white"/>
<path d="M20.6365 35.1798H17V38.8163H20.6365V35.1798Z" fill="white"/>
<path d="M46.0996 19.7313C46.6024 19.7313 47.0101 19.3237 47.0101 18.8209C47.0101 18.3181 46.6024 17.9105 46.0996 17.9105C45.5968 17.9105 45.1892 18.3181 45.1892 18.8209C45.1892 19.3237 45.5968 19.7313 46.0996 19.7313Z" fill="white"/>
<path d="M46.0996 28.8224C46.6024 28.8224 47.0101 28.4148 47.0101 27.912C47.0101 27.4092 46.6024 27.0016 46.0996 27.0016C45.5968 27.0016 45.1892 27.4092 45.1892 27.912C45.1892 28.4148 45.5968 28.8224 46.0996 28.8224Z" fill="white"/>
<path d="M46.0996 37.9085C46.6024 37.9085 47.0101 37.5009 47.0101 36.9981C47.0101 36.4953 46.6024 36.0877 46.0996 36.0877C45.5968 36.0877 45.1892 36.4953 45.1892 36.9981C45.1892 37.5009 45.5968 37.9085 46.0996 37.9085Z" fill="white"/>
<path d="M46.0996 47.0023C46.6024 47.0023 47.0101 46.5947 47.0101 46.0918C47.0101 45.589 46.6024 45.1814 46.0996 45.1814C45.5968 45.1814 45.1892 45.589 45.1892 46.0918C45.1892 46.5947 45.5968 47.0023 46.0996 47.0023Z" fill="white"/>
<path d="M37.0061 28.8224C37.5089 28.8224 37.9165 28.4148 37.9165 27.912C37.9165 27.4092 37.5089 27.0016 37.0061 27.0016C36.5033 27.0016 36.0957 27.4092 36.0957 27.912C36.0957 28.4148 36.5033 28.8224 37.0061 28.8224Z" fill="white"/>
<path d="M37.0061 37.9085C37.5089 37.9085 37.9165 37.5009 37.9165 36.9981C37.9165 36.4953 37.5089 36.0877 37.0061 36.0877C36.5033 36.0877 36.0957 36.4953 36.0957 36.9981C36.0957 37.5009 36.5033 37.9085 37.0061 37.9085Z" fill="white"/>
<path d="M37.0061 47.0023C37.5089 47.0023 37.9165 46.5947 37.9165 46.0918C37.9165 45.589 37.5089 45.1814 37.0061 45.1814C36.5033 45.1814 36.0957 45.589 36.0957 46.0918C36.0957 46.5947 36.5033 47.0023 37.0061 47.0023Z" fill="white"/>
<path d="M27.9121 37.9085C28.4149 37.9085 28.8226 37.5009 28.8226 36.9981C28.8226 36.4953 28.4149 36.0877 27.9121 36.0877C27.4093 36.0877 27.0017 36.4953 27.0017 36.9981C27.0017 37.5009 27.4093 37.9085 27.9121 37.9085Z" fill="white"/>
<path d="M27.9121 47.0023C28.4149 47.0023 28.8226 46.5947 28.8226 46.0918C28.8226 45.589 28.4149 45.1814 27.9121 45.1814C27.4093 45.1814 27.0017 45.589 27.0017 46.0918C27.0017 46.5947 27.4093 47.0023 27.9121 47.0023Z" fill="white"/>
<path d="M18.8216 47.0023C19.3244 47.0023 19.732 46.5947 19.732 46.0918C19.732 45.589 19.3244 45.1814 18.8216 45.1814C18.3187 45.1814 17.9111 45.589 17.9111 46.0918C17.9111 46.5947 18.3187 47.0023 18.8216 47.0023Z" fill="white"/>
</svg>
