<svg width="64" height="64" viewBox="0 0 64 64" fill="none" xmlns="http://www.w3.org/2000/svg">
<circle cx="32" cy="32" r="32" fill="#4C5460"/>
<path d="M33.4848 39.4103L33.0322 39.484H32.999C32.9651 39.4921 32.9319 39.4921 32.898 39.501L32.7808 39.5172C26.8476 40.4896 21.8278 40.6157 17.4465 39.9116C16.2669 39.7185 14.5308 39.3919 13.0475 38.7549C11.2943 38.0022 10.2969 36.9797 10.0875 35.7146C9.55965 32.6219 14.1422 30.1419 15.6521 29.3287C19.6574 27.1583 24.5939 25.5999 30.7364 24.5604C36.879 23.5209 42.058 23.3624 46.5492 24.0915C49.4826 24.5685 53.4378 25.5158 53.9104 28.2863C54.3829 31.0568 50.9615 33.2559 48.3458 34.6721C44.4385 36.7843 39.6642 38.3177 33.7392 39.3565L33.6219 39.3734C33.5888 39.3823 33.5549 39.3823 33.5217 39.3904C33.5018 39.4103 33.4929 39.4103 33.4848 39.4103ZM32.9732 39.2422H32.9894L33.4509 39.1589H33.459C33.4922 39.1501 33.5261 39.1501 33.5593 39.1419L33.6772 39.125C39.5684 38.0929 44.3198 36.569 48.2079 34.4657C54.1419 31.2558 53.7629 29.0604 53.6472 28.3401C53.1614 25.4237 48.1504 24.6105 46.5079 24.351C42.0411 23.63 36.896 23.7811 30.7785 24.8213C24.661 25.8616 19.7584 27.4097 15.7693 29.5632C9.83611 32.7731 10.2136 34.9685 10.3308 35.6895C10.8247 38.6052 15.8364 39.4103 17.4819 39.6779C21.8396 40.382 26.8343 40.2566 32.7424 39.2842L32.8604 39.2673C32.8936 39.2592 32.9275 39.2592 32.9606 39.2511L32.9732 39.2422Z" fill="white"/>
<path d="M33.0377 38.2273C32.9204 38.2443 32.7944 38.2693 32.6609 38.2856C32.4088 38.3276 32.1242 38.3696 31.8139 38.4197L31.7807 38.4286C31.6465 38.4448 31.5042 38.4706 31.3531 38.4868C31.2189 38.5038 31.0766 38.5288 30.9262 38.5458H30.8997C30.6741 38.579 30.4308 38.604 30.1875 38.638H30.1544L29.844 38.6711C29.7599 38.68 29.6678 38.6881 29.5845 38.705H29.5727C27.6707 38.9144 25.86 39.0405 24.2013 39.0655C21.1845 39.1068 18.762 38.8304 17.0192 38.2443C15.3494 37.6825 14.2849 36.8281 13.8698 35.7045C13.7981 35.5117 13.7448 35.3125 13.7106 35.1096C13.5631 34.2301 13.7776 33.3587 14.3556 32.5293C15.1607 31.3733 16.6853 30.2668 18.8896 29.2531C20.9538 28.2947 23.5658 27.4343 26.6496 26.6802C28.6018 26.2024 30.1691 25.9179 30.9321 25.7955C31.6952 25.6731 33.2949 25.4188 35.2729 25.2175C37.4514 24.9963 40.6362 24.798 43.4598 25.0752C45.8816 25.3097 47.6922 25.8545 48.832 26.7008C49.6282 27.2958 50.114 28.033 50.2563 28.9125C50.2912 29.1229 50.3053 29.3363 50.2983 29.5494C50.2644 30.7474 49.5522 31.8953 48.1862 32.9599C46.7331 34.0878 44.5384 35.1516 41.6632 36.1071C40.0708 36.6349 38.3191 37.1126 36.4503 37.5402C36.3871 37.5582 36.3228 37.5722 36.2579 37.5823L35.6128 37.7216C35.4447 37.7548 35.2855 37.7887 35.1262 37.8219L34.967 37.8558C34.8748 37.872 34.7915 37.8889 34.6994 37.9059C34.6072 37.9229 34.5062 37.9479 34.4045 37.9649L34.2452 37.998C33.9349 38.057 33.6503 38.1072 33.3989 38.1573C33.2831 38.1853 33.1571 38.2104 33.0377 38.2273ZM30.1381 38.3947H30.1802C30.4146 38.3696 30.649 38.3364 30.8754 38.3025H30.8997C31.0427 38.2856 31.185 38.2605 31.3273 38.2443C31.4696 38.2281 31.6222 38.2023 31.7549 38.1853L31.7881 38.1772C32.0984 38.1263 32.3778 38.085 32.6263 38.0511C32.8946 38.0091 33.104 37.9774 33.3724 37.9258C33.6237 37.8838 33.9083 37.8248 34.2187 37.7666L34.3779 37.7326C34.4701 37.7157 34.5703 37.6995 34.6625 37.6744L34.9227 37.6235L35.082 37.5904C35.2412 37.5572 35.4005 37.5233 35.5678 37.4901L36.2129 37.3471C36.28 37.3309 36.3389 37.322 36.406 37.3051C38.272 36.8863 40.0118 36.4005 41.5961 35.8785C44.4455 34.9319 46.6159 33.8843 48.0402 32.7696C49.3473 31.7501 50.0263 30.6686 50.0602 29.5458C50.067 29.3482 50.0529 29.1505 50.0182 28.956C49.884 28.145 49.4284 27.4557 48.6853 26.9028C47.5794 26.0919 45.8197 25.5537 43.4399 25.3274C40.6325 25.059 37.4647 25.2536 35.3024 25.4696C33.3252 25.6628 31.7409 25.912 30.9786 26.0395C30.2163 26.1671 28.649 26.4583 26.713 26.9279C23.6904 27.6651 21.0142 28.5453 18.995 29.4838C16.8327 30.4842 15.3442 31.5569 14.5621 32.6797C14.0254 33.4508 13.8248 34.2633 13.9583 35.0764C13.9898 35.265 14.0392 35.4501 14.1057 35.6293C14.4994 36.685 15.5064 37.4901 17.1055 38.0261C18.8232 38.604 21.2118 38.8724 24.2035 38.8304C25.863 38.8053 27.6648 38.6881 29.5587 38.4706H29.5749C29.6622 38.4638 29.749 38.4525 29.8351 38.4367L30.1367 38.3947H30.1381Z" fill="white"/>
<path d="M23.2495 35.7649L23.2244 35.7568H23.2008L23.2244 35.9912C23.2981 35.9831 23.3667 35.9831 23.4456 35.975C23.6418 35.9597 23.8388 35.9565 24.0354 35.9654C23.7696 35.9146 23.5071 35.8476 23.2495 35.7649ZM25.5754 36.3879H25.6197H25.5754ZM25.9883 36.1667L26.0163 36.1608L25.9883 36.1667ZM26.0812 36.1527H26.0738V36.1667H26.0907L26.0812 36.1527ZM50.2503 28.919C50.1081 28.0388 49.6222 27.3016 48.826 26.7073C47.6863 25.861 45.8771 25.3162 43.4539 25.081C40.6303 24.8046 37.4455 25.0073 35.2707 25.2241C33.2927 25.4246 31.7003 25.6664 30.9299 25.802C30.1595 25.9377 28.5966 26.2141 26.6437 26.6897C23.5598 27.4438 20.9449 28.3071 18.8836 29.2626C16.6779 30.2763 15.1547 31.3821 14.3497 32.5388C13.7717 33.3682 13.5542 34.2403 13.7046 35.1191C13.7299 35.2712 13.7664 35.4213 13.8137 35.5681C13.83 35.6182 13.8462 35.6661 13.8639 35.7155C13.8757 35.7465 13.8875 35.7767 13.9 35.8069C14.3423 36.8847 15.3921 37.7082 17.0148 38.2545C18.7583 38.8443 21.1801 39.1178 24.1968 39.0758H24.2469L24.2801 39.0345C24.7151 38.5745 25.1832 38.0982 25.6514 37.6927C25.6609 37.6839 25.6705 37.6765 25.6801 37.6684L25.9396 37.4421H25.5983C25.5791 37.4421 25.5592 37.4421 25.54 37.4421C23.3026 37.4635 21.4993 37.2637 20.1797 36.8339H20.1679L20.1834 36.828C21.3415 36.362 22.3007 36.104 23.1846 36.0045H23.1898C23.8363 36.2065 24.631 36.3355 25.5555 36.3893C25.0109 36.3602 24.4689 36.2932 23.9336 36.1888C23.837 36.1689 23.7419 36.1475 23.6491 36.1261L23.534 36.093C23.4227 36.0627 23.3129 36.0318 23.2111 35.9993L23.1861 35.9934H23.178C23.0192 35.9443 22.8688 35.8885 22.7268 35.8261C21.865 35.9691 20.9147 36.2588 19.7926 36.7314L19.5191 36.8486L19.5014 36.856L19.7963 36.9651C21.1115 37.4598 22.9664 37.7112 25.2938 37.7023C24.8994 38.0547 24.5227 38.4484 24.1622 38.8251C21.1956 38.8671 18.832 38.5907 17.1231 38.0208C15.5801 37.5047 14.59 36.738 14.1683 35.7354C14.1521 35.6985 14.1366 35.6617 14.1226 35.6219C14.1086 35.5821 14.0924 35.54 14.0791 35.498C14.0331 35.3578 13.9974 35.2144 13.9722 35.069C13.8381 34.258 14.0386 33.4434 14.5753 32.6722C15.3508 31.5502 16.8386 30.4775 19.0008 29.4801C21.0208 28.5416 23.694 27.6613 26.7189 26.9241C28.6548 26.4552 30.2221 26.1618 30.9844 26.0357C31.7467 25.9097 33.331 25.659 35.309 25.4659C37.4705 25.2447 40.6384 25.0552 43.4458 25.3236C45.8255 25.5499 47.5853 26.0859 48.6918 26.899C49.4379 27.4519 49.8898 28.139 50.024 28.9522C50.0591 29.1467 50.0732 29.3444 50.066 29.542C50.0329 30.6648 49.3539 31.7455 48.0468 32.7681C46.6306 33.8739 44.4764 34.9215 41.6528 35.86C41.1832 35.6175 40.6804 35.3661 40.1784 35.1478C42.3657 34.3774 44.0333 33.5392 45.1392 32.6509L45.3824 32.4496H45.3323L45.064 32.4349C43.5055 32.3346 42.3407 32.4186 41.4103 32.6862L41.3852 32.6951L41.3601 32.7113C40.7058 33.1579 40.0029 33.5289 39.265 33.8171L39.1477 33.8592C38.9214 33.9513 38.6781 34.0435 38.4356 34.1268L38.2844 34.1777L38.2889 34.1504C38.2985 34.0921 38.3073 34.0332 38.3139 33.9749C38.3578 33.6391 38.376 33.3005 38.3685 32.962C38.3685 32.9089 38.3685 32.8551 38.3619 32.8013C38.3552 32.7474 38.356 32.6936 38.3515 32.6391C38.3471 32.5845 38.3419 32.53 38.3375 32.4747C38.3331 32.4194 38.3257 32.3648 38.3176 32.3103C38.308 32.2365 38.297 32.1628 38.2844 32.0891C38.2719 32.0154 38.2542 31.9416 38.2402 31.8679C38.2336 31.8311 38.2255 31.7942 38.2174 31.7588C38.0907 31.1869 37.8819 30.6364 37.5974 30.1244C37.5005 29.9496 37.395 29.7799 37.2811 29.6157C37.2464 29.5656 37.211 29.5147 37.1742 29.4683C37.1373 29.4218 37.1123 29.3835 37.0798 29.3422C37.0474 29.3009 37.0105 29.2537 36.9751 29.2102C36.5821 28.7294 36.1194 28.31 35.6024 27.9658C35.1955 27.6919 34.7566 27.4691 34.2953 27.3023C33.3383 26.9566 32.3113 26.85 31.3037 26.9919C31.2046 27.0022 31.1062 27.0177 31.0088 27.0384H30.983C29.9844 27.2377 29.0496 27.6778 28.2597 28.3204C27.8961 28.6104 27.5693 28.9436 27.2865 29.3127L27.2622 29.3429C27.0711 29.5908 26.8986 29.8525 26.7461 30.1259C26.7159 30.1804 26.6872 30.2357 26.6591 30.291C26.6356 30.3345 26.6142 30.3787 26.5928 30.4244C26.5714 30.4701 26.5559 30.4982 26.5397 30.538C26.4567 30.7214 26.3828 30.9089 26.3185 31.0997C26.3008 31.1513 26.2839 31.2029 26.2669 31.2546C26.25 31.3062 26.236 31.357 26.2212 31.4094C26.2102 31.4484 26.1984 31.489 26.1881 31.5288C26.1881 31.5369 26.1881 31.5443 26.1829 31.5517C26.1783 31.5647 26.1746 31.578 26.1718 31.5915C26.1623 31.6261 26.1541 31.6652 26.146 31.6984C26.1454 31.7025 26.1454 31.7067 26.146 31.7109V31.722C26.1387 31.7507 26.1335 31.778 26.1276 31.8067C26.1217 31.8355 26.1165 31.8576 26.1114 31.8805C26.1003 31.9343 26.0907 31.9888 26.0812 32.0434C26.0605 32.165 26.0428 32.2859 26.0281 32.4076C26.0237 32.4489 26.0192 32.4909 26.0155 32.5329C26.0111 32.5882 26.0067 32.6435 26.003 32.6995C25.9883 32.9482 25.9883 33.1976 26.003 33.4463C26.0082 33.5458 26.0155 33.6461 26.0266 33.7464C26.0266 33.7678 26.0266 33.7899 26.0332 33.8113C26.0428 33.885 26.0531 33.9491 26.0635 34.0155C26.0635 34.0295 26.0635 34.0435 26.0701 34.0567C26.0697 34.0594 26.0697 34.0622 26.0701 34.0649C26.0701 34.0759 26.0738 34.087 26.0753 34.098C26.0748 34.1007 26.0748 34.1035 26.0753 34.1061C26.0753 34.1201 26.0797 34.1334 26.0812 34.1467C26.0856 34.1762 26.0907 34.2042 26.0959 34.2337C26.1497 34.5223 26.2236 34.8068 26.3171 35.0852C26.4385 35.4604 26.5968 35.8227 26.7896 36.1667H26.7948C26.8272 36.2249 26.8619 36.2824 26.8965 36.3414L26.9334 36.4011H27.0071C26.9725 36.4011 26.9393 36.4011 26.9054 36.4011H26.8921L26.5898 36.4151H26.6038C26.6776 36.4151 26.7447 36.4151 26.8132 36.4107C26.8412 36.4107 26.8685 36.4107 26.8965 36.4107H26.901H27.0064L27.2275 36.4019L27.1118 36.2198C27.0993 36.1999 27.0867 36.18 27.0749 36.1586C26.8547 35.7951 26.6759 35.4081 26.5419 35.0048C26.4423 34.7096 26.3666 34.4069 26.3156 34.0995C26.2994 33.9911 26.2824 33.8901 26.2736 33.781C26.2669 33.7228 26.261 33.6638 26.2566 33.6056C26.2109 33.0964 26.2337 32.5834 26.3244 32.0802C26.4846 31.1343 26.8733 30.2417 27.4568 29.4801C27.5379 29.3768 27.6227 29.2758 27.7097 29.1778C27.9244 28.9326 28.1591 28.7057 28.4115 28.4995C29.171 27.8856 30.0685 27.4659 31.0265 27.2765L31.0508 27.2721L31.1776 27.2507L31.325 27.2256C32.2937 27.089 33.2811 27.1928 34.2002 27.5279C34.6402 27.6864 35.0595 27.8973 35.4491 28.156C36.7227 28.9993 37.6209 30.3024 37.9556 31.7927C37.9719 31.8937 37.9969 31.994 38.0139 32.1031C38.0619 32.3801 38.09 32.6603 38.0979 32.9413C38.1068 33.3804 38.0685 33.8191 37.9837 34.2499C37.9837 34.2683 37.977 34.286 37.9733 34.3045L37.932 34.5219L38.1414 34.4548L38.2277 34.4254C38.3213 34.3937 38.4112 34.3612 38.5012 34.3295C38.7526 34.2455 38.9878 34.1533 39.2222 34.0612L39.3394 34.0191C40.0877 33.7236 40.8014 33.3471 41.4678 32.8964C42.306 32.6619 43.3617 32.5779 44.7027 32.6369L44.6931 32.6442C43.5696 33.4876 41.9138 34.2816 39.7751 35.0078L39.4485 35.1169H39.4522L39.767 35.2415L39.7935 35.2518C40.4032 35.4988 40.9985 35.7796 41.5769 36.093L41.627 36.118H41.6609C44.5361 35.1596 46.7308 34.098 48.181 32.9671C49.5463 31.9026 50.2592 30.7555 50.2924 29.556C50.2993 29.3428 50.2853 29.1294 50.2503 28.919ZM26.0812 36.1527H26.0738V36.1667H26.0907L26.0812 36.1527ZM26.017 36.1667L25.9875 36.1718L26.017 36.1667ZM26.006 36.4159H26.0192L26.163 36.4203H26.2758C26.1777 36.4203 26.0797 36.4144 25.9883 36.41C25.9632 36.41 25.9389 36.41 25.9145 36.41H25.8873C25.8831 36.4093 25.8789 36.4093 25.8747 36.41L26.006 36.4159ZM23.2001 35.7642L23.2237 35.9986C23.2974 35.9905 23.366 35.9905 23.4448 35.9824C23.641 35.967 23.838 35.9638 24.0346 35.9728C23.7696 35.9219 23.5079 35.8549 23.2509 35.7723L23.2259 35.7642H23.2001ZM23.2487 35.7723L23.2237 35.7642H23.2001L23.2237 35.9986C23.2974 35.9905 23.366 35.9905 23.4448 35.9824C23.641 35.967 23.838 35.9638 24.0346 35.9728C23.7689 35.9195 23.5067 35.8501 23.2495 35.7649L23.2487 35.7723ZM25.9883 36.1667L26.0163 36.1608L25.9883 36.1667ZM26.0812 36.1527H26.0738V36.1667H26.0907L26.0812 36.1527ZM26.0812 36.1549H26.0738V36.1667H26.0907L26.0812 36.1549ZM25.9883 36.1667L26.0163 36.1608L25.9883 36.1667ZM23.2495 35.7649L23.2244 35.7568H23.2008L23.2244 35.9912C23.2981 35.9831 23.3667 35.9831 23.4456 35.975C23.6418 35.9597 23.8388 35.9565 24.0354 35.9654C23.7696 35.9146 23.5071 35.8476 23.2495 35.7649Z" fill="white"/>
<path d="M23.2495 35.7649L23.2244 35.7568H23.2008L23.2244 35.9912C23.2981 35.9831 23.3667 35.9831 23.4456 35.975C23.6418 35.9597 23.8388 35.9565 24.0354 35.9654C23.7696 35.9146 23.5071 35.8476 23.2495 35.7649ZM25.5754 36.3879H25.6197H25.5754ZM25.9883 36.1667L26.0163 36.1608L25.9883 36.1667ZM26.0812 36.1527H26.0738V36.1667H26.0907L26.0812 36.1527ZM50.2503 28.919C50.1081 28.0388 49.6222 27.3016 48.826 26.7073C47.6863 25.861 45.8771 25.3162 43.4539 25.081C40.6303 24.8046 37.4455 25.0073 35.2707 25.2241C33.2927 25.4246 31.7003 25.6664 30.9299 25.802C30.1595 25.9377 28.5966 26.2141 26.6437 26.6897C23.5598 27.4438 20.9449 28.3071 18.8836 29.2626C16.6779 30.2763 15.1547 31.3821 14.3497 32.5388C13.7717 33.3682 13.5542 34.2403 13.7046 35.1191C13.7299 35.2712 13.7664 35.4213 13.8137 35.5681C13.83 35.6182 13.8462 35.6661 13.8639 35.7155C13.8757 35.7465 13.8875 35.7767 13.9 35.8069C14.3423 36.8847 15.3921 37.7082 17.0148 38.2545C18.7583 38.8443 21.1801 39.1178 24.1968 39.0758H24.2469L24.2801 39.0345C24.7151 38.5745 25.1832 38.0982 25.6514 37.6927C25.6609 37.6839 25.6705 37.6765 25.6801 37.6684L25.9396 37.4421H25.5983C25.5791 37.4421 25.5592 37.4421 25.54 37.4421C23.3026 37.4635 21.4993 37.2637 20.1797 36.8339H20.1679L20.1834 36.828C21.3415 36.362 22.3007 36.104 23.1846 36.0045H23.1898C23.8363 36.2065 24.631 36.3355 25.5555 36.3893C25.0109 36.3602 24.4689 36.2932 23.9336 36.1888C23.837 36.1689 23.7419 36.1475 23.6491 36.1261L23.534 36.093C23.4227 36.0627 23.3129 36.0318 23.2111 35.9993L23.1861 35.9934H23.178C23.0192 35.9443 22.8688 35.8885 22.7268 35.8261C21.865 35.9691 20.9147 36.2588 19.7926 36.7314L19.5191 36.8486L19.5014 36.856L19.7963 36.9651C21.1115 37.4598 22.9664 37.7112 25.2938 37.7023C24.8994 38.0547 24.5227 38.4484 24.1622 38.8251C21.1956 38.8671 18.832 38.5907 17.1231 38.0208C15.5801 37.5047 14.59 36.738 14.1683 35.7354C14.1521 35.6985 14.1366 35.6617 14.1226 35.6219C14.1086 35.5821 14.0924 35.54 14.0791 35.498C14.0331 35.3578 13.9974 35.2144 13.9722 35.069C13.8381 34.258 14.0386 33.4434 14.5753 32.6722C15.3508 31.5502 16.8386 30.4775 19.0008 29.4801C21.0208 28.5416 23.694 27.6613 26.7189 26.9241C28.6548 26.4552 30.2221 26.1618 30.9844 26.0357C31.7467 25.9097 33.331 25.659 35.309 25.4659C37.4705 25.2447 40.6384 25.0552 43.4458 25.3236C45.8255 25.5499 47.5853 26.0859 48.6918 26.899C49.4379 27.4519 49.8898 28.139 50.024 28.9522C50.0591 29.1467 50.0732 29.3444 50.066 29.542C50.0329 30.6648 49.3539 31.7455 48.0468 32.7681C46.6306 33.8739 44.4764 34.9215 41.6528 35.86C41.1832 35.6175 40.6804 35.3661 40.1784 35.1478C42.3657 34.3774 44.0333 33.5392 45.1392 32.6509L45.3824 32.4496H45.3323L45.064 32.4349C43.5055 32.3346 42.3407 32.4186 41.4103 32.6862L41.3852 32.6951L41.3601 32.7113C40.7058 33.1579 40.0029 33.5289 39.265 33.8171L39.1477 33.8592C38.9214 33.9513 38.6781 34.0435 38.4356 34.1268L38.2844 34.1777L38.2889 34.1504C38.2985 34.0921 38.3073 34.0332 38.3139 33.9749C38.3578 33.6391 38.376 33.3005 38.3685 32.962C38.3685 32.9089 38.3685 32.8551 38.3619 32.8013C38.3552 32.7474 38.356 32.6936 38.3515 32.6391C38.3471 32.5845 38.3419 32.53 38.3375 32.4747C38.3331 32.4194 38.3257 32.3648 38.3176 32.3103C38.308 32.2365 38.297 32.1628 38.2844 32.0891C38.2719 32.0154 38.2542 31.9416 38.2402 31.8679C38.2336 31.8311 38.2255 31.7942 38.2174 31.7588C38.0907 31.1869 37.8819 30.6364 37.5974 30.1244C37.5005 29.9496 37.395 29.7799 37.2811 29.6157C37.2464 29.5656 37.211 29.5147 37.1742 29.4683C37.1373 29.4218 37.1123 29.3835 37.0798 29.3422C37.0474 29.3009 37.0105 29.2537 36.9751 29.2102C36.5821 28.7294 36.1194 28.31 35.6024 27.9658C35.1955 27.6919 34.7566 27.4691 34.2953 27.3023C33.3383 26.9566 32.3113 26.85 31.3037 26.9919C31.2046 27.0022 31.1062 27.0177 31.0088 27.0384H30.983C29.9844 27.2377 29.0496 27.6778 28.2597 28.3204C27.8961 28.6104 27.5693 28.9436 27.2865 29.3127L27.2622 29.3429C27.0711 29.5908 26.8986 29.8525 26.7461 30.1259C26.7159 30.1804 26.6872 30.2357 26.6591 30.291C26.6356 30.3345 26.6142 30.3787 26.5928 30.4244C26.5714 30.4701 26.5559 30.4982 26.5397 30.538C26.4567 30.7214 26.3828 30.9089 26.3185 31.0997C26.3008 31.1513 26.2839 31.2029 26.2669 31.2546C26.25 31.3062 26.236 31.357 26.2212 31.4094C26.2102 31.4484 26.1984 31.489 26.1881 31.5288C26.1881 31.5369 26.1881 31.5443 26.1829 31.5517C26.1783 31.5647 26.1746 31.578 26.1718 31.5915C26.1623 31.6261 26.1541 31.6652 26.146 31.6984C26.1454 31.7025 26.1454 31.7067 26.146 31.7109V31.722C26.1387 31.7507 26.1335 31.778 26.1276 31.8067C26.1217 31.8355 26.1165 31.8576 26.1114 31.8805C26.1003 31.9343 26.0907 31.9888 26.0812 32.0434C26.0605 32.165 26.0428 32.2859 26.0281 32.4076C26.0237 32.4489 26.0192 32.4909 26.0155 32.5329C26.0111 32.5882 26.0067 32.6435 26.003 32.6995C25.9883 32.9482 25.9883 33.1976 26.003 33.4463C26.0082 33.5458 26.0155 33.6461 26.0266 33.7464C26.0266 33.7678 26.0266 33.7899 26.0332 33.8113C26.0428 33.885 26.0531 33.9491 26.0635 34.0155C26.0635 34.0295 26.0635 34.0435 26.0701 34.0567C26.0697 34.0594 26.0697 34.0622 26.0701 34.0649C26.0701 34.0759 26.0738 34.087 26.0753 34.098C26.0748 34.1007 26.0748 34.1035 26.0753 34.1061C26.0753 34.1201 26.0797 34.1334 26.0812 34.1467C26.0856 34.1762 26.0907 34.2042 26.0959 34.2337C26.1497 34.5223 26.2236 34.8068 26.3171 35.0852C26.4385 35.4604 26.5968 35.8227 26.7896 36.1667H26.7948C26.8272 36.2249 26.8619 36.2824 26.8965 36.3414L26.9334 36.4011H27.0071C26.9725 36.4011 26.9393 36.4011 26.9054 36.4011H26.8921L26.5898 36.4151H26.6038C26.6776 36.4151 26.7447 36.4151 26.8132 36.4107C26.8412 36.4107 26.8685 36.4107 26.8965 36.4107H26.901H27.0064L27.2275 36.4019L27.1118 36.2198C27.0993 36.1999 27.0867 36.18 27.0749 36.1586C26.8547 35.7951 26.6759 35.4081 26.5419 35.0048C26.4423 34.7096 26.3666 34.4069 26.3156 34.0995C26.2994 33.9911 26.2824 33.8901 26.2736 33.781C26.2669 33.7228 26.261 33.6638 26.2566 33.6056C26.2109 33.0964 26.2337 32.5834 26.3244 32.0802C26.4846 31.1343 26.8733 30.2417 27.4568 29.4801C27.5379 29.3768 27.6227 29.2758 27.7097 29.1778C27.9244 28.9326 28.1591 28.7057 28.4115 28.4995C29.171 27.8856 30.0685 27.4659 31.0265 27.2765L31.0508 27.2721L31.1776 27.2507L31.325 27.2256C32.2937 27.089 33.2811 27.1928 34.2002 27.5279C34.6402 27.6864 35.0595 27.8973 35.4491 28.156C36.7227 28.9993 37.6209 30.3024 37.9556 31.7927C37.9719 31.8937 37.9969 31.994 38.0139 32.1031C38.0619 32.3801 38.09 32.6603 38.0979 32.9413C38.1068 33.3804 38.0685 33.8191 37.9837 34.2499C37.9837 34.2683 37.977 34.286 37.9733 34.3045L37.932 34.5219L38.1414 34.4548L38.2277 34.4254C38.3213 34.3937 38.4112 34.3612 38.5012 34.3295C38.7526 34.2455 38.9878 34.1533 39.2222 34.0612L39.3394 34.0191C40.0877 33.7236 40.8014 33.3471 41.4678 32.8964C42.306 32.6619 43.3617 32.5779 44.7027 32.6369L44.6931 32.6442C43.5696 33.4876 41.9138 34.2816 39.7751 35.0078L39.4485 35.1169H39.4522L39.767 35.2415L39.7935 35.2518C40.4032 35.4988 40.9985 35.7796 41.5769 36.093L41.627 36.118H41.6609C44.5361 35.1596 46.7308 34.098 48.181 32.9671C49.5463 31.9026 50.2592 30.7555 50.2924 29.556C50.2993 29.3428 50.2853 29.1294 50.2503 28.919ZM26.0812 36.1527H26.0738V36.1667H26.0907L26.0812 36.1527ZM26.017 36.1667L25.9875 36.1718L26.017 36.1667ZM26.006 36.4159H26.0192L26.163 36.4203H26.2758C26.1777 36.4203 26.0797 36.4144 25.9883 36.41C25.9632 36.41 25.9389 36.41 25.9145 36.41H25.8873C25.8831 36.4093 25.8789 36.4093 25.8747 36.41L26.006 36.4159ZM23.2001 35.7642L23.2237 35.9986C23.2974 35.9905 23.366 35.9905 23.4448 35.9824C23.641 35.967 23.838 35.9638 24.0346 35.9728C23.7696 35.9219 23.5079 35.8549 23.2509 35.7723L23.2259 35.7642H23.2001ZM23.2487 35.7723L23.2237 35.7642H23.2001L23.2237 35.9986C23.2974 35.9905 23.366 35.9905 23.4448 35.9824C23.641 35.967 23.838 35.9638 24.0346 35.9728C23.7689 35.9195 23.5067 35.8501 23.2495 35.7649L23.2487 35.7723ZM25.9883 36.1667L26.0163 36.1608L25.9883 36.1667ZM25.9883 36.1667L26.0163 36.1608L25.9883 36.1667ZM23.2495 35.7649L23.2244 35.7568H23.2008L23.2244 35.9912C23.2981 35.9831 23.3667 35.9831 23.4456 35.975C23.6418 35.9597 23.8388 35.9565 24.0354 35.9654C23.7696 35.9146 23.5071 35.8476 23.2495 35.7649Z" fill="white"/>
<path d="M26.0122 36.1603L25.9687 36.1669H25.9598C25.8057 36.1625 25.6539 36.1552 25.5064 36.1463C25.3187 36.135 25.1368 36.1203 24.9609 36.1021C24.666 36.0731 24.3903 36.0345 24.1337 35.9863C23.8313 35.9324 23.5328 35.8585 23.2402 35.7652L23.2144 35.7563H23.1893C23.0286 35.774 22.8649 35.7986 22.6983 35.83C21.8505 35.9775 20.9201 36.2598 19.8231 36.7147C18.6878 36.2856 17.9727 35.6612 17.6948 34.8621C17.6793 34.8186 17.6653 34.7743 17.6528 34.7286C17.6402 34.6829 17.6321 34.6505 17.624 34.6121C17.6129 34.5605 17.6041 34.5089 17.5938 34.4603C17.4766 33.7732 17.6609 33.0949 18.1386 32.4491L18.1718 32.4071C18.8198 31.5497 19.9934 30.7277 21.6699 29.9661C22.5761 29.5604 23.5045 29.2062 24.4507 28.9053C25.4828 28.5684 26.6181 28.2521 27.8206 27.9631C28.3558 27.8356 28.846 27.7228 29.2884 27.6314C29.3098 27.6262 29.3319 27.6225 29.354 27.6181C28.9658 27.8149 28.6004 28.0537 28.2644 28.3302C27.8973 28.6237 27.5678 28.9612 27.2831 29.3351L27.2676 29.3542C27.187 29.458 27.1109 29.5644 27.0391 29.6735C26.7371 30.1214 26.4961 30.6076 26.3225 31.1192C26.3048 31.1708 26.2879 31.2224 26.2709 31.274C26.254 31.3256 26.24 31.3765 26.2252 31.4288C26.2186 31.4517 26.2127 31.4745 26.2068 31.4981C26.2009 31.5217 26.1972 31.532 26.192 31.5482C26.1869 31.5644 26.192 31.5637 26.1869 31.5711C26.1823 31.5841 26.1786 31.5974 26.1758 31.6109C26.1662 31.6455 26.1581 31.6846 26.15 31.7178C26.1494 31.7219 26.1494 31.7262 26.15 31.7303V31.7414C26.1426 31.7701 26.1375 31.7974 26.1316 31.8262C26.1257 31.8549 26.1205 31.877 26.1154 31.8999C26.1154 31.9087 26.1109 31.9168 26.1095 31.9264C26.0999 31.9692 26.0925 32.0112 26.0851 32.054C26.063 32.1778 26.0461 32.3024 26.0321 32.427C26.0276 32.4683 26.0232 32.5103 26.0195 32.5523C26.0151 32.6076 26.0107 32.6629 26.007 32.7189C25.9922 32.9677 25.9922 33.217 26.007 33.4658C26.0129 33.5653 26.0203 33.6648 26.0313 33.7643C26.0313 33.7842 26.0313 33.8034 26.0372 33.8226C26.0468 33.8963 26.0579 33.9649 26.0682 34.0334C26.0692 34.0411 26.0707 34.0487 26.0726 34.0563C26.077 34.0909 26.0822 34.1241 26.0873 34.158C26.0991 34.2317 26.1124 34.3055 26.1286 34.3792C26.1286 34.3865 26.1286 34.3932 26.1323 34.4013C26.1419 34.4418 26.1507 34.4831 26.1603 34.5229C26.1979 34.6836 26.24 34.834 26.2849 34.9785C26.2967 35.0176 26.3093 35.0523 26.3218 35.095L26.3704 35.2329C26.3874 35.2793 26.4044 35.325 26.4228 35.3715C26.4589 35.4629 26.4965 35.5543 26.5363 35.6443C26.554 35.6833 26.571 35.718 26.5894 35.7593C26.6078 35.8005 26.6255 35.833 26.6447 35.8713C26.6948 35.9745 26.7494 36.0763 26.8069 36.1751C26.8393 36.2333 26.874 36.2908 26.9086 36.3498L26.9455 36.4095H27.0192C26.9846 36.4095 26.9514 36.4095 26.9175 36.4095H26.9042L26.6019 36.4235H26.6159C26.6897 36.4235 26.7567 36.4235 26.8253 36.4191H26.9079H26.913H27.0185H27.0354L27.2529 36.4102L27.1453 36.2281C27.1327 36.2082 27.1202 36.1883 27.1077 36.1669C26.8833 35.8058 26.6998 35.4208 26.5606 35.0191C26.4628 34.7237 26.3888 34.421 26.3395 34.1138C26.3233 34.0054 26.3063 33.9044 26.2982 33.7953C26.2901 33.7319 26.2834 33.6685 26.2783 33.6044C26.2364 33.1 26.2612 32.5924 26.352 32.0945C26.5129 31.1492 26.9021 30.2574 27.4859 29.4965C27.5485 29.4169 27.6127 29.3388 27.679 29.2621C28.5491 28.2413 29.7407 27.5469 31.0577 27.293V27.2885L31.0172 27.0541V27.0497C30.897 27.0703 30.751 27.0969 30.5807 27.1278C29.9349 27.2465 28.9507 27.4411 27.7793 27.7176C25.3236 28.3074 23.2453 28.9834 21.5866 29.7376C19.902 30.5087 18.6959 31.3381 18.0169 32.2176L17.983 32.2597C17.439 32.9807 17.2289 33.7341 17.363 34.506C17.3719 34.5576 17.3822 34.607 17.394 34.6534C17.4058 34.6999 17.4176 34.7478 17.4301 34.7957C17.4404 34.8311 17.4515 34.8694 17.4626 34.9019C17.7346 35.7327 18.4209 36.3859 19.5017 36.8489C19.5076 36.8523 19.5138 36.8552 19.5201 36.8577C19.6079 36.8953 19.6993 36.9314 19.7937 36.9668L19.8438 36.9831L19.8858 36.9668C19.9861 36.9248 20.0849 36.8835 20.1807 36.8445L20.1969 36.8386C21.3485 36.3756 22.3017 36.1131 23.1908 36.0129H23.2026C23.3087 36.046 23.4193 36.077 23.5336 36.1065C23.4223 36.0763 23.3124 36.0453 23.2107 36.0129L23.1856 36.007H23.1775C23.0188 35.9578 22.8684 35.902 22.7263 35.8396C22.8885 35.8123 23.047 35.7895 23.2026 35.7725L23.2262 36.007C23.2999 35.9989 23.3685 35.9989 23.4473 35.9907C23.6436 35.9754 23.8405 35.9722 24.0371 35.9812C24.3811 36.0484 24.7283 36.0976 25.0773 36.1286C25.2248 36.1426 25.3722 36.1537 25.5278 36.1633C25.6833 36.1728 25.8301 36.1787 25.9856 36.1839H25.9937L26.0217 36.178L26.0534 36.1736L26.0778 36.1699V36.1832H26.0947H26.1869C26.3233 36.1832 26.4589 36.1905 26.5887 36.1905H26.7988C26.7968 36.188 26.7951 36.1853 26.7936 36.1824H26.5724C26.4442 36.1824 26.31 36.1765 26.1743 36.1751H26.1183L26.094 36.1699H26.0844H26.077L26.0122 36.1603ZM26.0232 36.4309H26.0269L26.167 36.436H26.2798C26.1817 36.436 26.0837 36.4301 25.9922 36.4257C25.9672 36.4257 25.9429 36.4257 25.9185 36.4257H25.8971L26.0232 36.4309ZM26.0107 36.1655L26.0276 36.1714L26.0107 36.1655ZM26.7921 36.1891H26.571C26.4427 36.1891 26.3085 36.1832 26.1729 36.1817H26.1183L26.094 36.1765H26.0844H26.077V36.1832H26.094H26.1861C26.3225 36.1832 26.4582 36.1905 26.5879 36.1905H26.798C26.7963 36.1882 26.7949 36.1857 26.7936 36.1832L26.7921 36.1891Z" fill="white"/>
<path d="M37.9525 34.5452L37.9945 34.324C38.087 33.8747 38.129 33.4165 38.1198 32.9579C38.1124 32.6783 38.0843 32.3996 38.0358 32.1241C38.0196 32.015 37.9945 31.9147 37.9776 31.8145C37.6431 30.3238 36.7449 29.0203 35.471 28.177C35.0815 27.9182 34.6622 27.7073 34.2221 27.5489C33.303 27.2139 32.3156 27.1104 31.347 27.2474L31.3049 27.0041C31.8748 26.9119 33.0647 26.7276 34.5731 26.5854C36.2738 26.4173 38.7716 26.2669 41.0171 26.4674H41.0341C42.9111 26.6355 44.3361 27.0292 45.2827 27.6411L45.3247 27.6661C46.0708 28.1608 46.5146 28.7889 46.6407 29.5519C46.6594 29.6626 46.6705 29.7745 46.6739 29.8866C46.707 30.8502 46.188 31.7894 45.1257 32.6608L45.0837 32.694H45.0335C43.5421 32.6018 42.3795 32.677 41.472 32.9373C40.8054 33.3877 40.0917 33.7642 39.3436 34.0601L39.2264 34.1021C38.9912 34.1942 38.7568 34.2864 38.5054 34.3704C38.3882 34.4117 38.271 34.4538 38.1449 34.4958L37.9525 34.5452ZM33.0477 26.9864C33.4749 27.0471 33.8948 27.1511 34.301 27.2968C34.7623 27.4636 35.2012 27.6864 35.6081 27.9603C36.4357 28.5118 37.1194 29.2531 37.6023 30.1226C37.8867 30.634 38.095 31.1841 38.2208 31.7555C38.2459 31.8646 38.2621 31.9767 38.2872 32.0821C38.336 32.3704 38.3641 32.6619 38.3712 32.9542C38.381 33.361 38.3529 33.7677 38.2872 34.1692L38.4383 34.1191C38.6816 34.035 38.9242 33.9429 39.1505 33.8507L39.2677 33.8087C40.0056 33.5203 40.7084 33.1493 41.3629 32.7028L41.388 32.6859L41.413 32.677C42.3353 32.4094 43.4832 32.3335 45.0166 32.4256C45.989 31.6147 46.4667 30.758 46.4328 29.8866C46.4297 29.7827 46.4186 29.6792 46.3996 29.577C46.2824 28.898 45.888 28.3282 45.226 27.8755L45.1928 27.8504C44.2875 27.2555 42.8882 26.8699 41.0363 26.6937H41.0193C38.7907 26.4932 36.3011 26.6436 34.6003 26.8117C34.0305 26.8692 33.5107 26.9282 33.0477 26.9864Z" fill="white"/>
<path d="M26.1021 36.1566V36.164L26.1265 36.1589L26.1021 36.1566ZM26.801 36.1648H26.5799C26.4516 36.1648 26.3174 36.1589 26.1817 36.1574L26.1943 36.1655C26.3307 36.1655 26.4663 36.1729 26.5961 36.1729H26.8062C26.8042 36.1701 26.8024 36.1671 26.801 36.164V36.1648ZM26.0365 36.1471L25.9827 36.1559H25.9783C25.8242 36.1507 25.6745 36.1441 25.5278 36.1345C25.359 36.1257 25.1961 36.1131 25.0368 36.0969C24.7165 36.0684 24.3979 36.0236 24.0821 35.9628C23.8005 35.9106 23.5226 35.8407 23.2498 35.7534L23.224 35.7453H23.2166L23.1989 35.7394C22.3253 35.4489 21.7319 35.0066 21.4333 34.4197C21.4053 34.3644 21.3787 34.3069 21.3559 34.248C21.3441 34.2185 21.3323 34.1883 21.3212 34.1573C21.2846 34.0531 21.2568 33.9461 21.2379 33.8373C21.1642 33.4348 21.2969 33.0264 21.6323 32.6054C21.9211 32.2597 22.2583 31.9575 22.6335 31.7082C23.1346 31.366 23.6613 31.0628 24.2089 30.8014C25.1243 30.3631 26.0661 29.9822 27.0288 29.661L27.0473 29.6543C26.944 29.8077 26.8482 29.9652 26.7597 30.1269C26.7295 30.1814 26.7008 30.2367 26.6727 30.292C26.6492 30.3355 26.6278 30.3797 26.6064 30.4255C26.585 30.4712 26.5695 30.4992 26.5533 30.539C26.4703 30.7224 26.3964 30.9099 26.3321 31.1008C26.3145 31.1524 26.2975 31.204 26.2805 31.2556C26.2636 31.3072 26.2496 31.358 26.2348 31.4104C26.2238 31.4495 26.212 31.49 26.2017 31.5298C26.2017 31.5379 26.2017 31.5453 26.1965 31.5527C26.1919 31.5657 26.1882 31.579 26.1854 31.5925C26.1759 31.6271 26.1677 31.6662 26.1596 31.6994C26.159 31.7035 26.159 31.7078 26.1596 31.7119V31.723C26.1523 31.7517 26.1471 31.779 26.1412 31.8078C26.1353 31.8365 26.1257 31.8763 26.1191 31.911C26.1125 31.9456 26.1021 31.9957 26.0948 32.0385C26.0726 32.1624 26.0557 32.2869 26.0417 32.4115C26.0373 32.4528 26.0328 32.4948 26.0291 32.5369C26.0247 32.5922 26.0203 32.6475 26.0166 32.7035C26.0019 32.9522 26.0019 33.2016 26.0166 33.4503C26.0225 33.5498 26.0299 33.6493 26.0409 33.7489C26.0409 33.7688 26.0409 33.7879 26.0468 33.8071C26.0564 33.8808 26.0675 33.9494 26.0778 34.018C26.0789 34.0256 26.0803 34.0333 26.0822 34.0408C26.0866 34.0755 26.0918 34.1086 26.097 34.1425C26.1088 34.2163 26.122 34.29 26.1383 34.3637C26.1383 34.3711 26.1383 34.3777 26.1419 34.3858C26.1515 34.4264 26.1604 34.4677 26.17 34.5075C26.2076 34.6682 26.2496 34.8186 26.2945 34.9631C26.3063 35.0021 26.3189 35.0368 26.3314 35.0796L26.3801 35.2174C26.397 35.2639 26.414 35.3096 26.4324 35.356C26.4685 35.4474 26.5061 35.5388 26.5459 35.6288C26.5636 35.6679 26.5806 35.7025 26.599 35.7438C26.6175 35.7851 26.6351 35.8175 26.6543 35.8559C26.7044 35.9591 26.759 36.0608 26.8165 36.1596C26.8489 36.2178 26.8836 36.2753 26.9182 36.3343L26.9551 36.394H27.0288C26.9942 36.394 26.961 36.394 26.9271 36.394H26.9138L26.6116 36.408H26.6256C26.6993 36.408 26.7664 36.408 26.8349 36.4036H26.9175H26.9227H27.0281H27.045L27.2625 36.3948L27.1637 36.2215C27.1483 36.1979 27.1342 36.1743 27.121 36.1478C26.9036 35.7868 26.7268 35.4028 26.5939 35.0029C26.4936 34.7081 26.4179 34.4056 26.3675 34.0983C26.3506 33.9892 26.3336 33.8889 26.3255 33.7798C26.2584 33.2133 26.2753 32.6399 26.3756 32.0783C26.5383 31.1324 26.9296 30.2406 27.5154 29.4803L27.7004 29.2378L27.7587 29.1641L27.7351 29.1714L27.3731 29.2894L27.3134 29.3093H27.3045C27.2979 29.3093 27.2905 29.3093 27.2839 29.3159C26.6941 29.5125 26.1402 29.7123 25.6222 29.9153C25.0816 30.1281 24.5842 30.3458 24.1301 30.5685C22.8561 31.1804 21.9508 31.8092 21.4569 32.4373C21.0794 32.9151 20.9283 33.4009 21.0145 33.8705C21.0338 33.9642 21.0584 34.0568 21.0883 34.1477C21.1065 34.2099 21.1279 34.2712 21.1524 34.3313C21.1627 34.3563 21.173 34.3814 21.1841 34.405C21.448 35.0021 21.9626 35.4688 22.7227 35.7998L22.7345 35.805L22.7537 35.8131C22.9158 35.7858 23.0743 35.763 23.2299 35.746L23.2535 35.9804C23.3272 35.9723 23.3958 35.9723 23.4747 35.9642C23.6709 35.9489 23.8678 35.9457 24.0644 35.9546C24.4084 36.0219 24.7556 36.0711 25.1047 36.1021C25.2521 36.1161 25.3996 36.1272 25.5551 36.1367C25.7107 36.1463 25.8574 36.1522 26.0129 36.1574H26.021L26.0491 36.1515L26.0808 36.1471L26.1051 36.1434L26.0365 36.1471ZM26.8261 36.1655C26.8241 36.163 26.8224 36.1602 26.8209 36.1574H26.5998C26.4715 36.1574 26.3373 36.1515 26.2017 36.15L26.2142 36.1581C26.3506 36.1581 26.4862 36.1655 26.616 36.1655H26.8261ZM26.122 36.1544L26.1464 36.1493H26.122V36.1544ZM26.0483 36.4014H26.052L26.1921 36.4066H26.3049C26.2068 36.4066 26.1088 36.4007 26.0173 36.3962C25.9923 36.3962 25.968 36.3962 25.9436 36.3962H25.9046L26.0483 36.4014ZM26.801 36.164H26.5799C26.4516 36.164 26.3174 36.1581 26.1817 36.1566H26.0852V36.164H26.1021H26.1943C26.3307 36.164 26.4663 36.1714 26.5961 36.1714H26.8062C26.8042 36.1691 26.8025 36.1666 26.801 36.164Z" fill="white"/>
<path d="M37.9583 34.5405L38.0003 34.3193C38.0928 33.87 38.1348 33.4118 38.1256 32.9532C38.1182 32.6736 38.0901 32.3949 38.0416 32.1194C38.0254 32.0103 38.0003 31.91 37.9834 31.8098C37.6489 30.3191 36.7507 29.0156 35.4768 28.1723L35.1414 27.946L35.5439 27.9379C36.6826 27.9185 37.8215 27.9677 38.9543 28.0853C40.3624 28.2527 41.4181 28.5372 42.1059 28.9567C42.6419 29.2752 42.9523 29.677 43.0275 30.1466C43.0521 30.3073 43.0605 30.4701 43.0525 30.6324C43.0105 31.4434 42.4908 32.2079 41.5102 32.9038L41.4852 32.92C40.9323 33.3145 40.212 33.6831 39.3649 34.0347L39.2477 34.0768C39.0133 34.1689 38.7788 34.2611 38.5274 34.3451C38.4102 34.3871 38.2923 34.4291 38.1669 34.4704L37.9583 34.5405ZM35.9287 28.1804C36.6162 28.7018 37.1871 29.3612 37.6044 30.1164C37.8902 30.628 38.0998 31.1786 38.2266 31.7508C38.2517 31.8599 38.2679 31.972 38.293 32.0774C38.3418 32.3657 38.3699 32.6572 38.377 32.9495C38.3868 33.3563 38.3587 33.763 38.293 34.1645L38.4441 34.1144C38.6874 34.0303 38.93 33.9382 39.1563 33.846L39.2735 33.804C40.0114 33.5156 40.7142 33.1446 41.3687 32.6981L41.3938 32.6812C42.291 32.0361 42.7687 31.3402 42.8019 30.617C42.8101 30.4739 42.8017 30.3304 42.7768 30.1894C42.7112 29.7979 42.4414 29.4654 41.974 29.1772C41.32 28.7835 40.2975 28.507 38.9233 28.3397C37.9289 28.2307 36.9291 28.1775 35.9287 28.1804Z" fill="white"/>
<path d="M26.7919 36.174H26.5707C26.4424 36.174 26.3083 36.1681 26.1726 36.1666L26.1851 36.1747C26.3215 36.1747 26.4572 36.1821 26.5869 36.1821H26.797C26.7951 36.1796 26.7933 36.1769 26.7919 36.174ZM27.2394 36.4062L27.1406 36.233C27.1251 36.2094 27.1111 36.1858 27.0978 36.1593C26.8804 35.7982 26.7036 35.4143 26.5707 35.0143C26.4704 34.7196 26.3947 34.417 26.3444 34.1098C26.3274 34.0007 26.3105 33.9004 26.3024 33.7913L26.2773 33.59L26.2544 33.6055L26.1122 33.6977L26.023 33.7566H26.0178C25.8029 33.9007 25.602 34.0646 25.4177 34.2462C25.1058 34.558 24.954 34.8698 24.9636 35.167C24.9636 35.1817 24.9636 35.1957 24.9636 35.2097C24.9651 35.2807 24.9765 35.3512 24.9975 35.4191C25.0034 35.4419 25.0107 35.4648 25.0181 35.4869C25.0712 35.6386 25.1536 35.7784 25.2607 35.8983C25.3347 35.9825 25.4172 36.0588 25.5069 36.1261C25.5105 36.1292 25.5145 36.1319 25.5187 36.1342C25.5187 36.1342 25.5253 36.1394 25.5283 36.143C25.6757 36.1519 25.8283 36.1588 25.9861 36.1637H25.9927L25.9758 36.1556L25.9603 36.1475L25.9441 36.1394L25.9109 36.1143H25.902C25.877 36.101 25.8527 36.0863 25.8283 36.0715C25.6521 35.973 25.4976 35.8399 25.3742 35.6801C25.3052 35.5867 25.2551 35.4808 25.2268 35.3682C25.2231 35.3468 25.2186 35.3225 25.2157 35.2945C25.2127 35.2665 25.2061 35.2296 25.2009 35.1972C25.1759 34.9627 25.3101 34.7025 25.5784 34.426C25.7262 34.2768 25.8868 34.1409 26.0583 34.0198C26.0598 34.0346 26.061 34.0493 26.062 34.0641C26.0617 34.0668 26.0617 34.0695 26.062 34.0722C26.062 34.0832 26.0657 34.0943 26.0672 34.1053C26.0667 34.108 26.0667 34.1108 26.0672 34.1135C26.0672 34.1245 26.0716 34.1356 26.0731 34.1459C26.0849 34.2196 26.0982 34.2933 26.1144 34.3671C26.1144 34.3744 26.1144 34.3811 26.1181 34.3892C26.1276 34.4297 26.1365 34.471 26.1461 34.5108C26.1837 34.6715 26.2257 34.8219 26.2707 34.9664C26.2825 35.0055 26.295 35.0401 26.3075 35.0829L26.3562 35.2208C26.3731 35.2672 26.3901 35.3129 26.4085 35.3594C26.4446 35.4508 26.4822 35.5422 26.5221 35.6321C26.5397 35.6712 26.5567 35.7059 26.5751 35.7471C26.5936 35.7884 26.6113 35.8209 26.6304 35.8592C26.6806 35.9624 26.7351 36.0642 26.7926 36.1629C26.8251 36.2212 26.8597 36.2787 26.8944 36.3377L26.9312 36.3974H27.0049C26.9703 36.3974 26.9371 36.3974 26.9032 36.3974H26.8899L26.5877 36.4114H26.6017C26.6754 36.4114 26.7425 36.4114 26.811 36.407H26.8936H26.8988H27.0042H27.0212L27.2386 36.3981L27.2394 36.4062ZM26.797 36.1851C26.7951 36.1825 26.7933 36.1798 26.7919 36.1769H26.5707C26.4424 36.1769 26.3083 36.1711 26.1726 36.1696L26.1851 36.1777C26.3215 36.1777 26.4572 36.1851 26.5869 36.1851H26.797ZM26.7919 36.1769H26.5707C26.4424 36.1769 26.3083 36.1711 26.1726 36.1696H26.1166L26.0923 36.1747H26.1844C26.3208 36.1747 26.4564 36.1821 26.5862 36.1821H26.7963C26.7946 36.1796 26.7931 36.1768 26.7919 36.174V36.1769Z" fill="white"/>
<path d="M37.9476 34.5421L37.9896 34.3209C38.0821 33.8716 38.1241 33.4134 38.115 32.9548C38.1075 32.6752 38.0794 32.3965 38.0309 32.121C38.0147 32.0119 37.9896 31.9116 37.9727 31.8114L37.9307 31.6101L38.1319 31.6602C38.4025 31.7237 38.6662 31.8136 38.9193 31.9286C39.3719 32.138 39.6403 32.4063 39.7155 32.7159C39.7243 32.758 39.7324 32.8 39.7406 32.8501C39.7995 33.2608 39.6484 33.6611 39.2798 34.0488L39.2628 34.0651L39.2378 34.0739C39.0033 34.1661 38.7689 34.2582 38.5175 34.3423C38.4003 34.3835 38.2823 34.4256 38.157 34.4676L37.9476 34.5421ZM38.2573 31.9529L38.2823 32.0782C38.3311 32.3666 38.3592 32.658 38.3664 32.9504C38.3762 33.3571 38.348 33.7638 38.2823 34.1653L38.4335 34.1152C38.6679 34.0312 38.8942 33.9471 39.1205 33.855C39.4154 33.5284 39.54 33.2018 39.498 32.8833C39.4892 32.8494 39.4892 32.8162 39.481 32.7742C39.4221 32.5397 39.1965 32.3319 38.8175 32.1542C38.6363 32.0726 38.449 32.0053 38.2573 31.9529Z" fill="white"/>
<path d="M43.1761 36.8913C42.7986 36.732 42.346 36.4976 41.8683 36.2543L41.5918 36.112L41.709 35.8909L41.9855 36.0339C42.4632 36.2764 42.9077 36.5116 43.2764 36.662L43.1761 36.8913Z" fill="white"/>
<path d="M39.3812 34.0063L39.2219 33.8139C39.8412 33.3082 40.5524 32.927 41.3164 32.6911C41.3414 32.6838 41.366 32.6752 41.3901 32.6653L41.4483 32.9086C41.4321 32.9167 41.4063 32.9167 41.3901 32.9255C40.6578 33.1547 39.976 33.5215 39.3812 34.0063Z" fill="white"/>
<path d="M50.6208 33.244C49.8836 33.202 49.0453 33.1017 48.1142 32.9757L48.0405 32.9676C47.06 32.8504 46.0456 32.7243 45.0488 32.6572L45.0621 32.408C46.0684 32.467 47.0821 32.5923 48.0707 32.7184L48.1444 32.7265C49.0741 32.8437 49.9042 32.9477 50.6414 32.986L50.6208 33.244Z" fill="white"/>
<path d="M38.5655 34.312L38.3643 34.1645C38.7918 33.6116 39.1605 33.1759 39.5121 32.7903C40.5848 31.6255 41.6412 30.9053 42.8392 30.5197L42.8643 30.5108C43.8868 30.1843 45.0855 29.9329 46.5268 29.7567C47.7418 29.6092 48.9818 29.5141 50.1717 29.4301L50.2977 29.422C51.5127 29.3342 52.6509 29.2502 53.742 29.1079L53.7752 29.3593C52.6775 29.5016 51.5296 29.5856 50.3147 29.6697L50.1886 29.6778C48.9987 29.7618 47.7668 29.854 46.5519 30.0044C45.1268 30.1806 43.9369 30.4239 42.9314 30.7504L42.9063 30.7586C41.7584 31.1272 40.7359 31.8312 39.6883 32.9629C39.3529 33.3315 38.9931 33.7672 38.5655 34.312Z" fill="white"/>
<path d="M38.3546 33.0276L38.1431 32.8935C38.3694 32.5418 38.5707 32.2395 38.7631 31.9719C39.7686 30.5712 40.7661 29.6253 41.9221 28.9884L41.939 28.9803C41.9542 28.9737 41.9683 28.965 41.9811 28.9545C42.8613 28.4686 43.9251 28.0411 45.216 27.6275H45.2241C46.3218 27.2839 47.4196 27.0075 48.7355 26.6809L48.8092 26.6639C49.8907 26.3963 50.9125 26.1479 51.8849 25.853L51.9587 26.0874C50.987 26.3823 49.9564 26.6403 48.8749 26.9087L48.8011 26.9256C47.4889 27.2574 46.3911 27.5302 45.2942 27.8737H45.286C44.0121 28.2762 42.9645 28.7031 42.0931 29.1808C42.0762 29.1896 42.0681 29.1978 42.0592 29.1978L42.043 29.2059C40.9283 29.8266 39.9478 30.7481 38.9673 32.1223C38.7822 32.3826 38.581 32.6841 38.3546 33.0276Z" fill="white"/>
<path d="M37.6022 30.2341L37.3848 30.108C37.7551 29.4409 38.2022 28.8194 38.7169 28.2561C38.759 28.2141 38.801 28.164 38.843 28.1219C39.3878 27.5609 40.083 27.0161 40.9544 26.4624L40.9795 26.4462C41.7425 25.9597 42.5638 25.524 43.4013 25.0801L43.5273 25.0131C44.2063 24.6526 44.8543 24.3171 45.4441 23.9736L45.5702 24.1947C44.9664 24.5464 44.3213 24.8818 43.6423 25.2423L43.517 25.3094C42.6699 25.7518 41.8494 26.1889 41.0842 26.6755L41.0591 26.6917C40.2091 27.2255 39.5375 27.7533 39.0103 28.2981L38.885 28.4235C38.3985 28.983 37.9688 29.5896 37.6022 30.2341Z" fill="white"/>
<path d="M34.3738 27.4599L34.1394 27.3678C34.2316 27.1414 34.3407 26.9151 34.4741 26.6305C34.7004 26.1698 34.9518 25.7083 35.187 25.2814L35.2703 25.1384C35.4804 24.7536 35.706 24.3591 35.8992 23.9736L36.1248 24.0842C35.9316 24.4697 35.7053 24.8722 35.4959 25.2578L35.4126 25.4001C35.1774 25.8277 34.926 26.2796 34.6997 26.7411C34.5655 27.0161 34.4571 27.2424 34.3738 27.4599Z" fill="white"/>
<path d="M28.2527 28.4974C28.0853 28.3042 27.901 28.1199 27.6998 27.9187C27.3562 27.5751 26.9957 27.2552 26.5939 26.8969L26.4834 26.804C26.131 26.4862 25.7955 26.1928 25.4778 25.8824L25.6555 25.704C25.9658 26.0063 26.3005 26.3078 26.6529 26.6175L26.762 26.7096C27.1638 27.0701 27.5243 27.3974 27.8767 27.7417C28.0772 27.9423 28.2615 28.1354 28.4377 28.3315L28.2527 28.4974Z" fill="white"/>
<path d="M41.4714 32.9082C40.8049 33.3589 40.0912 33.7354 39.343 34.031L39.2258 34.073C38.9913 34.1652 38.7562 34.2573 38.5048 34.3414C38.4148 34.3731 38.3249 34.4055 38.2313 34.4372L38.145 34.4667L37.9356 34.5338L37.9769 34.3163C37.9806 34.2979 37.985 34.2802 37.9872 34.2617C37.7292 34.3473 37.4491 34.4328 37.1475 34.5257C36.6116 34.6849 36.0328 34.8353 35.3959 34.9864C34.7589 35.1376 34.0969 35.2813 33.4098 35.4052C33.1002 35.4642 32.8237 35.5133 32.5804 35.5526C32.346 35.5858 32.0607 35.6367 31.7422 35.6868C31.0219 35.804 30.3761 35.8962 29.765 35.9633C29.111 36.037 28.491 36.0974 27.9042 36.1306C27.6366 36.1461 27.3623 36.1542 27.0992 36.1608H27.0711C27.0829 36.1822 27.0955 36.2021 27.108 36.222L27.2237 36.4041H27.2407C27.397 36.3997 27.5525 36.3931 27.7059 36.3857L27.9388 36.3732C28.5286 36.3392 29.1538 36.281 29.8062 36.2058C30.4181 36.1387 31.0632 36.0466 31.7923 35.9286C31.9272 35.9116 32.0563 35.8917 32.1786 35.8718L32.3902 35.8365L32.4639 35.8232C32.5214 35.8143 32.5767 35.804 32.6283 35.7952C32.8716 35.7531 33.1562 35.703 33.4666 35.644C34.1618 35.518 34.8326 35.3757 35.4696 35.2253C35.7534 35.1589 36.0247 35.0911 36.2857 35.0211H36.2997C36.6263 34.9348 36.9367 34.8464 37.2375 34.7586C37.5641 34.6665 37.8663 34.5662 38.1509 34.4741C38.176 34.4652 38.201 34.4571 38.2246 34.4475C38.3227 34.4151 38.417 34.3819 38.5107 34.348C38.7621 34.264 38.9965 34.1718 39.2309 34.0796L39.3489 34.0376C40.2033 33.686 40.9155 33.3092 41.4773 32.9148C42.3111 32.6811 43.3609 32.5971 44.6938 32.6546L44.7034 32.6472C43.369 32.5897 42.3096 32.6738 41.4714 32.9082ZM26.0287 36.1586L25.9749 36.1675H25.9705C25.8164 36.1623 25.6667 36.1557 25.52 36.1461C25.3512 36.1372 25.1883 36.1247 25.029 36.1085C24.7087 36.0799 24.3901 36.0351 24.0743 35.9743C23.7927 35.9222 23.5147 35.8522 23.242 35.7649L23.2162 35.7568H23.1911C23.0348 35.7745 22.8756 35.7959 22.7127 35.8239C21.8516 35.9677 20.9028 36.2559 19.7815 36.7285L19.5065 36.8457L19.488 36.8546L19.5072 36.8619L19.7778 36.9644C21.1608 37.4805 23.1211 37.7348 25.61 37.7016H25.6571C26.3811 37.692 27.1618 37.6596 27.9654 37.6014L28.1077 37.5933C28.1578 37.5851 28.2168 37.5851 28.275 37.5763L28.3421 37.5682C28.6775 37.5431 29.0056 37.5181 29.3226 37.4841C29.5158 37.4679 29.7001 37.4429 29.8755 37.4259L30.236 37.3839C30.3953 37.3669 30.5545 37.3419 30.7057 37.3249L30.7477 37.3168C31.2505 37.2578 31.7363 37.1907 32.2052 37.1155C32.4566 37.0824 32.6667 37.0484 32.8421 37.0153C33.0176 36.9821 33.2366 36.9482 33.4459 36.8981C33.9399 36.8059 34.4264 36.7049 34.9123 36.5958C35.0796 36.5626 35.2477 36.5287 35.4232 36.4874L35.7667 36.4034C35.9259 36.3614 36.0852 36.3297 36.2533 36.2862C36.5548 36.2191 36.8652 36.135 37.1829 36.0517L37.3761 36.0009C37.4498 35.9846 37.5184 35.9596 37.5936 35.9426L37.6194 35.9338C38.378 35.7192 39.113 35.4966 39.7993 35.2658L39.831 35.2555H39.8399C42.1894 34.4586 43.9588 33.5783 45.1088 32.6369L45.3352 32.4504L45.3514 32.4356L45.0329 32.4194C43.4744 32.3184 42.3096 32.4025 41.3792 32.6708L41.3541 32.6789L41.3291 32.6959C40.6747 33.1425 39.9718 33.5134 39.2339 33.8017L39.1167 33.8437C38.8903 33.9359 38.6478 34.028 38.4045 34.1121L38.2917 34.1519C38.2917 34.1519 38.2917 34.1519 38.288 34.1519L38.0528 34.2352L37.9872 34.2588C37.7292 34.3443 37.4491 34.4298 37.1475 34.5227C36.6116 34.682 36.0328 34.8324 35.3959 34.9835C34.7589 35.1346 34.0969 35.2784 33.4098 35.4022C33.1002 35.4612 32.8237 35.5104 32.5804 35.5497C32.346 35.5828 32.0607 35.6337 31.7422 35.6838C31.0219 35.8011 30.3761 35.8932 29.765 35.9603C29.111 36.034 28.491 36.0945 27.9042 36.1277C27.6366 36.1431 27.3623 36.1512 27.0992 36.1579H27.0711H26.9974C26.9289 36.1579 26.8625 36.1638 26.7954 36.1653H26.5706C26.4423 36.1653 26.3081 36.1594 26.1725 36.1579H26.0759V36.1756H26.0928H26.185C26.3214 36.1756 26.457 36.1829 26.5868 36.1829H26.7969C26.7949 36.1804 26.7932 36.1777 26.7917 36.1748H26.7969C26.8293 36.2331 26.864 36.2906 26.8986 36.3496L26.9355 36.4093H27.0092C27.0829 36.4093 27.1522 36.4093 27.2245 36.4093H27.2414C27.3977 36.4049 27.5533 36.3982 27.7066 36.3908L27.9396 36.3783C28.5294 36.3444 29.1545 36.2862 29.807 36.211C30.4189 36.1439 31.0639 36.0517 31.7931 35.9338C31.928 35.9168 32.057 35.8969 32.1794 35.877L32.391 35.8416L32.4647 35.8283C32.5222 35.8195 32.5775 35.8092 32.6291 35.8003C32.8724 35.7583 33.1569 35.7082 33.4673 35.6492C34.1625 35.5231 34.8334 35.3808 35.4703 35.2305C35.7542 35.1641 36.0255 35.0963 36.2865 35.0262H36.3005C36.627 34.94 36.9374 34.8515 37.2382 34.7638C37.5648 34.6716 37.8671 34.5714 38.1516 34.4792C38.1767 34.4704 38.2018 34.4623 38.2254 34.4527C38.3234 34.4202 38.4178 34.3871 38.5114 34.3532C38.7628 34.2691 38.9972 34.177 39.2317 34.0848L39.3496 34.0428C40.2041 33.6911 40.9162 33.3144 41.478 32.92C42.3118 32.6863 43.3616 32.6022 44.6945 32.6597H44.7129C43.5894 33.5061 41.9388 34.2934 39.7934 35.0226H39.7853L39.4536 35.1331C38.8564 35.3285 38.2305 35.5165 37.581 35.6934L37.556 35.7015C37.4822 35.7185 37.4137 35.7436 37.3348 35.7605L37.1003 35.8188C36.7988 35.9028 36.4973 35.978 36.212 36.0451C36.0446 36.0871 35.8854 36.1188 35.7262 36.1623L35.3826 36.2463C35.2064 36.2795 35.0391 36.3201 34.8717 36.3555C34.3851 36.4557 33.8993 36.5567 33.4135 36.6503C33.1783 36.6916 32.9711 36.7241 32.7846 36.7587C32.5981 36.7934 32.3991 36.8258 32.1565 36.8597C31.695 36.9268 31.1981 37.002 30.7064 37.061L30.6644 37.0691C30.5169 37.0942 30.3547 37.1111 30.1955 37.1281L29.835 37.1694C29.6588 37.1944 29.4745 37.2114 29.2902 37.2283C28.9717 37.2534 28.6451 37.2873 28.3178 37.3124L28.2595 37.3205C28.2006 37.3286 28.1504 37.3286 28.0922 37.3374L27.9492 37.3456C27.2223 37.3979 26.5204 37.4296 25.8577 37.4421L25.6026 37.4466H25.5443C23.3113 37.4679 21.511 37.2689 20.1921 36.8406L20.1796 36.8369H20.1729C21.3296 36.3709 22.2799 36.1107 23.1808 36.0097H23.1727C23.0139 35.9606 22.8635 35.9048 22.7215 35.8423C22.8837 35.8151 23.0422 35.7922 23.1978 35.7753L23.2213 36.0097C23.2951 36.0016 23.3636 36.0016 23.4425 35.9935C23.6387 35.9781 23.8357 35.9749 24.0323 35.9839C24.3762 36.0512 24.7234 36.1004 25.0725 36.1313C25.22 36.1453 25.3674 36.1564 25.523 36.166C25.6785 36.1756 25.8252 36.1815 25.9808 36.1866H25.9889L26.0169 36.1807L26.0486 36.1763L26.0729 36.1726" fill="white"/>
<path d="M26.1212 32.1641C25.5617 31.6784 24.9489 31.2579 24.2943 30.9108L24.093 30.8106C23.389 30.467 22.5677 30.1987 21.5865 29.9724C20.732 29.7711 19.8348 29.6369 18.9214 29.4946L18.774 29.4696C18.0109 29.3524 17.2907 29.2432 16.5947 29.1091L16.6456 28.8658C17.3408 29 18.0618 29.1091 18.816 29.2263L18.9634 29.2514C19.8857 29.3944 20.7822 29.5278 21.6455 29.7291C22.5268 29.9173 23.3842 30.2042 24.2014 30.5843L24.4027 30.6845C25.0774 31.039 25.7078 31.4723 26.2804 31.9754L26.1212 32.1641Z" fill="white"/>
<path d="M26.355 35.1503C26.0195 34.89 25.7099 34.6556 25.4084 34.4462C24.0423 33.4878 22.8281 32.9209 21.5785 32.6695L21.4945 32.6526C20.5361 32.4683 19.4243 32.4012 18.0752 32.452H18.0671C16.8522 32.4933 15.5863 32.6194 14.4717 32.7285H14.4466C13.2906 32.8457 12.201 32.9548 11.1873 32.9961L11.1785 32.7447C12.184 32.7034 13.2737 32.5973 14.4223 32.4771H14.4473C15.562 32.368 16.8278 32.2419 18.0509 32.2006H18.0597C19.4251 32.1498 20.5663 32.2169 21.5372 32.41L21.6213 32.4262C22.9033 32.6865 24.1522 33.2645 25.5426 34.245C25.8448 34.4661 26.1633 34.6873 26.501 34.9571L26.355 35.1503Z" fill="white"/>
<path d="M26.6608 36.1902H26.5871C26.4573 36.1902 26.3217 36.1843 26.1853 36.1828L26.1728 36.1747C25.8845 35.9926 25.6221 35.8371 25.3729 35.6977C25.2616 35.6358 25.1517 35.5761 25.0463 35.5201C25.036 35.5149 25.0271 35.5098 25.0168 35.5053C23.723 34.8197 22.5788 34.4799 21.4199 34.4364C21.3668 34.4364 21.3122 34.4327 21.2584 34.4319H21.153C20.1644 34.4319 19.032 34.575 17.688 34.8588L17.562 34.8846L17.4602 34.9067C16.3271 35.1493 15.1852 35.4663 14.1612 35.7508L14.0233 35.7884L13.9002 35.8209C12.7096 36.1563 11.5868 36.4667 10.5392 36.6842L10.4854 36.4416C11.5175 36.2249 12.6366 35.9174 13.8124 35.5835L13.8294 35.5791L13.9547 35.5451L14.0705 35.5134C15.0982 35.2281 16.2519 34.9119 17.388 34.6568L17.4993 34.6317L17.6136 34.6074C18.9457 34.3221 20.0737 34.1783 21.0557 34.1717C21.111 34.1717 21.1663 34.1717 21.2201 34.1717H21.237H21.3034C22.4947 34.1975 23.6625 34.5189 24.9563 35.1832L25.151 35.2849L25.207 35.3151C25.6316 35.5422 26.0976 35.8238 26.6461 36.1814L26.6608 36.1902Z" fill="white"/>
<path d="M26.0461 36.1686L26.0144 36.173L25.9864 36.1789H25.9783C25.823 36.174 25.6704 36.1671 25.5205 36.1583C25.3664 36.1487 25.216 36.1376 25.0701 36.1236L25.0199 36.1118C24.9978 36.1059 24.9757 36.1015 24.9536 36.0971C24.6813 36.0367 24.4048 35.998 24.1264 35.9813L24.0682 35.9777H24.0328C23.8362 35.9687 23.6392 35.9719 23.443 35.9872C23.3693 35.9954 23.3007 35.9954 23.2218 36.0035L23.1982 35.769V35.7521C23.2733 35.7426 23.3489 35.7372 23.4246 35.7359C24.0404 35.6935 24.659 35.7538 25.2551 35.9143C25.4414 35.9634 25.6306 36.0209 25.8228 36.0868L25.8965 36.1126H25.9134L25.9385 36.1295L26.0071 36.1561L26.024 36.162C26.0311 36.1649 26.0385 36.1669 26.0461 36.1679V36.1686Z" fill="white"/>
<path d="M14.828 39.327L14.7351 39.1007C15.4561 38.7984 16.2096 38.4298 17.0065 38.0361L17.0655 38.011C17.9501 37.5753 18.8665 37.1264 19.7888 36.7371L19.8809 36.9635C18.9675 37.349 18.0541 37.7928 17.1738 38.2293L17.1156 38.2624C16.3113 38.6561 15.5564 39.0247 14.828 39.327Z" fill="white"/>
<path d="M33.0539 38.2209C32.9367 38.2378 32.8106 38.2629 32.6772 38.2791C32.425 38.3211 32.1405 38.3632 31.8301 38.4133L31.7564 38.4221L31.3708 38.4723C31.2366 38.4892 31.0943 38.5143 30.944 38.5305H30.9159C30.6903 38.5644 30.4471 38.5895 30.2038 38.6234H30.1787L29.8691 38.6566C27.9922 38.8801 26.1052 39.0088 24.2153 39.0421L23.9204 39.0503L24.1217 38.8291C24.5703 38.3447 25.043 37.8831 25.5379 37.4461L25.5711 37.4129H25.6131C26.4425 37.404 27.3397 37.362 28.2671 37.2868L28.3342 37.2787C28.6696 37.2536 28.9977 37.2197 29.3066 37.1947C29.499 37.1777 29.6921 37.1526 29.8765 37.1364L30.2119 37.0944C30.3711 37.0774 30.5215 37.0605 30.6638 37.0354L30.7147 37.0273C31.2175 36.9683 31.7033 36.8931 32.1641 36.826C32.4073 36.7921 32.617 36.7587 32.7929 36.7258C32.9772 36.6919 33.1866 36.6587 33.421 36.6167C33.9069 36.5245 34.3934 36.4235 34.8793 36.3218C35.0466 36.2879 35.2147 36.2481 35.3902 36.2127L35.7676 36.1205C35.9187 36.0873 36.0691 36.0534 36.2203 36.0114C36.5048 35.9446 36.798 35.8691 37.0998 35.7851L37.335 35.7268C38.1894 35.4924 39.0107 35.2491 39.773 34.9896L39.8238 34.9808L39.857 34.9896C40.477 35.2322 41.1059 35.5506 41.6927 35.8522L41.9603 35.9863L41.6794 36.0837C39.8676 36.6758 38.0271 37.1765 36.165 37.5839L35.6622 37.693C35.4779 37.735 35.3017 37.7667 35.1343 37.8021L34.9751 37.8353L34.7068 37.8854C34.6146 37.9024 34.5143 37.9275 34.4222 37.9444L34.2629 37.9776C33.9526 38.0366 33.668 38.0867 33.4166 38.1368C33.2988 38.1768 33.1773 38.205 33.0539 38.2209ZM30.1544 38.3882H30.1876C30.4227 38.3632 30.6572 38.33 30.8835 38.2961H30.9086C31.0509 38.2791 31.1939 38.2541 31.3273 38.2378C31.4607 38.2216 31.5957 38.2039 31.7129 38.187L31.78 38.1789C32.0903 38.1287 32.3697 38.0867 32.6182 38.0535C32.7425 38.0265 32.8683 38.0068 32.9949 37.9945C33.1129 37.9776 33.2382 37.9525 33.3635 37.9275C33.6149 37.8854 33.8995 37.8272 34.2099 37.7682L34.3691 37.735C34.4613 37.7181 34.5534 37.7011 34.6537 37.6761C34.7377 37.6591 34.8299 37.6429 34.9139 37.6259L35.0732 37.592C35.2405 37.5589 35.4167 37.5183 35.601 37.4837L36.0949 37.3745C37.9638 36.9551 39.7155 36.4899 41.299 35.9738C40.8132 35.7224 40.3023 35.4799 39.7995 35.2786C39.0453 35.53 38.2322 35.7814 37.3858 36.0077L37.1927 36.0579C36.8742 36.1419 36.5646 36.2259 36.263 36.2923C36.1119 36.3262 35.9608 36.366 35.8104 36.4014L35.4248 36.4936C35.2486 36.5356 35.0813 36.5673 34.9139 36.6027C34.4273 36.7118 33.9334 36.812 33.4468 36.9042C33.2124 36.9462 33.0045 36.9882 32.8187 37.0133C32.6329 37.0384 32.4331 37.0804 32.1818 37.1136C31.7119 37.1893 31.2258 37.2563 30.7235 37.3148L30.6734 37.3237C30.5223 37.3399 30.3719 37.3569 30.2126 37.3819L29.8772 37.4239C29.6929 37.4409 29.4997 37.466 29.2992 37.4829C28.9807 37.5161 28.6534 37.5412 28.3187 37.5662L28.2516 37.5751C27.3293 37.6422 26.4498 37.6834 25.6286 37.7004C25.2341 38.0439 24.8405 38.4376 24.4719 38.8232C26.1225 38.79 27.9162 38.6558 29.802 38.4376L30.1536 38.3875L30.1544 38.3882Z" fill="white"/>
<path d="M23.0587 40.2901L22.8914 40.105C23.1929 39.8374 23.5445 39.46 23.9132 39.0663L24.1233 38.84L24.3076 39.0162L24.0982 39.2373C23.7207 39.6362 23.3691 40.0129 23.0587 40.2901Z" fill="white"/>
<path d="M38.2222 34.2179L38.1116 34.4437L39.7593 35.2512L39.8699 35.0255L38.2222 34.2179Z" fill="white"/>
<path d="M26.9123 36.4127L26.9034 36.4208C26.8208 36.5011 26.2591 37.0489 25.8713 37.4367C25.8675 37.4412 25.8633 37.4454 25.8588 37.4492L25.7246 37.5841L25.541 37.4573L25.558 37.4411L25.5749 37.4241C25.5749 37.4241 26.3984 36.5395 26.5967 36.4267L26.899 36.4127H26.9123Z" fill="white"/>
<path d="M27.0071 36.4028C26.9725 36.4028 26.9393 36.4028 26.9054 36.4028H26.8921L26.5899 36.4168H26.2787C26.1807 36.4168 26.0826 36.4109 25.9912 36.4065C25.9662 36.4065 25.9418 36.4065 25.9175 36.4065H25.8902C25.8861 36.4058 25.8818 36.4058 25.8777 36.4065H25.8401H25.8003H25.7701H25.7148H25.689H25.6661C25.6524 36.4076 25.6386 36.4076 25.6248 36.4065H25.5806H25.5577C25.0131 36.3774 24.4712 36.3104 23.9358 36.206C23.8393 36.1861 23.7442 36.1647 23.6513 36.1433L23.5363 36.0939C23.4249 36.0637 23.3151 36.0327 23.2134 36.0003L23.1883 35.9944H23.1802C23.0214 35.9452 22.871 35.8895 22.729 35.827C22.8912 35.7998 23.0497 35.7769 23.2053 35.7599L23.2288 35.9944C23.3026 35.9863 23.3711 35.9863 23.45 35.9782C23.6462 35.9628 23.8432 35.9596 24.0398 35.9686C24.3837 36.0358 24.7309 36.0851 25.08 36.116C25.2275 36.13 25.3749 36.1411 25.5305 36.1507C25.686 36.1603 25.8327 36.1662 25.9883 36.1713H25.9964L26.0244 36.1654L26.0561 36.161L26.0804 36.1573V36.1676H26.0974H26.1895C26.3259 36.1676 26.4616 36.175 26.5913 36.175H26.8014C26.7995 36.1725 26.7977 36.1698 26.7963 36.1669H26.8014C26.8339 36.2251 26.8685 36.2826 26.9032 36.3416L26.94 36.4013L27.0071 36.4028Z" fill="white"/>
<path d="M38.3175 33.9773C38.3086 34.0363 38.2998 34.096 38.2887 34.155C38.2754 34.2287 38.26 34.3069 38.2437 34.3828L38.2319 34.4351L38.2283 34.4469V34.4521L38.1612 34.475C37.8338 34.5841 37.5132 34.6806 37.2433 34.7617C36.9484 34.8487 36.6381 34.9342 36.3034 35.0205H36.2894C36.0328 35.0869 35.763 35.1532 35.4784 35.221C34.7589 35.3943 34.0917 35.5255 33.4783 35.6412C33.2196 35.6906 32.9519 35.7378 32.6386 35.7924L32.4691 35.8226L32.3953 35.8359L32.1838 35.8713C32.0636 35.8897 31.9324 35.9089 31.7974 35.9273C31.0882 36.0423 30.4365 36.133 29.8069 36.2037C29.1619 36.2775 28.5315 36.3328 27.9322 36.3726L27.711 36.3851C27.5577 36.3925 27.4021 36.3991 27.2458 36.4035H27.2244C27.1507 36.4035 27.0814 36.4035 27.0092 36.4035H26.9354L26.8986 36.3438C26.8639 36.2848 26.8293 36.2273 26.7968 36.1691C26.7393 36.0674 26.6848 35.9664 26.6347 35.8654C26.6155 35.8278 26.5971 35.7916 26.5794 35.7533C26.5617 35.715 26.544 35.6796 26.5263 35.6383C26.4843 35.5469 26.4467 35.4562 26.4128 35.3655C26.3943 35.3191 26.3774 35.2734 26.3604 35.2269C26.3435 35.1805 26.3265 35.1274 26.3103 35.0795L26.2749 34.9748C26.2299 34.8273 26.1879 34.6799 26.1503 34.5192C26.1407 34.4794 26.1319 34.4381 26.1223 34.3975C26.1223 34.3894 26.1223 34.3828 26.1186 34.3754C26.109 34.3334 26.1002 34.2914 26.0921 34.2479C26.084 34.2044 26.0781 34.1779 26.0714 34.1417L26.0545 34.0311L26.0206 33.81C26.0206 33.7938 26.0169 33.7783 26.0154 33.7621C25.9517 33.1861 25.9706 32.6039 26.0714 32.0333C26.219 31.1868 26.5422 30.3807 27.0202 29.6668C27.094 29.5518 27.1765 29.4404 27.2606 29.3306C27.5529 28.9554 27.8846 28.6126 28.2499 28.3081C28.9323 27.7514 29.7247 27.3453 30.5751 27.1167C30.7054 27.0813 30.8373 27.0506 30.971 27.0246L31.2762 26.973C32.3392 26.8176 33.4243 26.9426 34.4241 27.3356C35.4239 27.7286 36.3037 28.3759 36.9765 29.2134C37.0118 29.2569 37.0502 29.3011 37.0811 29.3453C37.1121 29.3896 37.1453 29.4294 37.1755 29.4714C37.2057 29.5134 37.2492 29.5717 37.2824 29.6189C37.3866 29.7722 37.4849 29.93 37.5773 30.0922C37.8601 30.6027 38.07 31.1504 38.201 31.7192C38.2172 31.7708 38.2327 31.8209 38.2445 31.8711C38.2624 31.9386 38.2767 32.007 38.2872 32.076C38.2876 32.0802 38.2876 32.0844 38.2872 32.0886C38.2998 32.1623 38.3108 32.236 38.3204 32.3097C38.3285 32.3643 38.3352 32.4188 38.3403 32.4741C38.3455 32.5294 38.3499 32.584 38.3543 32.6385C38.3588 32.6931 38.3617 32.7454 38.3646 32.8007C38.3676 32.856 38.3691 32.8988 38.3713 32.9482V32.9607C38.3837 33.3005 38.3657 33.6407 38.3175 33.9773Z" fill="white"/>
</svg>
