<svg width="200" height="200" viewBox="0 0 200 200" fill="none" xmlns="http://www.w3.org/2000/svg">
<circle cx="100" cy="100" r="100" fill="url(#paint0_linear_1661_2121)"/>
<path fill-rule="evenodd" clip-rule="evenodd" d="M99.825 168.75C120.249 168.75 138.598 159.889 151.219 145.812C145.348 140.722 136.5 140.413 130.25 145.444L129.055 146.405C117.611 155.616 100.935 154.256 91.1436 143.312C85.8029 137.344 76.6566 136.734 70.5677 141.941L56.8004 153.714C68.592 163.124 83.5498 168.75 99.825 168.75ZM122.172 135.459C133.073 126.686 148.394 127 158.878 135.474C165.145 125.117 168.75 112.979 168.75 100C168.75 85.5786 164.298 72.1943 156.691 61.1398C151.787 60.0981 146.471 61.3148 142.436 64.8814L141.288 65.8966C130.281 75.6246 113.561 75.0335 103.273 64.5528C97.6621 58.8365 88.4971 58.6488 82.6555 64.1305L66.6344 79.1648L57.8209 69.8206L73.842 54.7861C84.7846 44.5175 101.953 44.8692 112.464 55.5772C117.955 61.1721 126.882 61.4877 132.757 56.2945L133.905 55.2794C137.472 52.127 141.598 50.0019 145.918 48.8841C133.707 37.9216 117.547 31.25 99.825 31.25C64.8357 31.25 35.9359 57.2551 31.4921 90.9452C42.1197 85.8582 55.2288 87.8157 63.894 96.6668C69.3644 102.255 78.1728 102.844 84.3428 98.0361L93.3005 91.0557C104.559 82.2829 120.473 82.7075 131.244 92.0681L148.684 107.224L140.235 116.897L122.795 101.742C116.67 96.4187 107.621 96.1771 101.219 101.166L92.2617 108.146C80.9253 116.98 64.7422 115.896 54.6916 105.63C48.8472 99.6605 39.2886 99.4522 33.1885 105.162L31.25 106.976C32.7007 121.335 38.5813 134.391 47.508 144.762L62.196 132.201C73.602 122.447 90.7355 123.589 100.74 134.769C105.967 140.611 114.869 141.337 120.978 136.42L122.172 135.459Z" fill="url(#paint1_linear_1661_2121)"/>
<defs>
<linearGradient id="paint0_linear_1661_2121" x1="100" y1="0" x2="100" y2="200" gradientUnits="userSpaceOnUse">
<stop stop-color="#F3E3CC"/>
<stop offset="1" stop-color="#F8DDB8"/>
</linearGradient>
<linearGradient id="paint1_linear_1661_2121" x1="100" y1="31.25" x2="100" y2="168.75" gradientUnits="userSpaceOnUse">
<stop stop-color="#882950"/>
<stop offset="0.505208" stop-color="#A32E48"/>
<stop offset="1" stop-color="#DD3639"/>
</linearGradient>
</defs>
</svg>
