<svg width="64" height="64" viewBox="0 0 64 64" fill="none" xmlns="http://www.w3.org/2000/svg">
<circle cx="32" cy="32" r="32" fill="url(#paint0_linear_1677_21875)"/>
<path fill-rule="evenodd" clip-rule="evenodd" d="M48.5 15H16.9083L25.9022 25.6034C27.3975 24.2937 29.3561 23.5 31.5 23.5C36.1944 23.5 40 27.3056 40 32C40 34.1175 39.2257 36.0542 37.9448 37.5423L48.5 46.6245V15ZM44.3384 49L35.9795 39.2252C34.6789 40.0333 33.1439 40.5 31.5 40.5C26.8056 40.5 23 36.6944 23 32C23 30.3709 23.4583 28.8488 24.2531 27.5557L14.5 19.0625V49H44.3384Z" fill="white"/>
<defs>
<linearGradient id="paint0_linear_1677_21875" x1="12.2553" y1="7.14894" x2="54.8085" y2="51.4043" gradientUnits="userSpaceOnUse">
<stop stop-color="#6B7094"/>
<stop offset="0.286458" stop-color="#33374C"/>
<stop offset="1" stop-color="#232534"/>
</linearGradient>
</defs>
</svg>
