<svg width="32" height="32" viewBox="0 0 32 32" fill="none" xmlns="http://www.w3.org/2000/svg">
<g clip-path="url(#clip0_613_564)">
<path d="M16 32C24.8365 32 32 24.8365 32 16C32 7.16344 24.8365 0 16 0C7.16344 0 0 7.16344 0 16C0 24.8365 7.16344 32 16 32Z" fill="url(#paint0_linear_613_564)"/>
<path d="M16.0036 10.2104C17.1663 10.2104 18.1088 9.26787 18.1088 8.1052C18.1088 6.94253 17.1663 6 16.0036 6C14.841 6 13.8984 6.94253 13.8984 8.1052C13.8984 9.26787 14.841 10.2104 16.0036 10.2104Z" fill="white"/>
<path d="M8.1052 18.1069C9.26787 18.1069 10.2104 17.1644 10.2104 16.0017C10.2104 14.839 9.26787 13.8965 8.1052 13.8965C6.94253 13.8965 6 14.839 6 16.0017C6 17.1644 6.94253 18.1069 8.1052 18.1069Z" fill="white"/>
<path d="M23.8943 18.1069C25.0569 18.1069 25.9995 17.1644 25.9995 16.0017C25.9995 14.839 25.0569 13.8965 23.8943 13.8965C22.7316 13.8965 21.7891 14.839 21.7891 16.0017C21.7891 17.1644 22.7316 18.1069 23.8943 18.1069Z" fill="white"/>
<path d="M15.9964 21.7896C14.8337 21.7896 13.8912 22.7321 13.8912 23.8948C13.8912 25.0575 14.8337 26 15.9964 26C17.159 26 18.1016 25.0575 18.1016 23.8948C18.1016 22.7321 17.159 21.7896 15.9964 21.7896Z" fill="white"/>
<path d="M10.472 11.2663C11.1987 11.2663 11.7877 10.6772 11.7877 9.95051C11.7877 9.22385 11.1987 8.63477 10.472 8.63477C9.74533 8.63477 9.15625 9.22385 9.15625 9.95051C9.15625 10.6772 9.74533 11.2663 10.472 11.2663Z" fill="white"/>
<path d="M21.528 20.7337C20.8013 20.7337 20.2123 21.3228 20.2123 22.0495C20.2123 22.7762 20.8013 23.3652 21.528 23.3652C22.2547 23.3652 22.8438 22.7762 22.8438 22.0495C22.8438 21.3228 22.2547 20.7337 21.528 20.7337Z" fill="white"/>
<path d="M21.5267 11.2663C22.2533 11.2663 22.8424 10.6772 22.8424 9.95051C22.8424 9.22385 22.2533 8.63477 21.5267 8.63477C20.8 8.63477 20.2109 9.22385 20.2109 9.95051C20.2109 10.6772 20.8 11.2663 21.5267 11.2663Z" fill="white"/>
<path d="M10.4733 20.7337C9.74665 20.7337 9.15757 21.3228 9.15757 22.0495C9.15757 22.7762 9.74665 23.3652 10.4733 23.3652C11.2 23.3652 11.7891 22.7762 11.7891 22.0495C11.7891 21.3228 11.2 20.7337 10.4733 20.7337Z" fill="white"/>
<path d="M13.8912 16.0017C13.8912 17.1644 14.8337 18.1069 15.9964 18.1069C17.159 18.1069 18.1016 17.1644 18.1016 16.0017C18.1016 14.839 17.159 13.8965 15.9964 13.8965C14.8337 13.8965 13.8912 14.839 13.8912 16.0017Z" fill="white"/>
<path d="M27.1371 27.1371C25.6746 28.5996 23.9383 29.7598 22.0274 30.5513C20.1165 31.3428 18.0684 31.7502 16.0001 31.7502C13.9318 31.7502 11.8837 31.3428 9.9728 30.5513C8.06191 29.7598 6.32563 28.5996 4.8631 27.1371C3.40057 25.6746 2.24042 23.9383 1.4489 22.0274C0.657388 20.1165 0.25 18.0684 0.25 16.0001C0.25 13.9318 0.657388 11.8837 1.4489 9.9728C2.24042 8.06191 3.40057 6.32563 4.8631 4.8631C7.81681 1.90938 11.8229 0.25 16.0001 0.25C20.1773 0.25 24.1834 1.90938 27.1371 4.8631C30.0908 7.81681 31.7502 11.8229 31.7502 16.0001C31.7502 20.1773 30.0908 24.1834 27.1371 27.1371Z" stroke="white" stroke-width="0.5"/>
</g>
<defs>
<linearGradient id="paint0_linear_613_564" x1="16" y1="0" x2="16" y2="32" gradientUnits="userSpaceOnUse">
<stop stop-color="#3286FF"/>
<stop offset="1" stop-color="#0F2478"/>
</linearGradient>
<clipPath id="clip0_613_564">
<rect width="32" height="32" fill="white"/>
</clipPath>
</defs>
</svg>
