<svg width="64" height="64" viewBox="0 0 64 64" fill="none" xmlns="http://www.w3.org/2000/svg">
<circle cx="32" cy="32" r="32" fill="#4C5460"/>
<rect x="19.1304" y="30.1739" width="31.826" height="1.56522" rx="0.782608" fill="white"/>
<circle cx="17.0438" cy="30.9565" r="0.782608" fill="white"/>
<rect x="12.8696" y="33.8261" width="23.7391" height="1.56522" rx="0.782608" fill="white"/>
<circle cx="10.7826" cy="34.6087" r="0.782608" fill="white"/>
<rect x="19.1304" y="37.4782" width="28.4347" height="1.56522" rx="0.782608" fill="white"/>
<circle cx="17.0438" cy="38.2608" r="0.782608" fill="white"/>
<rect x="14.4351" y="41.1304" width="12.2609" height="1.56522" rx="0.782608" fill="white"/>
<rect x="32.6958" y="44.7826" width="15.1304" height="1.56522" rx="0.782608" fill="white"/>
<rect x="24.3477" y="48.4348" width="15.1304" height="1.56522" rx="0.782608" fill="white"/>
<circle cx="12.3475" cy="41.913" r="0.782608" fill="white"/>
<circle cx="30.6088" cy="45.5652" r="0.782608" fill="white"/>
<rect x="28.2607" y="41.1304" width="23.7391" height="1.56522" rx="0.782608" fill="white"/>
<circle cx="22.2611" cy="49.2174" r="0.782608" fill="white"/>
<path d="M23 27.6957C22.4477 27.6957 21.9964 27.2474 22.0347 26.6964C22.2622 23.4294 23.5995 20.3433 25.8203 18.0114C28.2665 15.443 31.5841 14 35.0435 14C38.5028 14 41.8205 15.443 44.2666 18.0114C46.4874 20.3433 47.8247 23.4294 48.0522 26.6964C48.0905 27.2474 47.6392 27.6957 47.0869 27.6957L35.0435 27.6957L23 27.6957Z" fill="white"/>
</svg>
