<svg width="32" height="32" viewBox="0 0 32 32" fill="none" xmlns="http://www.w3.org/2000/svg">
<path d="M16 32C24.8366 32 32 24.8366 32 16C32 7.16344 24.8366 0 16 0C7.16344 0 0 7.16344 0 16C0 24.8366 7.16344 32 16 32Z" fill="url(#paint0_linear_660_7462)"/>
<path d="M16 31.75C24.6985 31.75 31.75 24.6985 31.75 16C31.75 7.30152 24.6985 0.25 16 0.25C7.30152 0.25 0.25 7.30152 0.25 16C0.25 24.6985 7.30152 31.75 16 31.75Z" stroke="white" stroke-width="0.5"/>
<g clip-path="url(#clip0_660_7462)">
<path fill-rule="evenodd" clip-rule="evenodd" d="M21.1412 19.3656C21.1412 21.0877 19.7352 22.4884 18.0065 22.4884H11.9964L18.2424 16.2662C19.8592 16.3889 21.1412 17.724 21.1412 19.3656ZM11.1102 16.0022V8.78066H18.0202C18.1383 8.78066 18.2548 8.78699 18.3695 8.79983L11.1102 16.0022ZM22.3985 11.8894C22.3985 10.4342 21.6786 9.14329 20.5742 8.34994L23.5547 5.38672L21.7717 5.39689L19.4038 7.75093C18.9655 7.60465 18.4965 7.52523 18.0092 7.52523H9.85722V19.005L19.6719 9.24707C20.5559 9.79908 21.1448 10.7772 21.1448 11.8894C21.1448 13.6085 19.7383 15.0069 18.0092 15.0069H17.7497L6.83008 25.8635H8.60293L10.7437 23.7349H18.0092C20.4294 23.7349 22.3985 21.7773 22.3985 19.3711C22.3985 17.7841 21.5395 16.3966 20.2622 15.6327C21.5408 14.869 22.3985 13.4772 22.3985 11.8894Z" fill="white"/>
</g>
<defs>
<linearGradient id="paint0_linear_660_7462" x1="16" y1="0" x2="16" y2="32" gradientUnits="userSpaceOnUse">
<stop stop-color="#647FFF"/>
<stop offset="1" stop-color="#3C5CEC"/>
</linearGradient>
<clipPath id="clip0_660_7462">
<rect width="20.3636" height="20.3636" fill="white" transform="translate(5 5.5)"/>
</clipPath>
</defs>
</svg>
