<svg width="32" height="32" viewBox="0 0 32 32" fill="none" xmlns="http://www.w3.org/2000/svg">
<g clip-path="url(#clip0_613_438)">
<path d="M16 32C24.8365 32 32 24.8365 32 16C32 7.16344 24.8365 0 16 0C7.16344 0 0 7.16344 0 16C0 24.8365 7.16344 32 16 32Z" fill="url(#paint0_linear_613_438)"/>
<path fill-rule="evenodd" clip-rule="evenodd" d="M25.8211 15.1458C26.0063 14.6347 26.7808 14.392 27.2472 14.392H27.4594V15.5261C27.1931 15.5261 26.9219 15.5119 26.6661 15.6002C26.4885 15.6581 26.3307 15.7661 26.2117 15.9117C25.9944 16.2086 26.0125 16.3918 25.9954 16.6702C25.9794 16.9407 25.9866 17.1257 25.9866 17.3967V19.4087H24.7619V14.4429H25.8232L25.8211 15.1458ZM10.9307 18.2326C10.0535 19.1019 9.29666 19.5222 8.05065 19.5222C5.9757 19.5222 4.54297 18.055 4.54297 15.9889C4.54297 13.8672 6.16764 12.4746 8.07036 12.4746C9.18103 12.4759 10.236 12.9673 10.9597 13.8204L10.0722 14.6804C9.47199 14.0353 8.81682 13.6991 8.04132 13.6991C6.79634 13.6991 5.78015 14.6709 5.78015 15.9889C5.78015 17.3726 6.75849 18.2977 8.06932 18.2977C8.89049 18.2977 9.44451 17.9614 10.0722 17.3259L10.9307 18.2326ZM16.1856 18.418C15.6596 19.1755 14.966 19.5137 13.9332 19.5137C12.3734 19.5137 11.3676 18.355 11.3676 16.8966C11.3676 15.5414 12.3366 14.2885 13.9151 14.2885C15.4656 14.2885 16.5176 15.4106 16.5176 16.9807C16.5176 17.0931 16.5088 17.1487 16.5088 17.2612H12.5581C12.6779 17.9998 13.2324 18.4107 13.9332 18.4107C14.4592 18.4107 14.8104 18.2614 15.1517 17.9247L16.1856 18.418ZM15.2809 16.2774C15.1149 15.6995 14.5889 15.3428 13.9322 15.3428C13.3232 15.3428 12.8522 15.6512 12.6125 16.2774H15.2809ZM17.1397 12.5014H18.3671V19.383H17.1397V12.5014ZM23.8072 18.418C23.2813 19.1755 22.5887 19.5137 21.5549 19.5137C19.9951 19.5137 18.9891 18.355 18.9891 16.8966C18.9891 15.5414 19.9583 14.2885 21.5367 14.2885C23.0872 14.2885 24.1397 15.4106 24.1397 16.9807C24.1397 17.0931 24.1304 17.1487 24.1304 17.2612H20.1797C20.2995 17.9998 20.8541 18.4107 21.5549 18.4107C22.0815 18.4107 22.432 18.2614 22.7735 17.9247L23.8072 18.418ZM22.9026 16.2774C22.7365 15.6995 22.2106 15.3428 21.5538 15.3428C20.9448 15.3428 20.4744 15.6512 20.2341 16.2774H22.9026Z" fill="white"/>
<path d="M27.1371 27.1371C25.6746 28.5996 23.9383 29.7598 22.0274 30.5513C20.1165 31.3428 18.0684 31.7502 16.0001 31.7502C13.9318 31.7502 11.8837 31.3428 9.9728 30.5513C8.06191 29.7598 6.32563 28.5996 4.8631 27.1371C3.40057 25.6746 2.24042 23.9383 1.4489 22.0274C0.657388 20.1165 0.25 18.0684 0.25 16.0001C0.25 13.9318 0.657388 11.8837 1.4489 9.9728C2.24042 8.06191 3.40057 6.32563 4.8631 4.8631C7.81681 1.90938 11.8229 0.25 16.0001 0.25C20.1773 0.25 24.1834 1.90938 27.1371 4.8631C30.0908 7.81681 31.7502 11.8229 31.7502 16.0001C31.7502 20.1773 30.0908 24.1834 27.1371 27.1371Z" stroke="white" stroke-width="0.5"/>
</g>
<defs>
<linearGradient id="paint0_linear_613_438" x1="16" y1="0" x2="16" y2="32" gradientUnits="userSpaceOnUse">
<stop stop-color="#575757"/>
<stop offset="1"/>
</linearGradient>
<clipPath id="clip0_613_438">
<rect width="32" height="32" fill="white"/>
</clipPath>
</defs>
</svg>
