<svg width="32" height="32" viewBox="0 0 32 32" fill="none" xmlns="http://www.w3.org/2000/svg">
<g clip-path="url(#clip0_613_629)">
<path d="M27.1371 27.1371C25.6746 28.5996 23.9383 29.7598 22.0274 30.5513C20.1165 31.3428 18.0684 31.7502 16.0001 31.7502C13.9318 31.7502 11.8837 31.3428 9.9728 30.5513C8.06191 29.7598 6.32563 28.5996 4.8631 27.1371C3.40057 25.6746 2.24042 23.9383 1.4489 22.0274C0.657388 20.1165 0.25 18.0684 0.25 16.0001C0.25 13.9318 0.657388 11.8837 1.4489 9.9728C2.24042 8.06191 3.40057 6.32563 4.8631 4.8631C7.81681 1.90938 11.8229 0.25 16.0001 0.25C20.1773 0.25 24.1834 1.90938 27.1371 4.8631C30.0908 7.81681 31.7502 11.8229 31.7502 16.0001C31.7502 20.1773 30.0908 24.1834 27.1371 27.1371Z" fill="url(#paint0_linear_613_629)" stroke="white" stroke-width="0.5"/>
<path fill-rule="evenodd" clip-rule="evenodd" d="M23.5 8.5H9.562L13.53 13.178C14.2438 12.5531 15.168 12.222 16.1162 12.2514C17.0645 12.2809 17.9663 12.6686 18.6401 13.3365C19.3138 14.0044 19.7094 14.9029 19.747 15.8508C19.7847 16.7988 19.4616 17.7258 18.843 18.445L23.5 22.452V8.5ZM21.664 23.5L17.976 19.188C17.2586 19.6331 16.4119 19.823 15.5731 19.7271C14.7343 19.6311 13.9524 19.255 13.354 18.6594C12.7555 18.0639 12.3756 17.2838 12.2756 16.4455C12.1756 15.6071 12.3614 14.7596 12.803 14.04L8.5 10.291V23.5H21.664Z" fill="white"/>
</g>
<defs>
<linearGradient id="paint0_linear_613_629" x1="16.0001" y1="9.62764e-05" x2="16.0001" y2="32.0001" gradientUnits="userSpaceOnUse">
<stop stop-color="#363A51"/>
<stop offset="1" stop-color="#1F212E"/>
</linearGradient>
<clipPath id="clip0_613_629">
<rect width="32" height="32" fill="white"/>
</clipPath>
</defs>
</svg>
